M48
; DRILL file {KiCad (6.0.7-1)-1} date Thursday, April 18, 2024 at 03:27:56 AM
; FORMAT={-:-/ absolute / inch / decimal}
; #@! TF.CreationDate,2024-04-18T03:27:56-04:00
; #@! TF.GenerationSoftware,Kicad,Pcbnew,(6.0.7-1)-1
; #@! TF.FileFunction,NonPlated,1,2,NPTH
FMAT,2
INCH
; #@! TA.AperFunction,NonPlated,NPTH,ComponentDrill
T1C0.0787
; #@! TA.AperFunction,NonPlated,NPTH,ComponentDrill
T2C0.1693
%
G90
G05
T1
X3.5753Y-7.8887
X3.9218Y-7.8887
X4.1285Y-7.8887
X4.4749Y-7.8887
X4.6831Y-7.8885
X5.0295Y-7.8885
X5.2402Y-7.8873
X5.5866Y-7.8873
X5.7953Y-7.8874
X6.1417Y-7.8874
X6.3504Y-7.8874
X6.6969Y-7.8874
X6.9055Y-7.8874
X7.252Y-7.8874
X7.4587Y-7.8874
X7.8051Y-7.8874
X8.0138Y-7.8874
X8.3602Y-7.8874
X8.5689Y-7.8874
X8.9154Y-7.8874
X9.124Y-7.8893
X9.4705Y-7.8893
X9.6791Y-7.8893
X10.0256Y-7.8893
T2
X3.1905Y-14.5212
X3.1991Y-2.4769
X10.4091Y-2.4264
X10.4091Y-14.5212
T0
M30
