%TF.GenerationSoftware,KiCad,Pcbnew,(6.0.7-1)-1*%
%TF.CreationDate,2024-04-18T03:27:55-04:00*%
%TF.ProjectId,EM_Harpsichord_Sustainer+Playback_V2.0,454d5f48-6172-4707-9369-63686f72645f,rev?*%
%TF.SameCoordinates,Original*%
%TF.FileFunction,Soldermask,Top*%
%TF.FilePolarity,Negative*%
%FSLAX46Y46*%
G04 Gerber Fmt 4.6, Leading zero omitted, Abs format (unit mm)*
G04 Created by KiCad (PCBNEW (6.0.7-1)-1) date 2024-04-18 03:27:55*
%MOMM*%
%LPD*%
G01*
G04 APERTURE LIST*
G04 Aperture macros list*
%AMRoundRect*
0 Rectangle with rounded corners*
0 $1 Rounding radius*
0 $2 $3 $4 $5 $6 $7 $8 $9 X,Y pos of 4 corners*
0 Add a 4 corners polygon primitive as box body*
4,1,4,$2,$3,$4,$5,$6,$7,$8,$9,$2,$3,0*
0 Add four circle primitives for the rounded corners*
1,1,$1+$1,$2,$3*
1,1,$1+$1,$4,$5*
1,1,$1+$1,$6,$7*
1,1,$1+$1,$8,$9*
0 Add four rect primitives between the rounded corners*
20,1,$1+$1,$2,$3,$4,$5,0*
20,1,$1+$1,$4,$5,$6,$7,0*
20,1,$1+$1,$6,$7,$8,$9,0*
20,1,$1+$1,$8,$9,$2,$3,0*%
G04 Aperture macros list end*
%ADD10RoundRect,0.275000X0.225000X0.250000X-0.225000X0.250000X-0.225000X-0.250000X0.225000X-0.250000X0*%
%ADD11RoundRect,0.250000X0.275000X-0.200000X0.275000X0.200000X-0.275000X0.200000X-0.275000X-0.200000X0*%
%ADD12RoundRect,0.050000X0.450000X0.600000X-0.450000X0.600000X-0.450000X-0.600000X0.450000X-0.600000X0*%
%ADD13RoundRect,0.050000X-0.450000X-0.600000X0.450000X-0.600000X0.450000X0.600000X-0.450000X0.600000X0*%
%ADD14C,3.100000*%
%ADD15RoundRect,0.275000X-0.250000X0.225000X-0.250000X-0.225000X0.250000X-0.225000X0.250000X0.225000X0*%
%ADD16C,2.100000*%
%ADD17RoundRect,0.050000X-0.650000X-0.650000X0.650000X-0.650000X0.650000X0.650000X-0.650000X0.650000X0*%
%ADD18RoundRect,0.050000X-1.000000X-0.650000X1.000000X-0.650000X1.000000X0.650000X-1.000000X0.650000X0*%
%ADD19RoundRect,0.300000X0.550000X-1.412500X0.550000X1.412500X-0.550000X1.412500X-0.550000X-1.412500X0*%
%ADD20C,4.400000*%
%ADD21RoundRect,0.250000X-0.275000X0.200000X-0.275000X-0.200000X0.275000X-0.200000X0.275000X0.200000X0*%
%ADD22RoundRect,0.250000X0.200000X0.275000X-0.200000X0.275000X-0.200000X-0.275000X0.200000X-0.275000X0*%
%ADD23RoundRect,0.250000X-0.200000X-0.275000X0.200000X-0.275000X0.200000X0.275000X-0.200000X0.275000X0*%
%ADD24RoundRect,0.212500X-0.825000X-0.162500X0.825000X-0.162500X0.825000X0.162500X-0.825000X0.162500X0*%
%ADD25RoundRect,0.200000X0.850000X0.150000X-0.850000X0.150000X-0.850000X-0.150000X0.850000X-0.150000X0*%
%ADD26RoundRect,0.050000X0.650000X0.650000X-0.650000X0.650000X-0.650000X-0.650000X0.650000X-0.650000X0*%
%ADD27RoundRect,0.050000X1.000000X0.650000X-1.000000X0.650000X-1.000000X-0.650000X1.000000X-0.650000X0*%
%ADD28RoundRect,0.275000X-0.225000X-0.250000X0.225000X-0.250000X0.225000X0.250000X-0.225000X0.250000X0*%
%ADD29O,2.100000X2.900000*%
%ADD30O,3.200000X2.200000*%
%ADD31RoundRect,0.700000X-0.650000X-0.650000X0.650000X-0.650000X0.650000X0.650000X-0.650000X0.650000X0*%
%ADD32O,3.600000X2.350000*%
%ADD33C,7.600000*%
%ADD34RoundRect,0.275000X0.250000X-0.225000X0.250000X0.225000X-0.250000X0.225000X-0.250000X-0.225000X0*%
%ADD35RoundRect,0.050000X0.900000X0.900000X-0.900000X0.900000X-0.900000X-0.900000X0.900000X-0.900000X0*%
%ADD36C,1.900000*%
%ADD37RoundRect,0.050000X0.850000X0.850000X-0.850000X0.850000X-0.850000X-0.850000X0.850000X-0.850000X0*%
%ADD38O,1.800000X1.800000*%
%ADD39O,2.900000X2.100000*%
%ADD40RoundRect,0.300000X0.600000X0.725000X-0.600000X0.725000X-0.600000X-0.725000X0.600000X-0.725000X0*%
%ADD41O,1.800000X2.050000*%
%ADD42C,2.500000*%
%ADD43O,2.500000X2.500000*%
%ADD44C,4.100000*%
%ADD45RoundRect,0.050000X-0.650000X0.650000X-0.650000X-0.650000X0.650000X-0.650000X0.650000X0.650000X0*%
%ADD46RoundRect,0.050000X-0.650000X1.000000X-0.650000X-1.000000X0.650000X-1.000000X0.650000X1.000000X0*%
%ADD47RoundRect,0.050000X0.600000X-0.450000X0.600000X0.450000X-0.600000X0.450000X-0.600000X-0.450000X0*%
%ADD48RoundRect,0.300000X-0.475000X0.250000X-0.475000X-0.250000X0.475000X-0.250000X0.475000X0.250000X0*%
%ADD49RoundRect,0.268750X0.256250X-0.218750X0.256250X0.218750X-0.256250X0.218750X-0.256250X-0.218750X0*%
%ADD50RoundRect,0.300000X0.475000X-0.250000X0.475000X0.250000X-0.475000X0.250000X-0.475000X-0.250000X0*%
%ADD51RoundRect,0.050000X0.650000X-0.650000X0.650000X0.650000X-0.650000X0.650000X-0.650000X-0.650000X0*%
%ADD52RoundRect,0.050000X0.650000X-1.000000X0.650000X1.000000X-0.650000X1.000000X-0.650000X-1.000000X0*%
G04 APERTURE END LIST*
D10*
%TO.C,CU116*%
X248825000Y-151538000D03*
X247275000Y-151538000D03*
%TD*%
D11*
%TO.C,R70*%
X127750000Y-190554264D03*
X127750000Y-188904264D03*
%TD*%
D12*
%TO.C,D93*%
X197150000Y-137200736D03*
X193850000Y-137200736D03*
%TD*%
D13*
%TO.C,D3*%
X97713500Y-124484500D03*
X101013500Y-124484500D03*
%TD*%
D14*
%TO.C,J66*%
X221953000Y-374777500D03*
X221953000Y-367777500D03*
X226953000Y-367677500D03*
X226953000Y-374777500D03*
%TD*%
D15*
%TO.C,C88*%
X134792000Y-272273250D03*
X134792000Y-273823250D03*
%TD*%
D16*
%TO.C,TP82*%
X254991727Y-88306288D03*
%TD*%
D17*
%TO.C,RV35*%
X149650000Y-177938736D03*
D18*
X148500000Y-183438736D03*
D17*
X147350000Y-177938736D03*
%TD*%
D19*
%TO.C,CU132*%
X233603000Y-272465000D03*
X233603000Y-267390000D03*
%TD*%
D20*
%TO.C,TP86*%
X264390000Y-368839000D03*
%TD*%
D21*
%TO.C,R181*%
X174638500Y-144885736D03*
X174638500Y-146535736D03*
%TD*%
D12*
%TO.C,D54*%
X171500000Y-121700736D03*
X168200000Y-121700736D03*
%TD*%
D16*
%TO.C,TP95*%
X152611224Y-185334500D03*
%TD*%
D14*
%TO.C,J61*%
X193794173Y-367769529D03*
X198794173Y-367669529D03*
X198794173Y-374769529D03*
X193794173Y-374769529D03*
%TD*%
D22*
%TO.C,R54*%
X110588500Y-174322500D03*
X108938500Y-174322500D03*
%TD*%
D23*
%TO.C,R165*%
X182758950Y-240931514D03*
X184408950Y-240931514D03*
%TD*%
D10*
%TO.C,C134*%
X240978000Y-264477500D03*
X239428000Y-264477500D03*
%TD*%
D24*
%TO.C,U93*%
X219612500Y-145095736D03*
X219612500Y-146365736D03*
X219612500Y-147635736D03*
X219612500Y-148905736D03*
X224687500Y-148905736D03*
X224687500Y-147635736D03*
X224687500Y-146365736D03*
X224687500Y-145095736D03*
%TD*%
D10*
%TO.C,CU6*%
X93788500Y-151522500D03*
X92238500Y-151522500D03*
%TD*%
D13*
%TO.C,D113*%
X224550000Y-118950736D03*
X227850000Y-118950736D03*
%TD*%
D16*
%TO.C,TP15*%
X107260500Y-255984500D03*
%TD*%
D10*
%TO.C,C85*%
X136585355Y-264513750D03*
X135035355Y-264513750D03*
%TD*%
%TO.C,CU35*%
X140675000Y-142800000D03*
X139125000Y-142800000D03*
%TD*%
D23*
%TO.C,R36*%
X112222450Y-240965278D03*
X113872450Y-240965278D03*
%TD*%
%TO.C,R145*%
X146675000Y-116450736D03*
X148325000Y-116450736D03*
%TD*%
D24*
%TO.C,U25*%
X121809500Y-230942278D03*
X121809500Y-232212278D03*
X121809500Y-233482278D03*
X121809500Y-234752278D03*
X126884500Y-234752278D03*
X126884500Y-233482278D03*
X126884500Y-232212278D03*
X126884500Y-230942278D03*
%TD*%
D10*
%TO.C,CU40*%
X137022000Y-237068014D03*
X135472000Y-237068014D03*
%TD*%
D21*
%TO.C,R302*%
X255150000Y-128675000D03*
X255150000Y-130325000D03*
%TD*%
D22*
%TO.C,R150*%
X153102505Y-56450736D03*
X151452505Y-56450736D03*
%TD*%
D14*
%TO.C,J14*%
X100113500Y-367634500D03*
X95113500Y-374734500D03*
X95113500Y-367734500D03*
X100113500Y-374734500D03*
%TD*%
D22*
%TO.C,R85*%
X134572000Y-252450000D03*
X132922000Y-252450000D03*
%TD*%
D11*
%TO.C,R252*%
X226450000Y-190525736D03*
X226450000Y-188875736D03*
%TD*%
D21*
%TO.C,R40*%
X114710005Y-45272500D03*
X114710005Y-46922500D03*
%TD*%
D19*
%TO.C,CU124*%
X120839000Y-272435750D03*
X120839000Y-267360750D03*
%TD*%
D25*
%TO.C,U507*%
X244978000Y-278855500D03*
X244978000Y-277585500D03*
X244978000Y-276315500D03*
X244978000Y-275045500D03*
X244978000Y-273775500D03*
X244978000Y-272505500D03*
X244978000Y-271235500D03*
X244978000Y-269965500D03*
X239978000Y-269965500D03*
X239978000Y-271235500D03*
X239978000Y-272505500D03*
X239978000Y-273775500D03*
X239978000Y-275045500D03*
X239978000Y-276315500D03*
X239978000Y-277585500D03*
X239978000Y-278855500D03*
%TD*%
D23*
%TO.C,R136*%
X148772000Y-83700736D03*
X150422000Y-83700736D03*
%TD*%
D22*
%TO.C,R134*%
X150422000Y-85700736D03*
X148772000Y-85700736D03*
%TD*%
D10*
%TO.C,CU34*%
X134011500Y-133465500D03*
X132461500Y-133465500D03*
%TD*%
%TO.C,CU2*%
X96299005Y-65484500D03*
X94749005Y-65484500D03*
%TD*%
%TO.C,CU33*%
X138212500Y-125355000D03*
X136662500Y-125355000D03*
%TD*%
D26*
%TO.C,RV14*%
X118000000Y-60479264D03*
D27*
X119150000Y-54979264D03*
D26*
X120300000Y-60479264D03*
%TD*%
D22*
%TO.C,R5*%
X95785500Y-116484500D03*
X94135500Y-116484500D03*
%TD*%
D28*
%TO.C,C45*%
X147171505Y-66700736D03*
X148721505Y-66700736D03*
%TD*%
D29*
%TO.C,SW18*%
X167300000Y-189700736D03*
X164800000Y-189700736D03*
X162300000Y-189700736D03*
%TD*%
D10*
%TO.C,CU14*%
X105775000Y-133500000D03*
X104225000Y-133500000D03*
%TD*%
D30*
%TO.C,J46*%
X250247000Y-105980000D03*
D31*
X250247000Y-94580000D03*
X250247000Y-102880000D03*
%TD*%
D32*
%TO.C,SW106*%
X120939000Y-291298250D03*
X120939000Y-295998250D03*
X120939000Y-300698250D03*
X125739000Y-291198250D03*
X125739000Y-295998250D03*
X125739000Y-300698250D03*
%TD*%
D10*
%TO.C,CU120*%
X249772000Y-237118014D03*
X248222000Y-237118014D03*
%TD*%
D33*
%TO.C,TP89*%
X81038500Y-382936000D03*
%TD*%
D12*
%TO.C,D138*%
X256050000Y-121750000D03*
X252750000Y-121750000D03*
%TD*%
D34*
%TO.C,C28*%
X127450000Y-184904264D03*
X127450000Y-183354264D03*
%TD*%
D22*
%TO.C,R14*%
X96538500Y-174322500D03*
X94888500Y-174322500D03*
%TD*%
D35*
%TO.C,D109*%
X224047000Y-88950736D03*
D36*
X221507000Y-88950736D03*
X218967000Y-88950736D03*
%TD*%
D16*
%TO.C,TP13*%
X113063500Y-157634500D03*
%TD*%
D11*
%TO.C,R303*%
X253150000Y-130325000D03*
X253150000Y-128675000D03*
%TD*%
%TO.C,R284*%
X230988500Y-150395736D03*
X230988500Y-148745736D03*
%TD*%
%TO.C,R310*%
X245088500Y-150395000D03*
X245088500Y-148745000D03*
%TD*%
D23*
%TO.C,R20*%
X93964486Y-228602514D03*
X95614486Y-228602514D03*
%TD*%
D37*
%TO.C,J59*%
X196669173Y-284569529D03*
D38*
X196669173Y-282029529D03*
X196669173Y-279489529D03*
%TD*%
D32*
%TO.C,SW24*%
X125747000Y-80179264D03*
X125747000Y-75479264D03*
X125747000Y-70779264D03*
X120947000Y-80279264D03*
X120947000Y-75479264D03*
X120947000Y-70779264D03*
%TD*%
D10*
%TO.C,CU43*%
X166412500Y-125355736D03*
X164862500Y-125355736D03*
%TD*%
%TO.C,CU47*%
X166975000Y-165488736D03*
X165425000Y-165488736D03*
%TD*%
D12*
%TO.C,D142*%
X255300000Y-134500000D03*
X252000000Y-134500000D03*
%TD*%
D39*
%TO.C,SW26*%
X182797000Y-254200736D03*
X182797000Y-256700736D03*
X182797000Y-259200736D03*
%TD*%
D17*
%TO.C,RV31*%
X149900000Y-240700736D03*
D18*
X148750000Y-246200736D03*
D17*
X147600000Y-240700736D03*
%TD*%
D16*
%TO.C,TP20*%
X127150000Y-157629264D03*
%TD*%
D22*
%TO.C,R116*%
X161600986Y-233450736D03*
X159950986Y-233450736D03*
%TD*%
D40*
%TO.C,J47*%
X251096505Y-50313000D03*
D41*
X248596505Y-50313000D03*
X246096505Y-50313000D03*
%TD*%
D16*
%TO.C,TP85*%
X248247000Y-256000000D03*
%TD*%
D12*
%TO.C,D96*%
X195200000Y-162288736D03*
X191900000Y-162288736D03*
%TD*%
D28*
%TO.C,C11*%
X103163500Y-267534500D03*
X104713500Y-267534500D03*
%TD*%
D24*
%TO.C,U14*%
X105576000Y-167963500D03*
X105576000Y-169233500D03*
X105576000Y-170503500D03*
X105576000Y-171773500D03*
X110651000Y-171773500D03*
X110651000Y-170503500D03*
X110651000Y-169233500D03*
X110651000Y-167963500D03*
%TD*%
%TO.C,U103*%
X233712500Y-145145736D03*
X233712500Y-146415736D03*
X233712500Y-147685736D03*
X233712500Y-148955736D03*
X238787500Y-148955736D03*
X238787500Y-147685736D03*
X238787500Y-146415736D03*
X238787500Y-145145736D03*
%TD*%
D23*
%TO.C,R288*%
X231434000Y-165538736D03*
X233084000Y-165538736D03*
%TD*%
D17*
%TO.C,RV6*%
X93513500Y-240734500D03*
D18*
X92363500Y-246234500D03*
D17*
X91213500Y-240734500D03*
%TD*%
D23*
%TO.C,R292*%
X247422000Y-83750000D03*
X249072000Y-83750000D03*
%TD*%
D11*
%TO.C,R101*%
X132346505Y-64775000D03*
X132346505Y-63125000D03*
%TD*%
D23*
%TO.C,R294*%
X245750986Y-228618014D03*
X247400986Y-228618014D03*
%TD*%
%TO.C,R48*%
X107588500Y-134234500D03*
X109238500Y-134234500D03*
%TD*%
D16*
%TO.C,TP28*%
X135497000Y-259450000D03*
%TD*%
D20*
%TO.C,TP92*%
X81038500Y-368839000D03*
%TD*%
D29*
%TO.C,SW40*%
X252747000Y-110750000D03*
X250247000Y-110750000D03*
X247747000Y-110750000D03*
%TD*%
D22*
%TO.C,R213*%
X211272000Y-83700736D03*
X209622000Y-83700736D03*
%TD*%
D12*
%TO.C,D75*%
X184350000Y-245950736D03*
X181050000Y-245950736D03*
%TD*%
D34*
%TO.C,C131*%
X219328000Y-277285500D03*
X219328000Y-275735500D03*
%TD*%
D21*
%TO.C,R322*%
X191469173Y-267677529D03*
X191469173Y-269327529D03*
%TD*%
D23*
%TO.C,R73*%
X121675000Y-134229264D03*
X123325000Y-134229264D03*
%TD*%
D13*
%TO.C,D28*%
X124600000Y-249979264D03*
X127900000Y-249979264D03*
%TD*%
D10*
%TO.C,C113*%
X193705673Y-285319529D03*
X192155673Y-285319529D03*
%TD*%
D26*
%TO.C,RV62*%
X230800000Y-60500736D03*
D27*
X231950000Y-55000736D03*
D26*
X233100000Y-60500736D03*
%TD*%
D10*
%TO.C,CU4*%
X91390000Y-133639500D03*
X89840000Y-133639500D03*
%TD*%
D11*
%TO.C,R100*%
X141600000Y-180825000D03*
X141600000Y-179175000D03*
%TD*%
D34*
%TO.C,C19*%
X106488500Y-277242500D03*
X106488500Y-275692500D03*
%TD*%
%TO.C,C40*%
X169800000Y-184875736D03*
X169800000Y-183325736D03*
%TD*%
D24*
%TO.C,U55*%
X150059500Y-230913750D03*
X150059500Y-232183750D03*
X150059500Y-233453750D03*
X150059500Y-234723750D03*
X155134500Y-234723750D03*
X155134500Y-233453750D03*
X155134500Y-232183750D03*
X155134500Y-230913750D03*
%TD*%
D15*
%TO.C,C32*%
X142946505Y-41688000D03*
X142946505Y-43238000D03*
%TD*%
D10*
%TO.C,CU90*%
X207472000Y-237068750D03*
X205922000Y-237068750D03*
%TD*%
D28*
%TO.C,C60*%
X197502504Y-65450736D03*
X199052504Y-65450736D03*
%TD*%
D34*
%TO.C,C143*%
X247478000Y-277285500D03*
X247478000Y-275735500D03*
%TD*%
D11*
%TO.C,R279*%
X240250000Y-176475736D03*
X240250000Y-174825736D03*
%TD*%
D23*
%TO.C,R107*%
X167372000Y-85700736D03*
X169022000Y-85700736D03*
%TD*%
D11*
%TO.C,R4*%
X90060005Y-64809500D03*
X90060005Y-63159500D03*
%TD*%
D12*
%TO.C,D5*%
X98513500Y-137234500D03*
X95213500Y-137234500D03*
%TD*%
D19*
%TO.C,CU125*%
X168578000Y-273748000D03*
X168578000Y-268673000D03*
%TD*%
%TO.C,CU130*%
X205453000Y-272465000D03*
X205453000Y-267390000D03*
%TD*%
D22*
%TO.C,R220*%
X203850986Y-233450736D03*
X202200986Y-233450736D03*
%TD*%
D13*
%TO.C,D98*%
X203450000Y-249950736D03*
X206750000Y-249950736D03*
%TD*%
D11*
%TO.C,R173*%
X182700000Y-130275736D03*
X182700000Y-128625736D03*
%TD*%
D16*
%TO.C,TP37*%
X156200000Y-115700736D03*
%TD*%
D24*
%TO.C,U61*%
X179859005Y-59045736D03*
X179859005Y-60315736D03*
X179859005Y-61585736D03*
X179859005Y-62855736D03*
X184934005Y-62855736D03*
X184934005Y-61585736D03*
X184934005Y-60315736D03*
X184934005Y-59045736D03*
%TD*%
D14*
%TO.C,J68*%
X203453000Y-386527500D03*
X208453000Y-379427500D03*
X203453000Y-379527500D03*
X208453000Y-386527500D03*
%TD*%
D11*
%TO.C,R258*%
X216888500Y-150345736D03*
X216888500Y-148695736D03*
%TD*%
D42*
%TO.C,DNP9*%
X222203000Y-306837500D03*
D43*
X222203000Y-362717500D03*
%TD*%
D12*
%TO.C,D63*%
X156150000Y-245950736D03*
X152850000Y-245950736D03*
%TD*%
D44*
%TO.C,RV22*%
X133100000Y-200338000D03*
X141900000Y-200338000D03*
D36*
X140000000Y-207338000D03*
X137500000Y-207338000D03*
X135000000Y-207338000D03*
%TD*%
D23*
%TO.C,R289*%
X251922000Y-85750000D03*
X253572000Y-85750000D03*
%TD*%
D45*
%TO.C,RV18*%
X124347000Y-157467264D03*
D46*
X118847000Y-156317264D03*
D45*
X124347000Y-155167264D03*
%TD*%
D47*
%TO.C,D35*%
X127450000Y-171767264D03*
X127450000Y-168467264D03*
%TD*%
D23*
%TO.C,R125*%
X164025000Y-134200736D03*
X165675000Y-134200736D03*
%TD*%
D35*
%TO.C,D85*%
X195846999Y-88950736D03*
D36*
X193306999Y-88950736D03*
X190766999Y-88950736D03*
%TD*%
D28*
%TO.C,C123*%
X216003000Y-267577500D03*
X217553000Y-267577500D03*
%TD*%
D48*
%TO.C,FB9*%
X151378000Y-281127500D03*
X151378000Y-283027500D03*
%TD*%
D23*
%TO.C,R133*%
X153272000Y-85700736D03*
X154922000Y-85700736D03*
%TD*%
D30*
%TO.C,J48*%
X250198500Y-223818000D03*
D31*
X250198500Y-212418000D03*
X250198500Y-220718000D03*
%TD*%
D10*
%TO.C,CU36*%
X136075000Y-151488000D03*
X134525000Y-151488000D03*
%TD*%
D42*
%TO.C,DNP6*%
X151753000Y-306587500D03*
D43*
X151753000Y-362467500D03*
%TD*%
D32*
%TO.C,SW104*%
X238547000Y-80200736D03*
X238547000Y-75500736D03*
X238547000Y-70800736D03*
X233747000Y-80300736D03*
X233747000Y-75500736D03*
X233747000Y-70800736D03*
%TD*%
D10*
%TO.C,CU72*%
X180885505Y-65450736D03*
X179335505Y-65450736D03*
%TD*%
D19*
%TO.C,CU11*%
X112188500Y-273705000D03*
X112188500Y-268630000D03*
%TD*%
D16*
%TO.C,TP36*%
X163697000Y-255950736D03*
%TD*%
D30*
%TO.C,J21*%
X123298500Y-223797264D03*
D31*
X123298500Y-212397264D03*
X123298500Y-220697264D03*
%TD*%
D10*
%TO.C,CU32*%
X124435505Y-65479264D03*
X122885505Y-65479264D03*
%TD*%
D13*
%TO.C,D43*%
X140000000Y-124450000D03*
X143300000Y-124450000D03*
%TD*%
D12*
%TO.C,D106*%
X213000000Y-134450736D03*
X209700000Y-134450736D03*
%TD*%
D23*
%TO.C,R138*%
X147100986Y-228568750D03*
X148750986Y-228568750D03*
%TD*%
D10*
%TO.C,CU118*%
X247014000Y-174338000D03*
X245464000Y-174338000D03*
%TD*%
D29*
%TO.C,SW23*%
X182297000Y-110700736D03*
X179797000Y-110700736D03*
X177297000Y-110700736D03*
%TD*%
D23*
%TO.C,R177*%
X178125000Y-134200736D03*
X179775000Y-134200736D03*
%TD*%
%TO.C,R312*%
X252325000Y-152550000D03*
X253975000Y-152550000D03*
%TD*%
D24*
%TO.C,U94*%
X218362500Y-167929736D03*
X218362500Y-169199736D03*
X218362500Y-170469736D03*
X218362500Y-171739736D03*
X223437500Y-171739736D03*
X223437500Y-170469736D03*
X223437500Y-169199736D03*
X223437500Y-167929736D03*
%TD*%
%TO.C,U22*%
X118962500Y-127479264D03*
X118962500Y-128749264D03*
X118962500Y-130019264D03*
X118962500Y-131289264D03*
X124037500Y-131289264D03*
X124037500Y-130019264D03*
X124037500Y-128749264D03*
X124037500Y-127479264D03*
%TD*%
D12*
%TO.C,D69*%
X154900000Y-137200736D03*
X151600000Y-137200736D03*
%TD*%
D10*
%TO.C,CU89*%
X211972000Y-228568750D03*
X210422000Y-228568750D03*
%TD*%
D16*
%TO.C,TP94*%
X166729405Y-185334500D03*
%TD*%
D22*
%TO.C,R313*%
X251575000Y-174338000D03*
X249925000Y-174338000D03*
%TD*%
D28*
%TO.C,C24*%
X112916005Y-65484500D03*
X114466005Y-65484500D03*
%TD*%
D17*
%TO.C,RV67*%
X248550000Y-240750000D03*
D18*
X247400000Y-246250000D03*
D17*
X246250000Y-240750000D03*
%TD*%
D12*
%TO.C,D56*%
X164000000Y-137200736D03*
X160700000Y-137200736D03*
%TD*%
D24*
%TO.C,U32*%
X133112500Y-127450000D03*
X133112500Y-128720000D03*
X133112500Y-129990000D03*
X133112500Y-131260000D03*
X138187500Y-131260000D03*
X138187500Y-129990000D03*
X138187500Y-128720000D03*
X138187500Y-127450000D03*
%TD*%
D13*
%TO.C,D137*%
X252750000Y-119000000D03*
X256050000Y-119000000D03*
%TD*%
D30*
%TO.C,J18*%
X109212000Y-223802500D03*
D31*
X109212000Y-212402500D03*
X109212000Y-220702500D03*
%TD*%
D29*
%TO.C,SW17*%
X168197000Y-110700736D03*
X165697000Y-110700736D03*
X163197000Y-110700736D03*
%TD*%
D12*
%TO.C,D140*%
X248550000Y-137250000D03*
X245250000Y-137250000D03*
%TD*%
D23*
%TO.C,R210*%
X189134000Y-165488736D03*
X190784000Y-165488736D03*
%TD*%
D10*
%TO.C,CU73*%
X194562500Y-125355736D03*
X193012500Y-125355736D03*
%TD*%
%TO.C,C121*%
X221199354Y-264543000D03*
X219649354Y-264543000D03*
%TD*%
D17*
%TO.C,RV41*%
X177850000Y-177938736D03*
D18*
X176700000Y-183438736D03*
D17*
X175550000Y-177938736D03*
%TD*%
D10*
%TO.C,C110*%
X184669173Y-264469529D03*
X183119173Y-264469529D03*
%TD*%
D37*
%TO.C,J69*%
X252978000Y-284577500D03*
D38*
X252978000Y-282037500D03*
X252978000Y-279497500D03*
%TD*%
D16*
%TO.C,TP61*%
X212691727Y-88257024D03*
%TD*%
D21*
%TO.C,R91*%
X142946505Y-45238000D03*
X142946505Y-46888000D03*
%TD*%
D37*
%TO.C,J64*%
X224828000Y-284577500D03*
D38*
X224828000Y-282037500D03*
X224828000Y-279497500D03*
%TD*%
D14*
%TO.C,J52*%
X128339000Y-367648250D03*
X123339000Y-367748250D03*
X128339000Y-374748250D03*
X123339000Y-374748250D03*
%TD*%
D13*
%TO.C,D10*%
X90713500Y-249234500D03*
X94013500Y-249234500D03*
%TD*%
D23*
%TO.C,R243*%
X225008950Y-240931514D03*
X226658950Y-240931514D03*
%TD*%
D15*
%TO.C,C100*%
X162956000Y-272302500D03*
X162956000Y-273852500D03*
%TD*%
D32*
%TO.C,SW305*%
X191541173Y-291342029D03*
X191541173Y-296042029D03*
X191541173Y-300742029D03*
X196341173Y-291242029D03*
X196341173Y-296042029D03*
X196341173Y-300742029D03*
%TD*%
D24*
%TO.C,U15*%
X107723000Y-230947514D03*
X107723000Y-232217514D03*
X107723000Y-233487514D03*
X107723000Y-234757514D03*
X112798000Y-234757514D03*
X112798000Y-233487514D03*
X112798000Y-232217514D03*
X112798000Y-230947514D03*
%TD*%
D23*
%TO.C,R263*%
X237822000Y-85750736D03*
X239472000Y-85750736D03*
%TD*%
D45*
%TO.C,RV42*%
X180797000Y-157438736D03*
D46*
X175297000Y-156288736D03*
D45*
X180797000Y-155138736D03*
%TD*%
D10*
%TO.C,CU97*%
X223325000Y-165488736D03*
X221775000Y-165488736D03*
%TD*%
D16*
%TO.C,TP33*%
X170441727Y-88257024D03*
%TD*%
%TO.C,TP96*%
X180847586Y-185334500D03*
%TD*%
D21*
%TO.C,R198*%
X198750000Y-128625736D03*
X198750000Y-130275736D03*
%TD*%
D22*
%TO.C,R246*%
X217950986Y-233450736D03*
X216300986Y-233450736D03*
%TD*%
D16*
%TO.C,TP52*%
X199228990Y-49893979D03*
%TD*%
D24*
%TO.C,U23*%
X120912500Y-145124264D03*
X120912500Y-146394264D03*
X120912500Y-147664264D03*
X120912500Y-148934264D03*
X125987500Y-148934264D03*
X125987500Y-147664264D03*
X125987500Y-146394264D03*
X125987500Y-145124264D03*
%TD*%
D23*
%TO.C,R26*%
X92385500Y-83734500D03*
X94035500Y-83734500D03*
%TD*%
D13*
%TO.C,D134*%
X245750000Y-250000000D03*
X249050000Y-250000000D03*
%TD*%
D34*
%TO.C,C65*%
X205046505Y-64725736D03*
X205046505Y-63175736D03*
%TD*%
D23*
%TO.C,R317*%
X126589000Y-267548250D03*
X128239000Y-267548250D03*
%TD*%
D11*
%TO.C,R257*%
X216896505Y-64775736D03*
X216896505Y-63125736D03*
%TD*%
D10*
%TO.C,CU65*%
X182975000Y-142800736D03*
X181425000Y-142800736D03*
%TD*%
D24*
%TO.C,U5*%
X93673000Y-230947514D03*
X93673000Y-232217514D03*
X93673000Y-233487514D03*
X93673000Y-234757514D03*
X98748000Y-234757514D03*
X98748000Y-233487514D03*
X98748000Y-232217514D03*
X98748000Y-230947514D03*
%TD*%
D14*
%TO.C,J60*%
X194294173Y-386519529D03*
X189294173Y-379519529D03*
X189294173Y-386519529D03*
X194294173Y-379419529D03*
%TD*%
D44*
%TO.C,RV52*%
X212350000Y-200338736D03*
X203550000Y-200338736D03*
D36*
X210450000Y-207338736D03*
X207950000Y-207338736D03*
X205450000Y-207338736D03*
%TD*%
D23*
%TO.C,R104*%
X139575000Y-152500000D03*
X141225000Y-152500000D03*
%TD*%
D28*
%TO.C,C69*%
X217621505Y-66700736D03*
X219171505Y-66700736D03*
%TD*%
D16*
%TO.C,TP24*%
X142878991Y-49893243D03*
%TD*%
D10*
%TO.C,CU99*%
X226072000Y-228568750D03*
X224522000Y-228568750D03*
%TD*%
D12*
%TO.C,D32*%
X121650000Y-137229264D03*
X118350000Y-137229264D03*
%TD*%
D21*
%TO.C,R250*%
X226950000Y-128625736D03*
X226950000Y-130275736D03*
%TD*%
D15*
%TO.C,C124*%
X219406000Y-272302500D03*
X219406000Y-273852500D03*
%TD*%
D47*
%TO.C,D131*%
X240250000Y-171788736D03*
X240250000Y-168488736D03*
%TD*%
D10*
%TO.C,C86*%
X128214000Y-264448250D03*
X126664000Y-264448250D03*
%TD*%
D28*
%TO.C,C92*%
X119950500Y-285298250D03*
X121500500Y-285298250D03*
%TD*%
D29*
%TO.C,SW3*%
X97710500Y-110734500D03*
X95210500Y-110734500D03*
X92710500Y-110734500D03*
%TD*%
D16*
%TO.C,TP65*%
X226650000Y-115700736D03*
%TD*%
%TO.C,TP56*%
X191847000Y-259450736D03*
%TD*%
D10*
%TO.C,CU59*%
X155622000Y-228568750D03*
X154072000Y-228568750D03*
%TD*%
D36*
%TO.C,D12*%
X97210500Y-88984500D03*
X94670500Y-88984500D03*
X92130500Y-88984500D03*
%TD*%
D16*
%TO.C,TP45*%
X185178991Y-49893979D03*
%TD*%
D21*
%TO.C,R318*%
X143488500Y-278359500D03*
X143488500Y-280009500D03*
%TD*%
D29*
%TO.C,SW13*%
X139997000Y-110700000D03*
X137497000Y-110700000D03*
X134997000Y-110700000D03*
%TD*%
D10*
%TO.C,CU122*%
X251335505Y-65500000D03*
X249785505Y-65500000D03*
%TD*%
D11*
%TO.C,R75*%
X118196505Y-64804264D03*
X118196505Y-63154264D03*
%TD*%
D12*
%TO.C,D99*%
X212500000Y-245950736D03*
X209200000Y-245950736D03*
%TD*%
D22*
%TO.C,R39*%
X105164486Y-233484500D03*
X103514486Y-233484500D03*
%TD*%
D30*
%TO.C,J34*%
X193846999Y-105930736D03*
D31*
X193846999Y-94530736D03*
X193846999Y-102830736D03*
%TD*%
D12*
%TO.C,D82*%
X184850000Y-134450736D03*
X181550000Y-134450736D03*
%TD*%
D23*
%TO.C,R260*%
X224125000Y-152500736D03*
X225775000Y-152500736D03*
%TD*%
D16*
%TO.C,TP79*%
X254850000Y-115750000D03*
%TD*%
%TO.C,TP38*%
X156978991Y-49893979D03*
%TD*%
D10*
%TO.C,CU13*%
X109976000Y-125389500D03*
X108426000Y-125389500D03*
%TD*%
D23*
%TO.C,R216*%
X203450986Y-228568750D03*
X205100986Y-228568750D03*
%TD*%
D10*
%TO.C,CU52*%
X166785505Y-65450736D03*
X165235505Y-65450736D03*
%TD*%
D29*
%TO.C,SW28*%
X195450000Y-189700736D03*
X192950000Y-189700736D03*
X190450000Y-189700736D03*
%TD*%
D28*
%TO.C,C2*%
X90785005Y-66734500D03*
X92335005Y-66734500D03*
%TD*%
D16*
%TO.C,TP72*%
X240750000Y-115750736D03*
%TD*%
D10*
%TO.C,C91*%
X129250500Y-285013750D03*
X127700500Y-285013750D03*
%TD*%
D23*
%TO.C,R110*%
X162872000Y-83700736D03*
X164522000Y-83700736D03*
%TD*%
%TO.C,R6*%
X90288500Y-116484500D03*
X91938500Y-116484500D03*
%TD*%
D11*
%TO.C,R102*%
X132338500Y-150345000D03*
X132338500Y-148695000D03*
%TD*%
D30*
%TO.C,J42*%
X221998500Y-223768736D03*
D31*
X221998500Y-212368736D03*
X221998500Y-220668736D03*
%TD*%
D49*
%TO.C,D145*%
X77500000Y-215787500D03*
X77500000Y-214212500D03*
%TD*%
D12*
%TO.C,D111*%
X226600000Y-245950736D03*
X223300000Y-245950736D03*
%TD*%
D28*
%TO.C,C55*%
X195147807Y-243323547D03*
X196697807Y-243323547D03*
%TD*%
D17*
%TO.C,RV13*%
X121650000Y-240729264D03*
D18*
X120500000Y-246229264D03*
D17*
X119350000Y-240729264D03*
%TD*%
D26*
%TO.C,RV32*%
X146250000Y-60450736D03*
D27*
X147400000Y-54950736D03*
D26*
X148550000Y-60450736D03*
%TD*%
D13*
%TO.C,D127*%
X238650000Y-124500736D03*
X241950000Y-124500736D03*
%TD*%
D23*
%TO.C,R182*%
X181875000Y-152500736D03*
X183525000Y-152500736D03*
%TD*%
D40*
%TO.C,J20*%
X124196505Y-50292264D03*
D41*
X121696505Y-50292264D03*
X119196505Y-50292264D03*
%TD*%
D24*
%TO.C,U24*%
X119662500Y-167958264D03*
X119662500Y-169228264D03*
X119662500Y-170498264D03*
X119662500Y-171768264D03*
X124737500Y-171768264D03*
X124737500Y-170498264D03*
X124737500Y-169228264D03*
X124737500Y-167958264D03*
%TD*%
D30*
%TO.C,J43*%
X236147000Y-105980736D03*
D31*
X236147000Y-94580736D03*
X236147000Y-102880736D03*
%TD*%
D45*
%TO.C,RV60*%
X223047000Y-157438736D03*
D46*
X217547000Y-156288736D03*
D45*
X223047000Y-155138736D03*
%TD*%
D24*
%TO.C,U73*%
X191412500Y-145095736D03*
X191412500Y-146365736D03*
X191412500Y-147635736D03*
X191412500Y-148905736D03*
X196487500Y-148905736D03*
X196487500Y-147635736D03*
X196487500Y-146365736D03*
X196487500Y-145095736D03*
%TD*%
D11*
%TO.C,R15*%
X99313500Y-180859500D03*
X99313500Y-179209500D03*
%TD*%
D14*
%TO.C,J9*%
X266100000Y-262000000D03*
X266100000Y-269000000D03*
X261100000Y-262000000D03*
X261100000Y-269100000D03*
%TD*%
D23*
%TO.C,R197*%
X188925000Y-116450736D03*
X190575000Y-116450736D03*
%TD*%
D10*
%TO.C,CU93*%
X222762500Y-125355736D03*
X221212500Y-125355736D03*
%TD*%
D50*
%TO.C,C130*%
X207103000Y-277802500D03*
X207103000Y-275902500D03*
%TD*%
D21*
%TO.C,R66*%
X128796505Y-45267264D03*
X128796505Y-46917264D03*
%TD*%
D13*
%TO.C,D77*%
X182300000Y-118950736D03*
X185600000Y-118950736D03*
%TD*%
D12*
%TO.C,D141*%
X253550000Y-137250000D03*
X250250000Y-137250000D03*
%TD*%
D22*
%TO.C,R98*%
X139002505Y-56450000D03*
X137352505Y-56450000D03*
%TD*%
D16*
%TO.C,TP26*%
X142241727Y-88256288D03*
%TD*%
D24*
%TO.C,U2*%
X90826000Y-127484500D03*
X90826000Y-128754500D03*
X90826000Y-130024500D03*
X90826000Y-131294500D03*
X95901000Y-131294500D03*
X95901000Y-130024500D03*
X95901000Y-128754500D03*
X95901000Y-127484500D03*
%TD*%
D22*
%TO.C,R22*%
X92285500Y-251734500D03*
X90635500Y-251734500D03*
%TD*%
D21*
%TO.C,R143*%
X157046505Y-45238736D03*
X157046505Y-46888736D03*
%TD*%
D31*
%TO.C,JA1_in1*%
X81713500Y-102864500D03*
D30*
X81713500Y-105964500D03*
D31*
X81713500Y-94564500D03*
%TD*%
D24*
%TO.C,U95*%
X220509500Y-230913750D03*
X220509500Y-232183750D03*
X220509500Y-233453750D03*
X220509500Y-234723750D03*
X225584500Y-234723750D03*
X225584500Y-233453750D03*
X225584500Y-232183750D03*
X225584500Y-230913750D03*
%TD*%
D21*
%TO.C,R273*%
X241596505Y-45288736D03*
X241596505Y-46938736D03*
%TD*%
D23*
%TO.C,R323*%
X183044173Y-267569529D03*
X184694173Y-267569529D03*
%TD*%
D10*
%TO.C,C125*%
X221864500Y-285327500D03*
X220314500Y-285327500D03*
%TD*%
D16*
%TO.C,TP18*%
X124450000Y-180317264D03*
%TD*%
D10*
%TO.C,CU9*%
X99235500Y-228602514D03*
X97685500Y-228602514D03*
%TD*%
D12*
%TO.C,D92*%
X192150000Y-137200736D03*
X188850000Y-137200736D03*
%TD*%
D11*
%TO.C,R50*%
X104110005Y-64809500D03*
X104110005Y-63159500D03*
%TD*%
D16*
%TO.C,TP51*%
X198450000Y-115700736D03*
%TD*%
D14*
%TO.C,J2*%
X83000000Y-211034500D03*
X83000000Y-203934500D03*
X78000000Y-204034500D03*
X78000000Y-211034500D03*
%TD*%
D10*
%TO.C,CU62*%
X152685505Y-65450736D03*
X151135505Y-65450736D03*
%TD*%
D11*
%TO.C,R305*%
X254350000Y-176475000D03*
X254350000Y-174825000D03*
%TD*%
D12*
%TO.C,D81*%
X183100000Y-137200736D03*
X179800000Y-137200736D03*
%TD*%
D22*
%TO.C,R67*%
X123922000Y-116479264D03*
X122272000Y-116479264D03*
%TD*%
%TO.C,R24*%
X94035500Y-85734500D03*
X92385500Y-85734500D03*
%TD*%
D16*
%TO.C,TP70*%
X220047000Y-259450736D03*
%TD*%
D11*
%TO.C,R9*%
X98113500Y-130309500D03*
X98113500Y-128659500D03*
%TD*%
D22*
%TO.C,R131*%
X167025000Y-174288736D03*
X165375000Y-174288736D03*
%TD*%
D10*
%TO.C,CU20*%
X108785500Y-237102514D03*
X107235500Y-237102514D03*
%TD*%
D16*
%TO.C,TP25*%
X138600000Y-180288000D03*
%TD*%
D13*
%TO.C,D50*%
X161200000Y-249950736D03*
X164500000Y-249950736D03*
%TD*%
D10*
%TO.C,CU49*%
X169722000Y-228568750D03*
X168172000Y-228568750D03*
%TD*%
D24*
%TO.C,U114*%
X246562500Y-167979000D03*
X246562500Y-169249000D03*
X246562500Y-170519000D03*
X246562500Y-171789000D03*
X251637500Y-171789000D03*
X251637500Y-170519000D03*
X251637500Y-169249000D03*
X251637500Y-167979000D03*
%TD*%
D32*
%TO.C,SW84*%
X210347000Y-80150736D03*
X210347000Y-75450736D03*
X210347000Y-70750736D03*
X205547000Y-80250736D03*
X205547000Y-75450736D03*
X205547000Y-70750736D03*
%TD*%
D14*
%TO.C,J65*%
X222453000Y-386527500D03*
X217453000Y-379527500D03*
X222453000Y-379427500D03*
X217453000Y-386527500D03*
%TD*%
D10*
%TO.C,CU92*%
X209035505Y-65450736D03*
X207485505Y-65450736D03*
%TD*%
D11*
%TO.C,R225*%
X210850000Y-130275736D03*
X210850000Y-128625736D03*
%TD*%
D13*
%TO.C,D17*%
X111763500Y-118984500D03*
X115063500Y-118984500D03*
%TD*%
D22*
%TO.C,R32*%
X112585500Y-83734500D03*
X110935500Y-83734500D03*
%TD*%
D16*
%TO.C,TP104*%
X124374862Y-185334500D03*
%TD*%
D35*
%TO.C,D49*%
X167697000Y-88950736D03*
D36*
X165157000Y-88950736D03*
X162617000Y-88950736D03*
%TD*%
D12*
%TO.C,D39*%
X142050000Y-245950000D03*
X138750000Y-245950000D03*
%TD*%
D21*
%TO.C,R299*%
X255696505Y-45288000D03*
X255696505Y-46938000D03*
%TD*%
D10*
%TO.C,CU87*%
X209225000Y-165488736D03*
X207675000Y-165488736D03*
%TD*%
D39*
%TO.C,SW36*%
X225047000Y-254200736D03*
X225047000Y-256700736D03*
X225047000Y-259200736D03*
%TD*%
D12*
%TO.C,D114*%
X227850000Y-121700736D03*
X224550000Y-121700736D03*
%TD*%
D42*
%TO.C,DNP4*%
X123589000Y-306558250D03*
D43*
X123589000Y-362438250D03*
%TD*%
D30*
%TO.C,J40*%
X222047000Y-105930736D03*
D31*
X222047000Y-94530736D03*
X222047000Y-102830736D03*
%TD*%
D24*
%TO.C,U42*%
X161312500Y-127450736D03*
X161312500Y-128720736D03*
X161312500Y-129990736D03*
X161312500Y-131260736D03*
X166387500Y-131260736D03*
X166387500Y-129990736D03*
X166387500Y-128720736D03*
X166387500Y-127450736D03*
%TD*%
D19*
%TO.C,CU128*%
X177294173Y-272457029D03*
X177294173Y-267382029D03*
%TD*%
D10*
%TO.C,CU22*%
X110349005Y-65484500D03*
X108799005Y-65484500D03*
%TD*%
D45*
%TO.C,RV3*%
X96210500Y-157472500D03*
D46*
X90710500Y-156322500D03*
D45*
X96210500Y-155172500D03*
%TD*%
D47*
%TO.C,D107*%
X212050000Y-171738736D03*
X212050000Y-168438736D03*
%TD*%
D12*
%TO.C,D36*%
X124700000Y-162317264D03*
X121400000Y-162317264D03*
%TD*%
D11*
%TO.C,R17*%
X99613500Y-190559500D03*
X99613500Y-188909500D03*
%TD*%
D34*
%TO.C,C70*%
X226150000Y-184875736D03*
X226150000Y-183325736D03*
%TD*%
D10*
%TO.C,CU121*%
X255871505Y-56500000D03*
X254321505Y-56500000D03*
%TD*%
D13*
%TO.C,D122*%
X231650000Y-250000736D03*
X234950000Y-250000736D03*
%TD*%
D10*
%TO.C,CU113*%
X250962500Y-125405000D03*
X249412500Y-125405000D03*
%TD*%
D23*
%TO.C,R249*%
X217125000Y-116450736D03*
X218775000Y-116450736D03*
%TD*%
D34*
%TO.C,C93*%
X124489000Y-276598250D03*
X124489000Y-275048250D03*
%TD*%
D10*
%TO.C,C122*%
X212828000Y-264477500D03*
X211278000Y-264477500D03*
%TD*%
D34*
%TO.C,C76*%
X240250000Y-184925736D03*
X240250000Y-183375736D03*
%TD*%
D37*
%TO.C,J49*%
X140214000Y-284548250D03*
D38*
X140214000Y-282008250D03*
X140214000Y-279468250D03*
%TD*%
D21*
%TO.C,R169*%
X185246505Y-45238736D03*
X185246505Y-46888736D03*
%TD*%
D47*
%TO.C,D8*%
X99313500Y-171772500D03*
X99313500Y-168472500D03*
%TD*%
D17*
%TO.C,RV4*%
X93263500Y-177972500D03*
D18*
X92113500Y-183472500D03*
D17*
X90963500Y-177972500D03*
%TD*%
D22*
%TO.C,R187*%
X197171999Y-83700736D03*
X195521999Y-83700736D03*
%TD*%
D11*
%TO.C,R278*%
X240550000Y-190575736D03*
X240550000Y-188925736D03*
%TD*%
D23*
%TO.C,R162*%
X176972000Y-83700736D03*
X178622000Y-83700736D03*
%TD*%
D11*
%TO.C,R180*%
X174638500Y-150345736D03*
X174638500Y-148695736D03*
%TD*%
D12*
%TO.C,D144*%
X251600000Y-162338000D03*
X248300000Y-162338000D03*
%TD*%
D14*
%TO.C,J6*%
X83000000Y-230456722D03*
X78000000Y-223456722D03*
X83000000Y-223356722D03*
X78000000Y-230456722D03*
%TD*%
D37*
%TO.C,J5*%
X78513500Y-181300000D03*
D38*
X78513500Y-178760000D03*
X78513500Y-176220000D03*
X78513500Y-173680000D03*
X78513500Y-171140000D03*
X78513500Y-168600000D03*
X78513500Y-166060000D03*
X78513500Y-163520000D03*
X78513500Y-160980000D03*
X78513500Y-158440000D03*
X78513500Y-155900000D03*
X78513500Y-153360000D03*
%TD*%
D51*
%TO.C,RV69*%
X245247000Y-120350000D03*
D52*
X250747000Y-121500000D03*
D51*
X245247000Y-122650000D03*
%TD*%
D48*
%TO.C,FB8*%
X134214000Y-281098250D03*
X134214000Y-282998250D03*
%TD*%
D15*
%TO.C,C12*%
X106566500Y-272259500D03*
X106566500Y-273809500D03*
%TD*%
D21*
%TO.C,R28*%
X106788500Y-267642500D03*
X106788500Y-269292500D03*
%TD*%
D12*
%TO.C,D120*%
X223400000Y-162288736D03*
X220100000Y-162288736D03*
%TD*%
D49*
%TO.C,D146*%
X77500000Y-239887500D03*
X77500000Y-238312500D03*
%TD*%
D22*
%TO.C,R287*%
X237475000Y-174338736D03*
X235825000Y-174338736D03*
%TD*%
D24*
%TO.C,U104*%
X232462500Y-167979736D03*
X232462500Y-169249736D03*
X232462500Y-170519736D03*
X232462500Y-171789736D03*
X237537500Y-171789736D03*
X237537500Y-170519736D03*
X237537500Y-169249736D03*
X237537500Y-167979736D03*
%TD*%
D10*
%TO.C,CU51*%
X171321505Y-56450736D03*
X169771505Y-56450736D03*
%TD*%
D31*
%TO.C,JA2_out1*%
X264250000Y-102880000D03*
D30*
X264250000Y-105980000D03*
D31*
X264250000Y-94580000D03*
%TD*%
D30*
%TO.C,J200*%
X95162000Y-223802500D03*
D31*
X95162000Y-212402500D03*
X95162000Y-220702500D03*
%TD*%
D22*
%TO.C,R293*%
X247322000Y-252500000D03*
X245672000Y-252500000D03*
%TD*%
D24*
%TO.C,U3*%
X92776000Y-145129500D03*
X92776000Y-146399500D03*
X92776000Y-147669500D03*
X92776000Y-148939500D03*
X97851000Y-148939500D03*
X97851000Y-147669500D03*
X97851000Y-146399500D03*
X97851000Y-145129500D03*
%TD*%
D16*
%TO.C,TP53*%
X194950000Y-180288736D03*
%TD*%
D34*
%TO.C,C82*%
X254350000Y-184925000D03*
X254350000Y-183375000D03*
%TD*%
D16*
%TO.C,TP12*%
X114005227Y-88290788D03*
%TD*%
D11*
%TO.C,R315*%
X126250000Y-130304264D03*
X126250000Y-128654264D03*
%TD*%
D23*
%TO.C,R296*%
X244500986Y-235750000D03*
X246150986Y-235750000D03*
%TD*%
D16*
%TO.C,TP31*%
X171078991Y-49893979D03*
%TD*%
D50*
%TO.C,C108*%
X164978000Y-277660500D03*
X164978000Y-275760500D03*
%TD*%
D22*
%TO.C,R118*%
X166272000Y-116450736D03*
X164622000Y-116450736D03*
%TD*%
D40*
%TO.C,J44*%
X236996505Y-50313736D03*
D41*
X234496505Y-50313736D03*
X231996505Y-50313736D03*
%TD*%
D37*
%TO.C,J1*%
X111988500Y-284534500D03*
D38*
X111988500Y-281994500D03*
X111988500Y-279454500D03*
%TD*%
D23*
%TO.C,R115*%
X164450986Y-228568750D03*
X166100986Y-228568750D03*
%TD*%
%TO.C,R211*%
X209622000Y-85700736D03*
X211272000Y-85700736D03*
%TD*%
D22*
%TO.C,R254*%
X223552505Y-56450736D03*
X221902505Y-56450736D03*
%TD*%
D23*
%TO.C,R38*%
X108014486Y-228602514D03*
X109664486Y-228602514D03*
%TD*%
D16*
%TO.C,TP93*%
X138493043Y-185334500D03*
%TD*%
D24*
%TO.C,U45*%
X164159500Y-230913750D03*
X164159500Y-232183750D03*
X164159500Y-233453750D03*
X164159500Y-234723750D03*
X169234500Y-234723750D03*
X169234500Y-233453750D03*
X169234500Y-232183750D03*
X169234500Y-230913750D03*
%TD*%
D48*
%TO.C,FB19*%
X215828000Y-281127500D03*
X215828000Y-283027500D03*
%TD*%
D11*
%TO.C,R206*%
X188688500Y-150345736D03*
X188688500Y-148695736D03*
%TD*%
D44*
%TO.C,RV34*%
X156000000Y-200338736D03*
X147200000Y-200338736D03*
D36*
X154100000Y-207338736D03*
X151600000Y-207338736D03*
X149100000Y-207338736D03*
%TD*%
D21*
%TO.C,R52*%
X104102000Y-144919500D03*
X104102000Y-146569500D03*
%TD*%
D48*
%TO.C,FB18*%
X210628000Y-281127500D03*
X210628000Y-283027500D03*
%TD*%
D16*
%TO.C,TP76*%
X239950000Y-157650736D03*
%TD*%
D10*
%TO.C,CU42*%
X138585505Y-65450000D03*
X137035505Y-65450000D03*
%TD*%
D22*
%TO.C,R168*%
X175700986Y-233450736D03*
X174050986Y-233450736D03*
%TD*%
D29*
%TO.C,SW21*%
X153200000Y-189700736D03*
X150700000Y-189700736D03*
X148200000Y-189700736D03*
%TD*%
D30*
%TO.C,J24*%
X137448500Y-223768000D03*
D31*
X137448500Y-212368000D03*
X137448500Y-220668000D03*
%TD*%
D47*
%TO.C,D47*%
X141600000Y-171738000D03*
X141600000Y-168438000D03*
%TD*%
D42*
%TO.C,DNP2*%
X95363500Y-306544500D03*
D43*
X95363500Y-362424500D03*
%TD*%
D12*
%TO.C,D116*%
X220350000Y-137200736D03*
X217050000Y-137200736D03*
%TD*%
D50*
%TO.C,C20*%
X108588500Y-277617500D03*
X108588500Y-275717500D03*
%TD*%
D10*
%TO.C,CU45*%
X168875000Y-142800736D03*
X167325000Y-142800736D03*
%TD*%
D16*
%TO.C,TP67*%
X223150000Y-180288736D03*
%TD*%
D21*
%TO.C,R10*%
X90052000Y-144919500D03*
X90052000Y-146569500D03*
%TD*%
D39*
%TO.C,SW32*%
X210947000Y-254200736D03*
X210947000Y-256700736D03*
X210947000Y-259200736D03*
%TD*%
D23*
%TO.C,R158*%
X146884000Y-165488736D03*
X148534000Y-165488736D03*
%TD*%
%TO.C,R171*%
X174875000Y-116450736D03*
X176525000Y-116450736D03*
%TD*%
D28*
%TO.C,C43*%
X152897807Y-243323547D03*
X154447807Y-243323547D03*
%TD*%
D23*
%TO.C,R140*%
X145850986Y-235700736D03*
X147500986Y-235700736D03*
%TD*%
D13*
%TO.C,D67*%
X154100000Y-124450736D03*
X157400000Y-124450736D03*
%TD*%
D21*
%TO.C,R327*%
X228088500Y-278309500D03*
X228088500Y-279959500D03*
%TD*%
D12*
%TO.C,D21*%
X112563500Y-137234500D03*
X109263500Y-137234500D03*
%TD*%
D14*
%TO.C,J71*%
X250103000Y-374777500D03*
X250103000Y-367777500D03*
X255103000Y-367677500D03*
X255103000Y-374777500D03*
%TD*%
D22*
%TO.C,R163*%
X176872000Y-252450736D03*
X175222000Y-252450736D03*
%TD*%
D15*
%TO.C,C38*%
X171146505Y-41688736D03*
X171146505Y-43238736D03*
%TD*%
D45*
%TO.C,RV48*%
X194847000Y-157438736D03*
D46*
X189347000Y-156288736D03*
D45*
X194847000Y-155138736D03*
%TD*%
D22*
%TO.C,R34*%
X106335500Y-252484500D03*
X104685500Y-252484500D03*
%TD*%
D10*
%TO.C,CU55*%
X154775000Y-142800736D03*
X153225000Y-142800736D03*
%TD*%
%TO.C,C15*%
X101025000Y-285000000D03*
X99475000Y-285000000D03*
%TD*%
D23*
%TO.C,R191*%
X196808950Y-240931514D03*
X198458950Y-240931514D03*
%TD*%
D16*
%TO.C,TP80*%
X255628991Y-49943243D03*
%TD*%
D23*
%TO.C,R255*%
X220375000Y-134200736D03*
X222025000Y-134200736D03*
%TD*%
D21*
%TO.C,R316*%
X135014001Y-267656250D03*
X135014001Y-269306250D03*
%TD*%
D40*
%TO.C,J35*%
X194696504Y-50263736D03*
D41*
X192196504Y-50263736D03*
X189696504Y-50263736D03*
%TD*%
D14*
%TO.C,J56*%
X165503000Y-374777500D03*
X165503000Y-367777500D03*
X170503000Y-367677500D03*
X170503000Y-374777500D03*
%TD*%
%TO.C,J67*%
X212953000Y-367677500D03*
X207953000Y-374777500D03*
X212953000Y-374777500D03*
X207953000Y-367777500D03*
%TD*%
D21*
%TO.C,R195*%
X199296504Y-45238736D03*
X199296504Y-46888736D03*
%TD*%
D11*
%TO.C,R201*%
X197950000Y-176425736D03*
X197950000Y-174775736D03*
%TD*%
D10*
%TO.C,CU115*%
X253425000Y-142850000D03*
X251875000Y-142850000D03*
%TD*%
D19*
%TO.C,CU126*%
X149003000Y-272465000D03*
X149003000Y-267390000D03*
%TD*%
D22*
%TO.C,R261*%
X223375000Y-174288736D03*
X221725000Y-174288736D03*
%TD*%
D32*
%TO.C,SW114*%
X252647000Y-80200000D03*
X252647000Y-75500000D03*
X252647000Y-70800000D03*
X247847000Y-80300000D03*
X247847000Y-75500000D03*
X247847000Y-70800000D03*
%TD*%
D22*
%TO.C,R83*%
X140822000Y-83700000D03*
X139172000Y-83700000D03*
%TD*%
D47*
%TO.C,D71*%
X155700000Y-171738736D03*
X155700000Y-168438736D03*
%TD*%
D21*
%TO.C,R285*%
X230988500Y-144935736D03*
X230988500Y-146585736D03*
%TD*%
D13*
%TO.C,D100*%
X209200000Y-249950736D03*
X212500000Y-249950736D03*
%TD*%
D23*
%TO.C,R244*%
X216300986Y-235700736D03*
X217950986Y-235700736D03*
%TD*%
D12*
%TO.C,D87*%
X198400000Y-245950736D03*
X195100000Y-245950736D03*
%TD*%
D11*
%TO.C,R76*%
X118188500Y-150374264D03*
X118188500Y-148724264D03*
%TD*%
D21*
%TO.C,R328*%
X247778000Y-267685500D03*
X247778000Y-269335500D03*
%TD*%
D50*
%TO.C,C144*%
X249578000Y-277660500D03*
X249578000Y-275760500D03*
%TD*%
D22*
%TO.C,R264*%
X234972000Y-85750736D03*
X233322000Y-85750736D03*
%TD*%
D24*
%TO.C,U65*%
X178259500Y-230913750D03*
X178259500Y-232183750D03*
X178259500Y-233453750D03*
X178259500Y-234723750D03*
X183334500Y-234723750D03*
X183334500Y-233453750D03*
X183334500Y-232183750D03*
X183334500Y-230913750D03*
%TD*%
D21*
%TO.C,R155*%
X146438500Y-144885736D03*
X146438500Y-146535736D03*
%TD*%
D28*
%TO.C,C42*%
X169352505Y-65450736D03*
X170902505Y-65450736D03*
%TD*%
D12*
%TO.C,D30*%
X129150000Y-121729264D03*
X125850000Y-121729264D03*
%TD*%
D16*
%TO.C,TP50*%
X177797000Y-255950736D03*
%TD*%
D10*
%TO.C,CU48*%
X162464000Y-174288736D03*
X160914000Y-174288736D03*
%TD*%
D22*
%TO.C,R135*%
X154922000Y-83700736D03*
X153272000Y-83700736D03*
%TD*%
D16*
%TO.C,TP23*%
X142100000Y-115700000D03*
%TD*%
D10*
%TO.C,CU54*%
X148111500Y-133466236D03*
X146561500Y-133466236D03*
%TD*%
D32*
%TO.C,SW505*%
X247850000Y-291350000D03*
X247850000Y-296050000D03*
X247850000Y-300750000D03*
X252650000Y-291250000D03*
X252650000Y-296050000D03*
X252650000Y-300750000D03*
%TD*%
D12*
%TO.C,D7*%
X96563500Y-162322500D03*
X93263500Y-162322500D03*
%TD*%
D28*
%TO.C,C79*%
X251547807Y-243372811D03*
X253097807Y-243372811D03*
%TD*%
D45*
%TO.C,RV30*%
X166697000Y-157438736D03*
D46*
X161197000Y-156288736D03*
D45*
X166697000Y-155138736D03*
%TD*%
D23*
%TO.C,R21*%
X90714486Y-228602514D03*
X92364486Y-228602514D03*
%TD*%
D12*
%TO.C,D27*%
X127900000Y-245979264D03*
X124600000Y-245979264D03*
%TD*%
D10*
%TO.C,C89*%
X137250500Y-285298250D03*
X135700500Y-285298250D03*
%TD*%
D15*
%TO.C,C68*%
X227496505Y-41688736D03*
X227496505Y-43238736D03*
%TD*%
D17*
%TO.C,RV25*%
X164000000Y-240700736D03*
D18*
X162850000Y-246200736D03*
D17*
X161700000Y-240700736D03*
%TD*%
D24*
%TO.C,U91*%
X222109005Y-59045736D03*
X222109005Y-60315736D03*
X222109005Y-61585736D03*
X222109005Y-62855736D03*
X227184005Y-62855736D03*
X227184005Y-61585736D03*
X227184005Y-60315736D03*
X227184005Y-59045736D03*
%TD*%
D10*
%TO.C,CU109*%
X240172000Y-228618750D03*
X238622000Y-228618750D03*
%TD*%
D22*
%TO.C,R92*%
X138072000Y-116450000D03*
X136422000Y-116450000D03*
%TD*%
D16*
%TO.C,TP4*%
X99813500Y-115734500D03*
%TD*%
D22*
%TO.C,R189*%
X190922000Y-252450736D03*
X189272000Y-252450736D03*
%TD*%
D30*
%TO.C,J25*%
X165697000Y-105930736D03*
D31*
X165697000Y-94530736D03*
X165697000Y-102830736D03*
%TD*%
D14*
%TO.C,J10*%
X261100000Y-230200000D03*
X266100000Y-223100000D03*
X261100000Y-223100000D03*
X266100000Y-230100000D03*
%TD*%
D10*
%TO.C,CU10*%
X94735500Y-237102514D03*
X93185500Y-237102514D03*
%TD*%
D20*
%TO.C,TP88*%
X81258000Y-62913000D03*
%TD*%
D10*
%TO.C,CU64*%
X176311500Y-133466236D03*
X174761500Y-133466236D03*
%TD*%
D25*
%TO.C,U7*%
X103988500Y-278812500D03*
X103988500Y-277542500D03*
X103988500Y-276272500D03*
X103988500Y-275002500D03*
X103988500Y-273732500D03*
X103988500Y-272462500D03*
X103988500Y-271192500D03*
X103988500Y-269922500D03*
X98988500Y-269922500D03*
X98988500Y-271192500D03*
X98988500Y-272462500D03*
X98988500Y-273732500D03*
X98988500Y-275002500D03*
X98988500Y-276272500D03*
X98988500Y-277542500D03*
X98988500Y-278812500D03*
%TD*%
D16*
%TO.C,TP30*%
X170300000Y-115700736D03*
%TD*%
D24*
%TO.C,U12*%
X104876000Y-127484500D03*
X104876000Y-128754500D03*
X104876000Y-130024500D03*
X104876000Y-131294500D03*
X109951000Y-131294500D03*
X109951000Y-130024500D03*
X109951000Y-128754500D03*
X109951000Y-127484500D03*
%TD*%
D12*
%TO.C,D33*%
X126650000Y-137229264D03*
X123350000Y-137229264D03*
%TD*%
D11*
%TO.C,R128*%
X160538500Y-150345736D03*
X160538500Y-148695736D03*
%TD*%
%TO.C,R174*%
X184200000Y-190525736D03*
X184200000Y-188875736D03*
%TD*%
D24*
%TO.C,U51*%
X151659005Y-59045736D03*
X151659005Y-60315736D03*
X151659005Y-61585736D03*
X151659005Y-62855736D03*
X156734005Y-62855736D03*
X156734005Y-61585736D03*
X156734005Y-60315736D03*
X156734005Y-59045736D03*
%TD*%
D10*
%TO.C,CU111*%
X241771505Y-56500736D03*
X240221505Y-56500736D03*
%TD*%
D11*
%TO.C,R44*%
X112163500Y-130309500D03*
X112163500Y-128659500D03*
%TD*%
D21*
%TO.C,R103*%
X132338500Y-144885000D03*
X132338500Y-146535000D03*
%TD*%
D48*
%TO.C,FB17*%
X207828000Y-281127500D03*
X207828000Y-283027500D03*
%TD*%
D11*
%TO.C,R152*%
X155700000Y-180825736D03*
X155700000Y-179175736D03*
%TD*%
D15*
%TO.C,C80*%
X255696505Y-41738000D03*
X255696505Y-43288000D03*
%TD*%
D10*
%TO.C,C137*%
X250014500Y-285327500D03*
X248464500Y-285327500D03*
%TD*%
D32*
%TO.C,SW306*%
X177394173Y-291319529D03*
X177394173Y-296019529D03*
X177394173Y-300719529D03*
X182194173Y-291219529D03*
X182194173Y-296019529D03*
X182194173Y-300719529D03*
%TD*%
D12*
%TO.C,D18*%
X115063500Y-121734500D03*
X111763500Y-121734500D03*
%TD*%
D23*
%TO.C,R35*%
X104764486Y-228602514D03*
X106414486Y-228602514D03*
%TD*%
D28*
%TO.C,C99*%
X159553000Y-267577500D03*
X161103000Y-267577500D03*
%TD*%
D34*
%TO.C,C83*%
X247346505Y-64775000D03*
X247346505Y-63225000D03*
%TD*%
D14*
%TO.C,J73*%
X236603000Y-379427500D03*
X231603000Y-386527500D03*
X236603000Y-386527500D03*
X231603000Y-379527500D03*
%TD*%
D23*
%TO.C,R245*%
X220800986Y-228568750D03*
X222450986Y-228568750D03*
%TD*%
%TO.C,R93*%
X132575000Y-116450000D03*
X134225000Y-116450000D03*
%TD*%
D12*
%TO.C,D132*%
X237500000Y-162338736D03*
X234200000Y-162338736D03*
%TD*%
D22*
%TO.C,R109*%
X169022000Y-83700736D03*
X167372000Y-83700736D03*
%TD*%
D16*
%TO.C,TP29*%
X135497000Y-255950000D03*
%TD*%
D28*
%TO.C,C21*%
X104835005Y-66734500D03*
X106385005Y-66734500D03*
%TD*%
%TO.C,C140*%
X232714500Y-285327500D03*
X234264500Y-285327500D03*
%TD*%
D12*
%TO.C,D22*%
X114313500Y-134484500D03*
X111013500Y-134484500D03*
%TD*%
D10*
%TO.C,CU18*%
X106027500Y-174322500D03*
X104477500Y-174322500D03*
%TD*%
D23*
%TO.C,R55*%
X104547500Y-165522500D03*
X106197500Y-165522500D03*
%TD*%
D10*
%TO.C,CU94*%
X218561500Y-133466236D03*
X217011500Y-133466236D03*
%TD*%
%TO.C,CU41*%
X143121505Y-56450000D03*
X141571505Y-56450000D03*
%TD*%
D22*
%TO.C,R160*%
X178622000Y-85700736D03*
X176972000Y-85700736D03*
%TD*%
D10*
%TO.C,CU27*%
X124625000Y-165517264D03*
X123075000Y-165517264D03*
%TD*%
D13*
%TO.C,D74*%
X175300000Y-249950736D03*
X178600000Y-249950736D03*
%TD*%
D29*
%TO.C,SW2*%
X96813500Y-189734500D03*
X94313500Y-189734500D03*
X91813500Y-189734500D03*
%TD*%
D42*
%TO.C,DNP10*%
X208203000Y-306587500D03*
D43*
X208203000Y-362467500D03*
%TD*%
D23*
%TO.C,R190*%
X189350986Y-228568750D03*
X191000986Y-228568750D03*
%TD*%
D10*
%TO.C,CU86*%
X206525000Y-151488736D03*
X204975000Y-151488736D03*
%TD*%
D12*
%TO.C,D84*%
X181150000Y-162288736D03*
X177850000Y-162288736D03*
%TD*%
D24*
%TO.C,U84*%
X204262500Y-167929736D03*
X204262500Y-169199736D03*
X204262500Y-170469736D03*
X204262500Y-171739736D03*
X209337500Y-171739736D03*
X209337500Y-170469736D03*
X209337500Y-169199736D03*
X209337500Y-167929736D03*
%TD*%
D12*
%TO.C,D34*%
X128400000Y-134479264D03*
X125100000Y-134479264D03*
%TD*%
D47*
%TO.C,D143*%
X254350000Y-171788000D03*
X254350000Y-168488000D03*
%TD*%
D10*
%TO.C,CU8*%
X91977500Y-174322500D03*
X90427500Y-174322500D03*
%TD*%
D23*
%TO.C,R307*%
X248575000Y-134250000D03*
X250225000Y-134250000D03*
%TD*%
D24*
%TO.C,U34*%
X133812500Y-167929000D03*
X133812500Y-169199000D03*
X133812500Y-170469000D03*
X133812500Y-171739000D03*
X138887500Y-171739000D03*
X138887500Y-170469000D03*
X138887500Y-169199000D03*
X138887500Y-167929000D03*
%TD*%
D21*
%TO.C,R1*%
X100660005Y-45272500D03*
X100660005Y-46922500D03*
%TD*%
D16*
%TO.C,TP5*%
X93210500Y-259484500D03*
%TD*%
D24*
%TO.C,U35*%
X135959500Y-230913014D03*
X135959500Y-232183014D03*
X135959500Y-233453014D03*
X135959500Y-234723014D03*
X141034500Y-234723014D03*
X141034500Y-233453014D03*
X141034500Y-232183014D03*
X141034500Y-230913014D03*
%TD*%
D47*
%TO.C,D23*%
X113363500Y-171772500D03*
X113363500Y-168472500D03*
%TD*%
D10*
%TO.C,CU69*%
X183822000Y-228568750D03*
X182272000Y-228568750D03*
%TD*%
%TO.C,CU61*%
X157221505Y-56450736D03*
X155671505Y-56450736D03*
%TD*%
%TO.C,CU29*%
X127372000Y-228597278D03*
X125822000Y-228597278D03*
%TD*%
D15*
%TO.C,C6*%
X114710005Y-41722500D03*
X114710005Y-43272500D03*
%TD*%
D23*
%TO.C,R270*%
X230400986Y-235750736D03*
X232050986Y-235750736D03*
%TD*%
D10*
%TO.C,C13*%
X109025000Y-285284500D03*
X107475000Y-285284500D03*
%TD*%
D13*
%TO.C,D38*%
X133000000Y-249950000D03*
X136300000Y-249950000D03*
%TD*%
D10*
%TO.C,CU25*%
X126525000Y-142829264D03*
X124975000Y-142829264D03*
%TD*%
%TO.C,C9*%
X108359854Y-264500000D03*
X106809854Y-264500000D03*
%TD*%
%TO.C,CU57*%
X152875000Y-165488736D03*
X151325000Y-165488736D03*
%TD*%
D12*
%TO.C,D20*%
X107563500Y-137234500D03*
X104263500Y-137234500D03*
%TD*%
D35*
%TO.C,D121*%
X238147000Y-89000736D03*
D36*
X235607000Y-89000736D03*
X233067000Y-89000736D03*
%TD*%
D10*
%TO.C,CU21*%
X114885005Y-56484500D03*
X113335005Y-56484500D03*
%TD*%
D21*
%TO.C,R120*%
X170600000Y-128625736D03*
X170600000Y-130275736D03*
%TD*%
D23*
%TO.C,R159*%
X181472000Y-85700736D03*
X183122000Y-85700736D03*
%TD*%
D22*
%TO.C,R111*%
X162772000Y-252450736D03*
X161122000Y-252450736D03*
%TD*%
D13*
%TO.C,D31*%
X125850000Y-124479264D03*
X129150000Y-124479264D03*
%TD*%
D14*
%TO.C,J55*%
X166003000Y-379427500D03*
X161003000Y-386527500D03*
X161003000Y-379527500D03*
X166003000Y-386527500D03*
%TD*%
D34*
%TO.C,C58*%
X197950000Y-184875736D03*
X197950000Y-183325736D03*
%TD*%
D23*
%TO.C,R295*%
X253208950Y-240980778D03*
X254858950Y-240980778D03*
%TD*%
D30*
%TO.C,J27*%
X165648500Y-223768736D03*
D31*
X165648500Y-212368736D03*
X165648500Y-220668736D03*
%TD*%
D48*
%TO.C,FB11*%
X159378000Y-281127500D03*
X159378000Y-283027500D03*
%TD*%
D29*
%TO.C,SW33*%
X224547000Y-110700736D03*
X222047000Y-110700736D03*
X219547000Y-110700736D03*
%TD*%
D15*
%TO.C,C50*%
X185246505Y-41688736D03*
X185246505Y-43238736D03*
%TD*%
D40*
%TO.C,J29*%
X152446505Y-50263736D03*
D41*
X149946505Y-50263736D03*
X147446505Y-50263736D03*
%TD*%
D23*
%TO.C,R12*%
X97288500Y-152534500D03*
X98938500Y-152534500D03*
%TD*%
D14*
%TO.C,J72*%
X241103000Y-367677500D03*
X241103000Y-374777500D03*
X236103000Y-367777500D03*
X236103000Y-374777500D03*
%TD*%
D28*
%TO.C,C8*%
X96511307Y-242984500D03*
X98061307Y-242984500D03*
%TD*%
D12*
%TO.C,D11*%
X99763500Y-245984500D03*
X96463500Y-245984500D03*
%TD*%
D22*
%TO.C,R267*%
X233222000Y-252500736D03*
X231572000Y-252500736D03*
%TD*%
D10*
%TO.C,CU95*%
X225225000Y-142800736D03*
X223675000Y-142800736D03*
%TD*%
D16*
%TO.C,TP11*%
X110363500Y-180322500D03*
%TD*%
D11*
%TO.C,R179*%
X174646505Y-64775736D03*
X174646505Y-63125736D03*
%TD*%
D45*
%TO.C,RV36*%
X152597000Y-157438736D03*
D46*
X147097000Y-156288736D03*
D45*
X152597000Y-155138736D03*
%TD*%
D29*
%TO.C,SW41*%
X251850000Y-189750000D03*
X249350000Y-189750000D03*
X246850000Y-189750000D03*
%TD*%
D10*
%TO.C,C97*%
X164749354Y-264543000D03*
X163199354Y-264543000D03*
%TD*%
D29*
%TO.C,SW10*%
X125847000Y-110729264D03*
X123347000Y-110729264D03*
X120847000Y-110729264D03*
%TD*%
D11*
%TO.C,R277*%
X239050000Y-130325736D03*
X239050000Y-128675736D03*
%TD*%
D16*
%TO.C,TP27*%
X141300000Y-157600000D03*
%TD*%
D48*
%TO.C,FB7*%
X131214000Y-281098250D03*
X131214000Y-282998250D03*
%TD*%
D11*
%TO.C,R147*%
X154500000Y-130275736D03*
X154500000Y-128625736D03*
%TD*%
D10*
%TO.C,CU53*%
X152312500Y-125355736D03*
X150762500Y-125355736D03*
%TD*%
%TO.C,C133*%
X249349354Y-264543000D03*
X247799354Y-264543000D03*
%TD*%
D26*
%TO.C,RV20*%
X132150000Y-60450000D03*
D27*
X133300000Y-54950000D03*
D26*
X134450000Y-60450000D03*
%TD*%
D40*
%TO.C,J23*%
X138346505Y-50263000D03*
D41*
X135846505Y-50263000D03*
X133346505Y-50263000D03*
%TD*%
D34*
%TO.C,C17*%
X96263500Y-276584500D03*
X96263500Y-275034500D03*
%TD*%
D12*
%TO.C,D48*%
X138850000Y-162288000D03*
X135550000Y-162288000D03*
%TD*%
D10*
%TO.C,CU19*%
X113285500Y-228602514D03*
X111735500Y-228602514D03*
%TD*%
D16*
%TO.C,TP99*%
X223202129Y-185334500D03*
%TD*%
D23*
%TO.C,R301*%
X245325000Y-116500000D03*
X246975000Y-116500000D03*
%TD*%
D13*
%TO.C,D64*%
X152850000Y-249950736D03*
X156150000Y-249950736D03*
%TD*%
D50*
%TO.C,C142*%
X235253000Y-277802500D03*
X235253000Y-275902500D03*
%TD*%
D51*
%TO.C,RV15*%
X118347000Y-120329264D03*
D52*
X123847000Y-121479264D03*
D51*
X118347000Y-122629264D03*
%TD*%
D14*
%TO.C,J15*%
X90613500Y-386484500D03*
X90613500Y-379484500D03*
X95613500Y-379384500D03*
X95613500Y-386484500D03*
%TD*%
D16*
%TO.C,TP44*%
X184400000Y-115700736D03*
%TD*%
D21*
%TO.C,R8*%
X100113500Y-128659500D03*
X100113500Y-130309500D03*
%TD*%
D17*
%TO.C,RV61*%
X234450000Y-240750736D03*
D18*
X233300000Y-246250736D03*
D17*
X232150000Y-240750736D03*
%TD*%
D10*
%TO.C,C139*%
X242014500Y-285043000D03*
X240464500Y-285043000D03*
%TD*%
%TO.C,CU71*%
X185421505Y-56450736D03*
X183871505Y-56450736D03*
%TD*%
%TO.C,CU68*%
X176564000Y-174288736D03*
X175014000Y-174288736D03*
%TD*%
D11*
%TO.C,R204*%
X197950000Y-180825736D03*
X197950000Y-179175736D03*
%TD*%
D16*
%TO.C,TP69*%
X225850000Y-157600736D03*
%TD*%
D12*
%TO.C,D24*%
X110613500Y-162322500D03*
X107313500Y-162322500D03*
%TD*%
D23*
%TO.C,R326*%
X211203000Y-267577500D03*
X212853000Y-267577500D03*
%TD*%
D13*
%TO.C,D88*%
X195100000Y-249950736D03*
X198400000Y-249950736D03*
%TD*%
D16*
%TO.C,TP101*%
X251438500Y-185334500D03*
%TD*%
D23*
%TO.C,R87*%
X140458950Y-240930778D03*
X142108950Y-240930778D03*
%TD*%
D11*
%TO.C,R16*%
X99313500Y-176459500D03*
X99313500Y-174809500D03*
%TD*%
D23*
%TO.C,R7*%
X93538500Y-134234500D03*
X95188500Y-134234500D03*
%TD*%
D48*
%TO.C,FB23*%
X243978000Y-281127500D03*
X243978000Y-283027500D03*
%TD*%
D10*
%TO.C,CU114*%
X246761500Y-133515500D03*
X245211500Y-133515500D03*
%TD*%
D28*
%TO.C,C49*%
X181097807Y-243323547D03*
X182647807Y-243323547D03*
%TD*%
D22*
%TO.C,R27*%
X98535500Y-83734500D03*
X96885500Y-83734500D03*
%TD*%
D16*
%TO.C,TP84*%
X248247000Y-259500000D03*
%TD*%
D23*
%TO.C,R192*%
X188100986Y-235700736D03*
X189750986Y-235700736D03*
%TD*%
D24*
%TO.C,U92*%
X217662500Y-127450736D03*
X217662500Y-128720736D03*
X217662500Y-129990736D03*
X217662500Y-131260736D03*
X222737500Y-131260736D03*
X222737500Y-129990736D03*
X222737500Y-128720736D03*
X222737500Y-127450736D03*
%TD*%
D48*
%TO.C,FB20*%
X218828000Y-281127500D03*
X218828000Y-283027500D03*
%TD*%
D28*
%TO.C,C87*%
X131389001Y-267548250D03*
X132939001Y-267548250D03*
%TD*%
D21*
%TO.C,R321*%
X171638500Y-278409500D03*
X171638500Y-280059500D03*
%TD*%
D23*
%TO.C,R141*%
X150350986Y-228568750D03*
X152000986Y-228568750D03*
%TD*%
D22*
%TO.C,R124*%
X167202505Y-56450736D03*
X165552505Y-56450736D03*
%TD*%
D11*
%TO.C,R199*%
X196750000Y-130275736D03*
X196750000Y-128625736D03*
%TD*%
D16*
%TO.C,TP59*%
X213328991Y-49893979D03*
%TD*%
D28*
%TO.C,C51*%
X175371505Y-66700736D03*
X176921505Y-66700736D03*
%TD*%
D42*
%TO.C,DNP3*%
X137589000Y-306808250D03*
D43*
X137589000Y-362688250D03*
%TD*%
D29*
%TO.C,SW25*%
X181400000Y-189700736D03*
X178900000Y-189700736D03*
X176400000Y-189700736D03*
%TD*%
D10*
%TO.C,CU107*%
X237425000Y-165538736D03*
X235875000Y-165538736D03*
%TD*%
%TO.C,CU30*%
X122872000Y-237097278D03*
X121322000Y-237097278D03*
%TD*%
D13*
%TO.C,D29*%
X125850000Y-118979264D03*
X129150000Y-118979264D03*
%TD*%
D10*
%TO.C,CU7*%
X96488500Y-165522500D03*
X94938500Y-165522500D03*
%TD*%
D34*
%TO.C,C52*%
X183900000Y-184875736D03*
X183900000Y-183325736D03*
%TD*%
%TO.C,C105*%
X152653000Y-276627500D03*
X152653000Y-275077500D03*
%TD*%
D23*
%TO.C,R271*%
X234900986Y-228618750D03*
X236550986Y-228618750D03*
%TD*%
D10*
%TO.C,CU80*%
X193372000Y-237068750D03*
X191822000Y-237068750D03*
%TD*%
D22*
%TO.C,R238*%
X220872000Y-85700736D03*
X219222000Y-85700736D03*
%TD*%
D16*
%TO.C,TP58*%
X212550000Y-115700736D03*
%TD*%
D24*
%TO.C,U21*%
X123409005Y-59074264D03*
X123409005Y-60344264D03*
X123409005Y-61614264D03*
X123409005Y-62884264D03*
X128484005Y-62884264D03*
X128484005Y-61614264D03*
X128484005Y-60344264D03*
X128484005Y-59074264D03*
%TD*%
D13*
%TO.C,D86*%
X189350000Y-249950736D03*
X192650000Y-249950736D03*
%TD*%
D23*
%TO.C,R89*%
X136250986Y-228568014D03*
X137900986Y-228568014D03*
%TD*%
D14*
%TO.C,J62*%
X184794173Y-367669529D03*
X179794173Y-367769529D03*
X179794173Y-374769529D03*
X184794173Y-374769529D03*
%TD*%
D23*
%TO.C,R268*%
X231650986Y-228618750D03*
X233300986Y-228618750D03*
%TD*%
D28*
%TO.C,C66*%
X211602505Y-65450736D03*
X213152505Y-65450736D03*
%TD*%
D23*
%TO.C,R156*%
X153675000Y-152500736D03*
X155325000Y-152500736D03*
%TD*%
D13*
%TO.C,D101*%
X210450000Y-118950736D03*
X213750000Y-118950736D03*
%TD*%
D40*
%TO.C,J32*%
X180646505Y-50263736D03*
D41*
X178146505Y-50263736D03*
X175646505Y-50263736D03*
%TD*%
D13*
%TO.C,D40*%
X138750000Y-249950000D03*
X142050000Y-249950000D03*
%TD*%
D10*
%TO.C,CU70*%
X179322000Y-237068750D03*
X177772000Y-237068750D03*
%TD*%
D24*
%TO.C,U105*%
X234609500Y-230963750D03*
X234609500Y-232233750D03*
X234609500Y-233503750D03*
X234609500Y-234773750D03*
X239684500Y-234773750D03*
X239684500Y-233503750D03*
X239684500Y-232233750D03*
X239684500Y-230963750D03*
%TD*%
D35*
%TO.C,D37*%
X139497000Y-88950000D03*
D36*
X136957000Y-88950000D03*
X134417000Y-88950000D03*
%TD*%
D25*
%TO.C,U407*%
X216828000Y-278855500D03*
X216828000Y-277585500D03*
X216828000Y-276315500D03*
X216828000Y-275045500D03*
X216828000Y-273775500D03*
X216828000Y-272505500D03*
X216828000Y-271235500D03*
X216828000Y-269965500D03*
X211828000Y-269965500D03*
X211828000Y-271235500D03*
X211828000Y-272505500D03*
X211828000Y-273775500D03*
X211828000Y-275045500D03*
X211828000Y-276315500D03*
X211828000Y-277585500D03*
X211828000Y-278855500D03*
%TD*%
D24*
%TO.C,U71*%
X193909004Y-59045736D03*
X193909004Y-60315736D03*
X193909004Y-61585736D03*
X193909004Y-62855736D03*
X198984004Y-62855736D03*
X198984004Y-61585736D03*
X198984004Y-60315736D03*
X198984004Y-59045736D03*
%TD*%
D22*
%TO.C,R82*%
X136322000Y-85700000D03*
X134672000Y-85700000D03*
%TD*%
%TO.C,R290*%
X249072000Y-85750000D03*
X247422000Y-85750000D03*
%TD*%
D10*
%TO.C,CU98*%
X218814000Y-174288736D03*
X217264000Y-174288736D03*
%TD*%
D23*
%TO.C,R113*%
X168658950Y-240931514D03*
X170308950Y-240931514D03*
%TD*%
%TO.C,R242*%
X217550986Y-228568750D03*
X219200986Y-228568750D03*
%TD*%
D51*
%TO.C,RV57*%
X217047000Y-120300736D03*
D52*
X222547000Y-121450736D03*
D51*
X217047000Y-122600736D03*
%TD*%
D13*
%TO.C,D62*%
X147100000Y-249950736D03*
X150400000Y-249950736D03*
%TD*%
D34*
%TO.C,C3*%
X92310005Y-64759500D03*
X92310005Y-63209500D03*
%TD*%
D17*
%TO.C,RV53*%
X206000000Y-177938736D03*
D18*
X204850000Y-183438736D03*
D17*
X203700000Y-177938736D03*
%TD*%
D22*
%TO.C,R183*%
X181125000Y-174288736D03*
X179475000Y-174288736D03*
%TD*%
D24*
%TO.C,U82*%
X203562500Y-127450736D03*
X203562500Y-128720736D03*
X203562500Y-129990736D03*
X203562500Y-131260736D03*
X208637500Y-131260736D03*
X208637500Y-129990736D03*
X208637500Y-128720736D03*
X208637500Y-127450736D03*
%TD*%
D42*
%TO.C,DNP12*%
X236353000Y-306587500D03*
D43*
X236353000Y-362467500D03*
%TD*%
D17*
%TO.C,RV23*%
X135550000Y-177938000D03*
D18*
X134400000Y-183438000D03*
D17*
X133250000Y-177938000D03*
%TD*%
D24*
%TO.C,U44*%
X162012500Y-167929736D03*
X162012500Y-169199736D03*
X162012500Y-170469736D03*
X162012500Y-171739736D03*
X167087500Y-171739736D03*
X167087500Y-170469736D03*
X167087500Y-169199736D03*
X167087500Y-167929736D03*
%TD*%
D17*
%TO.C,RV49*%
X206250000Y-240700736D03*
D18*
X205100000Y-246200736D03*
D17*
X203950000Y-240700736D03*
%TD*%
D12*
%TO.C,D68*%
X149900000Y-137200736D03*
X146600000Y-137200736D03*
%TD*%
D22*
%TO.C,R79*%
X124675000Y-174317264D03*
X123025000Y-174317264D03*
%TD*%
%TO.C,R300*%
X250822000Y-116500000D03*
X249172000Y-116500000D03*
%TD*%
D10*
%TO.C,CU96*%
X220625000Y-151488736D03*
X219075000Y-151488736D03*
%TD*%
D16*
%TO.C,TP102*%
X96138500Y-185334500D03*
%TD*%
D10*
%TO.C,CU119*%
X254272000Y-228618014D03*
X252722000Y-228618014D03*
%TD*%
D34*
%TO.C,C22*%
X113363500Y-184909500D03*
X113363500Y-183359500D03*
%TD*%
D39*
%TO.C,SW9*%
X112260500Y-254234500D03*
X112260500Y-256734500D03*
X112260500Y-259234500D03*
%TD*%
D12*
%TO.C,D80*%
X178100000Y-137200736D03*
X174800000Y-137200736D03*
%TD*%
D21*
%TO.C,R172*%
X184700000Y-128625736D03*
X184700000Y-130275736D03*
%TD*%
D10*
%TO.C,CU82*%
X194935504Y-65450736D03*
X193385504Y-65450736D03*
%TD*%
D13*
%TO.C,D136*%
X251500000Y-250000000D03*
X254800000Y-250000000D03*
%TD*%
D35*
%TO.C,D25*%
X125347000Y-88979264D03*
D36*
X122807000Y-88979264D03*
X120267000Y-88979264D03*
%TD*%
D22*
%TO.C,R57*%
X122172000Y-85729264D03*
X120522000Y-85729264D03*
%TD*%
D10*
%TO.C,C109*%
X193040527Y-264535029D03*
X191490527Y-264535029D03*
%TD*%
D13*
%TO.C,D125*%
X238650000Y-119000736D03*
X241950000Y-119000736D03*
%TD*%
D34*
%TO.C,C34*%
X141600000Y-184875000D03*
X141600000Y-183325000D03*
%TD*%
D16*
%TO.C,TP66*%
X227428991Y-49893979D03*
%TD*%
D21*
%TO.C,R30*%
X115288500Y-278359500D03*
X115288500Y-280009500D03*
%TD*%
D50*
%TO.C,C18*%
X94263500Y-277759500D03*
X94263500Y-275859500D03*
%TD*%
D11*
%TO.C,R123*%
X169800000Y-176425736D03*
X169800000Y-174775736D03*
%TD*%
D32*
%TO.C,SW206*%
X149103000Y-291327500D03*
X149103000Y-296027500D03*
X149103000Y-300727500D03*
X153903000Y-291227500D03*
X153903000Y-296027500D03*
X153903000Y-300727500D03*
%TD*%
D16*
%TO.C,TP100*%
X237320310Y-185334500D03*
%TD*%
D23*
%TO.C,R229*%
X206275000Y-134200736D03*
X207925000Y-134200736D03*
%TD*%
D16*
%TO.C,TP98*%
X209083948Y-185334500D03*
%TD*%
D12*
%TO.C,D94*%
X198900000Y-134450736D03*
X195600000Y-134450736D03*
%TD*%
D11*
%TO.C,R154*%
X146438500Y-150345736D03*
X146438500Y-148695736D03*
%TD*%
%TO.C,R11*%
X90052000Y-150379500D03*
X90052000Y-148729500D03*
%TD*%
D10*
%TO.C,CU15*%
X112438500Y-142834500D03*
X110888500Y-142834500D03*
%TD*%
D16*
%TO.C,TP54*%
X198591726Y-88257024D03*
%TD*%
D37*
%TO.C,J74*%
X82563500Y-181300000D03*
D38*
X82563500Y-178760000D03*
X82563500Y-176220000D03*
X82563500Y-173680000D03*
X82563500Y-171140000D03*
X82563500Y-168600000D03*
X82563500Y-166060000D03*
X82563500Y-163520000D03*
X82563500Y-160980000D03*
X82563500Y-158440000D03*
X82563500Y-155900000D03*
X82563500Y-153360000D03*
%TD*%
D10*
%TO.C,CU1*%
X100835005Y-56484500D03*
X99285005Y-56484500D03*
%TD*%
D23*
%TO.C,R275*%
X231225000Y-116500736D03*
X232875000Y-116500736D03*
%TD*%
D22*
%TO.C,R60*%
X120422000Y-252479264D03*
X118772000Y-252479264D03*
%TD*%
D21*
%TO.C,R224*%
X212850000Y-128625736D03*
X212850000Y-130275736D03*
%TD*%
D14*
%TO.C,J70*%
X245603000Y-386527500D03*
X245603000Y-379527500D03*
X250603000Y-386527500D03*
X250603000Y-379427500D03*
%TD*%
D51*
%TO.C,RV27*%
X160697000Y-120300736D03*
D52*
X166197000Y-121450736D03*
D51*
X160697000Y-122600736D03*
%TD*%
D16*
%TO.C,TP39*%
X152700000Y-180288736D03*
%TD*%
D13*
%TO.C,D76*%
X181050000Y-249950736D03*
X184350000Y-249950736D03*
%TD*%
D12*
%TO.C,D6*%
X100263500Y-134484500D03*
X96963500Y-134484500D03*
%TD*%
D10*
%TO.C,C103*%
X157414500Y-285043000D03*
X155864500Y-285043000D03*
%TD*%
D28*
%TO.C,C126*%
X212314500Y-286793000D03*
X213864500Y-286793000D03*
%TD*%
D23*
%TO.C,R281*%
X234475000Y-134250736D03*
X236125000Y-134250736D03*
%TD*%
D32*
%TO.C,SW14*%
X111660500Y-80184500D03*
X111660500Y-75484500D03*
X111660500Y-70784500D03*
X106860500Y-80284500D03*
X106860500Y-75484500D03*
X106860500Y-70784500D03*
%TD*%
D12*
%TO.C,D70*%
X156650000Y-134450736D03*
X153350000Y-134450736D03*
%TD*%
D21*
%TO.C,R117*%
X171146505Y-45238736D03*
X171146505Y-46888736D03*
%TD*%
D23*
%TO.C,R184*%
X175084000Y-165488736D03*
X176734000Y-165488736D03*
%TD*%
D11*
%TO.C,R282*%
X240250000Y-180875736D03*
X240250000Y-179225736D03*
%TD*%
D24*
%TO.C,U54*%
X147912500Y-167929736D03*
X147912500Y-169199736D03*
X147912500Y-170469736D03*
X147912500Y-171739736D03*
X152987500Y-171739736D03*
X152987500Y-170469736D03*
X152987500Y-169199736D03*
X152987500Y-167929736D03*
%TD*%
D10*
%TO.C,CU31*%
X128971505Y-56479264D03*
X127421505Y-56479264D03*
%TD*%
D24*
%TO.C,U43*%
X163262500Y-145095736D03*
X163262500Y-146365736D03*
X163262500Y-147635736D03*
X163262500Y-148905736D03*
X168337500Y-148905736D03*
X168337500Y-147635736D03*
X168337500Y-146365736D03*
X168337500Y-145095736D03*
%TD*%
D23*
%TO.C,R214*%
X205122000Y-83700736D03*
X206772000Y-83700736D03*
%TD*%
D13*
%TO.C,D65*%
X154100000Y-118950736D03*
X157400000Y-118950736D03*
%TD*%
D51*
%TO.C,RV63*%
X231147000Y-120350736D03*
D52*
X236647000Y-121500736D03*
D51*
X231147000Y-122650736D03*
%TD*%
D28*
%TO.C,C16*%
X91725000Y-285284500D03*
X93275000Y-285284500D03*
%TD*%
D19*
%TO.C,CU129*%
X225028000Y-273748000D03*
X225028000Y-268673000D03*
%TD*%
D23*
%TO.C,R63*%
X117600986Y-235729264D03*
X119250986Y-235729264D03*
%TD*%
D44*
%TO.C,RV40*%
X184200000Y-200338736D03*
X175400000Y-200338736D03*
D36*
X182300000Y-207338736D03*
X179800000Y-207338736D03*
X177300000Y-207338736D03*
%TD*%
D35*
%TO.C,D61*%
X153597000Y-88950736D03*
D36*
X151057000Y-88950736D03*
X148517000Y-88950736D03*
%TD*%
D30*
%TO.C,J19*%
X123347000Y-105959264D03*
D31*
X123347000Y-94559264D03*
X123347000Y-102859264D03*
%TD*%
D34*
%TO.C,C141*%
X237253000Y-276627500D03*
X237253000Y-275077500D03*
%TD*%
D22*
%TO.C,R144*%
X152172000Y-116450736D03*
X150522000Y-116450736D03*
%TD*%
D50*
%TO.C,C118*%
X178944173Y-277794529D03*
X178944173Y-275894529D03*
%TD*%
D30*
%TO.C,J45*%
X236098500Y-223818736D03*
D31*
X236098500Y-212418736D03*
X236098500Y-220718736D03*
%TD*%
D21*
%TO.C,R129*%
X160538500Y-144885736D03*
X160538500Y-146535736D03*
%TD*%
D23*
%TO.C,R193*%
X192600986Y-228568750D03*
X194250986Y-228568750D03*
%TD*%
D22*
%TO.C,R298*%
X246150986Y-233500000D03*
X244500986Y-233500000D03*
%TD*%
D10*
%TO.C,CU100*%
X221572000Y-237068750D03*
X220022000Y-237068750D03*
%TD*%
D22*
%TO.C,R47*%
X110766005Y-56484500D03*
X109116005Y-56484500D03*
%TD*%
D24*
%TO.C,U101*%
X236209005Y-59095736D03*
X236209005Y-60365736D03*
X236209005Y-61635736D03*
X236209005Y-62905736D03*
X241284005Y-62905736D03*
X241284005Y-61635736D03*
X241284005Y-60365736D03*
X241284005Y-59095736D03*
%TD*%
D51*
%TO.C,RV45*%
X188847000Y-120300736D03*
D52*
X194347000Y-121450736D03*
D51*
X188847000Y-122600736D03*
%TD*%
D10*
%TO.C,CU91*%
X213571505Y-56450736D03*
X212021505Y-56450736D03*
%TD*%
D16*
%TO.C,TP48*%
X183600000Y-157600736D03*
%TD*%
D22*
%TO.C,R212*%
X206772000Y-85700736D03*
X205122000Y-85700736D03*
%TD*%
D10*
%TO.C,CU63*%
X180512500Y-125355736D03*
X178962500Y-125355736D03*
%TD*%
D23*
%TO.C,R68*%
X118425000Y-116479264D03*
X120075000Y-116479264D03*
%TD*%
D12*
%TO.C,D4*%
X93513500Y-137234500D03*
X90213500Y-137234500D03*
%TD*%
D35*
%TO.C,D97*%
X209947000Y-88950736D03*
D36*
X207407000Y-88950736D03*
X204867000Y-88950736D03*
%TD*%
D33*
%TO.C,TP6*%
X81129000Y-47533000D03*
%TD*%
D32*
%TO.C,SW34*%
X139897000Y-80150000D03*
X139897000Y-75450000D03*
X139897000Y-70750000D03*
X135097000Y-80250000D03*
X135097000Y-75450000D03*
X135097000Y-70750000D03*
%TD*%
D16*
%TO.C,TP71*%
X220047000Y-255950736D03*
%TD*%
D23*
%TO.C,R219*%
X206700986Y-228568750D03*
X208350986Y-228568750D03*
%TD*%
D29*
%TO.C,SW35*%
X223650000Y-189700736D03*
X221150000Y-189700736D03*
X218650000Y-189700736D03*
%TD*%
D17*
%TO.C,RV43*%
X192150000Y-240700736D03*
D18*
X191000000Y-246200736D03*
D17*
X189850000Y-240700736D03*
%TD*%
D51*
%TO.C,RV9*%
X104260500Y-120334500D03*
D52*
X109760500Y-121484500D03*
D51*
X104260500Y-122634500D03*
%TD*%
D10*
%TO.C,CU5*%
X98388500Y-142834500D03*
X96838500Y-142834500D03*
%TD*%
D39*
%TO.C,SW42*%
X253247000Y-254250000D03*
X253247000Y-256750000D03*
X253247000Y-259250000D03*
%TD*%
D23*
%TO.C,R297*%
X249000986Y-228618014D03*
X250650986Y-228618014D03*
%TD*%
D22*
%TO.C,R186*%
X192671999Y-85700736D03*
X191021999Y-85700736D03*
%TD*%
D12*
%TO.C,D130*%
X241200000Y-134500736D03*
X237900000Y-134500736D03*
%TD*%
D16*
%TO.C,TP74*%
X237250000Y-180338736D03*
%TD*%
D26*
%TO.C,RV50*%
X202600000Y-60450736D03*
D27*
X203750000Y-54950736D03*
D26*
X204900000Y-60450736D03*
%TD*%
D23*
%TO.C,R166*%
X174050986Y-235700736D03*
X175700986Y-235700736D03*
%TD*%
D22*
%TO.C,R291*%
X253572000Y-83750000D03*
X251922000Y-83750000D03*
%TD*%
D34*
%TO.C,C29*%
X120446505Y-64754264D03*
X120446505Y-63204264D03*
%TD*%
D24*
%TO.C,U31*%
X137559005Y-59045000D03*
X137559005Y-60315000D03*
X137559005Y-61585000D03*
X137559005Y-62855000D03*
X142634005Y-62855000D03*
X142634005Y-61585000D03*
X142634005Y-60315000D03*
X142634005Y-59045000D03*
%TD*%
D16*
%TO.C,TP10*%
X114642491Y-49927743D03*
%TD*%
%TO.C,TP68*%
X226791727Y-88257024D03*
%TD*%
D22*
%TO.C,R280*%
X237652505Y-56500736D03*
X236002505Y-56500736D03*
%TD*%
D42*
%TO.C,DNP1*%
X109363500Y-306794500D03*
D43*
X109363500Y-362674500D03*
%TD*%
D19*
%TO.C,CU131*%
X253178000Y-273748000D03*
X253178000Y-268673000D03*
%TD*%
D29*
%TO.C,SW20*%
X154097000Y-110700736D03*
X151597000Y-110700736D03*
X149097000Y-110700736D03*
%TD*%
D22*
%TO.C,R137*%
X148672000Y-252450736D03*
X147022000Y-252450736D03*
%TD*%
%TO.C,R142*%
X147500986Y-233450736D03*
X145850986Y-233450736D03*
%TD*%
D28*
%TO.C,C81*%
X245821505Y-66750000D03*
X247371505Y-66750000D03*
%TD*%
D48*
%TO.C,FB4*%
X94988500Y-281084500D03*
X94988500Y-282984500D03*
%TD*%
D21*
%TO.C,R319*%
X163178000Y-267685500D03*
X163178000Y-269335500D03*
%TD*%
D24*
%TO.C,U72*%
X189462500Y-127450736D03*
X189462500Y-128720736D03*
X189462500Y-129990736D03*
X189462500Y-131260736D03*
X194537500Y-131260736D03*
X194537500Y-129990736D03*
X194537500Y-128720736D03*
X194537500Y-127450736D03*
%TD*%
D15*
%TO.C,C56*%
X199296504Y-41688736D03*
X199296504Y-43238736D03*
%TD*%
D10*
%TO.C,CU81*%
X199471504Y-56450736D03*
X197921504Y-56450736D03*
%TD*%
D34*
%TO.C,C129*%
X209103000Y-276627500D03*
X209103000Y-275077500D03*
%TD*%
D23*
%TO.C,R139*%
X154558950Y-240931514D03*
X156208950Y-240931514D03*
%TD*%
D24*
%TO.C,U62*%
X175412500Y-127450736D03*
X175412500Y-128720736D03*
X175412500Y-129990736D03*
X175412500Y-131260736D03*
X180487500Y-131260736D03*
X180487500Y-129990736D03*
X180487500Y-128720736D03*
X180487500Y-127450736D03*
%TD*%
D16*
%TO.C,TP19*%
X128091727Y-88285552D03*
%TD*%
D14*
%TO.C,J53*%
X118839000Y-379498250D03*
X123839000Y-386498250D03*
X118839000Y-386498250D03*
X123839000Y-379398250D03*
%TD*%
%TO.C,J11*%
X261000000Y-242550000D03*
X261000000Y-249650000D03*
X266000000Y-249550000D03*
X266000000Y-242550000D03*
%TD*%
D39*
%TO.C,SW8*%
X98210500Y-254234500D03*
X98210500Y-256734500D03*
X98210500Y-259234500D03*
%TD*%
D26*
%TO.C,RV38*%
X174450000Y-60450736D03*
D27*
X175600000Y-54950736D03*
D26*
X176750000Y-60450736D03*
%TD*%
D48*
%TO.C,FB3*%
X97788500Y-281084500D03*
X97788500Y-282984500D03*
%TD*%
D24*
%TO.C,U4*%
X91212500Y-167963500D03*
X91212500Y-169233500D03*
X91212500Y-170503500D03*
X91212500Y-171773500D03*
X96287500Y-171773500D03*
X96287500Y-170503500D03*
X96287500Y-169233500D03*
X96287500Y-167963500D03*
%TD*%
D12*
%TO.C,D78*%
X185600000Y-121700736D03*
X182300000Y-121700736D03*
%TD*%
D11*
%TO.C,R122*%
X170100000Y-190525736D03*
X170100000Y-188875736D03*
%TD*%
D28*
%TO.C,C138*%
X240464500Y-286793000D03*
X242014500Y-286793000D03*
%TD*%
D21*
%TO.C,R43*%
X114163500Y-128659500D03*
X114163500Y-130309500D03*
%TD*%
D10*
%TO.C,CU28*%
X120114000Y-174317264D03*
X118564000Y-174317264D03*
%TD*%
D23*
%TO.C,R286*%
X238225000Y-152550736D03*
X239875000Y-152550736D03*
%TD*%
D16*
%TO.C,TP97*%
X194965767Y-185334500D03*
%TD*%
D10*
%TO.C,CU56*%
X150175000Y-151488736D03*
X148625000Y-151488736D03*
%TD*%
D23*
%TO.C,R269*%
X239108950Y-240981514D03*
X240758950Y-240981514D03*
%TD*%
D11*
%TO.C,R46*%
X113363500Y-176459500D03*
X113363500Y-174809500D03*
%TD*%
D23*
%TO.C,R53*%
X111338500Y-152534500D03*
X112988500Y-152534500D03*
%TD*%
D30*
%TO.C,J16*%
X109260500Y-105964500D03*
D31*
X109260500Y-94564500D03*
X109260500Y-102864500D03*
%TD*%
D11*
%TO.C,R127*%
X160546505Y-64775736D03*
X160546505Y-63125736D03*
%TD*%
D21*
%TO.C,R221*%
X213396505Y-45238736D03*
X213396505Y-46888736D03*
%TD*%
D34*
%TO.C,C77*%
X233246505Y-64775736D03*
X233246505Y-63225736D03*
%TD*%
D12*
%TO.C,D2*%
X101013500Y-121734500D03*
X97713500Y-121734500D03*
%TD*%
D28*
%TO.C,C111*%
X187844173Y-267569529D03*
X189394173Y-267569529D03*
%TD*%
D24*
%TO.C,U75*%
X192309500Y-230913750D03*
X192309500Y-232183750D03*
X192309500Y-233453750D03*
X192309500Y-234723750D03*
X197384500Y-234723750D03*
X197384500Y-233453750D03*
X197384500Y-232183750D03*
X197384500Y-230913750D03*
%TD*%
D28*
%TO.C,C4*%
X110561307Y-243357311D03*
X112111307Y-243357311D03*
%TD*%
D11*
%TO.C,R71*%
X127450000Y-176454264D03*
X127450000Y-174804264D03*
%TD*%
D13*
%TO.C,D110*%
X217550000Y-249950736D03*
X220850000Y-249950736D03*
%TD*%
D45*
%TO.C,RV54*%
X208947000Y-157438736D03*
D46*
X203447000Y-156288736D03*
D45*
X208947000Y-155138736D03*
%TD*%
D11*
%TO.C,R149*%
X155700000Y-176425736D03*
X155700000Y-174775736D03*
%TD*%
%TO.C,R45*%
X113663500Y-190559500D03*
X113663500Y-188909500D03*
%TD*%
D30*
%TO.C,J201*%
X95210500Y-105964500D03*
D31*
X95210500Y-94564500D03*
X95210500Y-102864500D03*
%TD*%
D23*
%TO.C,R217*%
X210908950Y-240931514D03*
X212558950Y-240931514D03*
%TD*%
D10*
%TO.C,CU16*%
X107838500Y-151522500D03*
X106288500Y-151522500D03*
%TD*%
D16*
%TO.C,TP75*%
X240891727Y-88307024D03*
%TD*%
D23*
%TO.C,R236*%
X203234000Y-165488736D03*
X204884000Y-165488736D03*
%TD*%
D16*
%TO.C,TP63*%
X205947000Y-259450736D03*
%TD*%
D11*
%TO.C,R231*%
X202796505Y-64775736D03*
X202796505Y-63125736D03*
%TD*%
D16*
%TO.C,TP49*%
X177797000Y-259450736D03*
%TD*%
D14*
%TO.C,J57*%
X156503000Y-374777500D03*
X156503000Y-367677500D03*
X151503000Y-374777500D03*
X151503000Y-367777500D03*
%TD*%
D13*
%TO.C,D112*%
X223300000Y-249950736D03*
X226600000Y-249950736D03*
%TD*%
D19*
%TO.C,CU123*%
X140414001Y-273718750D03*
X140414001Y-268643750D03*
%TD*%
D22*
%TO.C,R209*%
X195175000Y-174288736D03*
X193525000Y-174288736D03*
%TD*%
D28*
%TO.C,C78*%
X239802505Y-65500736D03*
X241352505Y-65500736D03*
%TD*%
D11*
%TO.C,R304*%
X254650000Y-190575000D03*
X254650000Y-188925000D03*
%TD*%
D16*
%TO.C,TP21*%
X121347000Y-259479264D03*
%TD*%
D11*
%TO.C,R283*%
X230996505Y-64825736D03*
X230996505Y-63175736D03*
%TD*%
D22*
%TO.C,R41*%
X109835500Y-116484500D03*
X108185500Y-116484500D03*
%TD*%
D24*
%TO.C,U52*%
X147212500Y-127450736D03*
X147212500Y-128720736D03*
X147212500Y-129990736D03*
X147212500Y-131260736D03*
X152287500Y-131260736D03*
X152287500Y-129990736D03*
X152287500Y-128720736D03*
X152287500Y-127450736D03*
%TD*%
D23*
%TO.C,R42*%
X104338500Y-116484500D03*
X105988500Y-116484500D03*
%TD*%
D21*
%TO.C,R207*%
X188688500Y-144885736D03*
X188688500Y-146535736D03*
%TD*%
D26*
%TO.C,RV44*%
X188499999Y-60450736D03*
D27*
X189649999Y-54950736D03*
D26*
X190799999Y-60450736D03*
%TD*%
D28*
%TO.C,C48*%
X155252505Y-65450736D03*
X156802505Y-65450736D03*
%TD*%
D23*
%TO.C,R37*%
X103514486Y-235734500D03*
X105164486Y-235734500D03*
%TD*%
D24*
%TO.C,U115*%
X248709500Y-230963014D03*
X248709500Y-232233014D03*
X248709500Y-233503014D03*
X248709500Y-234773014D03*
X253784500Y-234773014D03*
X253784500Y-233503014D03*
X253784500Y-232233014D03*
X253784500Y-230963014D03*
%TD*%
D23*
%TO.C,R112*%
X161200986Y-228568750D03*
X162850986Y-228568750D03*
%TD*%
D28*
%TO.C,C90*%
X127700500Y-286763750D03*
X129250500Y-286763750D03*
%TD*%
D22*
%TO.C,R31*%
X108085500Y-85734500D03*
X106435500Y-85734500D03*
%TD*%
D10*
%TO.C,CU24*%
X119861500Y-133494764D03*
X118311500Y-133494764D03*
%TD*%
D12*
%TO.C,D123*%
X240700000Y-246000736D03*
X237400000Y-246000736D03*
%TD*%
D48*
%TO.C,FB22*%
X238778000Y-281127500D03*
X238778000Y-283027500D03*
%TD*%
D23*
%TO.C,R33*%
X106435500Y-83734500D03*
X108085500Y-83734500D03*
%TD*%
D17*
%TO.C,RV29*%
X163750000Y-177938736D03*
D18*
X162600000Y-183438736D03*
D17*
X161450000Y-177938736D03*
%TD*%
D30*
%TO.C,J39*%
X207898500Y-223768736D03*
D31*
X207898500Y-212368736D03*
X207898500Y-220668736D03*
%TD*%
D24*
%TO.C,U33*%
X135062500Y-145095000D03*
X135062500Y-146365000D03*
X135062500Y-147635000D03*
X135062500Y-148905000D03*
X140137500Y-148905000D03*
X140137500Y-147635000D03*
X140137500Y-146365000D03*
X140137500Y-145095000D03*
%TD*%
D16*
%TO.C,TP35*%
X163697000Y-259450736D03*
%TD*%
D40*
%TO.C,J41*%
X222896505Y-50263736D03*
D41*
X220396505Y-50263736D03*
X217896505Y-50263736D03*
%TD*%
D22*
%TO.C,R202*%
X195352504Y-56450736D03*
X193702504Y-56450736D03*
%TD*%
D47*
%TO.C,D83*%
X183900000Y-171738736D03*
X183900000Y-168438736D03*
%TD*%
D32*
%TO.C,SW405*%
X219700000Y-291350000D03*
X219700000Y-296050000D03*
X219700000Y-300750000D03*
X224500000Y-291250000D03*
X224500000Y-296050000D03*
X224500000Y-300750000D03*
%TD*%
D23*
%TO.C,R84*%
X134672000Y-83700000D03*
X136322000Y-83700000D03*
%TD*%
D12*
%TO.C,D51*%
X170250000Y-245950736D03*
X166950000Y-245950736D03*
%TD*%
D10*
%TO.C,CU46*%
X164275000Y-151488736D03*
X162725000Y-151488736D03*
%TD*%
D16*
%TO.C,TP47*%
X184541727Y-88257024D03*
%TD*%
D37*
%TO.C,J54*%
X168378000Y-284577500D03*
D38*
X168378000Y-282037500D03*
X168378000Y-279497500D03*
%TD*%
D23*
%TO.C,R151*%
X149925000Y-134200736D03*
X151575000Y-134200736D03*
%TD*%
D29*
%TO.C,SW37*%
X238647000Y-110750736D03*
X236147000Y-110750736D03*
X233647000Y-110750736D03*
%TD*%
D11*
%TO.C,R96*%
X141900000Y-190525000D03*
X141900000Y-188875000D03*
%TD*%
D24*
%TO.C,U53*%
X149162500Y-145095736D03*
X149162500Y-146365736D03*
X149162500Y-147635736D03*
X149162500Y-148905736D03*
X154237500Y-148905736D03*
X154237500Y-147635736D03*
X154237500Y-146365736D03*
X154237500Y-145095736D03*
%TD*%
D51*
%TO.C,RV21*%
X132497000Y-120300000D03*
D52*
X137997000Y-121450000D03*
D51*
X132497000Y-122600000D03*
%TD*%
D10*
%TO.C,CU112*%
X237235505Y-65500736D03*
X235685505Y-65500736D03*
%TD*%
D26*
%TO.C,RV8*%
X103913500Y-60484500D03*
D27*
X105063500Y-54984500D03*
D26*
X106213500Y-60484500D03*
%TD*%
D16*
%TO.C,TP14*%
X107260500Y-259484500D03*
%TD*%
D23*
%TO.C,R218*%
X202200986Y-235700736D03*
X203850986Y-235700736D03*
%TD*%
D44*
%TO.C,RV16*%
X118950000Y-200367264D03*
X127750000Y-200367264D03*
D36*
X125850000Y-207367264D03*
X123350000Y-207367264D03*
X120850000Y-207367264D03*
%TD*%
D23*
%TO.C,R13*%
X90497500Y-165522500D03*
X92147500Y-165522500D03*
%TD*%
D39*
%TO.C,SW19*%
X168697000Y-254200736D03*
X168697000Y-256700736D03*
X168697000Y-259200736D03*
%TD*%
D21*
%TO.C,R77*%
X118188500Y-144914264D03*
X118188500Y-146564264D03*
%TD*%
D23*
%TO.C,R237*%
X223722000Y-85700736D03*
X225372000Y-85700736D03*
%TD*%
D28*
%TO.C,C5*%
X98866005Y-65484500D03*
X100416005Y-65484500D03*
%TD*%
D24*
%TO.C,U63*%
X177362500Y-145095736D03*
X177362500Y-146365736D03*
X177362500Y-147635736D03*
X177362500Y-148905736D03*
X182437500Y-148905736D03*
X182437500Y-147635736D03*
X182437500Y-146365736D03*
X182437500Y-145095736D03*
%TD*%
D22*
%TO.C,R157*%
X152925000Y-174288736D03*
X151275000Y-174288736D03*
%TD*%
D12*
%TO.C,D128*%
X234450000Y-137250736D03*
X231150000Y-137250736D03*
%TD*%
D16*
%TO.C,TP64*%
X205947000Y-255950736D03*
%TD*%
D30*
%TO.C,J37*%
X207947000Y-105930736D03*
D31*
X207947000Y-94530736D03*
X207947000Y-102830736D03*
%TD*%
D11*
%TO.C,R200*%
X198250000Y-190525736D03*
X198250000Y-188875736D03*
%TD*%
D23*
%TO.C,R130*%
X167775000Y-152500736D03*
X169425000Y-152500736D03*
%TD*%
D10*
%TO.C,C127*%
X213864500Y-285043000D03*
X212314500Y-285043000D03*
%TD*%
D13*
%TO.C,D53*%
X168200000Y-118950736D03*
X171500000Y-118950736D03*
%TD*%
%TO.C,D79*%
X182300000Y-124450736D03*
X185600000Y-124450736D03*
%TD*%
D26*
%TO.C,RV26*%
X160350000Y-60450736D03*
D27*
X161500000Y-54950736D03*
D26*
X162650000Y-60450736D03*
%TD*%
D24*
%TO.C,U81*%
X208009005Y-59045736D03*
X208009005Y-60315736D03*
X208009005Y-61585736D03*
X208009005Y-62855736D03*
X213084005Y-62855736D03*
X213084005Y-61585736D03*
X213084005Y-60315736D03*
X213084005Y-59045736D03*
%TD*%
D10*
%TO.C,CU76*%
X192425000Y-151488736D03*
X190875000Y-151488736D03*
%TD*%
D28*
%TO.C,C31*%
X138797807Y-243322811D03*
X140347807Y-243322811D03*
%TD*%
D50*
%TO.C,C132*%
X221428000Y-277660500D03*
X221428000Y-275760500D03*
%TD*%
D11*
%TO.C,R227*%
X212050000Y-176425736D03*
X212050000Y-174775736D03*
%TD*%
D29*
%TO.C,SW11*%
X124950000Y-189729264D03*
X122450000Y-189729264D03*
X119950000Y-189729264D03*
%TD*%
D28*
%TO.C,C84*%
X253902505Y-65500000D03*
X255452505Y-65500000D03*
%TD*%
D12*
%TO.C,D58*%
X170750000Y-134450736D03*
X167450000Y-134450736D03*
%TD*%
D32*
%TO.C,SW64*%
X182197000Y-80150736D03*
X182197000Y-75450736D03*
X182197000Y-70750736D03*
X177397000Y-80250736D03*
X177397000Y-75450736D03*
X177397000Y-70750736D03*
%TD*%
D13*
%TO.C,D89*%
X196350000Y-118950736D03*
X199650000Y-118950736D03*
%TD*%
D11*
%TO.C,R51*%
X104102000Y-150379500D03*
X104102000Y-148729500D03*
%TD*%
D22*
%TO.C,R105*%
X138825000Y-174288000D03*
X137175000Y-174288000D03*
%TD*%
D28*
%TO.C,C102*%
X155864500Y-286793000D03*
X157414500Y-286793000D03*
%TD*%
D10*
%TO.C,CU105*%
X239325000Y-142850736D03*
X237775000Y-142850736D03*
%TD*%
D16*
%TO.C,TP78*%
X234147000Y-256000736D03*
%TD*%
D11*
%TO.C,R121*%
X168600000Y-130275736D03*
X168600000Y-128625736D03*
%TD*%
D10*
%TO.C,CU101*%
X227671505Y-56450736D03*
X226121505Y-56450736D03*
%TD*%
%TO.C,CU75*%
X197025000Y-142800736D03*
X195475000Y-142800736D03*
%TD*%
D21*
%TO.C,R94*%
X142400000Y-128625000D03*
X142400000Y-130275000D03*
%TD*%
%TO.C,R325*%
X219628000Y-267685500D03*
X219628000Y-269335500D03*
%TD*%
D12*
%TO.C,D118*%
X227100000Y-134450736D03*
X223800000Y-134450736D03*
%TD*%
%TO.C,D117*%
X225350000Y-137200736D03*
X222050000Y-137200736D03*
%TD*%
D11*
%TO.C,R95*%
X140400000Y-130275000D03*
X140400000Y-128625000D03*
%TD*%
D26*
%TO.C,RV68*%
X244900000Y-60500000D03*
D27*
X246050000Y-55000000D03*
D26*
X247200000Y-60500000D03*
%TD*%
D34*
%TO.C,C59*%
X190946504Y-64725736D03*
X190946504Y-63175736D03*
%TD*%
D22*
%TO.C,R248*%
X222622000Y-116450736D03*
X220972000Y-116450736D03*
%TD*%
D50*
%TO.C,C106*%
X150653000Y-277802500D03*
X150653000Y-275902500D03*
%TD*%
D17*
%TO.C,RV71*%
X248300000Y-177988000D03*
D18*
X247150000Y-183488000D03*
D17*
X246000000Y-177988000D03*
%TD*%
D34*
%TO.C,C117*%
X180944173Y-276619529D03*
X180944173Y-275069529D03*
%TD*%
D28*
%TO.C,C61*%
X209247807Y-243323547D03*
X210797807Y-243323547D03*
%TD*%
%TO.C,C135*%
X244153000Y-267577500D03*
X245703000Y-267577500D03*
%TD*%
D24*
%TO.C,U102*%
X231762500Y-127500736D03*
X231762500Y-128770736D03*
X231762500Y-130040736D03*
X231762500Y-131310736D03*
X236837500Y-131310736D03*
X236837500Y-130040736D03*
X236837500Y-128770736D03*
X236837500Y-127500736D03*
%TD*%
D10*
%TO.C,C98*%
X156378000Y-264477500D03*
X154828000Y-264477500D03*
%TD*%
D48*
%TO.C,FB2*%
X102988500Y-281084500D03*
X102988500Y-282984500D03*
%TD*%
D51*
%TO.C,RV33*%
X146597000Y-120300736D03*
D52*
X152097000Y-121450736D03*
D51*
X146597000Y-122600736D03*
%TD*%
D11*
%TO.C,R333*%
X77200000Y-278225000D03*
X77200000Y-276575000D03*
%TD*%
D47*
%TO.C,D119*%
X226150000Y-171738736D03*
X226150000Y-168438736D03*
%TD*%
D14*
%TO.C,J58*%
X152003000Y-386527500D03*
X152003000Y-379427500D03*
X147003000Y-386527500D03*
X147003000Y-379527500D03*
%TD*%
D10*
%TO.C,CU103*%
X236862500Y-125405736D03*
X235312500Y-125405736D03*
%TD*%
D28*
%TO.C,C104*%
X148114500Y-285327500D03*
X149664500Y-285327500D03*
%TD*%
D10*
%TO.C,C10*%
X99988500Y-264434500D03*
X98438500Y-264434500D03*
%TD*%
D19*
%TO.C,CU127*%
X196869173Y-273740029D03*
X196869173Y-268665029D03*
%TD*%
D51*
%TO.C,RV51*%
X202947000Y-120300736D03*
D52*
X208447000Y-121450736D03*
D51*
X202947000Y-122600736D03*
%TD*%
D39*
%TO.C,SW39*%
X239147000Y-254250736D03*
X239147000Y-256750736D03*
X239147000Y-259250736D03*
%TD*%
D22*
%TO.C,R265*%
X239472000Y-83750736D03*
X237822000Y-83750736D03*
%TD*%
D12*
%TO.C,D135*%
X254800000Y-246000000D03*
X251500000Y-246000000D03*
%TD*%
D14*
%TO.C,J7*%
X266000000Y-203650000D03*
X261000000Y-203650000D03*
X261000000Y-210750000D03*
X266000000Y-210650000D03*
%TD*%
D23*
%TO.C,R132*%
X160984000Y-165488736D03*
X162634000Y-165488736D03*
%TD*%
D28*
%TO.C,C30*%
X127002505Y-65479264D03*
X128552505Y-65479264D03*
%TD*%
D48*
%TO.C,FB6*%
X126014000Y-281098250D03*
X126014000Y-282998250D03*
%TD*%
D20*
%TO.C,TP90*%
X264390000Y-61630000D03*
%TD*%
D22*
%TO.C,R72*%
X124852505Y-56479264D03*
X123202505Y-56479264D03*
%TD*%
D33*
%TO.C,TP87*%
X264390000Y-47533000D03*
%TD*%
D10*
%TO.C,CU85*%
X211125000Y-142800736D03*
X209575000Y-142800736D03*
%TD*%
%TO.C,CU44*%
X162211500Y-133466236D03*
X160661500Y-133466236D03*
%TD*%
D29*
%TO.C,SW15*%
X139100000Y-189700000D03*
X136600000Y-189700000D03*
X134100000Y-189700000D03*
%TD*%
D22*
%TO.C,R272*%
X232050986Y-233500736D03*
X230400986Y-233500736D03*
%TD*%
D34*
%TO.C,C107*%
X162878000Y-277285500D03*
X162878000Y-275735500D03*
%TD*%
D10*
%TO.C,CU106*%
X234725000Y-151538736D03*
X233175000Y-151538736D03*
%TD*%
D16*
%TO.C,TP32*%
X166800000Y-180288736D03*
%TD*%
D11*
%TO.C,R230*%
X212050000Y-180825736D03*
X212050000Y-179175736D03*
%TD*%
D45*
%TO.C,RV72*%
X251247000Y-157488000D03*
D46*
X245747000Y-156338000D03*
D45*
X251247000Y-155188000D03*
%TD*%
D23*
%TO.C,R314*%
X245534000Y-165538000D03*
X247184000Y-165538000D03*
%TD*%
D44*
%TO.C,RV58*%
X226450000Y-200338736D03*
X217650000Y-200338736D03*
D36*
X224550000Y-207338736D03*
X222050000Y-207338736D03*
X219550000Y-207338736D03*
%TD*%
D23*
%TO.C,R80*%
X118634000Y-165517264D03*
X120284000Y-165517264D03*
%TD*%
D21*
%TO.C,R259*%
X216888500Y-144885736D03*
X216888500Y-146535736D03*
%TD*%
D28*
%TO.C,C128*%
X204564500Y-285327500D03*
X206114500Y-285327500D03*
%TD*%
D32*
%TO.C,SW6*%
X92713500Y-291284500D03*
X92713500Y-295984500D03*
X92713500Y-300684500D03*
X97513500Y-291184500D03*
X97513500Y-295984500D03*
X97513500Y-300684500D03*
%TD*%
D40*
%TO.C,J38*%
X208796505Y-50263736D03*
D41*
X206296505Y-50263736D03*
X203796505Y-50263736D03*
%TD*%
D22*
%TO.C,R274*%
X236722000Y-116500736D03*
X235072000Y-116500736D03*
%TD*%
D23*
%TO.C,R3*%
X110935500Y-85734500D03*
X112585500Y-85734500D03*
%TD*%
D16*
%TO.C,TP22*%
X121347000Y-255979264D03*
%TD*%
D11*
%TO.C,R232*%
X202788500Y-150345736D03*
X202788500Y-148695736D03*
%TD*%
D32*
%TO.C,SW44*%
X168097000Y-80150736D03*
X168097000Y-75450736D03*
X168097000Y-70750736D03*
X163297000Y-80250736D03*
X163297000Y-75450736D03*
X163297000Y-70750736D03*
%TD*%
D44*
%TO.C,RV70*%
X254650000Y-200388000D03*
X245850000Y-200388000D03*
D36*
X252750000Y-207388000D03*
X250250000Y-207388000D03*
X247750000Y-207388000D03*
%TD*%
D48*
%TO.C,FB1*%
X105988500Y-281084500D03*
X105988500Y-282984500D03*
%TD*%
%TO.C,FB12*%
X162378000Y-281127500D03*
X162378000Y-283027500D03*
%TD*%
D16*
%TO.C,TP40*%
X156341727Y-88257024D03*
%TD*%
%TO.C,TP7*%
X99013500Y-157634500D03*
%TD*%
D11*
%TO.C,R308*%
X254350000Y-180875000D03*
X254350000Y-179225000D03*
%TD*%
D12*
%TO.C,D90*%
X199650000Y-121700736D03*
X196350000Y-121700736D03*
%TD*%
D22*
%TO.C,R90*%
X133400986Y-233450000D03*
X131750986Y-233450000D03*
%TD*%
D17*
%TO.C,RV65*%
X234200000Y-177988736D03*
D18*
X233050000Y-183488736D03*
D17*
X231900000Y-177988736D03*
%TD*%
D35*
%TO.C,D73*%
X181797000Y-88950736D03*
D36*
X179257000Y-88950736D03*
X176717000Y-88950736D03*
%TD*%
D17*
%TO.C,RV59*%
X220100000Y-177938736D03*
D18*
X218950000Y-183438736D03*
D17*
X217800000Y-177938736D03*
%TD*%
%TO.C,RV37*%
X178100000Y-240700736D03*
D18*
X176950000Y-246200736D03*
D17*
X175800000Y-240700736D03*
%TD*%
D10*
%TO.C,C101*%
X165414500Y-285327500D03*
X163864500Y-285327500D03*
%TD*%
D24*
%TO.C,U11*%
X109322505Y-59079500D03*
X109322505Y-60349500D03*
X109322505Y-61619500D03*
X109322505Y-62889500D03*
X114397505Y-62889500D03*
X114397505Y-61619500D03*
X114397505Y-60349500D03*
X114397505Y-59079500D03*
%TD*%
D34*
%TO.C,C23*%
X106360005Y-64759500D03*
X106360005Y-63209500D03*
%TD*%
D16*
%TO.C,TP81*%
X251350000Y-180338000D03*
%TD*%
D24*
%TO.C,U111*%
X250309005Y-59095000D03*
X250309005Y-60365000D03*
X250309005Y-61635000D03*
X250309005Y-62905000D03*
X255384005Y-62905000D03*
X255384005Y-61635000D03*
X255384005Y-60365000D03*
X255384005Y-59095000D03*
%TD*%
D12*
%TO.C,D126*%
X241950000Y-121750736D03*
X238650000Y-121750736D03*
%TD*%
D34*
%TO.C,C95*%
X134714000Y-277256250D03*
X134714000Y-275706250D03*
%TD*%
D23*
%TO.C,R164*%
X175300986Y-228568750D03*
X176950986Y-228568750D03*
%TD*%
D45*
%TO.C,RV12*%
X110260500Y-157472500D03*
D46*
X104760500Y-156322500D03*
D45*
X110260500Y-155172500D03*
%TD*%
D22*
%TO.C,R228*%
X209452505Y-56450736D03*
X207802505Y-56450736D03*
%TD*%
D10*
%TO.C,CU58*%
X148364000Y-174288736D03*
X146814000Y-174288736D03*
%TD*%
D16*
%TO.C,TP73*%
X241528991Y-49943979D03*
%TD*%
D32*
%TO.C,SW94*%
X224447000Y-80150736D03*
X224447000Y-75450736D03*
X224447000Y-70750736D03*
X219647000Y-80250736D03*
X219647000Y-75450736D03*
X219647000Y-70750736D03*
%TD*%
D48*
%TO.C,FB10*%
X154178000Y-281127500D03*
X154178000Y-283027500D03*
%TD*%
D28*
%TO.C,C25*%
X124647807Y-243352075D03*
X126197807Y-243352075D03*
%TD*%
D13*
%TO.C,D19*%
X111763500Y-124484500D03*
X115063500Y-124484500D03*
%TD*%
D24*
%TO.C,U41*%
X165759005Y-59045736D03*
X165759005Y-60315736D03*
X165759005Y-61585736D03*
X165759005Y-62855736D03*
X170834005Y-62855736D03*
X170834005Y-61585736D03*
X170834005Y-60315736D03*
X170834005Y-59045736D03*
%TD*%
D25*
%TO.C,U17*%
X132214000Y-278826250D03*
X132214000Y-277556250D03*
X132214000Y-276286250D03*
X132214000Y-275016250D03*
X132214000Y-273746250D03*
X132214000Y-272476250D03*
X132214000Y-271206250D03*
X132214000Y-269936250D03*
X127214000Y-269936250D03*
X127214000Y-271206250D03*
X127214000Y-272476250D03*
X127214000Y-273746250D03*
X127214000Y-275016250D03*
X127214000Y-276286250D03*
X127214000Y-277556250D03*
X127214000Y-278826250D03*
%TD*%
D12*
%TO.C,D46*%
X142550000Y-134450000D03*
X139250000Y-134450000D03*
%TD*%
D24*
%TO.C,U83*%
X205512500Y-145095736D03*
X205512500Y-146365736D03*
X205512500Y-147635736D03*
X205512500Y-148905736D03*
X210587500Y-148905736D03*
X210587500Y-147635736D03*
X210587500Y-146365736D03*
X210587500Y-145095736D03*
%TD*%
D19*
%TO.C,CU12*%
X92613500Y-272422000D03*
X92613500Y-267347000D03*
%TD*%
D30*
%TO.C,J33*%
X179748500Y-223768736D03*
D31*
X179748500Y-212368736D03*
X179748500Y-220668736D03*
%TD*%
D21*
%TO.C,R69*%
X128250000Y-128654264D03*
X128250000Y-130304264D03*
%TD*%
D28*
%TO.C,C114*%
X184155673Y-286785029D03*
X185705673Y-286785029D03*
%TD*%
D17*
%TO.C,RV17*%
X121400000Y-177967264D03*
D18*
X120250000Y-183467264D03*
D17*
X119100000Y-177967264D03*
%TD*%
D25*
%TO.C,U307*%
X188669173Y-278847529D03*
X188669173Y-277577529D03*
X188669173Y-276307529D03*
X188669173Y-275037529D03*
X188669173Y-273767529D03*
X188669173Y-272497529D03*
X188669173Y-271227529D03*
X188669173Y-269957529D03*
X183669173Y-269957529D03*
X183669173Y-271227529D03*
X183669173Y-272497529D03*
X183669173Y-273767529D03*
X183669173Y-275037529D03*
X183669173Y-276307529D03*
X183669173Y-277577529D03*
X183669173Y-278847529D03*
%TD*%
D10*
%TO.C,CU117*%
X251525000Y-165538000D03*
X249975000Y-165538000D03*
%TD*%
D28*
%TO.C,C14*%
X99475000Y-286750000D03*
X101025000Y-286750000D03*
%TD*%
D16*
%TO.C,TP34*%
X169500000Y-157600736D03*
%TD*%
D28*
%TO.C,C73*%
X237447807Y-243373547D03*
X238997807Y-243373547D03*
%TD*%
%TO.C,C54*%
X183452505Y-65450736D03*
X185002505Y-65450736D03*
%TD*%
D22*
%TO.C,R241*%
X219122000Y-252450736D03*
X217472000Y-252450736D03*
%TD*%
D16*
%TO.C,TP8*%
X93210500Y-255984500D03*
%TD*%
D22*
%TO.C,R306*%
X251752505Y-56500000D03*
X250102505Y-56500000D03*
%TD*%
D32*
%TO.C,SW105*%
X135086000Y-291320750D03*
X135086000Y-296020750D03*
X135086000Y-300720750D03*
X139886000Y-291220750D03*
X139886000Y-296020750D03*
X139886000Y-300720750D03*
%TD*%
D16*
%TO.C,TP55*%
X197650000Y-157600736D03*
%TD*%
D23*
%TO.C,R106*%
X132784000Y-165488000D03*
X134434000Y-165488000D03*
%TD*%
D22*
%TO.C,R196*%
X194422000Y-116450736D03*
X192772000Y-116450736D03*
%TD*%
D23*
%TO.C,R29*%
X98363500Y-267534500D03*
X100013500Y-267534500D03*
%TD*%
D21*
%TO.C,R324*%
X199969173Y-278259500D03*
X199969173Y-279909500D03*
%TD*%
D23*
%TO.C,R223*%
X203025000Y-116450736D03*
X204675000Y-116450736D03*
%TD*%
D45*
%TO.C,RV66*%
X237147000Y-157488736D03*
D46*
X231647000Y-156338736D03*
D45*
X237147000Y-155188736D03*
%TD*%
D13*
%TO.C,D9*%
X96463500Y-249234500D03*
X99763500Y-249234500D03*
%TD*%
D23*
%TO.C,R19*%
X89464486Y-235734500D03*
X91114486Y-235734500D03*
%TD*%
D15*
%TO.C,C26*%
X128796505Y-41717264D03*
X128796505Y-43267264D03*
%TD*%
D42*
%TO.C,DNP8*%
X180044173Y-306579529D03*
D43*
X180044173Y-362459529D03*
%TD*%
D11*
%TO.C,R256*%
X226150000Y-180825736D03*
X226150000Y-179175736D03*
%TD*%
D24*
%TO.C,U1*%
X95272505Y-59079500D03*
X95272505Y-60349500D03*
X95272505Y-61619500D03*
X95272505Y-62889500D03*
X100347505Y-62889500D03*
X100347505Y-61619500D03*
X100347505Y-60349500D03*
X100347505Y-59079500D03*
%TD*%
D29*
%TO.C,SW31*%
X209550000Y-189700736D03*
X207050000Y-189700736D03*
X204550000Y-189700736D03*
%TD*%
D39*
%TO.C,SW29*%
X196847000Y-254200736D03*
X196847000Y-256700736D03*
X196847000Y-259200736D03*
%TD*%
D11*
%TO.C,R153*%
X146446505Y-64775736D03*
X146446505Y-63125736D03*
%TD*%
D10*
%TO.C,C115*%
X185705673Y-285035029D03*
X184155673Y-285035029D03*
%TD*%
D21*
%TO.C,R247*%
X227496505Y-45238736D03*
X227496505Y-46888736D03*
%TD*%
D23*
%TO.C,R114*%
X159950986Y-235700736D03*
X161600986Y-235700736D03*
%TD*%
D15*
%TO.C,C136*%
X247556000Y-272302500D03*
X247556000Y-273852500D03*
%TD*%
D39*
%TO.C,SW22*%
X154597000Y-254200736D03*
X154597000Y-256700736D03*
X154597000Y-259200736D03*
%TD*%
D22*
%TO.C,R2*%
X96716005Y-56484500D03*
X95066005Y-56484500D03*
%TD*%
D24*
%TO.C,U112*%
X245862500Y-127500000D03*
X245862500Y-128770000D03*
X245862500Y-130040000D03*
X245862500Y-131310000D03*
X250937500Y-131310000D03*
X250937500Y-130040000D03*
X250937500Y-128770000D03*
X250937500Y-127500000D03*
%TD*%
D44*
%TO.C,RV64*%
X231750000Y-200388736D03*
X240550000Y-200388736D03*
D36*
X238650000Y-207388736D03*
X236150000Y-207388736D03*
X233650000Y-207388736D03*
%TD*%
D47*
%TO.C,D95*%
X197950000Y-171738736D03*
X197950000Y-168438736D03*
%TD*%
D24*
%TO.C,U113*%
X247812500Y-145145000D03*
X247812500Y-146415000D03*
X247812500Y-147685000D03*
X247812500Y-148955000D03*
X252887500Y-148955000D03*
X252887500Y-147685000D03*
X252887500Y-146415000D03*
X252887500Y-145145000D03*
%TD*%
D10*
%TO.C,CU108*%
X232914000Y-174338736D03*
X231364000Y-174338736D03*
%TD*%
D11*
%TO.C,R148*%
X156000000Y-190525736D03*
X156000000Y-188875736D03*
%TD*%
D47*
%TO.C,D59*%
X169800000Y-171738736D03*
X169800000Y-168438736D03*
%TD*%
D28*
%TO.C,C33*%
X133071505Y-66700000D03*
X134621505Y-66700000D03*
%TD*%
D48*
%TO.C,FB13*%
X179669173Y-281119529D03*
X179669173Y-283019529D03*
%TD*%
D23*
%TO.C,R208*%
X195925000Y-152500736D03*
X197575000Y-152500736D03*
%TD*%
D14*
%TO.C,J4*%
X83000000Y-262284500D03*
X83000000Y-269384500D03*
X78000000Y-262384500D03*
X78000000Y-269384500D03*
%TD*%
D23*
%TO.C,R320*%
X154753000Y-267577500D03*
X156403000Y-267577500D03*
%TD*%
D32*
%TO.C,SW506*%
X233703000Y-291327500D03*
X233703000Y-296027500D03*
X233703000Y-300727500D03*
X238503000Y-291227500D03*
X238503000Y-296027500D03*
X238503000Y-300727500D03*
%TD*%
D10*
%TO.C,CU37*%
X138775000Y-165488000D03*
X137225000Y-165488000D03*
%TD*%
D50*
%TO.C,C96*%
X136814000Y-277631250D03*
X136814000Y-275731250D03*
%TD*%
D30*
%TO.C,J22*%
X137497000Y-105930000D03*
D31*
X137497000Y-94530000D03*
X137497000Y-102830000D03*
%TD*%
D12*
%TO.C,D60*%
X167050000Y-162288736D03*
X163750000Y-162288736D03*
%TD*%
D30*
%TO.C,J31*%
X179797000Y-105930736D03*
D31*
X179797000Y-94530736D03*
X179797000Y-102830736D03*
%TD*%
D21*
%TO.C,R276*%
X241050000Y-128675736D03*
X241050000Y-130325736D03*
%TD*%
D50*
%TO.C,C120*%
X193269173Y-277652529D03*
X193269173Y-275752529D03*
%TD*%
D23*
%TO.C,R119*%
X160775000Y-116450736D03*
X162425000Y-116450736D03*
%TD*%
D11*
%TO.C,R97*%
X141600000Y-176425000D03*
X141600000Y-174775000D03*
%TD*%
D12*
%TO.C,D44*%
X135800000Y-137200000D03*
X132500000Y-137200000D03*
%TD*%
D39*
%TO.C,SW12*%
X126347000Y-254229264D03*
X126347000Y-256729264D03*
X126347000Y-259229264D03*
%TD*%
D13*
%TO.C,D14*%
X104763500Y-249984500D03*
X108063500Y-249984500D03*
%TD*%
D30*
%TO.C,J28*%
X151597000Y-105930736D03*
D31*
X151597000Y-94530736D03*
X151597000Y-102830736D03*
%TD*%
D14*
%TO.C,J8*%
X83000000Y-250187040D03*
X78000000Y-243187040D03*
X78000000Y-250187040D03*
X83000000Y-243087040D03*
%TD*%
D15*
%TO.C,C1*%
X100660005Y-41722500D03*
X100660005Y-43272500D03*
%TD*%
D10*
%TO.C,CU74*%
X190361500Y-133466236D03*
X188811500Y-133466236D03*
%TD*%
%TO.C,CU50*%
X165222000Y-237068750D03*
X163672000Y-237068750D03*
%TD*%
D28*
%TO.C,C116*%
X176405673Y-285319529D03*
X177955673Y-285319529D03*
%TD*%
D13*
%TO.C,D103*%
X210450000Y-124450736D03*
X213750000Y-124450736D03*
%TD*%
D10*
%TO.C,CU23*%
X124062500Y-125384264D03*
X122512500Y-125384264D03*
%TD*%
%TO.C,CU67*%
X181075000Y-165488736D03*
X179525000Y-165488736D03*
%TD*%
D21*
%TO.C,R146*%
X156500000Y-128625736D03*
X156500000Y-130275736D03*
%TD*%
D10*
%TO.C,CU3*%
X95926000Y-125389500D03*
X94376000Y-125389500D03*
%TD*%
D12*
%TO.C,D105*%
X211250000Y-137200736D03*
X207950000Y-137200736D03*
%TD*%
D13*
%TO.C,D124*%
X237400000Y-250000736D03*
X240700000Y-250000736D03*
%TD*%
D10*
%TO.C,CU79*%
X197872000Y-228568750D03*
X196322000Y-228568750D03*
%TD*%
%TO.C,CU102*%
X223135505Y-65450736D03*
X221585505Y-65450736D03*
%TD*%
D22*
%TO.C,R170*%
X180372000Y-116450736D03*
X178722000Y-116450736D03*
%TD*%
D16*
%TO.C,TP43*%
X149597000Y-255950736D03*
%TD*%
D21*
%TO.C,R233*%
X202788500Y-144885736D03*
X202788500Y-146535736D03*
%TD*%
D16*
%TO.C,TP16*%
X127950000Y-115729264D03*
%TD*%
D48*
%TO.C,FB15*%
X187669173Y-281119529D03*
X187669173Y-283019529D03*
%TD*%
D16*
%TO.C,TP3*%
X100592491Y-49927743D03*
%TD*%
D14*
%TO.C,J50*%
X137839000Y-379398250D03*
X132839000Y-379498250D03*
X132839000Y-386498250D03*
X137839000Y-386498250D03*
%TD*%
D11*
%TO.C,R331*%
X77500000Y-219525000D03*
X77500000Y-217875000D03*
%TD*%
D28*
%TO.C,C63*%
X203521505Y-66700736D03*
X205071505Y-66700736D03*
%TD*%
D22*
%TO.C,R239*%
X225372000Y-83700736D03*
X223722000Y-83700736D03*
%TD*%
D15*
%TO.C,C62*%
X213396505Y-41688736D03*
X213396505Y-43238736D03*
%TD*%
D21*
%TO.C,R311*%
X245088500Y-144935000D03*
X245088500Y-146585000D03*
%TD*%
D11*
%TO.C,R205*%
X188696504Y-64775736D03*
X188696504Y-63125736D03*
%TD*%
D24*
%TO.C,U64*%
X176067500Y-167895000D03*
X176067500Y-169165000D03*
X176067500Y-170435000D03*
X176067500Y-171705000D03*
X181142500Y-171705000D03*
X181142500Y-170435000D03*
X181142500Y-169165000D03*
X181142500Y-167895000D03*
%TD*%
D16*
%TO.C,TP9*%
X113863500Y-115734500D03*
%TD*%
D12*
%TO.C,D108*%
X209300000Y-162288736D03*
X206000000Y-162288736D03*
%TD*%
D35*
%TO.C,D13*%
X111260500Y-88984500D03*
D36*
X108720500Y-88984500D03*
X106180500Y-88984500D03*
%TD*%
D22*
%TO.C,R222*%
X208522000Y-116450736D03*
X206872000Y-116450736D03*
%TD*%
D23*
%TO.C,R99*%
X135825000Y-134200000D03*
X137475000Y-134200000D03*
%TD*%
D11*
%TO.C,R309*%
X245096505Y-64825000D03*
X245096505Y-63175000D03*
%TD*%
D17*
%TO.C,RV19*%
X135800000Y-240700000D03*
D18*
X134650000Y-246200000D03*
D17*
X133500000Y-240700000D03*
%TD*%
D29*
%TO.C,SW27*%
X196347000Y-110700736D03*
X193847000Y-110700736D03*
X191347000Y-110700736D03*
%TD*%
D10*
%TO.C,CU88*%
X204714000Y-174288736D03*
X203164000Y-174288736D03*
%TD*%
D13*
%TO.C,D26*%
X118850000Y-249979264D03*
X122150000Y-249979264D03*
%TD*%
D11*
%TO.C,R253*%
X226150000Y-176425736D03*
X226150000Y-174775736D03*
%TD*%
D23*
%TO.C,R59*%
X120522000Y-83729264D03*
X122172000Y-83729264D03*
%TD*%
D12*
%TO.C,D15*%
X113813500Y-245984500D03*
X110513500Y-245984500D03*
%TD*%
D10*
%TO.C,CU60*%
X151122000Y-237068750D03*
X149572000Y-237068750D03*
%TD*%
D28*
%TO.C,C27*%
X118921505Y-66729264D03*
X120471505Y-66729264D03*
%TD*%
D32*
%TO.C,SW74*%
X196246999Y-80150736D03*
X196246999Y-75450736D03*
X196246999Y-70750736D03*
X191446999Y-80250736D03*
X191446999Y-75450736D03*
X191446999Y-70750736D03*
%TD*%
D23*
%TO.C,R23*%
X98172450Y-240965278D03*
X99822450Y-240965278D03*
%TD*%
D21*
%TO.C,R330*%
X256238500Y-278259500D03*
X256238500Y-279909500D03*
%TD*%
D40*
%TO.C,J17*%
X110110005Y-50297500D03*
D41*
X107610005Y-50297500D03*
X105110005Y-50297500D03*
%TD*%
D49*
%TO.C,D147*%
X77200000Y-274587500D03*
X77200000Y-273012500D03*
%TD*%
D34*
%TO.C,C7*%
X99313500Y-184909500D03*
X99313500Y-183359500D03*
%TD*%
D24*
%TO.C,U13*%
X106826000Y-145129500D03*
X106826000Y-146399500D03*
X106826000Y-147669500D03*
X106826000Y-148939500D03*
X111901000Y-148939500D03*
X111901000Y-147669500D03*
X111901000Y-146399500D03*
X111901000Y-145129500D03*
%TD*%
D22*
%TO.C,R18*%
X91114486Y-233484500D03*
X89464486Y-233484500D03*
%TD*%
D44*
%TO.C,RV5*%
X90813500Y-200372500D03*
X99613500Y-200372500D03*
D36*
X97713500Y-207372500D03*
X95213500Y-207372500D03*
X92713500Y-207372500D03*
%TD*%
D17*
%TO.C,RV11*%
X107313500Y-177972500D03*
D18*
X106163500Y-183472500D03*
D17*
X105013500Y-177972500D03*
%TD*%
D23*
%TO.C,R81*%
X139172000Y-85700000D03*
X140822000Y-85700000D03*
%TD*%
D32*
%TO.C,SW5*%
X106860500Y-291307000D03*
X106860500Y-296007000D03*
X106860500Y-300707000D03*
X111660500Y-291207000D03*
X111660500Y-296007000D03*
X111660500Y-300707000D03*
%TD*%
D11*
%TO.C,R74*%
X127450000Y-180854264D03*
X127450000Y-179204264D03*
%TD*%
%TO.C,R226*%
X212350000Y-190525736D03*
X212350000Y-188875736D03*
%TD*%
D10*
%TO.C,CU38*%
X134264000Y-174288000D03*
X132714000Y-174288000D03*
%TD*%
D17*
%TO.C,RV47*%
X191900000Y-177938736D03*
D18*
X190750000Y-183438736D03*
D17*
X189600000Y-177938736D03*
%TD*%
D16*
%TO.C,TP57*%
X191847000Y-255950736D03*
%TD*%
D33*
%TO.C,TP91*%
X264390000Y-382936000D03*
%TD*%
D48*
%TO.C,FB24*%
X246978000Y-281127500D03*
X246978000Y-283027500D03*
%TD*%
D12*
%TO.C,D57*%
X169000000Y-137200736D03*
X165700000Y-137200736D03*
%TD*%
D29*
%TO.C,SW7*%
X110863500Y-189734500D03*
X108363500Y-189734500D03*
X105863500Y-189734500D03*
%TD*%
D16*
%TO.C,TP103*%
X110256681Y-185334500D03*
%TD*%
D12*
%TO.C,D66*%
X157400000Y-121700736D03*
X154100000Y-121700736D03*
%TD*%
D26*
%TO.C,RV56*%
X216700000Y-60450736D03*
D27*
X217850000Y-54950736D03*
D26*
X219000000Y-60450736D03*
%TD*%
D51*
%TO.C,RV2*%
X90210500Y-120334500D03*
D52*
X95710500Y-121484500D03*
D51*
X90210500Y-122634500D03*
%TD*%
D14*
%TO.C,J63*%
X175294173Y-386519529D03*
X180294173Y-386519529D03*
X180294173Y-379419529D03*
X175294173Y-379519529D03*
%TD*%
D23*
%TO.C,R185*%
X195521999Y-85700736D03*
X197171999Y-85700736D03*
%TD*%
D44*
%TO.C,RV46*%
X189450000Y-200338736D03*
X198250000Y-200338736D03*
D36*
X196350000Y-207338736D03*
X193850000Y-207338736D03*
X191350000Y-207338736D03*
%TD*%
D28*
%TO.C,C57*%
X189421504Y-66700736D03*
X190971504Y-66700736D03*
%TD*%
D50*
%TO.C,C94*%
X122489000Y-277773250D03*
X122489000Y-275873250D03*
%TD*%
D34*
%TO.C,C47*%
X148696505Y-64725736D03*
X148696505Y-63175736D03*
%TD*%
D10*
%TO.C,CU66*%
X178375000Y-151488736D03*
X176825000Y-151488736D03*
%TD*%
D23*
%TO.C,R262*%
X217334000Y-165488736D03*
X218984000Y-165488736D03*
%TD*%
D10*
%TO.C,CU17*%
X110538500Y-165522500D03*
X108988500Y-165522500D03*
%TD*%
D32*
%TO.C,SW54*%
X153997000Y-80150736D03*
X153997000Y-75450736D03*
X153997000Y-70750736D03*
X149197000Y-80250736D03*
X149197000Y-75450736D03*
X149197000Y-70750736D03*
%TD*%
D40*
%TO.C,J26*%
X166546505Y-50263736D03*
D41*
X164046505Y-50263736D03*
X161546505Y-50263736D03*
%TD*%
D14*
%TO.C,J13*%
X109113500Y-367734500D03*
X114113500Y-374734500D03*
X109113500Y-374734500D03*
X114113500Y-367634500D03*
%TD*%
D11*
%TO.C,R126*%
X169800000Y-180825736D03*
X169800000Y-179175736D03*
%TD*%
D16*
%TO.C,TP1*%
X96313500Y-180322500D03*
%TD*%
D15*
%TO.C,C112*%
X191247173Y-272294529D03*
X191247173Y-273844529D03*
%TD*%
D14*
%TO.C,J51*%
X142339000Y-374748250D03*
X137339000Y-367748250D03*
X142339000Y-367648250D03*
X137339000Y-374748250D03*
%TD*%
D25*
%TO.C,U27*%
X160378000Y-278855500D03*
X160378000Y-277585500D03*
X160378000Y-276315500D03*
X160378000Y-275045500D03*
X160378000Y-273775500D03*
X160378000Y-272505500D03*
X160378000Y-271235500D03*
X160378000Y-269965500D03*
X155378000Y-269965500D03*
X155378000Y-271235500D03*
X155378000Y-272505500D03*
X155378000Y-273775500D03*
X155378000Y-275045500D03*
X155378000Y-276315500D03*
X155378000Y-277585500D03*
X155378000Y-278855500D03*
%TD*%
D44*
%TO.C,RV28*%
X170100000Y-200338736D03*
X161300000Y-200338736D03*
D36*
X168200000Y-207338736D03*
X165700000Y-207338736D03*
X163200000Y-207338736D03*
%TD*%
D42*
%TO.C,DNP7*%
X194044173Y-306829529D03*
D43*
X194044173Y-362709529D03*
%TD*%
D17*
%TO.C,RV7*%
X107563500Y-240734500D03*
D18*
X106413500Y-246234500D03*
D17*
X105263500Y-240734500D03*
%TD*%
D48*
%TO.C,FB5*%
X123214000Y-281098250D03*
X123214000Y-282998250D03*
%TD*%
D34*
%TO.C,C64*%
X212050000Y-184875736D03*
X212050000Y-183325736D03*
%TD*%
%TO.C,C41*%
X162796505Y-64725736D03*
X162796505Y-63175736D03*
%TD*%
D28*
%TO.C,C39*%
X161271505Y-66700736D03*
X162821505Y-66700736D03*
%TD*%
%TO.C,C67*%
X223347807Y-243323547D03*
X224897807Y-243323547D03*
%TD*%
D10*
%TO.C,CU104*%
X232661500Y-133516236D03*
X231111500Y-133516236D03*
%TD*%
D24*
%TO.C,U74*%
X190162500Y-167929736D03*
X190162500Y-169199736D03*
X190162500Y-170469736D03*
X190162500Y-171739736D03*
X195237500Y-171739736D03*
X195237500Y-170469736D03*
X195237500Y-169199736D03*
X195237500Y-167929736D03*
%TD*%
D16*
%TO.C,TP46*%
X180900000Y-180288736D03*
%TD*%
D23*
%TO.C,R56*%
X125022000Y-85729264D03*
X126672000Y-85729264D03*
%TD*%
%TO.C,R203*%
X192175000Y-134200736D03*
X193825000Y-134200736D03*
%TD*%
D10*
%TO.C,CU78*%
X190614000Y-174288736D03*
X189064000Y-174288736D03*
%TD*%
D16*
%TO.C,TP17*%
X128728991Y-49922507D03*
%TD*%
%TO.C,TP83*%
X254050000Y-157650000D03*
%TD*%
D22*
%TO.C,R58*%
X126672000Y-83729264D03*
X125022000Y-83729264D03*
%TD*%
D30*
%TO.C,J36*%
X193798500Y-223768736D03*
D31*
X193798500Y-212368736D03*
X193798500Y-220668736D03*
%TD*%
D23*
%TO.C,R240*%
X219222000Y-83700736D03*
X220872000Y-83700736D03*
%TD*%
D10*
%TO.C,CU26*%
X121925000Y-151517264D03*
X120375000Y-151517264D03*
%TD*%
D23*
%TO.C,R64*%
X122100986Y-228597278D03*
X123750986Y-228597278D03*
%TD*%
D34*
%TO.C,C53*%
X176896505Y-64725736D03*
X176896505Y-63175736D03*
%TD*%
%TO.C,C35*%
X134596505Y-64725000D03*
X134596505Y-63175000D03*
%TD*%
D10*
%TO.C,CU84*%
X204461500Y-133466236D03*
X202911500Y-133466236D03*
%TD*%
D16*
%TO.C,TP60*%
X209050000Y-180288736D03*
%TD*%
D48*
%TO.C,FB14*%
X182469173Y-281119529D03*
X182469173Y-283019529D03*
%TD*%
%TO.C,FB16*%
X190669173Y-281119529D03*
X190669173Y-283019529D03*
%TD*%
D28*
%TO.C,C36*%
X141152505Y-65450000D03*
X142702505Y-65450000D03*
%TD*%
D23*
%TO.C,R167*%
X178550986Y-228568750D03*
X180200986Y-228568750D03*
%TD*%
D34*
%TO.C,C71*%
X219146505Y-64725736D03*
X219146505Y-63175736D03*
%TD*%
D22*
%TO.C,R176*%
X181302505Y-56450736D03*
X179652505Y-56450736D03*
%TD*%
D39*
%TO.C,SW16*%
X140497000Y-254200000D03*
X140497000Y-256700000D03*
X140497000Y-259200000D03*
%TD*%
D13*
%TO.C,D16*%
X110513500Y-249984500D03*
X113813500Y-249984500D03*
%TD*%
D16*
%TO.C,TP62*%
X211750000Y-157600736D03*
%TD*%
D13*
%TO.C,D91*%
X196350000Y-124450736D03*
X199650000Y-124450736D03*
%TD*%
D11*
%TO.C,R178*%
X183900000Y-180825736D03*
X183900000Y-179175736D03*
%TD*%
D29*
%TO.C,SW1*%
X111760500Y-110734500D03*
X109260500Y-110734500D03*
X106760500Y-110734500D03*
%TD*%
D17*
%TO.C,RV55*%
X220350000Y-240700736D03*
D18*
X219200000Y-246200736D03*
D17*
X218050000Y-240700736D03*
%TD*%
D15*
%TO.C,C74*%
X241596505Y-41738736D03*
X241596505Y-43288736D03*
%TD*%
D16*
%TO.C,TP77*%
X234147000Y-259500736D03*
%TD*%
D45*
%TO.C,RV24*%
X138497000Y-157438000D03*
D46*
X132997000Y-156288000D03*
D45*
X138497000Y-155138000D03*
%TD*%
D23*
%TO.C,R86*%
X133000986Y-228568014D03*
X134650986Y-228568014D03*
%TD*%
D35*
%TO.C,D133*%
X252247000Y-89000000D03*
D36*
X249707000Y-89000000D03*
X247167000Y-89000000D03*
%TD*%
D28*
%TO.C,C75*%
X231721505Y-66750736D03*
X233271505Y-66750736D03*
%TD*%
D26*
%TO.C,RV1*%
X89863500Y-60484500D03*
D27*
X91013500Y-54984500D03*
D26*
X92163500Y-60484500D03*
%TD*%
D48*
%TO.C,FB21*%
X235978000Y-281127500D03*
X235978000Y-283027500D03*
%TD*%
D42*
%TO.C,DNP11*%
X250353000Y-306837500D03*
D43*
X250353000Y-362717500D03*
%TD*%
D14*
%TO.C,J12*%
X104613500Y-386484500D03*
X109613500Y-386484500D03*
X104613500Y-379484500D03*
X109613500Y-379384500D03*
%TD*%
D32*
%TO.C,SW205*%
X163250000Y-291350000D03*
X163250000Y-296050000D03*
X163250000Y-300750000D03*
X168050000Y-291250000D03*
X168050000Y-296050000D03*
X168050000Y-300750000D03*
%TD*%
D22*
%TO.C,R161*%
X183122000Y-83700736D03*
X181472000Y-83700736D03*
%TD*%
D32*
%TO.C,SW406*%
X205553000Y-291327500D03*
X205553000Y-296027500D03*
X205553000Y-300727500D03*
X210353000Y-291227500D03*
X210353000Y-296027500D03*
X210353000Y-300727500D03*
%TD*%
D23*
%TO.C,R25*%
X96885500Y-85734500D03*
X98535500Y-85734500D03*
%TD*%
D30*
%TO.C,J30*%
X151548500Y-223768736D03*
D31*
X151548500Y-212368736D03*
X151548500Y-220668736D03*
%TD*%
D10*
%TO.C,CU39*%
X141522000Y-228568014D03*
X139972000Y-228568014D03*
%TD*%
D12*
%TO.C,D129*%
X239450000Y-137250736D03*
X236150000Y-137250736D03*
%TD*%
D44*
%TO.C,RV10*%
X113663500Y-200372500D03*
X104863500Y-200372500D03*
D36*
X111763500Y-207372500D03*
X109263500Y-207372500D03*
X106763500Y-207372500D03*
%TD*%
D22*
%TO.C,R194*%
X189750986Y-233450736D03*
X188100986Y-233450736D03*
%TD*%
D11*
%TO.C,R49*%
X113363500Y-180859500D03*
X113363500Y-179209500D03*
%TD*%
D23*
%TO.C,R188*%
X191021999Y-83700736D03*
X192671999Y-83700736D03*
%TD*%
D16*
%TO.C,TP42*%
X149597000Y-259450736D03*
%TD*%
D12*
%TO.C,D72*%
X152950000Y-162288736D03*
X149650000Y-162288736D03*
%TD*%
D13*
%TO.C,D1*%
X97713500Y-118984500D03*
X101013500Y-118984500D03*
%TD*%
%TO.C,D139*%
X252750000Y-124500000D03*
X256050000Y-124500000D03*
%TD*%
D23*
%TO.C,R234*%
X210025000Y-152500736D03*
X211675000Y-152500736D03*
%TD*%
D42*
%TO.C,DNP5*%
X165753000Y-306837500D03*
D43*
X165753000Y-362717500D03*
%TD*%
D22*
%TO.C,R108*%
X164522000Y-85700736D03*
X162872000Y-85700736D03*
%TD*%
D51*
%TO.C,RV39*%
X174797000Y-120300736D03*
D52*
X180297000Y-121450736D03*
D51*
X174797000Y-122600736D03*
%TD*%
D11*
%TO.C,R332*%
X77500000Y-235725000D03*
X77500000Y-234075000D03*
%TD*%
D13*
%TO.C,D115*%
X224550000Y-124450736D03*
X227850000Y-124450736D03*
%TD*%
%TO.C,D41*%
X140000000Y-118950000D03*
X143300000Y-118950000D03*
%TD*%
D32*
%TO.C,SW4*%
X97610500Y-80184500D03*
X97610500Y-75484500D03*
X97610500Y-70784500D03*
X92810500Y-80284500D03*
X92810500Y-75484500D03*
X92810500Y-70784500D03*
%TD*%
D10*
%TO.C,CU83*%
X208662500Y-125355736D03*
X207112500Y-125355736D03*
%TD*%
D22*
%TO.C,R235*%
X209275000Y-174288736D03*
X207625000Y-174288736D03*
%TD*%
D13*
%TO.C,D52*%
X166950000Y-249950736D03*
X170250000Y-249950736D03*
%TD*%
D28*
%TO.C,C72*%
X225702505Y-65450736D03*
X227252505Y-65450736D03*
%TD*%
D40*
%TO.C,J3*%
X96060005Y-50297500D03*
D41*
X93560005Y-50297500D03*
X91060005Y-50297500D03*
%TD*%
D11*
%TO.C,R175*%
X183900000Y-176425736D03*
X183900000Y-174775736D03*
%TD*%
D23*
%TO.C,R329*%
X239353000Y-267577500D03*
X241003000Y-267577500D03*
%TD*%
D16*
%TO.C,TP41*%
X155400000Y-157600736D03*
%TD*%
D28*
%TO.C,C37*%
X166997807Y-243323547D03*
X168547807Y-243323547D03*
%TD*%
D22*
%TO.C,R65*%
X119250986Y-233479264D03*
X117600986Y-233479264D03*
%TD*%
D23*
%TO.C,R62*%
X126308950Y-240960042D03*
X127958950Y-240960042D03*
%TD*%
D11*
%TO.C,R251*%
X224950000Y-130275736D03*
X224950000Y-128625736D03*
%TD*%
D10*
%TO.C,CU110*%
X235672000Y-237118750D03*
X234122000Y-237118750D03*
%TD*%
D23*
%TO.C,R61*%
X118850986Y-228597278D03*
X120500986Y-228597278D03*
%TD*%
D12*
%TO.C,D104*%
X206250000Y-137200736D03*
X202950000Y-137200736D03*
%TD*%
D23*
%TO.C,R266*%
X233322000Y-83750736D03*
X234972000Y-83750736D03*
%TD*%
D24*
%TO.C,U85*%
X206409500Y-230913750D03*
X206409500Y-232183750D03*
X206409500Y-233453750D03*
X206409500Y-234723750D03*
X211484500Y-234723750D03*
X211484500Y-233453750D03*
X211484500Y-232183750D03*
X211484500Y-230913750D03*
%TD*%
D29*
%TO.C,SW38*%
X237750000Y-189750736D03*
X235250000Y-189750736D03*
X232750000Y-189750736D03*
%TD*%
D12*
%TO.C,D42*%
X143300000Y-121700000D03*
X140000000Y-121700000D03*
%TD*%
%TO.C,D102*%
X213750000Y-121700736D03*
X210450000Y-121700736D03*
%TD*%
D22*
%TO.C,R215*%
X205022000Y-252450736D03*
X203372000Y-252450736D03*
%TD*%
D13*
%TO.C,D55*%
X168200000Y-124450736D03*
X171500000Y-124450736D03*
%TD*%
D12*
%TO.C,D45*%
X140800000Y-137200000D03*
X137500000Y-137200000D03*
%TD*%
D23*
%TO.C,R78*%
X125425000Y-152529264D03*
X127075000Y-152529264D03*
%TD*%
D34*
%TO.C,C46*%
X155700000Y-184875736D03*
X155700000Y-183325736D03*
%TD*%
D16*
%TO.C,TP2*%
X99955227Y-88290788D03*
%TD*%
D10*
%TO.C,CU77*%
X195125000Y-165488736D03*
X193575000Y-165488736D03*
%TD*%
D34*
%TO.C,C119*%
X191169173Y-277277529D03*
X191169173Y-275727529D03*
%TD*%
D15*
%TO.C,C44*%
X157046505Y-41688736D03*
X157046505Y-43238736D03*
%TD*%
D29*
%TO.C,SW30*%
X210447000Y-110700736D03*
X207947000Y-110700736D03*
X205447000Y-110700736D03*
%TD*%
D23*
%TO.C,R88*%
X131750986Y-235700000D03*
X133400986Y-235700000D03*
%TD*%
M02*
