M48
; DRILL file {KiCad (6.0.7-1)-1} date Thursday, April 18, 2024 at 03:27:56 AM
; FORMAT={-:-/ absolute / inch / decimal}
; #@! TF.CreationDate,2024-04-18T03:27:56-04:00
; #@! TF.GenerationSoftware,Kicad,Pcbnew,(6.0.7-1)-1
; #@! TF.FileFunction,Plated,1,2,PTH
FMAT,2
INCH
; #@! TA.AperFunction,Plated,PTH,ViaDrill
T1C0.0157
; #@! TA.AperFunction,Plated,PTH,ComponentDrill
T2C0.0236
; #@! TA.AperFunction,Plated,PTH,ComponentDrill
T3C0.0354
; #@! TA.AperFunction,Plated,PTH,ComponentDrill
T4C0.0374
; #@! TA.AperFunction,Plated,PTH,ComponentDrill
T5C0.0394
; #@! TA.AperFunction,Plated,PTH,ComponentDrill
T6C0.0472
; #@! TA.AperFunction,Plated,PTH,ComponentDrill
T7C0.0492
; #@! TA.AperFunction,Plated,PTH,ComponentDrill
T8C0.0728
; #@! TA.AperFunction,Plated,PTH,ComponentDrill
T9C0.1693
%
G90
G05
T1
X3.1024Y-10.9449
X3.4267Y-8.9561
X3.4779Y-8.8577
X3.4779Y-8.897
X3.5133Y-8.775
X3.5219Y-9.3392
X3.5232Y-10.8655
X3.5236Y-6.714
X3.5236Y-8.8583
X3.5236Y-8.8976
X3.5251Y-10.7159
X3.5251Y-10.7691
X3.5251Y-10.8183
X3.5334Y-4.9004
X3.5576Y-9.4187
X3.563Y-5.5984
X3.563Y-11.2317
X3.5724Y-10.771
X3.5728Y-10.8169
X3.5728Y-10.8661
X3.5744Y-10.7159
X3.5827Y-2.3071
X3.5827Y-8.374
X3.5832Y-2.437
X3.5984Y-5.9134
X3.6186Y-6.8158
X3.6319Y-8.8583
X3.6319Y-8.8976
X3.6472Y-5.2277
X3.6482Y-10.4108
X3.6678Y-4.9305
X3.6747Y-8.8577
X3.6747Y-8.897
X3.6954Y-9.9108
X3.7053Y-4.7829
X3.7131Y-10.9984
X3.7205Y-5.6102
X3.7205Y-5.6772
X3.7205Y-10.7972
X3.7368Y-6.4615
X3.7525Y-5.9305
X3.7682Y-6.025
X3.7697Y-10.7677
X3.778Y-9.3347
X3.7894Y-2.0472
X3.7894Y-2.0866
X3.7914Y-10.9704
X3.7938Y-5.2258
X3.8047Y-9.0388
X3.811Y-5.5591
X3.8189Y-10.7382
X3.8287Y-2.0472
X3.8292Y-2.0866
X3.8409Y-2.5781
X3.8588Y-7.2455
X3.8667Y-4.9895
X3.8667Y-5.1903
X3.8824Y-4.273
X3.9031Y-8.8577
X3.9031Y-8.897
X3.9098Y-2.273
X3.91Y-7.0014
X3.91Y-7.1667
X3.9139Y-4.2415
X3.9252Y-2.0472
X3.9252Y-2.0866
X3.9425Y-11.3537
X3.9469Y-8.8583
X3.9469Y-8.8976
X3.95Y-2.5263
X3.9543Y-11.1411
X3.9646Y-2.0472
X3.965Y-2.0866
X4.0015Y-10.5703
X4.0035Y-10.5329
X4.0751Y-9.3392
X4.0865Y-4.9004
X4.0891Y-6.712
X4.1043Y-4.2323
X4.1043Y-4.2717
X4.1102Y-8.3819
X4.1108Y-9.4187
X4.1339Y-5.6024
X4.1339Y-8.8583
X4.1339Y-8.8976
X4.1364Y-2.3085
X4.1364Y-2.4213
X4.1496Y-5.9134
X4.1629Y-5.3026
X4.1718Y-6.8158
X4.1787Y-8.8577
X4.1787Y-8.897
X4.221Y-4.9305
X4.2387Y-9.9403
X4.2495Y-10.6608
X4.2584Y-4.7829
X4.2742Y-5.6746
X4.2743Y-10.9767
X4.2756Y-5.6116
X4.2889Y-11.1647
X4.2899Y-6.4615
X4.2968Y-5.9167
X4.2988Y-10.7199
X4.2988Y-10.7691
X4.3244Y-6.0348
X4.3311Y-9.3347
X4.3381Y-10.6903
X4.3381Y-10.7395
X4.3381Y-10.7888
X4.3406Y-2.0472
X4.3406Y-2.0866
X4.347Y-5.2258
X4.3558Y-9.0388
X4.3661Y-5.5591
X4.3799Y-2.0472
X4.3803Y-2.0866
X4.3885Y-10.4542
X4.3941Y-2.5781
X4.4041Y-4.271
X4.4119Y-7.2455
X4.4198Y-4.9895
X4.4198Y-5.1903
X4.4317Y-4.2317
X4.4582Y-8.8616
X4.4582Y-8.901
X4.463Y-2.273
X4.4631Y-7.0014
X4.4631Y-7.1667
X4.474Y-2.0466
X4.474Y-2.086
X4.4976Y-8.8616
X4.4976Y-8.901
X4.5031Y-2.5263
X4.5133Y-2.0466
X4.5137Y-2.086
X4.6297Y-9.339
X4.6411Y-4.9002
X4.6437Y-6.7118
X4.6589Y-4.2321
X4.6589Y-4.2714
X4.6654Y-9.4185
X4.6663Y-8.3769
X4.6742Y-11.2322
X4.6826Y-10.7159
X4.6841Y-10.7683
X4.6841Y-10.8175
X4.6841Y-10.8667
X4.6884Y-8.8581
X4.6884Y-8.8974
X4.6909Y-2.3031
X4.6909Y-2.4291
X4.6928Y-5.6005
X4.7008Y-5.9094
X4.7203Y-5.3024
X4.7264Y-6.8156
X4.7299Y-8.8577
X4.7299Y-8.897
X4.7333Y-10.8273
X4.7333Y-10.8667
X4.7594Y-10.4113
X4.7756Y-4.9303
X4.7933Y-9.9401
X4.813Y-4.7826
X4.8244Y-10.9989
X4.8287Y-5.6102
X4.8307Y-5.6772
X4.8317Y-10.7978
X4.8445Y-6.4613
X4.8602Y-5.9303
X4.876Y-6.0248
X4.8809Y-10.7683
X4.8857Y-9.3345
X4.8951Y-2.047
X4.8951Y-2.0864
X4.9016Y-5.2256
X4.9027Y-10.971
X4.9149Y-9.0388
X4.9173Y-5.563
X4.9301Y-10.7387
X4.9345Y-2.047
X4.9349Y-2.0864
X4.9487Y-2.5779
X4.9587Y-4.2708
X4.9665Y-7.2452
X4.9744Y-4.9893
X4.9744Y-5.1901
X4.9862Y-4.2315
X5.0154Y-8.8612
X5.0154Y-8.9006
X5.0176Y-2.2728
X5.0177Y-7.0012
X5.0177Y-7.1665
X5.035Y-2.0472
X5.035Y-2.0866
X5.0547Y-8.8612
X5.0547Y-8.9006
X5.0577Y-2.5261
X5.0606Y-11.3498
X5.0645Y-11.1451
X5.0744Y-2.0472
X5.0748Y-2.0866
X5.1049Y-10.6712
X5.1147Y-10.5334
X5.1868Y-9.3378
X5.1982Y-4.899
X5.2008Y-6.7106
X5.216Y-4.2309
X5.216Y-4.2703
X5.2205Y-8.3701
X5.2224Y-9.4173
X5.2441Y-5.5945
X5.2455Y-8.8569
X5.2455Y-8.8963
X5.248Y-2.2992
X5.248Y-2.4213
X5.2598Y-5.9055
X5.2771Y-5.3012
X5.2835Y-6.8145
X5.285Y-8.8577
X5.285Y-8.897
X5.3327Y-4.9291
X5.3504Y-9.939
X5.3608Y-10.6613
X5.3701Y-4.7815
X5.3855Y-10.9772
X5.3858Y-5.6102
X5.3858Y-5.6811
X5.3992Y-11.1608
X5.4016Y-6.4602
X5.41Y-10.7204
X5.41Y-10.7696
X5.4173Y-5.9291
X5.4331Y-6.0236
X5.4428Y-9.3334
X5.4494Y-10.6909
X5.4494Y-10.7401
X5.4494Y-10.7893
X5.4522Y-2.0459
X5.4522Y-2.0853
X5.4587Y-5.2244
X5.47Y-9.0388
X5.4764Y-5.5551
X5.4916Y-2.0459
X5.492Y-2.0853
X5.4997Y-10.4548
X5.5058Y-2.5768
X5.5157Y-4.2697
X5.5236Y-7.2441
X5.5315Y-4.9882
X5.5315Y-5.189
X5.5433Y-4.2303
X5.5705Y-8.8612
X5.5705Y-8.9006
X5.5747Y-2.2717
X5.5748Y-7.0
X5.5748Y-7.1654
X5.5866Y-2.0459
X5.5866Y-2.0853
X5.6099Y-8.8612
X5.6099Y-8.9006
X5.6148Y-2.5249
X5.626Y-2.0459
X5.6264Y-2.0853
X5.7419Y-9.3379
X5.753Y-8.3612
X5.7533Y-4.899
X5.7559Y-6.7107
X5.7711Y-4.231
X5.7711Y-4.2703
X5.7776Y-9.4174
X5.7831Y-11.2334
X5.7909Y-10.7159
X5.7929Y-10.7694
X5.7929Y-10.8186
X5.7929Y-10.8678
X5.8006Y-8.8569
X5.8006Y-8.8963
X5.8031Y-2.3071
X5.8031Y-2.4252
X5.8031Y-5.5945
X5.815Y-5.9055
X5.8328Y-5.3012
X5.8386Y-6.8145
X5.8401Y-8.8577
X5.8401Y-8.897
X5.8421Y-10.8285
X5.8421Y-10.8678
X5.8682Y-10.4125
X5.8878Y-4.9292
X5.9055Y-9.939
X5.9252Y-4.7815
X5.9332Y-11.0001
X5.9405Y-10.7989
X5.9409Y-5.6102
X5.9409Y-5.6772
X5.9567Y-6.4602
X5.9724Y-5.9292
X5.9882Y-6.0237
X5.9897Y-10.7694
X5.9979Y-9.3334
X6.0073Y-2.0459
X6.0073Y-2.0853
X6.0115Y-10.9721
X6.0138Y-5.2244
X6.0251Y-9.0388
X6.0315Y-5.5669
X6.039Y-10.7399
X6.0467Y-2.0459
X6.0471Y-2.0853
X6.0609Y-2.5768
X6.0709Y-4.2697
X6.0787Y-7.2441
X6.0866Y-4.9882
X6.0866Y-5.189
X6.0984Y-4.2303
X6.1256Y-8.8612
X6.1256Y-8.9006
X6.1298Y-2.2717
X6.1299Y-7.0
X6.1299Y-7.1654
X6.1457Y-2.0459
X6.1457Y-2.0853
X6.165Y-8.8612
X6.165Y-8.9006
X6.1699Y-2.5249
X6.1708Y-11.3537
X6.1747Y-11.1529
X6.185Y-2.0459
X6.1855Y-2.0853
X6.2137Y-10.6723
X6.2235Y-10.5345
X6.297Y-9.3379
X6.3085Y-4.899
X6.311Y-6.7107
X6.311Y-8.374
X6.3262Y-4.231
X6.3262Y-4.2703
X6.3327Y-9.4174
X6.3558Y-8.8569
X6.3558Y-8.8963
X6.3583Y-2.2992
X6.3583Y-2.4252
X6.3583Y-5.6024
X6.3701Y-5.9094
X6.3873Y-5.3012
X6.3937Y-6.8145
X6.3952Y-8.8577
X6.3952Y-8.897
X6.4429Y-4.9292
X6.4606Y-9.939
X6.4696Y-10.6625
X6.4803Y-4.7815
X6.4943Y-10.9784
X6.4961Y-5.6102
X6.4961Y-5.6772
X6.5094Y-11.1687
X6.5118Y-6.4602
X6.5188Y-10.7216
X6.5188Y-10.7708
X6.5276Y-5.9292
X6.5433Y-6.0237
X6.553Y-9.3334
X6.5582Y-10.692
X6.5582Y-10.7412
X6.5582Y-10.7905
X6.5625Y-2.0459
X6.5625Y-2.0853
X6.5689Y-5.2244
X6.5803Y-9.0388
X6.5866Y-5.563
X6.6018Y-2.0459
X6.6022Y-2.0853
X6.6085Y-10.4559
X6.616Y-2.5768
X6.626Y-4.2697
X6.6339Y-7.2441
X6.6417Y-4.9882
X6.6417Y-5.189
X6.6536Y-4.2303
X6.6807Y-8.8612
X6.6807Y-8.9006
X6.6849Y-2.2717
X6.685Y-7.0
X6.685Y-7.1654
X6.6969Y-2.0459
X6.6969Y-2.0853
X6.7201Y-8.8612
X6.7201Y-8.9006
X6.725Y-2.5249
X6.7362Y-2.0459
X6.7366Y-2.0853
X6.8521Y-9.3379
X6.8636Y-4.899
X6.8661Y-6.7107
X6.874Y-8.3661
X6.8814Y-4.231
X6.8814Y-4.2703
X6.8878Y-9.4174
X6.8969Y-11.2331
X6.9051Y-10.7179
X6.9067Y-10.7691
X6.907Y-10.8163
X6.909Y-10.8655
X6.9109Y-8.8569
X6.9109Y-8.8963
X6.9134Y-2.3031
X6.9134Y-2.4252
X6.9291Y-5.9055
X6.9331Y-5.6024
X6.9425Y-5.3012
X6.9503Y-8.8577
X6.9503Y-8.897
X6.9528Y-6.811
X6.9562Y-10.8222
X6.9582Y-10.8655
X6.9821Y-10.4122
X6.998Y-4.9292
X7.0157Y-9.939
X7.0354Y-4.7815
X7.047Y-10.9998
X7.0512Y-5.6024
X7.0512Y-5.6772
X7.0544Y-10.7986
X7.0669Y-6.4602
X7.0827Y-5.9292
X7.0984Y-6.0237
X7.1036Y-10.7691
X7.1081Y-9.3334
X7.1176Y-2.0459
X7.1176Y-2.0853
X7.124Y-5.2244
X7.1253Y-10.9718
X7.1354Y-9.0388
X7.1417Y-5.563
X7.1528Y-10.7396
X7.1569Y-2.0459
X7.1574Y-2.0853
X7.1711Y-2.5768
X7.1811Y-4.2697
X7.189Y-7.2441
X7.1969Y-4.9882
X7.1969Y-5.189
X7.2087Y-4.2303
X7.2319Y-8.8612
X7.2319Y-8.9006
X7.24Y-2.2717
X7.2402Y-7.0
X7.2402Y-7.1654
X7.2495Y-11.3537
X7.2559Y-2.0459
X7.2559Y-2.0853
X7.2713Y-8.8612
X7.2713Y-8.9006
X7.2802Y-2.5249
X7.2953Y-2.0459
X7.2957Y-2.0853
X7.3007Y-11.1529
X7.3275Y-10.672
X7.3374Y-10.5342
X7.4053Y-9.3379
X7.4167Y-4.899
X7.4193Y-6.7107
X7.4291Y-8.374
X7.4345Y-4.231
X7.4345Y-4.2703
X7.4409Y-9.4174
X7.464Y-8.8569
X7.464Y-8.8963
X7.4665Y-2.2992
X7.4665Y-2.4252
X7.4727Y-5.6015
X7.4803Y-5.9094
X7.4936Y-5.2986
X7.5015Y-8.8577
X7.5015Y-8.897
X7.502Y-6.8145
X7.5512Y-4.9292
X7.5689Y-9.939
X7.5834Y-10.6622
X7.5886Y-4.7815
X7.6024Y-5.6102
X7.6043Y-5.6772
X7.6082Y-10.9781
X7.6201Y-6.4602
X7.6275Y-11.1647
X7.6326Y-10.7212
X7.6326Y-10.7705
X7.6358Y-5.9292
X7.6516Y-6.0237
X7.6613Y-9.3334
X7.6707Y-2.0459
X7.6707Y-2.0853
X7.672Y-10.6917
X7.672Y-10.7409
X7.672Y-10.7901
X7.6772Y-5.2244
X7.6905Y-9.0388
X7.6929Y-5.563
X7.7101Y-2.0459
X7.7105Y-2.0853
X7.7223Y-10.4556
X7.7243Y-2.5768
X7.7343Y-4.2697
X7.7421Y-7.2441
X7.75Y-4.9882
X7.75Y-5.189
X7.7618Y-4.2303
X7.791Y-8.8612
X7.791Y-8.9006
X7.7932Y-2.2717
X7.7933Y-7.0
X7.7933Y-7.1654
X7.8071Y-2.0459
X7.8071Y-2.0853
X7.8303Y-8.8612
X7.8303Y-8.9006
X7.8333Y-2.5249
X7.8465Y-2.0459
X7.8469Y-2.0853
X7.9604Y-9.3379
X7.9718Y-4.899
X7.974Y-8.3726
X7.9744Y-6.7107
X7.9896Y-4.231
X7.9896Y-4.2703
X7.9961Y-9.4174
X8.0055Y-11.2334
X8.0153Y-10.7694
X8.0153Y-10.8186
X8.0153Y-10.8678
X8.0192Y-8.8569
X8.0192Y-8.8963
X8.0197Y-5.5984
X8.0217Y-2.2992
X8.0217Y-2.4252
X8.0315Y-5.9055
X8.0488Y-5.2986
X8.0571Y-6.8145
X8.0606Y-8.8577
X8.0606Y-8.897
X8.0645Y-10.8285
X8.0645Y-10.8678
X8.0907Y-10.4125
X8.1063Y-4.9292
X8.124Y-9.939
X8.1437Y-4.7815
X8.1556Y-11.0001
X8.1575Y-5.6811
X8.1594Y-5.6063
X8.163Y-10.7989
X8.1752Y-6.4602
X8.1909Y-5.9292
X8.2067Y-6.0237
X8.2122Y-10.7694
X8.2164Y-9.3334
X8.2258Y-2.0459
X8.2258Y-2.0853
X8.2323Y-5.2244
X8.2339Y-10.9721
X8.2417Y-9.0388
X8.252Y-5.563
X8.2614Y-10.7399
X8.2652Y-2.0459
X8.2656Y-2.0853
X8.2794Y-2.5768
X8.2894Y-4.2697
X8.2972Y-7.2441
X8.3051Y-4.9882
X8.3051Y-5.189
X8.3169Y-4.2303
X8.3461Y-8.8612
X8.3461Y-8.9006
X8.3483Y-2.2717
X8.3484Y-7.0
X8.3484Y-7.1654
X8.3661Y-2.0459
X8.3661Y-2.0853
X8.3855Y-8.8612
X8.3855Y-8.9006
X8.3884Y-2.5249
X8.3913Y-11.3577
X8.4031Y-11.1569
X8.4055Y-2.0459
X8.4059Y-2.0853
X8.4361Y-10.6723
X8.446Y-10.5345
X8.5155Y-9.3379
X8.527Y-4.899
X8.5295Y-6.7107
X8.5333Y-8.3726
X8.5447Y-4.231
X8.5447Y-4.2703
X8.5512Y-9.4174
X8.5743Y-8.8569
X8.5743Y-8.8963
X8.5748Y-5.5984
X8.5768Y-2.3031
X8.5768Y-2.4252
X8.5866Y-5.9094
X8.6039Y-5.3012
X8.6122Y-6.8145
X8.6157Y-8.8577
X8.6157Y-8.897
X8.6614Y-4.9292
X8.6791Y-9.939
X8.692Y-10.6625
X8.6988Y-4.7815
X8.7146Y-5.6063
X8.7146Y-5.6772
X8.7168Y-10.9784
X8.7303Y-6.4602
X8.7338Y-11.1647
X8.7413Y-10.7216
X8.7413Y-10.7708
X8.7461Y-5.9292
X8.7618Y-6.0237
X8.7715Y-9.3334
X8.7806Y-10.692
X8.7806Y-10.7412
X8.7806Y-10.7905
X8.781Y-2.0459
X8.781Y-2.0853
X8.7874Y-5.2244
X8.7968Y-9.0388
X8.8031Y-5.5709
X8.8203Y-2.0459
X8.8207Y-2.0853
X8.831Y-10.4559
X8.8345Y-2.5768
X8.8445Y-4.2697
X8.8524Y-7.2441
X8.8602Y-4.9882
X8.8602Y-5.189
X8.8721Y-4.2303
X8.9012Y-8.8612
X8.9012Y-8.9006
X8.9034Y-2.2717
X8.9035Y-7.0
X8.9035Y-7.1654
X8.9169Y-2.0459
X8.9169Y-2.0853
X8.9406Y-8.8612
X8.9406Y-8.9006
X8.9435Y-2.5249
X8.9563Y-2.0459
X8.9567Y-2.0853
X9.0706Y-9.3398
X9.0821Y-4.901
X9.0846Y-6.7126
X9.0973Y-8.3726
X9.0999Y-4.2329
X9.0999Y-4.2723
X9.1063Y-9.4193
X9.1138Y-11.2334
X9.1236Y-10.7694
X9.1236Y-10.8186
X9.1236Y-10.8678
X9.1294Y-8.8589
X9.1294Y-8.8983
X9.1299Y-5.5984
X9.1319Y-2.3031
X9.1319Y-2.4291
X9.1417Y-5.9094
X9.1591Y-5.3032
X9.1673Y-6.8165
X9.1708Y-8.8577
X9.1708Y-8.897
X9.1728Y-10.8285
X9.1728Y-10.8678
X9.1989Y-10.4125
X9.2165Y-4.9311
X9.2343Y-9.941
X9.2539Y-4.7835
X9.2639Y-11.0001
X9.2697Y-5.6102
X9.2697Y-5.6772
X9.2712Y-10.7989
X9.2854Y-6.4622
X9.3012Y-5.9311
X9.3169Y-6.0256
X9.3205Y-10.7694
X9.3267Y-9.3354
X9.3361Y-2.0479
X9.3361Y-2.0873
X9.3422Y-10.9721
X9.3425Y-5.2264
X9.3558Y-9.0388
X9.3583Y-5.5591
X9.3697Y-10.7399
X9.3755Y-2.0479
X9.3759Y-2.0873
X9.3896Y-2.5788
X9.3996Y-4.2717
X9.4075Y-7.2461
X9.4154Y-4.9902
X9.4154Y-5.191
X9.4272Y-4.2323
X9.4563Y-8.8612
X9.4563Y-8.9006
X9.4585Y-2.2737
X9.4587Y-7.002
X9.4587Y-7.1674
X9.472Y-2.0472
X9.472Y-2.0866
X9.4957Y-8.8612
X9.4957Y-8.9006
X9.4976Y-11.3537
X9.4987Y-2.5269
X9.5094Y-11.1451
X9.5114Y-2.0472
X9.5118Y-2.0866
X9.5444Y-10.6723
X9.5543Y-10.5345
X9.6257Y-9.3398
X9.6372Y-4.901
X9.6398Y-6.7126
X9.6417Y-8.378
X9.655Y-4.2329
X9.655Y-4.2723
X9.6614Y-9.4193
X9.6845Y-8.8589
X9.6845Y-8.8982
X9.687Y-2.3091
X9.687Y-2.4291
X9.6929Y-5.6063
X9.6969Y-5.9134
X9.7122Y-5.3032
X9.7224Y-6.8165
X9.7259Y-8.8577
X9.7259Y-8.897
X9.7716Y-4.9311
X9.7894Y-9.9409
X9.8003Y-10.6625
X9.8091Y-4.7835
X9.8248Y-5.6063
X9.8248Y-5.6811
X9.8251Y-10.9784
X9.8401Y-11.1608
X9.8406Y-6.4621
X9.8495Y-10.7216
X9.8495Y-10.7708
X9.8563Y-5.9311
X9.872Y-6.0256
X9.8818Y-9.3354
X9.8889Y-10.692
X9.8889Y-10.7412
X9.8889Y-10.7905
X9.8912Y-2.0479
X9.8912Y-2.0872
X9.8976Y-5.2264
X9.907Y-9.0388
X9.9173Y-5.563
X9.9306Y-2.0479
X9.931Y-2.0872
X9.9392Y-10.4559
X9.9447Y-2.5787
X9.9547Y-4.2717
X9.9626Y-7.2461
X9.9705Y-4.9902
X9.9705Y-5.1909
X9.9818Y-8.8616
X9.9818Y-8.901
X9.9823Y-4.2323
X10.0136Y-2.2736
X10.0138Y-7.002
X10.0138Y-7.1673
X10.0212Y-8.8616
X10.0212Y-8.901
X10.0315Y-2.0472
X10.0315Y-2.0866
X10.0538Y-2.5269
X10.0709Y-2.0472
X10.0713Y-2.0866
X10.1196Y-8.8655
X10.1196Y-8.9049
X10.1432Y-4.2277
X10.1432Y-4.2691
X10.159Y-8.8655
X10.159Y-8.9049
T3
X3.6272Y-3.5033
X3.7272Y-3.5033
X3.8272Y-3.5033
X4.1803Y-3.5033
X4.2803Y-3.5033
X4.3803Y-3.5033
X4.7349Y-3.5031
X4.8349Y-3.5031
X4.9349Y-3.5031
X5.292Y-3.502
X5.392Y-3.502
X5.492Y-3.502
X5.8471Y-3.502
X5.9471Y-3.502
X6.0471Y-3.502
X6.4022Y-3.502
X6.5022Y-3.502
X6.6022Y-3.502
X6.9574Y-3.502
X7.0574Y-3.502
X7.1574Y-3.502
X7.5105Y-3.502
X7.6105Y-3.502
X7.7105Y-3.502
X8.0656Y-3.502
X8.1656Y-3.502
X8.2656Y-3.502
X8.6207Y-3.502
X8.7207Y-3.502
X8.8207Y-3.502
X9.1759Y-3.504
X9.2759Y-3.504
X9.3759Y-3.504
X9.731Y-3.5039
X9.831Y-3.5039
X9.931Y-3.5039
T4
X3.585Y-1.9802
X3.6835Y-1.9802
X3.7819Y-1.9802
X4.1382Y-1.9802
X4.2366Y-1.9802
X4.335Y-1.9802
X4.6928Y-1.98
X4.7912Y-1.98
X4.8896Y-1.98
X5.2499Y-1.9789
X5.3483Y-1.9789
X5.4467Y-1.9789
X5.805Y-1.9789
X5.9034Y-1.9789
X6.0018Y-1.9789
X6.3601Y-1.9789
X6.4585Y-1.9789
X6.5569Y-1.9789
X6.9152Y-1.9789
X7.0136Y-1.9789
X7.1121Y-1.9789
X7.4684Y-1.9789
X7.5668Y-1.9789
X7.6652Y-1.9789
X8.0235Y-1.9789
X8.1219Y-1.9789
X8.2203Y-1.9789
X8.5786Y-1.9789
X8.677Y-1.9789
X8.7755Y-1.9789
X9.1337Y-1.9809
X9.2321Y-1.9809
X9.3306Y-1.9809
X9.6888Y-1.9808
X9.7873Y-1.9808
X9.8857Y-1.9808
T5
X3.0911Y-6.0378
X3.0911Y-6.1378
X3.0911Y-6.2378
X3.0911Y-6.3378
X3.0911Y-6.4378
X3.0911Y-6.5378
X3.0911Y-6.6378
X3.0911Y-6.7378
X3.0911Y-6.8378
X3.0911Y-6.9378
X3.0911Y-7.0378
X3.0911Y-7.1378
X3.2505Y-6.0378
X3.2505Y-6.1378
X3.2505Y-6.2378
X3.2505Y-6.3378
X3.2505Y-6.4378
X3.2505Y-6.5378
X3.2505Y-6.6378
X3.2505Y-6.7378
X3.2505Y-6.8378
X3.2505Y-6.9378
X3.2505Y-7.0378
X3.2505Y-7.1378
X3.6501Y-8.1643
X3.6697Y-10.0781
X3.6697Y-10.2159
X3.7486Y-8.1643
X3.785Y-7.2966
X3.7919Y-7.0993
X3.847Y-8.1643
X3.8982Y-6.2061
X3.9297Y-4.5565
X3.9352Y-3.476
X3.9603Y-1.9657
X4.2033Y-8.1643
X4.2229Y-10.0781
X4.2229Y-10.2159
X4.3017Y-8.1643
X4.3408Y-7.2966
X4.345Y-7.0993
X4.4001Y-8.1643
X4.409Y-11.0021
X4.409Y-11.1021
X4.409Y-11.2021
X4.4513Y-6.2061
X4.4828Y-4.5565
X4.4884Y-3.476
X4.5135Y-1.9657
X4.7579Y-8.1641
X4.7774Y-10.0779
X4.7774Y-10.2157
X4.8563Y-8.1641
X4.8966Y-7.2966
X4.8996Y-7.0991
X4.9547Y-8.1641
X5.0059Y-6.2059
X5.0374Y-4.5563
X5.043Y-3.4758
X5.0681Y-1.9655
X5.315Y-8.1629
X5.3345Y-10.0768
X5.3345Y-10.2146
X5.4134Y-8.1629
X5.4525Y-7.2966
X5.4567Y-7.098
X5.5118Y-8.1629
X5.5202Y-11.0027
X5.5202Y-11.1027
X5.5202Y-11.2027
X5.563Y-6.2047
X5.5945Y-4.5551
X5.6001Y-3.4747
X5.6252Y-1.9643
X5.8701Y-8.1629
X5.8896Y-10.0768
X5.8896Y-10.2146
X5.9685Y-8.1629
X6.0083Y-7.2966
X6.0118Y-7.098
X6.0669Y-8.1629
X6.1181Y-6.2048
X6.1496Y-4.5551
X6.1552Y-3.4747
X6.1803Y-1.9643
X6.4252Y-8.1629
X6.4448Y-10.0768
X6.4448Y-10.2146
X6.5236Y-8.1629
X6.5641Y-7.2966
X6.5669Y-7.098
X6.622Y-8.1629
X6.6291Y-11.0038
X6.6291Y-11.1038
X6.6291Y-11.2038
X6.6732Y-6.2048
X6.7047Y-4.5551
X6.7103Y-3.4747
X6.7354Y-1.9643
X6.9803Y-8.1629
X6.9999Y-10.0768
X6.9999Y-10.2146
X7.0787Y-8.1629
X7.12Y-7.2966
X7.122Y-7.098
X7.1772Y-8.1629
X7.2283Y-6.2048
X7.2598Y-4.5551
X7.2654Y-3.4747
X7.2905Y-1.9643
X7.5335Y-8.1629
X7.553Y-10.0768
X7.553Y-10.2146
X7.6319Y-8.1629
X7.6752Y-7.098
X7.6758Y-7.2966
X7.7303Y-8.1629
X7.7429Y-11.0035
X7.7429Y-11.1035
X7.7429Y-11.2035
X7.7815Y-6.2048
X7.813Y-4.5551
X7.8186Y-3.4747
X7.8437Y-1.9643
X8.0886Y-8.1629
X8.1081Y-10.0768
X8.1081Y-10.2146
X8.187Y-8.1629
X8.2303Y-7.098
X8.2317Y-7.2966
X8.2854Y-8.1629
X8.3366Y-6.2048
X8.3681Y-4.5551
X8.3737Y-3.4747
X8.3988Y-1.9643
X8.6437Y-8.1629
X8.6633Y-10.0768
X8.6633Y-10.2146
X8.7421Y-8.1629
X8.7854Y-7.098
X8.7875Y-7.2966
X8.8406Y-8.1629
X8.8515Y-11.0038
X8.8515Y-11.1038
X8.8515Y-11.2038
X8.8917Y-6.2048
X8.9232Y-4.5551
X8.9288Y-3.4747
X8.9539Y-1.9643
X9.1988Y-8.1649
X9.2184Y-10.0788
X9.2184Y-10.2166
X9.2972Y-8.1649
X9.3406Y-7.1
X9.3433Y-7.2966
X9.3957Y-8.1649
X9.4469Y-6.2067
X9.4783Y-4.5571
X9.4839Y-3.4767
X9.509Y-1.9663
X9.7539Y-8.1649
X9.7735Y-10.0787
X9.7735Y-10.2165
X9.8524Y-8.1649
X9.8957Y-7.0999
X9.8992Y-7.2966
X9.9508Y-8.1649
X9.9598Y-11.0038
X9.9598Y-11.1038
X9.9598Y-11.2038
X10.002Y-6.2067
X10.0335Y-4.5571
X10.039Y-3.4766
X10.0641Y-1.9663
T6
X3.7545Y-12.0687
X3.7545Y-14.2687
X4.3056Y-12.0785
X4.3056Y-14.2785
X4.8657Y-12.0692
X4.8657Y-14.2692
X5.4169Y-12.0791
X5.4169Y-14.2791
X5.9745Y-12.0704
X5.9745Y-14.2704
X6.5257Y-12.0802
X6.5257Y-14.2802
X7.0884Y-12.0701
X7.0884Y-14.2701
X7.6395Y-12.0799
X7.6395Y-14.2799
X8.197Y-12.0704
X8.197Y-14.2704
X8.7481Y-12.0802
X8.7481Y-14.2802
X9.3052Y-12.0704
X9.3052Y-14.2704
X9.8564Y-12.0802
X9.8564Y-14.2802
T8
X3.0709Y-8.0329
X3.0709Y-8.3084
X3.0709Y-8.7975
X3.0709Y-9.0731
X3.0709Y-9.5743
X3.0709Y-9.8499
X3.0709Y-10.3301
X3.0709Y-10.6057
X3.2677Y-8.0289
X3.2677Y-8.3084
X3.2677Y-8.7936
X3.2677Y-9.0731
X3.2677Y-9.5704
X3.2677Y-9.8499
X3.2677Y-10.3262
X3.2677Y-10.6057
X3.5675Y-14.9403
X3.5675Y-15.2159
X3.7446Y-14.4777
X3.7446Y-14.7533
X3.7643Y-14.9364
X3.7643Y-15.2159
X3.9415Y-14.4738
X3.9415Y-14.7533
X4.1186Y-14.9403
X4.1186Y-15.2159
X4.2958Y-14.4777
X4.2958Y-14.7533
X4.3155Y-14.9364
X4.3155Y-15.2159
X4.4927Y-14.4738
X4.4927Y-14.7533
X4.6787Y-14.9409
X4.6787Y-15.2165
X4.8559Y-14.4783
X4.8559Y-14.7539
X4.8756Y-14.9369
X4.8756Y-15.2165
X5.0527Y-14.4743
X5.0527Y-14.7539
X5.2299Y-14.9409
X5.2299Y-15.2165
X5.407Y-14.4783
X5.407Y-14.7539
X5.4267Y-14.9369
X5.4267Y-15.2165
X5.6039Y-14.4743
X5.6039Y-14.7539
X5.7875Y-14.942
X5.7875Y-15.2176
X5.9647Y-14.4794
X5.9647Y-14.755
X5.9844Y-14.9381
X5.9844Y-15.2176
X6.1615Y-14.4755
X6.1615Y-14.755
X6.3387Y-14.942
X6.3387Y-15.2176
X6.5159Y-14.4794
X6.5159Y-14.755
X6.5356Y-14.9381
X6.5356Y-15.2176
X6.7127Y-14.4755
X6.7127Y-14.755
X6.9013Y-14.9417
X6.9013Y-15.2173
X7.0785Y-14.4791
X7.0785Y-14.7547
X7.0982Y-14.9378
X7.0982Y-15.2173
X7.2754Y-14.4752
X7.2754Y-14.7547
X7.4525Y-14.9417
X7.4525Y-15.2173
X7.6297Y-14.4791
X7.6297Y-14.7547
X7.6494Y-14.9378
X7.6494Y-15.2173
X7.8265Y-14.4752
X7.8265Y-14.7547
X8.01Y-14.942
X8.01Y-15.2176
X8.1871Y-14.4794
X8.1871Y-14.755
X8.2068Y-14.9381
X8.2068Y-15.2176
X8.384Y-14.4755
X8.384Y-14.755
X8.5611Y-14.942
X8.5611Y-15.2176
X8.7383Y-14.4794
X8.7383Y-14.755
X8.758Y-14.9381
X8.758Y-15.2176
X8.9352Y-14.4755
X8.9352Y-14.755
X9.1182Y-14.942
X9.1182Y-15.2176
X9.2954Y-14.4794
X9.2954Y-14.755
X9.3151Y-14.9381
X9.3151Y-15.2176
X9.4922Y-14.4755
X9.4922Y-14.755
X9.6694Y-14.942
X9.6694Y-15.2176
X9.8466Y-14.4794
X9.8466Y-14.755
X9.8663Y-14.9381
X9.8663Y-15.2176
X10.0434Y-14.4755
X10.0434Y-14.755
X10.2756Y-8.0177
X10.2756Y-8.2972
X10.2756Y-9.5492
X10.2756Y-9.8287
X10.2795Y-8.7835
X10.2795Y-9.063
X10.2795Y-10.315
X10.2795Y-10.5945
X10.4724Y-8.0177
X10.4724Y-8.2933
X10.4724Y-9.5492
X10.4724Y-9.8248
X10.4764Y-8.7835
X10.4764Y-9.0591
X10.4764Y-10.315
X10.4764Y-10.5906
T9
X3.1905Y-15.0762
X3.1941Y-1.8714
X10.4091Y-1.8714
X10.4091Y-15.0762
T2
G00X3.1974Y-3.723
M15
G01X3.2368Y-3.723
M16
G05
G00X3.1974Y-4.0498
M15
G01X3.2368Y-4.0498
M16
G05
G00X3.1974Y-4.1718
M15
G01X3.2368Y-4.1718
M16
G05
G00X3.7269Y-8.3623
M15
G01X3.7662Y-8.3623
M16
G05
G00X3.7269Y-8.6891
M15
G01X3.7662Y-8.6891
M16
G05
G00X3.7269Y-8.8111
M15
G01X3.7662Y-8.8111
M16
G05
G00X3.7288Y-3.723
M15
G01X3.7681Y-3.723
M16
G05
G00X3.7288Y-4.0498
M15
G01X3.7681Y-4.0498
M16
G05
G00X3.7288Y-4.1718
M15
G01X3.7681Y-4.1718
M16
G05
G00X4.28Y-8.3623
M15
G01X4.3194Y-8.3623
M16
G05
G00X4.28Y-8.6891
M15
G01X4.3194Y-8.6891
M16
G05
G00X4.28Y-8.8111
M15
G01X4.3194Y-8.8111
M16
G05
G00X4.2819Y-3.723
M15
G01X4.3213Y-3.723
M16
G05
G00X4.2819Y-4.0498
M15
G01X4.3213Y-4.0498
M16
G05
G00X4.2819Y-4.1718
M15
G01X4.3213Y-4.1718
M16
G05
G00X4.8346Y-8.3621
M15
G01X4.874Y-8.3621
M16
G05
G00X4.8346Y-8.6889
M15
G01X4.874Y-8.6889
M16
G05
G00X4.8346Y-8.8109
M15
G01X4.874Y-8.8109
M16
G05
G00X4.8365Y-3.7228
M15
G01X4.8759Y-3.7228
M16
G05
G00X4.8365Y-4.0496
M15
G01X4.8759Y-4.0496
M16
G05
G00X4.8365Y-4.1716
M15
G01X4.8759Y-4.1716
M16
G05
G00X5.3917Y-8.3609
M15
G01X5.431Y-8.3609
M16
G05
G00X5.3917Y-8.6877
M15
G01X5.431Y-8.6877
M16
G05
G00X5.3917Y-8.8098
M15
G01X5.431Y-8.8098
M16
G05
G00X5.3936Y-3.7217
M15
G01X5.433Y-3.7217
M16
G05
G00X5.3936Y-4.0484
M15
G01X5.433Y-4.0484
M16
G05
G00X5.3936Y-4.1705
M15
G01X5.433Y-4.1705
M16
G05
G00X5.9468Y-8.361
M15
G01X5.9862Y-8.361
M16
G05
G00X5.9468Y-8.6877
M15
G01X5.9862Y-8.6877
M16
G05
G00X5.9468Y-8.8098
M15
G01X5.9862Y-8.8098
M16
G05
G00X5.9487Y-3.7217
M15
G01X5.9881Y-3.7217
M16
G05
G00X5.9487Y-4.0485
M15
G01X5.9881Y-4.0485
M16
G05
G00X5.9487Y-4.1705
M15
G01X5.9881Y-4.1705
M16
G05
G00X6.5019Y-8.361
M15
G01X6.5413Y-8.361
M16
G05
G00X6.5019Y-8.6877
M15
G01X6.5413Y-8.6877
M16
G05
G00X6.5019Y-8.8098
M15
G01X6.5413Y-8.8098
M16
G05
G00X6.5038Y-3.7217
M15
G01X6.5432Y-3.7217
M16
G05
G00X6.5038Y-4.0485
M15
G01X6.5432Y-4.0485
M16
G05
G00X6.5038Y-4.1705
M15
G01X6.5432Y-4.1705
M16
G05
G00X7.057Y-8.361
M15
G01X7.0964Y-8.361
M16
G05
G00X7.057Y-8.6877
M15
G01X7.0964Y-8.6877
M16
G05
G00X7.057Y-8.8098
M15
G01X7.0964Y-8.8098
M16
G05
G00X7.0589Y-3.7217
M15
G01X7.0983Y-3.7217
M16
G05
G00X7.0589Y-4.0485
M15
G01X7.0983Y-4.0485
M16
G05
G00X7.0589Y-4.1705
M15
G01X7.0983Y-4.1705
M16
G05
G00X7.6102Y-8.361
M15
G01X7.6495Y-8.361
M16
G05
G00X7.6102Y-8.6877
M15
G01X7.6495Y-8.6877
M16
G05
G00X7.6102Y-8.8098
M15
G01X7.6495Y-8.8098
M16
G05
G00X7.6121Y-3.7217
M15
G01X7.6515Y-3.7217
M16
G05
G00X7.6121Y-4.0485
M15
G01X7.6515Y-4.0485
M16
G05
G00X7.6121Y-4.1705
M15
G01X7.6515Y-4.1705
M16
G05
G00X8.1653Y-8.361
M15
G01X8.2047Y-8.361
M16
G05
G00X8.1653Y-8.6877
M15
G01X8.2047Y-8.6877
M16
G05
G00X8.1653Y-8.8098
M15
G01X8.2047Y-8.8098
M16
G05
G00X8.1672Y-3.7217
M15
G01X8.2066Y-3.7217
M16
G05
G00X8.1672Y-4.0485
M15
G01X8.2066Y-4.0485
M16
G05
G00X8.1672Y-4.1705
M15
G01X8.2066Y-4.1705
M16
G05
G00X8.7204Y-8.361
M15
G01X8.7598Y-8.361
M16
G05
G00X8.7204Y-8.6877
M15
G01X8.7598Y-8.6877
M16
G05
G00X8.7204Y-8.8098
M15
G01X8.7598Y-8.8098
M16
G05
G00X8.7223Y-3.7217
M15
G01X8.7617Y-3.7217
M16
G05
G00X8.7223Y-4.0485
M15
G01X8.7617Y-4.0485
M16
G05
G00X8.7223Y-4.1705
M15
G01X8.7617Y-4.1705
M16
G05
G00X9.2755Y-8.3629
M15
G01X9.3149Y-8.3629
M16
G05
G00X9.2755Y-8.6897
M15
G01X9.3149Y-8.6897
M16
G05
G00X9.2755Y-8.8118
M15
G01X9.3149Y-8.8118
M16
G05
G00X9.2774Y-3.7237
M15
G01X9.3168Y-3.7237
M16
G05
G00X9.2774Y-4.0504
M15
G01X9.3168Y-4.0504
M16
G05
G00X9.2774Y-4.1725
M15
G01X9.3168Y-4.1725
M16
G05
G00X9.8306Y-8.3629
M15
G01X9.87Y-8.3629
M16
G05
G00X9.8306Y-8.6897
M15
G01X9.87Y-8.6897
M16
G05
G00X9.8306Y-8.8117
M15
G01X9.87Y-8.8117
M16
G05
G00X9.8326Y-3.7236
M15
G01X9.8719Y-3.7236
M16
G05
G00X9.8326Y-4.0504
M15
G01X9.8719Y-4.0504
M16
G05
G00X9.8326Y-4.1724
M15
G01X9.8719Y-4.1724
M16
G05
G00X10.3839Y-3.7236
M15
G01X10.4232Y-3.7236
M16
G05
G00X10.3839Y-4.0504
M15
G01X10.4232Y-4.0504
M16
G05
G00X10.3839Y-4.1724
M15
G01X10.4232Y-4.1724
M16
G05
T5
G00X3.6147Y-7.4541
M15
G01X3.6147Y-7.4856
M16
G05
G00X3.65Y-4.3439
M15
G01X3.65Y-4.3754
M16
G05
G00X3.7131Y-7.4541
M15
G01X3.7131Y-7.4856
M16
G05
G00X3.7484Y-4.3439
M15
G01X3.7484Y-4.3754
M16
G05
G00X3.8116Y-7.4541
M15
G01X3.8116Y-7.4856
M16
G05
G00X3.8469Y-4.3439
M15
G01X3.8469Y-4.3754
M16
G05
G00X3.8508Y-10.0092
M15
G01X3.8823Y-10.0092
M16
G05
G00X3.8508Y-10.1077
M15
G01X3.8823Y-10.1077
M16
G05
G00X3.8508Y-10.2061
M15
G01X3.8823Y-10.2061
M16
G05
G00X4.1679Y-7.4541
M15
G01X4.1679Y-7.4856
M16
G05
G00X4.2032Y-4.3439
M15
G01X4.2032Y-4.3754
M16
G05
G00X4.2663Y-7.4541
M15
G01X4.2663Y-7.4856
M16
G05
G00X4.3016Y-4.3439
M15
G01X4.3016Y-4.3754
M16
G05
G00X4.3647Y-7.4541
M15
G01X4.3647Y-7.4856
M16
G05
G00X4.4Y-4.3439
M15
G01X4.4Y-4.3754
M16
G05
G00X4.404Y-10.0092
M15
G01X4.4355Y-10.0092
M16
G05
G00X4.404Y-10.1077
M15
G01X4.4355Y-10.1077
M16
G05
G00X4.404Y-10.2061
M15
G01X4.4355Y-10.2061
M16
G05
G00X4.7224Y-7.4539
M15
G01X4.7224Y-7.4854
M16
G05
G00X4.7578Y-4.3437
M15
G01X4.7578Y-4.3752
M16
G05
G00X4.8209Y-7.4539
M15
G01X4.8209Y-7.4854
M16
G05
G00X4.8562Y-4.3437
M15
G01X4.8562Y-4.3752
M16
G05
G00X4.9193Y-7.4539
M15
G01X4.9193Y-7.4854
M16
G05
G00X4.9546Y-4.3437
M15
G01X4.9546Y-4.3752
M16
G05
G00X4.9585Y-10.009
M15
G01X4.99Y-10.009
M16
G05
G00X4.9585Y-10.1075
M15
G01X4.99Y-10.1075
M16
G05
G00X4.9585Y-10.2059
M15
G01X4.99Y-10.2059
M16
G05
G00X5.2795Y-7.4528
M15
G01X5.2795Y-7.4843
M16
G05
G00X5.3148Y-4.3425
M15
G01X5.3148Y-4.374
M16
G05
G00X5.378Y-7.4528
M15
G01X5.378Y-7.4843
M16
G05
G00X5.4133Y-4.3425
M15
G01X5.4133Y-4.374
M16
G05
G00X5.4764Y-7.4528
M15
G01X5.4764Y-7.4843
M16
G05
G00X5.5117Y-4.3425
M15
G01X5.5117Y-4.374
M16
G05
G00X5.5156Y-10.0079
M15
G01X5.5471Y-10.0079
M16
G05
G00X5.5156Y-10.1063
M15
G01X5.5471Y-10.1063
M16
G05
G00X5.5156Y-10.2047
M15
G01X5.5471Y-10.2047
M16
G05
G00X5.8346Y-7.4528
M15
G01X5.8346Y-7.4843
M16
G05
G00X5.87Y-4.3425
M15
G01X5.87Y-4.374
M16
G05
G00X5.9331Y-7.4528
M15
G01X5.9331Y-7.4843
M16
G05
G00X5.9684Y-4.3425
M15
G01X5.9684Y-4.374
M16
G05
G00X6.0315Y-7.4528
M15
G01X6.0315Y-7.4843
M16
G05
G00X6.0668Y-4.3425
M15
G01X6.0668Y-4.374
M16
G05
G00X6.0707Y-10.0079
M15
G01X6.1022Y-10.0079
M16
G05
G00X6.0707Y-10.1063
M15
G01X6.1022Y-10.1063
M16
G05
G00X6.0707Y-10.2048
M15
G01X6.1022Y-10.2048
M16
G05
G00X6.3898Y-7.4528
M15
G01X6.3898Y-7.4843
M16
G05
G00X6.4251Y-4.3425
M15
G01X6.4251Y-4.374
M16
G05
G00X6.4882Y-7.4528
M15
G01X6.4882Y-7.4843
M16
G05
G00X6.5235Y-4.3425
M15
G01X6.5235Y-4.374
M16
G05
G00X6.5866Y-7.4528
M15
G01X6.5866Y-7.4843
M16
G05
G00X6.6219Y-4.3425
M15
G01X6.6219Y-4.374
M16
G05
G00X6.6259Y-10.0079
M15
G01X6.6574Y-10.0079
M16
G05
G00X6.6259Y-10.1063
M15
G01X6.6574Y-10.1063
M16
G05
G00X6.6259Y-10.2048
M15
G01X6.6574Y-10.2048
M16
G05
G00X6.9449Y-7.4528
M15
G01X6.9449Y-7.4843
M16
G05
G00X6.9802Y-4.3425
M15
G01X6.9802Y-4.374
M16
G05
G00X7.0433Y-7.4528
M15
G01X7.0433Y-7.4843
M16
G05
G00X7.0786Y-4.3425
M15
G01X7.0786Y-4.374
M16
G05
G00X7.1417Y-7.4528
M15
G01X7.1417Y-7.4843
M16
G05
G00X7.177Y-4.3425
M15
G01X7.177Y-4.374
M16
G05
G00X7.181Y-10.0079
M15
G01X7.2125Y-10.0079
M16
G05
G00X7.181Y-10.1063
M15
G01X7.2125Y-10.1063
M16
G05
G00X7.181Y-10.2048
M15
G01X7.2125Y-10.2048
M16
G05
G00X7.498Y-7.4528
M15
G01X7.498Y-7.4843
M16
G05
G00X7.5333Y-4.3425
M15
G01X7.5333Y-4.374
M16
G05
G00X7.5965Y-7.4528
M15
G01X7.5965Y-7.4843
M16
G05
G00X7.6318Y-4.3425
M15
G01X7.6318Y-4.374
M16
G05
G00X7.6949Y-7.4528
M15
G01X7.6949Y-7.4843
M16
G05
G00X7.7302Y-4.3425
M15
G01X7.7302Y-4.374
M16
G05
G00X7.7341Y-10.0079
M15
G01X7.7656Y-10.0079
M16
G05
G00X7.7341Y-10.1063
M15
G01X7.7656Y-10.1063
M16
G05
G00X7.7341Y-10.2048
M15
G01X7.7656Y-10.2048
M16
G05
G00X8.0531Y-7.4528
M15
G01X8.0531Y-7.4843
M16
G05
G00X8.0885Y-4.3425
M15
G01X8.0885Y-4.374
M16
G05
G00X8.1516Y-7.4528
M15
G01X8.1516Y-7.4843
M16
G05
G00X8.1869Y-4.3425
M15
G01X8.1869Y-4.374
M16
G05
G00X8.25Y-7.4528
M15
G01X8.25Y-7.4843
M16
G05
G00X8.2853Y-4.3425
M15
G01X8.2853Y-4.374
M16
G05
G00X8.2893Y-10.0079
M15
G01X8.3207Y-10.0079
M16
G05
G00X8.2893Y-10.1063
M15
G01X8.3207Y-10.1063
M16
G05
G00X8.2893Y-10.2048
M15
G01X8.3207Y-10.2048
M16
G05
G00X8.6083Y-7.4528
M15
G01X8.6083Y-7.4843
M16
G05
G00X8.6436Y-4.3425
M15
G01X8.6436Y-4.374
M16
G05
G00X8.7067Y-7.4528
M15
G01X8.7067Y-7.4843
M16
G05
G00X8.742Y-4.3425
M15
G01X8.742Y-4.374
M16
G05
G00X8.8051Y-7.4528
M15
G01X8.8051Y-7.4843
M16
G05
G00X8.8404Y-4.3425
M15
G01X8.8404Y-4.374
M16
G05
G00X8.8444Y-10.0079
M15
G01X8.8759Y-10.0079
M16
G05
G00X8.8444Y-10.1063
M15
G01X8.8759Y-10.1063
M16
G05
G00X8.8444Y-10.2048
M15
G01X8.8759Y-10.2048
M16
G05
G00X9.1634Y-7.4548
M15
G01X9.1634Y-7.4862
M16
G05
G00X9.1987Y-4.3445
M15
G01X9.1987Y-4.376
M16
G05
G00X9.2618Y-7.4548
M15
G01X9.2618Y-7.4862
M16
G05
G00X9.2971Y-4.3445
M15
G01X9.2971Y-4.376
M16
G05
G00X9.3602Y-7.4548
M15
G01X9.3602Y-7.4862
M16
G05
G00X9.3956Y-4.3445
M15
G01X9.3956Y-4.376
M16
G05
G00X9.3995Y-10.0099
M15
G01X9.431Y-10.0099
M16
G05
G00X9.3995Y-10.1083
M15
G01X9.431Y-10.1083
M16
G05
G00X9.3995Y-10.2067
M15
G01X9.431Y-10.2067
M16
G05
G00X9.7185Y-7.4547
M15
G01X9.7185Y-7.4862
M16
G05
G00X9.7538Y-4.3445
M15
G01X9.7538Y-4.376
M16
G05
G00X9.8169Y-7.4547
M15
G01X9.8169Y-7.4862
M16
G05
G00X9.8522Y-4.3445
M15
G01X9.8522Y-4.376
M16
G05
G00X9.9154Y-7.4547
M15
G01X9.9154Y-7.4862
M16
G05
G00X9.9507Y-4.3445
M15
G01X9.9507Y-4.376
M16
G05
G00X9.9546Y-10.0098
M15
G01X9.9861Y-10.0098
M16
G05
G00X9.9546Y-10.1083
M15
G01X9.9861Y-10.1083
M16
G05
G00X9.9546Y-10.2067
M15
G01X9.9861Y-10.2067
M16
G05
T7
G00X3.6255Y-11.4679
M15
G01X3.6747Y-11.4679
M16
G05
G00X3.6255Y-11.6529
M15
G01X3.6747Y-11.6529
M16
G05
G00X3.6255Y-11.838
M15
G01X3.6747Y-11.838
M16
G05
G00X3.6786Y-2.7868
M15
G01X3.6294Y-2.7868
M16
G05
G00X3.6786Y-2.9718
M15
G01X3.6294Y-2.9718
M16
G05
G00X3.6786Y-3.1608
M15
G01X3.6294Y-3.1608
M16
G05
G00X3.8145Y-11.464
M15
G01X3.8637Y-11.464
M16
G05
G00X3.8145Y-11.6529
M15
G01X3.8637Y-11.6529
M16
G05
G00X3.8145Y-11.838
M15
G01X3.8637Y-11.838
M16
G05
G00X3.8675Y-2.7868
M15
G01X3.8183Y-2.7868
M16
G05
G00X3.8675Y-2.9718
M15
G01X3.8183Y-2.9718
M16
G05
G00X3.8675Y-3.1569
M15
G01X3.8183Y-3.1569
M16
G05
G00X4.2317Y-2.7868
M15
G01X4.1825Y-2.7868
M16
G05
G00X4.2317Y-2.9718
M15
G01X4.1825Y-2.9718
M16
G05
G00X4.2317Y-3.1608
M15
G01X4.1825Y-3.1608
M16
G05
G00X4.1825Y-11.4688
M15
G01X4.2317Y-11.4688
M16
G05
G00X4.1825Y-11.6538
M15
G01X4.2317Y-11.6538
M16
G05
G00X4.1825Y-11.8389
M15
G01X4.2317Y-11.8389
M16
G05
G00X4.4207Y-2.7868
M15
G01X4.3715Y-2.7868
M16
G05
G00X4.4207Y-2.9718
M15
G01X4.3715Y-2.9718
M16
G05
G00X4.4207Y-3.1569
M15
G01X4.3715Y-3.1569
M16
G05
G00X4.3715Y-11.4648
M15
G01X4.4207Y-11.4648
M16
G05
G00X4.3715Y-11.6538
M15
G01X4.4207Y-11.6538
M16
G05
G00X4.3715Y-11.8389
M15
G01X4.4207Y-11.8389
M16
G05
G00X4.7368Y-11.4684
M15
G01X4.786Y-11.4684
M16
G05
G00X4.7368Y-11.6535
M15
G01X4.786Y-11.6535
M16
G05
G00X4.7368Y-11.8385
M15
G01X4.786Y-11.8385
M16
G05
G00X4.7863Y-2.7866
M15
G01X4.7371Y-2.7866
M16
G05
G00X4.7863Y-2.9716
M15
G01X4.7371Y-2.9716
M16
G05
G00X4.7863Y-3.1606
M15
G01X4.7371Y-3.1606
M16
G05
G00X4.9257Y-11.4645
M15
G01X4.975Y-11.4645
M16
G05
G00X4.9257Y-11.6535
M15
G01X4.975Y-11.6535
M16
G05
G00X4.9257Y-11.8385
M15
G01X4.975Y-11.8385
M16
G05
G00X4.9753Y-2.7866
M15
G01X4.9261Y-2.7866
M16
G05
G00X4.9753Y-2.9716
M15
G01X4.9261Y-2.9716
M16
G05
G00X4.9753Y-3.1567
M15
G01X4.9261Y-3.1567
M16
G05
G00X5.2937Y-11.4693
M15
G01X5.343Y-11.4693
M16
G05
G00X5.2937Y-11.6544
M15
G01X5.343Y-11.6544
M16
G05
G00X5.2937Y-11.8394
M15
G01X5.343Y-11.8394
M16
G05
G00X5.3434Y-2.7854
M15
G01X5.2942Y-2.7854
M16
G05
G00X5.3434Y-2.9705
M15
G01X5.2942Y-2.9705
M16
G05
G00X5.3434Y-3.1594
M15
G01X5.2942Y-3.1594
M16
G05
G00X5.4827Y-11.4654
M15
G01X5.5319Y-11.4654
M16
G05
G00X5.4827Y-11.6544
M15
G01X5.5319Y-11.6544
M16
G05
G00X5.4827Y-11.8394
M15
G01X5.5319Y-11.8394
M16
G05
G00X5.5324Y-2.7854
M15
G01X5.4831Y-2.7854
M16
G05
G00X5.5324Y-2.9705
M15
G01X5.4831Y-2.9705
M16
G05
G00X5.5324Y-3.1555
M15
G01X5.4831Y-3.1555
M16
G05
G00X5.8456Y-11.4696
M15
G01X5.8948Y-11.4696
M16
G05
G00X5.8456Y-11.6546
M15
G01X5.8948Y-11.6546
M16
G05
G00X5.8456Y-11.8397
M15
G01X5.8948Y-11.8397
M16
G05
G00X5.8985Y-2.7855
M15
G01X5.8493Y-2.7855
M16
G05
G00X5.8985Y-2.9705
M15
G01X5.8493Y-2.9705
M16
G05
G00X5.8985Y-3.1595
M15
G01X5.8493Y-3.1595
M16
G05
G00X6.0346Y-11.4656
M15
G01X6.0838Y-11.4656
M16
G05
G00X6.0346Y-11.6546
M15
G01X6.0838Y-11.6546
M16
G05
G00X6.0346Y-11.8397
M15
G01X6.0838Y-11.8397
M16
G05
G00X6.0875Y-2.7855
M15
G01X6.0383Y-2.7855
M16
G05
G00X6.0875Y-2.9705
M15
G01X6.0383Y-2.9705
M16
G05
G00X6.0875Y-3.1555
M15
G01X6.0383Y-3.1555
M16
G05
G00X6.4026Y-11.4705
M15
G01X6.4518Y-11.4705
M16
G05
G00X6.4026Y-11.6555
M15
G01X6.4518Y-11.6555
M16
G05
G00X6.4026Y-11.8406
M15
G01X6.4518Y-11.8406
M16
G05
G00X6.4536Y-2.7855
M15
G01X6.4044Y-2.7855
M16
G05
G00X6.4536Y-2.9705
M15
G01X6.4044Y-2.9705
M16
G05
G00X6.4536Y-3.1595
M15
G01X6.4044Y-3.1595
M16
G05
G00X6.5915Y-11.4665
M15
G01X6.6407Y-11.4665
M16
G05
G00X6.5915Y-11.6555
M15
G01X6.6407Y-11.6555
M16
G05
G00X6.5915Y-11.8406
M15
G01X6.6407Y-11.8406
M16
G05
G00X6.6426Y-2.7855
M15
G01X6.5934Y-2.7855
M16
G05
G00X6.6426Y-2.9705
M15
G01X6.5934Y-2.9705
M16
G05
G00X6.6426Y-3.1555
M15
G01X6.5934Y-3.1555
M16
G05
G00X6.9594Y-11.4693
M15
G01X7.0086Y-11.4693
M16
G05
G00X6.9594Y-11.6543
M15
G01X7.0086Y-11.6543
M16
G05
G00X6.9594Y-11.8394
M15
G01X7.0086Y-11.8394
M16
G05
G00X7.0087Y-2.7855
M15
G01X6.9595Y-2.7855
M16
G05
G00X7.0087Y-2.9705
M15
G01X6.9595Y-2.9705
M16
G05
G00X7.0087Y-3.1595
M15
G01X6.9595Y-3.1595
M16
G05
G00X7.1484Y-11.4653
M15
G01X7.1976Y-11.4653
M16
G05
G00X7.1484Y-11.6543
M15
G01X7.1976Y-11.6543
M16
G05
G00X7.1484Y-11.8394
M15
G01X7.1976Y-11.8394
M16
G05
G00X7.1977Y-2.7855
M15
G01X7.1485Y-2.7855
M16
G05
G00X7.1977Y-2.9705
M15
G01X7.1485Y-2.9705
M16
G05
G00X7.1977Y-3.1555
M15
G01X7.1485Y-3.1555
M16
G05
G00X7.5619Y-2.7855
M15
G01X7.5127Y-2.7855
M16
G05
G00X7.5619Y-2.9705
M15
G01X7.5127Y-2.9705
M16
G05
G00X7.5619Y-3.1595
M15
G01X7.5127Y-3.1595
M16
G05
G00X7.5164Y-11.4702
M15
G01X7.5656Y-11.4702
M16
G05
G00X7.5164Y-11.6552
M15
G01X7.5656Y-11.6552
M16
G05
G00X7.5164Y-11.8402
M15
G01X7.5656Y-11.8402
M16
G05
G00X7.7509Y-2.7855
M15
G01X7.7017Y-2.7855
M16
G05
G00X7.7509Y-2.9705
M15
G01X7.7017Y-2.9705
M16
G05
G00X7.7509Y-3.1555
M15
G01X7.7017Y-3.1555
M16
G05
G00X7.7054Y-11.4662
M15
G01X7.7546Y-11.4662
M16
G05
G00X7.7054Y-11.6552
M15
G01X7.7546Y-11.6552
M16
G05
G00X7.7054Y-11.8402
M15
G01X7.7546Y-11.8402
M16
G05
G00X8.117Y-2.7855
M15
G01X8.0678Y-2.7855
M16
G05
G00X8.117Y-2.9705
M15
G01X8.0678Y-2.9705
M16
G05
G00X8.117Y-3.1595
M15
G01X8.0678Y-3.1595
M16
G05
G00X8.068Y-11.4696
M15
G01X8.1172Y-11.4696
M16
G05
G00X8.068Y-11.6546
M15
G01X8.1172Y-11.6546
M16
G05
G00X8.068Y-11.8397
M15
G01X8.1172Y-11.8397
M16
G05
G00X8.306Y-2.7855
M15
G01X8.2568Y-2.7855
M16
G05
G00X8.306Y-2.9705
M15
G01X8.2568Y-2.9705
M16
G05
G00X8.306Y-3.1555
M15
G01X8.2568Y-3.1555
M16
G05
G00X8.257Y-11.4656
M15
G01X8.3062Y-11.4656
M16
G05
G00X8.257Y-11.6546
M15
G01X8.3062Y-11.6546
M16
G05
G00X8.257Y-11.8397
M15
G01X8.3062Y-11.8397
M16
G05
G00X8.6721Y-2.7855
M15
G01X8.6229Y-2.7855
M16
G05
G00X8.6721Y-2.9705
M15
G01X8.6229Y-2.9705
M16
G05
G00X8.6721Y-3.1595
M15
G01X8.6229Y-3.1595
M16
G05
G00X8.625Y-11.4705
M15
G01X8.6742Y-11.4705
M16
G05
G00X8.625Y-11.6555
M15
G01X8.6742Y-11.6555
M16
G05
G00X8.625Y-11.8406
M15
G01X8.6742Y-11.8406
M16
G05
G00X8.8611Y-2.7855
M15
G01X8.8119Y-2.7855
M16
G05
G00X8.8611Y-2.9705
M15
G01X8.8119Y-2.9705
M16
G05
G00X8.8611Y-3.1555
M15
G01X8.8119Y-3.1555
M16
G05
G00X8.814Y-11.4665
M15
G01X8.8632Y-11.4665
M16
G05
G00X8.814Y-11.6555
M15
G01X8.8632Y-11.6555
M16
G05
G00X8.814Y-11.8406
M15
G01X8.8632Y-11.8406
M16
G05
G00X9.1763Y-11.4696
M15
G01X9.2255Y-11.4696
M16
G05
G00X9.1763Y-11.6546
M15
G01X9.2255Y-11.6546
M16
G05
G00X9.1763Y-11.8397
M15
G01X9.2255Y-11.8397
M16
G05
G00X9.2272Y-2.7874
M15
G01X9.178Y-2.7874
M16
G05
G00X9.2272Y-2.9725
M15
G01X9.178Y-2.9725
M16
G05
G00X9.2272Y-3.1614
M15
G01X9.178Y-3.1614
M16
G05
G00X9.3653Y-11.4656
M15
G01X9.4145Y-11.4656
M16
G05
G00X9.3653Y-11.6546
M15
G01X9.4145Y-11.6546
M16
G05
G00X9.3653Y-11.8397
M15
G01X9.4145Y-11.8397
M16
G05
G00X9.4162Y-2.7874
M15
G01X9.367Y-2.7874
M16
G05
G00X9.4162Y-2.9725
M15
G01X9.367Y-2.9725
M16
G05
G00X9.4162Y-3.1575
M15
G01X9.367Y-3.1575
M16
G05
G00X9.7824Y-2.7874
M15
G01X9.7331Y-2.7874
M16
G05
G00X9.7824Y-2.9724
M15
G01X9.7331Y-2.9724
M16
G05
G00X9.7824Y-3.1614
M15
G01X9.7331Y-3.1614
M16
G05
G00X9.7333Y-11.4705
M15
G01X9.7825Y-11.4705
M16
G05
G00X9.7333Y-11.6555
M15
G01X9.7825Y-11.6555
M16
G05
G00X9.7333Y-11.8406
M15
G01X9.7825Y-11.8406
M16
G05
G00X9.9713Y-2.7874
M15
G01X9.9221Y-2.7874
M16
G05
G00X9.9713Y-2.9724
M15
G01X9.9221Y-2.9724
M16
G05
G00X9.9713Y-3.1575
M15
G01X9.9221Y-3.1575
M16
G05
G00X9.9222Y-11.4665
M15
G01X9.9715Y-11.4665
M16
G05
G00X9.9222Y-11.6555
M15
G01X9.9715Y-11.6555
M16
G05
G00X9.9222Y-11.8406
M15
G01X9.9715Y-11.8406
M16
G05
T0
M30
