M48
; DRILL file {KiCad (6.0.7-1)-1} date Saturday, February 03, 2024 at 03:38:51 PM
; FORMAT={-:-/ absolute / metric / decimal}
; #@! TF.CreationDate,2024-02-03T15:38:51-05:00
; #@! TF.GenerationSoftware,Kicad,Pcbnew,(6.0.7-1)-1
; #@! TF.FileFunction,Plated,1,2,PTH
FMAT,2
METRIC
; #@! TA.AperFunction,Plated,PTH,ComponentDrill
T1C0.700
; #@! TA.AperFunction,Plated,PTH,ComponentDrill
T2C0.800
; #@! TA.AperFunction,Plated,PTH,ComponentDrill
T3C1.000
%
G90
G05
T1
X5.038Y10.652
X5.038Y8.152
X7.172Y10.652
X7.172Y8.152
X19.135Y10.652
X19.135Y8.152
X21.269Y10.652
X21.269Y8.152
X33.232Y10.652
X33.232Y8.152
X35.366Y10.652
X35.366Y8.152
X47.329Y10.652
X47.329Y8.152
X49.463Y10.652
X49.463Y8.152
X61.426Y10.652
X61.426Y8.152
X63.56Y10.652
X63.56Y8.152
X75.523Y10.652
X75.523Y8.152
X77.657Y10.652
X77.657Y8.152
X89.62Y10.652
X89.62Y8.152
X91.754Y10.652
X91.754Y8.152
X103.717Y10.652
X103.717Y8.152
X105.851Y10.652
X105.851Y8.152
X117.814Y10.652
X117.814Y8.152
X119.948Y10.652
X119.948Y8.152
X131.911Y10.652
X131.911Y8.152
X134.045Y10.652
X134.045Y8.152
X146.008Y10.652
X146.008Y8.152
X148.142Y10.652
X148.142Y8.152
X160.105Y10.652
X160.105Y8.152
X162.239Y10.652
X162.239Y8.152
T2
X1.542Y11.648
X1.542Y1.488
X10.686Y11.648
X10.686Y1.488
X15.639Y11.648
X15.639Y1.488
X24.784Y11.648
X24.784Y1.488
X29.736Y11.648
X29.736Y1.488
X38.88Y11.648
X38.88Y1.488
X43.834Y11.648
X43.834Y1.488
X52.977Y11.648
X52.977Y1.488
X57.93Y11.648
X57.93Y1.488
X67.075Y11.648
X67.075Y1.488
X72.028Y11.648
X72.028Y1.488
X81.171Y11.648
X81.171Y1.488
X86.124Y11.648
X86.124Y1.488
X95.268Y11.648
X95.268Y1.488
X100.221Y11.648
X100.221Y1.488
X109.365Y11.648
X109.365Y1.488
X114.319Y11.648
X114.319Y1.488
X123.462Y11.648
X123.462Y1.488
X128.415Y11.648
X128.415Y1.488
X137.559Y11.648
X137.559Y1.488
X142.512Y11.648
X142.512Y1.488
X151.656Y11.648
X151.656Y1.488
X156.609Y11.648
X156.609Y1.488
X165.754Y11.648
X165.754Y1.488
T3
X82.43Y22.625
X84.97Y22.625
X87.51Y22.625
X90.05Y22.625
X92.59Y22.625
X95.13Y22.625
X97.67Y22.625
X100.21Y22.625
X102.75Y22.625
X105.29Y22.625
X107.83Y22.625
X110.37Y22.625
X112.91Y22.625
X115.45Y22.625
T0
M30
