%TF.GenerationSoftware,KiCad,Pcbnew,(6.0.7-1)-1*%
%TF.CreationDate,2024-02-03T15:38:48-05:00*%
%TF.ProjectId,EMHarpsichord_KeyboardCapture,454d4861-7270-4736-9963-686f72645f4b,rev?*%
%TF.SameCoordinates,Original*%
%TF.FileFunction,Copper,L1,Top*%
%TF.FilePolarity,Positive*%
%FSLAX46Y46*%
G04 Gerber Fmt 4.6, Leading zero omitted, Abs format (unit mm)*
G04 Created by KiCad (PCBNEW (6.0.7-1)-1) date 2024-02-03 15:38:48*
%MOMM*%
%LPD*%
G01*
G04 APERTURE LIST*
%TA.AperFunction,ComponentPad*%
%ADD10O,1.700000X1.700000*%
%TD*%
%TA.AperFunction,ComponentPad*%
%ADD11R,1.700000X1.700000*%
%TD*%
%TA.AperFunction,ComponentPad*%
%ADD12C,1.700000*%
%TD*%
%TA.AperFunction,ComponentPad*%
%ADD13C,1.400000*%
%TD*%
%TA.AperFunction,ComponentPad*%
%ADD14C,1.600000*%
%TD*%
%TA.AperFunction,ComponentPad*%
%ADD15O,1.600000X1.600000*%
%TD*%
%TA.AperFunction,Conductor*%
%ADD16C,1.500000*%
%TD*%
%TA.AperFunction,Conductor*%
%ADD17C,1.000000*%
%TD*%
%TA.AperFunction,Conductor*%
%ADD18C,0.500000*%
%TD*%
G04 APERTURE END LIST*
D10*
X115450000Y22625000D03*
D11*
X112910000Y22625000D03*
D10*
X110370000Y22625000D03*
X107830000Y22625000D03*
X105290000Y22625000D03*
X102750000Y22625000D03*
X100210000Y22625000D03*
X97670000Y22625000D03*
X95130000Y22625000D03*
X92590000Y22625000D03*
X90050000Y22625000D03*
X87510000Y22625000D03*
D12*
X84970000Y22625000D03*
X82430000Y22625000D03*
D13*
X5038151Y8151705D03*
X5038151Y10651705D03*
X7171751Y10651705D03*
X7171751Y8151705D03*
D14*
X1542500Y11648000D03*
D15*
X1542500Y1488000D03*
D14*
X10686500Y11648000D03*
D15*
X10686500Y1488000D03*
D13*
X160105151Y8151705D03*
X160105151Y10651705D03*
X162238751Y10651705D03*
X162238751Y8151705D03*
D14*
X156609500Y11648000D03*
D15*
X156609500Y1488000D03*
D14*
X165753500Y11648000D03*
D15*
X165753500Y1488000D03*
D13*
X146008151Y8151705D03*
X146008151Y10651705D03*
X148141751Y10651705D03*
X148141751Y8151705D03*
D14*
X142512500Y11648000D03*
D15*
X142512500Y1488000D03*
D14*
X151656500Y11648000D03*
D15*
X151656500Y1488000D03*
D13*
X131911151Y8151705D03*
X131911151Y10651705D03*
X134044751Y10651705D03*
X134044751Y8151705D03*
D14*
X128415500Y11648000D03*
D15*
X128415500Y1488000D03*
D14*
X137559500Y11648000D03*
D15*
X137559500Y1488000D03*
D13*
X117814151Y8151705D03*
X117814151Y10651705D03*
X119947751Y10651705D03*
X119947751Y8151705D03*
D14*
X114318500Y11648000D03*
D15*
X114318500Y1488000D03*
D14*
X123462500Y11648000D03*
D15*
X123462500Y1488000D03*
D13*
X103717151Y8151705D03*
X103717151Y10651705D03*
X105850751Y10651705D03*
X105850751Y8151705D03*
D14*
X100221500Y11648000D03*
D15*
X100221500Y1488000D03*
D14*
X109365500Y11648000D03*
D15*
X109365500Y1488000D03*
D13*
X89620151Y8151705D03*
X89620151Y10651705D03*
X91753751Y10651705D03*
X91753751Y8151705D03*
D14*
X86124500Y11648000D03*
D15*
X86124500Y1488000D03*
D14*
X95268500Y11648000D03*
D15*
X95268500Y1488000D03*
D13*
X75523151Y8151705D03*
X75523151Y10651705D03*
X77656751Y10651705D03*
X77656751Y8151705D03*
D14*
X72027500Y11648000D03*
D15*
X72027500Y1488000D03*
D14*
X81171500Y11648000D03*
D15*
X81171500Y1488000D03*
D13*
X61426151Y8151705D03*
X61426151Y10651705D03*
X63559751Y10651705D03*
X63559751Y8151705D03*
D14*
X57930500Y11648000D03*
D15*
X57930500Y1488000D03*
D14*
X67074500Y11648000D03*
D15*
X67074500Y1488000D03*
D13*
X47329151Y8151705D03*
X47329151Y10651705D03*
X49462751Y10651705D03*
X49462751Y8151705D03*
D14*
X43833500Y11648000D03*
D15*
X43833500Y1488000D03*
D14*
X52977500Y11648000D03*
D15*
X52977500Y1488000D03*
D13*
X35365751Y8151705D03*
X35365751Y10651705D03*
X33232151Y10651705D03*
X33232151Y8151705D03*
D14*
X29736500Y11648000D03*
D15*
X29736500Y1488000D03*
D14*
X38880500Y11648000D03*
D15*
X38880500Y1488000D03*
D13*
X19135151Y8151705D03*
X19135151Y10651705D03*
X21268751Y10651705D03*
X21268751Y8151705D03*
D14*
X15639500Y11648000D03*
D15*
X15639500Y1488000D03*
D14*
X24783500Y11648000D03*
D15*
X24783500Y1488000D03*
D16*
X115935000Y23110000D02*
X165460000Y23110000D01*
X165460000Y23110000D02*
X170750000Y17820000D01*
X170750000Y17820000D02*
X170750000Y5600000D01*
X115450000Y22625000D02*
X115935000Y23110000D01*
X168520000Y3370000D02*
X165840000Y3370000D01*
X170750000Y5600000D02*
X168520000Y3370000D01*
X112910000Y22625000D02*
X112910000Y21340000D01*
X166260000Y5590000D02*
X161985000Y5590000D01*
X113640000Y20610000D02*
X164150000Y20610000D01*
X164150000Y20610000D02*
X167910000Y16850000D01*
X167910000Y16850000D02*
X167910000Y7240000D01*
X112910000Y21340000D02*
X113640000Y20610000D01*
X167910000Y7240000D02*
X166260000Y5590000D01*
D17*
X110370000Y22625000D02*
X110370000Y20157000D01*
X110370000Y20157000D02*
X111847000Y18680000D01*
X111847000Y18680000D02*
X149577500Y18680000D01*
X149577500Y18680000D02*
X156609500Y11648000D01*
X142512500Y11648000D02*
X137290500Y16870000D01*
X137290500Y16870000D02*
X109808000Y16870000D01*
X107830000Y18848000D02*
X107830000Y22625000D01*
X109808000Y16870000D02*
X107830000Y18848000D01*
X128415500Y11648000D02*
X126681000Y11648000D01*
X126681000Y11648000D02*
X123099000Y15230000D01*
X107479000Y15230000D02*
X105290000Y17419000D01*
X123099000Y15230000D02*
X107479000Y15230000D01*
X105290000Y17419000D02*
X105290000Y22625000D01*
X102750000Y22625000D02*
X102750000Y16520000D01*
X102750000Y16520000D02*
X105760000Y13510000D01*
X105760000Y13510000D02*
X112455856Y13510000D01*
X112455856Y13510000D02*
X114318500Y11647356D01*
X35365751Y8151705D02*
X35365751Y5770751D01*
X35365751Y5770751D02*
X35185000Y5590000D01*
X72027500Y11647356D02*
X74625979Y14245835D01*
X74625979Y14245835D02*
X86750835Y14245835D01*
X86750835Y14245835D02*
X95130000Y22625000D01*
X57930500Y11647356D02*
X62204812Y15921668D01*
X62204812Y15921668D02*
X85886668Y15921668D01*
X85886668Y15921668D02*
X92590000Y22625000D01*
X43833500Y11647356D02*
X49783645Y17597501D01*
X49783645Y17597501D02*
X85022501Y17597501D01*
X85022501Y17597501D02*
X90050000Y22625000D01*
X29736500Y11648000D02*
X37361834Y19273334D01*
X37361834Y19273334D02*
X84158334Y19273334D01*
X84158334Y19273334D02*
X87510000Y22625000D01*
X15639500Y11648000D02*
X24940667Y20949167D01*
X24940667Y20949167D02*
X83294167Y20949167D01*
X83294167Y20949167D02*
X84970000Y22625000D01*
X86124500Y11648000D02*
X87046500Y12570000D01*
X87046500Y12570000D02*
X87615000Y12570000D01*
X87615000Y12570000D02*
X97670000Y22625000D01*
X100210000Y22625000D02*
X100210000Y11659500D01*
X100210000Y11659500D02*
X100221500Y11648000D01*
X1542500Y11648000D02*
X12519500Y22625000D01*
X12519500Y22625000D02*
X82430000Y22625000D01*
X162238751Y8151705D02*
X162238751Y5843751D01*
X162238751Y5843751D02*
X161985000Y5590000D01*
X148141751Y8151705D02*
X148141751Y5983249D01*
X148141751Y5983249D02*
X148116751Y5958249D01*
X134044751Y8151705D02*
X134044751Y5649751D01*
X134044751Y5649751D02*
X133985000Y5590000D01*
X119947751Y8151705D02*
X119947751Y5807249D01*
X119947751Y5807249D02*
X119922751Y5782249D01*
X105850751Y8151705D02*
X105850751Y5854249D01*
X105850751Y5854249D02*
X105825751Y5829249D01*
X91753751Y8151705D02*
X91753751Y5911249D01*
X91753751Y5911249D02*
X91728751Y5886249D01*
X77656751Y8151705D02*
X77656751Y5631751D01*
X77656751Y5631751D02*
X77615000Y5590000D01*
X63559751Y8151705D02*
X63559751Y5785249D01*
X63559751Y5785249D02*
X63534751Y5760249D01*
X49462751Y8151705D02*
X49462751Y5727751D01*
X49462751Y5727751D02*
X49325000Y5590000D01*
X21268751Y8151705D02*
X21268751Y5743751D01*
X21268751Y5743751D02*
X21115000Y5590000D01*
X7171751Y8151705D02*
X9733456Y5590000D01*
D16*
X9733456Y5590000D02*
X21115000Y5590000D01*
X21115000Y5590000D02*
X25145000Y5590000D01*
D17*
X165753500Y11648000D02*
X164755500Y10650000D01*
X164755500Y10650000D02*
X162240456Y10650000D01*
X162240456Y10650000D02*
X162238751Y10651705D01*
X151656500Y11648000D02*
X150658500Y10650000D01*
X150658500Y10650000D02*
X148143456Y10650000D01*
X148143456Y10650000D02*
X148141751Y10651705D01*
D16*
X151825000Y5590000D02*
X161985000Y5590000D01*
D17*
X160105151Y10651705D02*
X160105151Y10494849D01*
X162238751Y8361249D02*
X162238751Y8151705D01*
X160105151Y10494849D02*
X162238751Y8361249D01*
X146008151Y10651705D02*
X146008151Y10481849D01*
X146008151Y10481849D02*
X148141751Y8348249D01*
X148141751Y8348249D02*
X148141751Y8151705D01*
D16*
X137315000Y5590000D02*
X148485000Y5590000D01*
X148485000Y5590000D02*
X151825000Y5590000D01*
D17*
X148116751Y5958249D02*
X148485000Y5590000D01*
D16*
X124125000Y5590000D02*
X133985000Y5590000D01*
X133985000Y5590000D02*
X137315000Y5590000D01*
D17*
X131911151Y10651705D02*
X131911151Y10508849D01*
X131911151Y10508849D02*
X134044751Y8375249D01*
X134044751Y8375249D02*
X134044751Y8151705D01*
D16*
X109615000Y5590000D02*
X120115000Y5590000D01*
X120115000Y5590000D02*
X124125000Y5590000D01*
D17*
X119922751Y5782249D02*
X120115000Y5590000D01*
X117814151Y10651705D02*
X117814151Y10435849D01*
X117814151Y10435849D02*
X119947751Y8302249D01*
X119947751Y8302249D02*
X119947751Y8151705D01*
D16*
X96035000Y5590000D02*
X106065000Y5590000D01*
X106065000Y5590000D02*
X109615000Y5590000D01*
D17*
X105825751Y5829249D02*
X106065000Y5590000D01*
X103717151Y10651705D02*
X103717151Y10482849D01*
X103717151Y10482849D02*
X105850751Y8349249D01*
X105850751Y8349249D02*
X105850751Y8151705D01*
D16*
X82235000Y5590000D02*
X92025000Y5590000D01*
X92025000Y5590000D02*
X96035000Y5590000D01*
D17*
X91728751Y5886249D02*
X92025000Y5590000D01*
X89620151Y10651705D02*
X89620151Y10469849D01*
X89620151Y10469849D02*
X91753751Y8336249D01*
X91753751Y8336249D02*
X91753751Y8151705D01*
D16*
X67245000Y5590000D02*
X77615000Y5590000D01*
X77615000Y5590000D02*
X82235000Y5590000D01*
D17*
X75523151Y10651705D02*
X75523151Y10526849D01*
X77656751Y8393249D02*
X77656751Y8151705D01*
X75523151Y10526849D02*
X77656751Y8393249D01*
X61426151Y10651705D02*
X61426151Y10573849D01*
X61426151Y10573849D02*
X63559751Y8440249D01*
X63559751Y8440249D02*
X63559751Y8151705D01*
X47329151Y10651705D02*
X47329151Y10470849D01*
X47329151Y10470849D02*
X49462751Y8337249D01*
X49462751Y8337249D02*
X49462751Y8151705D01*
X33232151Y10651705D02*
X33232151Y10457849D01*
X33232151Y10457849D02*
X35365751Y8324249D01*
X35365751Y8324249D02*
X35365751Y8151705D01*
X19135151Y10651705D02*
X19135151Y10374849D01*
X19135151Y10374849D02*
X21268751Y8241249D01*
X21268751Y8241249D02*
X21268751Y8151705D01*
X5038151Y10651705D02*
X5038151Y10541849D01*
X5038151Y10541849D02*
X7171751Y8408249D01*
X7171751Y8408249D02*
X7171751Y8151705D01*
D16*
X38805000Y5590000D02*
X49325000Y5590000D01*
X49325000Y5590000D02*
X53155000Y5590000D01*
X53155000Y5590000D02*
X63705000Y5590000D01*
D17*
X63534751Y5760249D02*
X63705000Y5590000D01*
D16*
X63705000Y5590000D02*
X67245000Y5590000D01*
D17*
X49462751Y8151705D02*
X49628295Y8151705D01*
D16*
X25145000Y5590000D02*
X35185000Y5590000D01*
X35185000Y5590000D02*
X38805000Y5590000D01*
D17*
X156609500Y11647356D02*
X160105151Y8151705D01*
D16*
X165840000Y3370000D02*
X158640000Y3370000D01*
D17*
X165840000Y3370000D02*
X165753500Y3283500D01*
X165753500Y3283500D02*
X165753500Y1488000D01*
D16*
X156780000Y3370000D02*
X153310000Y3370000D01*
X158640000Y3370000D02*
X156780000Y3370000D01*
D17*
X156780000Y3370000D02*
X156609500Y3199500D01*
X156609500Y3199500D02*
X156609500Y1488000D01*
D16*
X151730000Y3370000D02*
X144330000Y3370000D01*
X153310000Y3370000D02*
X151730000Y3370000D01*
D17*
X151730000Y3370000D02*
X151656500Y3296500D01*
X151656500Y3296500D02*
X151656500Y1488000D01*
D16*
X142480000Y3370000D02*
X139730000Y3370000D01*
X144330000Y3370000D02*
X142480000Y3370000D01*
D17*
X142480000Y3370000D02*
X142512500Y3337500D01*
X142512500Y3337500D02*
X142512500Y1488000D01*
D16*
X137730000Y3370000D02*
X130380000Y3370000D01*
X139730000Y3370000D02*
X137730000Y3370000D01*
D17*
X137730000Y3370000D02*
X137559500Y3199500D01*
X137559500Y3199500D02*
X137559500Y1488000D01*
D16*
X128560000Y3370000D02*
X125280000Y3370000D01*
X130380000Y3370000D02*
X128560000Y3370000D01*
D17*
X128560000Y3370000D02*
X128415500Y3225500D01*
X128415500Y3225500D02*
X128415500Y1488000D01*
D16*
X123330000Y3370000D02*
X116510000Y3370000D01*
X125280000Y3370000D02*
X123330000Y3370000D01*
D17*
X123330000Y3370000D02*
X123462500Y3237500D01*
X123462500Y3237500D02*
X123462500Y1488000D01*
D16*
X114250000Y3370000D02*
X112100000Y3370000D01*
D17*
X114250000Y3370000D02*
X114318500Y3301500D01*
D16*
X116510000Y3370000D02*
X114250000Y3370000D01*
D17*
X114318500Y3301500D02*
X114318500Y1488000D01*
D16*
X109210000Y3370000D02*
X102320000Y3370000D01*
X112100000Y3370000D02*
X109210000Y3370000D01*
D17*
X109210000Y3370000D02*
X109365500Y3214500D01*
X109365500Y3214500D02*
X109365500Y1488000D01*
D16*
X100220000Y3370000D02*
X97100000Y3370000D01*
X102320000Y3370000D02*
X100220000Y3370000D01*
D17*
X100220000Y3370000D02*
X100221500Y3368500D01*
X100221500Y3368500D02*
X100221500Y1488000D01*
D16*
X95660000Y3370000D02*
X88380000Y3370000D01*
X97100000Y3370000D02*
X95660000Y3370000D01*
D17*
X95660000Y3370000D02*
X95268500Y2978500D01*
X95268500Y2978500D02*
X95268500Y1488000D01*
D16*
X86030000Y3370000D02*
X83050000Y3370000D01*
X88380000Y3370000D02*
X86030000Y3370000D01*
D17*
X86030000Y3370000D02*
X86124500Y3275500D01*
X86124500Y3275500D02*
X86124500Y1488000D01*
D16*
X81400000Y3370000D02*
X73850000Y3370000D01*
D17*
X81400000Y3370000D02*
X81171500Y3141500D01*
D16*
X83050000Y3370000D02*
X81400000Y3370000D01*
D17*
X81171500Y3141500D02*
X81171500Y1488000D01*
D16*
X72030000Y3370000D02*
X68960000Y3370000D01*
X73850000Y3370000D02*
X72030000Y3370000D01*
D17*
X72027500Y3367500D02*
X72027500Y1488000D01*
X72030000Y3370000D02*
X72027500Y3367500D01*
D16*
X67140000Y3370000D02*
X59950000Y3370000D01*
D17*
X67074500Y3304500D02*
X67074500Y1488000D01*
D16*
X68960000Y3370000D02*
X67140000Y3370000D01*
D17*
X67140000Y3370000D02*
X67074500Y3304500D01*
D16*
X57840000Y3370000D02*
X54730000Y3370000D01*
X59950000Y3370000D02*
X57840000Y3370000D01*
D17*
X57840000Y3370000D02*
X57930500Y3279500D01*
X57930500Y3279500D02*
X57930500Y1488000D01*
D16*
X52930000Y3370000D02*
X46350000Y3370000D01*
X54730000Y3370000D02*
X52930000Y3370000D01*
D17*
X52930000Y3370000D02*
X52977500Y3322500D01*
X52977500Y3322500D02*
X52977500Y1488000D01*
D16*
X43960000Y3370000D02*
X41510000Y3370000D01*
X46350000Y3370000D02*
X43960000Y3370000D01*
D17*
X43833500Y3243500D02*
X43833500Y1488000D01*
X43960000Y3370000D02*
X43833500Y3243500D01*
D16*
X39080000Y3370000D02*
X31540000Y3370000D01*
X41510000Y3370000D02*
X39080000Y3370000D01*
D17*
X39080000Y3370000D02*
X38880500Y3170500D01*
X38880500Y3170500D02*
X38880500Y1488000D01*
D16*
X29790000Y3370000D02*
X26450000Y3370000D01*
X31540000Y3370000D02*
X29790000Y3370000D01*
D17*
X29790000Y3370000D02*
X29736500Y3316500D01*
X29736500Y3316500D02*
X29736500Y1488000D01*
D16*
X24650000Y3370000D02*
X17970000Y3370000D01*
D17*
X24650000Y3370000D02*
X24783500Y3236500D01*
D16*
X26450000Y3370000D02*
X24650000Y3370000D01*
D17*
X24783500Y3236500D02*
X24783500Y1488000D01*
D16*
X15880000Y3370000D02*
X12730000Y3370000D01*
X17970000Y3370000D02*
X15880000Y3370000D01*
D17*
X15639500Y3129500D02*
X15639500Y1488000D01*
X15880000Y3370000D02*
X15639500Y3129500D01*
D16*
X10410000Y3370000D02*
X3424500Y3370000D01*
X12730000Y3370000D02*
X10410000Y3370000D01*
D17*
X10410000Y3370000D02*
X10686500Y3093500D01*
X10686500Y3093500D02*
X10686500Y1488000D01*
D16*
X3424500Y3370000D02*
X1542500Y1488000D01*
D18*
X83050000Y3366500D02*
X83050000Y3370000D01*
D16*
X158491500Y3370000D02*
X158640000Y3370000D01*
D18*
X153310000Y3141500D02*
X153310000Y3370000D01*
X144330000Y3305500D02*
X144330000Y3370000D01*
X139441500Y3370000D02*
X139730000Y3370000D01*
X130297500Y3370000D02*
X130380000Y3370000D01*
X125280000Y3305500D02*
X125280000Y3370000D01*
X116200500Y3370000D02*
X116510000Y3370000D01*
D16*
X111247500Y3370000D02*
X112100000Y3370000D01*
D18*
X102103500Y3370000D02*
X102320000Y3370000D01*
X97100000Y3319500D02*
X97100000Y3370000D01*
X88006500Y3370000D02*
X88380000Y3370000D01*
X73850000Y3310500D02*
X73850000Y3370000D01*
X68956500Y3370000D02*
X68960000Y3370000D01*
X59812500Y3370000D02*
X59950000Y3370000D01*
X54730000Y3240500D02*
X54730000Y3370000D01*
X45715500Y3370000D02*
X46350000Y3370000D01*
D17*
X40762500Y3370000D02*
X41510000Y3370000D01*
D18*
X31540000Y3291500D02*
X31540000Y3370000D01*
X26450000Y3154500D02*
X26450000Y3370000D01*
X17521500Y3370000D02*
X17970000Y3370000D01*
X151825000Y5653456D02*
X151825000Y5590000D01*
X123694456Y5590000D02*
X124125000Y5590000D01*
X109597456Y5590000D02*
X109615000Y5590000D01*
X95500456Y5590000D02*
X96035000Y5590000D01*
X81403456Y5590000D02*
X82235000Y5590000D01*
X67245000Y5651456D02*
X67245000Y5590000D01*
X53155000Y5644456D02*
X53155000Y5590000D01*
X38805000Y5897456D02*
X38805000Y5590000D01*
X25015456Y5590000D02*
X25145000Y5590000D01*
D17*
X7171751Y10651705D02*
X9690205Y10651705D01*
X9690205Y10651705D02*
X10686500Y11648000D01*
X1542500Y11647356D02*
X5038151Y8151705D01*
D18*
X1542500Y11648000D02*
X1542500Y11647356D01*
X156609500Y11648000D02*
X156609500Y11647356D01*
X142512500Y11647356D02*
X146008151Y8151705D01*
X142512500Y11648000D02*
X142512500Y11647356D01*
D17*
X134044751Y10651705D02*
X136563205Y10651705D01*
X136563205Y10651705D02*
X137559500Y11648000D01*
X128415500Y11647356D02*
X131911151Y8151705D01*
D18*
X128415500Y11648000D02*
X128415500Y11647356D01*
D17*
X119947751Y10651705D02*
X122466205Y10651705D01*
X122466205Y10651705D02*
X123462500Y11648000D01*
X114318500Y11647356D02*
X117814151Y8151705D01*
D18*
X114318500Y11648000D02*
X114318500Y11647356D01*
D17*
X105850751Y10651705D02*
X108369205Y10651705D01*
X108369205Y10651705D02*
X109365500Y11648000D01*
X100221500Y11647356D02*
X103717151Y8151705D01*
D18*
X100221500Y11648000D02*
X100221500Y11647356D01*
D17*
X91753751Y10651705D02*
X94272205Y10651705D01*
X94272205Y10651705D02*
X95268500Y11648000D01*
X86124500Y11647356D02*
X89620151Y8151705D01*
D18*
X86124500Y11648000D02*
X86124500Y11647356D01*
D17*
X77656751Y10651705D02*
X80175205Y10651705D01*
X80175205Y10651705D02*
X81171500Y11648000D01*
X72027500Y11647356D02*
X75523151Y8151705D01*
D18*
X72027500Y11648000D02*
X72027500Y11647356D01*
D17*
X63559751Y10651705D02*
X66078205Y10651705D01*
X66078205Y10651705D02*
X67074500Y11648000D01*
X57930500Y11647356D02*
X61426151Y8151705D01*
D18*
X57930500Y11648000D02*
X57930500Y11647356D01*
D17*
X49462751Y10651705D02*
X51981205Y10651705D01*
X51981205Y10651705D02*
X52977500Y11648000D01*
X43833500Y11647356D02*
X47329151Y8151705D01*
D18*
X43833500Y11648000D02*
X43833500Y11647356D01*
D17*
X35365751Y10651705D02*
X37884205Y10651705D01*
X37884205Y10651705D02*
X38880500Y11648000D01*
X29736500Y11647356D02*
X33232151Y8151705D01*
X29736500Y11648000D02*
X29736500Y11647356D01*
X21268751Y10651705D02*
X23787205Y10651705D01*
X23787205Y10651705D02*
X24783500Y11648000D01*
X15639500Y11647356D02*
X19135151Y8151705D01*
D18*
X15639500Y11648000D02*
X15639500Y11647356D01*
M02*
