%TF.GenerationSoftware,KiCad,Pcbnew,(6.0.7-1)-1*%
%TF.CreationDate,2023-09-21T22:33:58-04:00*%
%TF.ProjectId,EMHarpsichord_Stage1,454d4861-7270-4736-9963-686f72645f53,rev?*%
%TF.SameCoordinates,Original*%
%TF.FileFunction,Copper,L2,Bot*%
%TF.FilePolarity,Positive*%
%FSLAX46Y46*%
G04 Gerber Fmt 4.6, Leading zero omitted, Abs format (unit mm)*
G04 Created by KiCad (PCBNEW (6.0.7-1)-1) date 2023-09-21 22:33:58*
%MOMM*%
%LPD*%
G01*
G04 APERTURE LIST*
G04 Aperture macros list*
%AMRoundRect*
0 Rectangle with rounded corners*
0 $1 Rounding radius*
0 $2 $3 $4 $5 $6 $7 $8 $9 X,Y pos of 4 corners*
0 Add a 4 corners polygon primitive as box body*
4,1,4,$2,$3,$4,$5,$6,$7,$8,$9,$2,$3,0*
0 Add four circle primitives for the rounded corners*
1,1,$1+$1,$2,$3*
1,1,$1+$1,$4,$5*
1,1,$1+$1,$6,$7*
1,1,$1+$1,$8,$9*
0 Add four rect primitives between the rounded corners*
20,1,$1+$1,$2,$3,$4,$5,0*
20,1,$1+$1,$4,$5,$6,$7,0*
20,1,$1+$1,$6,$7,$8,$9,0*
20,1,$1+$1,$8,$9,$2,$3,0*%
G04 Aperture macros list end*
%TA.AperFunction,ComponentPad*%
%ADD10C,2.000000*%
%TD*%
%TA.AperFunction,ComponentPad*%
%ADD11C,1.700000*%
%TD*%
%TA.AperFunction,ComponentPad*%
%ADD12O,1.700000X1.700000*%
%TD*%
%TA.AperFunction,ComponentPad*%
%ADD13C,3.500000*%
%TD*%
%TA.AperFunction,ComponentPad*%
%ADD14R,1.700000X1.700000*%
%TD*%
%TA.AperFunction,ComponentPad*%
%ADD15RoundRect,0.250000X-0.725000X0.600000X-0.725000X-0.600000X0.725000X-0.600000X0.725000X0.600000X0*%
%TD*%
%TA.AperFunction,ComponentPad*%
%ADD16O,1.950000X1.700000*%
%TD*%
%TA.AperFunction,ComponentPad*%
%ADD17C,7.000000*%
%TD*%
%TA.AperFunction,ComponentPad*%
%ADD18C,1.600000*%
%TD*%
%TA.AperFunction,ComponentPad*%
%ADD19RoundRect,0.249700X-0.300300X-0.500300X0.300300X-0.500300X0.300300X0.500300X-0.300300X0.500300X0*%
%TD*%
%TA.AperFunction,ComponentPad*%
%ADD20O,1.100000X1.500000*%
%TD*%
%TA.AperFunction,ViaPad*%
%ADD21C,0.800000*%
%TD*%
%TA.AperFunction,Conductor*%
%ADD22C,0.250000*%
%TD*%
G04 APERTURE END LIST*
D10*
%TO.P,TP4,1,1*%
%TO.N,optical_out*%
X152781000Y-116205000D03*
%TD*%
D11*
%TO.P,J2,1,Pin_1*%
%TO.N,Net-(C18-Pad2)*%
X173957000Y-113091000D03*
D12*
%TO.P,J2,2,Pin_2*%
%TO.N,Net-(C17-Pad2)*%
X173957000Y-110551000D03*
%TO.P,J2,3,Pin_3*%
%TO.N,Net-(C16-Pad2)*%
X173957000Y-108011000D03*
%TO.P,J2,4,Pin_4*%
%TO.N,Net-(C15-Pad2)*%
X173957000Y-105471000D03*
%TD*%
D10*
%TO.P,TP1,1,1*%
%TO.N,Net-(C2-Pad1)*%
X135636000Y-116078000D03*
%TD*%
D13*
%TO.P,,1,1*%
%TO.N,GND*%
X127762000Y-118300500D03*
%TD*%
D14*
%TO.P,J1,1,Pin_1*%
%TO.N,GND*%
X172324000Y-97663000D03*
D12*
%TO.P,J1,2,Pin_2*%
%TO.N,Net-(U3-Pad5)*%
X169784000Y-97663000D03*
%TO.P,J1,3,Pin_3*%
%TO.N,Net-(R10-Pad2)*%
X167244000Y-97663000D03*
%TD*%
D10*
%TO.P,TP3,1,1*%
%TO.N,Net-(R6-Pad1)*%
X148717000Y-116205000D03*
%TD*%
D13*
%TO.P,,1,1*%
%TO.N,GND*%
X127635000Y-95885000D03*
%TD*%
D15*
%TO.P,J3,1,Pin_1*%
%TO.N,+5V*%
X182135000Y-98465000D03*
D16*
%TO.P,J3,2,Pin_2*%
%TO.N,aux_in*%
X182135000Y-100965000D03*
%TO.P,J3,3,Pin_3*%
%TO.N,GND*%
X182135000Y-103465000D03*
%TD*%
D17*
%TO.P,TP6,1,1*%
%TO.N,GND*%
X181864000Y-110998000D03*
%TD*%
D13*
%TO.P,,1,1*%
%TO.N,GND*%
X183896000Y-118046500D03*
%TD*%
D10*
%TO.P,TP2,1,1*%
%TO.N,aux_in*%
X149987000Y-97409000D03*
%TD*%
D18*
%TO.P,U1,*%
%TO.N,*%
X128932000Y-111841000D03*
X128932000Y-109341000D03*
D19*
%TO.P,U1,1,K*%
%TO.N,GND*%
X126432000Y-111841000D03*
D20*
%TO.P,U1,2,A*%
%TO.N,Net-(R1-Pad2)*%
X126432000Y-109341000D03*
%TO.P,U1,3,C*%
%TO.N,Net-(C2-Pad1)*%
X131432000Y-109341000D03*
%TO.P,U1,4,E*%
%TO.N,GND*%
X131432000Y-111841000D03*
%TD*%
D21*
%TO.N,+5V*%
X157757000Y-101791000D03*
X158369000Y-116205000D03*
X157757000Y-100791000D03*
X159766000Y-117729000D03*
X158857000Y-101791000D03*
X158857000Y-100791000D03*
X158369000Y-117729000D03*
%TO.N,GND*%
X145542000Y-96393000D03*
X153416000Y-100838000D03*
X156718000Y-109474000D03*
X139065000Y-96393000D03*
X137957000Y-111691000D03*
X166624000Y-118618000D03*
X174371000Y-103505000D03*
X154686000Y-101981000D03*
X137668000Y-105664000D03*
X182372000Y-106172000D03*
X152146000Y-101981000D03*
X145034000Y-104140000D03*
X144272000Y-96393000D03*
X150876000Y-101981000D03*
X166624000Y-101727000D03*
X138049000Y-116967000D03*
X141859000Y-116967000D03*
X139319000Y-116967000D03*
X143002000Y-96393000D03*
X153416000Y-101981000D03*
X162941000Y-116205000D03*
X152146000Y-100838000D03*
X171704000Y-101727000D03*
X167894000Y-100203000D03*
X171704000Y-100203000D03*
X143129000Y-116967000D03*
X165354000Y-118618000D03*
X172974000Y-101727000D03*
X147574000Y-107696000D03*
X162814000Y-118618000D03*
X141605000Y-96393000D03*
X170434000Y-101727000D03*
X151511000Y-107696000D03*
X172974000Y-100203000D03*
X139954000Y-104140000D03*
X181102000Y-106172000D03*
X164084000Y-118618000D03*
X137795000Y-96393000D03*
X167894000Y-101727000D03*
X161544000Y-118618000D03*
X144399000Y-116967000D03*
X140335000Y-96393000D03*
X155957000Y-102991000D03*
X183642000Y-106172000D03*
X150876000Y-100838000D03*
X163576000Y-102997000D03*
X166624000Y-100203000D03*
X169164000Y-101727000D03*
X170434000Y-100203000D03*
X179832000Y-106172000D03*
X154686000Y-100838000D03*
X146812000Y-96393000D03*
X168656000Y-110109000D03*
X167894000Y-118618000D03*
X140589000Y-116967000D03*
X169164000Y-100203000D03*
%TO.N,aux_in*%
X151892000Y-95504000D03*
%TO.N,Net-(U3-Pad5)*%
X160020000Y-108204000D03*
X161417000Y-98044000D03*
%TD*%
D22*
%TO.N,aux_in*%
X149987000Y-97409000D02*
X151892000Y-95504000D01*
%TO.N,Net-(U3-Pad5)*%
X160401000Y-107823000D02*
X160020000Y-108204000D01*
X160401000Y-99060000D02*
X160401000Y-107823000D01*
X161417000Y-98044000D02*
X160401000Y-99060000D01*
%TD*%
%TA.AperFunction,Conductor*%
%TO.N,+5V*%
G36*
X160470121Y-115463002D02*
G01*
X160516614Y-115516658D01*
X160528000Y-115569000D01*
X160528000Y-118111000D01*
X160507998Y-118179121D01*
X160454342Y-118225614D01*
X160402000Y-118237000D01*
X157987000Y-118237000D01*
X157918879Y-118216998D01*
X157872386Y-118163342D01*
X157861000Y-118111000D01*
X157861000Y-115443000D01*
X160402000Y-115443000D01*
X160470121Y-115463002D01*
G37*
%TD.AperFunction*%
%TD*%
%TA.AperFunction,Conductor*%
%TO.N,+5V*%
G36*
X159708121Y-100096002D02*
G01*
X159754614Y-100149658D01*
X159766000Y-100202000D01*
X159766000Y-107240786D01*
X159745998Y-107308907D01*
X159691248Y-107355893D01*
X159569281Y-107410195D01*
X159569274Y-107410199D01*
X159563248Y-107412882D01*
X159408747Y-107525134D01*
X159280960Y-107667056D01*
X159185473Y-107832444D01*
X159126458Y-108014072D01*
X159125768Y-108020633D01*
X159125768Y-108020635D01*
X159121835Y-108058060D01*
X159106496Y-108204000D01*
X159126458Y-108393928D01*
X159185473Y-108575556D01*
X159280960Y-108740944D01*
X159408747Y-108882866D01*
X159563248Y-108995118D01*
X159569274Y-108997801D01*
X159569281Y-108997805D01*
X159691248Y-109052107D01*
X159745344Y-109098087D01*
X159766000Y-109167214D01*
X159766000Y-116840000D01*
X160528000Y-116840000D01*
X160528000Y-118111000D01*
X160507998Y-118179121D01*
X160454342Y-118225614D01*
X160402000Y-118237000D01*
X157987000Y-118237000D01*
X157918879Y-118216998D01*
X157872386Y-118163342D01*
X157861000Y-118111000D01*
X157861000Y-102870000D01*
X156971000Y-102870000D01*
X156902879Y-102849998D01*
X156856386Y-102796342D01*
X156845000Y-102744000D01*
X156845000Y-100202000D01*
X156865002Y-100133879D01*
X156918658Y-100087386D01*
X156971000Y-100076000D01*
X159640000Y-100076000D01*
X159708121Y-100096002D01*
G37*
%TD.AperFunction*%
%TD*%
%TA.AperFunction,Conductor*%
%TO.N,GND*%
G36*
X183866018Y-93855000D02*
G01*
X183880851Y-93857310D01*
X183880855Y-93857310D01*
X183889724Y-93858691D01*
X183898626Y-93857527D01*
X183898629Y-93857527D01*
X183906012Y-93856561D01*
X183930591Y-93855767D01*
X183957442Y-93857527D01*
X184152922Y-93870340D01*
X184169262Y-93872491D01*
X184291478Y-93896801D01*
X184413696Y-93921112D01*
X184429606Y-93925375D01*
X184665600Y-94005484D01*
X184680826Y-94011791D01*
X184904342Y-94122016D01*
X184918616Y-94130257D01*
X185125829Y-94268713D01*
X185138905Y-94278746D01*
X185326278Y-94443068D01*
X185337932Y-94454722D01*
X185502254Y-94642095D01*
X185512287Y-94655171D01*
X185650743Y-94862384D01*
X185658984Y-94876658D01*
X185769209Y-95100174D01*
X185775515Y-95115398D01*
X185855625Y-95351394D01*
X185859889Y-95367307D01*
X185908509Y-95611738D01*
X185910660Y-95628078D01*
X185924763Y-95843236D01*
X185923733Y-95866350D01*
X185923690Y-95869854D01*
X185922309Y-95878724D01*
X185923473Y-95887626D01*
X185923473Y-95887628D01*
X185926436Y-95910283D01*
X185927500Y-95926621D01*
X185927500Y-109755820D01*
X185907498Y-109823941D01*
X185853842Y-109870434D01*
X185783568Y-109880538D01*
X185718988Y-109851044D01*
X185682801Y-109798087D01*
X185567676Y-109474779D01*
X185565333Y-109469095D01*
X185401362Y-109120637D01*
X185398473Y-109115203D01*
X185201283Y-108784415D01*
X185197875Y-108779285D01*
X184969340Y-108469309D01*
X184965452Y-108464542D01*
X184875973Y-108365165D01*
X184862450Y-108356834D01*
X184862374Y-108356835D01*
X184853088Y-108362465D01*
X182230365Y-110985188D01*
X182222751Y-110999132D01*
X182222882Y-111000965D01*
X182227133Y-111007580D01*
X184852946Y-113633393D01*
X184866890Y-113641007D01*
X184867905Y-113640935D01*
X184875636Y-113635832D01*
X184893516Y-113617057D01*
X184897526Y-113612411D01*
X185134612Y-113308955D01*
X185138184Y-113303892D01*
X185344520Y-112978757D01*
X185347563Y-112973401D01*
X185521198Y-112629663D01*
X185523706Y-112624028D01*
X185662964Y-112264999D01*
X185664913Y-112259140D01*
X185680142Y-112204595D01*
X185717726Y-112144363D01*
X185781908Y-112114012D01*
X185852310Y-112123178D01*
X185906581Y-112168952D01*
X185927500Y-112238479D01*
X185927500Y-116621596D01*
X185907498Y-116689717D01*
X185853842Y-116736210D01*
X185783568Y-116746314D01*
X185718988Y-116716820D01*
X185696734Y-116691597D01*
X185687166Y-116677278D01*
X185682151Y-116670742D01*
X185667540Y-116654081D01*
X185654302Y-116645684D01*
X185644535Y-116651518D01*
X182502771Y-119793282D01*
X182495257Y-119807043D01*
X182501715Y-119816404D01*
X182520242Y-119832651D01*
X182526775Y-119837664D01*
X182545904Y-119850446D01*
X182591431Y-119904924D01*
X182600278Y-119975367D01*
X182569637Y-120039411D01*
X182509235Y-120076722D01*
X182476186Y-120081211D01*
X144624103Y-120166849D01*
X129289316Y-120201543D01*
X129221150Y-120181695D01*
X129174536Y-120128144D01*
X129163033Y-120076292D01*
X129162930Y-120058992D01*
X129156982Y-120049035D01*
X127409579Y-118301632D01*
X128120751Y-118301632D01*
X128120882Y-118303465D01*
X128125133Y-118310080D01*
X129508782Y-119693729D01*
X129522543Y-119701243D01*
X129531904Y-119694785D01*
X129548151Y-119676258D01*
X129553169Y-119669718D01*
X129712444Y-119431347D01*
X129716565Y-119424210D01*
X129843367Y-119167080D01*
X129846513Y-119159485D01*
X129938670Y-118888002D01*
X129940803Y-118880042D01*
X129996734Y-118598857D01*
X129997808Y-118590699D01*
X130016558Y-118304619D01*
X130016558Y-118296381D01*
X129997808Y-118010301D01*
X129996734Y-118002143D01*
X129940803Y-117720958D01*
X129938670Y-117712998D01*
X129846513Y-117441515D01*
X129843367Y-117433920D01*
X129716565Y-117176790D01*
X129712444Y-117169653D01*
X129553169Y-116931282D01*
X129548151Y-116924742D01*
X129533540Y-116908081D01*
X129520302Y-116899684D01*
X129510535Y-116905518D01*
X128128365Y-118287688D01*
X128120751Y-118301632D01*
X127409579Y-118301632D01*
X126015218Y-116907271D01*
X126001457Y-116899757D01*
X125992096Y-116906215D01*
X125975849Y-116924742D01*
X125970834Y-116931278D01*
X125961266Y-116945597D01*
X125906789Y-116991125D01*
X125836346Y-116999974D01*
X125772302Y-116969333D01*
X125734990Y-116908932D01*
X125730500Y-116875596D01*
X125730500Y-116542198D01*
X126361184Y-116542198D01*
X126367018Y-116551965D01*
X127749188Y-117934135D01*
X127763132Y-117941749D01*
X127764965Y-117941618D01*
X127771580Y-117937367D01*
X129155229Y-116553718D01*
X129162743Y-116539957D01*
X129156285Y-116530596D01*
X129137758Y-116514349D01*
X129131218Y-116509331D01*
X128892847Y-116350056D01*
X128885710Y-116345935D01*
X128628580Y-116219133D01*
X128620985Y-116215987D01*
X128349502Y-116123830D01*
X128341542Y-116121697D01*
X128121862Y-116078000D01*
X134122835Y-116078000D01*
X134141465Y-116314711D01*
X134142619Y-116319518D01*
X134142620Y-116319524D01*
X134170770Y-116436777D01*
X134196895Y-116545594D01*
X134198788Y-116550165D01*
X134198789Y-116550167D01*
X134267819Y-116716820D01*
X134287760Y-116764963D01*
X134290346Y-116769183D01*
X134409241Y-116963202D01*
X134409245Y-116963208D01*
X134411824Y-116967416D01*
X134566031Y-117147969D01*
X134746584Y-117302176D01*
X134750792Y-117304755D01*
X134750798Y-117304759D01*
X134944817Y-117423654D01*
X134949037Y-117426240D01*
X134953607Y-117428133D01*
X134953611Y-117428135D01*
X135163833Y-117515211D01*
X135168406Y-117517105D01*
X135248609Y-117536360D01*
X135394476Y-117571380D01*
X135394482Y-117571381D01*
X135399289Y-117572535D01*
X135636000Y-117591165D01*
X135872711Y-117572535D01*
X135877518Y-117571381D01*
X135877524Y-117571380D01*
X136023391Y-117536360D01*
X136103594Y-117517105D01*
X136108167Y-117515211D01*
X136318389Y-117428135D01*
X136318393Y-117428133D01*
X136322963Y-117426240D01*
X136327183Y-117423654D01*
X136521202Y-117304759D01*
X136521208Y-117304755D01*
X136525416Y-117302176D01*
X136705969Y-117147969D01*
X136860176Y-116967416D01*
X136862755Y-116963208D01*
X136862759Y-116963202D01*
X136981654Y-116769183D01*
X136984240Y-116764963D01*
X137004182Y-116716820D01*
X137073211Y-116550167D01*
X137073212Y-116550165D01*
X137075105Y-116545594D01*
X137101230Y-116436777D01*
X137129380Y-116319524D01*
X137129381Y-116319518D01*
X137130535Y-116314711D01*
X137139170Y-116205000D01*
X147203835Y-116205000D01*
X147222465Y-116441711D01*
X147223619Y-116446518D01*
X147223620Y-116446524D01*
X147249355Y-116553718D01*
X147277895Y-116672594D01*
X147279788Y-116677165D01*
X147279789Y-116677167D01*
X147361981Y-116875596D01*
X147368760Y-116891963D01*
X147371346Y-116896183D01*
X147490241Y-117090202D01*
X147490245Y-117090208D01*
X147492824Y-117094416D01*
X147647031Y-117274969D01*
X147827584Y-117429176D01*
X147831792Y-117431755D01*
X147831798Y-117431759D01*
X147971070Y-117517105D01*
X148030037Y-117553240D01*
X148034607Y-117555133D01*
X148034611Y-117555135D01*
X148244833Y-117642211D01*
X148249406Y-117644105D01*
X148329609Y-117663360D01*
X148475476Y-117698380D01*
X148475482Y-117698381D01*
X148480289Y-117699535D01*
X148717000Y-117718165D01*
X148953711Y-117699535D01*
X148958518Y-117698381D01*
X148958524Y-117698380D01*
X149104391Y-117663360D01*
X149184594Y-117644105D01*
X149189167Y-117642211D01*
X149399389Y-117555135D01*
X149399393Y-117555133D01*
X149403963Y-117553240D01*
X149462930Y-117517105D01*
X149602202Y-117431759D01*
X149602208Y-117431755D01*
X149606416Y-117429176D01*
X149786969Y-117274969D01*
X149941176Y-117094416D01*
X149943755Y-117090208D01*
X149943759Y-117090202D01*
X150062654Y-116896183D01*
X150065240Y-116891963D01*
X150072020Y-116875596D01*
X150154211Y-116677167D01*
X150154212Y-116677165D01*
X150156105Y-116672594D01*
X150184645Y-116553718D01*
X150210380Y-116446524D01*
X150210381Y-116446518D01*
X150211535Y-116441711D01*
X150230165Y-116205000D01*
X151267835Y-116205000D01*
X151286465Y-116441711D01*
X151287619Y-116446518D01*
X151287620Y-116446524D01*
X151313355Y-116553718D01*
X151341895Y-116672594D01*
X151343788Y-116677165D01*
X151343789Y-116677167D01*
X151425981Y-116875596D01*
X151432760Y-116891963D01*
X151435346Y-116896183D01*
X151554241Y-117090202D01*
X151554245Y-117090208D01*
X151556824Y-117094416D01*
X151711031Y-117274969D01*
X151891584Y-117429176D01*
X151895792Y-117431755D01*
X151895798Y-117431759D01*
X152035070Y-117517105D01*
X152094037Y-117553240D01*
X152098607Y-117555133D01*
X152098611Y-117555135D01*
X152308833Y-117642211D01*
X152313406Y-117644105D01*
X152393609Y-117663360D01*
X152539476Y-117698380D01*
X152539482Y-117698381D01*
X152544289Y-117699535D01*
X152781000Y-117718165D01*
X153017711Y-117699535D01*
X153022518Y-117698381D01*
X153022524Y-117698380D01*
X153168391Y-117663360D01*
X153248594Y-117644105D01*
X153253167Y-117642211D01*
X153463389Y-117555135D01*
X153463393Y-117555133D01*
X153467963Y-117553240D01*
X153526930Y-117517105D01*
X153666202Y-117431759D01*
X153666208Y-117431755D01*
X153670416Y-117429176D01*
X153850969Y-117274969D01*
X154005176Y-117094416D01*
X154007755Y-117090208D01*
X154007759Y-117090202D01*
X154126654Y-116896183D01*
X154129240Y-116891963D01*
X154136020Y-116875596D01*
X154218211Y-116677167D01*
X154218212Y-116677165D01*
X154220105Y-116672594D01*
X154248645Y-116553718D01*
X154274380Y-116446524D01*
X154274381Y-116446518D01*
X154275535Y-116441711D01*
X154294165Y-116205000D01*
X154275535Y-115968289D01*
X154274023Y-115961987D01*
X154221260Y-115742218D01*
X154220105Y-115737406D01*
X154218211Y-115732833D01*
X154131135Y-115522611D01*
X154131133Y-115522607D01*
X154129240Y-115518037D01*
X154095645Y-115463215D01*
X154007759Y-115319798D01*
X154007755Y-115319792D01*
X154005176Y-115315584D01*
X153850969Y-115135031D01*
X153670416Y-114980824D01*
X153666208Y-114978245D01*
X153666202Y-114978241D01*
X153472183Y-114859346D01*
X153467963Y-114856760D01*
X153463393Y-114854867D01*
X153463389Y-114854865D01*
X153253167Y-114767789D01*
X153253165Y-114767788D01*
X153248594Y-114765895D01*
X153110602Y-114732766D01*
X153022524Y-114711620D01*
X153022518Y-114711619D01*
X153017711Y-114710465D01*
X152781000Y-114691835D01*
X152544289Y-114710465D01*
X152539482Y-114711619D01*
X152539476Y-114711620D01*
X152451398Y-114732766D01*
X152313406Y-114765895D01*
X152308835Y-114767788D01*
X152308833Y-114767789D01*
X152098611Y-114854865D01*
X152098607Y-114854867D01*
X152094037Y-114856760D01*
X152089817Y-114859346D01*
X151895798Y-114978241D01*
X151895792Y-114978245D01*
X151891584Y-114980824D01*
X151711031Y-115135031D01*
X151556824Y-115315584D01*
X151554245Y-115319792D01*
X151554241Y-115319798D01*
X151466355Y-115463215D01*
X151432760Y-115518037D01*
X151430867Y-115522607D01*
X151430865Y-115522611D01*
X151343789Y-115732833D01*
X151341895Y-115737406D01*
X151340740Y-115742218D01*
X151287978Y-115961987D01*
X151286465Y-115968289D01*
X151267835Y-116205000D01*
X150230165Y-116205000D01*
X150211535Y-115968289D01*
X150210023Y-115961987D01*
X150157260Y-115742218D01*
X150156105Y-115737406D01*
X150154211Y-115732833D01*
X150067135Y-115522611D01*
X150067133Y-115522607D01*
X150065240Y-115518037D01*
X150031645Y-115463215D01*
X149943759Y-115319798D01*
X149943755Y-115319792D01*
X149941176Y-115315584D01*
X149786969Y-115135031D01*
X149606416Y-114980824D01*
X149602208Y-114978245D01*
X149602202Y-114978241D01*
X149408183Y-114859346D01*
X149403963Y-114856760D01*
X149399393Y-114854867D01*
X149399389Y-114854865D01*
X149189167Y-114767789D01*
X149189165Y-114767788D01*
X149184594Y-114765895D01*
X149046602Y-114732766D01*
X148958524Y-114711620D01*
X148958518Y-114711619D01*
X148953711Y-114710465D01*
X148717000Y-114691835D01*
X148480289Y-114710465D01*
X148475482Y-114711619D01*
X148475476Y-114711620D01*
X148387398Y-114732766D01*
X148249406Y-114765895D01*
X148244835Y-114767788D01*
X148244833Y-114767789D01*
X148034611Y-114854865D01*
X148034607Y-114854867D01*
X148030037Y-114856760D01*
X148025817Y-114859346D01*
X147831798Y-114978241D01*
X147831792Y-114978245D01*
X147827584Y-114980824D01*
X147647031Y-115135031D01*
X147492824Y-115315584D01*
X147490245Y-115319792D01*
X147490241Y-115319798D01*
X147402355Y-115463215D01*
X147368760Y-115518037D01*
X147366867Y-115522607D01*
X147366865Y-115522611D01*
X147279789Y-115732833D01*
X147277895Y-115737406D01*
X147276740Y-115742218D01*
X147223978Y-115961987D01*
X147222465Y-115968289D01*
X147203835Y-116205000D01*
X137139170Y-116205000D01*
X137149165Y-116078000D01*
X137130535Y-115841289D01*
X137123448Y-115811766D01*
X137076260Y-115615218D01*
X137075105Y-115610406D01*
X137056566Y-115565649D01*
X136986135Y-115395611D01*
X136986133Y-115395607D01*
X136984240Y-115391037D01*
X136981654Y-115386817D01*
X136862759Y-115192798D01*
X136862755Y-115192792D01*
X136860176Y-115188584D01*
X136705969Y-115008031D01*
X136525416Y-114853824D01*
X136521208Y-114851245D01*
X136521202Y-114851241D01*
X136327183Y-114732346D01*
X136322963Y-114729760D01*
X136318393Y-114727867D01*
X136318389Y-114727865D01*
X136108167Y-114640789D01*
X136108165Y-114640788D01*
X136103594Y-114638895D01*
X136023391Y-114619640D01*
X135877524Y-114584620D01*
X135877518Y-114584619D01*
X135872711Y-114583465D01*
X135636000Y-114564835D01*
X135399289Y-114583465D01*
X135394482Y-114584619D01*
X135394476Y-114584620D01*
X135248609Y-114619640D01*
X135168406Y-114638895D01*
X135163835Y-114640788D01*
X135163833Y-114640789D01*
X134953611Y-114727865D01*
X134953607Y-114727867D01*
X134949037Y-114729760D01*
X134944817Y-114732346D01*
X134750798Y-114851241D01*
X134750792Y-114851245D01*
X134746584Y-114853824D01*
X134566031Y-115008031D01*
X134411824Y-115188584D01*
X134409245Y-115192792D01*
X134409241Y-115192798D01*
X134290346Y-115386817D01*
X134287760Y-115391037D01*
X134285867Y-115395607D01*
X134285865Y-115395611D01*
X134215434Y-115565649D01*
X134196895Y-115610406D01*
X134195740Y-115615218D01*
X134148553Y-115811766D01*
X134141465Y-115841289D01*
X134122835Y-116078000D01*
X128121862Y-116078000D01*
X128060357Y-116065766D01*
X128052199Y-116064692D01*
X127766119Y-116045942D01*
X127757881Y-116045942D01*
X127471801Y-116064692D01*
X127463643Y-116065766D01*
X127182458Y-116121697D01*
X127174498Y-116123830D01*
X126903015Y-116215987D01*
X126895420Y-116219133D01*
X126638290Y-116345935D01*
X126631153Y-116350056D01*
X126392782Y-116509331D01*
X126386242Y-116514349D01*
X126369581Y-116528960D01*
X126361184Y-116542198D01*
X125730500Y-116542198D01*
X125730500Y-113172661D01*
X125750502Y-113104540D01*
X125804158Y-113058047D01*
X125874432Y-113047943D01*
X125896167Y-113053068D01*
X125972107Y-113078256D01*
X125985474Y-113081122D01*
X126078687Y-113090672D01*
X126085102Y-113091000D01*
X126163885Y-113091000D01*
X126179124Y-113086525D01*
X126180329Y-113085135D01*
X126182000Y-113077452D01*
X126182000Y-111717000D01*
X126202002Y-111648879D01*
X126255658Y-111602386D01*
X126308000Y-111591000D01*
X126556000Y-111591000D01*
X126624121Y-111611002D01*
X126670614Y-111664658D01*
X126682000Y-111717000D01*
X126682000Y-113072884D01*
X126686475Y-113088123D01*
X126687865Y-113089328D01*
X126695548Y-113090999D01*
X126778847Y-113090999D01*
X126785366Y-113090662D01*
X126879797Y-113080864D01*
X126893191Y-113077972D01*
X127045539Y-113027145D01*
X127058718Y-113020971D01*
X127194917Y-112936689D01*
X127206318Y-112927653D01*
X127319481Y-112814292D01*
X127328493Y-112802881D01*
X127412545Y-112666524D01*
X127418689Y-112653347D01*
X127469256Y-112500893D01*
X127472122Y-112487526D01*
X127481672Y-112394315D01*
X127481940Y-112389075D01*
X127505394Y-112322064D01*
X127561354Y-112278371D01*
X127632052Y-112271869D01*
X127695043Y-112304621D01*
X127721971Y-112342257D01*
X127794477Y-112497749D01*
X127925802Y-112685300D01*
X128087700Y-112847198D01*
X128092208Y-112850355D01*
X128092211Y-112850357D01*
X128125294Y-112873522D01*
X128275251Y-112978523D01*
X128280233Y-112980846D01*
X128280238Y-112980849D01*
X128456094Y-113062851D01*
X128482757Y-113075284D01*
X128488065Y-113076706D01*
X128488067Y-113076707D01*
X128698598Y-113133119D01*
X128698600Y-113133119D01*
X128703913Y-113134543D01*
X128932000Y-113154498D01*
X129160087Y-113134543D01*
X129165400Y-113133119D01*
X129165402Y-113133119D01*
X129375933Y-113076707D01*
X129375935Y-113076706D01*
X129381243Y-113075284D01*
X129407906Y-113062851D01*
X129583762Y-112980849D01*
X129583767Y-112980846D01*
X129588749Y-112978523D01*
X129738706Y-112873522D01*
X129771789Y-112850357D01*
X129771792Y-112850355D01*
X129776300Y-112847198D01*
X129938198Y-112685300D01*
X130069523Y-112497749D01*
X130071846Y-112492767D01*
X130071849Y-112492762D01*
X130163961Y-112295225D01*
X130163961Y-112295224D01*
X130166284Y-112290243D01*
X130167707Y-112284934D01*
X130169590Y-112279759D01*
X130171797Y-112280562D01*
X130203567Y-112228485D01*
X130267440Y-112197488D01*
X130337931Y-112205943D01*
X130392661Y-112251167D01*
X130408909Y-112285333D01*
X130454748Y-112437160D01*
X130459422Y-112448501D01*
X130550307Y-112619431D01*
X130557098Y-112629651D01*
X130679451Y-112779672D01*
X130688090Y-112788371D01*
X130837257Y-112911774D01*
X130847428Y-112918634D01*
X131017720Y-113010709D01*
X131029026Y-113015462D01*
X131164692Y-113057457D01*
X131178795Y-113057663D01*
X131182000Y-113050908D01*
X131182000Y-113043886D01*
X131682000Y-113043886D01*
X131685973Y-113057417D01*
X131693768Y-113058537D01*
X131821321Y-113020996D01*
X131832705Y-113016397D01*
X132004264Y-112926708D01*
X132014525Y-112919994D01*
X132165394Y-112798692D01*
X132174168Y-112790099D01*
X132298595Y-112641813D01*
X132305533Y-112631683D01*
X132398796Y-112462036D01*
X132403624Y-112450772D01*
X132462163Y-112266234D01*
X132464711Y-112254245D01*
X132481269Y-112106626D01*
X132477525Y-112093876D01*
X132476135Y-112092671D01*
X132468452Y-112091000D01*
X131700115Y-112091000D01*
X131684876Y-112095475D01*
X131683671Y-112096865D01*
X131682000Y-112104548D01*
X131682000Y-113043886D01*
X131182000Y-113043886D01*
X131182000Y-111717000D01*
X131202002Y-111648879D01*
X131255658Y-111602386D01*
X131308000Y-111591000D01*
X132463885Y-111591000D01*
X132479124Y-111586525D01*
X132480329Y-111585135D01*
X132481207Y-111581096D01*
X132467588Y-111442201D01*
X132465205Y-111430164D01*
X132409252Y-111244840D01*
X132404577Y-111233497D01*
X132313693Y-111062569D01*
X132306902Y-111052349D01*
X132184549Y-110902328D01*
X132175910Y-110893629D01*
X132026743Y-110770226D01*
X132016572Y-110763366D01*
X131911432Y-110706518D01*
X131861023Y-110656524D01*
X131845645Y-110587212D01*
X131870181Y-110520590D01*
X131912984Y-110484021D01*
X132008936Y-110433858D01*
X132008940Y-110433856D01*
X132014400Y-110431001D01*
X132176177Y-110300929D01*
X132181662Y-110294393D01*
X132305650Y-110146629D01*
X132309609Y-110141911D01*
X132312573Y-110136519D01*
X132312576Y-110136515D01*
X132406646Y-109965402D01*
X132409613Y-109960005D01*
X132472379Y-109762139D01*
X132475426Y-109734981D01*
X132490107Y-109604087D01*
X132490500Y-109600587D01*
X132490500Y-109088763D01*
X132489780Y-109081413D01*
X132475966Y-108940534D01*
X132475965Y-108940531D01*
X132475365Y-108934408D01*
X132430080Y-108784415D01*
X132417152Y-108741593D01*
X132417151Y-108741590D01*
X132415368Y-108735685D01*
X132403347Y-108713077D01*
X132320809Y-108557847D01*
X132320808Y-108557845D01*
X132317913Y-108552401D01*
X132204707Y-108413596D01*
X132190610Y-108396311D01*
X132190607Y-108396308D01*
X132186715Y-108391536D01*
X132179770Y-108385790D01*
X132031518Y-108263145D01*
X132031519Y-108263145D01*
X132026770Y-108259217D01*
X132021353Y-108256288D01*
X132021350Y-108256286D01*
X131849590Y-108163416D01*
X131849585Y-108163414D01*
X131844170Y-108160486D01*
X131645871Y-108099102D01*
X131639746Y-108098458D01*
X131639745Y-108098458D01*
X131445554Y-108078048D01*
X131445552Y-108078048D01*
X131439425Y-108077404D01*
X131353515Y-108085223D01*
X131238836Y-108095659D01*
X131238833Y-108095660D01*
X131232697Y-108096218D01*
X131226791Y-108097956D01*
X131226787Y-108097957D01*
X131081339Y-108140765D01*
X131033560Y-108154827D01*
X130849600Y-108250999D01*
X130687823Y-108381071D01*
X130683865Y-108385788D01*
X130683863Y-108385790D01*
X130653902Y-108421496D01*
X130554391Y-108540089D01*
X130551427Y-108545481D01*
X130551424Y-108545485D01*
X130507372Y-108625616D01*
X130454387Y-108721995D01*
X130452524Y-108727868D01*
X130403125Y-108883595D01*
X130363462Y-108942479D01*
X130298260Y-108970572D01*
X130228220Y-108958955D01*
X130175580Y-108911315D01*
X130166453Y-108892389D01*
X130166284Y-108891757D01*
X130163963Y-108886780D01*
X130163961Y-108886774D01*
X130071849Y-108689238D01*
X130071846Y-108689233D01*
X130069523Y-108684251D01*
X129972358Y-108545485D01*
X129941357Y-108501211D01*
X129941355Y-108501208D01*
X129938198Y-108496700D01*
X129776300Y-108334802D01*
X129771792Y-108331645D01*
X129771789Y-108331643D01*
X129652541Y-108248145D01*
X129588749Y-108203477D01*
X129583767Y-108201154D01*
X129583762Y-108201151D01*
X129386225Y-108109039D01*
X129386224Y-108109039D01*
X129381243Y-108106716D01*
X129375935Y-108105294D01*
X129375933Y-108105293D01*
X129165402Y-108048881D01*
X129165400Y-108048881D01*
X129160087Y-108047457D01*
X128932000Y-108027502D01*
X128703913Y-108047457D01*
X128698600Y-108048881D01*
X128698598Y-108048881D01*
X128488067Y-108105293D01*
X128488065Y-108105294D01*
X128482757Y-108106716D01*
X128477776Y-108109039D01*
X128477775Y-108109039D01*
X128280238Y-108201151D01*
X128280233Y-108201154D01*
X128275251Y-108203477D01*
X128211459Y-108248145D01*
X128092211Y-108331643D01*
X128092208Y-108331645D01*
X128087700Y-108334802D01*
X127925802Y-108496700D01*
X127922645Y-108501208D01*
X127922643Y-108501211D01*
X127891642Y-108545485D01*
X127794477Y-108684251D01*
X127792154Y-108689233D01*
X127792151Y-108689238D01*
X127701718Y-108883174D01*
X127697716Y-108891757D01*
X127697566Y-108891687D01*
X127656830Y-108947019D01*
X127590510Y-108972359D01*
X127521017Y-108957822D01*
X127470417Y-108908021D01*
X127459897Y-108883174D01*
X127417151Y-108741590D01*
X127417150Y-108741588D01*
X127415368Y-108735685D01*
X127403347Y-108713077D01*
X127320809Y-108557847D01*
X127320808Y-108557845D01*
X127317913Y-108552401D01*
X127204707Y-108413596D01*
X127190610Y-108396311D01*
X127190607Y-108396308D01*
X127186715Y-108391536D01*
X127179770Y-108385790D01*
X127031518Y-108263145D01*
X127031519Y-108263145D01*
X127026770Y-108259217D01*
X127021353Y-108256288D01*
X127021350Y-108256286D01*
X126849590Y-108163416D01*
X126849585Y-108163414D01*
X126844170Y-108160486D01*
X126645871Y-108099102D01*
X126639746Y-108098458D01*
X126639745Y-108098458D01*
X126445554Y-108078048D01*
X126445552Y-108078048D01*
X126439425Y-108077404D01*
X126353515Y-108085223D01*
X126238836Y-108095659D01*
X126238833Y-108095660D01*
X126232697Y-108096218D01*
X126226791Y-108097956D01*
X126226787Y-108097957D01*
X126081339Y-108140765D01*
X126033560Y-108154827D01*
X125995116Y-108174925D01*
X125914875Y-108216874D01*
X125845240Y-108230708D01*
X125779179Y-108204698D01*
X125737667Y-108147102D01*
X125730500Y-108105212D01*
X125730500Y-102744000D01*
X156331500Y-102744000D01*
X156343234Y-102853149D01*
X156354620Y-102905491D01*
X156389290Y-103009657D01*
X156468308Y-103132612D01*
X156514801Y-103186268D01*
X156518194Y-103189208D01*
X156618450Y-103276081D01*
X156618453Y-103276083D01*
X156625261Y-103281982D01*
X156758210Y-103342698D01*
X156781964Y-103349673D01*
X156822008Y-103361431D01*
X156822012Y-103361432D01*
X156826331Y-103362700D01*
X156830780Y-103363340D01*
X156830786Y-103363341D01*
X156966553Y-103382861D01*
X156966558Y-103382861D01*
X156971000Y-103383500D01*
X157221500Y-103383500D01*
X157289621Y-103403502D01*
X157336114Y-103457158D01*
X157347500Y-103509500D01*
X157347500Y-118111000D01*
X157347860Y-118114346D01*
X157347860Y-118114351D01*
X157354475Y-118175878D01*
X157359234Y-118220149D01*
X157359952Y-118223449D01*
X157359952Y-118223450D01*
X157366961Y-118255669D01*
X157370620Y-118272491D01*
X157405290Y-118376657D01*
X157484308Y-118499612D01*
X157530801Y-118553268D01*
X157534194Y-118556208D01*
X157634450Y-118643081D01*
X157634453Y-118643083D01*
X157641261Y-118648982D01*
X157774210Y-118709698D01*
X157797964Y-118716673D01*
X157838008Y-118728431D01*
X157838012Y-118728432D01*
X157842331Y-118729700D01*
X157846780Y-118730340D01*
X157846786Y-118730341D01*
X157982553Y-118749861D01*
X157982558Y-118749861D01*
X157987000Y-118750500D01*
X160402000Y-118750500D01*
X160405346Y-118750140D01*
X160405351Y-118750140D01*
X160507785Y-118739128D01*
X160507792Y-118739127D01*
X160511149Y-118738766D01*
X160514450Y-118738048D01*
X160560210Y-118728094D01*
X160560215Y-118728093D01*
X160563491Y-118727380D01*
X160667657Y-118692710D01*
X160790612Y-118613692D01*
X160817148Y-118590699D01*
X160840875Y-118570139D01*
X160844268Y-118567199D01*
X160899888Y-118503010D01*
X160934081Y-118463550D01*
X160934083Y-118463547D01*
X160939982Y-118456739D01*
X161000698Y-118323790D01*
X161008746Y-118296381D01*
X161019431Y-118259992D01*
X161019432Y-118259988D01*
X161020700Y-118255669D01*
X161025333Y-118223450D01*
X161040861Y-118115447D01*
X161040861Y-118115442D01*
X161041500Y-118111000D01*
X161041500Y-118050619D01*
X181641442Y-118050619D01*
X181660192Y-118336699D01*
X181661266Y-118344857D01*
X181717197Y-118626042D01*
X181719330Y-118634002D01*
X181811487Y-118905485D01*
X181814633Y-118913080D01*
X181941435Y-119170210D01*
X181945556Y-119177347D01*
X182104831Y-119415718D01*
X182109849Y-119422258D01*
X182124460Y-119438919D01*
X182137698Y-119447316D01*
X182147465Y-119441482D01*
X183529635Y-118059312D01*
X183537249Y-118045368D01*
X183537118Y-118043535D01*
X183532867Y-118036920D01*
X182149218Y-116653271D01*
X182135457Y-116645757D01*
X182126096Y-116652215D01*
X182109849Y-116670742D01*
X182104831Y-116677282D01*
X181945556Y-116915653D01*
X181941435Y-116922790D01*
X181814633Y-117179920D01*
X181811487Y-117187515D01*
X181719330Y-117458998D01*
X181717197Y-117466958D01*
X181661266Y-117748143D01*
X181660192Y-117756301D01*
X181641442Y-118042381D01*
X181641442Y-118050619D01*
X161041500Y-118050619D01*
X161041500Y-116288198D01*
X182495184Y-116288198D01*
X182501018Y-116297965D01*
X183883188Y-117680135D01*
X183897132Y-117687749D01*
X183898965Y-117687618D01*
X183905580Y-117683367D01*
X185289229Y-116299718D01*
X185296743Y-116285957D01*
X185290285Y-116276596D01*
X185271758Y-116260349D01*
X185265218Y-116255331D01*
X185026847Y-116096056D01*
X185019710Y-116091935D01*
X184762580Y-115965133D01*
X184754985Y-115961987D01*
X184483502Y-115869830D01*
X184475542Y-115867697D01*
X184194357Y-115811766D01*
X184186199Y-115810692D01*
X183900119Y-115791942D01*
X183891881Y-115791942D01*
X183605801Y-115810692D01*
X183597643Y-115811766D01*
X183316458Y-115867697D01*
X183308498Y-115869830D01*
X183037015Y-115961987D01*
X183029420Y-115965133D01*
X182772290Y-116091935D01*
X182765153Y-116096056D01*
X182526782Y-116255331D01*
X182520242Y-116260349D01*
X182503581Y-116274960D01*
X182495184Y-116288198D01*
X161041500Y-116288198D01*
X161041500Y-115569000D01*
X161036513Y-115522611D01*
X161030128Y-115463215D01*
X161030127Y-115463208D01*
X161029766Y-115459851D01*
X161018380Y-115407509D01*
X160983710Y-115303343D01*
X160904692Y-115180388D01*
X160858199Y-115126732D01*
X160848933Y-115118703D01*
X160754550Y-115036919D01*
X160754547Y-115036917D01*
X160747739Y-115031018D01*
X160614790Y-114970302D01*
X160591036Y-114963327D01*
X160550992Y-114951569D01*
X160550988Y-114951568D01*
X160546669Y-114950300D01*
X160542220Y-114949660D01*
X160542214Y-114949659D01*
X160474787Y-114939965D01*
X160402000Y-114929500D01*
X160397504Y-114929500D01*
X160396512Y-114929429D01*
X160329992Y-114904619D01*
X160287445Y-114847784D01*
X160279500Y-114803750D01*
X160279500Y-113057695D01*
X172594251Y-113057695D01*
X172594548Y-113062848D01*
X172594548Y-113062851D01*
X172600011Y-113157590D01*
X172607110Y-113280715D01*
X172608247Y-113285761D01*
X172608248Y-113285767D01*
X172612333Y-113303892D01*
X172656222Y-113498639D01*
X172740266Y-113705616D01*
X172856987Y-113896088D01*
X173003250Y-114064938D01*
X173175126Y-114207632D01*
X173368000Y-114320338D01*
X173576692Y-114400030D01*
X173581760Y-114401061D01*
X173581763Y-114401062D01*
X173689017Y-114422883D01*
X173795597Y-114444567D01*
X173800772Y-114444757D01*
X173800774Y-114444757D01*
X174013673Y-114452564D01*
X174013677Y-114452564D01*
X174018837Y-114452753D01*
X174023957Y-114452097D01*
X174023959Y-114452097D01*
X174235288Y-114425025D01*
X174235289Y-114425025D01*
X174240416Y-114424368D01*
X174245366Y-114422883D01*
X174449429Y-114361661D01*
X174449434Y-114361659D01*
X174454384Y-114360174D01*
X174654994Y-114261896D01*
X174836860Y-114132173D01*
X174969288Y-114000207D01*
X179221676Y-114000207D01*
X179221731Y-114000987D01*
X179227083Y-114009034D01*
X179266141Y-114045711D01*
X179270841Y-114049711D01*
X179575958Y-114284683D01*
X179581001Y-114288188D01*
X179907602Y-114492270D01*
X179912959Y-114495264D01*
X180257922Y-114666505D01*
X180263546Y-114668962D01*
X180623555Y-114805718D01*
X180629422Y-114807624D01*
X181001064Y-114908597D01*
X181007041Y-114909911D01*
X181386791Y-114974141D01*
X181392877Y-114974866D01*
X181777063Y-115001732D01*
X181783199Y-115001860D01*
X182168172Y-114991107D01*
X182174303Y-114990635D01*
X182556364Y-114942369D01*
X182562437Y-114941299D01*
X182937981Y-114855978D01*
X182943896Y-114854326D01*
X183309319Y-114732766D01*
X183315053Y-114730542D01*
X183666885Y-114573896D01*
X183672354Y-114571133D01*
X184007224Y-114380901D01*
X184012398Y-114377617D01*
X184327103Y-114155617D01*
X184331941Y-114151837D01*
X184496604Y-114009705D01*
X184505019Y-113996665D01*
X184499080Y-113986633D01*
X181876812Y-111364365D01*
X181862868Y-111356751D01*
X181861035Y-111356882D01*
X181854420Y-111361133D01*
X179229290Y-113986263D01*
X179221676Y-114000207D01*
X174969288Y-114000207D01*
X174995096Y-113974489D01*
X175054594Y-113891689D01*
X175122435Y-113797277D01*
X175125453Y-113793077D01*
X175205783Y-113630542D01*
X175222136Y-113597453D01*
X175222137Y-113597451D01*
X175224430Y-113592811D01*
X175289370Y-113379069D01*
X175318529Y-113157590D01*
X175318616Y-113154019D01*
X175320074Y-113094365D01*
X175320074Y-113094361D01*
X175320156Y-113091000D01*
X175301852Y-112868361D01*
X175247431Y-112651702D01*
X175158354Y-112446840D01*
X175077633Y-112322064D01*
X175039822Y-112263617D01*
X175039820Y-112263614D01*
X175037014Y-112259277D01*
X174886670Y-112094051D01*
X174882619Y-112090852D01*
X174882615Y-112090848D01*
X174715414Y-111958800D01*
X174715410Y-111958798D01*
X174711359Y-111955598D01*
X174670053Y-111932796D01*
X174620084Y-111882364D01*
X174605312Y-111812921D01*
X174630428Y-111746516D01*
X174657780Y-111719909D01*
X174701603Y-111688650D01*
X174836860Y-111592173D01*
X174995096Y-111434489D01*
X175010900Y-111412496D01*
X175122435Y-111257277D01*
X175125453Y-111253077D01*
X175136252Y-111231228D01*
X175222136Y-111057453D01*
X175222137Y-111057451D01*
X175224430Y-111052811D01*
X175257133Y-110945173D01*
X177859674Y-110945173D01*
X177873113Y-111330035D01*
X177873628Y-111336169D01*
X177924563Y-111717900D01*
X177925670Y-111723937D01*
X178013613Y-112098881D01*
X178015307Y-112104791D01*
X178139417Y-112469359D01*
X178141684Y-112475084D01*
X178300768Y-112825783D01*
X178303589Y-112831273D01*
X178496140Y-113164780D01*
X178499470Y-113169948D01*
X178723653Y-113483084D01*
X178727470Y-113487900D01*
X178852343Y-113630542D01*
X178865557Y-113638940D01*
X178875352Y-113633095D01*
X181497635Y-111010812D01*
X181505249Y-110996868D01*
X181505118Y-110995035D01*
X181500867Y-110988420D01*
X178876283Y-108363836D01*
X178862339Y-108356222D01*
X178861793Y-108356261D01*
X178853437Y-108361860D01*
X178798213Y-108421496D01*
X178794268Y-108426198D01*
X178561424Y-108732959D01*
X178557953Y-108738029D01*
X178356161Y-109066035D01*
X178353198Y-109071425D01*
X178184372Y-109417571D01*
X178181952Y-109423217D01*
X178047717Y-109784163D01*
X178045851Y-109790045D01*
X177947475Y-110162383D01*
X177946200Y-110168383D01*
X177884627Y-110548541D01*
X177883940Y-110554669D01*
X177859760Y-110938998D01*
X177859674Y-110945173D01*
X175257133Y-110945173D01*
X175289370Y-110839069D01*
X175318529Y-110617590D01*
X175318795Y-110606716D01*
X175320074Y-110554365D01*
X175320074Y-110554361D01*
X175320156Y-110551000D01*
X175301852Y-110328361D01*
X175247431Y-110111702D01*
X175158354Y-109906840D01*
X175088204Y-109798405D01*
X175039822Y-109723617D01*
X175039820Y-109723614D01*
X175037014Y-109719277D01*
X174886670Y-109554051D01*
X174882619Y-109550852D01*
X174882615Y-109550848D01*
X174715414Y-109418800D01*
X174715410Y-109418798D01*
X174711359Y-109415598D01*
X174670053Y-109392796D01*
X174620084Y-109342364D01*
X174605312Y-109272921D01*
X174630428Y-109206516D01*
X174657780Y-109179909D01*
X174701603Y-109148650D01*
X174836860Y-109052173D01*
X174995096Y-108894489D01*
X175054594Y-108811689D01*
X175122435Y-108717277D01*
X175125453Y-108713077D01*
X175207226Y-108547622D01*
X175222136Y-108517453D01*
X175222137Y-108517451D01*
X175224430Y-108512811D01*
X175274881Y-108346758D01*
X175287865Y-108304023D01*
X175287865Y-108304021D01*
X175289370Y-108299069D01*
X175318529Y-108077590D01*
X175318611Y-108074240D01*
X175320074Y-108014365D01*
X175320074Y-108014361D01*
X175320156Y-108011000D01*
X175319222Y-107999642D01*
X179223004Y-107999642D01*
X179228753Y-108009200D01*
X181851188Y-110631635D01*
X181865132Y-110639249D01*
X181866965Y-110639118D01*
X181873580Y-110634867D01*
X184497756Y-108010691D01*
X184505370Y-107996747D01*
X184505348Y-107996438D01*
X184499493Y-107987766D01*
X184419045Y-107914306D01*
X184414307Y-107910387D01*
X184105937Y-107679697D01*
X184100832Y-107676253D01*
X183771419Y-107476753D01*
X183766023Y-107473836D01*
X183418714Y-107307433D01*
X183413031Y-107305044D01*
X183051147Y-107173329D01*
X183045289Y-107171515D01*
X182672251Y-107075736D01*
X182666249Y-107074505D01*
X182285666Y-107015587D01*
X182279541Y-107014943D01*
X181895029Y-106993446D01*
X181888877Y-106993403D01*
X181504112Y-107009529D01*
X181497986Y-107010086D01*
X181116624Y-107063683D01*
X181110571Y-107064838D01*
X180736261Y-107155393D01*
X180730364Y-107157129D01*
X180366683Y-107283777D01*
X180360969Y-107286085D01*
X180011378Y-107447618D01*
X180005924Y-107450470D01*
X179673762Y-107645348D01*
X179668614Y-107648717D01*
X179357046Y-107875084D01*
X179352265Y-107878928D01*
X179231383Y-107986252D01*
X179223004Y-107999642D01*
X175319222Y-107999642D01*
X175301852Y-107788361D01*
X175247431Y-107571702D01*
X175158354Y-107366840D01*
X175037014Y-107179277D01*
X174886670Y-107014051D01*
X174882619Y-107010852D01*
X174882615Y-107010848D01*
X174715414Y-106878800D01*
X174715410Y-106878798D01*
X174711359Y-106875598D01*
X174670053Y-106852796D01*
X174620084Y-106802364D01*
X174605312Y-106732921D01*
X174630428Y-106666516D01*
X174657780Y-106639909D01*
X174701603Y-106608650D01*
X174836860Y-106512173D01*
X174995096Y-106354489D01*
X175054594Y-106271689D01*
X175122435Y-106177277D01*
X175125453Y-106173077D01*
X175224430Y-105972811D01*
X175289370Y-105759069D01*
X175318529Y-105537590D01*
X175320156Y-105471000D01*
X175301852Y-105248361D01*
X175247431Y-105031702D01*
X175158354Y-104826840D01*
X175037014Y-104639277D01*
X174886670Y-104474051D01*
X174882619Y-104470852D01*
X174882615Y-104470848D01*
X174715414Y-104338800D01*
X174715410Y-104338798D01*
X174711359Y-104335598D01*
X174515789Y-104227638D01*
X174510920Y-104225914D01*
X174510916Y-104225912D01*
X174310087Y-104154795D01*
X174310083Y-104154794D01*
X174305212Y-104153069D01*
X174300119Y-104152162D01*
X174300116Y-104152161D01*
X174090373Y-104114800D01*
X174090367Y-104114799D01*
X174085284Y-104113894D01*
X174011452Y-104112992D01*
X173867081Y-104111228D01*
X173867079Y-104111228D01*
X173861911Y-104111165D01*
X173641091Y-104144955D01*
X173428756Y-104214357D01*
X173230607Y-104317507D01*
X173226474Y-104320610D01*
X173226471Y-104320612D01*
X173202247Y-104338800D01*
X173051965Y-104451635D01*
X172897629Y-104613138D01*
X172894715Y-104617410D01*
X172894714Y-104617411D01*
X172882404Y-104635457D01*
X172771743Y-104797680D01*
X172677688Y-105000305D01*
X172617989Y-105215570D01*
X172594251Y-105437695D01*
X172594548Y-105442848D01*
X172594548Y-105442851D01*
X172600011Y-105537590D01*
X172607110Y-105660715D01*
X172608247Y-105665761D01*
X172608248Y-105665767D01*
X172628119Y-105753939D01*
X172656222Y-105878639D01*
X172740266Y-106085616D01*
X172856987Y-106276088D01*
X173003250Y-106444938D01*
X173175126Y-106587632D01*
X173245595Y-106628811D01*
X173248445Y-106630476D01*
X173297169Y-106682114D01*
X173310240Y-106751897D01*
X173283509Y-106817669D01*
X173243055Y-106851027D01*
X173230607Y-106857507D01*
X173226474Y-106860610D01*
X173226471Y-106860612D01*
X173202247Y-106878800D01*
X173051965Y-106991635D01*
X173048393Y-106995373D01*
X172972773Y-107074505D01*
X172897629Y-107153138D01*
X172894715Y-107157410D01*
X172894714Y-107157411D01*
X172882404Y-107175457D01*
X172771743Y-107337680D01*
X172677688Y-107540305D01*
X172617989Y-107755570D01*
X172594251Y-107977695D01*
X172594548Y-107982848D01*
X172594548Y-107982851D01*
X172601085Y-108096218D01*
X172607110Y-108200715D01*
X172608247Y-108205761D01*
X172608248Y-108205767D01*
X172620294Y-108259217D01*
X172656222Y-108418639D01*
X172740266Y-108625616D01*
X172791019Y-108708438D01*
X172811337Y-108741593D01*
X172856987Y-108816088D01*
X173003250Y-108984938D01*
X173175126Y-109127632D01*
X173242863Y-109167214D01*
X173248445Y-109170476D01*
X173297169Y-109222114D01*
X173310240Y-109291897D01*
X173283509Y-109357669D01*
X173243055Y-109391027D01*
X173230607Y-109397507D01*
X173226474Y-109400610D01*
X173226471Y-109400612D01*
X173127690Y-109474779D01*
X173051965Y-109531635D01*
X172897629Y-109693138D01*
X172894715Y-109697410D01*
X172894714Y-109697411D01*
X172831388Y-109790243D01*
X172771743Y-109877680D01*
X172736255Y-109954132D01*
X172713917Y-110002257D01*
X172677688Y-110080305D01*
X172617989Y-110295570D01*
X172594251Y-110517695D01*
X172594548Y-110522848D01*
X172594548Y-110522851D01*
X172601875Y-110649919D01*
X172607110Y-110740715D01*
X172608247Y-110745761D01*
X172608248Y-110745767D01*
X172627602Y-110831643D01*
X172656222Y-110958639D01*
X172740266Y-111165616D01*
X172751686Y-111184251D01*
X172844781Y-111336169D01*
X172856987Y-111356088D01*
X173003250Y-111524938D01*
X173175126Y-111667632D01*
X173245595Y-111708811D01*
X173248445Y-111710476D01*
X173297169Y-111762114D01*
X173310240Y-111831897D01*
X173283509Y-111897669D01*
X173243055Y-111931027D01*
X173230607Y-111937507D01*
X173226474Y-111940610D01*
X173226471Y-111940612D01*
X173202247Y-111958800D01*
X173051965Y-112071635D01*
X173048393Y-112075373D01*
X172902076Y-112228485D01*
X172897629Y-112233138D01*
X172894715Y-112237410D01*
X172894714Y-112237411D01*
X172862024Y-112285333D01*
X172771743Y-112417680D01*
X172677688Y-112620305D01*
X172617989Y-112835570D01*
X172594251Y-113057695D01*
X160279500Y-113057695D01*
X160279500Y-109167214D01*
X160281117Y-109167214D01*
X160294681Y-109104566D01*
X160344834Y-109054314D01*
X160354080Y-109049735D01*
X160470719Y-108997805D01*
X160470726Y-108997801D01*
X160476752Y-108995118D01*
X160631253Y-108882866D01*
X160759040Y-108740944D01*
X160854527Y-108575556D01*
X160913542Y-108393928D01*
X160914398Y-108385790D01*
X160933504Y-108204000D01*
X160934603Y-108204115D01*
X160949578Y-108149376D01*
X160950613Y-108148041D01*
X160968176Y-108107457D01*
X160973383Y-108096827D01*
X160994695Y-108058060D01*
X160996666Y-108050383D01*
X160996668Y-108050378D01*
X160999732Y-108038442D01*
X161006138Y-108019730D01*
X161011034Y-108008417D01*
X161014181Y-108001145D01*
X161021097Y-107957481D01*
X161023504Y-107945860D01*
X161032528Y-107910711D01*
X161032528Y-107910710D01*
X161034500Y-107903030D01*
X161034500Y-107882769D01*
X161036051Y-107863058D01*
X161037979Y-107850885D01*
X161039219Y-107843057D01*
X161035059Y-107799046D01*
X161034500Y-107787189D01*
X161034500Y-103727522D01*
X180682719Y-103727522D01*
X180735146Y-103923181D01*
X180738892Y-103933473D01*
X180834074Y-104137591D01*
X180839557Y-104147087D01*
X180968731Y-104331567D01*
X180975787Y-104339975D01*
X181135025Y-104499213D01*
X181143433Y-104506269D01*
X181327913Y-104635443D01*
X181337409Y-104640926D01*
X181541527Y-104736108D01*
X181551819Y-104739854D01*
X181769364Y-104798145D01*
X181780159Y-104800048D01*
X181866954Y-104807642D01*
X181881901Y-104804638D01*
X181885000Y-104792886D01*
X181885000Y-104791106D01*
X182385000Y-104791106D01*
X182389295Y-104805735D01*
X182401272Y-104807797D01*
X182489841Y-104800048D01*
X182500636Y-104798145D01*
X182718181Y-104739854D01*
X182728473Y-104736108D01*
X182932591Y-104640926D01*
X182942087Y-104635443D01*
X183126567Y-104506269D01*
X183134975Y-104499213D01*
X183294213Y-104339975D01*
X183301269Y-104331567D01*
X183430443Y-104147087D01*
X183435926Y-104137592D01*
X183531108Y-103933473D01*
X183534854Y-103923181D01*
X183585948Y-103732497D01*
X183585612Y-103718401D01*
X183577670Y-103715000D01*
X182403115Y-103715000D01*
X182387876Y-103719475D01*
X182386671Y-103720865D01*
X182385000Y-103728548D01*
X182385000Y-104791106D01*
X181885000Y-104791106D01*
X181885000Y-103733115D01*
X181880525Y-103717876D01*
X181879135Y-103716671D01*
X181871452Y-103715000D01*
X180697479Y-103715000D01*
X180683948Y-103718973D01*
X180682719Y-103727522D01*
X161034500Y-103727522D01*
X161034500Y-100900774D01*
X180648102Y-100900774D01*
X180656751Y-101131158D01*
X180704093Y-101356791D01*
X180788776Y-101571221D01*
X180908377Y-101768317D01*
X180911874Y-101772347D01*
X180998438Y-101872103D01*
X181059477Y-101942445D01*
X181063608Y-101945832D01*
X181233627Y-102085240D01*
X181233633Y-102085244D01*
X181237755Y-102088624D01*
X181242391Y-102091263D01*
X181242394Y-102091265D01*
X181276660Y-102110770D01*
X181325966Y-102161852D01*
X181339828Y-102231483D01*
X181313845Y-102297553D01*
X181286599Y-102323485D01*
X181143433Y-102423731D01*
X181135025Y-102430787D01*
X180975787Y-102590025D01*
X180968731Y-102598433D01*
X180839557Y-102782913D01*
X180834074Y-102792408D01*
X180738892Y-102996527D01*
X180735146Y-103006819D01*
X180684052Y-103197503D01*
X180684388Y-103211599D01*
X180692330Y-103215000D01*
X183572521Y-103215000D01*
X183586052Y-103211027D01*
X183587281Y-103202478D01*
X183534854Y-103006819D01*
X183531108Y-102996527D01*
X183435926Y-102792409D01*
X183430443Y-102782913D01*
X183301269Y-102598433D01*
X183294213Y-102590025D01*
X183134975Y-102430787D01*
X183126567Y-102423731D01*
X182982428Y-102322804D01*
X182938100Y-102267347D01*
X182930791Y-102196728D01*
X182962822Y-102133367D01*
X182984330Y-102115073D01*
X183114319Y-102027559D01*
X183281135Y-101868424D01*
X183418754Y-101683458D01*
X183523240Y-101477949D01*
X183559321Y-101361752D01*
X183590024Y-101262871D01*
X183591607Y-101257773D01*
X183592308Y-101252484D01*
X183621198Y-101034511D01*
X183621198Y-101034506D01*
X183621898Y-101029226D01*
X183613249Y-100798842D01*
X183565907Y-100573209D01*
X183481224Y-100358779D01*
X183361623Y-100161683D01*
X183274755Y-100061576D01*
X183214023Y-99991588D01*
X183214021Y-99991586D01*
X183210523Y-99987555D01*
X183174880Y-99958330D01*
X183134886Y-99899671D01*
X183132954Y-99828701D01*
X183169698Y-99767952D01*
X183188468Y-99753752D01*
X183328120Y-99667332D01*
X183334348Y-99663478D01*
X183459305Y-99538303D01*
X183552115Y-99387738D01*
X183607797Y-99219861D01*
X183618500Y-99115400D01*
X183618500Y-97814600D01*
X183607526Y-97708834D01*
X183589534Y-97654904D01*
X183553868Y-97548002D01*
X183551550Y-97541054D01*
X183458478Y-97390652D01*
X183333303Y-97265695D01*
X183265178Y-97223702D01*
X183188968Y-97176725D01*
X183188966Y-97176724D01*
X183182738Y-97172885D01*
X183022254Y-97119655D01*
X183021389Y-97119368D01*
X183021387Y-97119368D01*
X183014861Y-97117203D01*
X183008025Y-97116503D01*
X183008022Y-97116502D01*
X182964969Y-97112091D01*
X182910400Y-97106500D01*
X181359600Y-97106500D01*
X181356354Y-97106837D01*
X181356350Y-97106837D01*
X181260692Y-97116762D01*
X181260688Y-97116763D01*
X181253834Y-97117474D01*
X181247298Y-97119655D01*
X181247296Y-97119655D01*
X181195691Y-97136872D01*
X181086054Y-97173450D01*
X180935652Y-97266522D01*
X180810695Y-97391697D01*
X180806855Y-97397927D01*
X180806854Y-97397928D01*
X180797564Y-97413000D01*
X180717885Y-97542262D01*
X180715581Y-97549209D01*
X180680524Y-97654904D01*
X180662203Y-97710139D01*
X180651500Y-97814600D01*
X180651500Y-99115400D01*
X180662474Y-99221166D01*
X180718450Y-99388946D01*
X180811522Y-99539348D01*
X180936697Y-99664305D01*
X181082340Y-99754081D01*
X181129832Y-99806852D01*
X181141256Y-99876924D01*
X181112982Y-99942048D01*
X181103195Y-99952510D01*
X180988865Y-100061576D01*
X180851246Y-100246542D01*
X180746760Y-100452051D01*
X180745178Y-100457145D01*
X180745177Y-100457148D01*
X180683115Y-100657020D01*
X180678393Y-100672227D01*
X180677692Y-100677516D01*
X180662304Y-100793623D01*
X180648102Y-100900774D01*
X161034500Y-100900774D01*
X161034500Y-99374595D01*
X161054502Y-99306474D01*
X161071405Y-99285499D01*
X161367501Y-98989404D01*
X161429813Y-98955379D01*
X161456596Y-98952500D01*
X161512487Y-98952500D01*
X161518939Y-98951128D01*
X161518944Y-98951128D01*
X161611806Y-98931389D01*
X161699288Y-98912794D01*
X161719213Y-98903923D01*
X161867722Y-98837803D01*
X161867724Y-98837802D01*
X161873752Y-98835118D01*
X162028253Y-98722866D01*
X162102659Y-98640230D01*
X162151621Y-98585852D01*
X162151622Y-98585851D01*
X162156040Y-98580944D01*
X162251527Y-98415556D01*
X162310542Y-98233928D01*
X162317807Y-98164811D01*
X162329814Y-98050565D01*
X162330504Y-98044000D01*
X162320737Y-97951069D01*
X162311232Y-97860635D01*
X162311232Y-97860633D01*
X162310542Y-97854072D01*
X162251527Y-97672444D01*
X162246075Y-97663000D01*
X162226846Y-97629695D01*
X165881251Y-97629695D01*
X165881548Y-97634848D01*
X165881548Y-97634851D01*
X165887011Y-97729590D01*
X165894110Y-97852715D01*
X165895247Y-97857761D01*
X165895248Y-97857767D01*
X165909018Y-97918865D01*
X165943222Y-98070639D01*
X166027266Y-98277616D01*
X166078942Y-98361944D01*
X166141291Y-98463688D01*
X166143987Y-98468088D01*
X166290250Y-98636938D01*
X166423034Y-98747177D01*
X166457194Y-98775537D01*
X166462126Y-98779632D01*
X166655000Y-98892338D01*
X166863692Y-98972030D01*
X166868760Y-98973061D01*
X166868763Y-98973062D01*
X166941690Y-98987899D01*
X167082597Y-99016567D01*
X167087772Y-99016757D01*
X167087774Y-99016757D01*
X167300673Y-99024564D01*
X167300677Y-99024564D01*
X167305837Y-99024753D01*
X167310957Y-99024097D01*
X167310959Y-99024097D01*
X167522288Y-98997025D01*
X167522289Y-98997025D01*
X167527416Y-98996368D01*
X167550628Y-98989404D01*
X167736429Y-98933661D01*
X167736434Y-98933659D01*
X167741384Y-98932174D01*
X167941994Y-98833896D01*
X168123860Y-98704173D01*
X168149222Y-98678900D01*
X168260510Y-98568000D01*
X168282096Y-98546489D01*
X168341594Y-98463689D01*
X168412453Y-98365077D01*
X168413776Y-98366028D01*
X168460645Y-98322857D01*
X168530580Y-98310625D01*
X168596026Y-98338144D01*
X168623875Y-98369994D01*
X168683987Y-98468088D01*
X168830250Y-98636938D01*
X168963034Y-98747177D01*
X168997194Y-98775537D01*
X169002126Y-98779632D01*
X169195000Y-98892338D01*
X169403692Y-98972030D01*
X169408760Y-98973061D01*
X169408763Y-98973062D01*
X169481690Y-98987899D01*
X169622597Y-99016567D01*
X169627772Y-99016757D01*
X169627774Y-99016757D01*
X169840673Y-99024564D01*
X169840677Y-99024564D01*
X169845837Y-99024753D01*
X169850957Y-99024097D01*
X169850959Y-99024097D01*
X170062288Y-98997025D01*
X170062289Y-98997025D01*
X170067416Y-98996368D01*
X170090628Y-98989404D01*
X170276429Y-98933661D01*
X170276434Y-98933659D01*
X170281384Y-98932174D01*
X170481994Y-98833896D01*
X170663860Y-98704173D01*
X170667517Y-98700529D01*
X170667523Y-98700524D01*
X170778701Y-98589734D01*
X170841072Y-98555818D01*
X170911879Y-98561007D01*
X170968640Y-98603653D01*
X170985622Y-98634756D01*
X171027767Y-98747177D01*
X171036299Y-98762763D01*
X171111430Y-98863009D01*
X171123991Y-98875570D01*
X171224237Y-98950701D01*
X171239823Y-98959233D01*
X171358133Y-99003586D01*
X171373379Y-99007211D01*
X171423271Y-99012631D01*
X171430085Y-99013000D01*
X172055885Y-99013000D01*
X172071124Y-99008525D01*
X172072329Y-99007135D01*
X172074000Y-98999452D01*
X172074000Y-98994885D01*
X172574000Y-98994885D01*
X172578475Y-99010124D01*
X172579865Y-99011329D01*
X172587548Y-99013000D01*
X173217915Y-99013000D01*
X173224729Y-99012631D01*
X173274621Y-99007211D01*
X173289867Y-99003586D01*
X173408177Y-98959233D01*
X173423763Y-98950701D01*
X173524009Y-98875570D01*
X173536570Y-98863009D01*
X173611701Y-98762763D01*
X173620233Y-98747177D01*
X173664586Y-98628867D01*
X173668211Y-98613621D01*
X173673631Y-98563729D01*
X173674000Y-98556915D01*
X173674000Y-97931115D01*
X173669525Y-97915876D01*
X173668135Y-97914671D01*
X173660452Y-97913000D01*
X172592115Y-97913000D01*
X172576876Y-97917475D01*
X172575671Y-97918865D01*
X172574000Y-97926548D01*
X172574000Y-98994885D01*
X172074000Y-98994885D01*
X172074000Y-97394885D01*
X172574000Y-97394885D01*
X172578475Y-97410124D01*
X172579865Y-97411329D01*
X172587548Y-97413000D01*
X173655885Y-97413000D01*
X173671124Y-97408525D01*
X173672329Y-97407135D01*
X173674000Y-97399452D01*
X173674000Y-96769085D01*
X173673631Y-96762271D01*
X173668211Y-96712379D01*
X173664586Y-96697133D01*
X173620233Y-96578823D01*
X173611701Y-96563237D01*
X173536570Y-96462991D01*
X173524009Y-96450430D01*
X173423763Y-96375299D01*
X173408177Y-96366767D01*
X173289867Y-96322414D01*
X173274621Y-96318789D01*
X173224729Y-96313369D01*
X173217915Y-96313000D01*
X172592115Y-96313000D01*
X172576876Y-96317475D01*
X172575671Y-96318865D01*
X172574000Y-96326548D01*
X172574000Y-97394885D01*
X172074000Y-97394885D01*
X172074000Y-96331115D01*
X172069525Y-96315876D01*
X172068135Y-96314671D01*
X172060452Y-96313000D01*
X171430085Y-96313000D01*
X171423271Y-96313369D01*
X171373379Y-96318789D01*
X171358133Y-96322414D01*
X171239823Y-96366767D01*
X171224237Y-96375299D01*
X171123991Y-96450430D01*
X171111430Y-96462991D01*
X171036299Y-96563237D01*
X171027767Y-96578823D01*
X170985349Y-96691972D01*
X170942708Y-96748737D01*
X170876146Y-96773437D01*
X170806797Y-96758230D01*
X170774173Y-96732543D01*
X170717145Y-96669870D01*
X170713670Y-96666051D01*
X170709619Y-96662852D01*
X170709615Y-96662848D01*
X170542414Y-96530800D01*
X170542410Y-96530798D01*
X170538359Y-96527598D01*
X170531476Y-96523798D01*
X170438552Y-96472502D01*
X170342789Y-96419638D01*
X170337920Y-96417914D01*
X170337916Y-96417912D01*
X170137087Y-96346795D01*
X170137083Y-96346794D01*
X170132212Y-96345069D01*
X170127119Y-96344162D01*
X170127116Y-96344161D01*
X169917373Y-96306800D01*
X169917367Y-96306799D01*
X169912284Y-96305894D01*
X169838452Y-96304992D01*
X169694081Y-96303228D01*
X169694079Y-96303228D01*
X169688911Y-96303165D01*
X169468091Y-96336955D01*
X169255756Y-96406357D01*
X169057607Y-96509507D01*
X169053474Y-96512610D01*
X169053471Y-96512612D01*
X168883100Y-96640530D01*
X168878965Y-96643635D01*
X168724629Y-96805138D01*
X168617201Y-96962621D01*
X168562293Y-97007621D01*
X168491768Y-97015792D01*
X168428021Y-96984538D01*
X168407324Y-96960054D01*
X168326822Y-96835617D01*
X168326820Y-96835614D01*
X168324014Y-96831277D01*
X168173670Y-96666051D01*
X168169619Y-96662852D01*
X168169615Y-96662848D01*
X168002414Y-96530800D01*
X168002410Y-96530798D01*
X167998359Y-96527598D01*
X167991476Y-96523798D01*
X167898552Y-96472502D01*
X167802789Y-96419638D01*
X167797920Y-96417914D01*
X167797916Y-96417912D01*
X167597087Y-96346795D01*
X167597083Y-96346794D01*
X167592212Y-96345069D01*
X167587119Y-96344162D01*
X167587116Y-96344161D01*
X167377373Y-96306800D01*
X167377367Y-96306799D01*
X167372284Y-96305894D01*
X167298452Y-96304992D01*
X167154081Y-96303228D01*
X167154079Y-96303228D01*
X167148911Y-96303165D01*
X166928091Y-96336955D01*
X166715756Y-96406357D01*
X166517607Y-96509507D01*
X166513474Y-96512610D01*
X166513471Y-96512612D01*
X166343100Y-96640530D01*
X166338965Y-96643635D01*
X166184629Y-96805138D01*
X166058743Y-96989680D01*
X166011716Y-97090992D01*
X165971379Y-97177891D01*
X165964688Y-97192305D01*
X165904989Y-97407570D01*
X165881251Y-97629695D01*
X162226846Y-97629695D01*
X162159341Y-97512774D01*
X162156040Y-97507056D01*
X162067323Y-97408525D01*
X162032675Y-97370045D01*
X162032674Y-97370044D01*
X162028253Y-97365134D01*
X161919409Y-97286054D01*
X161879094Y-97256763D01*
X161879093Y-97256762D01*
X161873752Y-97252882D01*
X161867724Y-97250198D01*
X161867722Y-97250197D01*
X161705319Y-97177891D01*
X161705318Y-97177891D01*
X161699288Y-97175206D01*
X161605888Y-97155353D01*
X161518944Y-97136872D01*
X161518939Y-97136872D01*
X161512487Y-97135500D01*
X161321513Y-97135500D01*
X161315061Y-97136872D01*
X161315056Y-97136872D01*
X161228113Y-97155353D01*
X161134712Y-97175206D01*
X161128682Y-97177891D01*
X161128681Y-97177891D01*
X160966278Y-97250197D01*
X160966276Y-97250198D01*
X160960248Y-97252882D01*
X160954907Y-97256762D01*
X160954906Y-97256763D01*
X160914591Y-97286054D01*
X160805747Y-97365134D01*
X160801326Y-97370044D01*
X160801325Y-97370045D01*
X160766678Y-97408525D01*
X160677960Y-97507056D01*
X160674659Y-97512774D01*
X160587926Y-97663000D01*
X160582473Y-97672444D01*
X160523458Y-97854072D01*
X160522768Y-97860633D01*
X160522768Y-97860635D01*
X160506093Y-98019292D01*
X160479080Y-98084949D01*
X160469879Y-98095217D01*
X160226951Y-98338144D01*
X160008742Y-98556353D01*
X160000463Y-98563887D01*
X159993982Y-98568000D01*
X159981827Y-98580944D01*
X159947357Y-98617651D01*
X159944602Y-98620493D01*
X159924865Y-98640230D01*
X159922385Y-98643427D01*
X159914682Y-98652447D01*
X159884414Y-98684679D01*
X159880595Y-98691625D01*
X159880593Y-98691628D01*
X159874652Y-98702434D01*
X159863801Y-98718953D01*
X159851386Y-98734959D01*
X159848241Y-98742228D01*
X159848238Y-98742232D01*
X159833826Y-98775537D01*
X159828609Y-98786187D01*
X159807305Y-98824940D01*
X159805334Y-98832615D01*
X159805334Y-98832616D01*
X159802267Y-98844562D01*
X159795863Y-98863266D01*
X159787819Y-98881855D01*
X159786580Y-98889678D01*
X159786577Y-98889688D01*
X159780901Y-98925524D01*
X159778495Y-98937144D01*
X159769472Y-98972289D01*
X159767500Y-98979970D01*
X159767500Y-99000224D01*
X159765949Y-99019934D01*
X159762780Y-99039943D01*
X159763526Y-99047835D01*
X159766941Y-99083961D01*
X159767500Y-99095819D01*
X159767500Y-99436607D01*
X159747498Y-99504728D01*
X159693842Y-99551221D01*
X159640000Y-99560940D01*
X159640000Y-99562500D01*
X156971000Y-99562500D01*
X156967654Y-99562860D01*
X156967649Y-99562860D01*
X156865215Y-99573872D01*
X156865208Y-99573873D01*
X156861851Y-99574234D01*
X156858551Y-99574952D01*
X156858550Y-99574952D01*
X156812790Y-99584906D01*
X156812785Y-99584907D01*
X156809509Y-99585620D01*
X156705343Y-99620290D01*
X156582388Y-99699308D01*
X156528732Y-99745801D01*
X156525792Y-99749194D01*
X156438919Y-99849450D01*
X156438917Y-99849453D01*
X156433018Y-99856261D01*
X156372302Y-99989210D01*
X156352300Y-100057331D01*
X156351660Y-100061780D01*
X156351659Y-100061786D01*
X156336641Y-100166243D01*
X156331500Y-100202000D01*
X156331500Y-102744000D01*
X125730500Y-102744000D01*
X125730500Y-97645543D01*
X126234257Y-97645543D01*
X126240715Y-97654904D01*
X126259242Y-97671151D01*
X126265782Y-97676169D01*
X126504153Y-97835444D01*
X126511290Y-97839565D01*
X126768420Y-97966367D01*
X126776015Y-97969513D01*
X127047498Y-98061670D01*
X127055458Y-98063803D01*
X127336643Y-98119734D01*
X127344801Y-98120808D01*
X127630881Y-98139558D01*
X127639119Y-98139558D01*
X127925199Y-98120808D01*
X127933357Y-98119734D01*
X128214542Y-98063803D01*
X128222502Y-98061670D01*
X128493985Y-97969513D01*
X128501580Y-97966367D01*
X128758710Y-97839565D01*
X128765847Y-97835444D01*
X129004218Y-97676169D01*
X129010758Y-97671151D01*
X129027419Y-97656540D01*
X129035816Y-97643302D01*
X129029982Y-97633535D01*
X128805447Y-97409000D01*
X148473835Y-97409000D01*
X148492465Y-97645711D01*
X148493619Y-97650518D01*
X148493620Y-97650524D01*
X148528640Y-97796391D01*
X148547895Y-97876594D01*
X148549788Y-97881165D01*
X148549789Y-97881167D01*
X148634198Y-98084949D01*
X148638760Y-98095963D01*
X148641346Y-98100183D01*
X148760241Y-98294202D01*
X148760245Y-98294208D01*
X148762824Y-98298416D01*
X148917031Y-98478969D01*
X149097584Y-98633176D01*
X149101792Y-98635755D01*
X149101798Y-98635759D01*
X149263678Y-98734959D01*
X149300037Y-98757240D01*
X149304607Y-98759133D01*
X149304611Y-98759135D01*
X149510852Y-98844562D01*
X149519406Y-98848105D01*
X149581486Y-98863009D01*
X149745476Y-98902380D01*
X149745482Y-98902381D01*
X149750289Y-98903535D01*
X149987000Y-98922165D01*
X150223711Y-98903535D01*
X150228518Y-98902381D01*
X150228524Y-98902380D01*
X150392514Y-98863009D01*
X150454594Y-98848105D01*
X150463148Y-98844562D01*
X150669389Y-98759135D01*
X150669393Y-98759133D01*
X150673963Y-98757240D01*
X150710322Y-98734959D01*
X150872202Y-98635759D01*
X150872208Y-98635755D01*
X150876416Y-98633176D01*
X151056969Y-98478969D01*
X151211176Y-98298416D01*
X151213755Y-98294208D01*
X151213759Y-98294202D01*
X151332654Y-98100183D01*
X151335240Y-98095963D01*
X151339803Y-98084949D01*
X151424211Y-97881167D01*
X151424212Y-97881165D01*
X151426105Y-97876594D01*
X151445360Y-97796391D01*
X151480380Y-97650524D01*
X151480381Y-97650518D01*
X151481535Y-97645711D01*
X151500165Y-97409000D01*
X151481535Y-97172289D01*
X151473033Y-97136872D01*
X151436460Y-96984538D01*
X151427940Y-96949049D01*
X151431487Y-96878142D01*
X151461364Y-96830540D01*
X151644532Y-96647373D01*
X151842501Y-96449404D01*
X151904813Y-96415379D01*
X151931596Y-96412500D01*
X151987487Y-96412500D01*
X151993939Y-96411128D01*
X151993944Y-96411128D01*
X152080888Y-96392647D01*
X152174288Y-96372794D01*
X152236560Y-96345069D01*
X152342722Y-96297803D01*
X152342724Y-96297802D01*
X152348752Y-96295118D01*
X152503253Y-96182866D01*
X152507675Y-96177955D01*
X152626621Y-96045852D01*
X152626622Y-96045851D01*
X152631040Y-96040944D01*
X152714819Y-95895835D01*
X152723223Y-95881279D01*
X152723224Y-95881278D01*
X152726527Y-95875556D01*
X152785542Y-95693928D01*
X152794181Y-95611738D01*
X152804814Y-95510565D01*
X152805504Y-95504000D01*
X152785542Y-95314072D01*
X152726527Y-95132444D01*
X152631040Y-94967056D01*
X152608182Y-94941669D01*
X152507675Y-94830045D01*
X152507674Y-94830044D01*
X152503253Y-94825134D01*
X152348752Y-94712882D01*
X152342724Y-94710198D01*
X152342722Y-94710197D01*
X152180319Y-94637891D01*
X152180318Y-94637891D01*
X152174288Y-94635206D01*
X152080887Y-94615353D01*
X151993944Y-94596872D01*
X151993939Y-94596872D01*
X151987487Y-94595500D01*
X151796513Y-94595500D01*
X151790061Y-94596872D01*
X151790056Y-94596872D01*
X151703113Y-94615353D01*
X151609712Y-94635206D01*
X151603682Y-94637891D01*
X151603681Y-94637891D01*
X151441278Y-94710197D01*
X151441276Y-94710198D01*
X151435248Y-94712882D01*
X151280747Y-94825134D01*
X151276326Y-94830044D01*
X151276325Y-94830045D01*
X151175819Y-94941669D01*
X151152960Y-94967056D01*
X151057473Y-95132444D01*
X150998458Y-95314072D01*
X150997768Y-95320633D01*
X150997768Y-95320635D01*
X150981093Y-95479293D01*
X150954080Y-95544950D01*
X150944878Y-95555218D01*
X150565460Y-95934636D01*
X150503148Y-95968662D01*
X150446951Y-95968060D01*
X150228524Y-95915620D01*
X150228518Y-95915619D01*
X150223711Y-95914465D01*
X149987000Y-95895835D01*
X149750289Y-95914465D01*
X149745482Y-95915619D01*
X149745476Y-95915620D01*
X149599609Y-95950640D01*
X149519406Y-95969895D01*
X149514835Y-95971788D01*
X149514833Y-95971789D01*
X149304611Y-96058865D01*
X149304607Y-96058867D01*
X149300037Y-96060760D01*
X149295817Y-96063346D01*
X149101798Y-96182241D01*
X149101792Y-96182245D01*
X149097584Y-96184824D01*
X148917031Y-96339031D01*
X148913823Y-96342787D01*
X148911874Y-96345069D01*
X148762824Y-96519584D01*
X148760245Y-96523792D01*
X148760241Y-96523798D01*
X148736073Y-96563237D01*
X148638760Y-96722037D01*
X148636867Y-96726607D01*
X148636865Y-96726611D01*
X148549789Y-96936833D01*
X148547895Y-96941406D01*
X148535178Y-96994375D01*
X148500968Y-97136872D01*
X148492465Y-97172289D01*
X148473835Y-97409000D01*
X128805447Y-97409000D01*
X127647812Y-96251365D01*
X127633868Y-96243751D01*
X127632035Y-96243882D01*
X127625420Y-96248133D01*
X126241771Y-97631782D01*
X126234257Y-97645543D01*
X125730500Y-97645543D01*
X125730500Y-97412052D01*
X125750502Y-97343931D01*
X125804158Y-97297438D01*
X125855750Y-97286054D01*
X125876507Y-97285930D01*
X125886465Y-97279982D01*
X127280315Y-95886132D01*
X127993751Y-95886132D01*
X127993882Y-95887965D01*
X127998133Y-95894580D01*
X129381782Y-97278229D01*
X129395543Y-97285743D01*
X129404904Y-97279285D01*
X129421151Y-97260758D01*
X129426169Y-97254218D01*
X129585444Y-97015847D01*
X129589565Y-97008710D01*
X129716367Y-96751580D01*
X129719513Y-96743985D01*
X129811670Y-96472502D01*
X129813803Y-96464542D01*
X129869734Y-96183357D01*
X129870808Y-96175199D01*
X129889558Y-95889119D01*
X129889558Y-95880881D01*
X129870808Y-95594801D01*
X129869734Y-95586643D01*
X129813803Y-95305458D01*
X129811670Y-95297498D01*
X129719513Y-95026015D01*
X129716367Y-95018420D01*
X129589565Y-94761290D01*
X129585444Y-94754153D01*
X129426169Y-94515782D01*
X129421151Y-94509242D01*
X129406540Y-94492581D01*
X129393302Y-94484184D01*
X129383535Y-94490018D01*
X128001365Y-95872188D01*
X127993751Y-95886132D01*
X127280315Y-95886132D01*
X129028229Y-94138218D01*
X129035743Y-94124457D01*
X129029285Y-94115096D01*
X129010758Y-94098849D01*
X129004222Y-94093834D01*
X128989903Y-94084266D01*
X128944375Y-94029789D01*
X128935526Y-93959346D01*
X128966167Y-93895302D01*
X129026568Y-93857990D01*
X129059904Y-93853500D01*
X183846633Y-93853500D01*
X183866018Y-93855000D01*
G37*
%TD.AperFunction*%
%TD*%
M02*
