M48
; DRILL file {KiCad (6.0.7-1)-1} date Thursday, September 21, 2023 at 10:33:58 PM
; FORMAT={-:-/ absolute / inch / decimal}
; #@! TF.CreationDate,2023-09-21T22:33:58-04:00
; #@! TF.GenerationSoftware,Kicad,Pcbnew,(6.0.7-1)-1
; #@! TF.FileFunction,Plated,1,2,PTH
FMAT,2
INCH
; #@! TA.AperFunction,Plated,PTH,ViaDrill
T1C0.0157
; #@! TA.AperFunction,Plated,PTH,ComponentDrill
T2C0.0276
; #@! TA.AperFunction,Plated,PTH,ComponentDrill
T3C0.0374
; #@! TA.AperFunction,Plated,PTH,ComponentDrill
T4C0.0394
; #@! TA.AperFunction,Plated,PTH,ComponentDrill
T5C0.0551
; #@! TA.AperFunction,Plated,PTH,ComponentDrill
T6C0.0866
; #@! TA.AperFunction,Plated,PTH,ComponentDrill
T7C0.1654
%
G90
G05
T1
X5.42Y-4.16
X5.425Y-3.795
X5.4314Y-4.3973
X5.435Y-4.605
X5.475Y-3.795
X5.485Y-4.605
X5.51Y-4.1
X5.525Y-3.795
X5.535Y-4.605
X5.575Y-3.795
X5.585Y-4.605
X5.63Y-3.795
X5.635Y-4.605
X5.68Y-3.795
X5.685Y-4.605
X5.71Y-4.1
X5.73Y-3.795
X5.78Y-3.795
X5.81Y-4.24
X5.94Y-3.97
X5.94Y-4.015
X5.965Y-4.24
X5.98Y-3.76
X5.99Y-3.97
X5.99Y-4.015
X6.04Y-3.97
X6.04Y-4.015
X6.09Y-3.97
X6.09Y-4.015
X6.14Y-4.0548
X6.17Y-4.31
X6.2109Y-3.9681
X6.2109Y-4.0075
X6.235Y-4.575
X6.235Y-4.635
X6.2542Y-3.9681
X6.2542Y-4.0075
X6.29Y-4.635
X6.3Y-4.26
X6.355Y-3.86
X6.36Y-4.67
X6.41Y-4.67
X6.415Y-4.575
X6.44Y-4.055
X6.46Y-4.67
X6.51Y-4.67
X6.56Y-3.945
X6.56Y-4.005
X6.56Y-4.67
X6.61Y-3.945
X6.61Y-4.005
X6.61Y-4.67
X6.64Y-4.335
X6.66Y-3.945
X6.66Y-4.005
X6.71Y-3.945
X6.71Y-4.005
X6.76Y-3.945
X6.76Y-4.005
X6.81Y-3.945
X6.81Y-4.005
X6.865Y-4.075
X7.08Y-4.18
X7.13Y-4.18
X7.18Y-4.18
X7.23Y-4.18
T2
X4.9776Y-4.3048
X4.9776Y-4.4032
X5.1745Y-4.3048
X5.1745Y-4.4032
T3
X7.1707Y-3.8766
X7.1707Y-3.975
X7.1707Y-4.0734
T4
X5.34Y-4.57
X5.855Y-4.575
X5.905Y-3.835
X6.015Y-4.575
X6.5844Y-3.845
X6.6844Y-3.845
X6.7844Y-3.845
X6.8487Y-4.1524
X6.8487Y-4.2524
X6.8487Y-4.3524
X6.8487Y-4.4524
T5
X5.0761Y-4.3048
X5.0761Y-4.4032
T6
X5.025Y-3.775
X5.03Y-4.6575
X7.24Y-4.6475
T7
X7.16Y-4.37
T0
M30
