%TF.GenerationSoftware,KiCad,Pcbnew,(6.0.7-1)-1*%
%TF.CreationDate,2023-09-21T22:33:58-04:00*%
%TF.ProjectId,EMHarpsichord_Stage1,454d4861-7270-4736-9963-686f72645f53,rev?*%
%TF.SameCoordinates,Original*%
%TF.FileFunction,Copper,L1,Top*%
%TF.FilePolarity,Positive*%
%FSLAX46Y46*%
G04 Gerber Fmt 4.6, Leading zero omitted, Abs format (unit mm)*
G04 Created by KiCad (PCBNEW (6.0.7-1)-1) date 2023-09-21 22:33:58*
%MOMM*%
%LPD*%
G01*
G04 APERTURE LIST*
G04 Aperture macros list*
%AMRoundRect*
0 Rectangle with rounded corners*
0 $1 Rounding radius*
0 $2 $3 $4 $5 $6 $7 $8 $9 X,Y pos of 4 corners*
0 Add a 4 corners polygon primitive as box body*
4,1,4,$2,$3,$4,$5,$6,$7,$8,$9,$2,$3,0*
0 Add four circle primitives for the rounded corners*
1,1,$1+$1,$2,$3*
1,1,$1+$1,$4,$5*
1,1,$1+$1,$6,$7*
1,1,$1+$1,$8,$9*
0 Add four rect primitives between the rounded corners*
20,1,$1+$1,$2,$3,$4,$5,0*
20,1,$1+$1,$4,$5,$6,$7,0*
20,1,$1+$1,$6,$7,$8,$9,0*
20,1,$1+$1,$8,$9,$2,$3,0*%
G04 Aperture macros list end*
%TA.AperFunction,ComponentPad*%
%ADD10C,2.000000*%
%TD*%
%TA.AperFunction,SMDPad,CuDef*%
%ADD11RoundRect,0.225000X-0.225000X-0.250000X0.225000X-0.250000X0.225000X0.250000X-0.225000X0.250000X0*%
%TD*%
%TA.AperFunction,SMDPad,CuDef*%
%ADD12RoundRect,0.200000X0.200000X0.275000X-0.200000X0.275000X-0.200000X-0.275000X0.200000X-0.275000X0*%
%TD*%
%TA.AperFunction,ComponentPad*%
%ADD13C,1.700000*%
%TD*%
%TA.AperFunction,ComponentPad*%
%ADD14O,1.700000X1.700000*%
%TD*%
%TA.AperFunction,SMDPad,CuDef*%
%ADD15RoundRect,0.250000X-0.250000X-0.475000X0.250000X-0.475000X0.250000X0.475000X-0.250000X0.475000X0*%
%TD*%
%TA.AperFunction,SMDPad,CuDef*%
%ADD16RoundRect,0.225000X-0.250000X0.225000X-0.250000X-0.225000X0.250000X-0.225000X0.250000X0.225000X0*%
%TD*%
%TA.AperFunction,ComponentPad*%
%ADD17C,3.500000*%
%TD*%
%TA.AperFunction,ComponentPad*%
%ADD18R,1.700000X1.700000*%
%TD*%
%TA.AperFunction,SMDPad,CuDef*%
%ADD19R,1.300000X2.000000*%
%TD*%
%TA.AperFunction,SMDPad,CuDef*%
%ADD20R,2.000000X2.000000*%
%TD*%
%TA.AperFunction,SMDPad,CuDef*%
%ADD21RoundRect,0.200000X-0.200000X-0.275000X0.200000X-0.275000X0.200000X0.275000X-0.200000X0.275000X0*%
%TD*%
%TA.AperFunction,SMDPad,CuDef*%
%ADD22RoundRect,0.225000X0.250000X-0.225000X0.250000X0.225000X-0.250000X0.225000X-0.250000X-0.225000X0*%
%TD*%
%TA.AperFunction,SMDPad,CuDef*%
%ADD23RoundRect,0.250000X1.412500X0.550000X-1.412500X0.550000X-1.412500X-0.550000X1.412500X-0.550000X0*%
%TD*%
%TA.AperFunction,SMDPad,CuDef*%
%ADD24RoundRect,0.225000X0.225000X0.250000X-0.225000X0.250000X-0.225000X-0.250000X0.225000X-0.250000X0*%
%TD*%
%TA.AperFunction,SMDPad,CuDef*%
%ADD25RoundRect,0.250000X0.250000X0.475000X-0.250000X0.475000X-0.250000X-0.475000X0.250000X-0.475000X0*%
%TD*%
%TA.AperFunction,SMDPad,CuDef*%
%ADD26RoundRect,0.162500X-0.825000X-0.162500X0.825000X-0.162500X0.825000X0.162500X-0.825000X0.162500X0*%
%TD*%
%TA.AperFunction,ComponentPad*%
%ADD27RoundRect,0.250000X-0.725000X0.600000X-0.725000X-0.600000X0.725000X-0.600000X0.725000X0.600000X0*%
%TD*%
%TA.AperFunction,ComponentPad*%
%ADD28O,1.950000X1.700000*%
%TD*%
%TA.AperFunction,SMDPad,CuDef*%
%ADD29RoundRect,0.150000X-0.150000X0.850000X-0.150000X-0.850000X0.150000X-0.850000X0.150000X0.850000X0*%
%TD*%
%TA.AperFunction,ComponentPad*%
%ADD30C,7.000000*%
%TD*%
%TA.AperFunction,ComponentPad*%
%ADD31C,1.600000*%
%TD*%
%TA.AperFunction,ComponentPad*%
%ADD32RoundRect,0.249700X-0.300300X-0.500300X0.300300X-0.500300X0.300300X0.500300X-0.300300X0.500300X0*%
%TD*%
%TA.AperFunction,ComponentPad*%
%ADD33O,1.100000X1.500000*%
%TD*%
%TA.AperFunction,ViaPad*%
%ADD34C,0.800000*%
%TD*%
%TA.AperFunction,Conductor*%
%ADD35C,0.400000*%
%TD*%
%TA.AperFunction,Conductor*%
%ADD36C,0.250000*%
%TD*%
%TA.AperFunction,Conductor*%
%ADD37C,0.600000*%
%TD*%
G04 APERTURE END LIST*
D10*
%TO.P,TP4,1,1*%
%TO.N,optical_out*%
X152781000Y-116205000D03*
%TD*%
D11*
%TO.P,C2,1*%
%TO.N,Net-(C2-Pad1)*%
X133582000Y-109591000D03*
%TO.P,C2,2*%
%TO.N,Net-(C2-Pad2)*%
X135132000Y-109591000D03*
%TD*%
D12*
%TO.P,R4,1*%
%TO.N,Net-(R11-Pad2)*%
X131782000Y-107191000D03*
%TO.P,R4,2*%
%TO.N,Net-(C2-Pad1)*%
X130132000Y-107191000D03*
%TD*%
%TO.P,R11,1*%
%TO.N,+5V*%
X135182000Y-107191000D03*
%TO.P,R11,2*%
%TO.N,Net-(R11-Pad2)*%
X133532000Y-107191000D03*
%TD*%
D13*
%TO.P,J2,1,Pin_1*%
%TO.N,Net-(C18-Pad2)*%
X173957000Y-113091000D03*
D14*
%TO.P,J2,2,Pin_2*%
%TO.N,Net-(C17-Pad2)*%
X173957000Y-110551000D03*
%TO.P,J2,3,Pin_3*%
%TO.N,Net-(C16-Pad2)*%
X173957000Y-108011000D03*
%TO.P,J2,4,Pin_4*%
%TO.N,Net-(C15-Pad2)*%
X173957000Y-105471000D03*
%TD*%
D15*
%TO.P,FB3,1,1*%
%TO.N,/R-*%
X166007000Y-112691000D03*
%TO.P,FB3,2,2*%
%TO.N,Net-(C17-Pad2)*%
X167907000Y-112691000D03*
%TD*%
D11*
%TO.P,C3,1*%
%TO.N,Net-(C3-Pad1)*%
X143482000Y-114265000D03*
%TO.P,C3,2*%
%TO.N,Net-(C3-Pad2)*%
X145032000Y-114265000D03*
%TD*%
D10*
%TO.P,TP1,1,1*%
%TO.N,Net-(C2-Pad1)*%
X135636000Y-116078000D03*
%TD*%
D16*
%TO.P,C17,1*%
%TO.N,GND*%
X170157000Y-111316000D03*
%TO.P,C17,2*%
%TO.N,Net-(C17-Pad2)*%
X170157000Y-112866000D03*
%TD*%
D17*
%TO.P,,1,1*%
%TO.N,GND*%
X127762000Y-118300500D03*
%TD*%
D18*
%TO.P,J1,1,Pin_1*%
%TO.N,GND*%
X172324000Y-97663000D03*
D14*
%TO.P,J1,2,Pin_2*%
%TO.N,Net-(U3-Pad5)*%
X169784000Y-97663000D03*
%TO.P,J1,3,Pin_3*%
%TO.N,Net-(R10-Pad2)*%
X167244000Y-97663000D03*
%TD*%
D19*
%TO.P,RV1,1,1*%
%TO.N,Net-(R5-Pad2)*%
X135135000Y-102291000D03*
D20*
%TO.P,RV1,2,2*%
%TO.N,Net-(R6-Pad1)*%
X133985000Y-98291000D03*
D19*
%TO.P,RV1,3,3*%
%TO.N,unconnected-(RV1-Pad3)*%
X132835000Y-102291000D03*
%TD*%
D21*
%TO.P,R2,1*%
%TO.N,+2V5*%
X142532000Y-106465000D03*
%TO.P,R2,2*%
%TO.N,+5V*%
X144182000Y-106465000D03*
%TD*%
%TO.P,R10,1*%
%TO.N,+5V*%
X162370000Y-96520000D03*
%TO.P,R10,2*%
%TO.N,Net-(R10-Pad2)*%
X164020000Y-96520000D03*
%TD*%
D11*
%TO.P,C7,1*%
%TO.N,Net-(C7-Pad1)*%
X149282000Y-106491000D03*
%TO.P,C7,2*%
%TO.N,Net-(C7-Pad2)*%
X150832000Y-106491000D03*
%TD*%
%TO.P,C5,1*%
%TO.N,Net-(C4-Pad2)*%
X147482000Y-112865000D03*
%TO.P,C5,2*%
%TO.N,optical_out*%
X149032000Y-112865000D03*
%TD*%
D10*
%TO.P,TP3,1,1*%
%TO.N,Net-(R6-Pad1)*%
X148717000Y-116205000D03*
%TD*%
D15*
%TO.P,FB4,1,1*%
%TO.N,/R+*%
X166007000Y-115491000D03*
%TO.P,FB4,2,2*%
%TO.N,Net-(C18-Pad2)*%
X167907000Y-115491000D03*
%TD*%
D21*
%TO.P,R5,1*%
%TO.N,Net-(C2-Pad2)*%
X134432000Y-111891000D03*
%TO.P,R5,2*%
%TO.N,Net-(R5-Pad2)*%
X136082000Y-111891000D03*
%TD*%
D22*
%TO.P,C9,1*%
%TO.N,GND*%
X152657000Y-107566000D03*
%TO.P,C9,2*%
%TO.N,Net-(C9-Pad2)*%
X152657000Y-106016000D03*
%TD*%
D21*
%TO.P,R6,1*%
%TO.N,Net-(R6-Pad1)*%
X140032000Y-114265000D03*
%TO.P,R6,2*%
%TO.N,Net-(C3-Pad1)*%
X141682000Y-114265000D03*
%TD*%
D19*
%TO.P,RV2,1,1*%
%TO.N,optical_out*%
X140977000Y-102291000D03*
D20*
%TO.P,RV2,2,2*%
%TO.N,Net-(C7-Pad1)*%
X139827000Y-98291000D03*
D19*
%TO.P,RV2,3,3*%
%TO.N,GND*%
X138677000Y-102291000D03*
%TD*%
D23*
%TO.P,C6,1*%
%TO.N,+5V*%
X158494500Y-98991000D03*
%TO.P,C6,2*%
%TO.N,GND*%
X153419500Y-98991000D03*
%TD*%
D22*
%TO.P,C18,1*%
%TO.N,GND*%
X170180000Y-117107000D03*
%TO.P,C18,2*%
%TO.N,Net-(C18-Pad2)*%
X170180000Y-115557000D03*
%TD*%
D24*
%TO.P,C11,1*%
%TO.N,GND*%
X161332000Y-114191000D03*
%TO.P,C11,2*%
%TO.N,+5V*%
X159782000Y-114191000D03*
%TD*%
%TO.P,C15,1*%
%TO.N,GND*%
X171332000Y-104291000D03*
%TO.P,C15,2*%
%TO.N,Net-(C15-Pad2)*%
X169782000Y-104291000D03*
%TD*%
%TO.P,C13,1*%
%TO.N,GND*%
X162032000Y-103991000D03*
%TO.P,C13,2*%
%TO.N,+5V*%
X160482000Y-103991000D03*
%TD*%
D11*
%TO.P,C1,1*%
%TO.N,+5V*%
X145982000Y-106465000D03*
%TO.P,C1,2*%
%TO.N,GND*%
X147532000Y-106465000D03*
%TD*%
D22*
%TO.P,C16,1*%
%TO.N,GND*%
X170257000Y-109066000D03*
%TO.P,C16,2*%
%TO.N,Net-(C16-Pad2)*%
X170257000Y-107516000D03*
%TD*%
D17*
%TO.P,,1,1*%
%TO.N,GND*%
X127635000Y-95885000D03*
%TD*%
D11*
%TO.P,C10,1*%
%TO.N,GND*%
X157182000Y-103991000D03*
%TO.P,C10,2*%
%TO.N,+5V*%
X158732000Y-103991000D03*
%TD*%
D12*
%TO.P,R1,1*%
%TO.N,+5V*%
X127782000Y-107191000D03*
%TO.P,R1,2*%
%TO.N,Net-(R1-Pad2)*%
X126132000Y-107191000D03*
%TD*%
D24*
%TO.P,C8,1*%
%TO.N,Net-(C8-Pad1)*%
X152932000Y-109391000D03*
%TO.P,C8,2*%
%TO.N,Net-(C8-Pad2)*%
X151382000Y-109391000D03*
%TD*%
D15*
%TO.P,FB1,1,1*%
%TO.N,/L+*%
X166107000Y-104491000D03*
%TO.P,FB1,2,2*%
%TO.N,Net-(C15-Pad2)*%
X168007000Y-104491000D03*
%TD*%
D25*
%TO.P,C12,1*%
%TO.N,GND*%
X161707000Y-116191000D03*
%TO.P,C12,2*%
%TO.N,+5V*%
X159807000Y-116191000D03*
%TD*%
D26*
%TO.P,U2,1*%
%TO.N,Net-(R6-Pad1)*%
X140019500Y-108460000D03*
%TO.P,U2,2,-*%
%TO.N,Net-(R5-Pad2)*%
X140019500Y-109730000D03*
%TO.P,U2,3,+*%
%TO.N,+2V5*%
X140019500Y-111000000D03*
%TO.P,U2,4,V-*%
%TO.N,GND*%
X140019500Y-112270000D03*
%TO.P,U2,5,+*%
%TO.N,+2V5*%
X145094500Y-112270000D03*
%TO.P,U2,6,-*%
%TO.N,Net-(C3-Pad2)*%
X145094500Y-111000000D03*
%TO.P,U2,7*%
%TO.N,Net-(C4-Pad2)*%
X145094500Y-109730000D03*
%TO.P,U2,8,V+*%
%TO.N,+5V*%
X145094500Y-108460000D03*
%TD*%
D21*
%TO.P,R3,1*%
%TO.N,GND*%
X139232000Y-106465000D03*
%TO.P,R3,2*%
%TO.N,+2V5*%
X140882000Y-106465000D03*
%TD*%
D27*
%TO.P,J3,1,Pin_1*%
%TO.N,+5V*%
X182135000Y-98465000D03*
D28*
%TO.P,J3,2,Pin_2*%
%TO.N,aux_in*%
X182135000Y-100965000D03*
%TO.P,J3,3,Pin_3*%
%TO.N,GND*%
X182135000Y-103465000D03*
%TD*%
D12*
%TO.P,R7,1*%
%TO.N,Net-(C3-Pad2)*%
X149082000Y-110865000D03*
%TO.P,R7,2*%
%TO.N,Net-(C4-Pad2)*%
X147432000Y-110865000D03*
%TD*%
D25*
%TO.P,C14,1*%
%TO.N,GND*%
X162407000Y-101891000D03*
%TO.P,C14,2*%
%TO.N,+5V*%
X160507000Y-101891000D03*
%TD*%
D29*
%TO.P,U3,1,LOUT+*%
%TO.N,/L+*%
X163602000Y-106491000D03*
%TO.P,U3,2,PGND*%
%TO.N,GND*%
X162332000Y-106491000D03*
%TO.P,U3,3,LOUT-*%
%TO.N,/L-*%
X161062000Y-106491000D03*
%TO.P,U3,4,PVDD*%
%TO.N,+5V*%
X159792000Y-106491000D03*
%TO.P,U3,5,~{MUTE}*%
%TO.N,Net-(U3-Pad5)*%
X158522000Y-106491000D03*
%TO.P,U3,6,VDD*%
%TO.N,+5V*%
X157252000Y-106491000D03*
%TO.P,U3,7,INL*%
%TO.N,Net-(R8-Pad2)*%
X155982000Y-106491000D03*
%TO.P,U3,8,VREF*%
%TO.N,Net-(C9-Pad2)*%
X154712000Y-106491000D03*
%TO.P,U3,9,MODE*%
%TO.N,+5V*%
X154712000Y-111491000D03*
%TO.P,U3,10,INR*%
%TO.N,Net-(R9-Pad2)*%
X155982000Y-111491000D03*
%TO.P,U3,11,GND*%
%TO.N,GND*%
X157252000Y-111491000D03*
%TO.P,U3,12,~{SHDN}*%
%TO.N,+5V*%
X158522000Y-111491000D03*
%TO.P,U3,13,PVDD*%
X159792000Y-111491000D03*
%TO.P,U3,14,ROUT-*%
%TO.N,/R-*%
X161062000Y-111491000D03*
%TO.P,U3,15,PGND*%
%TO.N,GND*%
X162332000Y-111491000D03*
%TO.P,U3,16,ROUT+*%
%TO.N,/R+*%
X163602000Y-111491000D03*
%TD*%
D30*
%TO.P,TP6,1,1*%
%TO.N,GND*%
X181864000Y-110998000D03*
%TD*%
D19*
%TO.P,RV3,1,1*%
%TO.N,aux_in*%
X146819000Y-102291000D03*
D20*
%TO.P,RV3,2,2*%
%TO.N,Net-(C8-Pad1)*%
X145669000Y-98291000D03*
D19*
%TO.P,RV3,3,3*%
%TO.N,GND*%
X144519000Y-102291000D03*
%TD*%
D15*
%TO.P,FB2,1,1*%
%TO.N,/L-*%
X166007000Y-107491000D03*
%TO.P,FB2,2,2*%
%TO.N,Net-(C16-Pad2)*%
X167907000Y-107491000D03*
%TD*%
D21*
%TO.P,R8,1*%
%TO.N,Net-(C7-Pad2)*%
X152432000Y-103691000D03*
%TO.P,R8,2*%
%TO.N,Net-(R8-Pad2)*%
X154082000Y-103691000D03*
%TD*%
D17*
%TO.P,,1,1*%
%TO.N,GND*%
X183896000Y-118046500D03*
%TD*%
D21*
%TO.P,R9,1*%
%TO.N,Net-(C8-Pad2)*%
X151332000Y-111591000D03*
%TO.P,R9,2*%
%TO.N,Net-(R9-Pad2)*%
X152982000Y-111591000D03*
%TD*%
D10*
%TO.P,TP2,1,1*%
%TO.N,aux_in*%
X149987000Y-97409000D03*
%TD*%
D24*
%TO.P,C4,1*%
%TO.N,Net-(C3-Pad2)*%
X149032000Y-108865000D03*
%TO.P,C4,2*%
%TO.N,Net-(C4-Pad2)*%
X147482000Y-108865000D03*
%TD*%
D31*
%TO.P,U1,*%
%TO.N,*%
X128932000Y-111841000D03*
X128932000Y-109341000D03*
D32*
%TO.P,U1,1,K*%
%TO.N,GND*%
X126432000Y-111841000D03*
D33*
%TO.P,U1,2,A*%
%TO.N,Net-(R1-Pad2)*%
X126432000Y-109341000D03*
%TO.P,U1,3,C*%
%TO.N,Net-(C2-Pad1)*%
X131432000Y-109341000D03*
%TO.P,U1,4,E*%
%TO.N,GND*%
X131432000Y-111841000D03*
%TD*%
D34*
%TO.N,+5V*%
X157757000Y-101791000D03*
X158369000Y-116205000D03*
X157757000Y-100791000D03*
X159766000Y-117729000D03*
X158857000Y-101791000D03*
X158857000Y-100791000D03*
X158369000Y-117729000D03*
%TO.N,GND*%
X145542000Y-96393000D03*
X153416000Y-100838000D03*
X156718000Y-109474000D03*
X139065000Y-96393000D03*
X137957000Y-111691000D03*
X166624000Y-118618000D03*
X174371000Y-103505000D03*
X154686000Y-101981000D03*
X137668000Y-105664000D03*
X182372000Y-106172000D03*
X152146000Y-101981000D03*
X145034000Y-104140000D03*
X144272000Y-96393000D03*
X150876000Y-101981000D03*
X166624000Y-101727000D03*
X138049000Y-116967000D03*
X141859000Y-116967000D03*
X139319000Y-116967000D03*
X143002000Y-96393000D03*
X153416000Y-101981000D03*
X162941000Y-116205000D03*
X152146000Y-100838000D03*
X171704000Y-101727000D03*
X167894000Y-100203000D03*
X171704000Y-100203000D03*
X143129000Y-116967000D03*
X165354000Y-118618000D03*
X172974000Y-101727000D03*
X147574000Y-107696000D03*
X162814000Y-118618000D03*
X141605000Y-96393000D03*
X170434000Y-101727000D03*
X151511000Y-107696000D03*
X172974000Y-100203000D03*
X139954000Y-104140000D03*
X181102000Y-106172000D03*
X164084000Y-118618000D03*
X137795000Y-96393000D03*
X167894000Y-101727000D03*
X161544000Y-118618000D03*
X144399000Y-116967000D03*
X140335000Y-96393000D03*
X155957000Y-102991000D03*
X183642000Y-106172000D03*
X150876000Y-100838000D03*
X163576000Y-102997000D03*
X166624000Y-100203000D03*
X169164000Y-101727000D03*
X170434000Y-100203000D03*
X179832000Y-106172000D03*
X154686000Y-100838000D03*
X146812000Y-96393000D03*
X168656000Y-110109000D03*
X167894000Y-118618000D03*
X140589000Y-116967000D03*
X169164000Y-100203000D03*
%TO.N,aux_in*%
X151892000Y-95504000D03*
%TO.N,Net-(U3-Pad5)*%
X160020000Y-108204000D03*
X161417000Y-98044000D03*
%TD*%
D35*
%TO.N,+5V*%
X152146000Y-97155000D02*
X156658500Y-97155000D01*
X158877000Y-96520000D02*
X158494500Y-96902500D01*
X145959919Y-106465000D02*
X145982000Y-106465000D01*
X159792000Y-113026000D02*
X159792000Y-113467042D01*
X159666000Y-116332000D02*
X159807000Y-116191000D01*
X133156000Y-105165000D02*
X135182000Y-107191000D01*
X145094500Y-107330419D02*
X145959919Y-106465000D01*
D36*
X155433042Y-113467042D02*
X159792000Y-113467042D01*
D35*
X145094500Y-108460000D02*
X145094500Y-107330419D01*
X130175000Y-104798000D02*
X130175000Y-96473000D01*
X130657000Y-95991000D02*
X136157000Y-95991000D01*
X127782000Y-107191000D02*
X129808000Y-105165000D01*
X158494500Y-96902500D02*
X158494500Y-98991000D01*
D36*
X154712000Y-111491000D02*
X154712000Y-112746000D01*
D35*
X159792000Y-105456000D02*
X160482000Y-104766000D01*
X157252000Y-106491000D02*
X157252000Y-105471000D01*
X159792000Y-111491000D02*
X159792000Y-113026000D01*
X159792000Y-113467042D02*
X159792000Y-114181000D01*
D36*
X158522000Y-111491000D02*
X158522000Y-112956000D01*
D35*
X159782000Y-114191000D02*
X159782000Y-116166000D01*
X136898000Y-95250000D02*
X150241000Y-95250000D01*
X129808000Y-105165000D02*
X130175000Y-104798000D01*
X130175000Y-96473000D02*
X130657000Y-95991000D01*
X154732000Y-111511000D02*
X154712000Y-111491000D01*
X142882000Y-105165000D02*
X144182000Y-106465000D01*
D36*
X154712000Y-112746000D02*
X155433042Y-113467042D01*
D35*
X160482000Y-104766000D02*
X160482000Y-103991000D01*
X162370000Y-96520000D02*
X158877000Y-96520000D01*
X144182000Y-106465000D02*
X144229081Y-106465000D01*
X136157000Y-95991000D02*
X136657000Y-96491000D01*
X160482000Y-101916000D02*
X160507000Y-101891000D01*
X159766000Y-116232000D02*
X159807000Y-116191000D01*
D36*
X159727000Y-113091000D02*
X159792000Y-113026000D01*
D35*
X159792000Y-114181000D02*
X159782000Y-114191000D01*
X144229081Y-106465000D02*
X145094500Y-107330419D01*
X150241000Y-95250000D02*
X152146000Y-97155000D01*
X159792000Y-106491000D02*
X159792000Y-105456000D01*
X136657000Y-102791000D02*
X139031000Y-105165000D01*
D36*
X158657000Y-113091000D02*
X159727000Y-113091000D01*
D35*
X136657000Y-96491000D02*
X136657000Y-102791000D01*
X156658500Y-97155000D02*
X158494500Y-98991000D01*
X139031000Y-105165000D02*
X142882000Y-105165000D01*
D36*
X158522000Y-112956000D02*
X158657000Y-113091000D01*
D35*
X159782000Y-116166000D02*
X159807000Y-116191000D01*
X157252000Y-105471000D02*
X158732000Y-103991000D01*
X136157000Y-95991000D02*
X136898000Y-95250000D01*
X129808000Y-105165000D02*
X133156000Y-105165000D01*
D36*
%TO.N,GND*%
X168910000Y-109474000D02*
X168656000Y-109728000D01*
D35*
X157252000Y-110008000D02*
X156718000Y-109474000D01*
D36*
X174371000Y-103505000D02*
X173482000Y-103505000D01*
X170257000Y-109066000D02*
X169318000Y-109066000D01*
D35*
X162407000Y-101891000D02*
X162470000Y-101891000D01*
X156957000Y-103991000D02*
X155957000Y-102991000D01*
X152657000Y-107566000D02*
X151641000Y-107566000D01*
D36*
X138469000Y-106465000D02*
X139232000Y-106465000D01*
D35*
X144519000Y-103625000D02*
X145034000Y-104140000D01*
D37*
X162332000Y-106491000D02*
X162332000Y-104291000D01*
D35*
X138677000Y-102291000D02*
X138677000Y-102863000D01*
D36*
X147532000Y-107654000D02*
X147574000Y-107696000D01*
D35*
X162927000Y-116191000D02*
X162941000Y-116205000D01*
X157252000Y-111491000D02*
X157252000Y-110008000D01*
D36*
X169318000Y-109066000D02*
X168910000Y-109474000D01*
D35*
X157182000Y-103991000D02*
X156957000Y-103991000D01*
X162470000Y-101891000D02*
X163576000Y-102997000D01*
D36*
X173482000Y-103505000D02*
X172696000Y-104291000D01*
D35*
X138536000Y-112270000D02*
X137957000Y-111691000D01*
X151641000Y-107566000D02*
X151511000Y-107696000D01*
X138677000Y-102863000D02*
X139954000Y-104140000D01*
X161707000Y-116191000D02*
X162927000Y-116191000D01*
X144519000Y-102291000D02*
X144519000Y-103625000D01*
D36*
X147532000Y-106465000D02*
X147532000Y-107654000D01*
X172696000Y-104291000D02*
X171332000Y-104291000D01*
X168656000Y-109728000D02*
X168656000Y-110109000D01*
X137668000Y-105664000D02*
X138469000Y-106465000D01*
D37*
X162332000Y-104291000D02*
X162032000Y-103991000D01*
D35*
X140019500Y-112270000D02*
X138536000Y-112270000D01*
D36*
%TO.N,Net-(C2-Pad1)*%
X132757000Y-109591000D02*
X133582000Y-109591000D01*
X133582000Y-114024000D02*
X133582000Y-109591000D01*
X131432000Y-109341000D02*
X132507000Y-109341000D01*
X130132000Y-107191000D02*
X130132000Y-107766000D01*
X132507000Y-109341000D02*
X132757000Y-109591000D01*
X131432000Y-109066000D02*
X131432000Y-109341000D01*
X135636000Y-116078000D02*
X133582000Y-114024000D01*
X130132000Y-107766000D02*
X131432000Y-109066000D01*
%TO.N,Net-(C3-Pad1)*%
X141682000Y-114265000D02*
X143482000Y-114265000D01*
D37*
%TO.N,Net-(C15-Pad2)*%
X169782000Y-104291000D02*
X168207000Y-104291000D01*
X168207000Y-104291000D02*
X168007000Y-104491000D01*
X169782000Y-104291000D02*
X170962000Y-105471000D01*
X170962000Y-105471000D02*
X173957000Y-105471000D01*
D35*
%TO.N,+2V5*%
X142527427Y-106469573D02*
X142527427Y-109622573D01*
X143838000Y-112270000D02*
X145094500Y-112270000D01*
X142532000Y-106465000D02*
X140882000Y-106465000D01*
X142527427Y-110959427D02*
X143838000Y-112270000D01*
X142532000Y-106465000D02*
X142527427Y-106469573D01*
X142527427Y-109622573D02*
X142527427Y-110959427D01*
X141150000Y-111000000D02*
X140019500Y-111000000D01*
X142527427Y-109622573D02*
X141150000Y-111000000D01*
D37*
%TO.N,Net-(C16-Pad2)*%
X167907000Y-107491000D02*
X170232000Y-107491000D01*
X170257000Y-107516000D02*
X171582000Y-107516000D01*
X170232000Y-107491000D02*
X170257000Y-107516000D01*
X172077000Y-108011000D02*
X173957000Y-108011000D01*
X171582000Y-107516000D02*
X172077000Y-108011000D01*
%TO.N,Net-(C17-Pad2)*%
X171857000Y-111291000D02*
X172597000Y-110551000D01*
X172597000Y-110551000D02*
X173957000Y-110551000D01*
X167907000Y-112691000D02*
X168107000Y-112891000D01*
X168107000Y-112891000D02*
X170132000Y-112891000D01*
X170982000Y-112866000D02*
X171857000Y-111991000D01*
X170132000Y-112891000D02*
X170157000Y-112866000D01*
X171857000Y-111991000D02*
X171857000Y-111291000D01*
X170982000Y-112866000D02*
X170157000Y-112866000D01*
D36*
%TO.N,Net-(C2-Pad2)*%
X134432000Y-111216000D02*
X134432000Y-111891000D01*
X135132000Y-109591000D02*
X135132000Y-110516000D01*
X135132000Y-110516000D02*
X134432000Y-111216000D01*
%TO.N,Net-(C3-Pad2)*%
X145094500Y-111000000D02*
X146192000Y-111000000D01*
X146357000Y-113665000D02*
X147934817Y-113665000D01*
X145994500Y-113302500D02*
X145032000Y-114265000D01*
X148257000Y-113342817D02*
X148257000Y-111690000D01*
X149032000Y-110815000D02*
X149082000Y-110865000D01*
X146457000Y-111265000D02*
X146457000Y-112840000D01*
X149032000Y-108865000D02*
X149032000Y-110815000D01*
X145994500Y-113302500D02*
X146357000Y-113665000D01*
X148257000Y-111690000D02*
X149082000Y-110865000D01*
X146192000Y-111000000D02*
X146457000Y-111265000D01*
X146457000Y-112840000D02*
X145994500Y-113302500D01*
X147934817Y-113665000D02*
X148257000Y-113342817D01*
%TO.N,Net-(C4-Pad2)*%
X146617000Y-109730000D02*
X145094500Y-109730000D01*
X147482000Y-108865000D02*
X146617000Y-109730000D01*
X147432000Y-112815000D02*
X147482000Y-112865000D01*
X147432000Y-110865000D02*
X147432000Y-112815000D01*
X146297000Y-109730000D02*
X147432000Y-110865000D01*
X145094500Y-109730000D02*
X146297000Y-109730000D01*
%TO.N,Net-(C7-Pad1)*%
X149282000Y-105816000D02*
X149282000Y-106491000D01*
X142757000Y-103504604D02*
X144212396Y-104960000D01*
X144212396Y-104960000D02*
X148426000Y-104960000D01*
X142757000Y-98791000D02*
X142757000Y-103504604D01*
X148426000Y-104960000D02*
X149282000Y-105816000D01*
X139827000Y-98291000D02*
X142257000Y-98291000D01*
X142257000Y-98291000D02*
X142757000Y-98791000D01*
%TO.N,Net-(C7-Pad2)*%
X150832000Y-105291000D02*
X152432000Y-103691000D01*
X150832000Y-106491000D02*
X150832000Y-105291000D01*
%TO.N,Net-(C8-Pad1)*%
X147793396Y-103691000D02*
X145957000Y-103691000D01*
X152932000Y-109391000D02*
X152132000Y-108591000D01*
X150057000Y-107290999D02*
X150057000Y-105954604D01*
X151357001Y-108591000D02*
X150057000Y-107290999D01*
X145669000Y-103403000D02*
X145669000Y-98291000D01*
X145957000Y-103691000D02*
X145669000Y-103403000D01*
X150057000Y-105954604D02*
X147793396Y-103691000D01*
X152132000Y-108591000D02*
X151357001Y-108591000D01*
%TO.N,Net-(C8-Pad2)*%
X151382000Y-111541000D02*
X151332000Y-111591000D01*
X151382000Y-109391000D02*
X151382000Y-111541000D01*
%TO.N,Net-(C9-Pad2)*%
X154712000Y-106491000D02*
X153132000Y-106491000D01*
X153132000Y-106491000D02*
X152657000Y-106016000D01*
%TO.N,Net-(R8-Pad2)*%
X155982000Y-104616000D02*
X155982000Y-106491000D01*
X155057000Y-103691000D02*
X155982000Y-104616000D01*
X154082000Y-103691000D02*
X155057000Y-103691000D01*
%TO.N,Net-(R9-Pad2)*%
X155982000Y-110316000D02*
X155982000Y-111491000D01*
X154157000Y-109791000D02*
X155457000Y-109791000D01*
X152982000Y-111591000D02*
X152982000Y-110966000D01*
X152982000Y-110966000D02*
X154157000Y-109791000D01*
X155457000Y-109791000D02*
X155982000Y-110316000D01*
%TO.N,optical_out*%
X149807000Y-108268817D02*
X148307000Y-106768817D01*
X149032000Y-112865000D02*
X149807000Y-112090000D01*
X149032000Y-112865000D02*
X149731000Y-112865000D01*
X149731000Y-112865000D02*
X152781000Y-115915000D01*
X144026000Y-105410000D02*
X140977000Y-102361000D01*
X148307000Y-106768817D02*
X148307000Y-105941000D01*
X147776000Y-105410000D02*
X144026000Y-105410000D01*
X148307000Y-105941000D02*
X147776000Y-105410000D01*
X140977000Y-102361000D02*
X140977000Y-102291000D01*
X149807000Y-112090000D02*
X149807000Y-108268817D01*
X152781000Y-115915000D02*
X152781000Y-116205000D01*
%TO.N,aux_in*%
X184658000Y-100965000D02*
X182135000Y-100965000D01*
X146819000Y-102291000D02*
X147007000Y-102291000D01*
X152400000Y-94996000D02*
X182245000Y-94996000D01*
X184912000Y-100711000D02*
X184658000Y-100965000D01*
X184912000Y-97663000D02*
X184912000Y-100711000D01*
X182245000Y-94996000D02*
X184912000Y-97663000D01*
X151892000Y-95504000D02*
X152400000Y-94996000D01*
X147007000Y-102291000D02*
X149987000Y-99311000D01*
X149987000Y-99311000D02*
X149987000Y-97409000D01*
D37*
%TO.N,/R+*%
X164357000Y-115491000D02*
X166007000Y-115491000D01*
X163602000Y-111491000D02*
X163602000Y-114736000D01*
X163602000Y-114736000D02*
X164357000Y-115491000D01*
%TO.N,/R-*%
X161393000Y-109855000D02*
X165521000Y-109855000D01*
X166007000Y-110341000D02*
X166007000Y-112691000D01*
X165521000Y-109855000D02*
X166007000Y-110341000D01*
X161062000Y-110186000D02*
X161393000Y-109855000D01*
X161062000Y-111491000D02*
X161062000Y-110186000D01*
%TO.N,/L-*%
X165421000Y-108077000D02*
X166007000Y-107491000D01*
X161343000Y-108077000D02*
X165421000Y-108077000D01*
X161062000Y-106491000D02*
X161062000Y-107796000D01*
X161062000Y-107796000D02*
X161343000Y-108077000D01*
%TO.N,/L+*%
X163602000Y-106491000D02*
X163602000Y-104946000D01*
X164057000Y-104491000D02*
X165777000Y-104491000D01*
X163602000Y-104946000D02*
X164057000Y-104491000D01*
D36*
%TO.N,Net-(R10-Pad2)*%
X164020000Y-96520000D02*
X165227000Y-96520000D01*
X166370000Y-97663000D02*
X167244000Y-97663000D01*
X165227000Y-96520000D02*
X166370000Y-97663000D01*
D37*
%TO.N,Net-(C18-Pad2)*%
X171069000Y-115570000D02*
X173548000Y-113091000D01*
X167986000Y-115570000D02*
X171069000Y-115570000D01*
X167907000Y-115491000D02*
X167986000Y-115570000D01*
X173548000Y-113091000D02*
X173957000Y-113091000D01*
D36*
%TO.N,Net-(U3-Pad5)*%
X168514000Y-98933000D02*
X169784000Y-97663000D01*
X160020000Y-108204000D02*
X159004000Y-108204000D01*
X166751000Y-98933000D02*
X168514000Y-98933000D01*
X158522000Y-107722000D02*
X158522000Y-106491000D01*
X161417000Y-98044000D02*
X165862000Y-98044000D01*
X165862000Y-98044000D02*
X166751000Y-98933000D01*
X159004000Y-108204000D02*
X158522000Y-107722000D01*
%TO.N,Net-(R1-Pad2)*%
X126132000Y-107191000D02*
X126132000Y-107766000D01*
X126132000Y-107766000D02*
X126432000Y-108066000D01*
X126432000Y-108066000D02*
X126432000Y-109341000D01*
%TO.N,Net-(R11-Pad2)*%
X131782000Y-107191000D02*
X133532000Y-107191000D01*
%TO.N,Net-(R5-Pad2)*%
X141605000Y-108368571D02*
X141605000Y-109021000D01*
X141605000Y-109021000D02*
X140896000Y-109730000D01*
X138433926Y-107763074D02*
X140999503Y-107763074D01*
X138433926Y-108314074D02*
X138433926Y-107763074D01*
X136082000Y-111891000D02*
X136082000Y-110666000D01*
X140896000Y-109730000D02*
X140019500Y-109730000D01*
X135135000Y-102291000D02*
X135135000Y-104464148D01*
X135135000Y-104464148D02*
X138433926Y-107763074D01*
X140999503Y-107763074D02*
X141605000Y-108368571D01*
X136082000Y-110666000D02*
X138433926Y-108314074D01*
%TO.N,Net-(R6-Pad1)*%
X139118000Y-108460000D02*
X137057000Y-110521000D01*
X135607000Y-113041000D02*
X137507000Y-113041000D01*
X133985000Y-104140000D02*
X137257000Y-107412000D01*
X135357000Y-110927396D02*
X135357000Y-112791000D01*
X137057000Y-110521000D02*
X137057000Y-112591000D01*
X135582000Y-110529604D02*
X135582000Y-110702396D01*
X140032000Y-114265000D02*
X141158000Y-115391000D01*
X135582000Y-110702396D02*
X135357000Y-110927396D01*
X137257000Y-107412000D02*
X137257000Y-108854604D01*
X140019500Y-108460000D02*
X139118000Y-108460000D01*
X137507000Y-113041000D02*
X138731000Y-114265000D01*
X137057000Y-112591000D02*
X137507000Y-113041000D01*
X135357000Y-112791000D02*
X135607000Y-113041000D01*
X133985000Y-98291000D02*
X133985000Y-104140000D01*
X138731000Y-114265000D02*
X140032000Y-114265000D01*
X141158000Y-115391000D02*
X147903000Y-115391000D01*
X147903000Y-115391000D02*
X148717000Y-116205000D01*
X137257000Y-108854604D02*
X135582000Y-110529604D01*
%TD*%
%TA.AperFunction,Conductor*%
%TO.N,+5V*%
G36*
X183143027Y-96794002D02*
G01*
X183164001Y-96810905D01*
X183351095Y-96997999D01*
X183385121Y-97060311D01*
X183388000Y-97087094D01*
X183388000Y-97201195D01*
X183367998Y-97269316D01*
X183314342Y-97315809D01*
X183244068Y-97325913D01*
X183197861Y-97309648D01*
X183127024Y-97267755D01*
X183112585Y-97261506D01*
X182968668Y-97219695D01*
X182956081Y-97217396D01*
X182928099Y-97215193D01*
X182923172Y-97215000D01*
X182453115Y-97215000D01*
X182437876Y-97219475D01*
X182436671Y-97220865D01*
X182435000Y-97228548D01*
X182435000Y-98639000D01*
X182414998Y-98707121D01*
X182361342Y-98753614D01*
X182309000Y-98765000D01*
X180778115Y-98765000D01*
X180762876Y-98769475D01*
X180761671Y-98770865D01*
X180760000Y-98778548D01*
X180760000Y-99128173D01*
X180760193Y-99133099D01*
X180762396Y-99161081D01*
X180764695Y-99173668D01*
X180806506Y-99317585D01*
X180812755Y-99332024D01*
X180888279Y-99459729D01*
X180897926Y-99472165D01*
X181002835Y-99577074D01*
X181015271Y-99586721D01*
X181142972Y-99662243D01*
X181156456Y-99668078D01*
X181211030Y-99713490D01*
X181232389Y-99781197D01*
X181213752Y-99849704D01*
X181176783Y-99888234D01*
X181155681Y-99902441D01*
X180988865Y-100061576D01*
X180851246Y-100246542D01*
X180746760Y-100452051D01*
X180678393Y-100672227D01*
X180677692Y-100677516D01*
X180648963Y-100894279D01*
X180648102Y-100900774D01*
X180656751Y-101131158D01*
X180657846Y-101136376D01*
X180669124Y-101190127D01*
X180663537Y-101260903D01*
X180634904Y-101305096D01*
X178471905Y-103468095D01*
X178409593Y-103502121D01*
X178382810Y-103505000D01*
X175397955Y-103505000D01*
X175329834Y-103484998D01*
X175283341Y-103431342D01*
X175272645Y-103392170D01*
X175270494Y-103371698D01*
X175264542Y-103315072D01*
X175205527Y-103133444D01*
X175198104Y-103120586D01*
X175151304Y-103039528D01*
X175110040Y-102968056D01*
X175102398Y-102959568D01*
X174986675Y-102831045D01*
X174986674Y-102831044D01*
X174982253Y-102826134D01*
X174883157Y-102754136D01*
X174833094Y-102717763D01*
X174833093Y-102717762D01*
X174827752Y-102713882D01*
X174821724Y-102711198D01*
X174821722Y-102711197D01*
X174659319Y-102638891D01*
X174659318Y-102638891D01*
X174653288Y-102636206D01*
X174547505Y-102613721D01*
X174472944Y-102597872D01*
X174472939Y-102597872D01*
X174466487Y-102596500D01*
X174275513Y-102596500D01*
X174269061Y-102597872D01*
X174269056Y-102597872D01*
X174194495Y-102613721D01*
X174088712Y-102636206D01*
X174082682Y-102638891D01*
X174082681Y-102638891D01*
X173920278Y-102711197D01*
X173920276Y-102711198D01*
X173914248Y-102713882D01*
X173908907Y-102717762D01*
X173908906Y-102717763D01*
X173849769Y-102760729D01*
X173759747Y-102826134D01*
X173755332Y-102831037D01*
X173750420Y-102835460D01*
X173749295Y-102834211D01*
X173695986Y-102867051D01*
X173662800Y-102871500D01*
X173560767Y-102871500D01*
X173549584Y-102870973D01*
X173542091Y-102869298D01*
X173534165Y-102869547D01*
X173534164Y-102869547D01*
X173474001Y-102871438D01*
X173470043Y-102871500D01*
X173442144Y-102871500D01*
X173438154Y-102872004D01*
X173426320Y-102872936D01*
X173382111Y-102874326D01*
X173374497Y-102876538D01*
X173374492Y-102876539D01*
X173362659Y-102879977D01*
X173343296Y-102883988D01*
X173323203Y-102886526D01*
X173315836Y-102889443D01*
X173315831Y-102889444D01*
X173282092Y-102902802D01*
X173270865Y-102906646D01*
X173228407Y-102918982D01*
X173221581Y-102923019D01*
X173210972Y-102929293D01*
X173193224Y-102937988D01*
X173174383Y-102945448D01*
X173167967Y-102950110D01*
X173167966Y-102950110D01*
X173138613Y-102971436D01*
X173128693Y-102977952D01*
X173097465Y-102996420D01*
X173097462Y-102996422D01*
X173090638Y-103000458D01*
X173076317Y-103014779D01*
X173061284Y-103027619D01*
X173044893Y-103039528D01*
X173039842Y-103045633D01*
X173039837Y-103045638D01*
X173016701Y-103073604D01*
X173008713Y-103082382D01*
X172623000Y-103468095D01*
X172560688Y-103502121D01*
X172533905Y-103505000D01*
X172110457Y-103505000D01*
X172042336Y-103484998D01*
X172021441Y-103468175D01*
X172019883Y-103466620D01*
X172014702Y-103461448D01*
X171961898Y-103428899D01*
X171875331Y-103375538D01*
X171875329Y-103375537D01*
X171869101Y-103371698D01*
X171706757Y-103317851D01*
X171699920Y-103317151D01*
X171699918Y-103317150D01*
X171658599Y-103312917D01*
X171605732Y-103307500D01*
X171058268Y-103307500D01*
X171055022Y-103307837D01*
X171055018Y-103307837D01*
X171020917Y-103311375D01*
X170955981Y-103318113D01*
X170943935Y-103322132D01*
X170800676Y-103369927D01*
X170800674Y-103369928D01*
X170793732Y-103372244D01*
X170648287Y-103462248D01*
X170643114Y-103467430D01*
X170637377Y-103471977D01*
X170635855Y-103470057D01*
X170583793Y-103498545D01*
X170512973Y-103493544D01*
X170476450Y-103470116D01*
X170475628Y-103471157D01*
X170469882Y-103466619D01*
X170464702Y-103461448D01*
X170411898Y-103428899D01*
X170325331Y-103375538D01*
X170325329Y-103375537D01*
X170319101Y-103371698D01*
X170156757Y-103317851D01*
X170149920Y-103317151D01*
X170149918Y-103317150D01*
X170108599Y-103312917D01*
X170055732Y-103307500D01*
X169508268Y-103307500D01*
X169505022Y-103307837D01*
X169505018Y-103307837D01*
X169470917Y-103311375D01*
X169405981Y-103318113D01*
X169393935Y-103322132D01*
X169250676Y-103369927D01*
X169250674Y-103369928D01*
X169243732Y-103372244D01*
X169237508Y-103376096D01*
X169237507Y-103376096D01*
X169148231Y-103431342D01*
X169098287Y-103462248D01*
X169096864Y-103459948D01*
X169042688Y-103481882D01*
X169030223Y-103482500D01*
X168848350Y-103482500D01*
X168780229Y-103462498D01*
X168759333Y-103445674D01*
X168737809Y-103424188D01*
X168730303Y-103416695D01*
X168714718Y-103407088D01*
X168585968Y-103327725D01*
X168585966Y-103327724D01*
X168579738Y-103323885D01*
X168499995Y-103297436D01*
X168418389Y-103270368D01*
X168418387Y-103270368D01*
X168411861Y-103268203D01*
X168405025Y-103267503D01*
X168405022Y-103267502D01*
X168361969Y-103263091D01*
X168307400Y-103257500D01*
X167706600Y-103257500D01*
X167703354Y-103257837D01*
X167703350Y-103257837D01*
X167607692Y-103267762D01*
X167607688Y-103267763D01*
X167600834Y-103268474D01*
X167594298Y-103270655D01*
X167594296Y-103270655D01*
X167556401Y-103283298D01*
X167433054Y-103324450D01*
X167282652Y-103417522D01*
X167238803Y-103461448D01*
X167232244Y-103468018D01*
X167169962Y-103502097D01*
X167143071Y-103505000D01*
X166970889Y-103505000D01*
X166902768Y-103484998D01*
X166881871Y-103468173D01*
X166835483Y-103421866D01*
X166830303Y-103416695D01*
X166814718Y-103407088D01*
X166685968Y-103327725D01*
X166685966Y-103327724D01*
X166679738Y-103323885D01*
X166599995Y-103297436D01*
X166518389Y-103270368D01*
X166518387Y-103270368D01*
X166511861Y-103268203D01*
X166505025Y-103267503D01*
X166505022Y-103267502D01*
X166461969Y-103263091D01*
X166407400Y-103257500D01*
X165806600Y-103257500D01*
X165803354Y-103257837D01*
X165803350Y-103257837D01*
X165707692Y-103267762D01*
X165707688Y-103267763D01*
X165700834Y-103268474D01*
X165694298Y-103270655D01*
X165694296Y-103270655D01*
X165656401Y-103283298D01*
X165533054Y-103324450D01*
X165526826Y-103328304D01*
X165526824Y-103328305D01*
X165520708Y-103332090D01*
X165395759Y-103409411D01*
X165327309Y-103428249D01*
X165259539Y-103407088D01*
X165240362Y-103391362D01*
X164334834Y-102485834D01*
X164321994Y-102470802D01*
X164318342Y-102465776D01*
X164315040Y-102460056D01*
X164310621Y-102455148D01*
X164310618Y-102455144D01*
X164191675Y-102323045D01*
X164191674Y-102323044D01*
X164187253Y-102318134D01*
X164173651Y-102308251D01*
X164146230Y-102288329D01*
X164121698Y-102270505D01*
X164106666Y-102257666D01*
X163452405Y-101603405D01*
X163418379Y-101541093D01*
X163415500Y-101514310D01*
X163415500Y-101365600D01*
X163415163Y-101362350D01*
X163405238Y-101266692D01*
X163405237Y-101266688D01*
X163404526Y-101259834D01*
X163348550Y-101092054D01*
X163255478Y-100941652D01*
X163130303Y-100816695D01*
X163048374Y-100766193D01*
X162985968Y-100727725D01*
X162985966Y-100727724D01*
X162979738Y-100723885D01*
X162839939Y-100677516D01*
X162818389Y-100670368D01*
X162818387Y-100670368D01*
X162811861Y-100668203D01*
X162805025Y-100667503D01*
X162805022Y-100667502D01*
X162761969Y-100663091D01*
X162707400Y-100657500D01*
X162106600Y-100657500D01*
X162103354Y-100657837D01*
X162103350Y-100657837D01*
X162007692Y-100667762D01*
X162007688Y-100667763D01*
X162000834Y-100668474D01*
X161994298Y-100670655D01*
X161994296Y-100670655D01*
X161926946Y-100693125D01*
X161833054Y-100724450D01*
X161682652Y-100817522D01*
X161557695Y-100942697D01*
X161553855Y-100948927D01*
X161553854Y-100948928D01*
X161501097Y-101034515D01*
X161448324Y-101082009D01*
X161378253Y-101093432D01*
X161313129Y-101065157D01*
X161285384Y-101032539D01*
X161278718Y-101021269D01*
X161269074Y-101008835D01*
X161164165Y-100903926D01*
X161151729Y-100894279D01*
X161024024Y-100818755D01*
X161009585Y-100812506D01*
X160865668Y-100770695D01*
X160853081Y-100768396D01*
X160825099Y-100766193D01*
X160824532Y-100766171D01*
X160809876Y-100770475D01*
X160808671Y-100771865D01*
X160807000Y-100779548D01*
X160807000Y-102065000D01*
X160786998Y-102133121D01*
X160733342Y-102179614D01*
X160681000Y-102191000D01*
X159625115Y-102191000D01*
X159609876Y-102195475D01*
X159608671Y-102196865D01*
X159607000Y-102204548D01*
X159607000Y-102429173D01*
X159607193Y-102434099D01*
X159609396Y-102462081D01*
X159611695Y-102474668D01*
X159653506Y-102618585D01*
X159659755Y-102633024D01*
X159735279Y-102760729D01*
X159744926Y-102773165D01*
X159849835Y-102878074D01*
X159862266Y-102887716D01*
X159983761Y-102959568D01*
X160032214Y-103011461D01*
X160044919Y-103081312D01*
X160017844Y-103146943D01*
X159983761Y-103176476D01*
X159877710Y-103239194D01*
X159865283Y-103248834D01*
X159764834Y-103349283D01*
X159755194Y-103361710D01*
X159715454Y-103428907D01*
X159663561Y-103477360D01*
X159593710Y-103490065D01*
X159528079Y-103462990D01*
X159498546Y-103428907D01*
X159458806Y-103361710D01*
X159449166Y-103349283D01*
X159348717Y-103248834D01*
X159336290Y-103239194D01*
X159214013Y-103166880D01*
X159199577Y-103160633D01*
X159061734Y-103120586D01*
X159049813Y-103118409D01*
X159034969Y-103121527D01*
X159032000Y-103132990D01*
X159032000Y-103672885D01*
X159036475Y-103688124D01*
X159037865Y-103689329D01*
X159045548Y-103691000D01*
X159563883Y-103691000D01*
X159567779Y-103689856D01*
X159630061Y-103687631D01*
X159645548Y-103691000D01*
X160656000Y-103691000D01*
X160724121Y-103711002D01*
X160770614Y-103764658D01*
X160782000Y-103817000D01*
X160782000Y-104165000D01*
X160761998Y-104233121D01*
X160708342Y-104279614D01*
X160656000Y-104291000D01*
X159650117Y-104291000D01*
X159646221Y-104292144D01*
X159583939Y-104294369D01*
X159568452Y-104291000D01*
X158558000Y-104291000D01*
X158489879Y-104270998D01*
X158443386Y-104217342D01*
X158432000Y-104165000D01*
X158432000Y-103135051D01*
X158427656Y-103120256D01*
X158415996Y-103118195D01*
X158414871Y-103118284D01*
X158402266Y-103120586D01*
X158264423Y-103160633D01*
X158249987Y-103166880D01*
X158127714Y-103239192D01*
X158111234Y-103251976D01*
X158045150Y-103277925D01*
X157975527Y-103264027D01*
X157944986Y-103241592D01*
X157869882Y-103166619D01*
X157864702Y-103161448D01*
X157841171Y-103146943D01*
X157725331Y-103075538D01*
X157725329Y-103075537D01*
X157719101Y-103071698D01*
X157556757Y-103017851D01*
X157549920Y-103017151D01*
X157549918Y-103017150D01*
X157508599Y-103012917D01*
X157455732Y-103007500D01*
X157027661Y-103007500D01*
X156959540Y-102987498D01*
X156938566Y-102970595D01*
X156891665Y-102923694D01*
X156857639Y-102861382D01*
X156855450Y-102847769D01*
X156851232Y-102807637D01*
X156850542Y-102801072D01*
X156841475Y-102773165D01*
X156796744Y-102635500D01*
X156791527Y-102619444D01*
X156779073Y-102597872D01*
X156733026Y-102518118D01*
X156696040Y-102454056D01*
X156678561Y-102434643D01*
X156572675Y-102317045D01*
X156572674Y-102317044D01*
X156568253Y-102312134D01*
X156433138Y-102213967D01*
X156419094Y-102203763D01*
X156419093Y-102203762D01*
X156413752Y-102199882D01*
X156407724Y-102197198D01*
X156407722Y-102197197D01*
X156245319Y-102124891D01*
X156245318Y-102124891D01*
X156239288Y-102122206D01*
X156145887Y-102102353D01*
X156058944Y-102083872D01*
X156058939Y-102083872D01*
X156052487Y-102082500D01*
X155955000Y-102082500D01*
X155886879Y-102062498D01*
X155840386Y-102008842D01*
X155829000Y-101956500D01*
X155829000Y-101572885D01*
X159607000Y-101572885D01*
X159611475Y-101588124D01*
X159612865Y-101589329D01*
X159620548Y-101591000D01*
X160188885Y-101591000D01*
X160204124Y-101586525D01*
X160205329Y-101585135D01*
X160207000Y-101577452D01*
X160207000Y-100784115D01*
X160202525Y-100768876D01*
X160201135Y-100767671D01*
X160193509Y-100766012D01*
X160188901Y-100766193D01*
X160160919Y-100768396D01*
X160148332Y-100770695D01*
X160004415Y-100812506D01*
X159989976Y-100818755D01*
X159862271Y-100894279D01*
X159849835Y-100903926D01*
X159744926Y-101008835D01*
X159735279Y-101021271D01*
X159659755Y-101148976D01*
X159653506Y-101163415D01*
X159611695Y-101307332D01*
X159609396Y-101319919D01*
X159607193Y-101347901D01*
X159607000Y-101352828D01*
X159607000Y-101572885D01*
X155829000Y-101572885D01*
X155829000Y-99604173D01*
X156432000Y-99604173D01*
X156432193Y-99609099D01*
X156434396Y-99637081D01*
X156436695Y-99649668D01*
X156478506Y-99793585D01*
X156484755Y-99808024D01*
X156560279Y-99935729D01*
X156569926Y-99948165D01*
X156674835Y-100053074D01*
X156687271Y-100062721D01*
X156814976Y-100138245D01*
X156829415Y-100144494D01*
X156973332Y-100186305D01*
X156985919Y-100188604D01*
X157013901Y-100190807D01*
X157018827Y-100191000D01*
X158176385Y-100191000D01*
X158191624Y-100186525D01*
X158192829Y-100185135D01*
X158194500Y-100177452D01*
X158194500Y-100172885D01*
X158794500Y-100172885D01*
X158798975Y-100188124D01*
X158800365Y-100189329D01*
X158808048Y-100191000D01*
X159970173Y-100191000D01*
X159975099Y-100190807D01*
X160003081Y-100188604D01*
X160015668Y-100186305D01*
X160159585Y-100144494D01*
X160174024Y-100138245D01*
X160301729Y-100062721D01*
X160314165Y-100053074D01*
X160419074Y-99948165D01*
X160428721Y-99935729D01*
X160504245Y-99808024D01*
X160510494Y-99793585D01*
X160552305Y-99649668D01*
X160554604Y-99637081D01*
X160556807Y-99609099D01*
X160557000Y-99604173D01*
X160557000Y-99309115D01*
X160552525Y-99293876D01*
X160551135Y-99292671D01*
X160543452Y-99291000D01*
X158812615Y-99291000D01*
X158797376Y-99295475D01*
X158796171Y-99296865D01*
X158794500Y-99304548D01*
X158794500Y-100172885D01*
X158194500Y-100172885D01*
X158194500Y-99309115D01*
X158190025Y-99293876D01*
X158188635Y-99292671D01*
X158180952Y-99291000D01*
X156450115Y-99291000D01*
X156434876Y-99295475D01*
X156433671Y-99296865D01*
X156432000Y-99304548D01*
X156432000Y-99604173D01*
X155829000Y-99604173D01*
X155829000Y-97789000D01*
X155849002Y-97720879D01*
X155902658Y-97674386D01*
X155955000Y-97663000D01*
X156660039Y-97663000D01*
X156728160Y-97683002D01*
X156774653Y-97736658D01*
X156784757Y-97806932D01*
X156755263Y-97871512D01*
X156724178Y-97897454D01*
X156687266Y-97919284D01*
X156674835Y-97928926D01*
X156569926Y-98033835D01*
X156560279Y-98046271D01*
X156484755Y-98173976D01*
X156478506Y-98188415D01*
X156436695Y-98332332D01*
X156434396Y-98344919D01*
X156432193Y-98372901D01*
X156432000Y-98377828D01*
X156432000Y-98672885D01*
X156436475Y-98688124D01*
X156437865Y-98689329D01*
X156445548Y-98691000D01*
X160538885Y-98691000D01*
X160554124Y-98686525D01*
X160568062Y-98670440D01*
X160627789Y-98632056D01*
X160698785Y-98632056D01*
X160756922Y-98668640D01*
X160805747Y-98722866D01*
X160960248Y-98835118D01*
X160966276Y-98837802D01*
X160966278Y-98837803D01*
X161052657Y-98876261D01*
X161134712Y-98912794D01*
X161225887Y-98932174D01*
X161315056Y-98951128D01*
X161315061Y-98951128D01*
X161321513Y-98952500D01*
X161512487Y-98952500D01*
X161518939Y-98951128D01*
X161518944Y-98951128D01*
X161608113Y-98932174D01*
X161699288Y-98912794D01*
X161781343Y-98876261D01*
X161867722Y-98837803D01*
X161867724Y-98837802D01*
X161873752Y-98835118D01*
X161964102Y-98769475D01*
X162006671Y-98738546D01*
X162028253Y-98722866D01*
X162032668Y-98717963D01*
X162037580Y-98713540D01*
X162038705Y-98714789D01*
X162092014Y-98681949D01*
X162125200Y-98677500D01*
X165547405Y-98677500D01*
X165615526Y-98697502D01*
X165636501Y-98714405D01*
X166159499Y-99237404D01*
X166193524Y-99299716D01*
X166188459Y-99370532D01*
X166144464Y-99428435D01*
X166100602Y-99460303D01*
X166012747Y-99524134D01*
X166008326Y-99529044D01*
X166008325Y-99529045D01*
X165925457Y-99621080D01*
X165884960Y-99666056D01*
X165876475Y-99680753D01*
X165794162Y-99823323D01*
X165789473Y-99831444D01*
X165730458Y-100013072D01*
X165729768Y-100019633D01*
X165729768Y-100019635D01*
X165713661Y-100172885D01*
X165710496Y-100203000D01*
X165730458Y-100392928D01*
X165789473Y-100574556D01*
X165884960Y-100739944D01*
X165889378Y-100744851D01*
X165889379Y-100744852D01*
X166011688Y-100880690D01*
X166042406Y-100944697D01*
X166033641Y-101015151D01*
X166011688Y-101049310D01*
X165908948Y-101163415D01*
X165884960Y-101190056D01*
X165881659Y-101195774D01*
X165817251Y-101307332D01*
X165789473Y-101355444D01*
X165730458Y-101537072D01*
X165729768Y-101543633D01*
X165729768Y-101543635D01*
X165724790Y-101591000D01*
X165710496Y-101727000D01*
X165711186Y-101733565D01*
X165714839Y-101768317D01*
X165730458Y-101916928D01*
X165789473Y-102098556D01*
X165792776Y-102104278D01*
X165792777Y-102104279D01*
X165826686Y-102163010D01*
X165884960Y-102263944D01*
X165889378Y-102268851D01*
X165889379Y-102268852D01*
X165932772Y-102317045D01*
X166012747Y-102405866D01*
X166167248Y-102518118D01*
X166173276Y-102520802D01*
X166173278Y-102520803D01*
X166335681Y-102593109D01*
X166341712Y-102595794D01*
X166435113Y-102615647D01*
X166522056Y-102634128D01*
X166522061Y-102634128D01*
X166528513Y-102635500D01*
X166719487Y-102635500D01*
X166725939Y-102634128D01*
X166725944Y-102634128D01*
X166812887Y-102615647D01*
X166906288Y-102595794D01*
X166912319Y-102593109D01*
X167074722Y-102520803D01*
X167074724Y-102520802D01*
X167080752Y-102518118D01*
X167184940Y-102442421D01*
X167251806Y-102418563D01*
X167320958Y-102434643D01*
X167333056Y-102442418D01*
X167437248Y-102518118D01*
X167443276Y-102520802D01*
X167443278Y-102520803D01*
X167605681Y-102593109D01*
X167611712Y-102595794D01*
X167705113Y-102615647D01*
X167792056Y-102634128D01*
X167792061Y-102634128D01*
X167798513Y-102635500D01*
X167989487Y-102635500D01*
X167995939Y-102634128D01*
X167995944Y-102634128D01*
X168082887Y-102615647D01*
X168176288Y-102595794D01*
X168182319Y-102593109D01*
X168344722Y-102520803D01*
X168344724Y-102520802D01*
X168350752Y-102518118D01*
X168454940Y-102442421D01*
X168521806Y-102418563D01*
X168590958Y-102434643D01*
X168603056Y-102442418D01*
X168707248Y-102518118D01*
X168713276Y-102520802D01*
X168713278Y-102520803D01*
X168875681Y-102593109D01*
X168881712Y-102595794D01*
X168975113Y-102615647D01*
X169062056Y-102634128D01*
X169062061Y-102634128D01*
X169068513Y-102635500D01*
X169259487Y-102635500D01*
X169265939Y-102634128D01*
X169265944Y-102634128D01*
X169352887Y-102615647D01*
X169446288Y-102595794D01*
X169452319Y-102593109D01*
X169614722Y-102520803D01*
X169614724Y-102520802D01*
X169620752Y-102518118D01*
X169724940Y-102442421D01*
X169791806Y-102418563D01*
X169860958Y-102434643D01*
X169873056Y-102442418D01*
X169977248Y-102518118D01*
X169983276Y-102520802D01*
X169983278Y-102520803D01*
X170145681Y-102593109D01*
X170151712Y-102595794D01*
X170245113Y-102615647D01*
X170332056Y-102634128D01*
X170332061Y-102634128D01*
X170338513Y-102635500D01*
X170529487Y-102635500D01*
X170535939Y-102634128D01*
X170535944Y-102634128D01*
X170622887Y-102615647D01*
X170716288Y-102595794D01*
X170722319Y-102593109D01*
X170884722Y-102520803D01*
X170884724Y-102520802D01*
X170890752Y-102518118D01*
X170994940Y-102442421D01*
X171061806Y-102418563D01*
X171130958Y-102434643D01*
X171143056Y-102442418D01*
X171247248Y-102518118D01*
X171253276Y-102520802D01*
X171253278Y-102520803D01*
X171415681Y-102593109D01*
X171421712Y-102595794D01*
X171515113Y-102615647D01*
X171602056Y-102634128D01*
X171602061Y-102634128D01*
X171608513Y-102635500D01*
X171799487Y-102635500D01*
X171805939Y-102634128D01*
X171805944Y-102634128D01*
X171892887Y-102615647D01*
X171986288Y-102595794D01*
X171992319Y-102593109D01*
X172154722Y-102520803D01*
X172154724Y-102520802D01*
X172160752Y-102518118D01*
X172264940Y-102442421D01*
X172331806Y-102418563D01*
X172400958Y-102434643D01*
X172413056Y-102442418D01*
X172517248Y-102518118D01*
X172523276Y-102520802D01*
X172523278Y-102520803D01*
X172685681Y-102593109D01*
X172691712Y-102595794D01*
X172785113Y-102615647D01*
X172872056Y-102634128D01*
X172872061Y-102634128D01*
X172878513Y-102635500D01*
X173069487Y-102635500D01*
X173075939Y-102634128D01*
X173075944Y-102634128D01*
X173162887Y-102615647D01*
X173256288Y-102595794D01*
X173262319Y-102593109D01*
X173424722Y-102520803D01*
X173424724Y-102520802D01*
X173430752Y-102518118D01*
X173585253Y-102405866D01*
X173665228Y-102317045D01*
X173708621Y-102268852D01*
X173708622Y-102268851D01*
X173713040Y-102263944D01*
X173771314Y-102163010D01*
X173805223Y-102104279D01*
X173805224Y-102104278D01*
X173808527Y-102098556D01*
X173867542Y-101916928D01*
X173883162Y-101768317D01*
X173886814Y-101733565D01*
X173887504Y-101727000D01*
X173873210Y-101591000D01*
X173868232Y-101543635D01*
X173868232Y-101543633D01*
X173867542Y-101537072D01*
X173808527Y-101355444D01*
X173780750Y-101307332D01*
X173716341Y-101195774D01*
X173713040Y-101190056D01*
X173689053Y-101163415D01*
X173586312Y-101049310D01*
X173555594Y-100985303D01*
X173564359Y-100914849D01*
X173586312Y-100880690D01*
X173708621Y-100744852D01*
X173708622Y-100744851D01*
X173713040Y-100739944D01*
X173808527Y-100574556D01*
X173867542Y-100392928D01*
X173887504Y-100203000D01*
X173884339Y-100172885D01*
X173868232Y-100019635D01*
X173868232Y-100019633D01*
X173867542Y-100013072D01*
X173808527Y-99831444D01*
X173803839Y-99823323D01*
X173721525Y-99680753D01*
X173713040Y-99666056D01*
X173585409Y-99524308D01*
X173554694Y-99460303D01*
X173563458Y-99389849D01*
X173608920Y-99335318D01*
X173679047Y-99314000D01*
X174117000Y-99314000D01*
X174117000Y-98146885D01*
X180760000Y-98146885D01*
X180764475Y-98162124D01*
X180765865Y-98163329D01*
X180773548Y-98165000D01*
X181816885Y-98165000D01*
X181832124Y-98160525D01*
X181833329Y-98159135D01*
X181835000Y-98151452D01*
X181835000Y-97233115D01*
X181830525Y-97217876D01*
X181829135Y-97216671D01*
X181821452Y-97215000D01*
X181346828Y-97215000D01*
X181341901Y-97215193D01*
X181313919Y-97217396D01*
X181301332Y-97219695D01*
X181157415Y-97261506D01*
X181142976Y-97267755D01*
X181015271Y-97343279D01*
X181002835Y-97352926D01*
X180897926Y-97457835D01*
X180888279Y-97470271D01*
X180812755Y-97597976D01*
X180806506Y-97612415D01*
X180764695Y-97756332D01*
X180762396Y-97768919D01*
X180760193Y-97796901D01*
X180760000Y-97801828D01*
X180760000Y-98146885D01*
X174117000Y-98146885D01*
X174117000Y-96900000D01*
X174137002Y-96831879D01*
X174190658Y-96785386D01*
X174243000Y-96774000D01*
X183074906Y-96774000D01*
X183143027Y-96794002D01*
G37*
%TD.AperFunction*%
%TD*%
%TA.AperFunction,Conductor*%
%TO.N,+5V*%
G36*
X158859742Y-115463002D02*
G01*
X158906235Y-115516658D01*
X158916339Y-115586932D01*
X158912619Y-115604151D01*
X158911694Y-115607335D01*
X158909396Y-115619919D01*
X158907193Y-115647901D01*
X158907000Y-115652828D01*
X158907000Y-115872885D01*
X158911475Y-115888124D01*
X158912865Y-115889329D01*
X158920548Y-115891000D01*
X159981000Y-115891000D01*
X160049121Y-115911002D01*
X160095614Y-115964658D01*
X160107000Y-116017000D01*
X160107000Y-117297885D01*
X160111475Y-117313124D01*
X160112865Y-117314329D01*
X160120491Y-117315988D01*
X160125099Y-117315807D01*
X160153081Y-117313604D01*
X160165668Y-117311305D01*
X160309585Y-117269494D01*
X160324017Y-117263248D01*
X160337861Y-117255061D01*
X160406677Y-117237602D01*
X160474009Y-117260119D01*
X160518478Y-117315463D01*
X160528000Y-117363515D01*
X160528000Y-118111000D01*
X160507998Y-118179121D01*
X160454342Y-118225614D01*
X160402000Y-118237000D01*
X157987000Y-118237000D01*
X157918879Y-118216998D01*
X157872386Y-118163342D01*
X157861000Y-118111000D01*
X157861000Y-116729173D01*
X158907000Y-116729173D01*
X158907193Y-116734099D01*
X158909396Y-116762081D01*
X158911695Y-116774668D01*
X158953506Y-116918585D01*
X158959755Y-116933024D01*
X159035279Y-117060729D01*
X159044926Y-117073165D01*
X159149835Y-117178074D01*
X159162271Y-117187721D01*
X159289976Y-117263245D01*
X159304415Y-117269494D01*
X159448332Y-117311305D01*
X159460919Y-117313604D01*
X159488901Y-117315807D01*
X159489468Y-117315829D01*
X159504124Y-117311525D01*
X159505329Y-117310135D01*
X159507000Y-117302452D01*
X159507000Y-116509115D01*
X159502525Y-116493876D01*
X159501135Y-116492671D01*
X159493452Y-116491000D01*
X158925115Y-116491000D01*
X158909876Y-116495475D01*
X158908671Y-116496865D01*
X158907000Y-116504548D01*
X158907000Y-116729173D01*
X157861000Y-116729173D01*
X157861000Y-115569000D01*
X157881002Y-115500879D01*
X157934658Y-115454386D01*
X157987000Y-115443000D01*
X158791621Y-115443000D01*
X158859742Y-115463002D01*
G37*
%TD.AperFunction*%
%TD*%
%TA.AperFunction,Conductor*%
%TO.N,GND*%
G36*
X183866018Y-93855000D02*
G01*
X183880851Y-93857310D01*
X183880855Y-93857310D01*
X183889724Y-93858691D01*
X183898626Y-93857527D01*
X183898629Y-93857527D01*
X183906012Y-93856561D01*
X183930591Y-93855767D01*
X183957442Y-93857527D01*
X184152922Y-93870340D01*
X184169262Y-93872491D01*
X184291478Y-93896801D01*
X184413696Y-93921112D01*
X184429606Y-93925375D01*
X184665600Y-94005484D01*
X184680826Y-94011791D01*
X184904342Y-94122016D01*
X184918616Y-94130257D01*
X185125829Y-94268713D01*
X185138905Y-94278746D01*
X185326278Y-94443068D01*
X185337932Y-94454722D01*
X185502254Y-94642095D01*
X185512287Y-94655171D01*
X185650743Y-94862384D01*
X185658984Y-94876658D01*
X185769209Y-95100174D01*
X185775515Y-95115398D01*
X185855625Y-95351394D01*
X185859888Y-95367304D01*
X185876604Y-95451339D01*
X185908509Y-95611738D01*
X185910660Y-95628078D01*
X185924421Y-95838012D01*
X185924763Y-95843236D01*
X185923733Y-95866350D01*
X185923690Y-95869854D01*
X185922309Y-95878724D01*
X185923473Y-95887626D01*
X185923473Y-95887628D01*
X185924771Y-95897552D01*
X185925835Y-95905684D01*
X185926436Y-95910283D01*
X185927500Y-95926621D01*
X185927500Y-109755820D01*
X185907498Y-109823941D01*
X185853842Y-109870434D01*
X185783568Y-109880538D01*
X185718988Y-109851044D01*
X185682801Y-109798087D01*
X185567676Y-109474779D01*
X185565333Y-109469095D01*
X185401362Y-109120637D01*
X185398473Y-109115203D01*
X185201283Y-108784415D01*
X185197875Y-108779285D01*
X184969340Y-108469309D01*
X184965452Y-108464542D01*
X184875973Y-108365165D01*
X184862450Y-108356834D01*
X184862374Y-108356835D01*
X184853088Y-108362465D01*
X182230365Y-110985188D01*
X182222751Y-110999132D01*
X182222882Y-111000965D01*
X182227133Y-111007580D01*
X184852946Y-113633393D01*
X184866890Y-113641007D01*
X184867905Y-113640935D01*
X184875636Y-113635832D01*
X184893516Y-113617057D01*
X184897526Y-113612411D01*
X185134612Y-113308955D01*
X185138184Y-113303892D01*
X185344520Y-112978757D01*
X185347563Y-112973401D01*
X185521198Y-112629663D01*
X185523706Y-112624028D01*
X185662964Y-112264999D01*
X185664913Y-112259140D01*
X185680142Y-112204595D01*
X185717726Y-112144363D01*
X185781908Y-112114012D01*
X185852310Y-112123178D01*
X185906581Y-112168952D01*
X185927500Y-112238479D01*
X185927500Y-116621596D01*
X185907498Y-116689717D01*
X185853842Y-116736210D01*
X185783568Y-116746314D01*
X185718988Y-116716820D01*
X185696734Y-116691597D01*
X185687166Y-116677278D01*
X185682151Y-116670742D01*
X185667540Y-116654081D01*
X185654302Y-116645684D01*
X185644535Y-116651518D01*
X182502771Y-119793282D01*
X182495257Y-119807043D01*
X182501715Y-119816404D01*
X182520242Y-119832651D01*
X182526775Y-119837664D01*
X182545904Y-119850446D01*
X182591431Y-119904924D01*
X182600278Y-119975367D01*
X182569637Y-120039411D01*
X182509235Y-120076722D01*
X182476186Y-120081211D01*
X144624103Y-120166849D01*
X129289316Y-120201543D01*
X129221150Y-120181695D01*
X129174536Y-120128144D01*
X129163033Y-120076292D01*
X129162930Y-120058992D01*
X129156982Y-120049035D01*
X127409579Y-118301632D01*
X128120751Y-118301632D01*
X128120882Y-118303465D01*
X128125133Y-118310080D01*
X129508782Y-119693729D01*
X129522543Y-119701243D01*
X129531904Y-119694785D01*
X129548151Y-119676258D01*
X129553169Y-119669718D01*
X129712444Y-119431347D01*
X129716565Y-119424210D01*
X129843367Y-119167080D01*
X129846513Y-119159485D01*
X129938670Y-118888002D01*
X129940803Y-118880042D01*
X129996734Y-118598857D01*
X129997808Y-118590699D01*
X130016558Y-118304619D01*
X130016558Y-118296381D01*
X129997808Y-118010301D01*
X129996734Y-118002143D01*
X129940803Y-117720958D01*
X129938670Y-117712998D01*
X129846513Y-117441515D01*
X129843367Y-117433920D01*
X129716565Y-117176790D01*
X129712444Y-117169653D01*
X129553169Y-116931282D01*
X129548151Y-116924742D01*
X129533540Y-116908081D01*
X129520302Y-116899684D01*
X129510535Y-116905518D01*
X128128365Y-118287688D01*
X128120751Y-118301632D01*
X127409579Y-118301632D01*
X126015218Y-116907271D01*
X126001457Y-116899757D01*
X125992096Y-116906215D01*
X125975849Y-116924742D01*
X125970834Y-116931278D01*
X125961266Y-116945597D01*
X125906789Y-116991125D01*
X125836346Y-116999974D01*
X125772302Y-116969333D01*
X125734990Y-116908932D01*
X125730500Y-116875596D01*
X125730500Y-116542198D01*
X126361184Y-116542198D01*
X126367018Y-116551965D01*
X127749188Y-117934135D01*
X127763132Y-117941749D01*
X127764965Y-117941618D01*
X127771580Y-117937367D01*
X129155229Y-116553718D01*
X129162743Y-116539957D01*
X129156285Y-116530596D01*
X129137758Y-116514349D01*
X129131218Y-116509331D01*
X128892847Y-116350056D01*
X128885710Y-116345935D01*
X128628580Y-116219133D01*
X128620985Y-116215987D01*
X128349502Y-116123830D01*
X128341542Y-116121697D01*
X128060357Y-116065766D01*
X128052199Y-116064692D01*
X127766119Y-116045942D01*
X127757881Y-116045942D01*
X127471801Y-116064692D01*
X127463643Y-116065766D01*
X127182458Y-116121697D01*
X127174498Y-116123830D01*
X126903015Y-116215987D01*
X126895420Y-116219133D01*
X126638290Y-116345935D01*
X126631153Y-116350056D01*
X126392782Y-116509331D01*
X126386242Y-116514349D01*
X126369581Y-116528960D01*
X126361184Y-116542198D01*
X125730500Y-116542198D01*
X125730500Y-113172661D01*
X125750502Y-113104540D01*
X125804158Y-113058047D01*
X125874432Y-113047943D01*
X125896167Y-113053068D01*
X125972107Y-113078256D01*
X125985474Y-113081122D01*
X126078687Y-113090672D01*
X126085102Y-113091000D01*
X126163885Y-113091000D01*
X126179124Y-113086525D01*
X126180329Y-113085135D01*
X126182000Y-113077452D01*
X126182000Y-111717000D01*
X126202002Y-111648879D01*
X126255658Y-111602386D01*
X126308000Y-111591000D01*
X126556000Y-111591000D01*
X126624121Y-111611002D01*
X126670614Y-111664658D01*
X126682000Y-111717000D01*
X126682000Y-113072884D01*
X126686475Y-113088123D01*
X126687865Y-113089328D01*
X126695548Y-113090999D01*
X126778847Y-113090999D01*
X126785366Y-113090662D01*
X126879797Y-113080864D01*
X126893191Y-113077972D01*
X127045539Y-113027145D01*
X127058718Y-113020971D01*
X127194917Y-112936689D01*
X127206318Y-112927653D01*
X127319481Y-112814292D01*
X127328493Y-112802881D01*
X127412545Y-112666524D01*
X127418689Y-112653347D01*
X127469256Y-112500893D01*
X127472122Y-112487526D01*
X127481672Y-112394315D01*
X127481940Y-112389075D01*
X127505394Y-112322064D01*
X127561354Y-112278371D01*
X127632052Y-112271869D01*
X127695043Y-112304621D01*
X127721971Y-112342257D01*
X127794477Y-112497749D01*
X127925802Y-112685300D01*
X128087700Y-112847198D01*
X128092208Y-112850355D01*
X128092211Y-112850357D01*
X128142952Y-112885886D01*
X128275251Y-112978523D01*
X128280233Y-112980846D01*
X128280238Y-112980849D01*
X128477610Y-113072884D01*
X128482757Y-113075284D01*
X128488065Y-113076706D01*
X128488067Y-113076707D01*
X128698598Y-113133119D01*
X128698600Y-113133119D01*
X128703913Y-113134543D01*
X128932000Y-113154498D01*
X129160087Y-113134543D01*
X129165400Y-113133119D01*
X129165402Y-113133119D01*
X129375933Y-113076707D01*
X129375935Y-113076706D01*
X129381243Y-113075284D01*
X129386390Y-113072884D01*
X129583762Y-112980849D01*
X129583767Y-112980846D01*
X129588749Y-112978523D01*
X129721048Y-112885886D01*
X129771789Y-112850357D01*
X129771792Y-112850355D01*
X129776300Y-112847198D01*
X129938198Y-112685300D01*
X130069523Y-112497749D01*
X130071846Y-112492767D01*
X130071849Y-112492762D01*
X130163961Y-112295225D01*
X130163961Y-112295224D01*
X130166284Y-112290243D01*
X130167707Y-112284934D01*
X130169590Y-112279759D01*
X130171797Y-112280562D01*
X130203567Y-112228485D01*
X130267440Y-112197488D01*
X130337931Y-112205943D01*
X130392661Y-112251167D01*
X130408909Y-112285333D01*
X130454748Y-112437160D01*
X130459422Y-112448501D01*
X130550307Y-112619431D01*
X130557098Y-112629651D01*
X130679451Y-112779672D01*
X130688090Y-112788371D01*
X130837257Y-112911774D01*
X130847428Y-112918634D01*
X131017720Y-113010709D01*
X131029026Y-113015462D01*
X131164692Y-113057457D01*
X131178795Y-113057663D01*
X131182000Y-113050908D01*
X131182000Y-113043886D01*
X131682000Y-113043886D01*
X131685973Y-113057417D01*
X131693768Y-113058537D01*
X131821321Y-113020996D01*
X131832705Y-113016397D01*
X132004264Y-112926708D01*
X132014525Y-112919994D01*
X132165394Y-112798692D01*
X132174168Y-112790099D01*
X132298595Y-112641813D01*
X132305533Y-112631683D01*
X132398796Y-112462036D01*
X132403624Y-112450772D01*
X132462163Y-112266234D01*
X132464711Y-112254245D01*
X132481269Y-112106626D01*
X132477525Y-112093876D01*
X132476135Y-112092671D01*
X132468452Y-112091000D01*
X131700115Y-112091000D01*
X131684876Y-112095475D01*
X131683671Y-112096865D01*
X131682000Y-112104548D01*
X131682000Y-113043886D01*
X131182000Y-113043886D01*
X131182000Y-111717000D01*
X131202002Y-111648879D01*
X131255658Y-111602386D01*
X131308000Y-111591000D01*
X132463885Y-111591000D01*
X132479124Y-111586525D01*
X132480329Y-111585135D01*
X132481207Y-111581096D01*
X132467588Y-111442201D01*
X132465205Y-111430164D01*
X132409252Y-111244840D01*
X132404577Y-111233497D01*
X132313693Y-111062569D01*
X132306902Y-111052349D01*
X132184549Y-110902328D01*
X132175910Y-110893629D01*
X132026743Y-110770226D01*
X132016572Y-110763366D01*
X131911432Y-110706518D01*
X131861023Y-110656524D01*
X131845645Y-110587212D01*
X131870181Y-110520590D01*
X131912984Y-110484021D01*
X132008936Y-110433858D01*
X132008940Y-110433856D01*
X132014400Y-110431001D01*
X132176177Y-110300929D01*
X132181662Y-110294393D01*
X132282877Y-110173769D01*
X132341987Y-110134442D01*
X132412975Y-110133316D01*
X132431676Y-110141264D01*
X132431958Y-110140612D01*
X132431959Y-110140613D01*
X132472543Y-110158176D01*
X132483173Y-110163383D01*
X132521940Y-110184695D01*
X132529617Y-110186666D01*
X132529622Y-110186668D01*
X132541558Y-110189732D01*
X132560266Y-110196137D01*
X132578855Y-110204181D01*
X132586680Y-110205420D01*
X132586682Y-110205421D01*
X132622519Y-110211097D01*
X132634140Y-110213504D01*
X132669295Y-110222530D01*
X132669299Y-110222531D01*
X132676970Y-110224500D01*
X132678564Y-110224500D01*
X132741061Y-110251758D01*
X132767333Y-110282075D01*
X132778248Y-110299713D01*
X132783430Y-110304886D01*
X132797945Y-110319376D01*
X132899298Y-110420552D01*
X132901670Y-110422014D01*
X132941655Y-110478412D01*
X132948500Y-110519376D01*
X132948500Y-113945233D01*
X132947973Y-113956416D01*
X132946298Y-113963909D01*
X132946547Y-113971835D01*
X132946547Y-113971836D01*
X132948438Y-114031986D01*
X132948500Y-114035945D01*
X132948500Y-114063856D01*
X132948997Y-114067790D01*
X132948997Y-114067791D01*
X132949005Y-114067856D01*
X132949938Y-114079693D01*
X132951327Y-114123889D01*
X132954605Y-114135171D01*
X132956978Y-114143339D01*
X132960987Y-114162700D01*
X132962362Y-114173580D01*
X132963526Y-114182797D01*
X132966445Y-114190168D01*
X132966445Y-114190170D01*
X132979804Y-114223912D01*
X132983649Y-114235142D01*
X132990240Y-114257828D01*
X132995982Y-114277593D01*
X133000015Y-114284412D01*
X133000017Y-114284417D01*
X133006293Y-114295028D01*
X133014988Y-114312776D01*
X133022448Y-114331617D01*
X133027110Y-114338033D01*
X133027110Y-114338034D01*
X133048436Y-114367387D01*
X133054952Y-114377307D01*
X133070785Y-114404078D01*
X133077458Y-114415362D01*
X133091779Y-114429683D01*
X133104619Y-114444716D01*
X133116528Y-114461107D01*
X133122634Y-114466158D01*
X133150605Y-114489298D01*
X133159384Y-114497288D01*
X134161636Y-115499540D01*
X134195662Y-115561852D01*
X134195060Y-115618049D01*
X134148553Y-115811766D01*
X134141465Y-115841289D01*
X134122835Y-116078000D01*
X134141465Y-116314711D01*
X134142619Y-116319518D01*
X134142620Y-116319524D01*
X134174463Y-116452158D01*
X134196895Y-116545594D01*
X134198788Y-116550165D01*
X134198789Y-116550167D01*
X134272223Y-116727452D01*
X134287760Y-116764963D01*
X134290346Y-116769183D01*
X134409241Y-116963202D01*
X134409245Y-116963208D01*
X134411824Y-116967416D01*
X134566031Y-117147969D01*
X134746584Y-117302176D01*
X134750792Y-117304755D01*
X134750798Y-117304759D01*
X134911062Y-117402969D01*
X134949037Y-117426240D01*
X134953607Y-117428133D01*
X134953611Y-117428135D01*
X135163833Y-117515211D01*
X135168406Y-117517105D01*
X135248609Y-117536360D01*
X135394476Y-117571380D01*
X135394482Y-117571381D01*
X135399289Y-117572535D01*
X135636000Y-117591165D01*
X135872711Y-117572535D01*
X135877518Y-117571381D01*
X135877524Y-117571380D01*
X136023391Y-117536360D01*
X136103594Y-117517105D01*
X136108167Y-117515211D01*
X136318389Y-117428135D01*
X136318393Y-117428133D01*
X136322963Y-117426240D01*
X136360938Y-117402969D01*
X136521202Y-117304759D01*
X136521208Y-117304755D01*
X136525416Y-117302176D01*
X136705969Y-117147969D01*
X136860176Y-116967416D01*
X136862755Y-116963208D01*
X136862759Y-116963202D01*
X136981654Y-116769183D01*
X136984240Y-116764963D01*
X136999778Y-116727452D01*
X137073211Y-116550167D01*
X137073212Y-116550165D01*
X137075105Y-116545594D01*
X137097537Y-116452158D01*
X137129380Y-116319524D01*
X137129381Y-116319518D01*
X137130535Y-116314711D01*
X137149165Y-116078000D01*
X137130535Y-115841289D01*
X137123448Y-115811766D01*
X137076260Y-115615218D01*
X137075105Y-115610406D01*
X137073211Y-115605833D01*
X136986135Y-115395611D01*
X136986133Y-115395607D01*
X136984240Y-115391037D01*
X136971399Y-115370082D01*
X136862759Y-115192798D01*
X136862755Y-115192792D01*
X136860176Y-115188584D01*
X136705969Y-115008031D01*
X136683241Y-114988619D01*
X136644115Y-114955203D01*
X136525416Y-114853824D01*
X136521208Y-114851245D01*
X136521202Y-114851241D01*
X136327183Y-114732346D01*
X136322963Y-114729760D01*
X136318393Y-114727867D01*
X136318389Y-114727865D01*
X136108167Y-114640789D01*
X136108165Y-114640788D01*
X136103594Y-114638895D01*
X135988632Y-114611295D01*
X135877524Y-114584620D01*
X135877518Y-114584619D01*
X135872711Y-114583465D01*
X135636000Y-114564835D01*
X135399289Y-114583465D01*
X135394482Y-114584619D01*
X135394476Y-114584620D01*
X135236213Y-114622616D01*
X135176049Y-114637060D01*
X135105142Y-114633513D01*
X135057540Y-114603636D01*
X134656309Y-114202404D01*
X134252404Y-113798499D01*
X134218379Y-113736187D01*
X134215500Y-113709404D01*
X134215500Y-113000500D01*
X134235502Y-112932379D01*
X134289158Y-112885886D01*
X134341500Y-112874500D01*
X134526724Y-112874499D01*
X134623084Y-112874499D01*
X134691204Y-112894501D01*
X134740236Y-112954117D01*
X134754804Y-112990913D01*
X134758649Y-113002142D01*
X134768133Y-113034787D01*
X134770982Y-113044593D01*
X134775015Y-113051412D01*
X134775017Y-113051417D01*
X134781293Y-113062028D01*
X134789988Y-113079776D01*
X134797448Y-113098617D01*
X134802110Y-113105033D01*
X134802110Y-113105034D01*
X134823436Y-113134387D01*
X134829952Y-113144307D01*
X134846721Y-113172661D01*
X134852458Y-113182362D01*
X134866779Y-113196683D01*
X134879619Y-113211716D01*
X134891528Y-113228107D01*
X134902944Y-113237551D01*
X134925605Y-113256298D01*
X134934384Y-113264288D01*
X135103343Y-113433247D01*
X135110887Y-113441537D01*
X135115000Y-113448018D01*
X135120777Y-113453443D01*
X135164667Y-113494658D01*
X135167509Y-113497413D01*
X135187230Y-113517134D01*
X135190425Y-113519612D01*
X135199447Y-113527318D01*
X135231679Y-113557586D01*
X135238628Y-113561406D01*
X135249432Y-113567346D01*
X135265956Y-113578199D01*
X135281959Y-113590613D01*
X135322543Y-113608176D01*
X135333173Y-113613383D01*
X135371940Y-113634695D01*
X135379617Y-113636666D01*
X135379622Y-113636668D01*
X135391558Y-113639732D01*
X135410266Y-113646137D01*
X135428855Y-113654181D01*
X135436680Y-113655420D01*
X135436682Y-113655421D01*
X135472519Y-113661097D01*
X135484140Y-113663504D01*
X135519289Y-113672528D01*
X135526970Y-113674500D01*
X135547231Y-113674500D01*
X135566940Y-113676051D01*
X135586943Y-113679219D01*
X135594835Y-113678473D01*
X135600062Y-113677979D01*
X135630954Y-113675059D01*
X135642811Y-113674500D01*
X137192406Y-113674500D01*
X137260527Y-113694502D01*
X137281501Y-113711405D01*
X138227343Y-114657247D01*
X138234887Y-114665537D01*
X138239000Y-114672018D01*
X138244777Y-114677443D01*
X138288667Y-114718658D01*
X138291509Y-114721413D01*
X138311230Y-114741134D01*
X138314425Y-114743612D01*
X138323447Y-114751318D01*
X138355679Y-114781586D01*
X138362628Y-114785406D01*
X138373432Y-114791346D01*
X138389956Y-114802199D01*
X138405959Y-114814613D01*
X138446543Y-114832176D01*
X138457173Y-114837383D01*
X138495940Y-114858695D01*
X138503617Y-114860666D01*
X138503622Y-114860668D01*
X138515558Y-114863732D01*
X138534266Y-114870137D01*
X138552855Y-114878181D01*
X138560680Y-114879420D01*
X138560682Y-114879421D01*
X138596519Y-114885097D01*
X138608140Y-114887504D01*
X138643289Y-114896528D01*
X138650970Y-114898500D01*
X138671231Y-114898500D01*
X138690940Y-114900051D01*
X138710943Y-114903219D01*
X138718835Y-114902473D01*
X138724062Y-114901979D01*
X138754954Y-114899059D01*
X138766811Y-114898500D01*
X139149775Y-114898500D01*
X139217896Y-114918502D01*
X139257551Y-114959229D01*
X139270361Y-114980381D01*
X139391619Y-115101639D01*
X139538301Y-115190472D01*
X139545548Y-115192743D01*
X139545550Y-115192744D01*
X139611836Y-115213517D01*
X139701938Y-115241753D01*
X139775365Y-115248500D01*
X139793474Y-115248500D01*
X140067406Y-115248499D01*
X140135525Y-115268501D01*
X140156500Y-115285404D01*
X140654343Y-115783247D01*
X140661887Y-115791537D01*
X140666000Y-115798018D01*
X140671777Y-115803443D01*
X140715667Y-115844658D01*
X140718509Y-115847413D01*
X140738230Y-115867134D01*
X140741425Y-115869612D01*
X140750447Y-115877318D01*
X140782679Y-115907586D01*
X140789628Y-115911406D01*
X140800432Y-115917346D01*
X140816956Y-115928199D01*
X140832959Y-115940613D01*
X140873543Y-115958176D01*
X140884173Y-115963383D01*
X140922940Y-115984695D01*
X140930617Y-115986666D01*
X140930622Y-115986668D01*
X140942558Y-115989732D01*
X140961266Y-115996137D01*
X140979855Y-116004181D01*
X140987680Y-116005420D01*
X140987682Y-116005421D01*
X141023519Y-116011097D01*
X141035140Y-116013504D01*
X141070289Y-116022528D01*
X141077970Y-116024500D01*
X141098231Y-116024500D01*
X141117940Y-116026051D01*
X141137943Y-116029219D01*
X141145835Y-116028473D01*
X141151062Y-116027979D01*
X141181954Y-116025059D01*
X141193811Y-116024500D01*
X147081734Y-116024500D01*
X147149855Y-116044502D01*
X147196348Y-116098158D01*
X147207346Y-116160385D01*
X147204695Y-116194072D01*
X147203835Y-116205000D01*
X147222465Y-116441711D01*
X147223619Y-116446518D01*
X147223620Y-116446524D01*
X147250745Y-116559505D01*
X147277895Y-116672594D01*
X147279788Y-116677165D01*
X147279789Y-116677167D01*
X147361981Y-116875596D01*
X147368760Y-116891963D01*
X147371346Y-116896183D01*
X147490241Y-117090202D01*
X147490245Y-117090208D01*
X147492824Y-117094416D01*
X147572338Y-117187515D01*
X147627918Y-117252590D01*
X147647031Y-117274969D01*
X147827584Y-117429176D01*
X147831792Y-117431755D01*
X147831798Y-117431759D01*
X147971070Y-117517105D01*
X148030037Y-117553240D01*
X148034607Y-117555133D01*
X148034611Y-117555135D01*
X148223890Y-117633536D01*
X148249406Y-117644105D01*
X148265043Y-117647859D01*
X148475476Y-117698380D01*
X148475482Y-117698381D01*
X148480289Y-117699535D01*
X148717000Y-117718165D01*
X148953711Y-117699535D01*
X148958518Y-117698381D01*
X148958524Y-117698380D01*
X149168957Y-117647859D01*
X149184594Y-117644105D01*
X149210110Y-117633536D01*
X149399389Y-117555135D01*
X149399393Y-117555133D01*
X149403963Y-117553240D01*
X149462930Y-117517105D01*
X149602202Y-117431759D01*
X149602208Y-117431755D01*
X149606416Y-117429176D01*
X149786969Y-117274969D01*
X149806083Y-117252590D01*
X149861662Y-117187515D01*
X149941176Y-117094416D01*
X149943755Y-117090208D01*
X149943759Y-117090202D01*
X150062654Y-116896183D01*
X150065240Y-116891963D01*
X150072020Y-116875596D01*
X150154211Y-116677167D01*
X150154212Y-116677165D01*
X150156105Y-116672594D01*
X150183255Y-116559505D01*
X150210380Y-116446524D01*
X150210381Y-116446518D01*
X150211535Y-116441711D01*
X150230165Y-116205000D01*
X150211535Y-115968289D01*
X150210023Y-115961987D01*
X150157260Y-115742218D01*
X150156105Y-115737406D01*
X150106666Y-115618049D01*
X150067135Y-115522611D01*
X150067133Y-115522607D01*
X150065240Y-115518037D01*
X150007817Y-115424331D01*
X149943759Y-115319798D01*
X149943755Y-115319792D01*
X149941176Y-115315584D01*
X149786969Y-115135031D01*
X149606416Y-114980824D01*
X149602208Y-114978245D01*
X149602202Y-114978241D01*
X149408183Y-114859346D01*
X149403963Y-114856760D01*
X149399393Y-114854867D01*
X149399389Y-114854865D01*
X149189167Y-114767789D01*
X149189165Y-114767788D01*
X149184594Y-114765895D01*
X149091545Y-114743556D01*
X148958524Y-114711620D01*
X148958518Y-114711619D01*
X148953711Y-114710465D01*
X148717000Y-114691835D01*
X148480289Y-114710465D01*
X148475482Y-114711619D01*
X148475476Y-114711620D01*
X148342455Y-114743556D01*
X148249406Y-114765895D01*
X148244835Y-114767788D01*
X148244833Y-114767789D01*
X148198821Y-114786848D01*
X148128231Y-114794437D01*
X148119248Y-114792475D01*
X148118419Y-114792262D01*
X148099734Y-114785863D01*
X148088420Y-114780967D01*
X148088419Y-114780967D01*
X148081145Y-114777819D01*
X148073322Y-114776580D01*
X148073312Y-114776577D01*
X148037476Y-114770901D01*
X148025856Y-114768495D01*
X147990711Y-114759472D01*
X147990710Y-114759472D01*
X147983030Y-114757500D01*
X147962776Y-114757500D01*
X147943065Y-114755949D01*
X147941582Y-114755714D01*
X147923057Y-114752780D01*
X147915165Y-114753526D01*
X147879039Y-114756941D01*
X147867181Y-114757500D01*
X146110216Y-114757500D01*
X146042095Y-114737498D01*
X145995602Y-114683842D01*
X145984872Y-114618656D01*
X145990500Y-114563732D01*
X145990500Y-114388490D01*
X146010502Y-114320369D01*
X146064158Y-114273876D01*
X146134432Y-114263772D01*
X146166538Y-114272852D01*
X146171575Y-114275032D01*
X146171585Y-114275035D01*
X146178855Y-114278181D01*
X146186680Y-114279420D01*
X146186682Y-114279421D01*
X146222519Y-114285097D01*
X146234140Y-114287504D01*
X146265959Y-114295673D01*
X146276970Y-114298500D01*
X146297231Y-114298500D01*
X146316940Y-114300051D01*
X146336943Y-114303219D01*
X146344835Y-114302473D01*
X146350062Y-114301979D01*
X146380954Y-114299059D01*
X146392811Y-114298500D01*
X147856050Y-114298500D01*
X147867233Y-114299027D01*
X147874726Y-114300702D01*
X147882652Y-114300453D01*
X147882653Y-114300453D01*
X147942803Y-114298562D01*
X147946762Y-114298500D01*
X147974673Y-114298500D01*
X147978608Y-114298003D01*
X147978673Y-114297995D01*
X147990510Y-114297062D01*
X148022768Y-114296048D01*
X148026787Y-114295922D01*
X148034706Y-114295673D01*
X148054160Y-114290021D01*
X148073517Y-114286013D01*
X148085747Y-114284468D01*
X148085748Y-114284468D01*
X148093614Y-114283474D01*
X148100985Y-114280555D01*
X148100987Y-114280555D01*
X148134729Y-114267196D01*
X148145959Y-114263351D01*
X148180800Y-114253229D01*
X148180801Y-114253229D01*
X148188410Y-114251018D01*
X148195229Y-114246985D01*
X148195234Y-114246983D01*
X148205845Y-114240707D01*
X148223593Y-114232012D01*
X148242434Y-114224552D01*
X148278204Y-114198564D01*
X148288124Y-114192048D01*
X148319352Y-114173580D01*
X148319355Y-114173578D01*
X148326179Y-114169542D01*
X148340500Y-114155221D01*
X148355534Y-114142380D01*
X148365511Y-114135131D01*
X148371924Y-114130472D01*
X148400115Y-114096395D01*
X148408105Y-114087616D01*
X148615188Y-113880533D01*
X148677500Y-113846507D01*
X148717124Y-113844284D01*
X148746498Y-113847294D01*
X148755075Y-113848173D01*
X148755078Y-113848173D01*
X148758268Y-113848500D01*
X149305732Y-113848500D01*
X149308978Y-113848163D01*
X149308982Y-113848163D01*
X149346365Y-113844284D01*
X149408019Y-113837887D01*
X149449128Y-113824172D01*
X149563324Y-113786073D01*
X149563326Y-113786072D01*
X149570268Y-113783756D01*
X149598831Y-113766080D01*
X149667281Y-113747244D01*
X149735051Y-113768405D01*
X149754227Y-113784131D01*
X151389446Y-115419350D01*
X151423472Y-115481662D01*
X151416760Y-115556662D01*
X151370050Y-115669433D01*
X151341895Y-115737406D01*
X151340740Y-115742218D01*
X151287978Y-115961987D01*
X151286465Y-115968289D01*
X151267835Y-116205000D01*
X151286465Y-116441711D01*
X151287619Y-116446518D01*
X151287620Y-116446524D01*
X151314745Y-116559505D01*
X151341895Y-116672594D01*
X151343788Y-116677165D01*
X151343789Y-116677167D01*
X151425981Y-116875596D01*
X151432760Y-116891963D01*
X151435346Y-116896183D01*
X151554241Y-117090202D01*
X151554245Y-117090208D01*
X151556824Y-117094416D01*
X151636338Y-117187515D01*
X151691918Y-117252590D01*
X151711031Y-117274969D01*
X151891584Y-117429176D01*
X151895792Y-117431755D01*
X151895798Y-117431759D01*
X152035070Y-117517105D01*
X152094037Y-117553240D01*
X152098607Y-117555133D01*
X152098611Y-117555135D01*
X152287890Y-117633536D01*
X152313406Y-117644105D01*
X152329043Y-117647859D01*
X152539476Y-117698380D01*
X152539482Y-117698381D01*
X152544289Y-117699535D01*
X152781000Y-117718165D01*
X153017711Y-117699535D01*
X153022518Y-117698381D01*
X153022524Y-117698380D01*
X153232957Y-117647859D01*
X153248594Y-117644105D01*
X153274110Y-117633536D01*
X153463389Y-117555135D01*
X153463393Y-117555133D01*
X153467963Y-117553240D01*
X153526930Y-117517105D01*
X153666202Y-117431759D01*
X153666208Y-117431755D01*
X153670416Y-117429176D01*
X153850969Y-117274969D01*
X153870083Y-117252590D01*
X153925662Y-117187515D01*
X154005176Y-117094416D01*
X154007755Y-117090208D01*
X154007759Y-117090202D01*
X154126654Y-116896183D01*
X154129240Y-116891963D01*
X154136020Y-116875596D01*
X154218211Y-116677167D01*
X154218212Y-116677165D01*
X154220105Y-116672594D01*
X154247255Y-116559505D01*
X154274380Y-116446524D01*
X154274381Y-116446518D01*
X154275535Y-116441711D01*
X154294165Y-116205000D01*
X154275535Y-115968289D01*
X154274023Y-115961987D01*
X154221260Y-115742218D01*
X154220105Y-115737406D01*
X154170666Y-115618049D01*
X154131135Y-115522611D01*
X154131133Y-115522607D01*
X154129240Y-115518037D01*
X154071817Y-115424331D01*
X154007759Y-115319798D01*
X154007755Y-115319792D01*
X154005176Y-115315584D01*
X153850969Y-115135031D01*
X153670416Y-114980824D01*
X153666208Y-114978245D01*
X153666202Y-114978241D01*
X153472183Y-114859346D01*
X153467963Y-114856760D01*
X153463393Y-114854867D01*
X153463389Y-114854865D01*
X153253167Y-114767789D01*
X153253165Y-114767788D01*
X153248594Y-114765895D01*
X153155545Y-114743556D01*
X153022524Y-114711620D01*
X153022518Y-114711619D01*
X153017711Y-114710465D01*
X152781000Y-114691835D01*
X152544706Y-114710432D01*
X152544704Y-114710432D01*
X152544289Y-114710465D01*
X152544282Y-114710378D01*
X152475544Y-114701497D01*
X152437146Y-114675241D01*
X150356676Y-112594771D01*
X150322650Y-112532459D01*
X150327715Y-112461644D01*
X150346214Y-112428447D01*
X150351756Y-112421303D01*
X150351757Y-112421302D01*
X150356614Y-112415040D01*
X150374174Y-112374460D01*
X150379392Y-112363811D01*
X150386664Y-112350584D01*
X150437010Y-112300526D01*
X150506428Y-112285634D01*
X150572876Y-112310637D01*
X150586172Y-112322192D01*
X150691619Y-112427639D01*
X150838301Y-112516472D01*
X150845548Y-112518743D01*
X150845550Y-112518744D01*
X150889315Y-112532459D01*
X151001938Y-112567753D01*
X151075365Y-112574500D01*
X151078263Y-112574500D01*
X151332665Y-112574499D01*
X151588634Y-112574499D01*
X151591492Y-112574236D01*
X151591501Y-112574236D01*
X151627004Y-112570974D01*
X151662062Y-112567753D01*
X151756873Y-112538041D01*
X151818450Y-112518744D01*
X151818452Y-112518743D01*
X151825699Y-112516472D01*
X151972381Y-112427639D01*
X152067905Y-112332115D01*
X152130217Y-112298089D01*
X152201032Y-112303154D01*
X152246095Y-112332115D01*
X152341619Y-112427639D01*
X152488301Y-112516472D01*
X152495548Y-112518743D01*
X152495550Y-112518744D01*
X152539315Y-112532459D01*
X152651938Y-112567753D01*
X152725365Y-112574500D01*
X152728263Y-112574500D01*
X152982665Y-112574499D01*
X153238634Y-112574499D01*
X153241492Y-112574236D01*
X153241501Y-112574236D01*
X153277004Y-112570974D01*
X153312062Y-112567753D01*
X153406873Y-112538041D01*
X153468450Y-112518744D01*
X153468452Y-112518743D01*
X153475699Y-112516472D01*
X153622381Y-112427639D01*
X153691196Y-112358824D01*
X153753508Y-112324798D01*
X153824323Y-112329863D01*
X153881159Y-112372410D01*
X153903730Y-112432269D01*
X153904775Y-112432078D01*
X153905825Y-112437826D01*
X153905903Y-112438033D01*
X153906438Y-112444831D01*
X153929196Y-112523164D01*
X153947456Y-112586016D01*
X153952855Y-112604601D01*
X153962142Y-112620305D01*
X154033509Y-112740980D01*
X154033511Y-112740983D01*
X154037547Y-112747807D01*
X154044289Y-112754549D01*
X154044893Y-112755656D01*
X154048011Y-112759675D01*
X154047363Y-112760178D01*
X154078315Y-112816861D01*
X154080363Y-112833458D01*
X154081078Y-112837971D01*
X154081327Y-112845889D01*
X154086978Y-112865339D01*
X154090987Y-112884700D01*
X154093526Y-112904797D01*
X154096445Y-112912168D01*
X154096445Y-112912170D01*
X154109804Y-112945912D01*
X154113649Y-112957142D01*
X154123460Y-112990913D01*
X154125982Y-112999593D01*
X154130015Y-113006412D01*
X154130017Y-113006417D01*
X154136293Y-113017028D01*
X154144988Y-113034776D01*
X154152448Y-113053617D01*
X154157110Y-113060033D01*
X154157110Y-113060034D01*
X154178436Y-113089387D01*
X154184952Y-113099307D01*
X154207458Y-113137362D01*
X154221779Y-113151683D01*
X154234619Y-113166716D01*
X154246528Y-113183107D01*
X154252634Y-113188158D01*
X154280605Y-113211298D01*
X154289384Y-113219288D01*
X154929385Y-113859289D01*
X154936929Y-113867579D01*
X154941042Y-113874060D01*
X154946819Y-113879485D01*
X154990709Y-113920700D01*
X154993551Y-113923455D01*
X155013272Y-113943176D01*
X155016467Y-113945654D01*
X155025489Y-113953360D01*
X155057721Y-113983628D01*
X155064670Y-113987448D01*
X155075474Y-113993388D01*
X155091998Y-114004241D01*
X155108001Y-114016655D01*
X155148585Y-114034218D01*
X155159215Y-114039425D01*
X155197982Y-114060737D01*
X155205659Y-114062708D01*
X155205664Y-114062710D01*
X155217600Y-114065774D01*
X155236308Y-114072179D01*
X155254897Y-114080223D01*
X155262722Y-114081462D01*
X155262724Y-114081463D01*
X155298561Y-114087139D01*
X155310182Y-114089546D01*
X155345331Y-114098570D01*
X155353012Y-114100542D01*
X155373273Y-114100542D01*
X155392982Y-114102093D01*
X155412985Y-114105261D01*
X155420877Y-114104515D01*
X155426104Y-114104021D01*
X155456996Y-114101101D01*
X155468853Y-114100542D01*
X158697500Y-114100542D01*
X158765621Y-114120544D01*
X158812114Y-114174200D01*
X158823500Y-114226542D01*
X158823500Y-114489732D01*
X158834113Y-114592019D01*
X158836295Y-114598559D01*
X158883984Y-114741498D01*
X158887520Y-114752097D01*
X158887520Y-114752099D01*
X158888244Y-114754268D01*
X158887873Y-114754392D01*
X158897988Y-114820226D01*
X158869120Y-114885089D01*
X158809768Y-114924048D01*
X158773103Y-114929500D01*
X157987000Y-114929500D01*
X157983654Y-114929860D01*
X157983649Y-114929860D01*
X157881215Y-114940872D01*
X157881208Y-114940873D01*
X157877851Y-114941234D01*
X157874551Y-114941952D01*
X157874550Y-114941952D01*
X157828790Y-114951906D01*
X157828785Y-114951907D01*
X157825509Y-114952620D01*
X157761633Y-114973880D01*
X157731123Y-114984035D01*
X157721343Y-114987290D01*
X157598388Y-115066308D01*
X157544732Y-115112801D01*
X157541792Y-115116194D01*
X157454919Y-115216450D01*
X157454917Y-115216453D01*
X157449018Y-115223261D01*
X157445274Y-115231459D01*
X157437613Y-115248234D01*
X157388302Y-115356210D01*
X157384229Y-115370082D01*
X157369763Y-115419350D01*
X157368300Y-115424331D01*
X157367660Y-115428780D01*
X157367659Y-115428786D01*
X157348139Y-115564553D01*
X157347500Y-115569000D01*
X157347500Y-118111000D01*
X157347860Y-118114346D01*
X157347860Y-118114351D01*
X157354475Y-118175878D01*
X157359234Y-118220149D01*
X157359952Y-118223449D01*
X157359952Y-118223450D01*
X157366961Y-118255669D01*
X157370620Y-118272491D01*
X157405290Y-118376657D01*
X157484308Y-118499612D01*
X157530801Y-118553268D01*
X157534194Y-118556208D01*
X157634450Y-118643081D01*
X157634453Y-118643083D01*
X157641261Y-118648982D01*
X157774210Y-118709698D01*
X157797964Y-118716673D01*
X157838008Y-118728431D01*
X157838012Y-118728432D01*
X157842331Y-118729700D01*
X157846780Y-118730340D01*
X157846786Y-118730341D01*
X157982553Y-118749861D01*
X157982558Y-118749861D01*
X157987000Y-118750500D01*
X160402000Y-118750500D01*
X160405346Y-118750140D01*
X160405351Y-118750140D01*
X160507785Y-118739128D01*
X160507792Y-118739127D01*
X160511149Y-118738766D01*
X160514450Y-118738048D01*
X160560210Y-118728094D01*
X160560215Y-118728093D01*
X160563491Y-118727380D01*
X160667657Y-118692710D01*
X160790612Y-118613692D01*
X160817148Y-118590699D01*
X160840875Y-118570139D01*
X160844268Y-118567199D01*
X160899888Y-118503010D01*
X160934081Y-118463550D01*
X160934083Y-118463547D01*
X160939982Y-118456739D01*
X161000698Y-118323790D01*
X161008746Y-118296381D01*
X161019431Y-118259992D01*
X161019432Y-118259988D01*
X161020700Y-118255669D01*
X161025333Y-118223450D01*
X161040861Y-118115447D01*
X161040861Y-118115442D01*
X161041500Y-118111000D01*
X161041500Y-117492934D01*
X161061502Y-117424813D01*
X161115158Y-117378320D01*
X161185432Y-117368216D01*
X161207167Y-117373341D01*
X161297340Y-117403250D01*
X161310719Y-117406118D01*
X161403966Y-117415672D01*
X161410382Y-117416000D01*
X161438885Y-117416000D01*
X161454124Y-117411525D01*
X161455329Y-117410135D01*
X161457000Y-117402452D01*
X161457000Y-117397884D01*
X161957000Y-117397884D01*
X161961475Y-117413123D01*
X161962865Y-117414328D01*
X161970548Y-117415999D01*
X162003567Y-117415999D01*
X162010087Y-117415661D01*
X162104560Y-117405860D01*
X162117951Y-117402969D01*
X162196061Y-117376909D01*
X169205000Y-117376909D01*
X169205337Y-117383428D01*
X169214778Y-117474413D01*
X169217671Y-117487808D01*
X169266677Y-117634695D01*
X169272843Y-117647859D01*
X169354105Y-117779178D01*
X169363132Y-117790567D01*
X169472421Y-117899666D01*
X169483832Y-117908678D01*
X169615286Y-117989707D01*
X169628464Y-117995851D01*
X169775452Y-118044605D01*
X169788817Y-118047471D01*
X169878625Y-118056672D01*
X169885041Y-118057000D01*
X169911885Y-118057000D01*
X169927124Y-118052525D01*
X169928329Y-118051135D01*
X169930000Y-118043452D01*
X169930000Y-118038885D01*
X170430000Y-118038885D01*
X170434475Y-118054124D01*
X170435865Y-118055329D01*
X170443548Y-118057000D01*
X170474909Y-118057000D01*
X170481428Y-118056663D01*
X170539675Y-118050619D01*
X181641442Y-118050619D01*
X181660192Y-118336699D01*
X181661266Y-118344857D01*
X181717197Y-118626042D01*
X181719330Y-118634002D01*
X181811487Y-118905485D01*
X181814633Y-118913080D01*
X181941435Y-119170210D01*
X181945556Y-119177347D01*
X182104831Y-119415718D01*
X182109849Y-119422258D01*
X182124460Y-119438919D01*
X182137698Y-119447316D01*
X182147465Y-119441482D01*
X183529635Y-118059312D01*
X183537249Y-118045368D01*
X183537118Y-118043535D01*
X183532867Y-118036920D01*
X182149218Y-116653271D01*
X182135457Y-116645757D01*
X182126096Y-116652215D01*
X182109849Y-116670742D01*
X182104831Y-116677282D01*
X181945556Y-116915653D01*
X181941435Y-116922790D01*
X181814633Y-117179920D01*
X181811487Y-117187515D01*
X181719330Y-117458998D01*
X181717197Y-117466958D01*
X181661266Y-117748143D01*
X181660192Y-117756301D01*
X181641442Y-118042381D01*
X181641442Y-118050619D01*
X170539675Y-118050619D01*
X170572413Y-118047222D01*
X170585808Y-118044329D01*
X170732695Y-117995323D01*
X170745859Y-117989157D01*
X170877178Y-117907895D01*
X170888567Y-117898868D01*
X170997666Y-117789579D01*
X171006678Y-117778168D01*
X171087707Y-117646714D01*
X171093851Y-117633536D01*
X171142605Y-117486548D01*
X171145471Y-117473183D01*
X171154672Y-117383375D01*
X171155000Y-117376959D01*
X171155000Y-117375115D01*
X171150525Y-117359876D01*
X171149135Y-117358671D01*
X171141452Y-117357000D01*
X170448115Y-117357000D01*
X170432876Y-117361475D01*
X170431671Y-117362865D01*
X170430000Y-117370548D01*
X170430000Y-118038885D01*
X169930000Y-118038885D01*
X169930000Y-117375115D01*
X169925525Y-117359876D01*
X169924135Y-117358671D01*
X169916452Y-117357000D01*
X169223115Y-117357000D01*
X169207876Y-117361475D01*
X169206671Y-117362865D01*
X169205000Y-117370548D01*
X169205000Y-117376909D01*
X162196061Y-117376909D01*
X162270368Y-117352118D01*
X162283547Y-117345944D01*
X162419804Y-117261626D01*
X162431205Y-117252590D01*
X162544418Y-117139179D01*
X162553430Y-117127768D01*
X162637516Y-116991354D01*
X162643663Y-116978173D01*
X162694251Y-116825657D01*
X162697118Y-116812281D01*
X162706672Y-116719034D01*
X162707000Y-116712618D01*
X162707000Y-116459115D01*
X162702525Y-116443876D01*
X162701135Y-116442671D01*
X162693452Y-116441000D01*
X161975115Y-116441000D01*
X161959876Y-116445475D01*
X161958671Y-116446865D01*
X161957000Y-116454548D01*
X161957000Y-117397884D01*
X161457000Y-117397884D01*
X161457000Y-116067000D01*
X161477002Y-115998879D01*
X161530658Y-115952386D01*
X161583000Y-115941000D01*
X162688884Y-115941000D01*
X162704123Y-115936525D01*
X162705328Y-115935135D01*
X162706999Y-115927452D01*
X162706999Y-115669433D01*
X162706661Y-115662913D01*
X162696860Y-115568440D01*
X162693969Y-115555049D01*
X162643118Y-115402632D01*
X162636944Y-115389453D01*
X162552626Y-115253196D01*
X162543590Y-115241795D01*
X162430179Y-115128582D01*
X162418768Y-115119570D01*
X162282354Y-115035484D01*
X162269175Y-115029338D01*
X162235078Y-115018028D01*
X162176719Y-114977596D01*
X162149483Y-114912031D01*
X162162017Y-114842150D01*
X162167487Y-114832319D01*
X162214707Y-114755714D01*
X162220851Y-114742536D01*
X162269605Y-114595548D01*
X162272471Y-114582183D01*
X162281672Y-114492375D01*
X162282000Y-114485959D01*
X162282000Y-114459115D01*
X162277525Y-114443876D01*
X162276135Y-114442671D01*
X162268452Y-114441000D01*
X161208000Y-114441000D01*
X161139879Y-114420998D01*
X161093386Y-114367342D01*
X161082000Y-114315000D01*
X161082000Y-113922885D01*
X161582000Y-113922885D01*
X161586475Y-113938124D01*
X161587865Y-113939329D01*
X161595548Y-113941000D01*
X162263885Y-113941000D01*
X162279124Y-113936525D01*
X162280329Y-113935135D01*
X162282000Y-113927452D01*
X162282000Y-113896091D01*
X162281663Y-113889572D01*
X162272222Y-113798587D01*
X162269329Y-113785192D01*
X162220323Y-113638305D01*
X162214157Y-113625141D01*
X162132895Y-113493822D01*
X162123868Y-113482433D01*
X162014579Y-113373334D01*
X162003168Y-113364322D01*
X161871714Y-113283293D01*
X161858536Y-113277149D01*
X161711548Y-113228395D01*
X161698183Y-113225529D01*
X161608375Y-113216328D01*
X161601958Y-113216000D01*
X161600115Y-113216000D01*
X161584876Y-113220475D01*
X161583671Y-113221865D01*
X161582000Y-113229548D01*
X161582000Y-113922885D01*
X161082000Y-113922885D01*
X161082000Y-113234115D01*
X161076730Y-113216168D01*
X161041275Y-113160999D01*
X161041275Y-113090002D01*
X161079658Y-113030276D01*
X161144239Y-113000783D01*
X161162171Y-112999500D01*
X161278502Y-112999500D01*
X161280950Y-112999307D01*
X161280958Y-112999307D01*
X161309421Y-112997067D01*
X161309426Y-112997066D01*
X161315831Y-112996562D01*
X161415769Y-112967528D01*
X161467988Y-112952357D01*
X161467990Y-112952356D01*
X161475601Y-112950145D01*
X161618807Y-112865453D01*
X161624411Y-112859849D01*
X161626765Y-112858023D01*
X161692851Y-112832076D01*
X161762473Y-112845978D01*
X161781219Y-112858025D01*
X161787275Y-112862723D01*
X161914976Y-112938245D01*
X161929415Y-112944494D01*
X162070529Y-112985491D01*
X162079031Y-112983705D01*
X162082000Y-112972244D01*
X162082000Y-111367000D01*
X162102002Y-111298879D01*
X162155658Y-111252386D01*
X162208000Y-111241000D01*
X162456000Y-111241000D01*
X162524121Y-111261002D01*
X162570614Y-111314658D01*
X162582000Y-111367000D01*
X162582000Y-112970181D01*
X162586344Y-112984976D01*
X162591879Y-112985954D01*
X162632348Y-112974197D01*
X162703344Y-112974400D01*
X162762960Y-113012955D01*
X162792268Y-113077620D01*
X162793500Y-113095194D01*
X162793500Y-114726786D01*
X162793493Y-114728106D01*
X162792549Y-114818221D01*
X162801711Y-114860597D01*
X162803769Y-114873163D01*
X162808603Y-114916255D01*
X162810919Y-114922906D01*
X162810920Y-114922910D01*
X162819633Y-114947930D01*
X162823796Y-114962742D01*
X162830881Y-114995510D01*
X162849208Y-115034813D01*
X162853990Y-115046589D01*
X162868255Y-115087552D01*
X162871989Y-115093527D01*
X162871990Y-115093530D01*
X162886027Y-115115995D01*
X162893366Y-115129512D01*
X162904559Y-115153514D01*
X162907538Y-115159902D01*
X162911855Y-115165467D01*
X162911856Y-115165469D01*
X162934106Y-115194153D01*
X162941402Y-115204612D01*
X162964374Y-115241376D01*
X162969334Y-115246371D01*
X162969335Y-115246372D01*
X162992976Y-115270179D01*
X162993561Y-115270804D01*
X162994078Y-115271470D01*
X163020068Y-115297460D01*
X163092185Y-115370082D01*
X163093222Y-115370740D01*
X163094451Y-115371843D01*
X163778766Y-116056158D01*
X163779694Y-116057095D01*
X163804994Y-116082930D01*
X163842771Y-116121507D01*
X163879221Y-116144998D01*
X163889546Y-116152417D01*
X163923443Y-116179476D01*
X163929784Y-116182541D01*
X163929785Y-116182542D01*
X163953637Y-116194072D01*
X163967054Y-116201601D01*
X163995238Y-116219765D01*
X164001855Y-116222173D01*
X164001860Y-116222176D01*
X164035973Y-116234592D01*
X164047716Y-116239553D01*
X164080403Y-116255354D01*
X164080408Y-116255356D01*
X164086749Y-116258421D01*
X164093607Y-116260004D01*
X164093609Y-116260005D01*
X164111892Y-116264226D01*
X164114341Y-116264791D01*
X164119426Y-116265965D01*
X164134169Y-116270332D01*
X164165685Y-116281803D01*
X164172675Y-116282686D01*
X164172683Y-116282688D01*
X164208701Y-116287238D01*
X164221253Y-116289474D01*
X164256614Y-116297638D01*
X164256617Y-116297638D01*
X164263485Y-116299224D01*
X164270531Y-116299249D01*
X164270534Y-116299249D01*
X164304056Y-116299366D01*
X164304938Y-116299395D01*
X164305769Y-116299500D01*
X164342419Y-116299500D01*
X164342859Y-116299501D01*
X164441343Y-116299845D01*
X164441348Y-116299845D01*
X164444870Y-116299857D01*
X164446070Y-116299589D01*
X164447707Y-116299500D01*
X165001160Y-116299500D01*
X165069281Y-116319502D01*
X165108304Y-116359197D01*
X165158522Y-116440348D01*
X165283697Y-116565305D01*
X165289927Y-116569145D01*
X165289928Y-116569146D01*
X165427718Y-116654081D01*
X165434262Y-116658115D01*
X165492037Y-116677278D01*
X165595611Y-116711632D01*
X165595613Y-116711632D01*
X165602139Y-116713797D01*
X165608975Y-116714497D01*
X165608978Y-116714498D01*
X165652031Y-116718909D01*
X165706600Y-116724500D01*
X166307400Y-116724500D01*
X166310646Y-116724163D01*
X166310650Y-116724163D01*
X166406308Y-116714238D01*
X166406312Y-116714237D01*
X166413166Y-116713526D01*
X166419702Y-116711345D01*
X166419704Y-116711345D01*
X166551806Y-116667272D01*
X166580946Y-116657550D01*
X166731348Y-116564478D01*
X166856305Y-116439303D01*
X166858906Y-116435084D01*
X166916030Y-116394583D01*
X166986953Y-116391351D01*
X167048365Y-116426976D01*
X167054922Y-116434530D01*
X167058522Y-116440348D01*
X167183697Y-116565305D01*
X167189927Y-116569145D01*
X167189928Y-116569146D01*
X167327718Y-116654081D01*
X167334262Y-116658115D01*
X167392037Y-116677278D01*
X167495611Y-116711632D01*
X167495613Y-116711632D01*
X167502139Y-116713797D01*
X167508975Y-116714497D01*
X167508978Y-116714498D01*
X167552031Y-116718909D01*
X167606600Y-116724500D01*
X168207400Y-116724500D01*
X168210646Y-116724163D01*
X168210650Y-116724163D01*
X168306308Y-116714238D01*
X168306312Y-116714237D01*
X168313166Y-116713526D01*
X168319702Y-116711345D01*
X168319704Y-116711345D01*
X168451806Y-116667272D01*
X168480946Y-116657550D01*
X168631348Y-116564478D01*
X168756305Y-116439303D01*
X168760147Y-116433071D01*
X168764682Y-116427328D01*
X168767066Y-116429211D01*
X168809635Y-116390895D01*
X168864131Y-116378500D01*
X169162981Y-116378500D01*
X169231102Y-116398502D01*
X169277595Y-116452158D01*
X169287699Y-116522432D01*
X169274072Y-116560035D01*
X169275388Y-116560649D01*
X169266149Y-116580464D01*
X169217395Y-116727452D01*
X169214529Y-116740817D01*
X169205328Y-116830625D01*
X169205000Y-116837042D01*
X169205000Y-116838885D01*
X169209475Y-116854124D01*
X169210865Y-116855329D01*
X169218548Y-116857000D01*
X171136885Y-116857000D01*
X171152124Y-116852525D01*
X171153329Y-116851135D01*
X171155000Y-116843452D01*
X171155000Y-116837091D01*
X171154663Y-116830572D01*
X171145222Y-116739587D01*
X171142329Y-116726192D01*
X171093323Y-116579305D01*
X171087154Y-116566134D01*
X171086727Y-116565444D01*
X171086579Y-116564907D01*
X171084049Y-116559505D01*
X171084973Y-116559072D01*
X171067889Y-116496992D01*
X171089050Y-116429222D01*
X171143491Y-116383651D01*
X171167237Y-116375988D01*
X171193603Y-116370288D01*
X171206163Y-116368231D01*
X171249255Y-116363397D01*
X171255906Y-116361081D01*
X171255910Y-116361080D01*
X171280930Y-116352367D01*
X171295742Y-116348204D01*
X171321619Y-116342609D01*
X171328510Y-116341119D01*
X171367813Y-116322792D01*
X171379589Y-116318010D01*
X171420552Y-116303745D01*
X171426527Y-116300011D01*
X171426530Y-116300010D01*
X171445434Y-116288198D01*
X182495184Y-116288198D01*
X182501018Y-116297965D01*
X183883188Y-117680135D01*
X183897132Y-117687749D01*
X183898965Y-117687618D01*
X183905580Y-117683367D01*
X185289229Y-116299718D01*
X185296743Y-116285957D01*
X185290285Y-116276596D01*
X185271758Y-116260349D01*
X185265218Y-116255331D01*
X185026847Y-116096056D01*
X185019710Y-116091935D01*
X184762580Y-115965133D01*
X184754985Y-115961987D01*
X184483502Y-115869830D01*
X184475542Y-115867697D01*
X184194357Y-115811766D01*
X184186199Y-115810692D01*
X183900119Y-115791942D01*
X183891881Y-115791942D01*
X183605801Y-115810692D01*
X183597643Y-115811766D01*
X183316458Y-115867697D01*
X183308498Y-115869830D01*
X183037015Y-115961987D01*
X183029420Y-115965133D01*
X182772290Y-116091935D01*
X182765153Y-116096056D01*
X182526782Y-116255331D01*
X182520242Y-116260349D01*
X182503581Y-116274960D01*
X182495184Y-116288198D01*
X171445434Y-116288198D01*
X171448995Y-116285973D01*
X171462512Y-116278634D01*
X171486514Y-116267441D01*
X171486515Y-116267440D01*
X171492902Y-116264462D01*
X171504674Y-116255331D01*
X171527153Y-116237894D01*
X171537612Y-116230598D01*
X171568404Y-116211358D01*
X171568407Y-116211356D01*
X171574376Y-116207626D01*
X171603179Y-116179024D01*
X171603804Y-116178439D01*
X171604470Y-116177922D01*
X171630460Y-116151932D01*
X171703082Y-116079815D01*
X171703740Y-116078778D01*
X171704843Y-116077549D01*
X173378314Y-114404078D01*
X173440626Y-114370052D01*
X173512357Y-114375463D01*
X173576692Y-114400030D01*
X173581760Y-114401061D01*
X173581763Y-114401062D01*
X173662667Y-114417522D01*
X173795597Y-114444567D01*
X173800772Y-114444757D01*
X173800774Y-114444757D01*
X174013673Y-114452564D01*
X174013677Y-114452564D01*
X174018837Y-114452753D01*
X174023957Y-114452097D01*
X174023959Y-114452097D01*
X174235288Y-114425025D01*
X174235289Y-114425025D01*
X174240416Y-114424368D01*
X174245366Y-114422883D01*
X174449429Y-114361661D01*
X174449434Y-114361659D01*
X174454384Y-114360174D01*
X174654994Y-114261896D01*
X174836860Y-114132173D01*
X174844695Y-114124366D01*
X174969288Y-114000207D01*
X179221676Y-114000207D01*
X179221731Y-114000987D01*
X179227083Y-114009034D01*
X179266141Y-114045711D01*
X179270841Y-114049711D01*
X179575958Y-114284683D01*
X179581001Y-114288188D01*
X179907602Y-114492270D01*
X179912959Y-114495264D01*
X180257922Y-114666505D01*
X180263546Y-114668962D01*
X180623555Y-114805718D01*
X180629422Y-114807624D01*
X181001064Y-114908597D01*
X181007041Y-114909911D01*
X181386791Y-114974141D01*
X181392877Y-114974866D01*
X181777063Y-115001732D01*
X181783199Y-115001860D01*
X182168172Y-114991107D01*
X182174303Y-114990635D01*
X182556364Y-114942369D01*
X182562437Y-114941299D01*
X182937981Y-114855978D01*
X182943896Y-114854326D01*
X183309319Y-114732766D01*
X183315053Y-114730542D01*
X183666885Y-114573896D01*
X183672354Y-114571133D01*
X184007224Y-114380901D01*
X184012398Y-114377617D01*
X184327103Y-114155617D01*
X184331941Y-114151837D01*
X184496604Y-114009705D01*
X184505019Y-113996665D01*
X184499080Y-113986633D01*
X181876812Y-111364365D01*
X181862868Y-111356751D01*
X181861035Y-111356882D01*
X181854420Y-111361133D01*
X179229290Y-113986263D01*
X179221676Y-114000207D01*
X174969288Y-114000207D01*
X174976131Y-113993388D01*
X174995096Y-113974489D01*
X175002699Y-113963909D01*
X175122435Y-113797277D01*
X175125453Y-113793077D01*
X175129875Y-113784131D01*
X175222136Y-113597453D01*
X175222137Y-113597451D01*
X175224430Y-113592811D01*
X175289370Y-113379069D01*
X175318529Y-113157590D01*
X175319023Y-113137362D01*
X175320074Y-113094365D01*
X175320074Y-113094361D01*
X175320156Y-113091000D01*
X175301852Y-112868361D01*
X175247431Y-112651702D01*
X175158354Y-112446840D01*
X175079571Y-112325060D01*
X175039822Y-112263617D01*
X175039820Y-112263614D01*
X175037014Y-112259277D01*
X174886670Y-112094051D01*
X174882619Y-112090852D01*
X174882615Y-112090848D01*
X174715414Y-111958800D01*
X174715410Y-111958798D01*
X174711359Y-111955598D01*
X174670053Y-111932796D01*
X174620084Y-111882364D01*
X174605312Y-111812921D01*
X174630428Y-111746516D01*
X174657780Y-111719909D01*
X174718812Y-111676375D01*
X174836860Y-111592173D01*
X174874551Y-111554614D01*
X174956589Y-111472862D01*
X174995096Y-111434489D01*
X175010900Y-111412496D01*
X175122435Y-111257277D01*
X175125453Y-111253077D01*
X175136252Y-111231228D01*
X175222136Y-111057453D01*
X175222137Y-111057451D01*
X175224430Y-111052811D01*
X175257133Y-110945173D01*
X177859674Y-110945173D01*
X177873113Y-111330035D01*
X177873628Y-111336169D01*
X177924563Y-111717900D01*
X177925670Y-111723937D01*
X178013613Y-112098881D01*
X178015307Y-112104791D01*
X178139417Y-112469359D01*
X178141684Y-112475084D01*
X178300768Y-112825783D01*
X178303589Y-112831273D01*
X178496140Y-113164780D01*
X178499470Y-113169948D01*
X178723653Y-113483084D01*
X178727470Y-113487900D01*
X178852343Y-113630542D01*
X178865557Y-113638940D01*
X178875352Y-113633095D01*
X181497635Y-111010812D01*
X181505249Y-110996868D01*
X181505118Y-110995035D01*
X181500867Y-110988420D01*
X178876283Y-108363836D01*
X178862339Y-108356222D01*
X178861793Y-108356261D01*
X178853437Y-108361860D01*
X178798213Y-108421496D01*
X178794268Y-108426198D01*
X178561424Y-108732959D01*
X178557953Y-108738029D01*
X178356161Y-109066035D01*
X178353198Y-109071425D01*
X178184372Y-109417571D01*
X178181952Y-109423217D01*
X178047717Y-109784163D01*
X178045851Y-109790045D01*
X177947475Y-110162383D01*
X177946200Y-110168383D01*
X177884627Y-110548541D01*
X177883940Y-110554669D01*
X177859760Y-110938998D01*
X177859674Y-110945173D01*
X175257133Y-110945173D01*
X175289370Y-110839069D01*
X175318529Y-110617590D01*
X175318615Y-110614072D01*
X175320074Y-110554365D01*
X175320074Y-110554361D01*
X175320156Y-110551000D01*
X175301852Y-110328361D01*
X175247431Y-110111702D01*
X175158354Y-109906840D01*
X175088072Y-109798201D01*
X175039822Y-109723617D01*
X175039820Y-109723614D01*
X175037014Y-109719277D01*
X174886670Y-109554051D01*
X174882619Y-109550852D01*
X174882615Y-109550848D01*
X174715414Y-109418800D01*
X174715410Y-109418798D01*
X174711359Y-109415598D01*
X174670053Y-109392796D01*
X174620084Y-109342364D01*
X174605312Y-109272921D01*
X174630428Y-109206516D01*
X174657780Y-109179909D01*
X174715103Y-109139021D01*
X174836860Y-109052173D01*
X174842421Y-109046632D01*
X174968955Y-108920539D01*
X174995096Y-108894489D01*
X175026503Y-108850782D01*
X175122435Y-108717277D01*
X175125453Y-108713077D01*
X175128210Y-108707500D01*
X175222136Y-108517453D01*
X175222137Y-108517451D01*
X175224430Y-108512811D01*
X175261276Y-108391536D01*
X175287865Y-108304023D01*
X175287865Y-108304021D01*
X175289370Y-108299069D01*
X175318529Y-108077590D01*
X175318652Y-108072545D01*
X175320074Y-108014365D01*
X175320074Y-108014361D01*
X175320156Y-108011000D01*
X175319222Y-107999642D01*
X179223004Y-107999642D01*
X179228753Y-108009200D01*
X181851188Y-110631635D01*
X181865132Y-110639249D01*
X181866965Y-110639118D01*
X181873580Y-110634867D01*
X184497756Y-108010691D01*
X184505370Y-107996747D01*
X184505348Y-107996438D01*
X184499493Y-107987766D01*
X184419045Y-107914306D01*
X184414307Y-107910387D01*
X184105937Y-107679697D01*
X184100832Y-107676253D01*
X183771419Y-107476753D01*
X183766023Y-107473836D01*
X183418714Y-107307433D01*
X183413031Y-107305044D01*
X183051147Y-107173329D01*
X183045289Y-107171515D01*
X182672251Y-107075736D01*
X182666249Y-107074505D01*
X182285666Y-107015587D01*
X182279541Y-107014943D01*
X181895029Y-106993446D01*
X181888877Y-106993403D01*
X181504112Y-107009529D01*
X181497986Y-107010086D01*
X181116624Y-107063683D01*
X181110571Y-107064838D01*
X180736261Y-107155393D01*
X180730364Y-107157129D01*
X180366683Y-107283777D01*
X180360969Y-107286085D01*
X180011378Y-107447618D01*
X180005924Y-107450470D01*
X179673762Y-107645348D01*
X179668614Y-107648717D01*
X179357046Y-107875084D01*
X179352265Y-107878928D01*
X179231383Y-107986252D01*
X179223004Y-107999642D01*
X175319222Y-107999642D01*
X175301852Y-107788361D01*
X175247431Y-107571702D01*
X175158354Y-107366840D01*
X175115202Y-107300137D01*
X175039822Y-107183617D01*
X175039820Y-107183614D01*
X175037014Y-107179277D01*
X174886670Y-107014051D01*
X174882619Y-107010852D01*
X174882615Y-107010848D01*
X174715414Y-106878800D01*
X174715410Y-106878798D01*
X174711359Y-106875598D01*
X174670053Y-106852796D01*
X174620084Y-106802364D01*
X174605312Y-106732921D01*
X174630428Y-106666516D01*
X174657780Y-106639909D01*
X174726840Y-106590649D01*
X174836860Y-106512173D01*
X174995096Y-106354489D01*
X175055337Y-106270655D01*
X175122435Y-106177277D01*
X175125453Y-106173077D01*
X175158942Y-106105318D01*
X175222136Y-105977453D01*
X175222137Y-105977451D01*
X175224430Y-105972811D01*
X175289370Y-105759069D01*
X175318529Y-105537590D01*
X175320156Y-105471000D01*
X175301852Y-105248361D01*
X175247431Y-105031702D01*
X175158354Y-104826840D01*
X175062626Y-104678867D01*
X175039822Y-104643617D01*
X175039820Y-104643614D01*
X175037014Y-104639277D01*
X174886670Y-104474051D01*
X174882619Y-104470852D01*
X174882615Y-104470848D01*
X174715414Y-104338800D01*
X174715410Y-104338798D01*
X174711359Y-104335598D01*
X174693674Y-104325835D01*
X174653606Y-104303717D01*
X174515789Y-104227638D01*
X174510920Y-104225914D01*
X174510916Y-104225912D01*
X174310087Y-104154795D01*
X174310083Y-104154794D01*
X174305212Y-104153069D01*
X174300119Y-104152162D01*
X174300116Y-104152161D01*
X174090373Y-104114800D01*
X174090367Y-104114799D01*
X174085284Y-104113894D01*
X174011452Y-104112992D01*
X173867081Y-104111228D01*
X173867079Y-104111228D01*
X173861911Y-104111165D01*
X173641091Y-104144955D01*
X173428756Y-104214357D01*
X173379710Y-104239889D01*
X173260859Y-104301759D01*
X173230607Y-104317507D01*
X173226474Y-104320610D01*
X173226471Y-104320612D01*
X173057316Y-104447617D01*
X173051965Y-104451635D01*
X172897629Y-104613138D01*
X172895632Y-104616065D01*
X172837603Y-104656148D01*
X172798102Y-104662500D01*
X172406679Y-104662500D01*
X172338558Y-104642498D01*
X172292065Y-104588842D01*
X172285783Y-104571999D01*
X172277525Y-104543876D01*
X172276135Y-104542671D01*
X172268452Y-104541000D01*
X171227582Y-104541000D01*
X171159461Y-104520998D01*
X171138487Y-104504095D01*
X171118905Y-104484513D01*
X171084879Y-104422201D01*
X171082000Y-104395418D01*
X171082000Y-104167000D01*
X171102002Y-104098879D01*
X171155658Y-104052386D01*
X171208000Y-104041000D01*
X172263885Y-104041000D01*
X172311462Y-104027030D01*
X172316801Y-104023600D01*
X172352286Y-104018500D01*
X172533905Y-104018500D01*
X172560480Y-104017076D01*
X172587094Y-104015650D01*
X172587104Y-104015649D01*
X172588787Y-104015559D01*
X172615570Y-104012680D01*
X172617227Y-104012412D01*
X172617238Y-104012410D01*
X172663735Y-104004875D01*
X172663740Y-104004874D01*
X172669847Y-104003884D01*
X172675644Y-104001722D01*
X172675647Y-104001721D01*
X172802574Y-103954378D01*
X172802576Y-103954377D01*
X172806788Y-103952806D01*
X172813731Y-103949015D01*
X172865152Y-103920936D01*
X172865154Y-103920935D01*
X172869100Y-103918780D01*
X172916790Y-103883079D01*
X172982497Y-103833891D01*
X172982501Y-103833887D01*
X172986099Y-103831194D01*
X173371812Y-103445481D01*
X173374317Y-103442856D01*
X173388024Y-103428488D01*
X173388027Y-103428485D01*
X173388500Y-103427989D01*
X173390253Y-103426063D01*
X173450894Y-103389145D01*
X173481475Y-103384884D01*
X173481646Y-103384881D01*
X173482044Y-103384875D01*
X173490132Y-103384685D01*
X173516306Y-103383862D01*
X173526173Y-103383940D01*
X173536595Y-103384431D01*
X173537305Y-103384448D01*
X173537341Y-103384449D01*
X173560038Y-103384983D01*
X173560052Y-103384983D01*
X173560767Y-103385000D01*
X173662800Y-103385000D01*
X173731031Y-103380447D01*
X173733101Y-103380170D01*
X173733106Y-103380169D01*
X173741422Y-103379054D01*
X173764217Y-103375998D01*
X173791762Y-103370417D01*
X173824762Y-103363731D01*
X173824763Y-103363731D01*
X173831232Y-103362420D01*
X173844938Y-103356474D01*
X173961185Y-103306043D01*
X173961188Y-103306041D01*
X173965315Y-103304251D01*
X174018624Y-103271411D01*
X174017431Y-103269475D01*
X174023042Y-103264613D01*
X174053978Y-103243887D01*
X174060616Y-103240242D01*
X174061576Y-103241564D01*
X174161700Y-103168819D01*
X174184512Y-103155648D01*
X174184514Y-103155647D01*
X174236169Y-103132649D01*
X174261216Y-103124511D01*
X174316534Y-103112753D01*
X174342730Y-103110000D01*
X174399270Y-103110000D01*
X174425466Y-103112753D01*
X174480784Y-103124511D01*
X174505831Y-103132649D01*
X174557486Y-103155647D01*
X174580297Y-103168817D01*
X174618355Y-103196468D01*
X174626052Y-103202060D01*
X174645626Y-103219686D01*
X174683460Y-103261705D01*
X174698943Y-103283014D01*
X174704478Y-103292601D01*
X174727217Y-103331987D01*
X174737930Y-103356050D01*
X174755403Y-103409826D01*
X174760879Y-103435587D01*
X174761690Y-103443305D01*
X174761694Y-103443334D01*
X174761958Y-103445843D01*
X174762427Y-103448338D01*
X174762427Y-103448341D01*
X174776810Y-103524931D01*
X174776813Y-103524943D01*
X174777280Y-103527431D01*
X174787976Y-103566603D01*
X174788836Y-103568977D01*
X174788838Y-103568984D01*
X174799802Y-103599256D01*
X174816245Y-103644657D01*
X174820058Y-103650591D01*
X174820060Y-103650594D01*
X174847165Y-103692770D01*
X174895263Y-103767612D01*
X174898205Y-103771007D01*
X174898207Y-103771010D01*
X174927626Y-103804961D01*
X174941756Y-103821268D01*
X174945149Y-103824208D01*
X175045405Y-103911081D01*
X175045408Y-103911083D01*
X175052216Y-103916982D01*
X175185165Y-103977698D01*
X175197041Y-103981185D01*
X175248963Y-103996431D01*
X175248967Y-103996432D01*
X175253286Y-103997700D01*
X175257735Y-103998340D01*
X175257741Y-103998341D01*
X175393508Y-104017861D01*
X175393513Y-104017861D01*
X175397955Y-104018500D01*
X178382810Y-104018500D01*
X178409385Y-104017076D01*
X178435999Y-104015650D01*
X178436009Y-104015649D01*
X178437692Y-104015559D01*
X178464475Y-104012680D01*
X178466132Y-104012412D01*
X178466143Y-104012410D01*
X178512640Y-104004875D01*
X178512645Y-104004874D01*
X178518752Y-104003884D01*
X178524549Y-104001722D01*
X178524552Y-104001721D01*
X178651479Y-103954378D01*
X178651481Y-103954377D01*
X178655693Y-103952806D01*
X178662636Y-103949015D01*
X178714057Y-103920936D01*
X178714059Y-103920935D01*
X178718005Y-103918780D01*
X178765695Y-103883079D01*
X178831402Y-103833891D01*
X178831406Y-103833887D01*
X178835004Y-103831194D01*
X178938676Y-103727522D01*
X180682719Y-103727522D01*
X180735146Y-103923181D01*
X180738892Y-103933473D01*
X180834074Y-104137591D01*
X180839557Y-104147087D01*
X180968731Y-104331567D01*
X180975787Y-104339975D01*
X181135025Y-104499213D01*
X181143433Y-104506269D01*
X181327913Y-104635443D01*
X181337409Y-104640926D01*
X181541527Y-104736108D01*
X181551819Y-104739854D01*
X181769364Y-104798145D01*
X181780159Y-104800048D01*
X181866954Y-104807642D01*
X181881901Y-104804638D01*
X181885000Y-104792886D01*
X181885000Y-104791106D01*
X182385000Y-104791106D01*
X182389295Y-104805735D01*
X182401272Y-104807797D01*
X182489841Y-104800048D01*
X182500636Y-104798145D01*
X182718181Y-104739854D01*
X182728473Y-104736108D01*
X182932591Y-104640926D01*
X182942087Y-104635443D01*
X183126567Y-104506269D01*
X183134975Y-104499213D01*
X183294213Y-104339975D01*
X183301269Y-104331567D01*
X183430443Y-104147087D01*
X183435926Y-104137592D01*
X183531108Y-103933473D01*
X183534854Y-103923181D01*
X183585948Y-103732497D01*
X183585612Y-103718401D01*
X183577670Y-103715000D01*
X182403115Y-103715000D01*
X182387876Y-103719475D01*
X182386671Y-103720865D01*
X182385000Y-103728548D01*
X182385000Y-104791106D01*
X181885000Y-104791106D01*
X181885000Y-103733115D01*
X181880525Y-103717876D01*
X181879135Y-103716671D01*
X181871452Y-103715000D01*
X180697479Y-103715000D01*
X180683948Y-103718973D01*
X180682719Y-103727522D01*
X178938676Y-103727522D01*
X180807874Y-101858324D01*
X180870186Y-101824298D01*
X180941001Y-101829363D01*
X180992133Y-101864838D01*
X181022657Y-101900013D01*
X181052177Y-101934032D01*
X181059477Y-101942445D01*
X181101030Y-101976516D01*
X181233627Y-102085240D01*
X181233633Y-102085244D01*
X181237755Y-102088624D01*
X181242391Y-102091263D01*
X181242394Y-102091265D01*
X181276660Y-102110770D01*
X181325966Y-102161852D01*
X181339828Y-102231483D01*
X181313845Y-102297553D01*
X181286599Y-102323485D01*
X181143433Y-102423731D01*
X181135025Y-102430787D01*
X180975787Y-102590025D01*
X180968731Y-102598433D01*
X180839557Y-102782913D01*
X180834074Y-102792408D01*
X180738892Y-102996527D01*
X180735146Y-103006819D01*
X180684052Y-103197503D01*
X180684388Y-103211599D01*
X180692330Y-103215000D01*
X183572521Y-103215000D01*
X183586052Y-103211027D01*
X183587281Y-103202478D01*
X183534854Y-103006819D01*
X183531108Y-102996527D01*
X183435926Y-102792409D01*
X183430443Y-102782913D01*
X183301269Y-102598433D01*
X183294213Y-102590025D01*
X183134975Y-102430787D01*
X183126567Y-102423731D01*
X182982428Y-102322804D01*
X182938100Y-102267347D01*
X182930791Y-102196728D01*
X182962822Y-102133367D01*
X182984330Y-102115073D01*
X183114319Y-102027559D01*
X183132269Y-102010436D01*
X183209835Y-101936441D01*
X183281135Y-101868424D01*
X183418754Y-101683458D01*
X183421170Y-101678706D01*
X183421175Y-101678698D01*
X183426922Y-101667394D01*
X183475625Y-101615737D01*
X183539238Y-101598500D01*
X184579233Y-101598500D01*
X184590416Y-101599027D01*
X184597909Y-101600702D01*
X184605835Y-101600453D01*
X184605836Y-101600453D01*
X184665986Y-101598562D01*
X184669945Y-101598500D01*
X184697856Y-101598500D01*
X184701791Y-101598003D01*
X184701856Y-101597995D01*
X184713693Y-101597062D01*
X184745951Y-101596048D01*
X184749970Y-101595922D01*
X184757889Y-101595673D01*
X184777343Y-101590021D01*
X184796700Y-101586013D01*
X184808930Y-101584468D01*
X184808931Y-101584468D01*
X184816797Y-101583474D01*
X184824168Y-101580555D01*
X184824170Y-101580555D01*
X184857912Y-101567196D01*
X184869142Y-101563351D01*
X184903983Y-101553229D01*
X184903984Y-101553229D01*
X184911593Y-101551018D01*
X184918412Y-101546985D01*
X184918417Y-101546983D01*
X184929028Y-101540707D01*
X184946776Y-101532012D01*
X184965617Y-101524552D01*
X185001387Y-101498564D01*
X185011307Y-101492048D01*
X185042535Y-101473580D01*
X185042538Y-101473578D01*
X185049362Y-101469542D01*
X185063683Y-101455221D01*
X185078717Y-101442380D01*
X185088694Y-101435131D01*
X185095107Y-101430472D01*
X185123298Y-101396395D01*
X185131288Y-101387616D01*
X185304247Y-101214657D01*
X185312537Y-101207113D01*
X185319018Y-101203000D01*
X185365659Y-101153332D01*
X185368413Y-101150491D01*
X185388134Y-101130770D01*
X185390612Y-101127575D01*
X185398318Y-101118553D01*
X185423158Y-101092101D01*
X185428586Y-101086321D01*
X185438346Y-101068568D01*
X185449199Y-101052045D01*
X185456753Y-101042306D01*
X185461613Y-101036041D01*
X185479176Y-100995457D01*
X185484383Y-100984827D01*
X185505695Y-100946060D01*
X185507666Y-100938383D01*
X185507668Y-100938378D01*
X185510732Y-100926442D01*
X185517138Y-100907730D01*
X185522033Y-100896419D01*
X185525181Y-100889145D01*
X185526421Y-100881317D01*
X185526423Y-100881310D01*
X185532099Y-100845476D01*
X185534505Y-100833856D01*
X185543528Y-100798711D01*
X185543528Y-100798710D01*
X185545500Y-100791030D01*
X185545500Y-100770776D01*
X185547051Y-100751065D01*
X185548980Y-100738886D01*
X185550220Y-100731057D01*
X185546059Y-100687038D01*
X185545500Y-100675181D01*
X185545500Y-97741768D01*
X185546027Y-97730585D01*
X185547702Y-97723092D01*
X185547099Y-97703887D01*
X185545562Y-97655002D01*
X185545500Y-97651044D01*
X185545500Y-97623144D01*
X185544996Y-97619153D01*
X185544063Y-97607311D01*
X185543696Y-97595610D01*
X185542674Y-97563111D01*
X185537021Y-97543652D01*
X185533012Y-97524293D01*
X185532846Y-97522983D01*
X185530474Y-97504203D01*
X185527558Y-97496837D01*
X185527556Y-97496831D01*
X185514200Y-97463098D01*
X185510355Y-97451868D01*
X185500230Y-97417017D01*
X185500230Y-97417016D01*
X185498019Y-97409407D01*
X185487705Y-97391966D01*
X185479008Y-97374213D01*
X185474472Y-97362758D01*
X185471552Y-97355383D01*
X185445563Y-97319612D01*
X185439047Y-97309692D01*
X185416542Y-97271638D01*
X185402221Y-97257317D01*
X185389380Y-97242283D01*
X185377472Y-97225893D01*
X185343395Y-97197702D01*
X185334616Y-97189712D01*
X182748652Y-94603747D01*
X182741112Y-94595461D01*
X182737000Y-94588982D01*
X182687348Y-94542356D01*
X182684507Y-94539602D01*
X182664770Y-94519865D01*
X182661573Y-94517385D01*
X182652551Y-94509680D01*
X182639116Y-94497064D01*
X182620321Y-94479414D01*
X182613375Y-94475595D01*
X182613372Y-94475593D01*
X182602566Y-94469652D01*
X182586047Y-94458801D01*
X182580788Y-94454722D01*
X182570041Y-94446386D01*
X182562772Y-94443241D01*
X182562768Y-94443238D01*
X182529463Y-94428826D01*
X182518813Y-94423609D01*
X182480060Y-94402305D01*
X182460437Y-94397267D01*
X182441734Y-94390863D01*
X182430420Y-94385967D01*
X182430419Y-94385967D01*
X182423145Y-94382819D01*
X182415322Y-94381580D01*
X182415312Y-94381577D01*
X182379476Y-94375901D01*
X182367856Y-94373495D01*
X182332711Y-94364472D01*
X182332710Y-94364472D01*
X182325030Y-94362500D01*
X182304776Y-94362500D01*
X182285065Y-94360949D01*
X182282534Y-94360548D01*
X182265057Y-94357780D01*
X182257165Y-94358526D01*
X182221039Y-94361941D01*
X182209181Y-94362500D01*
X152478763Y-94362500D01*
X152467579Y-94361973D01*
X152460091Y-94360299D01*
X152452168Y-94360548D01*
X152392033Y-94362438D01*
X152388075Y-94362500D01*
X152360144Y-94362500D01*
X152356229Y-94362995D01*
X152356225Y-94362995D01*
X152356167Y-94363003D01*
X152356138Y-94363006D01*
X152344296Y-94363939D01*
X152300110Y-94365327D01*
X152282744Y-94370372D01*
X152280658Y-94370978D01*
X152261306Y-94374986D01*
X152249068Y-94376532D01*
X152249066Y-94376533D01*
X152241203Y-94377526D01*
X152200086Y-94393806D01*
X152188885Y-94397641D01*
X152146406Y-94409982D01*
X152139587Y-94414015D01*
X152139582Y-94414017D01*
X152128971Y-94420293D01*
X152111221Y-94428990D01*
X152092383Y-94436448D01*
X152085967Y-94441109D01*
X152085966Y-94441110D01*
X152056625Y-94462428D01*
X152046701Y-94468947D01*
X152015460Y-94487422D01*
X152015455Y-94487426D01*
X152008637Y-94491458D01*
X151994313Y-94505782D01*
X151979281Y-94518621D01*
X151962893Y-94530528D01*
X151947427Y-94549223D01*
X151946936Y-94549817D01*
X151888102Y-94589554D01*
X151849852Y-94595500D01*
X151796513Y-94595500D01*
X151790061Y-94596872D01*
X151790056Y-94596872D01*
X151705587Y-94614827D01*
X151609712Y-94635206D01*
X151603682Y-94637891D01*
X151603681Y-94637891D01*
X151441278Y-94710197D01*
X151441276Y-94710198D01*
X151435248Y-94712882D01*
X151280747Y-94825134D01*
X151152960Y-94967056D01*
X151151483Y-94965726D01*
X151102755Y-95003300D01*
X151032019Y-95009374D01*
X150967949Y-94974979D01*
X150762450Y-94769480D01*
X150756596Y-94763215D01*
X150748691Y-94754153D01*
X150718561Y-94719615D01*
X150666280Y-94682871D01*
X150660986Y-94678939D01*
X150616693Y-94644209D01*
X150610718Y-94639524D01*
X150603802Y-94636401D01*
X150601516Y-94635017D01*
X150586835Y-94626643D01*
X150584475Y-94625378D01*
X150578261Y-94621010D01*
X150571182Y-94618250D01*
X150571180Y-94618249D01*
X150518725Y-94597798D01*
X150512656Y-94595247D01*
X150454427Y-94568955D01*
X150446960Y-94567571D01*
X150444405Y-94566770D01*
X150428152Y-94562141D01*
X150425572Y-94561478D01*
X150418491Y-94558718D01*
X150410960Y-94557727D01*
X150410958Y-94557726D01*
X150381339Y-94553827D01*
X150355139Y-94550378D01*
X150348641Y-94549348D01*
X150285814Y-94537704D01*
X150278234Y-94538141D01*
X150278233Y-94538141D01*
X150223608Y-94541291D01*
X150216354Y-94541500D01*
X136926912Y-94541500D01*
X136918342Y-94541208D01*
X136868224Y-94537791D01*
X136868220Y-94537791D01*
X136860648Y-94537275D01*
X136853171Y-94538580D01*
X136853170Y-94538580D01*
X136836440Y-94541500D01*
X136797703Y-94548261D01*
X136791186Y-94549222D01*
X136727758Y-94556898D01*
X136720650Y-94559584D01*
X136718056Y-94560221D01*
X136701750Y-94564682D01*
X136699199Y-94565452D01*
X136691716Y-94566758D01*
X136684764Y-94569810D01*
X136684763Y-94569810D01*
X136633212Y-94592439D01*
X136627105Y-94594931D01*
X136574452Y-94614827D01*
X136567344Y-94617513D01*
X136561083Y-94621816D01*
X136558717Y-94623053D01*
X136543937Y-94631280D01*
X136541652Y-94632631D01*
X136534695Y-94635685D01*
X136528675Y-94640305D01*
X136528669Y-94640308D01*
X136497542Y-94664194D01*
X136483998Y-94674587D01*
X136478668Y-94678459D01*
X136432280Y-94710339D01*
X136432275Y-94710344D01*
X136426019Y-94714643D01*
X136420968Y-94720313D01*
X136420966Y-94720314D01*
X136384565Y-94761170D01*
X136379584Y-94766446D01*
X135900435Y-95245595D01*
X135838123Y-95279621D01*
X135811340Y-95282500D01*
X130685912Y-95282500D01*
X130677342Y-95282208D01*
X130627224Y-95278791D01*
X130627220Y-95278791D01*
X130619648Y-95278275D01*
X130612171Y-95279580D01*
X130612170Y-95279580D01*
X130585692Y-95284201D01*
X130556697Y-95289262D01*
X130550179Y-95290223D01*
X130486758Y-95297898D01*
X130479657Y-95300581D01*
X130477048Y-95301222D01*
X130460738Y-95305685D01*
X130458202Y-95306450D01*
X130450716Y-95307757D01*
X130443759Y-95310811D01*
X130392205Y-95333442D01*
X130386101Y-95335933D01*
X130326344Y-95358513D01*
X130320081Y-95362817D01*
X130317715Y-95364054D01*
X130302903Y-95372299D01*
X130300649Y-95373632D01*
X130293695Y-95376685D01*
X130242998Y-95415587D01*
X130237668Y-95419459D01*
X130191280Y-95451339D01*
X130191275Y-95451344D01*
X130185019Y-95455643D01*
X130179968Y-95461313D01*
X130179966Y-95461314D01*
X130143565Y-95502170D01*
X130138584Y-95507446D01*
X130067885Y-95578145D01*
X130005573Y-95612171D01*
X129934758Y-95607106D01*
X129877922Y-95564559D01*
X129855211Y-95513632D01*
X129813802Y-95305456D01*
X129811670Y-95297498D01*
X129719513Y-95026015D01*
X129716367Y-95018420D01*
X129589565Y-94761290D01*
X129585444Y-94754153D01*
X129426169Y-94515782D01*
X129421151Y-94509242D01*
X129406540Y-94492581D01*
X129393302Y-94484184D01*
X129383535Y-94490018D01*
X128001365Y-95872188D01*
X127993751Y-95886132D01*
X127993882Y-95887965D01*
X127998133Y-95894580D01*
X129381784Y-97278231D01*
X129400888Y-97288663D01*
X129451089Y-97338866D01*
X129466500Y-97399249D01*
X129466500Y-104452340D01*
X129446498Y-104520461D01*
X129429595Y-104541435D01*
X129361376Y-104609654D01*
X129343649Y-104624399D01*
X129336019Y-104629643D01*
X129303847Y-104665752D01*
X129294573Y-104676161D01*
X129289592Y-104681437D01*
X128530682Y-105440348D01*
X127800434Y-106170596D01*
X127738122Y-106204621D01*
X127711339Y-106207501D01*
X127525366Y-106207501D01*
X127522508Y-106207764D01*
X127522499Y-106207764D01*
X127486996Y-106211026D01*
X127451938Y-106214247D01*
X127445560Y-106216246D01*
X127445559Y-106216246D01*
X127295550Y-106263256D01*
X127295548Y-106263257D01*
X127288301Y-106265528D01*
X127141619Y-106354361D01*
X127046095Y-106449885D01*
X126983783Y-106483911D01*
X126912968Y-106478846D01*
X126867905Y-106449885D01*
X126772381Y-106354361D01*
X126625699Y-106265528D01*
X126618452Y-106263257D01*
X126618450Y-106263256D01*
X126539201Y-106238421D01*
X126462062Y-106214247D01*
X126388635Y-106207500D01*
X126385737Y-106207500D01*
X126131335Y-106207501D01*
X125875366Y-106207501D01*
X125872496Y-106207765D01*
X125872489Y-106207765D01*
X125868023Y-106208175D01*
X125798359Y-106194487D01*
X125747154Y-106145308D01*
X125730500Y-106082703D01*
X125730500Y-97645543D01*
X126234257Y-97645543D01*
X126240715Y-97654904D01*
X126259242Y-97671151D01*
X126265782Y-97676169D01*
X126504153Y-97835444D01*
X126511290Y-97839565D01*
X126768420Y-97966367D01*
X126776015Y-97969513D01*
X127047498Y-98061670D01*
X127055458Y-98063803D01*
X127336643Y-98119734D01*
X127344801Y-98120808D01*
X127630881Y-98139558D01*
X127639119Y-98139558D01*
X127925199Y-98120808D01*
X127933357Y-98119734D01*
X128214542Y-98063803D01*
X128222502Y-98061670D01*
X128493985Y-97969513D01*
X128501580Y-97966367D01*
X128758710Y-97839565D01*
X128765847Y-97835444D01*
X129004218Y-97676169D01*
X129010758Y-97671151D01*
X129027419Y-97656540D01*
X129035816Y-97643302D01*
X129029982Y-97633535D01*
X127647812Y-96251365D01*
X127633868Y-96243751D01*
X127632035Y-96243882D01*
X127625420Y-96248133D01*
X126241771Y-97631782D01*
X126234257Y-97645543D01*
X125730500Y-97645543D01*
X125730500Y-97412052D01*
X125750502Y-97343931D01*
X125804158Y-97297438D01*
X125855750Y-97286054D01*
X125876507Y-97285930D01*
X125886465Y-97279982D01*
X129028229Y-94138218D01*
X129035743Y-94124457D01*
X129029285Y-94115096D01*
X129010758Y-94098849D01*
X129004222Y-94093834D01*
X128989903Y-94084266D01*
X128944375Y-94029789D01*
X128935526Y-93959346D01*
X128966167Y-93895302D01*
X129026568Y-93857990D01*
X129059904Y-93853500D01*
X183846633Y-93853500D01*
X183866018Y-93855000D01*
G37*
%TD.AperFunction*%
%TA.AperFunction,Conductor*%
G36*
X138498804Y-110079266D02*
G01*
X138555640Y-110121813D01*
X138575005Y-110159639D01*
X138576181Y-110163390D01*
X138578457Y-110170654D01*
X138582391Y-110177150D01*
X138582393Y-110177154D01*
X138656627Y-110299729D01*
X138674806Y-110368358D01*
X138656627Y-110430271D01*
X138582393Y-110552846D01*
X138582391Y-110552850D01*
X138578457Y-110559346D01*
X138576186Y-110566593D01*
X138576185Y-110566595D01*
X138573462Y-110575284D01*
X138529890Y-110714322D01*
X138523500Y-110783867D01*
X138523501Y-111216132D01*
X138523764Y-111218991D01*
X138523764Y-111218999D01*
X138526138Y-111244840D01*
X138529890Y-111285678D01*
X138531889Y-111292056D01*
X138531889Y-111292057D01*
X138575210Y-111430292D01*
X138578457Y-111440654D01*
X138582391Y-111447149D01*
X138582391Y-111447150D01*
X138610622Y-111493764D01*
X138657922Y-111571865D01*
X138661596Y-111577932D01*
X138679775Y-111646562D01*
X138661596Y-111708476D01*
X138590193Y-111826376D01*
X138583988Y-111840118D01*
X138540310Y-111979498D01*
X138537697Y-111992545D01*
X138536832Y-112001959D01*
X138539754Y-112016836D01*
X138551647Y-112020000D01*
X141485710Y-112020000D01*
X141500255Y-112015729D01*
X141502318Y-112003596D01*
X141501302Y-111992535D01*
X141498692Y-111979504D01*
X141455012Y-111840118D01*
X141448805Y-111826371D01*
X141436314Y-111805746D01*
X141418135Y-111737116D01*
X141439946Y-111669553D01*
X141481008Y-111633001D01*
X141480655Y-111632488D01*
X141484734Y-111629685D01*
X141484737Y-111629683D01*
X141486915Y-111628186D01*
X141489281Y-111626949D01*
X141504097Y-111618701D01*
X141506351Y-111617368D01*
X141513305Y-111614315D01*
X141564002Y-111575413D01*
X141569332Y-111571541D01*
X141615720Y-111539661D01*
X141615725Y-111539656D01*
X141621981Y-111535357D01*
X141628264Y-111528306D01*
X141663435Y-111488830D01*
X141668416Y-111483554D01*
X141774351Y-111377619D01*
X141836663Y-111343593D01*
X141907478Y-111348658D01*
X141967286Y-111395348D01*
X141987764Y-111425145D01*
X141987771Y-111425153D01*
X141992070Y-111431408D01*
X141997740Y-111436459D01*
X141997741Y-111436461D01*
X142038597Y-111472862D01*
X142043873Y-111477843D01*
X143316557Y-112750528D01*
X143322411Y-112756793D01*
X143360439Y-112800385D01*
X143412729Y-112837136D01*
X143417971Y-112841028D01*
X143468282Y-112880476D01*
X143475201Y-112883600D01*
X143477493Y-112884988D01*
X143492165Y-112893357D01*
X143494525Y-112894622D01*
X143500739Y-112898990D01*
X143507818Y-112901750D01*
X143507820Y-112901751D01*
X143513612Y-112904009D01*
X143554271Y-112919861D01*
X143560275Y-112922202D01*
X143566344Y-112924753D01*
X143624573Y-112951045D01*
X143632046Y-112952430D01*
X143634612Y-112953234D01*
X143650835Y-112957855D01*
X143653427Y-112958520D01*
X143660509Y-112961282D01*
X143668044Y-112962274D01*
X143723861Y-112969622D01*
X143730377Y-112970654D01*
X143750589Y-112974400D01*
X143793186Y-112982295D01*
X143800767Y-112981858D01*
X143800768Y-112981858D01*
X143835182Y-112979874D01*
X143907705Y-112997889D01*
X143984846Y-113044607D01*
X143984850Y-113044609D01*
X143991346Y-113048543D01*
X143998593Y-113050814D01*
X143998595Y-113050815D01*
X144028013Y-113060034D01*
X144146322Y-113097110D01*
X144215867Y-113103500D01*
X144447923Y-113103500D01*
X144516044Y-113123502D01*
X144562537Y-113177158D01*
X144572641Y-113247432D01*
X144543147Y-113312012D01*
X144501372Y-113343602D01*
X144500682Y-113343925D01*
X144493732Y-113346244D01*
X144432682Y-113384023D01*
X144355787Y-113431607D01*
X144348287Y-113436248D01*
X144343114Y-113441430D01*
X144337380Y-113445975D01*
X144335858Y-113444055D01*
X144283794Y-113472545D01*
X144212974Y-113467544D01*
X144176448Y-113444118D01*
X144175628Y-113445157D01*
X144169882Y-113440619D01*
X144164702Y-113435448D01*
X144146818Y-113424424D01*
X144025331Y-113349538D01*
X144025329Y-113349537D01*
X144019101Y-113345698D01*
X143856757Y-113291851D01*
X143849920Y-113291151D01*
X143849918Y-113291150D01*
X143808599Y-113286917D01*
X143755732Y-113281500D01*
X143208268Y-113281500D01*
X143205022Y-113281837D01*
X143205018Y-113281837D01*
X143185657Y-113283846D01*
X143105981Y-113292113D01*
X143099440Y-113294295D01*
X143099441Y-113294295D01*
X142950676Y-113343927D01*
X142950674Y-113343928D01*
X142943732Y-113346244D01*
X142937508Y-113350096D01*
X142937507Y-113350096D01*
X142890687Y-113379069D01*
X142798287Y-113436248D01*
X142793114Y-113441430D01*
X142751618Y-113482998D01*
X142677448Y-113557298D01*
X142673609Y-113563526D01*
X142673605Y-113563531D01*
X142670064Y-113569276D01*
X142617290Y-113616768D01*
X142547218Y-113628189D01*
X142482095Y-113599913D01*
X142455030Y-113568428D01*
X142447576Y-113556120D01*
X142443639Y-113549619D01*
X142322381Y-113428361D01*
X142175699Y-113339528D01*
X142168452Y-113337257D01*
X142168450Y-113337256D01*
X142078141Y-113308955D01*
X142012062Y-113288247D01*
X141938635Y-113281500D01*
X141935737Y-113281500D01*
X141681335Y-113281501D01*
X141425366Y-113281501D01*
X141422508Y-113281764D01*
X141422499Y-113281764D01*
X141386996Y-113285026D01*
X141351938Y-113288247D01*
X141345560Y-113290246D01*
X141345559Y-113290246D01*
X141195550Y-113337256D01*
X141195548Y-113337257D01*
X141188301Y-113339528D01*
X141041619Y-113428361D01*
X140946095Y-113523885D01*
X140883783Y-113557911D01*
X140812968Y-113552846D01*
X140767905Y-113523885D01*
X140672381Y-113428361D01*
X140589718Y-113378299D01*
X140532199Y-113343464D01*
X140532196Y-113343463D01*
X140525699Y-113339528D01*
X140518449Y-113337256D01*
X140515304Y-113335836D01*
X140461450Y-113289573D01*
X140441156Y-113221538D01*
X140460866Y-113153333D01*
X140514323Y-113106610D01*
X140567155Y-113094999D01*
X140894573Y-113094999D01*
X140900323Y-113094736D01*
X140959464Y-113089302D01*
X140972497Y-113086692D01*
X141111882Y-113043012D01*
X141125628Y-113036805D01*
X141249788Y-112961611D01*
X141261665Y-112952298D01*
X141364298Y-112849665D01*
X141373611Y-112837788D01*
X141448805Y-112713628D01*
X141455012Y-112699882D01*
X141498690Y-112560502D01*
X141501303Y-112547455D01*
X141502168Y-112538041D01*
X141499246Y-112523164D01*
X141487353Y-112520000D01*
X138553290Y-112520000D01*
X138538745Y-112524271D01*
X138536682Y-112536404D01*
X138537698Y-112547465D01*
X138540308Y-112560496D01*
X138583988Y-112699882D01*
X138590195Y-112713628D01*
X138665389Y-112837788D01*
X138674702Y-112849665D01*
X138777335Y-112952298D01*
X138789212Y-112961611D01*
X138913372Y-113036805D01*
X138927118Y-113043012D01*
X139066498Y-113086690D01*
X139079545Y-113089303D01*
X139138652Y-113094734D01*
X139144441Y-113095000D01*
X139496844Y-113095000D01*
X139564965Y-113115002D01*
X139611458Y-113168658D01*
X139621562Y-113238932D01*
X139592068Y-113303512D01*
X139548693Y-113335838D01*
X139545555Y-113337255D01*
X139538301Y-113339528D01*
X139531802Y-113343464D01*
X139531800Y-113343465D01*
X139474282Y-113378299D01*
X139391619Y-113428361D01*
X139270361Y-113549619D01*
X139266424Y-113556120D01*
X139257551Y-113570771D01*
X139205154Y-113618678D01*
X139149775Y-113631500D01*
X139045595Y-113631500D01*
X138977474Y-113611498D01*
X138956500Y-113594595D01*
X138010652Y-112648747D01*
X138003112Y-112640461D01*
X137999000Y-112633982D01*
X137949348Y-112587356D01*
X137946507Y-112584602D01*
X137727404Y-112365499D01*
X137693379Y-112303187D01*
X137690500Y-112276404D01*
X137690500Y-110835594D01*
X137710502Y-110767473D01*
X137727405Y-110746499D01*
X138365677Y-110108227D01*
X138427989Y-110074201D01*
X138498804Y-110079266D01*
G37*
%TD.AperFunction*%
%TA.AperFunction,Conductor*%
G36*
X169331525Y-108319502D02*
G01*
X169378018Y-108373158D01*
X169388122Y-108443432D01*
X169370664Y-108491616D01*
X169349293Y-108526286D01*
X169343149Y-108539464D01*
X169294395Y-108686452D01*
X169291529Y-108699817D01*
X169282328Y-108789625D01*
X169282000Y-108796042D01*
X169282000Y-108797885D01*
X169286475Y-108813124D01*
X169287865Y-108814329D01*
X169295548Y-108816000D01*
X171213885Y-108816000D01*
X171229124Y-108811525D01*
X171230329Y-108810135D01*
X171232000Y-108802452D01*
X171232000Y-108796091D01*
X171231663Y-108789572D01*
X171222222Y-108698587D01*
X171219330Y-108685193D01*
X171193855Y-108608838D01*
X171191269Y-108537889D01*
X171227453Y-108476804D01*
X171290917Y-108444979D01*
X171361512Y-108452517D01*
X171402473Y-108479865D01*
X171498721Y-108576112D01*
X171499650Y-108577050D01*
X171541999Y-108620295D01*
X171562771Y-108641507D01*
X171568690Y-108645322D01*
X171568698Y-108645328D01*
X171599214Y-108664994D01*
X171609559Y-108672427D01*
X171643443Y-108699476D01*
X171649782Y-108702540D01*
X171649783Y-108702541D01*
X171673637Y-108714072D01*
X171687054Y-108721601D01*
X171715238Y-108739765D01*
X171721855Y-108742173D01*
X171721860Y-108742176D01*
X171755973Y-108754592D01*
X171767716Y-108759553D01*
X171800400Y-108775353D01*
X171800409Y-108775356D01*
X171806749Y-108778421D01*
X171813614Y-108780006D01*
X171839428Y-108785966D01*
X171854168Y-108790332D01*
X171885685Y-108801803D01*
X171892670Y-108802685D01*
X171892677Y-108802687D01*
X171928692Y-108807237D01*
X171941243Y-108809472D01*
X171983485Y-108819225D01*
X171990529Y-108819250D01*
X171990533Y-108819250D01*
X172024074Y-108819367D01*
X172024943Y-108819396D01*
X172025769Y-108819500D01*
X172062133Y-108819500D01*
X172062573Y-108819501D01*
X172161336Y-108819846D01*
X172161342Y-108819846D01*
X172164870Y-108819858D01*
X172166073Y-108819589D01*
X172167717Y-108819500D01*
X172802389Y-108819500D01*
X172870510Y-108839502D01*
X172897625Y-108863001D01*
X173003250Y-108984938D01*
X173175126Y-109127632D01*
X173220284Y-109154020D01*
X173248445Y-109170476D01*
X173297169Y-109222114D01*
X173310240Y-109291897D01*
X173283509Y-109357669D01*
X173243055Y-109391027D01*
X173240222Y-109392502D01*
X173230607Y-109397507D01*
X173226474Y-109400610D01*
X173226471Y-109400612D01*
X173071770Y-109516765D01*
X173051965Y-109531635D01*
X172897629Y-109693138D01*
X172895632Y-109696065D01*
X172837603Y-109736148D01*
X172798102Y-109742500D01*
X172606214Y-109742500D01*
X172604894Y-109742493D01*
X172603819Y-109742482D01*
X172514779Y-109741549D01*
X172472403Y-109750711D01*
X172459837Y-109752769D01*
X172416745Y-109757603D01*
X172410094Y-109759919D01*
X172410090Y-109759920D01*
X172385070Y-109768633D01*
X172370257Y-109772796D01*
X172337490Y-109779881D01*
X172298187Y-109798208D01*
X172286411Y-109802990D01*
X172245448Y-109817255D01*
X172239473Y-109820989D01*
X172239470Y-109820990D01*
X172217005Y-109835027D01*
X172203488Y-109842366D01*
X172179486Y-109853559D01*
X172173098Y-109856538D01*
X172167533Y-109860855D01*
X172167531Y-109860856D01*
X172138847Y-109883106D01*
X172128388Y-109890402D01*
X172097596Y-109909642D01*
X172097593Y-109909644D01*
X172091624Y-109913374D01*
X172086629Y-109918334D01*
X172086628Y-109918335D01*
X172062821Y-109941976D01*
X172062196Y-109942561D01*
X172061530Y-109943078D01*
X172035540Y-109969068D01*
X171962918Y-110041185D01*
X171962260Y-110042222D01*
X171961157Y-110043451D01*
X171291842Y-110712766D01*
X171290987Y-110713614D01*
X171238507Y-110765006D01*
X171175844Y-110798375D01*
X171105085Y-110792569D01*
X171048698Y-110749430D01*
X171043206Y-110741284D01*
X170982895Y-110643822D01*
X170973868Y-110632433D01*
X170864579Y-110523334D01*
X170853168Y-110514322D01*
X170721714Y-110433293D01*
X170708536Y-110427149D01*
X170561548Y-110378395D01*
X170548183Y-110375529D01*
X170458375Y-110366328D01*
X170451958Y-110366000D01*
X170425115Y-110366000D01*
X170409876Y-110370475D01*
X170408671Y-110371865D01*
X170407000Y-110379548D01*
X170407000Y-111440000D01*
X170386998Y-111508121D01*
X170333342Y-111554614D01*
X170281000Y-111566000D01*
X169200115Y-111566000D01*
X169184876Y-111570475D01*
X169183671Y-111571865D01*
X169182000Y-111579548D01*
X169182000Y-111585909D01*
X169182337Y-111592428D01*
X169191778Y-111683413D01*
X169194671Y-111696808D01*
X169243677Y-111843695D01*
X169249846Y-111856866D01*
X169270472Y-111890197D01*
X169289310Y-111958649D01*
X169268149Y-112026418D01*
X169213708Y-112071990D01*
X169163328Y-112082500D01*
X169002879Y-112082500D01*
X168934758Y-112062498D01*
X168888265Y-112008842D01*
X168883356Y-111996377D01*
X168850870Y-111899007D01*
X168850869Y-111899005D01*
X168848550Y-111892054D01*
X168755478Y-111741652D01*
X168630303Y-111616695D01*
X168624072Y-111612854D01*
X168485968Y-111527725D01*
X168485966Y-111527724D01*
X168479738Y-111523885D01*
X168399995Y-111497436D01*
X168318389Y-111470368D01*
X168318387Y-111470368D01*
X168311861Y-111468203D01*
X168305025Y-111467503D01*
X168305022Y-111467502D01*
X168261969Y-111463091D01*
X168207400Y-111457500D01*
X167606600Y-111457500D01*
X167603354Y-111457837D01*
X167603350Y-111457837D01*
X167507692Y-111467762D01*
X167507688Y-111467763D01*
X167500834Y-111468474D01*
X167494298Y-111470655D01*
X167494296Y-111470655D01*
X167425031Y-111493764D01*
X167333054Y-111524450D01*
X167182652Y-111617522D01*
X167057695Y-111742697D01*
X167055094Y-111746916D01*
X166997970Y-111787417D01*
X166927047Y-111790649D01*
X166865635Y-111755024D01*
X166859079Y-111747472D01*
X166855478Y-111741652D01*
X166850292Y-111736475D01*
X166845751Y-111730746D01*
X166847424Y-111729420D01*
X166818402Y-111676375D01*
X166815500Y-111649489D01*
X166815500Y-111047885D01*
X169182000Y-111047885D01*
X169186475Y-111063124D01*
X169187865Y-111064329D01*
X169195548Y-111066000D01*
X169888885Y-111066000D01*
X169904124Y-111061525D01*
X169905329Y-111060135D01*
X169907000Y-111052452D01*
X169907000Y-110384115D01*
X169902525Y-110368876D01*
X169901135Y-110367671D01*
X169893452Y-110366000D01*
X169862091Y-110366000D01*
X169855572Y-110366337D01*
X169764587Y-110375778D01*
X169751192Y-110378671D01*
X169604305Y-110427677D01*
X169591141Y-110433843D01*
X169459822Y-110515105D01*
X169448433Y-110524132D01*
X169339334Y-110633421D01*
X169330322Y-110644832D01*
X169249293Y-110776286D01*
X169243149Y-110789464D01*
X169194395Y-110936452D01*
X169191529Y-110949817D01*
X169182328Y-111039625D01*
X169182000Y-111046042D01*
X169182000Y-111047885D01*
X166815500Y-111047885D01*
X166815500Y-110350214D01*
X166815507Y-110348894D01*
X166816377Y-110265826D01*
X166816451Y-110258779D01*
X166807289Y-110216403D01*
X166805230Y-110203832D01*
X166803649Y-110189732D01*
X166800397Y-110160745D01*
X166797647Y-110152846D01*
X166789367Y-110129070D01*
X166785204Y-110114258D01*
X166779609Y-110088381D01*
X166778119Y-110081490D01*
X166759792Y-110042187D01*
X166755010Y-110030411D01*
X166740745Y-109989448D01*
X166737010Y-109983470D01*
X166722973Y-109961005D01*
X166715634Y-109947488D01*
X166704441Y-109923486D01*
X166704440Y-109923485D01*
X166701462Y-109917098D01*
X166695679Y-109909642D01*
X166674894Y-109882847D01*
X166667598Y-109872388D01*
X166648358Y-109841596D01*
X166648356Y-109841593D01*
X166644626Y-109835624D01*
X166639665Y-109830628D01*
X166616024Y-109806821D01*
X166615439Y-109806196D01*
X166614922Y-109805530D01*
X166588932Y-109779540D01*
X166516815Y-109706918D01*
X166515778Y-109706260D01*
X166514549Y-109705157D01*
X166145301Y-109335909D01*
X169282000Y-109335909D01*
X169282337Y-109342428D01*
X169291778Y-109433413D01*
X169294671Y-109446808D01*
X169343677Y-109593695D01*
X169349843Y-109606859D01*
X169431105Y-109738178D01*
X169440132Y-109749567D01*
X169549421Y-109858666D01*
X169560832Y-109867678D01*
X169692286Y-109948707D01*
X169705464Y-109954851D01*
X169852452Y-110003605D01*
X169865817Y-110006471D01*
X169955625Y-110015672D01*
X169962041Y-110016000D01*
X169988885Y-110016000D01*
X170004124Y-110011525D01*
X170005329Y-110010135D01*
X170007000Y-110002451D01*
X170007000Y-109997885D01*
X170507000Y-109997885D01*
X170511475Y-110013124D01*
X170512865Y-110014329D01*
X170520548Y-110016000D01*
X170551909Y-110016000D01*
X170558428Y-110015663D01*
X170649413Y-110006222D01*
X170662808Y-110003329D01*
X170809695Y-109954323D01*
X170822859Y-109948157D01*
X170954178Y-109866895D01*
X170965567Y-109857868D01*
X171074666Y-109748579D01*
X171083678Y-109737168D01*
X171164707Y-109605714D01*
X171170851Y-109592536D01*
X171219605Y-109445548D01*
X171222471Y-109432183D01*
X171231673Y-109342364D01*
X171232000Y-109335959D01*
X171232000Y-109334115D01*
X171227525Y-109318876D01*
X171226135Y-109317671D01*
X171218452Y-109316000D01*
X170525115Y-109316000D01*
X170509876Y-109320475D01*
X170508671Y-109321865D01*
X170507000Y-109329548D01*
X170507000Y-109997885D01*
X170007000Y-109997885D01*
X170007000Y-109334115D01*
X170002525Y-109318876D01*
X170001135Y-109317671D01*
X169993452Y-109316000D01*
X169300115Y-109316000D01*
X169284876Y-109320475D01*
X169283671Y-109321865D01*
X169282000Y-109329548D01*
X169282000Y-109335909D01*
X166145301Y-109335909D01*
X166099234Y-109289842D01*
X166098306Y-109288905D01*
X166040157Y-109229525D01*
X166040156Y-109229524D01*
X166035229Y-109224493D01*
X165998779Y-109201002D01*
X165988454Y-109193583D01*
X165954557Y-109166524D01*
X165947727Y-109163222D01*
X165931850Y-109155547D01*
X165924362Y-109151927D01*
X165910945Y-109144398D01*
X165908942Y-109143107D01*
X165882762Y-109126235D01*
X165876145Y-109123827D01*
X165876140Y-109123824D01*
X165842027Y-109111408D01*
X165830284Y-109106447D01*
X165797597Y-109090646D01*
X165797592Y-109090644D01*
X165791251Y-109087579D01*
X165784393Y-109085996D01*
X165784391Y-109085995D01*
X165758574Y-109080035D01*
X165743825Y-109075666D01*
X165728312Y-109070020D01*
X165720047Y-109067011D01*
X165662877Y-109024915D01*
X165637541Y-108958593D01*
X165652083Y-108889102D01*
X165701887Y-108838504D01*
X165709887Y-108834420D01*
X165719803Y-108829797D01*
X165731589Y-108825010D01*
X165772552Y-108810745D01*
X165778527Y-108807011D01*
X165778530Y-108807010D01*
X165800995Y-108792973D01*
X165814512Y-108785634D01*
X165838514Y-108774441D01*
X165838515Y-108774440D01*
X165844902Y-108771462D01*
X165871357Y-108750941D01*
X165937442Y-108724994D01*
X165948584Y-108724500D01*
X166307400Y-108724500D01*
X166310646Y-108724163D01*
X166310650Y-108724163D01*
X166406308Y-108714238D01*
X166406312Y-108714237D01*
X166413166Y-108713526D01*
X166419702Y-108711345D01*
X166419704Y-108711345D01*
X166558634Y-108664994D01*
X166580946Y-108657550D01*
X166731348Y-108564478D01*
X166856305Y-108439303D01*
X166858906Y-108435084D01*
X166916030Y-108394583D01*
X166986953Y-108391351D01*
X167048365Y-108426976D01*
X167054922Y-108434530D01*
X167058522Y-108440348D01*
X167183697Y-108565305D01*
X167189927Y-108569145D01*
X167189928Y-108569146D01*
X167327090Y-108653694D01*
X167334262Y-108658115D01*
X167388582Y-108676132D01*
X167495611Y-108711632D01*
X167495613Y-108711632D01*
X167502139Y-108713797D01*
X167508975Y-108714497D01*
X167508978Y-108714498D01*
X167547991Y-108718495D01*
X167606600Y-108724500D01*
X168207400Y-108724500D01*
X168210646Y-108724163D01*
X168210650Y-108724163D01*
X168306308Y-108714238D01*
X168306312Y-108714237D01*
X168313166Y-108713526D01*
X168319702Y-108711345D01*
X168319704Y-108711345D01*
X168458634Y-108664994D01*
X168480946Y-108657550D01*
X168631348Y-108564478D01*
X168756305Y-108439303D01*
X168763904Y-108426976D01*
X168805568Y-108359384D01*
X168858340Y-108311891D01*
X168912828Y-108299500D01*
X169263404Y-108299500D01*
X169331525Y-108319502D01*
G37*
%TD.AperFunction*%
%TA.AperFunction,Conductor*%
G36*
X153845621Y-107144502D02*
G01*
X153892114Y-107198158D01*
X153903500Y-107250500D01*
X153903500Y-107407502D01*
X153903693Y-107409950D01*
X153903693Y-107409958D01*
X153905720Y-107435705D01*
X153906438Y-107444831D01*
X153952855Y-107604601D01*
X153956892Y-107611427D01*
X154033509Y-107740980D01*
X154033511Y-107740983D01*
X154037547Y-107747807D01*
X154155193Y-107865453D01*
X154162017Y-107869489D01*
X154162020Y-107869491D01*
X154251705Y-107922530D01*
X154298399Y-107950145D01*
X154306010Y-107952356D01*
X154306012Y-107952357D01*
X154353355Y-107966111D01*
X154458169Y-107996562D01*
X154464574Y-107997066D01*
X154464579Y-107997067D01*
X154493042Y-107999307D01*
X154493050Y-107999307D01*
X154495498Y-107999500D01*
X154928502Y-107999500D01*
X154930950Y-107999307D01*
X154930958Y-107999307D01*
X154959421Y-107997067D01*
X154959426Y-107997066D01*
X154965831Y-107996562D01*
X155070645Y-107966111D01*
X155117988Y-107952357D01*
X155117990Y-107952356D01*
X155125601Y-107950145D01*
X155268807Y-107865453D01*
X155271489Y-107862771D01*
X155335861Y-107837498D01*
X155405484Y-107851400D01*
X155421312Y-107861572D01*
X155425193Y-107865453D01*
X155568399Y-107950145D01*
X155576010Y-107952356D01*
X155576012Y-107952357D01*
X155623355Y-107966111D01*
X155728169Y-107996562D01*
X155734574Y-107997066D01*
X155734579Y-107997067D01*
X155763042Y-107999307D01*
X155763050Y-107999307D01*
X155765498Y-107999500D01*
X156198502Y-107999500D01*
X156200950Y-107999307D01*
X156200958Y-107999307D01*
X156229421Y-107997067D01*
X156229426Y-107997066D01*
X156235831Y-107996562D01*
X156340645Y-107966111D01*
X156387988Y-107952357D01*
X156387990Y-107952356D01*
X156395601Y-107950145D01*
X156538807Y-107865453D01*
X156541489Y-107862771D01*
X156605861Y-107837498D01*
X156675484Y-107851400D01*
X156691312Y-107861572D01*
X156695193Y-107865453D01*
X156838399Y-107950145D01*
X156846010Y-107952356D01*
X156846012Y-107952357D01*
X156893355Y-107966111D01*
X156998169Y-107996562D01*
X157004574Y-107997066D01*
X157004579Y-107997067D01*
X157033042Y-107999307D01*
X157033050Y-107999307D01*
X157035498Y-107999500D01*
X157468502Y-107999500D01*
X157470950Y-107999307D01*
X157470958Y-107999307D01*
X157499421Y-107997067D01*
X157499426Y-107997066D01*
X157505831Y-107996562D01*
X157610645Y-107966111D01*
X157657988Y-107952357D01*
X157657990Y-107952356D01*
X157665601Y-107950145D01*
X157750213Y-107900106D01*
X157819027Y-107882647D01*
X157886359Y-107905164D01*
X157930828Y-107960508D01*
X157932067Y-107964045D01*
X157933771Y-107967984D01*
X157935982Y-107975593D01*
X157940015Y-107982412D01*
X157940017Y-107982417D01*
X157946293Y-107993028D01*
X157954988Y-108010776D01*
X157962448Y-108029617D01*
X157967110Y-108036033D01*
X157967110Y-108036034D01*
X157988436Y-108065387D01*
X157994952Y-108075307D01*
X158012935Y-108105714D01*
X158017458Y-108113362D01*
X158031779Y-108127683D01*
X158044619Y-108142716D01*
X158056528Y-108159107D01*
X158082974Y-108180985D01*
X158090593Y-108187288D01*
X158099374Y-108195278D01*
X158500353Y-108596258D01*
X158507887Y-108604537D01*
X158512000Y-108611018D01*
X158543089Y-108640212D01*
X158561651Y-108657643D01*
X158564493Y-108660398D01*
X158584230Y-108680135D01*
X158587427Y-108682615D01*
X158596447Y-108690318D01*
X158628679Y-108720586D01*
X158635625Y-108724405D01*
X158635628Y-108724407D01*
X158646434Y-108730348D01*
X158662953Y-108741199D01*
X158678959Y-108753614D01*
X158686228Y-108756759D01*
X158686232Y-108756762D01*
X158719537Y-108771174D01*
X158730187Y-108776391D01*
X158768940Y-108797695D01*
X158788383Y-108802687D01*
X158788562Y-108802733D01*
X158807266Y-108809137D01*
X158816480Y-108813124D01*
X158825855Y-108817181D01*
X158833678Y-108818420D01*
X158833688Y-108818423D01*
X158869524Y-108824099D01*
X158881144Y-108826505D01*
X158916289Y-108835528D01*
X158923970Y-108837500D01*
X158944224Y-108837500D01*
X158963934Y-108839051D01*
X158983943Y-108842220D01*
X158991835Y-108841474D01*
X159027961Y-108838059D01*
X159039819Y-108837500D01*
X159311800Y-108837500D01*
X159379921Y-108857502D01*
X159399147Y-108873843D01*
X159399420Y-108873540D01*
X159404332Y-108877963D01*
X159408747Y-108882866D01*
X159414120Y-108886770D01*
X159556178Y-108989981D01*
X159563248Y-108995118D01*
X159569276Y-108997802D01*
X159569278Y-108997803D01*
X159722531Y-109066035D01*
X159737712Y-109072794D01*
X159831113Y-109092647D01*
X159918056Y-109111128D01*
X159918061Y-109111128D01*
X159924513Y-109112500D01*
X160115487Y-109112500D01*
X160121939Y-109111128D01*
X160121944Y-109111128D01*
X160208888Y-109092647D01*
X160302288Y-109072794D01*
X160317469Y-109066035D01*
X160470722Y-108997803D01*
X160470724Y-108997802D01*
X160476752Y-108995118D01*
X160483823Y-108989981D01*
X160596630Y-108908021D01*
X160631253Y-108882866D01*
X160729637Y-108773599D01*
X160790082Y-108736361D01*
X160861066Y-108737713D01*
X160897963Y-108757352D01*
X160897978Y-108757328D01*
X160898313Y-108757539D01*
X160901876Y-108759436D01*
X160909443Y-108765476D01*
X160915784Y-108768541D01*
X160915785Y-108768542D01*
X160927988Y-108774441D01*
X160936222Y-108778421D01*
X160939637Y-108780072D01*
X160953054Y-108787601D01*
X160981238Y-108805765D01*
X160987855Y-108808173D01*
X160987860Y-108808176D01*
X161021973Y-108820592D01*
X161033716Y-108825553D01*
X161066403Y-108841354D01*
X161066408Y-108841356D01*
X161072749Y-108844421D01*
X161079613Y-108846006D01*
X161079614Y-108846006D01*
X161100297Y-108850782D01*
X161162172Y-108885596D01*
X161195402Y-108948336D01*
X161189437Y-109019081D01*
X161146172Y-109075372D01*
X161125199Y-109087747D01*
X161094197Y-109102203D01*
X161082406Y-109106992D01*
X161041448Y-109121255D01*
X161031243Y-109127632D01*
X161013016Y-109139021D01*
X160999499Y-109146360D01*
X160975481Y-109157560D01*
X160975477Y-109157562D01*
X160969098Y-109160537D01*
X160963534Y-109164853D01*
X160963532Y-109164854D01*
X160934840Y-109187109D01*
X160924385Y-109194403D01*
X160887624Y-109217374D01*
X160882627Y-109222336D01*
X160882626Y-109222337D01*
X160858821Y-109245976D01*
X160858196Y-109246561D01*
X160857530Y-109247078D01*
X160831540Y-109273068D01*
X160758918Y-109345185D01*
X160758260Y-109346222D01*
X160757157Y-109347451D01*
X160496842Y-109607766D01*
X160495905Y-109608694D01*
X160431493Y-109671771D01*
X160408002Y-109708221D01*
X160400583Y-109718546D01*
X160373524Y-109752443D01*
X160370459Y-109758784D01*
X160370458Y-109758785D01*
X160368837Y-109762139D01*
X160360981Y-109778391D01*
X160358928Y-109782637D01*
X160351399Y-109796054D01*
X160333235Y-109824238D01*
X160330827Y-109830855D01*
X160330824Y-109830860D01*
X160318408Y-109864973D01*
X160313447Y-109876716D01*
X160297646Y-109909403D01*
X160297644Y-109909408D01*
X160294579Y-109915749D01*
X160292995Y-109922609D01*
X160290654Y-109929257D01*
X160288472Y-109928489D01*
X160259036Y-109980821D01*
X160196301Y-110014060D01*
X160135916Y-110011609D01*
X160052011Y-109987233D01*
X160052007Y-109987232D01*
X160045831Y-109985438D01*
X160039426Y-109984934D01*
X160039421Y-109984933D01*
X160010958Y-109982693D01*
X160010950Y-109982693D01*
X160008502Y-109982500D01*
X159575498Y-109982500D01*
X159573050Y-109982693D01*
X159573042Y-109982693D01*
X159544579Y-109984933D01*
X159544574Y-109984934D01*
X159538169Y-109985438D01*
X159448376Y-110011525D01*
X159386012Y-110029643D01*
X159386010Y-110029644D01*
X159378399Y-110031855D01*
X159235193Y-110116547D01*
X159232511Y-110119229D01*
X159168139Y-110144502D01*
X159098516Y-110130600D01*
X159082688Y-110120428D01*
X159078807Y-110116547D01*
X158935601Y-110031855D01*
X158927990Y-110029644D01*
X158927988Y-110029643D01*
X158865624Y-110011525D01*
X158775831Y-109985438D01*
X158769426Y-109984934D01*
X158769421Y-109984933D01*
X158740958Y-109982693D01*
X158740950Y-109982693D01*
X158738502Y-109982500D01*
X158305498Y-109982500D01*
X158303050Y-109982693D01*
X158303042Y-109982693D01*
X158274579Y-109984933D01*
X158274574Y-109984934D01*
X158268169Y-109985438D01*
X158178376Y-110011525D01*
X158116012Y-110029643D01*
X158116010Y-110029644D01*
X158108399Y-110031855D01*
X157965193Y-110116547D01*
X157959589Y-110122151D01*
X157957235Y-110123977D01*
X157891149Y-110149924D01*
X157821527Y-110136022D01*
X157802781Y-110123975D01*
X157796725Y-110119277D01*
X157669024Y-110043755D01*
X157654585Y-110037506D01*
X157513471Y-109996509D01*
X157504969Y-109998295D01*
X157502000Y-110009756D01*
X157502000Y-111615000D01*
X157481998Y-111683121D01*
X157428342Y-111729614D01*
X157376000Y-111741000D01*
X157128000Y-111741000D01*
X157059879Y-111720998D01*
X157013386Y-111667342D01*
X157002000Y-111615000D01*
X157002000Y-110011819D01*
X156997656Y-109997024D01*
X156992122Y-109996046D01*
X156849415Y-110037506D01*
X156834982Y-110043752D01*
X156737474Y-110101418D01*
X156668658Y-110118877D01*
X156601326Y-110096360D01*
X156564884Y-110057107D01*
X156557708Y-110044974D01*
X156549012Y-110027224D01*
X156541552Y-110008383D01*
X156534041Y-109998044D01*
X156515564Y-109972613D01*
X156509048Y-109962693D01*
X156490580Y-109931465D01*
X156490578Y-109931462D01*
X156486542Y-109924638D01*
X156472221Y-109910317D01*
X156459380Y-109895283D01*
X156452132Y-109885307D01*
X156447472Y-109878893D01*
X156413407Y-109850712D01*
X156404626Y-109842722D01*
X155960647Y-109398742D01*
X155953113Y-109390463D01*
X155949000Y-109383982D01*
X155899348Y-109337356D01*
X155896507Y-109334602D01*
X155876770Y-109314865D01*
X155873573Y-109312385D01*
X155864551Y-109304680D01*
X155853558Y-109294357D01*
X155832321Y-109274414D01*
X155825375Y-109270595D01*
X155825372Y-109270593D01*
X155814566Y-109264652D01*
X155798047Y-109253801D01*
X155797583Y-109253441D01*
X155782041Y-109241386D01*
X155774772Y-109238241D01*
X155774768Y-109238238D01*
X155741463Y-109223826D01*
X155730813Y-109218609D01*
X155692060Y-109197305D01*
X155672437Y-109192267D01*
X155653734Y-109185863D01*
X155642420Y-109180967D01*
X155642419Y-109180967D01*
X155635145Y-109177819D01*
X155627322Y-109176580D01*
X155627312Y-109176577D01*
X155591476Y-109170901D01*
X155579856Y-109168495D01*
X155544711Y-109159472D01*
X155544710Y-109159472D01*
X155537030Y-109157500D01*
X155516776Y-109157500D01*
X155497065Y-109155949D01*
X155484886Y-109154020D01*
X155477057Y-109152780D01*
X155447786Y-109155547D01*
X155433039Y-109156941D01*
X155421181Y-109157500D01*
X154235767Y-109157500D01*
X154224584Y-109156973D01*
X154217091Y-109155298D01*
X154209165Y-109155547D01*
X154209164Y-109155547D01*
X154149001Y-109157438D01*
X154145043Y-109157500D01*
X154117144Y-109157500D01*
X154113154Y-109158004D01*
X154101320Y-109158936D01*
X154057111Y-109160326D01*
X154049500Y-109162537D01*
X154049496Y-109162538D01*
X154047143Y-109163222D01*
X154045213Y-109163217D01*
X154041669Y-109163778D01*
X154041578Y-109163206D01*
X153976147Y-109163023D01*
X153916529Y-109124472D01*
X153886657Y-109055230D01*
X153880599Y-108996838D01*
X153880598Y-108996833D01*
X153879887Y-108989981D01*
X153852543Y-108908021D01*
X153828073Y-108834676D01*
X153828072Y-108834674D01*
X153825756Y-108827732D01*
X153820884Y-108819858D01*
X153739606Y-108688515D01*
X153735752Y-108682287D01*
X153728565Y-108675112D01*
X153619882Y-108566619D01*
X153614702Y-108561448D01*
X153579923Y-108540010D01*
X153470232Y-108472395D01*
X153422739Y-108419623D01*
X153411315Y-108349551D01*
X153439589Y-108284427D01*
X153447176Y-108276116D01*
X153474666Y-108248579D01*
X153483678Y-108237168D01*
X153564707Y-108105714D01*
X153570851Y-108092536D01*
X153619605Y-107945548D01*
X153622471Y-107932183D01*
X153631672Y-107842375D01*
X153632000Y-107835959D01*
X153632000Y-107834115D01*
X153627525Y-107818876D01*
X153626135Y-107817671D01*
X153618452Y-107816000D01*
X151700115Y-107816000D01*
X151684876Y-107820475D01*
X151679494Y-107826686D01*
X151619768Y-107865070D01*
X151548771Y-107865070D01*
X151495174Y-107833269D01*
X151290479Y-107628574D01*
X151256453Y-107566262D01*
X151261518Y-107495447D01*
X151304065Y-107438611D01*
X151339695Y-107419956D01*
X151370268Y-107409756D01*
X151377901Y-107405033D01*
X151509490Y-107323603D01*
X151509491Y-107323603D01*
X151515713Y-107319752D01*
X151520881Y-107314575D01*
X151526396Y-107310204D01*
X151592206Y-107283568D01*
X151661970Y-107296740D01*
X151687171Y-107313727D01*
X151687866Y-107314329D01*
X151695548Y-107316000D01*
X153613885Y-107316000D01*
X153629124Y-107311525D01*
X153630329Y-107310135D01*
X153632000Y-107302452D01*
X153632000Y-107296091D01*
X153631662Y-107289570D01*
X153628958Y-107263502D01*
X153641823Y-107193681D01*
X153690395Y-107141900D01*
X153754285Y-107124500D01*
X153777500Y-107124500D01*
X153845621Y-107144502D01*
G37*
%TD.AperFunction*%
%TA.AperFunction,Conductor*%
G36*
X147615621Y-106235002D02*
G01*
X147662114Y-106288658D01*
X147673500Y-106341000D01*
X147673500Y-106690050D01*
X147672973Y-106701233D01*
X147671298Y-106708726D01*
X147671547Y-106716652D01*
X147671547Y-106716653D01*
X147673438Y-106776803D01*
X147673500Y-106780762D01*
X147673500Y-106808673D01*
X147673997Y-106812607D01*
X147673997Y-106812608D01*
X147674005Y-106812673D01*
X147674938Y-106824510D01*
X147675771Y-106851027D01*
X147676073Y-106860612D01*
X147676327Y-106868706D01*
X147679260Y-106878800D01*
X147681978Y-106888156D01*
X147685987Y-106907517D01*
X147688526Y-106927614D01*
X147691445Y-106934985D01*
X147691445Y-106934987D01*
X147704804Y-106968729D01*
X147708649Y-106979959D01*
X147718771Y-107014800D01*
X147720982Y-107022410D01*
X147725015Y-107029229D01*
X147725017Y-107029234D01*
X147731293Y-107039845D01*
X147739988Y-107057593D01*
X147747448Y-107076434D01*
X147752109Y-107082850D01*
X147752111Y-107082853D01*
X147757936Y-107090870D01*
X147782000Y-107164931D01*
X147782000Y-107421885D01*
X147786475Y-107437124D01*
X147787865Y-107438329D01*
X147795548Y-107440000D01*
X147801909Y-107440000D01*
X147808428Y-107439663D01*
X147899413Y-107430222D01*
X147912806Y-107427330D01*
X147956493Y-107412755D01*
X148027442Y-107410171D01*
X148085463Y-107443184D01*
X148439777Y-107797498D01*
X148473803Y-107859810D01*
X148468738Y-107930625D01*
X148426191Y-107987461D01*
X148416999Y-107993728D01*
X148348287Y-108036248D01*
X148343114Y-108041430D01*
X148337380Y-108045975D01*
X148335858Y-108044055D01*
X148283794Y-108072545D01*
X148212974Y-108067544D01*
X148176448Y-108044118D01*
X148175628Y-108045157D01*
X148169882Y-108040619D01*
X148164702Y-108035448D01*
X148158471Y-108031607D01*
X148025331Y-107949538D01*
X148025329Y-107949537D01*
X148019101Y-107945698D01*
X147856757Y-107891851D01*
X147849920Y-107891151D01*
X147849918Y-107891150D01*
X147808599Y-107886917D01*
X147755732Y-107881500D01*
X147208268Y-107881500D01*
X147205022Y-107881837D01*
X147205018Y-107881837D01*
X147170917Y-107885375D01*
X147105981Y-107892113D01*
X147088069Y-107898089D01*
X146950676Y-107943927D01*
X146950674Y-107943928D01*
X146943732Y-107946244D01*
X146937508Y-107950096D01*
X146937507Y-107950096D01*
X146868130Y-107993028D01*
X146798287Y-108036248D01*
X146793114Y-108041430D01*
X146749480Y-108085140D01*
X146687197Y-108119219D01*
X146616377Y-108114216D01*
X146559505Y-108071719D01*
X146540073Y-108033802D01*
X146539376Y-108031576D01*
X146535543Y-108019346D01*
X146530489Y-108011000D01*
X146471928Y-107914306D01*
X146451411Y-107880428D01*
X146336572Y-107765589D01*
X146330079Y-107761657D01*
X146330073Y-107761652D01*
X146206136Y-107686594D01*
X146198334Y-107681869D01*
X146150427Y-107629472D01*
X146138454Y-107559492D01*
X146166215Y-107494148D01*
X146224897Y-107454186D01*
X146255733Y-107448510D01*
X146255732Y-107448500D01*
X146358019Y-107437887D01*
X146392737Y-107426304D01*
X146513324Y-107386073D01*
X146513326Y-107386072D01*
X146520268Y-107383756D01*
X146528195Y-107378851D01*
X146659485Y-107297606D01*
X146665713Y-107293752D01*
X146673929Y-107285521D01*
X146676524Y-107284101D01*
X146676623Y-107284023D01*
X146676636Y-107284040D01*
X146736210Y-107251440D01*
X146807030Y-107256440D01*
X146842722Y-107279335D01*
X146843675Y-107278128D01*
X146860832Y-107291678D01*
X146992286Y-107372707D01*
X147005464Y-107378851D01*
X147152452Y-107427605D01*
X147165817Y-107430471D01*
X147255625Y-107439672D01*
X147262041Y-107440000D01*
X147263885Y-107440000D01*
X147279124Y-107435525D01*
X147280329Y-107434135D01*
X147282000Y-107426452D01*
X147282000Y-106341000D01*
X147302002Y-106272879D01*
X147355658Y-106226386D01*
X147408000Y-106215000D01*
X147547500Y-106215000D01*
X147615621Y-106235002D01*
G37*
%TD.AperFunction*%
%TA.AperFunction,Conductor*%
G36*
X136409544Y-103545514D02*
G01*
X138461121Y-105597091D01*
X138495147Y-105659403D01*
X138490082Y-105730218D01*
X138476458Y-105754514D01*
X138477100Y-105754903D01*
X138393266Y-105893329D01*
X138387060Y-105907073D01*
X138340668Y-106055112D01*
X138338055Y-106068162D01*
X138332266Y-106131162D01*
X138332000Y-106136950D01*
X138332000Y-106196885D01*
X138336475Y-106212124D01*
X138337865Y-106213329D01*
X138345548Y-106215000D01*
X139356000Y-106215000D01*
X139424121Y-106235002D01*
X139470614Y-106288658D01*
X139482000Y-106341000D01*
X139482000Y-106589000D01*
X139461998Y-106657121D01*
X139408342Y-106703614D01*
X139356000Y-106715000D01*
X138333946Y-106715000D01*
X138265825Y-106694998D01*
X138244851Y-106678095D01*
X137228205Y-105661448D01*
X135805405Y-104238648D01*
X135771379Y-104176336D01*
X135768500Y-104149553D01*
X135768500Y-103919575D01*
X135788502Y-103851454D01*
X135842158Y-103804961D01*
X135880892Y-103794312D01*
X135881963Y-103794196D01*
X135895316Y-103792745D01*
X136031705Y-103741615D01*
X136148261Y-103654261D01*
X136219623Y-103559043D01*
X136276483Y-103516529D01*
X136347301Y-103511504D01*
X136409544Y-103545514D01*
G37*
%TD.AperFunction*%
%TA.AperFunction,Conductor*%
G36*
X151184159Y-98467205D02*
G01*
X151237482Y-98514080D01*
X151257000Y-98581442D01*
X151257000Y-98722885D01*
X151261475Y-98738124D01*
X151262865Y-98739329D01*
X151270548Y-98741000D01*
X153543500Y-98741000D01*
X153611621Y-98761002D01*
X153658114Y-98814658D01*
X153669500Y-98867000D01*
X153669500Y-100272884D01*
X153673975Y-100288123D01*
X153675365Y-100289328D01*
X153683048Y-100290999D01*
X154878567Y-100290999D01*
X154885087Y-100290661D01*
X154979560Y-100280860D01*
X154992957Y-100277967D01*
X155149623Y-100225699D01*
X155220573Y-100223114D01*
X155281657Y-100259297D01*
X155313482Y-100322761D01*
X155315500Y-100345222D01*
X155315500Y-101956500D01*
X155315860Y-101959846D01*
X155315860Y-101959851D01*
X155323460Y-102030539D01*
X155327234Y-102065649D01*
X155327952Y-102068949D01*
X155327952Y-102068950D01*
X155336336Y-102107490D01*
X155338620Y-102117991D01*
X155373290Y-102222157D01*
X155452308Y-102345112D01*
X155498801Y-102398768D01*
X155502194Y-102401708D01*
X155602450Y-102488581D01*
X155602453Y-102488583D01*
X155609261Y-102494482D01*
X155742210Y-102555198D01*
X155765964Y-102562173D01*
X155806008Y-102573931D01*
X155806012Y-102573932D01*
X155810331Y-102575200D01*
X155814780Y-102575840D01*
X155814786Y-102575841D01*
X155950553Y-102595361D01*
X155950558Y-102595361D01*
X155955000Y-102596000D01*
X155985270Y-102596000D01*
X156011466Y-102598753D01*
X156066784Y-102610511D01*
X156091831Y-102618649D01*
X156143486Y-102641647D01*
X156166297Y-102654817D01*
X156175819Y-102661735D01*
X156212052Y-102688060D01*
X156231626Y-102705686D01*
X156269460Y-102747705D01*
X156284943Y-102769015D01*
X156313216Y-102817985D01*
X156323929Y-102842046D01*
X156329678Y-102859737D01*
X156342269Y-102898488D01*
X156347339Y-102920836D01*
X156348463Y-102929294D01*
X156348597Y-102930125D01*
X156348600Y-102930148D01*
X156349612Y-102936438D01*
X156350652Y-102942907D01*
X156355876Y-102970541D01*
X156357749Y-102975563D01*
X156357750Y-102975566D01*
X156402423Y-103095334D01*
X156406954Y-103107482D01*
X156409109Y-103111429D01*
X156409112Y-103111435D01*
X156417662Y-103127094D01*
X156432753Y-103196468D01*
X156407941Y-103262988D01*
X156396247Y-103276496D01*
X156389334Y-103283421D01*
X156380322Y-103294832D01*
X156299293Y-103426286D01*
X156293149Y-103439464D01*
X156244395Y-103586452D01*
X156241529Y-103599816D01*
X156233247Y-103680651D01*
X156206405Y-103746378D01*
X156148290Y-103787160D01*
X156077353Y-103790048D01*
X156018808Y-103756903D01*
X155560652Y-103298747D01*
X155553112Y-103290461D01*
X155549000Y-103283982D01*
X155526644Y-103262988D01*
X155499349Y-103237357D01*
X155496507Y-103234602D01*
X155476770Y-103214865D01*
X155473573Y-103212385D01*
X155464551Y-103204680D01*
X155438100Y-103179841D01*
X155432321Y-103174414D01*
X155425375Y-103170595D01*
X155425372Y-103170593D01*
X155414566Y-103164652D01*
X155398047Y-103153801D01*
X155389851Y-103147444D01*
X155382041Y-103141386D01*
X155374772Y-103138241D01*
X155374768Y-103138238D01*
X155341463Y-103123826D01*
X155330813Y-103118609D01*
X155292060Y-103097305D01*
X155272437Y-103092267D01*
X155253734Y-103085863D01*
X155242420Y-103080967D01*
X155242419Y-103080967D01*
X155235145Y-103077819D01*
X155227322Y-103076580D01*
X155227312Y-103076577D01*
X155191476Y-103070901D01*
X155179856Y-103068495D01*
X155144711Y-103059472D01*
X155144710Y-103059472D01*
X155137030Y-103057500D01*
X155116776Y-103057500D01*
X155097065Y-103055949D01*
X155090108Y-103054847D01*
X155077057Y-103052780D01*
X155069165Y-103053526D01*
X155033039Y-103056941D01*
X155021181Y-103057500D01*
X154964225Y-103057500D01*
X154896104Y-103037498D01*
X154856449Y-102996771D01*
X154847576Y-102982120D01*
X154843639Y-102975619D01*
X154722381Y-102854361D01*
X154575699Y-102765528D01*
X154568452Y-102763257D01*
X154568450Y-102763256D01*
X154502164Y-102742483D01*
X154412062Y-102714247D01*
X154338635Y-102707500D01*
X154335737Y-102707500D01*
X154081335Y-102707501D01*
X153825366Y-102707501D01*
X153822508Y-102707764D01*
X153822499Y-102707764D01*
X153786996Y-102711026D01*
X153751938Y-102714247D01*
X153745560Y-102716246D01*
X153745559Y-102716246D01*
X153595550Y-102763256D01*
X153595548Y-102763257D01*
X153588301Y-102765528D01*
X153441619Y-102854361D01*
X153346095Y-102949885D01*
X153283783Y-102983911D01*
X153212968Y-102978846D01*
X153167905Y-102949885D01*
X153072381Y-102854361D01*
X152925699Y-102765528D01*
X152918452Y-102763257D01*
X152918450Y-102763256D01*
X152852164Y-102742483D01*
X152762062Y-102714247D01*
X152688635Y-102707500D01*
X152685737Y-102707500D01*
X152431335Y-102707501D01*
X152175366Y-102707501D01*
X152172508Y-102707764D01*
X152172499Y-102707764D01*
X152136996Y-102711026D01*
X152101938Y-102714247D01*
X152095560Y-102716246D01*
X152095559Y-102716246D01*
X151945550Y-102763256D01*
X151945548Y-102763257D01*
X151938301Y-102765528D01*
X151791619Y-102854361D01*
X151670361Y-102975619D01*
X151581528Y-103122301D01*
X151579257Y-103129548D01*
X151579256Y-103129550D01*
X151566394Y-103170593D01*
X151530247Y-103285938D01*
X151523500Y-103359365D01*
X151523501Y-103529884D01*
X151523501Y-103651405D01*
X151503499Y-103719525D01*
X151486596Y-103740500D01*
X150959285Y-104267810D01*
X150439747Y-104787348D01*
X150431461Y-104794888D01*
X150424982Y-104799000D01*
X150419557Y-104804777D01*
X150378357Y-104848651D01*
X150375602Y-104851493D01*
X150355865Y-104871230D01*
X150353385Y-104874427D01*
X150345682Y-104883447D01*
X150315414Y-104915679D01*
X150311595Y-104922625D01*
X150311593Y-104922628D01*
X150305652Y-104933434D01*
X150294801Y-104949953D01*
X150282386Y-104965959D01*
X150279241Y-104973228D01*
X150279238Y-104973232D01*
X150264826Y-105006537D01*
X150259604Y-105017197D01*
X150253857Y-105027651D01*
X150203512Y-105077710D01*
X150134096Y-105092604D01*
X150067646Y-105067604D01*
X150054347Y-105056046D01*
X148297048Y-103298747D01*
X148289508Y-103290461D01*
X148285396Y-103283982D01*
X148263040Y-103262988D01*
X148235745Y-103237357D01*
X148232903Y-103234602D01*
X148213166Y-103214865D01*
X148209969Y-103212385D01*
X148200947Y-103204680D01*
X148174496Y-103179841D01*
X148168717Y-103174414D01*
X148161771Y-103170595D01*
X148161768Y-103170593D01*
X148150962Y-103164652D01*
X148134443Y-103153801D01*
X148126247Y-103147444D01*
X148118437Y-103141386D01*
X148111168Y-103138241D01*
X148111164Y-103138238D01*
X148077859Y-103123826D01*
X148067209Y-103118609D01*
X148042799Y-103105190D01*
X147992741Y-103054847D01*
X147977500Y-102994776D01*
X147977500Y-102268594D01*
X147997502Y-102200473D01*
X148014405Y-102179499D01*
X150379247Y-99814657D01*
X150387537Y-99807113D01*
X150394018Y-99803000D01*
X150440659Y-99753332D01*
X150443413Y-99750491D01*
X150463134Y-99730770D01*
X150465612Y-99727575D01*
X150473318Y-99718553D01*
X150498158Y-99692101D01*
X150503586Y-99686321D01*
X150513346Y-99668568D01*
X150524199Y-99652045D01*
X150531753Y-99642306D01*
X150536613Y-99636041D01*
X150554176Y-99595457D01*
X150558041Y-99587567D01*
X151257001Y-99587567D01*
X151257339Y-99594087D01*
X151267140Y-99688560D01*
X151270031Y-99701951D01*
X151320882Y-99854368D01*
X151327056Y-99867547D01*
X151411374Y-100003804D01*
X151420410Y-100015205D01*
X151533821Y-100128418D01*
X151545232Y-100137430D01*
X151681646Y-100221516D01*
X151694827Y-100227663D01*
X151847343Y-100278251D01*
X151860719Y-100281118D01*
X151953966Y-100290672D01*
X151960382Y-100291000D01*
X153151385Y-100291000D01*
X153166624Y-100286525D01*
X153167829Y-100285135D01*
X153169500Y-100277452D01*
X153169500Y-99259115D01*
X153165025Y-99243876D01*
X153163635Y-99242671D01*
X153155952Y-99241000D01*
X151275116Y-99241000D01*
X151259877Y-99245475D01*
X151258672Y-99246865D01*
X151257001Y-99254548D01*
X151257001Y-99587567D01*
X150558041Y-99587567D01*
X150559383Y-99584827D01*
X150580695Y-99546060D01*
X150582666Y-99538383D01*
X150582668Y-99538378D01*
X150585732Y-99526442D01*
X150592138Y-99507730D01*
X150597034Y-99496417D01*
X150600181Y-99489145D01*
X150601885Y-99478390D01*
X150607097Y-99445481D01*
X150609504Y-99433860D01*
X150618528Y-99398711D01*
X150618528Y-99398710D01*
X150620500Y-99391030D01*
X150620500Y-99370769D01*
X150622051Y-99351058D01*
X150623979Y-99338885D01*
X150625219Y-99331057D01*
X150621059Y-99287046D01*
X150620500Y-99275189D01*
X150620500Y-98860566D01*
X150640502Y-98792445D01*
X150680665Y-98753133D01*
X150872202Y-98635759D01*
X150872208Y-98635755D01*
X150876416Y-98633176D01*
X150880176Y-98629965D01*
X150880182Y-98629961D01*
X151049170Y-98485631D01*
X151113959Y-98456600D01*
X151184159Y-98467205D01*
G37*
%TD.AperFunction*%
%TA.AperFunction,Conductor*%
G36*
X139910835Y-103585776D02*
G01*
X139922514Y-103599255D01*
X139963739Y-103654261D01*
X140080295Y-103741615D01*
X140216684Y-103792745D01*
X140278866Y-103799500D01*
X141467406Y-103799500D01*
X141535527Y-103819502D01*
X141556501Y-103836405D01*
X141961501Y-104241405D01*
X141995527Y-104303717D01*
X141990462Y-104374532D01*
X141947915Y-104431368D01*
X141881395Y-104456179D01*
X141872406Y-104456500D01*
X139376660Y-104456500D01*
X139308539Y-104436498D01*
X139287565Y-104419595D01*
X138874065Y-104006095D01*
X138840039Y-103943783D01*
X138845104Y-103872968D01*
X138887651Y-103816132D01*
X138954171Y-103791321D01*
X138963160Y-103791000D01*
X139370915Y-103791000D01*
X139377729Y-103790631D01*
X139427621Y-103785211D01*
X139442867Y-103781586D01*
X139561177Y-103737233D01*
X139576763Y-103728701D01*
X139677009Y-103653570D01*
X139689572Y-103641007D01*
X139720864Y-103599255D01*
X139777723Y-103556740D01*
X139848542Y-103551716D01*
X139910835Y-103585776D01*
G37*
%TD.AperFunction*%
%TA.AperFunction,Conductor*%
G36*
X149090085Y-95978502D02*
G01*
X149136578Y-96032158D01*
X149146682Y-96102432D01*
X149117188Y-96167012D01*
X149098182Y-96184457D01*
X149097584Y-96184824D01*
X148917031Y-96339031D01*
X148913823Y-96342787D01*
X148911874Y-96345069D01*
X148762824Y-96519584D01*
X148760245Y-96523792D01*
X148760241Y-96523798D01*
X148694635Y-96630858D01*
X148638760Y-96722037D01*
X148636867Y-96726607D01*
X148636865Y-96726611D01*
X148553556Y-96927739D01*
X148547895Y-96941406D01*
X148531998Y-97007621D01*
X148496976Y-97153500D01*
X148492465Y-97172289D01*
X148473835Y-97409000D01*
X148492465Y-97645711D01*
X148493619Y-97650518D01*
X148493620Y-97650524D01*
X148513658Y-97733987D01*
X148547895Y-97876594D01*
X148549788Y-97881165D01*
X148549789Y-97881167D01*
X148568113Y-97925404D01*
X148638760Y-98095963D01*
X148641346Y-98100183D01*
X148760241Y-98294202D01*
X148760245Y-98294208D01*
X148762824Y-98298416D01*
X148917031Y-98478969D01*
X149097584Y-98633176D01*
X149101792Y-98635755D01*
X149101798Y-98635759D01*
X149293335Y-98753133D01*
X149340966Y-98805781D01*
X149353500Y-98860566D01*
X149353500Y-98996405D01*
X149333498Y-99064526D01*
X149316595Y-99085500D01*
X147652243Y-100749852D01*
X147589931Y-100783878D01*
X147549542Y-100786020D01*
X147520536Y-100782869D01*
X147520526Y-100782868D01*
X147517134Y-100782500D01*
X146428500Y-100782500D01*
X146360379Y-100762498D01*
X146313886Y-100708842D01*
X146302500Y-100656500D01*
X146302500Y-99925500D01*
X146322502Y-99857379D01*
X146376158Y-99810886D01*
X146428500Y-99799500D01*
X146717134Y-99799500D01*
X146779316Y-99792745D01*
X146915705Y-99741615D01*
X147032261Y-99654261D01*
X147119615Y-99537705D01*
X147170745Y-99401316D01*
X147177500Y-99339134D01*
X147177500Y-97242866D01*
X147170745Y-97180684D01*
X147119615Y-97044295D01*
X147032261Y-96927739D01*
X146915705Y-96840385D01*
X146779316Y-96789255D01*
X146717134Y-96782500D01*
X144620866Y-96782500D01*
X144558684Y-96789255D01*
X144422295Y-96840385D01*
X144305739Y-96927739D01*
X144218385Y-97044295D01*
X144167255Y-97180684D01*
X144160500Y-97242866D01*
X144160500Y-99339134D01*
X144167255Y-99401316D01*
X144218385Y-99537705D01*
X144305739Y-99654261D01*
X144422295Y-99741615D01*
X144558684Y-99792745D01*
X144620866Y-99799500D01*
X144909500Y-99799500D01*
X144977621Y-99819502D01*
X145024114Y-99873158D01*
X145035500Y-99925500D01*
X145035500Y-100665000D01*
X145015498Y-100733121D01*
X144961842Y-100779614D01*
X144909500Y-100791000D01*
X144787115Y-100791000D01*
X144771876Y-100795475D01*
X144770671Y-100796865D01*
X144769000Y-100804548D01*
X144769000Y-103772885D01*
X144773475Y-103788124D01*
X144774865Y-103789329D01*
X144782548Y-103791000D01*
X145104251Y-103791000D01*
X145172372Y-103811002D01*
X145196102Y-103830748D01*
X145198870Y-103833696D01*
X145203528Y-103840107D01*
X145209631Y-103845156D01*
X145209633Y-103845158D01*
X145237605Y-103868298D01*
X145246384Y-103876288D01*
X145453343Y-104083247D01*
X145460887Y-104091537D01*
X145465000Y-104098018D01*
X145470777Y-104103443D01*
X145476322Y-104108650D01*
X145512287Y-104169862D01*
X145509450Y-104240802D01*
X145468709Y-104298946D01*
X145403001Y-104325835D01*
X145390069Y-104326500D01*
X144526990Y-104326500D01*
X144458869Y-104306498D01*
X144437895Y-104289595D01*
X144154395Y-104006095D01*
X144120369Y-103943783D01*
X144125434Y-103872968D01*
X144167981Y-103816132D01*
X144234501Y-103791321D01*
X144243490Y-103791000D01*
X144250885Y-103791000D01*
X144266124Y-103786525D01*
X144267329Y-103785135D01*
X144269000Y-103777452D01*
X144269000Y-100809115D01*
X144264525Y-100793876D01*
X144263135Y-100792671D01*
X144255452Y-100791000D01*
X143825085Y-100791000D01*
X143818271Y-100791369D01*
X143768379Y-100796789D01*
X143753133Y-100800414D01*
X143634823Y-100844767D01*
X143619237Y-100853299D01*
X143592065Y-100873664D01*
X143525559Y-100898512D01*
X143456176Y-100883459D01*
X143405946Y-100833285D01*
X143390500Y-100772838D01*
X143390500Y-98869768D01*
X143391027Y-98858585D01*
X143392702Y-98851092D01*
X143390562Y-98783001D01*
X143390500Y-98779044D01*
X143390500Y-98751144D01*
X143389996Y-98747153D01*
X143389063Y-98735311D01*
X143388673Y-98722885D01*
X143387674Y-98691111D01*
X143385462Y-98683497D01*
X143385461Y-98683492D01*
X143382023Y-98671659D01*
X143378012Y-98652295D01*
X143376467Y-98640064D01*
X143375474Y-98632203D01*
X143372557Y-98624836D01*
X143372556Y-98624831D01*
X143359198Y-98591092D01*
X143355354Y-98579865D01*
X143348367Y-98555818D01*
X143343018Y-98537407D01*
X143332707Y-98519972D01*
X143324012Y-98502224D01*
X143316552Y-98483383D01*
X143290564Y-98447613D01*
X143284048Y-98437693D01*
X143265580Y-98406465D01*
X143265578Y-98406462D01*
X143261542Y-98399638D01*
X143247221Y-98385317D01*
X143234380Y-98370283D01*
X143227132Y-98360307D01*
X143222472Y-98353893D01*
X143188407Y-98325712D01*
X143179626Y-98317722D01*
X142760647Y-97898742D01*
X142753113Y-97890463D01*
X142749000Y-97883982D01*
X142699348Y-97837356D01*
X142696507Y-97834602D01*
X142676770Y-97814865D01*
X142673573Y-97812385D01*
X142664551Y-97804680D01*
X142632321Y-97774414D01*
X142625375Y-97770595D01*
X142625372Y-97770593D01*
X142614566Y-97764652D01*
X142598047Y-97753801D01*
X142591709Y-97748885D01*
X142582041Y-97741386D01*
X142574772Y-97738241D01*
X142574768Y-97738238D01*
X142541463Y-97723826D01*
X142530813Y-97718609D01*
X142492060Y-97697305D01*
X142472437Y-97692267D01*
X142453734Y-97685863D01*
X142442420Y-97680967D01*
X142442419Y-97680967D01*
X142435145Y-97677819D01*
X142427322Y-97676580D01*
X142427312Y-97676577D01*
X142391476Y-97670901D01*
X142379856Y-97668495D01*
X142344711Y-97659472D01*
X142344710Y-97659472D01*
X142337030Y-97657500D01*
X142316776Y-97657500D01*
X142297065Y-97655949D01*
X142284886Y-97654020D01*
X142277057Y-97652780D01*
X142269165Y-97653526D01*
X142233039Y-97656941D01*
X142221181Y-97657500D01*
X141461500Y-97657500D01*
X141393379Y-97637498D01*
X141346886Y-97583842D01*
X141335500Y-97531500D01*
X141335500Y-97242866D01*
X141328745Y-97180684D01*
X141277615Y-97044295D01*
X141190261Y-96927739D01*
X141073705Y-96840385D01*
X140937316Y-96789255D01*
X140875134Y-96782500D01*
X138778866Y-96782500D01*
X138716684Y-96789255D01*
X138580295Y-96840385D01*
X138463739Y-96927739D01*
X138376385Y-97044295D01*
X138325255Y-97180684D01*
X138318500Y-97242866D01*
X138318500Y-99339134D01*
X138325255Y-99401316D01*
X138376385Y-99537705D01*
X138463739Y-99654261D01*
X138580295Y-99741615D01*
X138716684Y-99792745D01*
X138778866Y-99799500D01*
X140875134Y-99799500D01*
X140937316Y-99792745D01*
X141073705Y-99741615D01*
X141190261Y-99654261D01*
X141277615Y-99537705D01*
X141328745Y-99401316D01*
X141335500Y-99339134D01*
X141335500Y-99050500D01*
X141355502Y-98982379D01*
X141409158Y-98935886D01*
X141461500Y-98924500D01*
X141942405Y-98924500D01*
X142010526Y-98944502D01*
X142031501Y-98961405D01*
X142086596Y-99016501D01*
X142120621Y-99078814D01*
X142123500Y-99105596D01*
X142123500Y-100775705D01*
X142103498Y-100843826D01*
X142049842Y-100890319D01*
X141979568Y-100900423D01*
X141921937Y-100876533D01*
X141873705Y-100840385D01*
X141737316Y-100789255D01*
X141675134Y-100782500D01*
X140278866Y-100782500D01*
X140216684Y-100789255D01*
X140080295Y-100840385D01*
X139963739Y-100927739D01*
X139958358Y-100934919D01*
X139922515Y-100982744D01*
X139865656Y-101025259D01*
X139794837Y-101030285D01*
X139732544Y-100996225D01*
X139720864Y-100982745D01*
X139689572Y-100940993D01*
X139677009Y-100928430D01*
X139576763Y-100853299D01*
X139561177Y-100844767D01*
X139442867Y-100800414D01*
X139427621Y-100796789D01*
X139377729Y-100791369D01*
X139370915Y-100791000D01*
X138945115Y-100791000D01*
X138929876Y-100795475D01*
X138928671Y-100796865D01*
X138927000Y-100804548D01*
X138927000Y-102415000D01*
X138906998Y-102483121D01*
X138853342Y-102529614D01*
X138801000Y-102541000D01*
X138553000Y-102541000D01*
X138484879Y-102520998D01*
X138438386Y-102467342D01*
X138427000Y-102415000D01*
X138427000Y-100809115D01*
X138422525Y-100793876D01*
X138421135Y-100792671D01*
X138413452Y-100791000D01*
X137983085Y-100791000D01*
X137976271Y-100791369D01*
X137926379Y-100796789D01*
X137911133Y-100800414D01*
X137792823Y-100844767D01*
X137777237Y-100853299D01*
X137676991Y-100928430D01*
X137664430Y-100940991D01*
X137592326Y-101037199D01*
X137535467Y-101079714D01*
X137464648Y-101084740D01*
X137402355Y-101050680D01*
X137368365Y-100988349D01*
X137365500Y-100961634D01*
X137365500Y-96519927D01*
X137365792Y-96511358D01*
X137369210Y-96461225D01*
X137369210Y-96461221D01*
X137369726Y-96453648D01*
X137358736Y-96390681D01*
X137357775Y-96384165D01*
X137355108Y-96362124D01*
X137350102Y-96320758D01*
X137347419Y-96313657D01*
X137346778Y-96311048D01*
X137342309Y-96294715D01*
X137341548Y-96292195D01*
X137340243Y-96284717D01*
X137335079Y-96272952D01*
X137314559Y-96226204D01*
X137312068Y-96220099D01*
X137292175Y-96167456D01*
X137292173Y-96167452D01*
X137289487Y-96160344D01*
X137285182Y-96154081D01*
X137281665Y-96147353D01*
X137283334Y-96146480D01*
X137264310Y-96088393D01*
X137282198Y-96019686D01*
X137334392Y-95971558D01*
X137390250Y-95958500D01*
X149021964Y-95958500D01*
X149090085Y-95978502D01*
G37*
%TD.AperFunction*%
%TA.AperFunction,Conductor*%
G36*
X163569155Y-102455529D02*
G01*
X163601966Y-102479164D01*
X163743567Y-102620765D01*
X163773168Y-102648129D01*
X163774082Y-102648910D01*
X163774106Y-102648931D01*
X163787263Y-102660168D01*
X163788200Y-102660968D01*
X163819868Y-102685934D01*
X163820871Y-102686663D01*
X163820874Y-102686665D01*
X163831048Y-102694057D01*
X163850622Y-102711681D01*
X163911293Y-102779063D01*
X163916581Y-102785338D01*
X163931544Y-102804315D01*
X163932344Y-102805252D01*
X163932346Y-102805254D01*
X163943221Y-102817985D01*
X163944384Y-102819347D01*
X163945218Y-102820249D01*
X163963663Y-102840201D01*
X163971735Y-102848933D01*
X164590207Y-103467405D01*
X164624233Y-103529717D01*
X164619168Y-103600532D01*
X164576621Y-103657368D01*
X164510101Y-103682179D01*
X164501112Y-103682500D01*
X164066165Y-103682500D01*
X164064846Y-103682493D01*
X163974779Y-103681550D01*
X163967901Y-103683037D01*
X163967891Y-103683038D01*
X163932413Y-103690709D01*
X163919838Y-103692769D01*
X163876745Y-103697603D01*
X163845074Y-103708632D01*
X163830265Y-103712795D01*
X163804371Y-103718393D01*
X163804368Y-103718394D01*
X163797490Y-103719881D01*
X163758187Y-103738208D01*
X163746411Y-103742990D01*
X163705448Y-103757255D01*
X163699473Y-103760989D01*
X163699470Y-103760990D01*
X163677005Y-103775027D01*
X163663488Y-103782366D01*
X163639481Y-103793561D01*
X163639477Y-103793563D01*
X163633098Y-103796538D01*
X163614451Y-103811002D01*
X163598844Y-103823108D01*
X163588395Y-103830397D01*
X163551624Y-103853374D01*
X163546625Y-103858339D01*
X163546623Y-103858340D01*
X163522815Y-103881983D01*
X163522192Y-103882566D01*
X163521530Y-103883079D01*
X163495677Y-103908932D01*
X163422918Y-103981185D01*
X163422258Y-103982224D01*
X163421154Y-103983454D01*
X163158631Y-104245977D01*
X163096319Y-104280003D01*
X163025504Y-104274938D01*
X162987023Y-104252106D01*
X162976135Y-104242671D01*
X162968452Y-104241000D01*
X161908000Y-104241000D01*
X161839879Y-104220998D01*
X161793386Y-104167342D01*
X161782000Y-104115000D01*
X161782000Y-103867000D01*
X161802002Y-103798879D01*
X161855658Y-103752386D01*
X161908000Y-103741000D01*
X162963885Y-103741000D01*
X162979124Y-103736525D01*
X162980329Y-103735135D01*
X162982000Y-103727452D01*
X162982000Y-103696091D01*
X162981663Y-103689572D01*
X162972222Y-103598587D01*
X162969329Y-103585192D01*
X162920323Y-103438305D01*
X162914157Y-103425141D01*
X162832896Y-103293823D01*
X162821805Y-103279830D01*
X162795168Y-103214020D01*
X162808339Y-103144256D01*
X162857137Y-103092687D01*
X162880675Y-103082042D01*
X162970368Y-103052118D01*
X162983547Y-103045944D01*
X163119804Y-102961626D01*
X163131205Y-102952590D01*
X163244418Y-102839179D01*
X163253430Y-102827768D01*
X163337516Y-102691354D01*
X163343663Y-102678173D01*
X163393278Y-102528591D01*
X163433709Y-102470231D01*
X163499274Y-102442995D01*
X163569155Y-102455529D01*
G37*
%TD.AperFunction*%
%TA.AperFunction,Conductor*%
G36*
X181998527Y-95649502D02*
G01*
X182019501Y-95666405D01*
X182398501Y-96045405D01*
X182432527Y-96107717D01*
X182427462Y-96178532D01*
X182384915Y-96235368D01*
X182318395Y-96260179D01*
X182309406Y-96260500D01*
X174243000Y-96260500D01*
X174239654Y-96260860D01*
X174239649Y-96260860D01*
X174137215Y-96271872D01*
X174137208Y-96271873D01*
X174133851Y-96272234D01*
X174130551Y-96272952D01*
X174130550Y-96272952D01*
X174084790Y-96282906D01*
X174084785Y-96282907D01*
X174081509Y-96283620D01*
X173977343Y-96318290D01*
X173854388Y-96397308D01*
X173850993Y-96400250D01*
X173850990Y-96400252D01*
X173825734Y-96422137D01*
X173800732Y-96443801D01*
X173797792Y-96447194D01*
X173753706Y-96498072D01*
X173693979Y-96536456D01*
X173622983Y-96536456D01*
X173563257Y-96498073D01*
X173557654Y-96491124D01*
X173536569Y-96462990D01*
X173524009Y-96450430D01*
X173423763Y-96375299D01*
X173408177Y-96366767D01*
X173289867Y-96322414D01*
X173274621Y-96318789D01*
X173224729Y-96313369D01*
X173217915Y-96313000D01*
X172592115Y-96313000D01*
X172576876Y-96317475D01*
X172575671Y-96318865D01*
X172574000Y-96326548D01*
X172574000Y-98994885D01*
X172578475Y-99010124D01*
X172579865Y-99011329D01*
X172587548Y-99013000D01*
X172976595Y-99013000D01*
X173044716Y-99033002D01*
X173091209Y-99086658D01*
X173101313Y-99156932D01*
X173093947Y-99182930D01*
X173092385Y-99185466D01*
X173053885Y-99326462D01*
X173045121Y-99396916D01*
X173045934Y-99439614D01*
X173047488Y-99521229D01*
X173047903Y-99543039D01*
X173091741Y-99682467D01*
X173093691Y-99686530D01*
X173117541Y-99736229D01*
X173122456Y-99746472D01*
X173124962Y-99750212D01*
X173124962Y-99750213D01*
X173187699Y-99843864D01*
X173203805Y-99867907D01*
X173206822Y-99871258D01*
X173206823Y-99871259D01*
X173286459Y-99959704D01*
X173301942Y-99981014D01*
X173330216Y-100029986D01*
X173340930Y-100054049D01*
X173358403Y-100107824D01*
X173363880Y-100133590D01*
X173369791Y-100189829D01*
X173369791Y-100216171D01*
X173363880Y-100272410D01*
X173358404Y-100298173D01*
X173350330Y-100323022D01*
X173340930Y-100351951D01*
X173330217Y-100376012D01*
X173301943Y-100424986D01*
X173286466Y-100446290D01*
X173204707Y-100537092D01*
X173154330Y-100603068D01*
X173132377Y-100637227D01*
X173093289Y-100710459D01*
X173054787Y-100851454D01*
X173052360Y-100870963D01*
X173048933Y-100898512D01*
X173046022Y-100921908D01*
X173047181Y-100982745D01*
X173048513Y-101052703D01*
X173048805Y-101068052D01*
X173051509Y-101076651D01*
X173051509Y-101076652D01*
X173067544Y-101127647D01*
X173092647Y-101207479D01*
X173123365Y-101271486D01*
X173139068Y-101294926D01*
X173202195Y-101389159D01*
X173202199Y-101389164D01*
X173204707Y-101392908D01*
X173286466Y-101483710D01*
X173301943Y-101505014D01*
X173330217Y-101553988D01*
X173340930Y-101578049D01*
X173348291Y-101600702D01*
X173358403Y-101631824D01*
X173363880Y-101657590D01*
X173369791Y-101713829D01*
X173369791Y-101740171D01*
X173363880Y-101796410D01*
X173358404Y-101822173D01*
X173344766Y-101864146D01*
X173340930Y-101875951D01*
X173330217Y-101900013D01*
X173308048Y-101938412D01*
X173301944Y-101948984D01*
X173286460Y-101970295D01*
X173248626Y-102012314D01*
X173229053Y-102029939D01*
X173183302Y-102063180D01*
X173183299Y-102063182D01*
X173160488Y-102076352D01*
X173108831Y-102099351D01*
X173083784Y-102107489D01*
X173048113Y-102115071D01*
X173028466Y-102119247D01*
X173002270Y-102122000D01*
X172945730Y-102122000D01*
X172919535Y-102119247D01*
X172864216Y-102107489D01*
X172839165Y-102099349D01*
X172787510Y-102076351D01*
X172764701Y-102063183D01*
X172714884Y-102026988D01*
X172690677Y-102010436D01*
X172689986Y-102009992D01*
X172689962Y-102009976D01*
X172679341Y-102003151D01*
X172678579Y-102002661D01*
X172653459Y-101987513D01*
X172648427Y-101985554D01*
X172648421Y-101985551D01*
X172521454Y-101936120D01*
X172517260Y-101934487D01*
X172512887Y-101933470D01*
X172512880Y-101933468D01*
X172470069Y-101923514D01*
X172448108Y-101918407D01*
X172443631Y-101918023D01*
X172443628Y-101918022D01*
X172355801Y-101910480D01*
X172302489Y-101905901D01*
X172293661Y-101907690D01*
X172293658Y-101907690D01*
X172169072Y-101932935D01*
X172159243Y-101934927D01*
X172154999Y-101936441D01*
X172155000Y-101936441D01*
X172096622Y-101957270D01*
X172096618Y-101957272D01*
X172092377Y-101958785D01*
X172088395Y-101960886D01*
X172088393Y-101960887D01*
X172008294Y-102003151D01*
X171963112Y-102026991D01*
X171958229Y-102030539D01*
X171913299Y-102063182D01*
X171890494Y-102076349D01*
X171838831Y-102099351D01*
X171813787Y-102107488D01*
X171778113Y-102115071D01*
X171758466Y-102119247D01*
X171732270Y-102122000D01*
X171675730Y-102122000D01*
X171649535Y-102119247D01*
X171594216Y-102107489D01*
X171569165Y-102099349D01*
X171517510Y-102076351D01*
X171494701Y-102063183D01*
X171444884Y-102026988D01*
X171420677Y-102010436D01*
X171419986Y-102009992D01*
X171419962Y-102009976D01*
X171409341Y-102003151D01*
X171408579Y-102002661D01*
X171383459Y-101987513D01*
X171378427Y-101985554D01*
X171378421Y-101985551D01*
X171251454Y-101936120D01*
X171247260Y-101934487D01*
X171242887Y-101933470D01*
X171242880Y-101933468D01*
X171200069Y-101923514D01*
X171178108Y-101918407D01*
X171173631Y-101918023D01*
X171173628Y-101918022D01*
X171085801Y-101910480D01*
X171032489Y-101905901D01*
X171023661Y-101907690D01*
X171023658Y-101907690D01*
X170899072Y-101932935D01*
X170889243Y-101934927D01*
X170884999Y-101936441D01*
X170885000Y-101936441D01*
X170826622Y-101957270D01*
X170826618Y-101957272D01*
X170822377Y-101958785D01*
X170818395Y-101960886D01*
X170818393Y-101960887D01*
X170738294Y-102003151D01*
X170693112Y-102026991D01*
X170688229Y-102030539D01*
X170643299Y-102063182D01*
X170620494Y-102076349D01*
X170568831Y-102099351D01*
X170543787Y-102107488D01*
X170508113Y-102115071D01*
X170488466Y-102119247D01*
X170462270Y-102122000D01*
X170405730Y-102122000D01*
X170379535Y-102119247D01*
X170324216Y-102107489D01*
X170299165Y-102099349D01*
X170247510Y-102076351D01*
X170224701Y-102063183D01*
X170174884Y-102026988D01*
X170150677Y-102010436D01*
X170149986Y-102009992D01*
X170149962Y-102009976D01*
X170139341Y-102003151D01*
X170138579Y-102002661D01*
X170113459Y-101987513D01*
X170108427Y-101985554D01*
X170108421Y-101985551D01*
X169981454Y-101936120D01*
X169977260Y-101934487D01*
X169972887Y-101933470D01*
X169972880Y-101933468D01*
X169930069Y-101923514D01*
X169908108Y-101918407D01*
X169903631Y-101918023D01*
X169903628Y-101918022D01*
X169815801Y-101910480D01*
X169762489Y-101905901D01*
X169753661Y-101907690D01*
X169753658Y-101907690D01*
X169629072Y-101932935D01*
X169619243Y-101934927D01*
X169614999Y-101936441D01*
X169615000Y-101936441D01*
X169556622Y-101957270D01*
X169556618Y-101957272D01*
X169552377Y-101958785D01*
X169548395Y-101960886D01*
X169548393Y-101960887D01*
X169468294Y-102003151D01*
X169423112Y-102026991D01*
X169418229Y-102030539D01*
X169373299Y-102063182D01*
X169350494Y-102076349D01*
X169298831Y-102099351D01*
X169273787Y-102107488D01*
X169238113Y-102115071D01*
X169218466Y-102119247D01*
X169192270Y-102122000D01*
X169135730Y-102122000D01*
X169109535Y-102119247D01*
X169054216Y-102107489D01*
X169029165Y-102099349D01*
X168977510Y-102076351D01*
X168954701Y-102063183D01*
X168904884Y-102026988D01*
X168880677Y-102010436D01*
X168879986Y-102009992D01*
X168879962Y-102009976D01*
X168869341Y-102003151D01*
X168868579Y-102002661D01*
X168843459Y-101987513D01*
X168838427Y-101985554D01*
X168838421Y-101985551D01*
X168711454Y-101936120D01*
X168707260Y-101934487D01*
X168702887Y-101933470D01*
X168702880Y-101933468D01*
X168660069Y-101923514D01*
X168638108Y-101918407D01*
X168633631Y-101918023D01*
X168633628Y-101918022D01*
X168545801Y-101910480D01*
X168492489Y-101905901D01*
X168483661Y-101907690D01*
X168483658Y-101907690D01*
X168359072Y-101932935D01*
X168349243Y-101934927D01*
X168344999Y-101936441D01*
X168345000Y-101936441D01*
X168286622Y-101957270D01*
X168286618Y-101957272D01*
X168282377Y-101958785D01*
X168278395Y-101960886D01*
X168278393Y-101960887D01*
X168198294Y-102003151D01*
X168153112Y-102026991D01*
X168148229Y-102030539D01*
X168103299Y-102063182D01*
X168080494Y-102076349D01*
X168028831Y-102099351D01*
X168003787Y-102107488D01*
X167968113Y-102115071D01*
X167948466Y-102119247D01*
X167922270Y-102122000D01*
X167865730Y-102122000D01*
X167839535Y-102119247D01*
X167784216Y-102107489D01*
X167759165Y-102099349D01*
X167707510Y-102076351D01*
X167684701Y-102063183D01*
X167634884Y-102026988D01*
X167610677Y-102010436D01*
X167609986Y-102009992D01*
X167609962Y-102009976D01*
X167599341Y-102003151D01*
X167598579Y-102002661D01*
X167573459Y-101987513D01*
X167568427Y-101985554D01*
X167568421Y-101985551D01*
X167441454Y-101936120D01*
X167437260Y-101934487D01*
X167432887Y-101933470D01*
X167432880Y-101933468D01*
X167390069Y-101923514D01*
X167368108Y-101918407D01*
X167363631Y-101918023D01*
X167363628Y-101918022D01*
X167275801Y-101910480D01*
X167222489Y-101905901D01*
X167213661Y-101907690D01*
X167213658Y-101907690D01*
X167089072Y-101932935D01*
X167079243Y-101934927D01*
X167074999Y-101936441D01*
X167075000Y-101936441D01*
X167016622Y-101957270D01*
X167016618Y-101957272D01*
X167012377Y-101958785D01*
X167008395Y-101960886D01*
X167008393Y-101960887D01*
X166928294Y-102003151D01*
X166883112Y-102026991D01*
X166878229Y-102030539D01*
X166833299Y-102063182D01*
X166810494Y-102076349D01*
X166758831Y-102099351D01*
X166733787Y-102107488D01*
X166698113Y-102115071D01*
X166678466Y-102119247D01*
X166652270Y-102122000D01*
X166595730Y-102122000D01*
X166569534Y-102119247D01*
X166549887Y-102115071D01*
X166514216Y-102107489D01*
X166489169Y-102099351D01*
X166437512Y-102076352D01*
X166414701Y-102063182D01*
X166414699Y-102063180D01*
X166368947Y-102029939D01*
X166349374Y-102012314D01*
X166311540Y-101970295D01*
X166296056Y-101948984D01*
X166289953Y-101938412D01*
X166267783Y-101900013D01*
X166257070Y-101875951D01*
X166253234Y-101864146D01*
X166239596Y-101822173D01*
X166234120Y-101796410D01*
X166228209Y-101740171D01*
X166228209Y-101713829D01*
X166234120Y-101657590D01*
X166239597Y-101631824D01*
X166249710Y-101600702D01*
X166257070Y-101578049D01*
X166267783Y-101553988D01*
X166296057Y-101505014D01*
X166311534Y-101483710D01*
X166393293Y-101392908D01*
X166443670Y-101326932D01*
X166465623Y-101292773D01*
X166504711Y-101219541D01*
X166543213Y-101078546D01*
X166549406Y-101028765D01*
X166551423Y-101012556D01*
X166551423Y-101012551D01*
X166551978Y-101008092D01*
X166550423Y-100926442D01*
X166549367Y-100870963D01*
X166549367Y-100870961D01*
X166549195Y-100861948D01*
X166546476Y-100853299D01*
X166520633Y-100771114D01*
X166505353Y-100722521D01*
X166474635Y-100658514D01*
X166436136Y-100601045D01*
X166395805Y-100540841D01*
X166395801Y-100540836D01*
X166393293Y-100537092D01*
X166311534Y-100446290D01*
X166296057Y-100424986D01*
X166267783Y-100376012D01*
X166257070Y-100351951D01*
X166247670Y-100323022D01*
X166239596Y-100298173D01*
X166234120Y-100272410D01*
X166228209Y-100216171D01*
X166228209Y-100189829D01*
X166234120Y-100133590D01*
X166239597Y-100107824D01*
X166257070Y-100054049D01*
X166267783Y-100029987D01*
X166296056Y-99981016D01*
X166311540Y-99959705D01*
X166349375Y-99917685D01*
X166368950Y-99900059D01*
X166442557Y-99846580D01*
X166442564Y-99846574D01*
X166446294Y-99843864D01*
X166553332Y-99739095D01*
X166581554Y-99701951D01*
X166594536Y-99684866D01*
X166594539Y-99684861D01*
X166597327Y-99681192D01*
X166622452Y-99635567D01*
X166672833Y-99585545D01*
X166730996Y-99571779D01*
X166730943Y-99571220D01*
X166734966Y-99570840D01*
X166734968Y-99570840D01*
X166738836Y-99570474D01*
X166738839Y-99570474D01*
X166774961Y-99567059D01*
X166786819Y-99566500D01*
X168435233Y-99566500D01*
X168446416Y-99567027D01*
X168453909Y-99568702D01*
X168461835Y-99568453D01*
X168461836Y-99568453D01*
X168521986Y-99566562D01*
X168525945Y-99566500D01*
X168553856Y-99566500D01*
X168557791Y-99566003D01*
X168557856Y-99565995D01*
X168569693Y-99565062D01*
X168601951Y-99564048D01*
X168605970Y-99563922D01*
X168613889Y-99563673D01*
X168633343Y-99558021D01*
X168652700Y-99554013D01*
X168664930Y-99552468D01*
X168664931Y-99552468D01*
X168672797Y-99551474D01*
X168680168Y-99548555D01*
X168680170Y-99548555D01*
X168713912Y-99535196D01*
X168725142Y-99531351D01*
X168759983Y-99521229D01*
X168759984Y-99521229D01*
X168767593Y-99519018D01*
X168774412Y-99514985D01*
X168774417Y-99514983D01*
X168785028Y-99508707D01*
X168802776Y-99500012D01*
X168821617Y-99492552D01*
X168857387Y-99466564D01*
X168867307Y-99460048D01*
X168898535Y-99441580D01*
X168898538Y-99441578D01*
X168905362Y-99437542D01*
X168919683Y-99423221D01*
X168934717Y-99410380D01*
X168944694Y-99403131D01*
X168951107Y-99398472D01*
X168979298Y-99364395D01*
X168987288Y-99355616D01*
X169328549Y-99014355D01*
X169390861Y-98980329D01*
X169442762Y-98979979D01*
X169622597Y-99016567D01*
X169627772Y-99016757D01*
X169627774Y-99016757D01*
X169840673Y-99024564D01*
X169840677Y-99024564D01*
X169845837Y-99024753D01*
X169850957Y-99024097D01*
X169850959Y-99024097D01*
X170062288Y-98997025D01*
X170062289Y-98997025D01*
X170067416Y-98996368D01*
X170072366Y-98994883D01*
X170276429Y-98933661D01*
X170276434Y-98933659D01*
X170281384Y-98932174D01*
X170481994Y-98833896D01*
X170663860Y-98704173D01*
X170667515Y-98700531D01*
X170667523Y-98700524D01*
X170778701Y-98589734D01*
X170841072Y-98555818D01*
X170911879Y-98561007D01*
X170968640Y-98603653D01*
X170985622Y-98634756D01*
X171027767Y-98747177D01*
X171036299Y-98762763D01*
X171111430Y-98863009D01*
X171123991Y-98875570D01*
X171224237Y-98950701D01*
X171239823Y-98959233D01*
X171358133Y-99003586D01*
X171373379Y-99007211D01*
X171423271Y-99012631D01*
X171430085Y-99013000D01*
X172055885Y-99013000D01*
X172071124Y-99008525D01*
X172072329Y-99007135D01*
X172074000Y-98999452D01*
X172074000Y-96331115D01*
X172069525Y-96315876D01*
X172068135Y-96314671D01*
X172060452Y-96313000D01*
X171430085Y-96313000D01*
X171423271Y-96313369D01*
X171373379Y-96318789D01*
X171358133Y-96322414D01*
X171239823Y-96366767D01*
X171224237Y-96375299D01*
X171123991Y-96450430D01*
X171111430Y-96462991D01*
X171036299Y-96563237D01*
X171027767Y-96578823D01*
X170985349Y-96691972D01*
X170942708Y-96748737D01*
X170876146Y-96773437D01*
X170806797Y-96758230D01*
X170774173Y-96732543D01*
X170717145Y-96669870D01*
X170713670Y-96666051D01*
X170709619Y-96662852D01*
X170709615Y-96662848D01*
X170542414Y-96530800D01*
X170542410Y-96530798D01*
X170538359Y-96527598D01*
X170531476Y-96523798D01*
X170434989Y-96470535D01*
X170342789Y-96419638D01*
X170337920Y-96417914D01*
X170337916Y-96417912D01*
X170137087Y-96346795D01*
X170137083Y-96346794D01*
X170132212Y-96345069D01*
X170127119Y-96344162D01*
X170127116Y-96344161D01*
X169917373Y-96306800D01*
X169917367Y-96306799D01*
X169912284Y-96305894D01*
X169838452Y-96304992D01*
X169694081Y-96303228D01*
X169694079Y-96303228D01*
X169688911Y-96303165D01*
X169468091Y-96336955D01*
X169255756Y-96406357D01*
X169229656Y-96419944D01*
X169119632Y-96477219D01*
X169057607Y-96509507D01*
X169053474Y-96512610D01*
X169053471Y-96512612D01*
X168895982Y-96630858D01*
X168878965Y-96643635D01*
X168875393Y-96647373D01*
X168730842Y-96798637D01*
X168724629Y-96805138D01*
X168617201Y-96962621D01*
X168562293Y-97007621D01*
X168491768Y-97015792D01*
X168428021Y-96984538D01*
X168407324Y-96960054D01*
X168326822Y-96835617D01*
X168326820Y-96835614D01*
X168324014Y-96831277D01*
X168173670Y-96666051D01*
X168169619Y-96662852D01*
X168169615Y-96662848D01*
X168002414Y-96530800D01*
X168002410Y-96530798D01*
X167998359Y-96527598D01*
X167991476Y-96523798D01*
X167894989Y-96470535D01*
X167802789Y-96419638D01*
X167797920Y-96417914D01*
X167797916Y-96417912D01*
X167597087Y-96346795D01*
X167597083Y-96346794D01*
X167592212Y-96345069D01*
X167587119Y-96344162D01*
X167587116Y-96344161D01*
X167377373Y-96306800D01*
X167377367Y-96306799D01*
X167372284Y-96305894D01*
X167298452Y-96304992D01*
X167154081Y-96303228D01*
X167154079Y-96303228D01*
X167148911Y-96303165D01*
X166928091Y-96336955D01*
X166715756Y-96406357D01*
X166689656Y-96419944D01*
X166579632Y-96477219D01*
X166517607Y-96509507D01*
X166513473Y-96512611D01*
X166373609Y-96617623D01*
X166307125Y-96642528D01*
X166237729Y-96627535D01*
X166208862Y-96605957D01*
X165730652Y-96127747D01*
X165723112Y-96119461D01*
X165719000Y-96112982D01*
X165708671Y-96103282D01*
X165669349Y-96066357D01*
X165666507Y-96063602D01*
X165646770Y-96043865D01*
X165643573Y-96041385D01*
X165634551Y-96033680D01*
X165608100Y-96008841D01*
X165602321Y-96003414D01*
X165595375Y-95999595D01*
X165595372Y-95999593D01*
X165584566Y-95993652D01*
X165568047Y-95982801D01*
X165564875Y-95980341D01*
X165552041Y-95970386D01*
X165544772Y-95967241D01*
X165544768Y-95967238D01*
X165511463Y-95952826D01*
X165500813Y-95947609D01*
X165462060Y-95926305D01*
X165442437Y-95921267D01*
X165423734Y-95914863D01*
X165412420Y-95909967D01*
X165412419Y-95909967D01*
X165405145Y-95906819D01*
X165397322Y-95905580D01*
X165397312Y-95905577D01*
X165361476Y-95899901D01*
X165349856Y-95897495D01*
X165314711Y-95888472D01*
X165314710Y-95888472D01*
X165307030Y-95886500D01*
X165286776Y-95886500D01*
X165267065Y-95884949D01*
X165254886Y-95883020D01*
X165247057Y-95881780D01*
X165239165Y-95882526D01*
X165203039Y-95885941D01*
X165191181Y-95886500D01*
X164902225Y-95886500D01*
X164834104Y-95866498D01*
X164794448Y-95825770D01*
X164791420Y-95820770D01*
X164773242Y-95752140D01*
X164795053Y-95684577D01*
X164849930Y-95639531D01*
X164899197Y-95629500D01*
X181930406Y-95629500D01*
X181998527Y-95649502D01*
G37*
%TD.AperFunction*%
%TD*%
M02*
