%TF.GenerationSoftware,KiCad,Pcbnew,(6.0.7-1)-1*%
%TF.CreationDate,2023-09-21T22:33:58-04:00*%
%TF.ProjectId,EMHarpsichord_Stage1,454d4861-7270-4736-9963-686f72645f53,rev?*%
%TF.SameCoordinates,Original*%
%TF.FileFunction,Legend,Top*%
%TF.FilePolarity,Positive*%
%FSLAX46Y46*%
G04 Gerber Fmt 4.6, Leading zero omitted, Abs format (unit mm)*
G04 Created by KiCad (PCBNEW (6.0.7-1)-1) date 2023-09-21 22:33:58*
%MOMM*%
%LPD*%
G01*
G04 APERTURE LIST*
G04 Aperture macros list*
%AMRoundRect*
0 Rectangle with rounded corners*
0 $1 Rounding radius*
0 $2 $3 $4 $5 $6 $7 $8 $9 X,Y pos of 4 corners*
0 Add a 4 corners polygon primitive as box body*
4,1,4,$2,$3,$4,$5,$6,$7,$8,$9,$2,$3,0*
0 Add four circle primitives for the rounded corners*
1,1,$1+$1,$2,$3*
1,1,$1+$1,$4,$5*
1,1,$1+$1,$6,$7*
1,1,$1+$1,$8,$9*
0 Add four rect primitives between the rounded corners*
20,1,$1+$1,$2,$3,$4,$5,0*
20,1,$1+$1,$4,$5,$6,$7,0*
20,1,$1+$1,$6,$7,$8,$9,0*
20,1,$1+$1,$8,$9,$2,$3,0*%
G04 Aperture macros list end*
%ADD10C,0.150000*%
%ADD11C,0.125000*%
%ADD12C,0.100000*%
%ADD13C,0.120000*%
%ADD14C,2.100000*%
%ADD15RoundRect,0.275000X-0.225000X-0.250000X0.225000X-0.250000X0.225000X0.250000X-0.225000X0.250000X0*%
%ADD16RoundRect,0.250000X0.200000X0.275000X-0.200000X0.275000X-0.200000X-0.275000X0.200000X-0.275000X0*%
%ADD17C,1.800000*%
%ADD18O,1.800000X1.800000*%
%ADD19RoundRect,0.300000X-0.250000X-0.475000X0.250000X-0.475000X0.250000X0.475000X-0.250000X0.475000X0*%
%ADD20RoundRect,0.275000X-0.250000X0.225000X-0.250000X-0.225000X0.250000X-0.225000X0.250000X0.225000X0*%
%ADD21C,3.600000*%
%ADD22RoundRect,0.050000X-0.850000X0.850000X-0.850000X-0.850000X0.850000X-0.850000X0.850000X0.850000X0*%
%ADD23RoundRect,0.050000X-0.650000X1.000000X-0.650000X-1.000000X0.650000X-1.000000X0.650000X1.000000X0*%
%ADD24RoundRect,0.050000X-1.000000X1.000000X-1.000000X-1.000000X1.000000X-1.000000X1.000000X1.000000X0*%
%ADD25RoundRect,0.250000X-0.200000X-0.275000X0.200000X-0.275000X0.200000X0.275000X-0.200000X0.275000X0*%
%ADD26RoundRect,0.275000X0.250000X-0.225000X0.250000X0.225000X-0.250000X0.225000X-0.250000X-0.225000X0*%
%ADD27RoundRect,0.300000X1.412500X0.550000X-1.412500X0.550000X-1.412500X-0.550000X1.412500X-0.550000X0*%
%ADD28RoundRect,0.275000X0.225000X0.250000X-0.225000X0.250000X-0.225000X-0.250000X0.225000X-0.250000X0*%
%ADD29RoundRect,0.300000X0.250000X0.475000X-0.250000X0.475000X-0.250000X-0.475000X0.250000X-0.475000X0*%
%ADD30RoundRect,0.212500X-0.825000X-0.162500X0.825000X-0.162500X0.825000X0.162500X-0.825000X0.162500X0*%
%ADD31RoundRect,0.300000X-0.725000X0.600000X-0.725000X-0.600000X0.725000X-0.600000X0.725000X0.600000X0*%
%ADD32O,2.050000X1.800000*%
%ADD33RoundRect,0.200000X-0.150000X0.850000X-0.150000X-0.850000X0.150000X-0.850000X0.150000X0.850000X0*%
%ADD34C,7.100000*%
%ADD35C,1.700000*%
%ADD36RoundRect,0.299700X-0.300300X-0.500300X0.300300X-0.500300X0.300300X0.500300X-0.300300X0.500300X0*%
%ADD37O,1.200000X1.600000*%
G04 APERTURE END LIST*
D10*
X137723809Y-94829380D02*
X137914285Y-94829380D01*
X138009523Y-94877000D01*
X138104761Y-94972238D01*
X138152380Y-95162714D01*
X138152380Y-95496047D01*
X138104761Y-95686523D01*
X138009523Y-95781761D01*
X137914285Y-95829380D01*
X137723809Y-95829380D01*
X137628571Y-95781761D01*
X137533333Y-95686523D01*
X137485714Y-95496047D01*
X137485714Y-95162714D01*
X137533333Y-94972238D01*
X137628571Y-94877000D01*
X137723809Y-94829380D01*
X138580952Y-95162714D02*
X138580952Y-96162714D01*
X138580952Y-95210333D02*
X138676190Y-95162714D01*
X138866666Y-95162714D01*
X138961904Y-95210333D01*
X139009523Y-95257952D01*
X139057142Y-95353190D01*
X139057142Y-95638904D01*
X139009523Y-95734142D01*
X138961904Y-95781761D01*
X138866666Y-95829380D01*
X138676190Y-95829380D01*
X138580952Y-95781761D01*
X139342857Y-95162714D02*
X139723809Y-95162714D01*
X139485714Y-94829380D02*
X139485714Y-95686523D01*
X139533333Y-95781761D01*
X139628571Y-95829380D01*
X139723809Y-95829380D01*
X139914285Y-94829380D02*
X140247619Y-95829380D01*
X140580952Y-94829380D01*
X141057142Y-95829380D02*
X140961904Y-95781761D01*
X140914285Y-95734142D01*
X140866666Y-95638904D01*
X140866666Y-95353190D01*
X140914285Y-95257952D01*
X140961904Y-95210333D01*
X141057142Y-95162714D01*
X141200000Y-95162714D01*
X141295238Y-95210333D01*
X141342857Y-95257952D01*
X141390476Y-95353190D01*
X141390476Y-95638904D01*
X141342857Y-95734142D01*
X141295238Y-95781761D01*
X141200000Y-95829380D01*
X141057142Y-95829380D01*
X141961904Y-95829380D02*
X141866666Y-95781761D01*
X141819047Y-95686523D01*
X141819047Y-94829380D01*
X126621666Y-115759666D02*
X126621666Y-115059666D01*
X126855000Y-115059666D02*
X127255000Y-115059666D01*
X127055000Y-115759666D02*
X127055000Y-115059666D01*
X127888333Y-115759666D02*
X127655000Y-115426333D01*
X127488333Y-115759666D02*
X127488333Y-115059666D01*
X127755000Y-115059666D01*
X127821666Y-115093000D01*
X127855000Y-115126333D01*
X127888333Y-115193000D01*
X127888333Y-115293000D01*
X127855000Y-115359666D01*
X127821666Y-115393000D01*
X127755000Y-115426333D01*
X127488333Y-115426333D01*
X128155000Y-115126333D02*
X128188333Y-115093000D01*
X128255000Y-115059666D01*
X128421666Y-115059666D01*
X128488333Y-115093000D01*
X128521666Y-115126333D01*
X128555000Y-115193000D01*
X128555000Y-115259666D01*
X128521666Y-115359666D01*
X128121666Y-115759666D01*
X128555000Y-115759666D01*
X128988333Y-115059666D02*
X129055000Y-115059666D01*
X129121666Y-115093000D01*
X129155000Y-115126333D01*
X129188333Y-115193000D01*
X129221666Y-115326333D01*
X129221666Y-115493000D01*
X129188333Y-115626333D01*
X129155000Y-115693000D01*
X129121666Y-115726333D01*
X129055000Y-115759666D01*
X128988333Y-115759666D01*
X128921666Y-115726333D01*
X128888333Y-115693000D01*
X128855000Y-115626333D01*
X128821666Y-115493000D01*
X128821666Y-115326333D01*
X128855000Y-115193000D01*
X128888333Y-115126333D01*
X128921666Y-115093000D01*
X128988333Y-115059666D01*
X129821666Y-115293000D02*
X129821666Y-115759666D01*
X129655000Y-115026333D02*
X129488333Y-115526333D01*
X129921666Y-115526333D01*
X130321666Y-115059666D02*
X130388333Y-115059666D01*
X130455000Y-115093000D01*
X130488333Y-115126333D01*
X130521666Y-115193000D01*
X130555000Y-115326333D01*
X130555000Y-115493000D01*
X130521666Y-115626333D01*
X130488333Y-115693000D01*
X130455000Y-115726333D01*
X130388333Y-115759666D01*
X130321666Y-115759666D01*
X130255000Y-115726333D01*
X130221666Y-115693000D01*
X130188333Y-115626333D01*
X130155000Y-115493000D01*
X130155000Y-115326333D01*
X130188333Y-115193000D01*
X130221666Y-115126333D01*
X130255000Y-115093000D01*
X130321666Y-115059666D01*
X130788333Y-115059666D02*
X131221666Y-115059666D01*
X130988333Y-115326333D01*
X131088333Y-115326333D01*
X131155000Y-115359666D01*
X131188333Y-115393000D01*
X131221666Y-115459666D01*
X131221666Y-115626333D01*
X131188333Y-115693000D01*
X131155000Y-115726333D01*
X131088333Y-115759666D01*
X130888333Y-115759666D01*
X130821666Y-115726333D01*
X130788333Y-115693000D01*
D11*
X134557000Y-105717190D02*
X134604619Y-105717190D01*
X134652238Y-105741000D01*
X134676047Y-105764809D01*
X134699857Y-105812428D01*
X134723666Y-105907666D01*
X134723666Y-106026714D01*
X134699857Y-106121952D01*
X134676047Y-106169571D01*
X134652238Y-106193380D01*
X134604619Y-106217190D01*
X134557000Y-106217190D01*
X134509380Y-106193380D01*
X134485571Y-106169571D01*
X134461761Y-106121952D01*
X134437952Y-106026714D01*
X134437952Y-105907666D01*
X134461761Y-105812428D01*
X134485571Y-105764809D01*
X134509380Y-105741000D01*
X134557000Y-105717190D01*
X135390333Y-106217190D02*
X135342714Y-106193380D01*
X135318904Y-106169571D01*
X135295095Y-106121952D01*
X135295095Y-105979095D01*
X135318904Y-105931476D01*
X135342714Y-105907666D01*
X135390333Y-105883857D01*
X135461761Y-105883857D01*
X135509380Y-105907666D01*
X135533190Y-105931476D01*
X135557000Y-105979095D01*
X135557000Y-106121952D01*
X135533190Y-106169571D01*
X135509380Y-106193380D01*
X135461761Y-106217190D01*
X135390333Y-106217190D01*
X135771285Y-106217190D02*
X135771285Y-105717190D01*
X135985571Y-106217190D02*
X135985571Y-105955285D01*
X135961761Y-105907666D01*
X135914142Y-105883857D01*
X135842714Y-105883857D01*
X135795095Y-105907666D01*
X135771285Y-105931476D01*
X136223666Y-106217190D02*
X136223666Y-105883857D01*
X136223666Y-105931476D02*
X136247476Y-105907666D01*
X136295095Y-105883857D01*
X136366523Y-105883857D01*
X136414142Y-105907666D01*
X136437952Y-105955285D01*
X136437952Y-106217190D01*
X136437952Y-105955285D02*
X136461761Y-105907666D01*
X136509380Y-105883857D01*
X136580809Y-105883857D01*
X136628428Y-105907666D01*
X136652238Y-105955285D01*
X136652238Y-106217190D01*
D10*
X176547476Y-113843380D02*
X176214142Y-113367190D01*
X175976047Y-113843380D02*
X175976047Y-112843380D01*
X176357000Y-112843380D01*
X176452238Y-112891000D01*
X176499857Y-112938619D01*
X176547476Y-113033857D01*
X176547476Y-113176714D01*
X176499857Y-113271952D01*
X176452238Y-113319571D01*
X176357000Y-113367190D01*
X175976047Y-113367190D01*
X176976047Y-113462428D02*
X177737952Y-113462428D01*
X177357000Y-113843380D02*
X177357000Y-113081476D01*
X143184952Y-118562428D02*
X143232571Y-118514809D01*
X143327809Y-118467190D01*
X143518285Y-118562428D01*
X143613523Y-118514809D01*
X143661142Y-118467190D01*
X144470666Y-118276714D02*
X144470666Y-119086238D01*
X144423047Y-119181476D01*
X144375428Y-119229095D01*
X144280190Y-119276714D01*
X144137333Y-119276714D01*
X144042095Y-119229095D01*
X144470666Y-118895761D02*
X144375428Y-118943380D01*
X144184952Y-118943380D01*
X144089714Y-118895761D01*
X144042095Y-118848142D01*
X143994476Y-118752904D01*
X143994476Y-118467190D01*
X144042095Y-118371952D01*
X144089714Y-118324333D01*
X144184952Y-118276714D01*
X144375428Y-118276714D01*
X144470666Y-118324333D01*
X145375428Y-118943380D02*
X145375428Y-118419571D01*
X145327809Y-118324333D01*
X145232571Y-118276714D01*
X145042095Y-118276714D01*
X144946857Y-118324333D01*
X145375428Y-118895761D02*
X145280190Y-118943380D01*
X145042095Y-118943380D01*
X144946857Y-118895761D01*
X144899238Y-118800523D01*
X144899238Y-118705285D01*
X144946857Y-118610047D01*
X145042095Y-118562428D01*
X145280190Y-118562428D01*
X145375428Y-118514809D01*
X145851619Y-118943380D02*
X145851619Y-118276714D01*
X145851619Y-117943380D02*
X145804000Y-117991000D01*
X145851619Y-118038619D01*
X145899238Y-117991000D01*
X145851619Y-117943380D01*
X145851619Y-118038619D01*
X146327809Y-118276714D02*
X146327809Y-118943380D01*
X146327809Y-118371952D02*
X146375428Y-118324333D01*
X146470666Y-118276714D01*
X146613523Y-118276714D01*
X146708761Y-118324333D01*
X146756380Y-118419571D01*
X146756380Y-118943380D01*
X147423047Y-117943380D02*
X147613523Y-117943380D01*
X147708761Y-117991000D01*
X147804000Y-118086238D01*
X147851619Y-118276714D01*
X147851619Y-118610047D01*
X147804000Y-118800523D01*
X147708761Y-118895761D01*
X147613523Y-118943380D01*
X147423047Y-118943380D01*
X147327809Y-118895761D01*
X147232571Y-118800523D01*
X147184952Y-118610047D01*
X147184952Y-118276714D01*
X147232571Y-118086238D01*
X147327809Y-117991000D01*
X147423047Y-117943380D01*
X148708761Y-118276714D02*
X148708761Y-118943380D01*
X148280190Y-118276714D02*
X148280190Y-118800523D01*
X148327809Y-118895761D01*
X148423047Y-118943380D01*
X148565904Y-118943380D01*
X148661142Y-118895761D01*
X148708761Y-118848142D01*
X149042095Y-118276714D02*
X149423047Y-118276714D01*
X149184952Y-117943380D02*
X149184952Y-118800523D01*
X149232571Y-118895761D01*
X149327809Y-118943380D01*
X149423047Y-118943380D01*
X132723095Y-95151380D02*
X132627857Y-95103761D01*
X132580238Y-95056142D01*
X132532619Y-94960904D01*
X132532619Y-94675190D01*
X132580238Y-94579952D01*
X132627857Y-94532333D01*
X132723095Y-94484714D01*
X132865952Y-94484714D01*
X132961190Y-94532333D01*
X133008809Y-94579952D01*
X133056428Y-94675190D01*
X133056428Y-94960904D01*
X133008809Y-95056142D01*
X132961190Y-95103761D01*
X132865952Y-95151380D01*
X132723095Y-95151380D01*
X133485000Y-94484714D02*
X133485000Y-95484714D01*
X133485000Y-94532333D02*
X133580238Y-94484714D01*
X133770714Y-94484714D01*
X133865952Y-94532333D01*
X133913571Y-94579952D01*
X133961190Y-94675190D01*
X133961190Y-94960904D01*
X133913571Y-95056142D01*
X133865952Y-95103761D01*
X133770714Y-95151380D01*
X133580238Y-95151380D01*
X133485000Y-95103761D01*
X134246904Y-94484714D02*
X134627857Y-94484714D01*
X134389761Y-94151380D02*
X134389761Y-95008523D01*
X134437380Y-95103761D01*
X134532619Y-95151380D01*
X134627857Y-95151380D01*
X135104047Y-95151380D02*
X135008809Y-95103761D01*
X134961190Y-95056142D01*
X134913571Y-94960904D01*
X134913571Y-94675190D01*
X134961190Y-94579952D01*
X135008809Y-94532333D01*
X135104047Y-94484714D01*
X135246904Y-94484714D01*
X135342142Y-94532333D01*
X135389761Y-94579952D01*
X135437380Y-94675190D01*
X135437380Y-94960904D01*
X135389761Y-95056142D01*
X135342142Y-95103761D01*
X135246904Y-95151380D01*
X135104047Y-95151380D01*
X133056428Y-96094714D02*
X133056428Y-96904238D01*
X133008809Y-96999476D01*
X132961190Y-97047095D01*
X132865952Y-97094714D01*
X132723095Y-97094714D01*
X132627857Y-97047095D01*
X133056428Y-96713761D02*
X132961190Y-96761380D01*
X132770714Y-96761380D01*
X132675476Y-96713761D01*
X132627857Y-96666142D01*
X132580238Y-96570904D01*
X132580238Y-96285190D01*
X132627857Y-96189952D01*
X132675476Y-96142333D01*
X132770714Y-96094714D01*
X132961190Y-96094714D01*
X133056428Y-96142333D01*
X133961190Y-96761380D02*
X133961190Y-96237571D01*
X133913571Y-96142333D01*
X133818333Y-96094714D01*
X133627857Y-96094714D01*
X133532619Y-96142333D01*
X133961190Y-96713761D02*
X133865952Y-96761380D01*
X133627857Y-96761380D01*
X133532619Y-96713761D01*
X133485000Y-96618523D01*
X133485000Y-96523285D01*
X133532619Y-96428047D01*
X133627857Y-96380428D01*
X133865952Y-96380428D01*
X133961190Y-96332809D01*
X134437380Y-96761380D02*
X134437380Y-96094714D01*
X134437380Y-95761380D02*
X134389761Y-95809000D01*
X134437380Y-95856619D01*
X134485000Y-95809000D01*
X134437380Y-95761380D01*
X134437380Y-95856619D01*
X134913571Y-96094714D02*
X134913571Y-96761380D01*
X134913571Y-96189952D02*
X134961190Y-96142333D01*
X135056428Y-96094714D01*
X135199285Y-96094714D01*
X135294523Y-96142333D01*
X135342142Y-96237571D01*
X135342142Y-96761380D01*
X176447476Y-105943380D02*
X175971285Y-105943380D01*
X175971285Y-104943380D01*
X176780809Y-105562428D02*
X177542714Y-105562428D01*
X177161761Y-105943380D02*
X177161761Y-105181476D01*
X150153666Y-103996857D02*
X150153666Y-103520666D01*
X150439380Y-104092095D02*
X149439380Y-103758761D01*
X150439380Y-103425428D01*
X149772714Y-102663523D02*
X150439380Y-102663523D01*
X149772714Y-103092095D02*
X150296523Y-103092095D01*
X150391761Y-103044476D01*
X150439380Y-102949238D01*
X150439380Y-102806380D01*
X150391761Y-102711142D01*
X150344142Y-102663523D01*
X150439380Y-102282571D02*
X149772714Y-101758761D01*
X149772714Y-102282571D02*
X150439380Y-101758761D01*
X150439380Y-101377809D02*
X149772714Y-101377809D01*
X149439380Y-101377809D02*
X149487000Y-101425428D01*
X149534619Y-101377809D01*
X149487000Y-101330190D01*
X149439380Y-101377809D01*
X149534619Y-101377809D01*
X149772714Y-100901619D02*
X150439380Y-100901619D01*
X149867952Y-100901619D02*
X149820333Y-100854000D01*
X149772714Y-100758761D01*
X149772714Y-100615904D01*
X149820333Y-100520666D01*
X149915571Y-100473047D01*
X150439380Y-100473047D01*
X150058428Y-100139714D02*
X150010809Y-100092095D01*
X149963190Y-99996857D01*
X150058428Y-99806380D01*
X150010809Y-99711142D01*
X149963190Y-99663523D01*
X176547476Y-111243380D02*
X176214142Y-110767190D01*
X175976047Y-111243380D02*
X175976047Y-110243380D01*
X176357000Y-110243380D01*
X176452238Y-110291000D01*
X176499857Y-110338619D01*
X176547476Y-110433857D01*
X176547476Y-110576714D01*
X176499857Y-110671952D01*
X176452238Y-110719571D01*
X176357000Y-110767190D01*
X175976047Y-110767190D01*
X176976047Y-110862428D02*
X177737952Y-110862428D01*
X143430904Y-95543666D02*
X143907095Y-95543666D01*
X143335666Y-95829380D02*
X143669000Y-94829380D01*
X144002333Y-95829380D01*
X144764238Y-95162714D02*
X144764238Y-95829380D01*
X144335666Y-95162714D02*
X144335666Y-95686523D01*
X144383285Y-95781761D01*
X144478523Y-95829380D01*
X144621380Y-95829380D01*
X144716619Y-95781761D01*
X144764238Y-95734142D01*
X145145190Y-95829380D02*
X145669000Y-95162714D01*
X145145190Y-95162714D02*
X145669000Y-95829380D01*
X145907095Y-94829380D02*
X146240428Y-95829380D01*
X146573761Y-94829380D01*
X147049952Y-95829380D02*
X146954714Y-95781761D01*
X146907095Y-95734142D01*
X146859476Y-95638904D01*
X146859476Y-95353190D01*
X146907095Y-95257952D01*
X146954714Y-95210333D01*
X147049952Y-95162714D01*
X147192809Y-95162714D01*
X147288047Y-95210333D01*
X147335666Y-95257952D01*
X147383285Y-95353190D01*
X147383285Y-95638904D01*
X147335666Y-95734142D01*
X147288047Y-95781761D01*
X147192809Y-95829380D01*
X147049952Y-95829380D01*
X147954714Y-95829380D02*
X147859476Y-95781761D01*
X147811857Y-95686523D01*
X147811857Y-94829380D01*
X172884928Y-115602785D02*
X173027785Y-115602785D01*
X173099214Y-115638500D01*
X173170642Y-115709928D01*
X173206357Y-115852785D01*
X173206357Y-116102785D01*
X173170642Y-116245642D01*
X173099214Y-116317071D01*
X173027785Y-116352785D01*
X172884928Y-116352785D01*
X172813500Y-116317071D01*
X172742071Y-116245642D01*
X172706357Y-116102785D01*
X172706357Y-115852785D01*
X172742071Y-115709928D01*
X172813500Y-115638500D01*
X172884928Y-115602785D01*
X173527785Y-115852785D02*
X173527785Y-116602785D01*
X173527785Y-115888500D02*
X173599214Y-115852785D01*
X173742071Y-115852785D01*
X173813500Y-115888500D01*
X173849214Y-115924214D01*
X173884928Y-115995642D01*
X173884928Y-116209928D01*
X173849214Y-116281357D01*
X173813500Y-116317071D01*
X173742071Y-116352785D01*
X173599214Y-116352785D01*
X173527785Y-116317071D01*
X174099214Y-115852785D02*
X174384928Y-115852785D01*
X174206357Y-115602785D02*
X174206357Y-116245642D01*
X174242071Y-116317071D01*
X174313500Y-116352785D01*
X174384928Y-116352785D01*
X174634928Y-116352785D02*
X174634928Y-115852785D01*
X174634928Y-115602785D02*
X174599214Y-115638500D01*
X174634928Y-115674214D01*
X174670642Y-115638500D01*
X174634928Y-115602785D01*
X174634928Y-115674214D01*
X175313500Y-116317071D02*
X175242071Y-116352785D01*
X175099214Y-116352785D01*
X175027785Y-116317071D01*
X174992071Y-116281357D01*
X174956357Y-116209928D01*
X174956357Y-115995642D01*
X174992071Y-115924214D01*
X175027785Y-115888500D01*
X175099214Y-115852785D01*
X175242071Y-115852785D01*
X175313500Y-115888500D01*
X175956357Y-116352785D02*
X175956357Y-115959928D01*
X175920642Y-115888500D01*
X175849214Y-115852785D01*
X175706357Y-115852785D01*
X175634928Y-115888500D01*
X175956357Y-116317071D02*
X175884928Y-116352785D01*
X175706357Y-116352785D01*
X175634928Y-116317071D01*
X175599214Y-116245642D01*
X175599214Y-116174214D01*
X175634928Y-116102785D01*
X175706357Y-116067071D01*
X175884928Y-116067071D01*
X175956357Y-116031357D01*
X176420642Y-116352785D02*
X176349214Y-116317071D01*
X176313500Y-116245642D01*
X176313500Y-115602785D01*
X177242071Y-116317071D02*
X177349214Y-116352785D01*
X177527785Y-116352785D01*
X177599214Y-116317071D01*
X177634928Y-116281357D01*
X177670642Y-116209928D01*
X177670642Y-116138500D01*
X177634928Y-116067071D01*
X177599214Y-116031357D01*
X177527785Y-115995642D01*
X177384928Y-115959928D01*
X177313500Y-115924214D01*
X177277785Y-115888500D01*
X177242071Y-115817071D01*
X177242071Y-115745642D01*
X177277785Y-115674214D01*
X177313500Y-115638500D01*
X177384928Y-115602785D01*
X177563500Y-115602785D01*
X177670642Y-115638500D01*
X178313500Y-115852785D02*
X178313500Y-116352785D01*
X177992071Y-115852785D02*
X177992071Y-116245642D01*
X178027785Y-116317071D01*
X178099214Y-116352785D01*
X178206357Y-116352785D01*
X178277785Y-116317071D01*
X178313500Y-116281357D01*
X178634928Y-116317071D02*
X178706357Y-116352785D01*
X178849214Y-116352785D01*
X178920642Y-116317071D01*
X178956357Y-116245642D01*
X178956357Y-116209928D01*
X178920642Y-116138500D01*
X178849214Y-116102785D01*
X178742071Y-116102785D01*
X178670642Y-116067071D01*
X178634928Y-115995642D01*
X178634928Y-115959928D01*
X178670642Y-115888500D01*
X178742071Y-115852785D01*
X178849214Y-115852785D01*
X178920642Y-115888500D01*
X179170642Y-115852785D02*
X179456357Y-115852785D01*
X179277785Y-115602785D02*
X179277785Y-116245642D01*
X179313500Y-116317071D01*
X179384928Y-116352785D01*
X179456357Y-116352785D01*
X180027785Y-116352785D02*
X180027785Y-115959928D01*
X179992071Y-115888500D01*
X179920642Y-115852785D01*
X179777785Y-115852785D01*
X179706357Y-115888500D01*
X180027785Y-116317071D02*
X179956357Y-116352785D01*
X179777785Y-116352785D01*
X179706357Y-116317071D01*
X179670642Y-116245642D01*
X179670642Y-116174214D01*
X179706357Y-116102785D01*
X179777785Y-116067071D01*
X179956357Y-116067071D01*
X180027785Y-116031357D01*
X180384928Y-116352785D02*
X180384928Y-115852785D01*
X180384928Y-115602785D02*
X180349214Y-115638500D01*
X180384928Y-115674214D01*
X180420642Y-115638500D01*
X180384928Y-115602785D01*
X180384928Y-115674214D01*
X180742071Y-115852785D02*
X180742071Y-116352785D01*
X180742071Y-115924214D02*
X180777785Y-115888500D01*
X180849214Y-115852785D01*
X180956357Y-115852785D01*
X181027785Y-115888500D01*
X181063500Y-115959928D01*
X181063500Y-116352785D01*
X181706357Y-116317071D02*
X181634928Y-116352785D01*
X181492071Y-116352785D01*
X181420642Y-116317071D01*
X181384928Y-116245642D01*
X181384928Y-115959928D01*
X181420642Y-115888500D01*
X181492071Y-115852785D01*
X181634928Y-115852785D01*
X181706357Y-115888500D01*
X181742071Y-115959928D01*
X181742071Y-116031357D01*
X181384928Y-116102785D01*
X182063500Y-116352785D02*
X182063500Y-115852785D01*
X182063500Y-115995642D02*
X182099214Y-115924214D01*
X182134928Y-115888500D01*
X182206357Y-115852785D01*
X182277785Y-115852785D01*
X172706357Y-117346000D02*
X173063500Y-117346000D01*
X172634928Y-117560285D02*
X172884928Y-116810285D01*
X173134928Y-117560285D01*
X173706357Y-117560285D02*
X173706357Y-116810285D01*
X173706357Y-117524571D02*
X173634928Y-117560285D01*
X173492071Y-117560285D01*
X173420642Y-117524571D01*
X173384928Y-117488857D01*
X173349214Y-117417428D01*
X173349214Y-117203142D01*
X173384928Y-117131714D01*
X173420642Y-117096000D01*
X173492071Y-117060285D01*
X173634928Y-117060285D01*
X173706357Y-117096000D01*
X174384928Y-117560285D02*
X174384928Y-117167428D01*
X174349214Y-117096000D01*
X174277785Y-117060285D01*
X174134928Y-117060285D01*
X174063500Y-117096000D01*
X174384928Y-117524571D02*
X174313500Y-117560285D01*
X174134928Y-117560285D01*
X174063500Y-117524571D01*
X174027785Y-117453142D01*
X174027785Y-117381714D01*
X174063500Y-117310285D01*
X174134928Y-117274571D01*
X174313500Y-117274571D01*
X174384928Y-117238857D01*
X174742071Y-117560285D02*
X174742071Y-117060285D01*
X174742071Y-117131714D02*
X174777785Y-117096000D01*
X174849214Y-117060285D01*
X174956357Y-117060285D01*
X175027785Y-117096000D01*
X175063500Y-117167428D01*
X175063500Y-117560285D01*
X175063500Y-117167428D02*
X175099214Y-117096000D01*
X175170642Y-117060285D01*
X175277785Y-117060285D01*
X175349214Y-117096000D01*
X175384928Y-117167428D01*
X175384928Y-117560285D01*
X176277785Y-117524571D02*
X176384928Y-117560285D01*
X176563500Y-117560285D01*
X176634928Y-117524571D01*
X176670642Y-117488857D01*
X176706357Y-117417428D01*
X176706357Y-117346000D01*
X176670642Y-117274571D01*
X176634928Y-117238857D01*
X176563500Y-117203142D01*
X176420642Y-117167428D01*
X176349214Y-117131714D01*
X176313500Y-117096000D01*
X176277785Y-117024571D01*
X176277785Y-116953142D01*
X176313500Y-116881714D01*
X176349214Y-116846000D01*
X176420642Y-116810285D01*
X176599214Y-116810285D01*
X176706357Y-116846000D01*
X177349214Y-117524571D02*
X177277785Y-117560285D01*
X177134928Y-117560285D01*
X177063500Y-117524571D01*
X177027785Y-117488857D01*
X176992071Y-117417428D01*
X176992071Y-117203142D01*
X177027785Y-117131714D01*
X177063500Y-117096000D01*
X177134928Y-117060285D01*
X177277785Y-117060285D01*
X177349214Y-117096000D01*
X177670642Y-117560285D02*
X177670642Y-116810285D01*
X177992071Y-117560285D02*
X177992071Y-117167428D01*
X177956357Y-117096000D01*
X177884928Y-117060285D01*
X177777785Y-117060285D01*
X177706357Y-117096000D01*
X177670642Y-117131714D01*
X178349214Y-117560285D02*
X178349214Y-117060285D01*
X178349214Y-117131714D02*
X178384928Y-117096000D01*
X178456357Y-117060285D01*
X178563500Y-117060285D01*
X178634928Y-117096000D01*
X178670642Y-117167428D01*
X178670642Y-117560285D01*
X178670642Y-117167428D02*
X178706357Y-117096000D01*
X178777785Y-117060285D01*
X178884928Y-117060285D01*
X178956357Y-117096000D01*
X178992071Y-117167428D01*
X178992071Y-117560285D01*
X179349214Y-117560285D02*
X179349214Y-117060285D01*
X179349214Y-116810285D02*
X179313500Y-116846000D01*
X179349214Y-116881714D01*
X179384928Y-116846000D01*
X179349214Y-116810285D01*
X179349214Y-116881714D01*
X180027785Y-117560285D02*
X180027785Y-116810285D01*
X180027785Y-117524571D02*
X179956357Y-117560285D01*
X179813500Y-117560285D01*
X179742071Y-117524571D01*
X179706357Y-117488857D01*
X179670642Y-117417428D01*
X179670642Y-117203142D01*
X179706357Y-117131714D01*
X179742071Y-117096000D01*
X179813500Y-117060285D01*
X179956357Y-117060285D01*
X180027785Y-117096000D01*
X180277785Y-117060285D02*
X180563500Y-117060285D01*
X180384928Y-116810285D02*
X180384928Y-117453142D01*
X180420642Y-117524571D01*
X180492071Y-117560285D01*
X180563500Y-117560285D01*
X172706357Y-118732071D02*
X172813500Y-118767785D01*
X172992071Y-118767785D01*
X173063500Y-118732071D01*
X173099214Y-118696357D01*
X173134928Y-118624928D01*
X173134928Y-118553500D01*
X173099214Y-118482071D01*
X173063500Y-118446357D01*
X172992071Y-118410642D01*
X172849214Y-118374928D01*
X172777785Y-118339214D01*
X172742071Y-118303500D01*
X172706357Y-118232071D01*
X172706357Y-118160642D01*
X172742071Y-118089214D01*
X172777785Y-118053500D01*
X172849214Y-118017785D01*
X173027785Y-118017785D01*
X173134928Y-118053500D01*
X173742071Y-118732071D02*
X173670642Y-118767785D01*
X173527785Y-118767785D01*
X173456357Y-118732071D01*
X173420642Y-118660642D01*
X173420642Y-118374928D01*
X173456357Y-118303500D01*
X173527785Y-118267785D01*
X173670642Y-118267785D01*
X173742071Y-118303500D01*
X173777785Y-118374928D01*
X173777785Y-118446357D01*
X173420642Y-118517785D01*
X174099214Y-118267785D02*
X174099214Y-119017785D01*
X174099214Y-118303500D02*
X174170642Y-118267785D01*
X174313500Y-118267785D01*
X174384928Y-118303500D01*
X174420642Y-118339214D01*
X174456357Y-118410642D01*
X174456357Y-118624928D01*
X174420642Y-118696357D01*
X174384928Y-118732071D01*
X174313500Y-118767785D01*
X174170642Y-118767785D01*
X174099214Y-118732071D01*
X175313500Y-118089214D02*
X175349214Y-118053500D01*
X175420642Y-118017785D01*
X175599214Y-118017785D01*
X175670642Y-118053500D01*
X175706357Y-118089214D01*
X175742071Y-118160642D01*
X175742071Y-118232071D01*
X175706357Y-118339214D01*
X175277785Y-118767785D01*
X175742071Y-118767785D01*
X176456357Y-118767785D02*
X176027785Y-118767785D01*
X176242071Y-118767785D02*
X176242071Y-118017785D01*
X176170642Y-118124928D01*
X176099214Y-118196357D01*
X176027785Y-118232071D01*
X176813500Y-118732071D02*
X176813500Y-118767785D01*
X176777785Y-118839214D01*
X176742071Y-118874928D01*
X177670642Y-118089214D02*
X177706357Y-118053500D01*
X177777785Y-118017785D01*
X177956357Y-118017785D01*
X178027785Y-118053500D01*
X178063500Y-118089214D01*
X178099214Y-118160642D01*
X178099214Y-118232071D01*
X178063500Y-118339214D01*
X177634928Y-118767785D01*
X178099214Y-118767785D01*
X178563500Y-118017785D02*
X178634928Y-118017785D01*
X178706357Y-118053500D01*
X178742071Y-118089214D01*
X178777785Y-118160642D01*
X178813500Y-118303500D01*
X178813500Y-118482071D01*
X178777785Y-118624928D01*
X178742071Y-118696357D01*
X178706357Y-118732071D01*
X178634928Y-118767785D01*
X178563500Y-118767785D01*
X178492071Y-118732071D01*
X178456357Y-118696357D01*
X178420642Y-118624928D01*
X178384928Y-118482071D01*
X178384928Y-118303500D01*
X178420642Y-118160642D01*
X178456357Y-118089214D01*
X178492071Y-118053500D01*
X178563500Y-118017785D01*
X179099214Y-118089214D02*
X179134928Y-118053500D01*
X179206357Y-118017785D01*
X179384928Y-118017785D01*
X179456357Y-118053500D01*
X179492071Y-118089214D01*
X179527785Y-118160642D01*
X179527785Y-118232071D01*
X179492071Y-118339214D01*
X179063500Y-118767785D01*
X179527785Y-118767785D01*
X179777785Y-118017785D02*
X180242071Y-118017785D01*
X179992071Y-118303500D01*
X180099214Y-118303500D01*
X180170642Y-118339214D01*
X180206357Y-118374928D01*
X180242071Y-118446357D01*
X180242071Y-118624928D01*
X180206357Y-118696357D01*
X180170642Y-118732071D01*
X180099214Y-118767785D01*
X179884928Y-118767785D01*
X179813500Y-118732071D01*
X179777785Y-118696357D01*
X150757285Y-118562428D02*
X150804904Y-118514809D01*
X150900142Y-118467190D01*
X151090619Y-118562428D01*
X151185857Y-118514809D01*
X151233476Y-118467190D01*
X152043000Y-118943380D02*
X152043000Y-117943380D01*
X152043000Y-118895761D02*
X151947761Y-118943380D01*
X151757285Y-118943380D01*
X151662047Y-118895761D01*
X151614428Y-118848142D01*
X151566809Y-118752904D01*
X151566809Y-118467190D01*
X151614428Y-118371952D01*
X151662047Y-118324333D01*
X151757285Y-118276714D01*
X151947761Y-118276714D01*
X152043000Y-118324333D01*
X152519190Y-118943380D02*
X152519190Y-118276714D01*
X152519190Y-117943380D02*
X152471571Y-117991000D01*
X152519190Y-118038619D01*
X152566809Y-117991000D01*
X152519190Y-117943380D01*
X152519190Y-118038619D01*
X152852523Y-118276714D02*
X153233476Y-118276714D01*
X152995380Y-118943380D02*
X152995380Y-118086238D01*
X153043000Y-117991000D01*
X153138238Y-117943380D01*
X153233476Y-117943380D01*
X153423952Y-118276714D02*
X153804904Y-118276714D01*
X153566809Y-118943380D02*
X153566809Y-118086238D01*
X153614428Y-117991000D01*
X153709666Y-117943380D01*
X153804904Y-117943380D01*
X154328714Y-117943380D02*
X154519190Y-117943380D01*
X154614428Y-117991000D01*
X154709666Y-118086238D01*
X154757285Y-118276714D01*
X154757285Y-118610047D01*
X154709666Y-118800523D01*
X154614428Y-118895761D01*
X154519190Y-118943380D01*
X154328714Y-118943380D01*
X154233476Y-118895761D01*
X154138238Y-118800523D01*
X154090619Y-118610047D01*
X154090619Y-118276714D01*
X154138238Y-118086238D01*
X154233476Y-117991000D01*
X154328714Y-117943380D01*
X155614428Y-118276714D02*
X155614428Y-118943380D01*
X155185857Y-118276714D02*
X155185857Y-118800523D01*
X155233476Y-118895761D01*
X155328714Y-118943380D01*
X155471571Y-118943380D01*
X155566809Y-118895761D01*
X155614428Y-118848142D01*
X155947761Y-118276714D02*
X156328714Y-118276714D01*
X156090619Y-117943380D02*
X156090619Y-118800523D01*
X156138238Y-118895761D01*
X156233476Y-118943380D01*
X156328714Y-118943380D01*
X176447476Y-108543380D02*
X175971285Y-108543380D01*
X175971285Y-107543380D01*
X176780809Y-108162428D02*
X177542714Y-108162428D01*
X132794714Y-118562428D02*
X132842333Y-118514809D01*
X132937571Y-118467190D01*
X133128047Y-118562428D01*
X133223285Y-118514809D01*
X133270904Y-118467190D01*
X133794714Y-118943380D02*
X133699476Y-118895761D01*
X133651857Y-118848142D01*
X133604238Y-118752904D01*
X133604238Y-118467190D01*
X133651857Y-118371952D01*
X133699476Y-118324333D01*
X133794714Y-118276714D01*
X133937571Y-118276714D01*
X134032809Y-118324333D01*
X134080428Y-118371952D01*
X134128047Y-118467190D01*
X134128047Y-118752904D01*
X134080428Y-118848142D01*
X134032809Y-118895761D01*
X133937571Y-118943380D01*
X133794714Y-118943380D01*
X134556619Y-118276714D02*
X134556619Y-119276714D01*
X134556619Y-118324333D02*
X134651857Y-118276714D01*
X134842333Y-118276714D01*
X134937571Y-118324333D01*
X134985190Y-118371952D01*
X135032809Y-118467190D01*
X135032809Y-118752904D01*
X134985190Y-118848142D01*
X134937571Y-118895761D01*
X134842333Y-118943380D01*
X134651857Y-118943380D01*
X134556619Y-118895761D01*
X135318523Y-118276714D02*
X135699476Y-118276714D01*
X135461380Y-117943380D02*
X135461380Y-118800523D01*
X135509000Y-118895761D01*
X135604238Y-118943380D01*
X135699476Y-118943380D01*
X136223285Y-117943380D02*
X136413761Y-117943380D01*
X136509000Y-117991000D01*
X136604238Y-118086238D01*
X136651857Y-118276714D01*
X136651857Y-118610047D01*
X136604238Y-118800523D01*
X136509000Y-118895761D01*
X136413761Y-118943380D01*
X136223285Y-118943380D01*
X136128047Y-118895761D01*
X136032809Y-118800523D01*
X135985190Y-118610047D01*
X135985190Y-118276714D01*
X136032809Y-118086238D01*
X136128047Y-117991000D01*
X136223285Y-117943380D01*
X137509000Y-118276714D02*
X137509000Y-118943380D01*
X137080428Y-118276714D02*
X137080428Y-118800523D01*
X137128047Y-118895761D01*
X137223285Y-118943380D01*
X137366142Y-118943380D01*
X137461380Y-118895761D01*
X137509000Y-118848142D01*
X137842333Y-118276714D02*
X138223285Y-118276714D01*
X137985190Y-117943380D02*
X137985190Y-118800523D01*
X138032809Y-118895761D01*
X138128047Y-118943380D01*
X138223285Y-118943380D01*
D12*
%TO.C,TP4*%
X154564666Y-115948666D02*
X154964666Y-115948666D01*
X154764666Y-116648666D02*
X154764666Y-115948666D01*
X155198000Y-116648666D02*
X155198000Y-115948666D01*
X155464666Y-115948666D01*
X155531333Y-115982000D01*
X155564666Y-116015333D01*
X155598000Y-116082000D01*
X155598000Y-116182000D01*
X155564666Y-116248666D01*
X155531333Y-116282000D01*
X155464666Y-116315333D01*
X155198000Y-116315333D01*
X156198000Y-116182000D02*
X156198000Y-116648666D01*
X156031333Y-115915333D02*
X155864666Y-116415333D01*
X156298000Y-116415333D01*
%TO.C,C2*%
X136635571Y-109857666D02*
X136659380Y-109905285D01*
X136683190Y-110048142D01*
X136683190Y-110143380D01*
X136659380Y-110286238D01*
X136611761Y-110381476D01*
X136564142Y-110429095D01*
X136468904Y-110476714D01*
X136397476Y-110476714D01*
X136302238Y-110429095D01*
X136254619Y-110381476D01*
X136207000Y-110286238D01*
X136183190Y-110143380D01*
X136183190Y-110048142D01*
X136207000Y-109905285D01*
X136230809Y-109857666D01*
X136230809Y-109476714D02*
X136207000Y-109429095D01*
X136183190Y-109333857D01*
X136183190Y-109095761D01*
X136207000Y-109000523D01*
X136230809Y-108952904D01*
X136278428Y-108905285D01*
X136326047Y-108905285D01*
X136397476Y-108952904D01*
X136683190Y-109524333D01*
X136683190Y-108905285D01*
%TO.C,R4*%
X130873666Y-106317190D02*
X130707000Y-106079095D01*
X130587952Y-106317190D02*
X130587952Y-105817190D01*
X130778428Y-105817190D01*
X130826047Y-105841000D01*
X130849857Y-105864809D01*
X130873666Y-105912428D01*
X130873666Y-105983857D01*
X130849857Y-106031476D01*
X130826047Y-106055285D01*
X130778428Y-106079095D01*
X130587952Y-106079095D01*
X131302238Y-105983857D02*
X131302238Y-106317190D01*
X131183190Y-105793380D02*
X131064142Y-106150523D01*
X131373666Y-106150523D01*
%TO.C,R11*%
X133035571Y-106217190D02*
X132868904Y-105979095D01*
X132749857Y-106217190D02*
X132749857Y-105717190D01*
X132940333Y-105717190D01*
X132987952Y-105741000D01*
X133011761Y-105764809D01*
X133035571Y-105812428D01*
X133035571Y-105883857D01*
X133011761Y-105931476D01*
X132987952Y-105955285D01*
X132940333Y-105979095D01*
X132749857Y-105979095D01*
X133511761Y-106217190D02*
X133226047Y-106217190D01*
X133368904Y-106217190D02*
X133368904Y-105717190D01*
X133321285Y-105788619D01*
X133273666Y-105836238D01*
X133226047Y-105860047D01*
X133987952Y-106217190D02*
X133702238Y-106217190D01*
X133845095Y-106217190D02*
X133845095Y-105717190D01*
X133797476Y-105788619D01*
X133749857Y-105836238D01*
X133702238Y-105860047D01*
D10*
%TO.C,J2*%
X173910666Y-101941380D02*
X173910666Y-102655666D01*
X173863047Y-102798523D01*
X173767809Y-102893761D01*
X173624952Y-102941380D01*
X173529714Y-102941380D01*
X174339238Y-102036619D02*
X174386857Y-101989000D01*
X174482095Y-101941380D01*
X174720190Y-101941380D01*
X174815428Y-101989000D01*
X174863047Y-102036619D01*
X174910666Y-102131857D01*
X174910666Y-102227095D01*
X174863047Y-102369952D01*
X174291619Y-102941380D01*
X174910666Y-102941380D01*
%TO.C,FB3*%
X166123666Y-110939571D02*
X165790333Y-110939571D01*
X165790333Y-111463380D02*
X165790333Y-110463380D01*
X166266523Y-110463380D01*
X166980809Y-110939571D02*
X167123666Y-110987190D01*
X167171285Y-111034809D01*
X167218904Y-111130047D01*
X167218904Y-111272904D01*
X167171285Y-111368142D01*
X167123666Y-111415761D01*
X167028428Y-111463380D01*
X166647476Y-111463380D01*
X166647476Y-110463380D01*
X166980809Y-110463380D01*
X167076047Y-110511000D01*
X167123666Y-110558619D01*
X167171285Y-110653857D01*
X167171285Y-110749095D01*
X167123666Y-110844333D01*
X167076047Y-110891952D01*
X166980809Y-110939571D01*
X166647476Y-110939571D01*
X167552238Y-110463380D02*
X168171285Y-110463380D01*
X167837952Y-110844333D01*
X167980809Y-110844333D01*
X168076047Y-110891952D01*
X168123666Y-110939571D01*
X168171285Y-111034809D01*
X168171285Y-111272904D01*
X168123666Y-111368142D01*
X168076047Y-111415761D01*
X167980809Y-111463380D01*
X167695095Y-111463380D01*
X167599857Y-111415761D01*
X167552238Y-111368142D01*
D11*
%TO.C,C3*%
X146383643Y-114455875D02*
X146407452Y-114491113D01*
X146431262Y-114596827D01*
X146431262Y-114667303D01*
X146407452Y-114773018D01*
X146359833Y-114843494D01*
X146312214Y-114878732D01*
X146216976Y-114913970D01*
X146145548Y-114913970D01*
X146050310Y-114878732D01*
X146002691Y-114843494D01*
X145955072Y-114773018D01*
X145931262Y-114667303D01*
X145931262Y-114596827D01*
X145955072Y-114491113D01*
X145978881Y-114455875D01*
X145931262Y-114209208D02*
X145931262Y-113751113D01*
X146121738Y-113997780D01*
X146121738Y-113892065D01*
X146145548Y-113821589D01*
X146169357Y-113786351D01*
X146216976Y-113751113D01*
X146336024Y-113751113D01*
X146383643Y-113786351D01*
X146407452Y-113821589D01*
X146431262Y-113892065D01*
X146431262Y-114103494D01*
X146407452Y-114173970D01*
X146383643Y-114209208D01*
D12*
%TO.C,TP1*%
X134752666Y-113535666D02*
X135152666Y-113535666D01*
X134952666Y-114235666D02*
X134952666Y-113535666D01*
X135386000Y-114235666D02*
X135386000Y-113535666D01*
X135652666Y-113535666D01*
X135719333Y-113569000D01*
X135752666Y-113602333D01*
X135786000Y-113669000D01*
X135786000Y-113769000D01*
X135752666Y-113835666D01*
X135719333Y-113869000D01*
X135652666Y-113902333D01*
X135386000Y-113902333D01*
X136452666Y-114235666D02*
X136052666Y-114235666D01*
X136252666Y-114235666D02*
X136252666Y-113535666D01*
X136186000Y-113635666D01*
X136119333Y-113702333D01*
X136052666Y-113735666D01*
D10*
%TO.C,C17*%
X171944142Y-112733857D02*
X171991761Y-112781476D01*
X172039380Y-112924333D01*
X172039380Y-113019571D01*
X171991761Y-113162428D01*
X171896523Y-113257666D01*
X171801285Y-113305285D01*
X171610809Y-113352904D01*
X171467952Y-113352904D01*
X171277476Y-113305285D01*
X171182238Y-113257666D01*
X171087000Y-113162428D01*
X171039380Y-113019571D01*
X171039380Y-112924333D01*
X171087000Y-112781476D01*
X171134619Y-112733857D01*
X172039380Y-111781476D02*
X172039380Y-112352904D01*
X172039380Y-112067190D02*
X171039380Y-112067190D01*
X171182238Y-112162428D01*
X171277476Y-112257666D01*
X171325095Y-112352904D01*
X171039380Y-111448142D02*
X171039380Y-110781476D01*
X172039380Y-111210047D01*
%TO.C,*%
%TO.C,J1*%
X174106380Y-97996333D02*
X174820666Y-97996333D01*
X174963523Y-98043952D01*
X175058761Y-98139190D01*
X175106380Y-98282047D01*
X175106380Y-98377285D01*
X175106380Y-96996333D02*
X175106380Y-97567761D01*
X175106380Y-97282047D02*
X174106380Y-97282047D01*
X174249238Y-97377285D01*
X174344476Y-97472523D01*
X174392095Y-97567761D01*
%TO.C,RV1*%
X133389761Y-100743380D02*
X133056428Y-100267190D01*
X132818333Y-100743380D02*
X132818333Y-99743380D01*
X133199285Y-99743380D01*
X133294523Y-99791000D01*
X133342142Y-99838619D01*
X133389761Y-99933857D01*
X133389761Y-100076714D01*
X133342142Y-100171952D01*
X133294523Y-100219571D01*
X133199285Y-100267190D01*
X132818333Y-100267190D01*
X133675476Y-99743380D02*
X134008809Y-100743380D01*
X134342142Y-99743380D01*
X135199285Y-100743380D02*
X134627857Y-100743380D01*
X134913571Y-100743380D02*
X134913571Y-99743380D01*
X134818333Y-99886238D01*
X134723095Y-99981476D01*
X134627857Y-100029095D01*
D11*
%TO.C,R2*%
X143190333Y-105514571D02*
X142857000Y-105276476D01*
X142618904Y-105514571D02*
X142618904Y-105014571D01*
X142999857Y-105014571D01*
X143095095Y-105038381D01*
X143142714Y-105062190D01*
X143190333Y-105109809D01*
X143190333Y-105181238D01*
X143142714Y-105228857D01*
X143095095Y-105252666D01*
X142999857Y-105276476D01*
X142618904Y-105276476D01*
X143571285Y-105062190D02*
X143618904Y-105038381D01*
X143714142Y-105014571D01*
X143952238Y-105014571D01*
X144047476Y-105038381D01*
X144095095Y-105062190D01*
X144142714Y-105109809D01*
X144142714Y-105157428D01*
X144095095Y-105228857D01*
X143523666Y-105514571D01*
X144142714Y-105514571D01*
%TO.C,R10*%
X162652317Y-97881585D02*
X162318984Y-97643490D01*
X162080889Y-97881585D02*
X162080889Y-97381585D01*
X162461841Y-97381585D01*
X162557079Y-97405395D01*
X162604698Y-97429204D01*
X162652317Y-97476823D01*
X162652317Y-97548252D01*
X162604698Y-97595871D01*
X162557079Y-97619680D01*
X162461841Y-97643490D01*
X162080889Y-97643490D01*
X163604698Y-97881585D02*
X163033270Y-97881585D01*
X163318984Y-97881585D02*
X163318984Y-97381585D01*
X163223746Y-97453014D01*
X163128508Y-97500633D01*
X163033270Y-97524442D01*
X164223746Y-97381585D02*
X164318984Y-97381585D01*
X164414222Y-97405395D01*
X164461841Y-97429204D01*
X164509460Y-97476823D01*
X164557079Y-97572061D01*
X164557079Y-97691109D01*
X164509460Y-97786347D01*
X164461841Y-97833966D01*
X164414222Y-97857775D01*
X164318984Y-97881585D01*
X164223746Y-97881585D01*
X164128508Y-97857775D01*
X164080889Y-97833966D01*
X164033270Y-97786347D01*
X163985651Y-97691109D01*
X163985651Y-97572061D01*
X164033270Y-97476823D01*
X164080889Y-97429204D01*
X164128508Y-97405395D01*
X164223746Y-97381585D01*
%TO.C,C7*%
X149851582Y-105534727D02*
X149803963Y-105558536D01*
X149661106Y-105582346D01*
X149565868Y-105582346D01*
X149423010Y-105558536D01*
X149327772Y-105510917D01*
X149280153Y-105463298D01*
X149232534Y-105368060D01*
X149232534Y-105296632D01*
X149280153Y-105201394D01*
X149327772Y-105153775D01*
X149423010Y-105106156D01*
X149565868Y-105082346D01*
X149661106Y-105082346D01*
X149803963Y-105106156D01*
X149851582Y-105129965D01*
X150184915Y-105082346D02*
X150851582Y-105082346D01*
X150423010Y-105582346D01*
D12*
%TO.C,C5*%
X150335571Y-113074333D02*
X150359380Y-113098142D01*
X150383190Y-113169571D01*
X150383190Y-113217190D01*
X150359380Y-113288619D01*
X150311761Y-113336238D01*
X150264142Y-113360047D01*
X150168904Y-113383857D01*
X150097476Y-113383857D01*
X150002238Y-113360047D01*
X149954619Y-113336238D01*
X149907000Y-113288619D01*
X149883190Y-113217190D01*
X149883190Y-113169571D01*
X149907000Y-113098142D01*
X149930809Y-113074333D01*
X149883190Y-112621952D02*
X149883190Y-112860047D01*
X150121285Y-112883857D01*
X150097476Y-112860047D01*
X150073666Y-112812428D01*
X150073666Y-112693380D01*
X150097476Y-112645761D01*
X150121285Y-112621952D01*
X150168904Y-112598142D01*
X150287952Y-112598142D01*
X150335571Y-112621952D01*
X150359380Y-112645761D01*
X150383190Y-112693380D01*
X150383190Y-112812428D01*
X150359380Y-112860047D01*
X150335571Y-112883857D01*
%TO.C,TP3*%
X145039666Y-116075666D02*
X145439666Y-116075666D01*
X145239666Y-116775666D02*
X145239666Y-116075666D01*
X145673000Y-116775666D02*
X145673000Y-116075666D01*
X145939666Y-116075666D01*
X146006333Y-116109000D01*
X146039666Y-116142333D01*
X146073000Y-116209000D01*
X146073000Y-116309000D01*
X146039666Y-116375666D01*
X146006333Y-116409000D01*
X145939666Y-116442333D01*
X145673000Y-116442333D01*
X146306333Y-116075666D02*
X146739666Y-116075666D01*
X146506333Y-116342333D01*
X146606333Y-116342333D01*
X146673000Y-116375666D01*
X146706333Y-116409000D01*
X146739666Y-116475666D01*
X146739666Y-116642333D01*
X146706333Y-116709000D01*
X146673000Y-116742333D01*
X146606333Y-116775666D01*
X146406333Y-116775666D01*
X146339666Y-116742333D01*
X146306333Y-116709000D01*
D10*
%TO.C,FB4*%
X166425666Y-117403571D02*
X166092333Y-117403571D01*
X166092333Y-117927380D02*
X166092333Y-116927380D01*
X166568523Y-116927380D01*
X167282809Y-117403571D02*
X167425666Y-117451190D01*
X167473285Y-117498809D01*
X167520904Y-117594047D01*
X167520904Y-117736904D01*
X167473285Y-117832142D01*
X167425666Y-117879761D01*
X167330428Y-117927380D01*
X166949476Y-117927380D01*
X166949476Y-116927380D01*
X167282809Y-116927380D01*
X167378047Y-116975000D01*
X167425666Y-117022619D01*
X167473285Y-117117857D01*
X167473285Y-117213095D01*
X167425666Y-117308333D01*
X167378047Y-117355952D01*
X167282809Y-117403571D01*
X166949476Y-117403571D01*
X168378047Y-117260714D02*
X168378047Y-117927380D01*
X168139952Y-116879761D02*
X167901857Y-117594047D01*
X168520904Y-117594047D01*
D12*
%TO.C,R5*%
X133383190Y-112057666D02*
X133145095Y-112391000D01*
X133383190Y-112629095D02*
X132883190Y-112629095D01*
X132883190Y-112248142D01*
X132907000Y-112152904D01*
X132930809Y-112105285D01*
X132978428Y-112057666D01*
X133049857Y-112057666D01*
X133097476Y-112105285D01*
X133121285Y-112152904D01*
X133145095Y-112248142D01*
X133145095Y-112629095D01*
X132883190Y-111152904D02*
X132883190Y-111629095D01*
X133121285Y-111676714D01*
X133097476Y-111629095D01*
X133073666Y-111533857D01*
X133073666Y-111295761D01*
X133097476Y-111200523D01*
X133121285Y-111152904D01*
X133168904Y-111105285D01*
X133287952Y-111105285D01*
X133335571Y-111152904D01*
X133359380Y-111200523D01*
X133383190Y-111295761D01*
X133383190Y-111533857D01*
X133359380Y-111629095D01*
X133335571Y-111676714D01*
D11*
%TO.C,C9*%
X152490333Y-105069571D02*
X152442714Y-105093380D01*
X152299857Y-105117190D01*
X152204619Y-105117190D01*
X152061761Y-105093380D01*
X151966523Y-105045761D01*
X151918904Y-104998142D01*
X151871285Y-104902904D01*
X151871285Y-104831476D01*
X151918904Y-104736238D01*
X151966523Y-104688619D01*
X152061761Y-104641000D01*
X152204619Y-104617190D01*
X152299857Y-104617190D01*
X152442714Y-104641000D01*
X152490333Y-104664809D01*
X152966523Y-105117190D02*
X153157000Y-105117190D01*
X153252238Y-105093380D01*
X153299857Y-105069571D01*
X153395095Y-104998142D01*
X153442714Y-104902904D01*
X153442714Y-104712428D01*
X153395095Y-104664809D01*
X153347476Y-104641000D01*
X153252238Y-104617190D01*
X153061761Y-104617190D01*
X152966523Y-104641000D01*
X152918904Y-104664809D01*
X152871285Y-104712428D01*
X152871285Y-104831476D01*
X152918904Y-104879095D01*
X152966523Y-104902904D01*
X153061761Y-104926714D01*
X153252238Y-104926714D01*
X153347476Y-104902904D01*
X153395095Y-104879095D01*
X153442714Y-104831476D01*
%TO.C,R6*%
X138992822Y-114407878D02*
X138754727Y-114657878D01*
X138992822Y-114836449D02*
X138492822Y-114836449D01*
X138492822Y-114550735D01*
X138516632Y-114479306D01*
X138540441Y-114443592D01*
X138588060Y-114407878D01*
X138659489Y-114407878D01*
X138707108Y-114443592D01*
X138730917Y-114479306D01*
X138754727Y-114550735D01*
X138754727Y-114836449D01*
X138492822Y-113765020D02*
X138492822Y-113907878D01*
X138516632Y-113979306D01*
X138540441Y-114015020D01*
X138611870Y-114086449D01*
X138707108Y-114122163D01*
X138897584Y-114122163D01*
X138945203Y-114086449D01*
X138969012Y-114050735D01*
X138992822Y-113979306D01*
X138992822Y-113836449D01*
X138969012Y-113765020D01*
X138945203Y-113729306D01*
X138897584Y-113693592D01*
X138778536Y-113693592D01*
X138730917Y-113729306D01*
X138707108Y-113765020D01*
X138683298Y-113836449D01*
X138683298Y-113979306D01*
X138707108Y-114050735D01*
X138730917Y-114086449D01*
X138778536Y-114122163D01*
D10*
%TO.C,RV2*%
X139231761Y-100743380D02*
X138898428Y-100267190D01*
X138660333Y-100743380D02*
X138660333Y-99743380D01*
X139041285Y-99743380D01*
X139136523Y-99791000D01*
X139184142Y-99838619D01*
X139231761Y-99933857D01*
X139231761Y-100076714D01*
X139184142Y-100171952D01*
X139136523Y-100219571D01*
X139041285Y-100267190D01*
X138660333Y-100267190D01*
X139517476Y-99743380D02*
X139850809Y-100743380D01*
X140184142Y-99743380D01*
X140469857Y-99838619D02*
X140517476Y-99791000D01*
X140612714Y-99743380D01*
X140850809Y-99743380D01*
X140946047Y-99791000D01*
X140993666Y-99838619D01*
X141041285Y-99933857D01*
X141041285Y-100029095D01*
X140993666Y-100171952D01*
X140422238Y-100743380D01*
X141041285Y-100743380D01*
%TO.C,C6*%
X160107333Y-96115142D02*
X160059714Y-96162761D01*
X159916857Y-96210380D01*
X159821619Y-96210380D01*
X159678761Y-96162761D01*
X159583523Y-96067523D01*
X159535904Y-95972285D01*
X159488285Y-95781809D01*
X159488285Y-95638952D01*
X159535904Y-95448476D01*
X159583523Y-95353238D01*
X159678761Y-95258000D01*
X159821619Y-95210380D01*
X159916857Y-95210380D01*
X160059714Y-95258000D01*
X160107333Y-95305619D01*
X160964476Y-95210380D02*
X160774000Y-95210380D01*
X160678761Y-95258000D01*
X160631142Y-95305619D01*
X160535904Y-95448476D01*
X160488285Y-95638952D01*
X160488285Y-96019904D01*
X160535904Y-96115142D01*
X160583523Y-96162761D01*
X160678761Y-96210380D01*
X160869238Y-96210380D01*
X160964476Y-96162761D01*
X161012095Y-96115142D01*
X161059714Y-96019904D01*
X161059714Y-95781809D01*
X161012095Y-95686571D01*
X160964476Y-95638952D01*
X160869238Y-95591333D01*
X160678761Y-95591333D01*
X160583523Y-95638952D01*
X160535904Y-95686571D01*
X160488285Y-95781809D01*
%TO.C,C18*%
X169537142Y-118975142D02*
X169489523Y-119022761D01*
X169346666Y-119070380D01*
X169251428Y-119070380D01*
X169108571Y-119022761D01*
X169013333Y-118927523D01*
X168965714Y-118832285D01*
X168918095Y-118641809D01*
X168918095Y-118498952D01*
X168965714Y-118308476D01*
X169013333Y-118213238D01*
X169108571Y-118118000D01*
X169251428Y-118070380D01*
X169346666Y-118070380D01*
X169489523Y-118118000D01*
X169537142Y-118165619D01*
X170489523Y-119070380D02*
X169918095Y-119070380D01*
X170203809Y-119070380D02*
X170203809Y-118070380D01*
X170108571Y-118213238D01*
X170013333Y-118308476D01*
X169918095Y-118356095D01*
X171060952Y-118498952D02*
X170965714Y-118451333D01*
X170918095Y-118403714D01*
X170870476Y-118308476D01*
X170870476Y-118260857D01*
X170918095Y-118165619D01*
X170965714Y-118118000D01*
X171060952Y-118070380D01*
X171251428Y-118070380D01*
X171346666Y-118118000D01*
X171394285Y-118165619D01*
X171441904Y-118260857D01*
X171441904Y-118308476D01*
X171394285Y-118403714D01*
X171346666Y-118451333D01*
X171251428Y-118498952D01*
X171060952Y-118498952D01*
X170965714Y-118546571D01*
X170918095Y-118594190D01*
X170870476Y-118689428D01*
X170870476Y-118879904D01*
X170918095Y-118975142D01*
X170965714Y-119022761D01*
X171060952Y-119070380D01*
X171251428Y-119070380D01*
X171346666Y-119022761D01*
X171394285Y-118975142D01*
X171441904Y-118879904D01*
X171441904Y-118689428D01*
X171394285Y-118594190D01*
X171346666Y-118546571D01*
X171251428Y-118498952D01*
D11*
%TO.C,C11*%
X156964142Y-114784142D02*
X156916523Y-114831761D01*
X156773666Y-114879380D01*
X156678428Y-114879380D01*
X156535571Y-114831761D01*
X156440333Y-114736523D01*
X156392714Y-114641285D01*
X156345095Y-114450809D01*
X156345095Y-114307952D01*
X156392714Y-114117476D01*
X156440333Y-114022238D01*
X156535571Y-113927000D01*
X156678428Y-113879380D01*
X156773666Y-113879380D01*
X156916523Y-113927000D01*
X156964142Y-113974619D01*
X157916523Y-114879380D02*
X157345095Y-114879380D01*
X157630809Y-114879380D02*
X157630809Y-113879380D01*
X157535571Y-114022238D01*
X157440333Y-114117476D01*
X157345095Y-114165095D01*
X158868904Y-114879380D02*
X158297476Y-114879380D01*
X158583190Y-114879380D02*
X158583190Y-113879380D01*
X158487952Y-114022238D01*
X158392714Y-114117476D01*
X158297476Y-114165095D01*
D10*
%TO.C,C15*%
X169914142Y-103148142D02*
X169866523Y-103195761D01*
X169723666Y-103243380D01*
X169628428Y-103243380D01*
X169485571Y-103195761D01*
X169390333Y-103100523D01*
X169342714Y-103005285D01*
X169295095Y-102814809D01*
X169295095Y-102671952D01*
X169342714Y-102481476D01*
X169390333Y-102386238D01*
X169485571Y-102291000D01*
X169628428Y-102243380D01*
X169723666Y-102243380D01*
X169866523Y-102291000D01*
X169914142Y-102338619D01*
X170866523Y-103243380D02*
X170295095Y-103243380D01*
X170580809Y-103243380D02*
X170580809Y-102243380D01*
X170485571Y-102386238D01*
X170390333Y-102481476D01*
X170295095Y-102529095D01*
X171771285Y-102243380D02*
X171295095Y-102243380D01*
X171247476Y-102719571D01*
X171295095Y-102671952D01*
X171390333Y-102624333D01*
X171628428Y-102624333D01*
X171723666Y-102671952D01*
X171771285Y-102719571D01*
X171818904Y-102814809D01*
X171818904Y-103052904D01*
X171771285Y-103148142D01*
X171723666Y-103195761D01*
X171628428Y-103243380D01*
X171390333Y-103243380D01*
X171295095Y-103195761D01*
X171247476Y-103148142D01*
D11*
%TO.C,C13*%
X163331770Y-104385969D02*
X163307960Y-104433588D01*
X163236532Y-104481207D01*
X163188913Y-104481207D01*
X163117484Y-104433588D01*
X163069865Y-104338350D01*
X163046056Y-104243112D01*
X163022246Y-104052636D01*
X163022246Y-103909779D01*
X163046056Y-103719303D01*
X163069865Y-103624065D01*
X163117484Y-103528827D01*
X163188913Y-103481207D01*
X163236532Y-103481207D01*
X163307960Y-103528827D01*
X163331770Y-103576446D01*
X163807960Y-104481207D02*
X163522246Y-104481207D01*
X163665103Y-104481207D02*
X163665103Y-103481207D01*
X163617484Y-103624065D01*
X163569865Y-103719303D01*
X163522246Y-103766922D01*
X163974627Y-103481207D02*
X164284151Y-103481207D01*
X164117484Y-103862160D01*
X164188913Y-103862160D01*
X164236532Y-103909779D01*
X164260341Y-103957398D01*
X164284151Y-104052636D01*
X164284151Y-104290731D01*
X164260341Y-104385969D01*
X164236532Y-104433588D01*
X164188913Y-104481207D01*
X164046056Y-104481207D01*
X163998437Y-104433588D01*
X163974627Y-104385969D01*
%TO.C,C1*%
X146724751Y-105459234D02*
X146677132Y-105483043D01*
X146534275Y-105506853D01*
X146439037Y-105506853D01*
X146296179Y-105483043D01*
X146200941Y-105435424D01*
X146153322Y-105387805D01*
X146105703Y-105292567D01*
X146105703Y-105221139D01*
X146153322Y-105125901D01*
X146200941Y-105078282D01*
X146296179Y-105030663D01*
X146439037Y-105006853D01*
X146534275Y-105006853D01*
X146677132Y-105030663D01*
X146724751Y-105054472D01*
X147677132Y-105506853D02*
X147105703Y-105506853D01*
X147391418Y-105506853D02*
X147391418Y-105006853D01*
X147296179Y-105078282D01*
X147200941Y-105125901D01*
X147105703Y-105149710D01*
D10*
%TO.C,C16*%
X172114142Y-108933857D02*
X172161761Y-108981476D01*
X172209380Y-109124333D01*
X172209380Y-109219571D01*
X172161761Y-109362428D01*
X172066523Y-109457666D01*
X171971285Y-109505285D01*
X171780809Y-109552904D01*
X171637952Y-109552904D01*
X171447476Y-109505285D01*
X171352238Y-109457666D01*
X171257000Y-109362428D01*
X171209380Y-109219571D01*
X171209380Y-109124333D01*
X171257000Y-108981476D01*
X171304619Y-108933857D01*
X172209380Y-107981476D02*
X172209380Y-108552904D01*
X172209380Y-108267190D02*
X171209380Y-108267190D01*
X171352238Y-108362428D01*
X171447476Y-108457666D01*
X171495095Y-108552904D01*
X171209380Y-107124333D02*
X171209380Y-107314809D01*
X171257000Y-107410047D01*
X171304619Y-107457666D01*
X171447476Y-107552904D01*
X171637952Y-107600523D01*
X172018904Y-107600523D01*
X172114142Y-107552904D01*
X172161761Y-107505285D01*
X172209380Y-107410047D01*
X172209380Y-107219571D01*
X172161761Y-107124333D01*
X172114142Y-107076714D01*
X172018904Y-107029095D01*
X171780809Y-107029095D01*
X171685571Y-107076714D01*
X171637952Y-107124333D01*
X171590333Y-107219571D01*
X171590333Y-107410047D01*
X171637952Y-107505285D01*
X171685571Y-107552904D01*
X171780809Y-107600523D01*
%TO.C,*%
D11*
%TO.C,C10*%
X157345142Y-103048571D02*
X157297523Y-103072380D01*
X157154666Y-103096190D01*
X157059428Y-103096190D01*
X156916571Y-103072380D01*
X156821333Y-103024761D01*
X156773714Y-102977142D01*
X156726095Y-102881904D01*
X156726095Y-102810476D01*
X156773714Y-102715238D01*
X156821333Y-102667619D01*
X156916571Y-102620000D01*
X157059428Y-102596190D01*
X157154666Y-102596190D01*
X157297523Y-102620000D01*
X157345142Y-102643809D01*
X158297523Y-103096190D02*
X157726095Y-103096190D01*
X158011809Y-103096190D02*
X158011809Y-102596190D01*
X157916571Y-102667619D01*
X157821333Y-102715238D01*
X157726095Y-102739047D01*
X158916571Y-102596190D02*
X159011809Y-102596190D01*
X159107047Y-102620000D01*
X159154666Y-102643809D01*
X159202285Y-102691428D01*
X159249904Y-102786666D01*
X159249904Y-102905714D01*
X159202285Y-103000952D01*
X159154666Y-103048571D01*
X159107047Y-103072380D01*
X159011809Y-103096190D01*
X158916571Y-103096190D01*
X158821333Y-103072380D01*
X158773714Y-103048571D01*
X158726095Y-103000952D01*
X158678476Y-102905714D01*
X158678476Y-102786666D01*
X158726095Y-102691428D01*
X158773714Y-102643809D01*
X158821333Y-102620000D01*
X158916571Y-102596190D01*
D12*
%TO.C,R1*%
X126873666Y-106317190D02*
X126707000Y-106079095D01*
X126587952Y-106317190D02*
X126587952Y-105817190D01*
X126778428Y-105817190D01*
X126826047Y-105841000D01*
X126849857Y-105864809D01*
X126873666Y-105912428D01*
X126873666Y-105983857D01*
X126849857Y-106031476D01*
X126826047Y-106055285D01*
X126778428Y-106079095D01*
X126587952Y-106079095D01*
X127349857Y-106317190D02*
X127064142Y-106317190D01*
X127207000Y-106317190D02*
X127207000Y-105817190D01*
X127159380Y-105888619D01*
X127111761Y-105936238D01*
X127064142Y-105960047D01*
D11*
%TO.C,C8*%
X150690333Y-108469571D02*
X150642714Y-108493380D01*
X150499857Y-108517190D01*
X150404619Y-108517190D01*
X150261761Y-108493380D01*
X150166523Y-108445761D01*
X150118904Y-108398142D01*
X150071285Y-108302904D01*
X150071285Y-108231476D01*
X150118904Y-108136238D01*
X150166523Y-108088619D01*
X150261761Y-108041000D01*
X150404619Y-108017190D01*
X150499857Y-108017190D01*
X150642714Y-108041000D01*
X150690333Y-108064809D01*
X151261761Y-108231476D02*
X151166523Y-108207666D01*
X151118904Y-108183857D01*
X151071285Y-108136238D01*
X151071285Y-108112428D01*
X151118904Y-108064809D01*
X151166523Y-108041000D01*
X151261761Y-108017190D01*
X151452238Y-108017190D01*
X151547476Y-108041000D01*
X151595095Y-108064809D01*
X151642714Y-108112428D01*
X151642714Y-108136238D01*
X151595095Y-108183857D01*
X151547476Y-108207666D01*
X151452238Y-108231476D01*
X151261761Y-108231476D01*
X151166523Y-108255285D01*
X151118904Y-108279095D01*
X151071285Y-108326714D01*
X151071285Y-108421952D01*
X151118904Y-108469571D01*
X151166523Y-108493380D01*
X151261761Y-108517190D01*
X151452238Y-108517190D01*
X151547476Y-108493380D01*
X151595095Y-108469571D01*
X151642714Y-108421952D01*
X151642714Y-108326714D01*
X151595095Y-108279095D01*
X151547476Y-108255285D01*
X151452238Y-108231476D01*
D10*
%TO.C,FB1*%
X166223666Y-102739571D02*
X165890333Y-102739571D01*
X165890333Y-103263380D02*
X165890333Y-102263380D01*
X166366523Y-102263380D01*
X167080809Y-102739571D02*
X167223666Y-102787190D01*
X167271285Y-102834809D01*
X167318904Y-102930047D01*
X167318904Y-103072904D01*
X167271285Y-103168142D01*
X167223666Y-103215761D01*
X167128428Y-103263380D01*
X166747476Y-103263380D01*
X166747476Y-102263380D01*
X167080809Y-102263380D01*
X167176047Y-102311000D01*
X167223666Y-102358619D01*
X167271285Y-102453857D01*
X167271285Y-102549095D01*
X167223666Y-102644333D01*
X167176047Y-102691952D01*
X167080809Y-102739571D01*
X166747476Y-102739571D01*
X168271285Y-103263380D02*
X167699857Y-103263380D01*
X167985571Y-103263380D02*
X167985571Y-102263380D01*
X167890333Y-102406238D01*
X167795095Y-102501476D01*
X167699857Y-102549095D01*
D11*
%TO.C,C12*%
X163187142Y-117832142D02*
X163139523Y-117879761D01*
X162996666Y-117927380D01*
X162901428Y-117927380D01*
X162758571Y-117879761D01*
X162663333Y-117784523D01*
X162615714Y-117689285D01*
X162568095Y-117498809D01*
X162568095Y-117355952D01*
X162615714Y-117165476D01*
X162663333Y-117070238D01*
X162758571Y-116975000D01*
X162901428Y-116927380D01*
X162996666Y-116927380D01*
X163139523Y-116975000D01*
X163187142Y-117022619D01*
X164139523Y-117927380D02*
X163568095Y-117927380D01*
X163853809Y-117927380D02*
X163853809Y-116927380D01*
X163758571Y-117070238D01*
X163663333Y-117165476D01*
X163568095Y-117213095D01*
X164520476Y-117022619D02*
X164568095Y-116975000D01*
X164663333Y-116927380D01*
X164901428Y-116927380D01*
X164996666Y-116975000D01*
X165044285Y-117022619D01*
X165091904Y-117117857D01*
X165091904Y-117213095D01*
X165044285Y-117355952D01*
X164472857Y-117927380D01*
X165091904Y-117927380D01*
D10*
%TO.C,U2*%
X142073380Y-111126904D02*
X142882904Y-111126904D01*
X142978142Y-111079285D01*
X143025761Y-111031666D01*
X143073380Y-110936428D01*
X143073380Y-110745952D01*
X143025761Y-110650714D01*
X142978142Y-110603095D01*
X142882904Y-110555476D01*
X142073380Y-110555476D01*
X142168619Y-110126904D02*
X142121000Y-110079285D01*
X142073380Y-109984047D01*
X142073380Y-109745952D01*
X142121000Y-109650714D01*
X142168619Y-109603095D01*
X142263857Y-109555476D01*
X142359095Y-109555476D01*
X142501952Y-109603095D01*
X143073380Y-110174523D01*
X143073380Y-109555476D01*
D11*
%TO.C,R3*%
X139890333Y-105497588D02*
X139557000Y-105259493D01*
X139318904Y-105497588D02*
X139318904Y-104997588D01*
X139699857Y-104997588D01*
X139795095Y-105021398D01*
X139842714Y-105045207D01*
X139890333Y-105092826D01*
X139890333Y-105164255D01*
X139842714Y-105211874D01*
X139795095Y-105235683D01*
X139699857Y-105259493D01*
X139318904Y-105259493D01*
X140223666Y-104997588D02*
X140842714Y-104997588D01*
X140509380Y-105188064D01*
X140652238Y-105188064D01*
X140747476Y-105211874D01*
X140795095Y-105235683D01*
X140842714Y-105283302D01*
X140842714Y-105402350D01*
X140795095Y-105449969D01*
X140747476Y-105473778D01*
X140652238Y-105497588D01*
X140366523Y-105497588D01*
X140271285Y-105473778D01*
X140223666Y-105449969D01*
D10*
%TO.C,J3*%
X176617380Y-100536333D02*
X177331666Y-100536333D01*
X177474523Y-100583952D01*
X177569761Y-100679190D01*
X177617380Y-100822047D01*
X177617380Y-100917285D01*
X176617380Y-100155380D02*
X176617380Y-99536333D01*
X176998333Y-99869666D01*
X176998333Y-99726809D01*
X177045952Y-99631571D01*
X177093571Y-99583952D01*
X177188809Y-99536333D01*
X177426904Y-99536333D01*
X177522142Y-99583952D01*
X177569761Y-99631571D01*
X177617380Y-99726809D01*
X177617380Y-100012523D01*
X177569761Y-100107761D01*
X177522142Y-100155380D01*
D12*
%TO.C,R7*%
X150383190Y-110974333D02*
X150145095Y-111141000D01*
X150383190Y-111260047D02*
X149883190Y-111260047D01*
X149883190Y-111069571D01*
X149907000Y-111021952D01*
X149930809Y-110998142D01*
X149978428Y-110974333D01*
X150049857Y-110974333D01*
X150097476Y-110998142D01*
X150121285Y-111021952D01*
X150145095Y-111069571D01*
X150145095Y-111260047D01*
X149883190Y-110807666D02*
X149883190Y-110474333D01*
X150383190Y-110688619D01*
D11*
%TO.C,C14*%
X163626114Y-102342485D02*
X163602304Y-102390104D01*
X163530876Y-102437723D01*
X163483257Y-102437723D01*
X163411828Y-102390104D01*
X163364209Y-102294866D01*
X163340400Y-102199628D01*
X163316590Y-102009152D01*
X163316590Y-101866295D01*
X163340400Y-101675819D01*
X163364209Y-101580581D01*
X163411828Y-101485343D01*
X163483257Y-101437723D01*
X163530876Y-101437723D01*
X163602304Y-101485343D01*
X163626114Y-101532962D01*
X164102304Y-102437723D02*
X163816590Y-102437723D01*
X163959447Y-102437723D02*
X163959447Y-101437723D01*
X163911828Y-101580581D01*
X163864209Y-101675819D01*
X163816590Y-101723438D01*
X164530876Y-101771057D02*
X164530876Y-102437723D01*
X164411828Y-101390104D02*
X164292781Y-102104390D01*
X164602304Y-102104390D01*
D10*
%TO.C,U3*%
X162495095Y-113443380D02*
X162495095Y-114252904D01*
X162542714Y-114348142D01*
X162590333Y-114395761D01*
X162685571Y-114443380D01*
X162876047Y-114443380D01*
X162971285Y-114395761D01*
X163018904Y-114348142D01*
X163066523Y-114252904D01*
X163066523Y-113443380D01*
X163447476Y-113443380D02*
X164066523Y-113443380D01*
X163733190Y-113824333D01*
X163876047Y-113824333D01*
X163971285Y-113871952D01*
X164018904Y-113919571D01*
X164066523Y-114014809D01*
X164066523Y-114252904D01*
X164018904Y-114348142D01*
X163971285Y-114395761D01*
X163876047Y-114443380D01*
X163590333Y-114443380D01*
X163495095Y-114395761D01*
X163447476Y-114348142D01*
%TO.C,RV3*%
X145073761Y-100743380D02*
X144740428Y-100267190D01*
X144502333Y-100743380D02*
X144502333Y-99743380D01*
X144883285Y-99743380D01*
X144978523Y-99791000D01*
X145026142Y-99838619D01*
X145073761Y-99933857D01*
X145073761Y-100076714D01*
X145026142Y-100171952D01*
X144978523Y-100219571D01*
X144883285Y-100267190D01*
X144502333Y-100267190D01*
X145359476Y-99743380D02*
X145692809Y-100743380D01*
X146026142Y-99743380D01*
X146264238Y-99743380D02*
X146883285Y-99743380D01*
X146549952Y-100124333D01*
X146692809Y-100124333D01*
X146788047Y-100171952D01*
X146835666Y-100219571D01*
X146883285Y-100314809D01*
X146883285Y-100552904D01*
X146835666Y-100648142D01*
X146788047Y-100695761D01*
X146692809Y-100743380D01*
X146407095Y-100743380D01*
X146311857Y-100695761D01*
X146264238Y-100648142D01*
%TO.C,FB2*%
X166123666Y-109275571D02*
X165790333Y-109275571D01*
X165790333Y-109799380D02*
X165790333Y-108799380D01*
X166266523Y-108799380D01*
X166980809Y-109275571D02*
X167123666Y-109323190D01*
X167171285Y-109370809D01*
X167218904Y-109466047D01*
X167218904Y-109608904D01*
X167171285Y-109704142D01*
X167123666Y-109751761D01*
X167028428Y-109799380D01*
X166647476Y-109799380D01*
X166647476Y-108799380D01*
X166980809Y-108799380D01*
X167076047Y-108847000D01*
X167123666Y-108894619D01*
X167171285Y-108989857D01*
X167171285Y-109085095D01*
X167123666Y-109180333D01*
X167076047Y-109227952D01*
X166980809Y-109275571D01*
X166647476Y-109275571D01*
X167599857Y-108894619D02*
X167647476Y-108847000D01*
X167742714Y-108799380D01*
X167980809Y-108799380D01*
X168076047Y-108847000D01*
X168123666Y-108894619D01*
X168171285Y-108989857D01*
X168171285Y-109085095D01*
X168123666Y-109227952D01*
X167552238Y-109799380D01*
X168171285Y-109799380D01*
D11*
%TO.C,R8*%
X155383190Y-103857666D02*
X155145095Y-104191000D01*
X155383190Y-104429095D02*
X154883190Y-104429095D01*
X154883190Y-104048142D01*
X154907000Y-103952904D01*
X154930809Y-103905285D01*
X154978428Y-103857666D01*
X155049857Y-103857666D01*
X155097476Y-103905285D01*
X155121285Y-103952904D01*
X155145095Y-104048142D01*
X155145095Y-104429095D01*
X155097476Y-103286238D02*
X155073666Y-103381476D01*
X155049857Y-103429095D01*
X155002238Y-103476714D01*
X154978428Y-103476714D01*
X154930809Y-103429095D01*
X154907000Y-103381476D01*
X154883190Y-103286238D01*
X154883190Y-103095761D01*
X154907000Y-103000523D01*
X154930809Y-102952904D01*
X154978428Y-102905285D01*
X155002238Y-102905285D01*
X155049857Y-102952904D01*
X155073666Y-103000523D01*
X155097476Y-103095761D01*
X155097476Y-103286238D01*
X155121285Y-103381476D01*
X155145095Y-103429095D01*
X155192714Y-103476714D01*
X155287952Y-103476714D01*
X155335571Y-103429095D01*
X155359380Y-103381476D01*
X155383190Y-103286238D01*
X155383190Y-103095761D01*
X155359380Y-103000523D01*
X155335571Y-102952904D01*
X155287952Y-102905285D01*
X155192714Y-102905285D01*
X155145095Y-102952904D01*
X155121285Y-103000523D01*
X155097476Y-103095761D01*
D10*
%TO.C,*%
D11*
%TO.C,R9*%
X151990333Y-113005906D02*
X151657000Y-112767811D01*
X151418904Y-113005906D02*
X151418904Y-112505906D01*
X151799857Y-112505906D01*
X151895095Y-112529716D01*
X151942714Y-112553525D01*
X151990333Y-112601144D01*
X151990333Y-112672573D01*
X151942714Y-112720192D01*
X151895095Y-112744001D01*
X151799857Y-112767811D01*
X151418904Y-112767811D01*
X152466523Y-113005906D02*
X152657000Y-113005906D01*
X152752238Y-112982096D01*
X152799857Y-112958287D01*
X152895095Y-112886858D01*
X152942714Y-112791620D01*
X152942714Y-112601144D01*
X152895095Y-112553525D01*
X152847476Y-112529716D01*
X152752238Y-112505906D01*
X152561761Y-112505906D01*
X152466523Y-112529716D01*
X152418904Y-112553525D01*
X152371285Y-112601144D01*
X152371285Y-112720192D01*
X152418904Y-112767811D01*
X152466523Y-112791620D01*
X152561761Y-112815430D01*
X152752238Y-112815430D01*
X152847476Y-112791620D01*
X152895095Y-112767811D01*
X152942714Y-112720192D01*
D10*
%TO.C,TP2*%
X148725095Y-94863380D02*
X149296523Y-94863380D01*
X149010809Y-95863380D02*
X149010809Y-94863380D01*
X149629857Y-95863380D02*
X149629857Y-94863380D01*
X150010809Y-94863380D01*
X150106047Y-94911000D01*
X150153666Y-94958619D01*
X150201285Y-95053857D01*
X150201285Y-95196714D01*
X150153666Y-95291952D01*
X150106047Y-95339571D01*
X150010809Y-95387190D01*
X149629857Y-95387190D01*
X150582238Y-94958619D02*
X150629857Y-94911000D01*
X150725095Y-94863380D01*
X150963190Y-94863380D01*
X151058428Y-94911000D01*
X151106047Y-94958619D01*
X151153666Y-95053857D01*
X151153666Y-95149095D01*
X151106047Y-95291952D01*
X150534619Y-95863380D01*
X151153666Y-95863380D01*
D12*
%TO.C,C4*%
X148506666Y-107874571D02*
X148482857Y-107898380D01*
X148411428Y-107922190D01*
X148363809Y-107922190D01*
X148292380Y-107898380D01*
X148244761Y-107850761D01*
X148220952Y-107803142D01*
X148197142Y-107707904D01*
X148197142Y-107636476D01*
X148220952Y-107541238D01*
X148244761Y-107493619D01*
X148292380Y-107446000D01*
X148363809Y-107422190D01*
X148411428Y-107422190D01*
X148482857Y-107446000D01*
X148506666Y-107469809D01*
X148935238Y-107588857D02*
X148935238Y-107922190D01*
X148816190Y-107398380D02*
X148697142Y-107755523D01*
X149006666Y-107755523D01*
D10*
%TO.C,U1*%
X128270095Y-113498380D02*
X128270095Y-114307904D01*
X128317714Y-114403142D01*
X128365333Y-114450761D01*
X128460571Y-114498380D01*
X128651047Y-114498380D01*
X128746285Y-114450761D01*
X128793904Y-114403142D01*
X128841523Y-114307904D01*
X128841523Y-113498380D01*
X129841523Y-114498380D02*
X129270095Y-114498380D01*
X129555809Y-114498380D02*
X129555809Y-113498380D01*
X129460571Y-113641238D01*
X129365333Y-113736476D01*
X129270095Y-113784095D01*
D13*
%TO.C,TP4*%
X153981000Y-116205000D02*
G75*
G03*
X153981000Y-116205000I-1200000J0D01*
G01*
%TO.C,C2*%
X134216420Y-110101000D02*
X134497580Y-110101000D01*
X134216420Y-109081000D02*
X134497580Y-109081000D01*
%TO.C,R4*%
X131194258Y-106668500D02*
X130719742Y-106668500D01*
X131194258Y-107713500D02*
X130719742Y-107713500D01*
%TO.C,R11*%
X134594258Y-107713500D02*
X134119742Y-107713500D01*
X134594258Y-106668500D02*
X134119742Y-106668500D01*
%TO.C,J2*%
X175287000Y-113091000D02*
X175287000Y-114421000D01*
X175287000Y-104141000D02*
X172627000Y-104141000D01*
X172627000Y-111821000D02*
X172627000Y-104141000D01*
X175287000Y-111821000D02*
X172627000Y-111821000D01*
X175287000Y-111821000D02*
X175287000Y-104141000D01*
X175287000Y-114421000D02*
X173957000Y-114421000D01*
%TO.C,FB3*%
X166695748Y-111956000D02*
X167218252Y-111956000D01*
X166695748Y-113426000D02*
X167218252Y-113426000D01*
%TO.C,C3*%
X144116420Y-113755000D02*
X144397580Y-113755000D01*
X144116420Y-114775000D02*
X144397580Y-114775000D01*
%TO.C,TP1*%
X136836000Y-116078000D02*
G75*
G03*
X136836000Y-116078000I-1200000J0D01*
G01*
%TO.C,C17*%
X170667000Y-111950420D02*
X170667000Y-112231580D01*
X169647000Y-111950420D02*
X169647000Y-112231580D01*
%TO.C,J1*%
X171054000Y-98993000D02*
X165914000Y-98993000D01*
X172324000Y-96333000D02*
X173654000Y-96333000D01*
X173654000Y-96333000D02*
X173654000Y-97663000D01*
X165914000Y-96333000D02*
X165914000Y-98993000D01*
X171054000Y-96333000D02*
X165914000Y-96333000D01*
X171054000Y-96333000D02*
X171054000Y-98993000D01*
%TO.C,RV1*%
X132745000Y-97871000D02*
X131465000Y-97871000D01*
X134245000Y-102711000D02*
X133725000Y-102711000D01*
X131465000Y-97871000D02*
X131465000Y-102711000D01*
X136125000Y-97871000D02*
X135225000Y-97871000D01*
X136505000Y-97871000D02*
X136505000Y-102711000D01*
X136505000Y-102711000D02*
X136025000Y-102711000D01*
X136505000Y-97871000D02*
X135225000Y-97871000D01*
X131945000Y-102711000D02*
X131465000Y-102711000D01*
X136125000Y-97871000D02*
X135225000Y-97871000D01*
X136125000Y-97871000D02*
X136125000Y-97871000D01*
%TO.C,R2*%
X143119742Y-106987500D02*
X143594258Y-106987500D01*
X143119742Y-105942500D02*
X143594258Y-105942500D01*
%TO.C,R10*%
X162957742Y-95997500D02*
X163432258Y-95997500D01*
X162957742Y-97042500D02*
X163432258Y-97042500D01*
%TO.C,C7*%
X149916420Y-105981000D02*
X150197580Y-105981000D01*
X149916420Y-107001000D02*
X150197580Y-107001000D01*
%TO.C,C5*%
X148116420Y-112355000D02*
X148397580Y-112355000D01*
X148116420Y-113375000D02*
X148397580Y-113375000D01*
%TO.C,TP3*%
X149917000Y-116205000D02*
G75*
G03*
X149917000Y-116205000I-1200000J0D01*
G01*
%TO.C,FB4*%
X166695748Y-114756000D02*
X167218252Y-114756000D01*
X166695748Y-116226000D02*
X167218252Y-116226000D01*
%TO.C,R5*%
X135019742Y-112413500D02*
X135494258Y-112413500D01*
X135019742Y-111368500D02*
X135494258Y-111368500D01*
%TO.C,C9*%
X153167000Y-106931580D02*
X153167000Y-106650420D01*
X152147000Y-106931580D02*
X152147000Y-106650420D01*
%TO.C,R6*%
X140619742Y-114787500D02*
X141094258Y-114787500D01*
X140619742Y-113742500D02*
X141094258Y-113742500D01*
%TO.C,RV2*%
X142347000Y-97871000D02*
X141067000Y-97871000D01*
X142347000Y-102711000D02*
X141867000Y-102711000D01*
X141967000Y-97871000D02*
X141067000Y-97871000D01*
X141967000Y-97871000D02*
X141967000Y-97871000D01*
X140087000Y-102711000D02*
X139567000Y-102711000D01*
X142347000Y-97871000D02*
X142347000Y-102711000D01*
X137307000Y-97871000D02*
X137307000Y-102711000D01*
X137787000Y-102711000D02*
X137307000Y-102711000D01*
X141967000Y-97871000D02*
X141067000Y-97871000D01*
X138587000Y-97871000D02*
X137307000Y-97871000D01*
%TO.C,C6*%
X159367000Y-101336563D02*
X159367000Y-100051000D01*
X152547000Y-102401000D02*
X152547000Y-100051000D01*
X152547000Y-95581000D02*
X152547000Y-97931000D01*
X158302563Y-102401000D02*
X152547000Y-102401000D01*
X158302563Y-95581000D02*
X152547000Y-95581000D01*
X159367000Y-96645437D02*
X159367000Y-97931000D01*
X159367000Y-96645437D02*
X158302563Y-95581000D01*
X159367000Y-101336563D02*
X158302563Y-102401000D01*
%TO.C,C18*%
X170690000Y-116472580D02*
X170690000Y-116191420D01*
X169670000Y-116472580D02*
X169670000Y-116191420D01*
%TO.C,C11*%
X160697580Y-113681000D02*
X160416420Y-113681000D01*
X160697580Y-114701000D02*
X160416420Y-114701000D01*
%TO.C,C15*%
X170697580Y-104801000D02*
X170416420Y-104801000D01*
X170697580Y-103781000D02*
X170416420Y-103781000D01*
%TO.C,C13*%
X161397580Y-104501000D02*
X161116420Y-104501000D01*
X161397580Y-103481000D02*
X161116420Y-103481000D01*
%TO.C,C1*%
X146616420Y-106975000D02*
X146897580Y-106975000D01*
X146616420Y-105955000D02*
X146897580Y-105955000D01*
%TO.C,C16*%
X170767000Y-108431580D02*
X170767000Y-108150420D01*
X169747000Y-108431580D02*
X169747000Y-108150420D01*
%TO.C,C10*%
X157816420Y-103481000D02*
X158097580Y-103481000D01*
X157816420Y-104501000D02*
X158097580Y-104501000D01*
%TO.C,R1*%
X127194258Y-106668500D02*
X126719742Y-106668500D01*
X127194258Y-107713500D02*
X126719742Y-107713500D01*
%TO.C,C8*%
X152297580Y-108881000D02*
X152016420Y-108881000D01*
X152297580Y-109901000D02*
X152016420Y-109901000D01*
%TO.C,FB1*%
X166795748Y-103756000D02*
X167318252Y-103756000D01*
X166795748Y-105226000D02*
X167318252Y-105226000D01*
%TO.C,C12*%
X161018252Y-116926000D02*
X160495748Y-116926000D01*
X161018252Y-115456000D02*
X160495748Y-115456000D01*
%TO.C,U2*%
X142557000Y-112955000D02*
X144437000Y-112955000D01*
X142557000Y-107775000D02*
X144437000Y-107775000D01*
X142557000Y-107775000D02*
X139032000Y-107775000D01*
X142557000Y-112955000D02*
X140677000Y-112955000D01*
%TO.C,R3*%
X139819742Y-105942500D02*
X140294258Y-105942500D01*
X139819742Y-106987500D02*
X140294258Y-106987500D01*
%TO.C,J3*%
X184585000Y-99215000D02*
X183835000Y-99215000D01*
X184585000Y-104215000D02*
X183835000Y-104215000D01*
X182335000Y-95915000D02*
X182335000Y-96665000D01*
X183835000Y-99215000D02*
X183835000Y-102715000D01*
X183835000Y-97715000D02*
X184585000Y-97715000D01*
X184595000Y-106025000D02*
X184595000Y-95905000D01*
X183835000Y-106015000D02*
X184585000Y-106015000D01*
X184585000Y-102715000D02*
X184585000Y-99215000D01*
X184585000Y-97715000D02*
X184585000Y-95915000D01*
X178625000Y-95905000D02*
X178625000Y-106025000D01*
X182335000Y-105265000D02*
X179385000Y-105265000D01*
X184885000Y-96865000D02*
X184885000Y-95615000D01*
X182335000Y-96665000D02*
X179385000Y-96665000D01*
X183835000Y-104215000D02*
X183835000Y-106015000D01*
X179385000Y-96665000D02*
X179385000Y-100965000D01*
X183835000Y-95915000D02*
X183835000Y-97715000D01*
X183835000Y-102715000D02*
X184585000Y-102715000D01*
X182335000Y-106015000D02*
X182335000Y-105265000D01*
X178625000Y-106025000D02*
X184595000Y-106025000D01*
X179385000Y-105265000D02*
X179385000Y-100965000D01*
X184585000Y-106015000D02*
X184585000Y-104215000D01*
X184585000Y-95915000D02*
X183835000Y-95915000D01*
X184595000Y-95905000D02*
X178625000Y-95905000D01*
X184885000Y-95615000D02*
X183635000Y-95615000D01*
%TO.C,R7*%
X148494258Y-110342500D02*
X148019742Y-110342500D01*
X148494258Y-111387500D02*
X148019742Y-111387500D01*
%TO.C,C14*%
X161718252Y-101156000D02*
X161195748Y-101156000D01*
X161718252Y-102626000D02*
X161195748Y-102626000D01*
%TO.C,U3*%
X154097000Y-108991000D02*
X154097000Y-107041000D01*
X164217000Y-108991000D02*
X164217000Y-110941000D01*
X164217000Y-108991000D02*
X164217000Y-105491000D01*
X154097000Y-108991000D02*
X154097000Y-110941000D01*
%TO.C,TP6*%
X183064000Y-110998000D02*
G75*
G03*
X183064000Y-110998000I-1200000J0D01*
G01*
%TO.C,RV3*%
X143149000Y-97871000D02*
X143149000Y-102711000D01*
X148189000Y-97871000D02*
X146909000Y-97871000D01*
X145929000Y-102711000D02*
X145409000Y-102711000D01*
X147809000Y-97871000D02*
X146909000Y-97871000D01*
X147809000Y-97871000D02*
X147809000Y-97871000D01*
X148189000Y-97871000D02*
X148189000Y-102711000D01*
X144429000Y-97871000D02*
X143149000Y-97871000D01*
X143629000Y-102711000D02*
X143149000Y-102711000D01*
X148189000Y-102711000D02*
X147709000Y-102711000D01*
X147809000Y-97871000D02*
X146909000Y-97871000D01*
%TO.C,FB2*%
X166695748Y-108226000D02*
X167218252Y-108226000D01*
X166695748Y-106756000D02*
X167218252Y-106756000D01*
%TO.C,R8*%
X153019742Y-104213500D02*
X153494258Y-104213500D01*
X153019742Y-103168500D02*
X153494258Y-103168500D01*
%TO.C,R9*%
X151919742Y-112113500D02*
X152394258Y-112113500D01*
X151919742Y-111068500D02*
X152394258Y-111068500D01*
%TO.C,TP2*%
X151187000Y-97409000D02*
G75*
G03*
X151187000Y-97409000I-1200000J0D01*
G01*
%TO.C,C4*%
X148397580Y-108355000D02*
X148116420Y-108355000D01*
X148397580Y-109375000D02*
X148116420Y-109375000D01*
%TO.C,U1*%
X127432000Y-110841000D02*
X127432000Y-111841000D01*
X126932000Y-110341000D02*
X127432000Y-110841000D01*
X127432000Y-109341000D02*
X127432000Y-109841000D01*
X130432000Y-109841000D02*
X129932000Y-110341000D01*
X130432000Y-111341000D02*
X130268056Y-111347226D01*
X129932000Y-109841000D02*
X129932000Y-111341000D01*
X130432000Y-109341000D02*
X130432000Y-109841000D01*
X126932000Y-109341000D02*
X127432000Y-109341000D01*
X125612000Y-108991000D02*
X125612000Y-112571000D01*
X132185928Y-112770346D02*
X132185928Y-108470346D01*
X130432000Y-111841000D02*
X130932000Y-111841000D01*
X130932000Y-109341000D02*
X130432000Y-109341000D01*
X127432000Y-110341000D02*
X126932000Y-110341000D01*
X127432000Y-109841000D02*
X127432000Y-110341000D01*
X130432000Y-111341000D02*
X130432000Y-111841000D01*
X130432000Y-111341000D02*
X130477655Y-111187433D01*
X129932000Y-110841000D02*
X130432000Y-111341000D01*
X126932000Y-110841000D02*
X127932000Y-110841000D01*
X125942000Y-108661000D02*
X125612000Y-108991000D01*
X127432000Y-110841000D02*
X127932000Y-110341000D01*
X127932000Y-110341000D02*
X127432000Y-110341000D01*
X127432000Y-111841000D02*
X126932000Y-111841000D01*
%TD*%
%LPC*%
D14*
%TO.C,TP4*%
X152781000Y-116205000D03*
%TD*%
D15*
%TO.C,C2*%
X133582000Y-109591000D03*
X135132000Y-109591000D03*
%TD*%
D16*
%TO.C,R4*%
X131782000Y-107191000D03*
X130132000Y-107191000D03*
%TD*%
%TO.C,R11*%
X135182000Y-107191000D03*
X133532000Y-107191000D03*
%TD*%
D17*
%TO.C,J2*%
X173957000Y-113091000D03*
D18*
X173957000Y-110551000D03*
X173957000Y-108011000D03*
X173957000Y-105471000D03*
%TD*%
D19*
%TO.C,FB3*%
X166007000Y-112691000D03*
X167907000Y-112691000D03*
%TD*%
D15*
%TO.C,C3*%
X143482000Y-114265000D03*
X145032000Y-114265000D03*
%TD*%
D14*
%TO.C,TP1*%
X135636000Y-116078000D03*
%TD*%
D20*
%TO.C,C17*%
X170157000Y-111316000D03*
X170157000Y-112866000D03*
%TD*%
D21*
%TO.C,*%
X127762000Y-118300500D03*
%TD*%
D22*
%TO.C,J1*%
X172324000Y-97663000D03*
D18*
X169784000Y-97663000D03*
X167244000Y-97663000D03*
%TD*%
D23*
%TO.C,RV1*%
X135135000Y-102291000D03*
D24*
X133985000Y-98291000D03*
D23*
X132835000Y-102291000D03*
%TD*%
D25*
%TO.C,R2*%
X142532000Y-106465000D03*
X144182000Y-106465000D03*
%TD*%
%TO.C,R10*%
X162370000Y-96520000D03*
X164020000Y-96520000D03*
%TD*%
D15*
%TO.C,C7*%
X149282000Y-106491000D03*
X150832000Y-106491000D03*
%TD*%
%TO.C,C5*%
X147482000Y-112865000D03*
X149032000Y-112865000D03*
%TD*%
D14*
%TO.C,TP3*%
X148717000Y-116205000D03*
%TD*%
D19*
%TO.C,FB4*%
X166007000Y-115491000D03*
X167907000Y-115491000D03*
%TD*%
D25*
%TO.C,R5*%
X134432000Y-111891000D03*
X136082000Y-111891000D03*
%TD*%
D26*
%TO.C,C9*%
X152657000Y-107566000D03*
X152657000Y-106016000D03*
%TD*%
D25*
%TO.C,R6*%
X140032000Y-114265000D03*
X141682000Y-114265000D03*
%TD*%
D23*
%TO.C,RV2*%
X140977000Y-102291000D03*
D24*
X139827000Y-98291000D03*
D23*
X138677000Y-102291000D03*
%TD*%
D27*
%TO.C,C6*%
X158494500Y-98991000D03*
X153419500Y-98991000D03*
%TD*%
D26*
%TO.C,C18*%
X170180000Y-117107000D03*
X170180000Y-115557000D03*
%TD*%
D28*
%TO.C,C11*%
X161332000Y-114191000D03*
X159782000Y-114191000D03*
%TD*%
%TO.C,C15*%
X171332000Y-104291000D03*
X169782000Y-104291000D03*
%TD*%
%TO.C,C13*%
X162032000Y-103991000D03*
X160482000Y-103991000D03*
%TD*%
D15*
%TO.C,C1*%
X145982000Y-106465000D03*
X147532000Y-106465000D03*
%TD*%
D26*
%TO.C,C16*%
X170257000Y-109066000D03*
X170257000Y-107516000D03*
%TD*%
D21*
%TO.C,*%
X127635000Y-95885000D03*
%TD*%
D15*
%TO.C,C10*%
X157182000Y-103991000D03*
X158732000Y-103991000D03*
%TD*%
D16*
%TO.C,R1*%
X127782000Y-107191000D03*
X126132000Y-107191000D03*
%TD*%
D28*
%TO.C,C8*%
X152932000Y-109391000D03*
X151382000Y-109391000D03*
%TD*%
D19*
%TO.C,FB1*%
X166107000Y-104491000D03*
X168007000Y-104491000D03*
%TD*%
D29*
%TO.C,C12*%
X161707000Y-116191000D03*
X159807000Y-116191000D03*
%TD*%
D30*
%TO.C,U2*%
X140019500Y-108460000D03*
X140019500Y-109730000D03*
X140019500Y-111000000D03*
X140019500Y-112270000D03*
X145094500Y-112270000D03*
X145094500Y-111000000D03*
X145094500Y-109730000D03*
X145094500Y-108460000D03*
%TD*%
D25*
%TO.C,R3*%
X139232000Y-106465000D03*
X140882000Y-106465000D03*
%TD*%
D31*
%TO.C,J3*%
X182135000Y-98465000D03*
D32*
X182135000Y-100965000D03*
X182135000Y-103465000D03*
%TD*%
D16*
%TO.C,R7*%
X149082000Y-110865000D03*
X147432000Y-110865000D03*
%TD*%
D29*
%TO.C,C14*%
X162407000Y-101891000D03*
X160507000Y-101891000D03*
%TD*%
D33*
%TO.C,U3*%
X163602000Y-106491000D03*
X162332000Y-106491000D03*
X161062000Y-106491000D03*
X159792000Y-106491000D03*
X158522000Y-106491000D03*
X157252000Y-106491000D03*
X155982000Y-106491000D03*
X154712000Y-106491000D03*
X154712000Y-111491000D03*
X155982000Y-111491000D03*
X157252000Y-111491000D03*
X158522000Y-111491000D03*
X159792000Y-111491000D03*
X161062000Y-111491000D03*
X162332000Y-111491000D03*
X163602000Y-111491000D03*
%TD*%
D34*
%TO.C,TP6*%
X181864000Y-110998000D03*
%TD*%
D23*
%TO.C,RV3*%
X146819000Y-102291000D03*
D24*
X145669000Y-98291000D03*
D23*
X144519000Y-102291000D03*
%TD*%
D19*
%TO.C,FB2*%
X166007000Y-107491000D03*
X167907000Y-107491000D03*
%TD*%
D25*
%TO.C,R8*%
X152432000Y-103691000D03*
X154082000Y-103691000D03*
%TD*%
D21*
%TO.C,*%
X183896000Y-118046500D03*
%TD*%
D25*
%TO.C,R9*%
X151332000Y-111591000D03*
X152982000Y-111591000D03*
%TD*%
D14*
%TO.C,TP2*%
X149987000Y-97409000D03*
%TD*%
D28*
%TO.C,C4*%
X149032000Y-108865000D03*
X147482000Y-108865000D03*
%TD*%
D35*
%TO.C,U1*%
X128932000Y-111841000D03*
X128932000Y-109341000D03*
D36*
X126432000Y-111841000D03*
D37*
X126432000Y-109341000D03*
X131432000Y-109341000D03*
X131432000Y-111841000D03*
%TD*%
M02*
