%TF.GenerationSoftware,KiCad,Pcbnew,(6.0.7-1)-1*%
%TF.CreationDate,2023-09-21T22:33:58-04:00*%
%TF.ProjectId,EMHarpsichord_Stage1,454d4861-7270-4736-9963-686f72645f53,rev?*%
%TF.SameCoordinates,Original*%
%TF.FileFunction,Paste,Top*%
%TF.FilePolarity,Positive*%
%FSLAX46Y46*%
G04 Gerber Fmt 4.6, Leading zero omitted, Abs format (unit mm)*
G04 Created by KiCad (PCBNEW (6.0.7-1)-1) date 2023-09-21 22:33:58*
%MOMM*%
%LPD*%
G01*
G04 APERTURE LIST*
G04 Aperture macros list*
%AMRoundRect*
0 Rectangle with rounded corners*
0 $1 Rounding radius*
0 $2 $3 $4 $5 $6 $7 $8 $9 X,Y pos of 4 corners*
0 Add a 4 corners polygon primitive as box body*
4,1,4,$2,$3,$4,$5,$6,$7,$8,$9,$2,$3,0*
0 Add four circle primitives for the rounded corners*
1,1,$1+$1,$2,$3*
1,1,$1+$1,$4,$5*
1,1,$1+$1,$6,$7*
1,1,$1+$1,$8,$9*
0 Add four rect primitives between the rounded corners*
20,1,$1+$1,$2,$3,$4,$5,0*
20,1,$1+$1,$4,$5,$6,$7,0*
20,1,$1+$1,$6,$7,$8,$9,0*
20,1,$1+$1,$8,$9,$2,$3,0*%
G04 Aperture macros list end*
%ADD10RoundRect,0.225000X-0.225000X-0.250000X0.225000X-0.250000X0.225000X0.250000X-0.225000X0.250000X0*%
%ADD11RoundRect,0.200000X0.200000X0.275000X-0.200000X0.275000X-0.200000X-0.275000X0.200000X-0.275000X0*%
%ADD12RoundRect,0.250000X-0.250000X-0.475000X0.250000X-0.475000X0.250000X0.475000X-0.250000X0.475000X0*%
%ADD13RoundRect,0.225000X-0.250000X0.225000X-0.250000X-0.225000X0.250000X-0.225000X0.250000X0.225000X0*%
%ADD14R,1.300000X2.000000*%
%ADD15R,2.000000X2.000000*%
%ADD16RoundRect,0.200000X-0.200000X-0.275000X0.200000X-0.275000X0.200000X0.275000X-0.200000X0.275000X0*%
%ADD17RoundRect,0.225000X0.250000X-0.225000X0.250000X0.225000X-0.250000X0.225000X-0.250000X-0.225000X0*%
%ADD18RoundRect,0.250000X1.412500X0.550000X-1.412500X0.550000X-1.412500X-0.550000X1.412500X-0.550000X0*%
%ADD19RoundRect,0.225000X0.225000X0.250000X-0.225000X0.250000X-0.225000X-0.250000X0.225000X-0.250000X0*%
%ADD20RoundRect,0.250000X0.250000X0.475000X-0.250000X0.475000X-0.250000X-0.475000X0.250000X-0.475000X0*%
%ADD21RoundRect,0.162500X-0.825000X-0.162500X0.825000X-0.162500X0.825000X0.162500X-0.825000X0.162500X0*%
%ADD22RoundRect,0.150000X-0.150000X0.850000X-0.150000X-0.850000X0.150000X-0.850000X0.150000X0.850000X0*%
G04 APERTURE END LIST*
D10*
%TO.C,C2*%
X133582000Y-109591000D03*
X135132000Y-109591000D03*
%TD*%
D11*
%TO.C,R4*%
X131782000Y-107191000D03*
X130132000Y-107191000D03*
%TD*%
%TO.C,R11*%
X135182000Y-107191000D03*
X133532000Y-107191000D03*
%TD*%
D12*
%TO.C,FB3*%
X166007000Y-112691000D03*
X167907000Y-112691000D03*
%TD*%
D10*
%TO.C,C3*%
X143482000Y-114265000D03*
X145032000Y-114265000D03*
%TD*%
D13*
%TO.C,C17*%
X170157000Y-111316000D03*
X170157000Y-112866000D03*
%TD*%
D14*
%TO.C,RV1*%
X135135000Y-102291000D03*
D15*
X133985000Y-98291000D03*
D14*
X132835000Y-102291000D03*
%TD*%
D16*
%TO.C,R2*%
X142532000Y-106465000D03*
X144182000Y-106465000D03*
%TD*%
%TO.C,R10*%
X162370000Y-96520000D03*
X164020000Y-96520000D03*
%TD*%
D10*
%TO.C,C7*%
X149282000Y-106491000D03*
X150832000Y-106491000D03*
%TD*%
%TO.C,C5*%
X147482000Y-112865000D03*
X149032000Y-112865000D03*
%TD*%
D12*
%TO.C,FB4*%
X166007000Y-115491000D03*
X167907000Y-115491000D03*
%TD*%
D16*
%TO.C,R5*%
X134432000Y-111891000D03*
X136082000Y-111891000D03*
%TD*%
D17*
%TO.C,C9*%
X152657000Y-107566000D03*
X152657000Y-106016000D03*
%TD*%
D16*
%TO.C,R6*%
X140032000Y-114265000D03*
X141682000Y-114265000D03*
%TD*%
D14*
%TO.C,RV2*%
X140977000Y-102291000D03*
D15*
X139827000Y-98291000D03*
D14*
X138677000Y-102291000D03*
%TD*%
D18*
%TO.C,C6*%
X158494500Y-98991000D03*
X153419500Y-98991000D03*
%TD*%
D17*
%TO.C,C18*%
X170180000Y-117107000D03*
X170180000Y-115557000D03*
%TD*%
D19*
%TO.C,C11*%
X161332000Y-114191000D03*
X159782000Y-114191000D03*
%TD*%
%TO.C,C15*%
X171332000Y-104291000D03*
X169782000Y-104291000D03*
%TD*%
%TO.C,C13*%
X162032000Y-103991000D03*
X160482000Y-103991000D03*
%TD*%
D10*
%TO.C,C1*%
X145982000Y-106465000D03*
X147532000Y-106465000D03*
%TD*%
D17*
%TO.C,C16*%
X170257000Y-109066000D03*
X170257000Y-107516000D03*
%TD*%
D10*
%TO.C,C10*%
X157182000Y-103991000D03*
X158732000Y-103991000D03*
%TD*%
D11*
%TO.C,R1*%
X127782000Y-107191000D03*
X126132000Y-107191000D03*
%TD*%
D19*
%TO.C,C8*%
X152932000Y-109391000D03*
X151382000Y-109391000D03*
%TD*%
D12*
%TO.C,FB1*%
X166107000Y-104491000D03*
X168007000Y-104491000D03*
%TD*%
D20*
%TO.C,C12*%
X161707000Y-116191000D03*
X159807000Y-116191000D03*
%TD*%
D21*
%TO.C,U2*%
X140019500Y-108460000D03*
X140019500Y-109730000D03*
X140019500Y-111000000D03*
X140019500Y-112270000D03*
X145094500Y-112270000D03*
X145094500Y-111000000D03*
X145094500Y-109730000D03*
X145094500Y-108460000D03*
%TD*%
D16*
%TO.C,R3*%
X139232000Y-106465000D03*
X140882000Y-106465000D03*
%TD*%
D11*
%TO.C,R7*%
X149082000Y-110865000D03*
X147432000Y-110865000D03*
%TD*%
D20*
%TO.C,C14*%
X162407000Y-101891000D03*
X160507000Y-101891000D03*
%TD*%
D22*
%TO.C,U3*%
X163602000Y-106491000D03*
X162332000Y-106491000D03*
X161062000Y-106491000D03*
X159792000Y-106491000D03*
X158522000Y-106491000D03*
X157252000Y-106491000D03*
X155982000Y-106491000D03*
X154712000Y-106491000D03*
X154712000Y-111491000D03*
X155982000Y-111491000D03*
X157252000Y-111491000D03*
X158522000Y-111491000D03*
X159792000Y-111491000D03*
X161062000Y-111491000D03*
X162332000Y-111491000D03*
X163602000Y-111491000D03*
%TD*%
D14*
%TO.C,RV3*%
X146819000Y-102291000D03*
D15*
X145669000Y-98291000D03*
D14*
X144519000Y-102291000D03*
%TD*%
D12*
%TO.C,FB2*%
X166007000Y-107491000D03*
X167907000Y-107491000D03*
%TD*%
D16*
%TO.C,R8*%
X152432000Y-103691000D03*
X154082000Y-103691000D03*
%TD*%
%TO.C,R9*%
X151332000Y-111591000D03*
X152982000Y-111591000D03*
%TD*%
D19*
%TO.C,C4*%
X149032000Y-108865000D03*
X147482000Y-108865000D03*
%TD*%
M02*
