%TF.GenerationSoftware,KiCad,Pcbnew,(6.0.7-1)-1*%
%TF.CreationDate,2024-02-27T20:03:13-05:00*%
%TF.ProjectId,EMHarpsichord_KeyboardCapture,454d4861-7270-4736-9963-686f72645f4b,rev?*%
%TF.SameCoordinates,Original*%
%TF.FileFunction,Soldermask,Top*%
%TF.FilePolarity,Negative*%
%FSLAX46Y46*%
G04 Gerber Fmt 4.6, Leading zero omitted, Abs format (unit mm)*
G04 Created by KiCad (PCBNEW (6.0.7-1)-1) date 2024-02-27 20:03:13*
%MOMM*%
%LPD*%
G01*
G04 APERTURE LIST*
G04 Aperture macros list*
%AMRoundRect*
0 Rectangle with rounded corners*
0 $1 Rounding radius*
0 $2 $3 $4 $5 $6 $7 $8 $9 X,Y pos of 4 corners*
0 Add a 4 corners polygon primitive as box body*
4,1,4,$2,$3,$4,$5,$6,$7,$8,$9,$2,$3,0*
0 Add four circle primitives for the rounded corners*
1,1,$1+$1,$2,$3*
1,1,$1+$1,$4,$5*
1,1,$1+$1,$6,$7*
1,1,$1+$1,$8,$9*
0 Add four rect primitives between the rounded corners*
20,1,$1+$1,$2,$3,$4,$5,0*
20,1,$1+$1,$4,$5,$6,$7,0*
20,1,$1+$1,$6,$7,$8,$9,0*
20,1,$1+$1,$8,$9,$2,$3,0*%
%AMFreePoly0*
4,1,37,0.535355,0.785355,0.550000,0.750000,0.550000,-0.750000,0.535355,-0.785355,0.500000,-0.800000,0.000000,-0.800000,-0.012524,-0.794812,-0.080857,-0.793560,-0.094851,-0.791293,-0.230166,-0.749018,-0.242962,-0.742915,-0.360972,-0.664360,-0.371540,-0.654911,-0.462760,-0.546392,-0.470252,-0.534356,-0.527347,-0.404597,-0.531159,-0.390943,-0.548742,-0.256483,-0.547388,-0.256306,-0.550000,-0.250000,
-0.550000,0.250000,-0.549522,0.251153,-0.549368,0.263802,-0.527557,0.403879,-0.523412,0.417435,-0.463164,0.545760,-0.455381,0.557609,-0.361537,0.663867,-0.350741,0.673055,-0.230846,0.748703,-0.217905,0.754492,-0.081598,0.793449,-0.067552,0.795373,-0.011991,0.795033,0.000000,0.800000,0.500000,0.800000,0.535355,0.785355,0.535355,0.785355,$1*%
%AMFreePoly1*
4,1,37,0.012350,0.794884,0.074210,0.794507,0.088231,0.792412,0.224052,0.751793,0.236921,0.745846,0.355883,0.668739,0.366566,0.659420,0.459104,0.552023,0.466742,0.540080,0.525419,0.411028,0.529398,0.397421,0.549495,0.257088,0.550000,0.250000,0.550000,-0.250000,0.549996,-0.250610,0.549847,-0.262826,0.549158,-0.270511,0.525638,-0.410312,0.521328,-0.423818,0.459516,-0.551397,
0.451589,-0.563150,0.356454,-0.668254,0.345546,-0.677309,0.224736,-0.751486,0.211726,-0.757116,0.074953,-0.794405,0.060885,-0.796158,0.011462,-0.795252,0.000000,-0.800000,-0.500000,-0.800000,-0.535355,-0.785355,-0.550000,-0.750000,-0.550000,0.750000,-0.535355,0.785355,-0.500000,0.800000,0.000000,0.800000,0.012350,0.794884,0.012350,0.794884,$1*%
G04 Aperture macros list end*
%ADD10RoundRect,0.250000X-0.200000X-0.275000X0.200000X-0.275000X0.200000X0.275000X-0.200000X0.275000X0*%
%ADD11RoundRect,0.050000X-0.850000X-0.850000X0.850000X-0.850000X0.850000X0.850000X-0.850000X0.850000X0*%
%ADD12O,1.800000X1.800000*%
%ADD13O,8.700000X5.400000*%
%ADD14RoundRect,0.275000X0.250000X-0.225000X0.250000X0.225000X-0.250000X0.225000X-0.250000X-0.225000X0*%
%ADD15RoundRect,0.268750X0.218750X0.256250X-0.218750X0.256250X-0.218750X-0.256250X0.218750X-0.256250X0*%
%ADD16RoundRect,0.250000X0.200000X0.275000X-0.200000X0.275000X-0.200000X-0.275000X0.200000X-0.275000X0*%
%ADD17RoundRect,0.200000X0.150000X-0.512500X0.150000X0.512500X-0.150000X0.512500X-0.150000X-0.512500X0*%
%ADD18FreePoly0,180.000000*%
%ADD19FreePoly1,180.000000*%
%ADD20C,1.800000*%
%ADD21RoundRect,0.275000X-0.225000X-0.250000X0.225000X-0.250000X0.225000X0.250000X-0.225000X0.250000X0*%
%ADD22RoundRect,0.050000X0.450000X0.600000X-0.450000X0.600000X-0.450000X-0.600000X0.450000X-0.600000X0*%
%ADD23C,1.500000*%
G04 APERTURE END LIST*
D10*
%TO.C,R20*%
X202778064Y-98596519D03*
X204428064Y-98596519D03*
%TD*%
%TO.C,R8*%
X118041126Y-98596519D03*
X119691126Y-98596519D03*
%TD*%
%TO.C,R9*%
X132163353Y-101214124D03*
X133813353Y-101214124D03*
%TD*%
%TO.C,R22*%
X216900887Y-98596519D03*
X218550887Y-98596519D03*
%TD*%
%TO.C,R6*%
X103918303Y-98596519D03*
X105568303Y-98596519D03*
%TD*%
D11*
%TO.C,J3*%
X67167800Y-101107200D03*
D12*
X67167800Y-103647200D03*
%TD*%
D10*
%TO.C,R14*%
X160409595Y-98596519D03*
X162059595Y-98596519D03*
%TD*%
D13*
%TO.C,MP1*%
X228092000Y-91948000D03*
%TD*%
D10*
%TO.C,R17*%
X188664173Y-101214124D03*
X190314173Y-101214124D03*
%TD*%
%TO.C,R12*%
X146286772Y-98596519D03*
X147936772Y-98596519D03*
%TD*%
D14*
%TO.C,C2*%
X79232800Y-97315200D03*
X79232800Y-95765200D03*
%TD*%
D15*
%TO.C,D2*%
X83957300Y-93492200D03*
X82382300Y-93492200D03*
%TD*%
D16*
%TO.C,R25*%
X87550800Y-93492200D03*
X85900800Y-93492200D03*
%TD*%
D10*
%TO.C,R15*%
X174538968Y-101214124D03*
X176188968Y-101214124D03*
%TD*%
%TO.C,R5*%
X103912943Y-101214124D03*
X105562943Y-101214124D03*
%TD*%
D16*
%TO.C,R24*%
X222424800Y-98567200D03*
X220774800Y-98567200D03*
%TD*%
D17*
%TO.C,U13*%
X79171800Y-101233700D03*
X80121800Y-101233700D03*
X81071800Y-101233700D03*
X81071800Y-98958700D03*
X79171800Y-98958700D03*
%TD*%
D11*
%TO.C,J2*%
X231505800Y-101107200D03*
D12*
X231505800Y-103647200D03*
%TD*%
D10*
%TO.C,R21*%
X216914583Y-101214124D03*
X218564583Y-101214124D03*
%TD*%
D18*
%TO.C,JP1*%
X80263800Y-93492200D03*
D19*
X78963800Y-93492200D03*
%TD*%
D10*
%TO.C,R16*%
X174532418Y-98596519D03*
X176182418Y-98596519D03*
%TD*%
%TO.C,R2*%
X75232800Y-98596519D03*
X76882800Y-98596519D03*
%TD*%
%TO.C,R11*%
X146288558Y-101214124D03*
X147938558Y-101214124D03*
%TD*%
%TO.C,R19*%
X202789378Y-101214124D03*
X204439378Y-101214124D03*
%TD*%
%TO.C,R3*%
X89787738Y-101214124D03*
X91437738Y-101214124D03*
%TD*%
%TO.C,R10*%
X132163949Y-98596519D03*
X133813949Y-98596519D03*
%TD*%
%TO.C,R13*%
X160413763Y-101214124D03*
X162063763Y-101214124D03*
%TD*%
D13*
%TO.C,MP2*%
X70723800Y-91714200D03*
%TD*%
D20*
%TO.C,J1*%
X130413800Y-90444200D03*
D12*
X132953800Y-90444200D03*
X135493800Y-90444200D03*
X138033800Y-90444200D03*
X140573800Y-90444200D03*
X143113800Y-90444200D03*
X145653800Y-90444200D03*
X148193800Y-90444200D03*
X150733800Y-90444200D03*
X153273800Y-90444200D03*
X155813800Y-90444200D03*
X158353800Y-90444200D03*
%TD*%
D16*
%TO.C,R23*%
X222487800Y-101615200D03*
X220837800Y-101615200D03*
%TD*%
D10*
%TO.C,R4*%
X89795480Y-98596519D03*
X91445480Y-98596519D03*
%TD*%
D21*
%TO.C,C1*%
X79195546Y-103271200D03*
X80745546Y-103271200D03*
%TD*%
D22*
%TO.C,D1*%
X73643800Y-103906200D03*
X70343800Y-103906200D03*
%TD*%
D10*
%TO.C,R18*%
X188655241Y-98596519D03*
X190305241Y-98596519D03*
%TD*%
%TO.C,R1*%
X75232800Y-100858200D03*
X76882800Y-100858200D03*
%TD*%
%TO.C,R7*%
X118038148Y-101214124D03*
X119688148Y-101214124D03*
%TD*%
D23*
%TO.C,U5*%
X129355951Y-98623495D03*
X129355951Y-101123495D03*
X127222351Y-101123495D03*
X127222351Y-98623495D03*
%TD*%
%TO.C,U12*%
X228034951Y-98623495D03*
X228034951Y-101123495D03*
X225901351Y-101123495D03*
X225901351Y-98623495D03*
%TD*%
%TO.C,U2*%
X87064951Y-98623495D03*
X87064951Y-101123495D03*
X84931351Y-101123495D03*
X84931351Y-98623495D03*
%TD*%
%TO.C,U3*%
X101161951Y-98623495D03*
X101161951Y-101123495D03*
X99028351Y-101123495D03*
X99028351Y-98623495D03*
%TD*%
%TO.C,U10*%
X199840951Y-98623495D03*
X199840951Y-101123495D03*
X197707351Y-101123495D03*
X197707351Y-98623495D03*
%TD*%
%TO.C,U8*%
X171646951Y-98623495D03*
X171646951Y-101123495D03*
X169513351Y-101123495D03*
X169513351Y-98623495D03*
%TD*%
%TO.C,U11*%
X213937951Y-98623495D03*
X213937951Y-101123495D03*
X211804351Y-101123495D03*
X211804351Y-98623495D03*
%TD*%
%TO.C,U1*%
X72967951Y-98623495D03*
X72967951Y-101123495D03*
X70834351Y-101123495D03*
X70834351Y-98623495D03*
%TD*%
%TO.C,U6*%
X143452951Y-98623495D03*
X143452951Y-101123495D03*
X141319351Y-101123495D03*
X141319351Y-98623495D03*
%TD*%
%TO.C,U9*%
X185743951Y-98623495D03*
X185743951Y-101123495D03*
X183610351Y-101123495D03*
X183610351Y-98623495D03*
%TD*%
%TO.C,U7*%
X157549951Y-98623495D03*
X157549951Y-101123495D03*
X155416351Y-101123495D03*
X155416351Y-98623495D03*
%TD*%
%TO.C,U4*%
X115258951Y-98623495D03*
X115258951Y-101123495D03*
X113125351Y-101123495D03*
X113125351Y-98623495D03*
%TD*%
M02*
