%TF.GenerationSoftware,KiCad,Pcbnew,(6.0.7-1)-1*%
%TF.CreationDate,2024-02-27T20:03:13-05:00*%
%TF.ProjectId,EMHarpsichord_KeyboardCapture,454d4861-7270-4736-9963-686f72645f4b,rev?*%
%TF.SameCoordinates,Original*%
%TF.FileFunction,Legend,Top*%
%TF.FilePolarity,Positive*%
%FSLAX46Y46*%
G04 Gerber Fmt 4.6, Leading zero omitted, Abs format (unit mm)*
G04 Created by KiCad (PCBNEW (6.0.7-1)-1) date 2024-02-27 20:03:13*
%MOMM*%
%LPD*%
G01*
G04 APERTURE LIST*
G04 Aperture macros list*
%AMRoundRect*
0 Rectangle with rounded corners*
0 $1 Rounding radius*
0 $2 $3 $4 $5 $6 $7 $8 $9 X,Y pos of 4 corners*
0 Add a 4 corners polygon primitive as box body*
4,1,4,$2,$3,$4,$5,$6,$7,$8,$9,$2,$3,0*
0 Add four circle primitives for the rounded corners*
1,1,$1+$1,$2,$3*
1,1,$1+$1,$4,$5*
1,1,$1+$1,$6,$7*
1,1,$1+$1,$8,$9*
0 Add four rect primitives between the rounded corners*
20,1,$1+$1,$2,$3,$4,$5,0*
20,1,$1+$1,$4,$5,$6,$7,0*
20,1,$1+$1,$6,$7,$8,$9,0*
20,1,$1+$1,$8,$9,$2,$3,0*%
%AMFreePoly0*
4,1,37,0.535355,0.785355,0.550000,0.750000,0.550000,-0.750000,0.535355,-0.785355,0.500000,-0.800000,0.000000,-0.800000,-0.012524,-0.794812,-0.080857,-0.793560,-0.094851,-0.791293,-0.230166,-0.749018,-0.242962,-0.742915,-0.360972,-0.664360,-0.371540,-0.654911,-0.462760,-0.546392,-0.470252,-0.534356,-0.527347,-0.404597,-0.531159,-0.390943,-0.548742,-0.256483,-0.547388,-0.256306,-0.550000,-0.250000,
-0.550000,0.250000,-0.549522,0.251153,-0.549368,0.263802,-0.527557,0.403879,-0.523412,0.417435,-0.463164,0.545760,-0.455381,0.557609,-0.361537,0.663867,-0.350741,0.673055,-0.230846,0.748703,-0.217905,0.754492,-0.081598,0.793449,-0.067552,0.795373,-0.011991,0.795033,0.000000,0.800000,0.500000,0.800000,0.535355,0.785355,0.535355,0.785355,$1*%
%AMFreePoly1*
4,1,37,0.012350,0.794884,0.074210,0.794507,0.088231,0.792412,0.224052,0.751793,0.236921,0.745846,0.355883,0.668739,0.366566,0.659420,0.459104,0.552023,0.466742,0.540080,0.525419,0.411028,0.529398,0.397421,0.549495,0.257088,0.550000,0.250000,0.550000,-0.250000,0.549996,-0.250610,0.549847,-0.262826,0.549158,-0.270511,0.525638,-0.410312,0.521328,-0.423818,0.459516,-0.551397,
0.451589,-0.563150,0.356454,-0.668254,0.345546,-0.677309,0.224736,-0.751486,0.211726,-0.757116,0.074953,-0.794405,0.060885,-0.796158,0.011462,-0.795252,0.000000,-0.800000,-0.500000,-0.800000,-0.535355,-0.785355,-0.550000,-0.750000,-0.550000,0.750000,-0.535355,0.785355,-0.500000,0.800000,0.000000,0.800000,0.012350,0.794884,0.012350,0.794884,$1*%
G04 Aperture macros list end*
%ADD10C,0.177800*%
%ADD11C,0.254000*%
%ADD12C,0.190500*%
%ADD13C,0.150000*%
%ADD14C,0.120000*%
%ADD15RoundRect,0.250000X-0.200000X-0.275000X0.200000X-0.275000X0.200000X0.275000X-0.200000X0.275000X0*%
%ADD16RoundRect,0.050000X-0.850000X-0.850000X0.850000X-0.850000X0.850000X0.850000X-0.850000X0.850000X0*%
%ADD17O,1.800000X1.800000*%
%ADD18O,8.700000X5.400000*%
%ADD19RoundRect,0.275000X0.250000X-0.225000X0.250000X0.225000X-0.250000X0.225000X-0.250000X-0.225000X0*%
%ADD20RoundRect,0.268750X0.218750X0.256250X-0.218750X0.256250X-0.218750X-0.256250X0.218750X-0.256250X0*%
%ADD21RoundRect,0.250000X0.200000X0.275000X-0.200000X0.275000X-0.200000X-0.275000X0.200000X-0.275000X0*%
%ADD22RoundRect,0.200000X0.150000X-0.512500X0.150000X0.512500X-0.150000X0.512500X-0.150000X-0.512500X0*%
%ADD23FreePoly0,180.000000*%
%ADD24FreePoly1,180.000000*%
%ADD25C,1.800000*%
%ADD26RoundRect,0.275000X-0.225000X-0.250000X0.225000X-0.250000X0.225000X0.250000X-0.225000X0.250000X0*%
%ADD27RoundRect,0.050000X0.450000X0.600000X-0.450000X0.600000X-0.450000X-0.600000X0.450000X-0.600000X0*%
%ADD28C,1.500000*%
G04 APERTURE END LIST*
D10*
X173128133Y-91623485D02*
X173551466Y-91623485D01*
X173732895Y-92288723D02*
X173128133Y-92288723D01*
X173128133Y-91018723D01*
X173732895Y-91018723D01*
X174277180Y-92288723D02*
X174277180Y-91018723D01*
X174700514Y-91925866D01*
X175123847Y-91018723D01*
X175123847Y-92288723D01*
X176696228Y-92288723D02*
X176696228Y-91018723D01*
X176696228Y-91623485D02*
X177421942Y-91623485D01*
X177421942Y-92288723D02*
X177421942Y-91018723D01*
X178570990Y-92288723D02*
X178570990Y-91623485D01*
X178510514Y-91502533D01*
X178389561Y-91442057D01*
X178147657Y-91442057D01*
X178026704Y-91502533D01*
X178570990Y-92228247D02*
X178450038Y-92288723D01*
X178147657Y-92288723D01*
X178026704Y-92228247D01*
X177966228Y-92107295D01*
X177966228Y-91986342D01*
X178026704Y-91865390D01*
X178147657Y-91804914D01*
X178450038Y-91804914D01*
X178570990Y-91744438D01*
X179175752Y-92288723D02*
X179175752Y-91442057D01*
X179175752Y-91683961D02*
X179236228Y-91563009D01*
X179296704Y-91502533D01*
X179417657Y-91442057D01*
X179538609Y-91442057D01*
X179961942Y-91442057D02*
X179961942Y-92712057D01*
X179961942Y-91502533D02*
X180082895Y-91442057D01*
X180324800Y-91442057D01*
X180445752Y-91502533D01*
X180506228Y-91563009D01*
X180566704Y-91683961D01*
X180566704Y-92046819D01*
X180506228Y-92167771D01*
X180445752Y-92228247D01*
X180324800Y-92288723D01*
X180082895Y-92288723D01*
X179961942Y-92228247D01*
X181050514Y-92228247D02*
X181171466Y-92288723D01*
X181413371Y-92288723D01*
X181534323Y-92228247D01*
X181594800Y-92107295D01*
X181594800Y-92046819D01*
X181534323Y-91925866D01*
X181413371Y-91865390D01*
X181231942Y-91865390D01*
X181110990Y-91804914D01*
X181050514Y-91683961D01*
X181050514Y-91623485D01*
X181110990Y-91502533D01*
X181231942Y-91442057D01*
X181413371Y-91442057D01*
X181534323Y-91502533D01*
X182139085Y-92288723D02*
X182139085Y-91442057D01*
X182139085Y-91018723D02*
X182078609Y-91079200D01*
X182139085Y-91139676D01*
X182199561Y-91079200D01*
X182139085Y-91018723D01*
X182139085Y-91139676D01*
X183288133Y-92228247D02*
X183167180Y-92288723D01*
X182925276Y-92288723D01*
X182804323Y-92228247D01*
X182743847Y-92167771D01*
X182683371Y-92046819D01*
X182683371Y-91683961D01*
X182743847Y-91563009D01*
X182804323Y-91502533D01*
X182925276Y-91442057D01*
X183167180Y-91442057D01*
X183288133Y-91502533D01*
X183832419Y-92288723D02*
X183832419Y-91018723D01*
X184376704Y-92288723D02*
X184376704Y-91623485D01*
X184316228Y-91502533D01*
X184195276Y-91442057D01*
X184013847Y-91442057D01*
X183892895Y-91502533D01*
X183832419Y-91563009D01*
X185162895Y-92288723D02*
X185041942Y-92228247D01*
X184981466Y-92167771D01*
X184920990Y-92046819D01*
X184920990Y-91683961D01*
X184981466Y-91563009D01*
X185041942Y-91502533D01*
X185162895Y-91442057D01*
X185344323Y-91442057D01*
X185465276Y-91502533D01*
X185525752Y-91563009D01*
X185586228Y-91683961D01*
X185586228Y-92046819D01*
X185525752Y-92167771D01*
X185465276Y-92228247D01*
X185344323Y-92288723D01*
X185162895Y-92288723D01*
X186130514Y-92288723D02*
X186130514Y-91442057D01*
X186130514Y-91683961D02*
X186190990Y-91563009D01*
X186251466Y-91502533D01*
X186372419Y-91442057D01*
X186493371Y-91442057D01*
X187460990Y-92288723D02*
X187460990Y-91018723D01*
X187460990Y-92228247D02*
X187340038Y-92288723D01*
X187098133Y-92288723D01*
X186977180Y-92228247D01*
X186916704Y-92167771D01*
X186856228Y-92046819D01*
X186856228Y-91683961D01*
X186916704Y-91563009D01*
X186977180Y-91502533D01*
X187098133Y-91442057D01*
X187340038Y-91442057D01*
X187460990Y-91502533D01*
X189033371Y-91804914D02*
X190000990Y-91804914D01*
X191512895Y-91925866D02*
X192117657Y-91925866D01*
X191391942Y-92288723D02*
X191815276Y-91018723D01*
X192238609Y-92288723D01*
X192661942Y-92167771D02*
X192722419Y-92228247D01*
X192661942Y-92288723D01*
X192601466Y-92228247D01*
X192661942Y-92167771D01*
X192661942Y-92288723D01*
X194899561Y-91079200D02*
X194778609Y-91018723D01*
X194597180Y-91018723D01*
X194415752Y-91079200D01*
X194294800Y-91200152D01*
X194234323Y-91321104D01*
X194173847Y-91563009D01*
X194173847Y-91744438D01*
X194234323Y-91986342D01*
X194294800Y-92107295D01*
X194415752Y-92228247D01*
X194597180Y-92288723D01*
X194718133Y-92288723D01*
X194899561Y-92228247D01*
X194960038Y-92167771D01*
X194960038Y-91744438D01*
X194718133Y-91744438D01*
X195504323Y-92167771D02*
X195564800Y-92228247D01*
X195504323Y-92288723D01*
X195443847Y-92228247D01*
X195504323Y-92167771D01*
X195504323Y-92288723D01*
X197016228Y-92228247D02*
X197197657Y-92288723D01*
X197500038Y-92288723D01*
X197620990Y-92228247D01*
X197681466Y-92167771D01*
X197741942Y-92046819D01*
X197741942Y-91925866D01*
X197681466Y-91804914D01*
X197620990Y-91744438D01*
X197500038Y-91683961D01*
X197258133Y-91623485D01*
X197137180Y-91563009D01*
X197076704Y-91502533D01*
X197016228Y-91381580D01*
X197016228Y-91260628D01*
X197076704Y-91139676D01*
X197137180Y-91079200D01*
X197258133Y-91018723D01*
X197560514Y-91018723D01*
X197741942Y-91079200D01*
X198830514Y-92228247D02*
X198709561Y-92288723D01*
X198467657Y-92288723D01*
X198346704Y-92228247D01*
X198286228Y-92167771D01*
X198225752Y-92046819D01*
X198225752Y-91683961D01*
X198286228Y-91563009D01*
X198346704Y-91502533D01*
X198467657Y-91442057D01*
X198709561Y-91442057D01*
X198830514Y-91502533D01*
X199374800Y-92288723D02*
X199374800Y-91018723D01*
X199919085Y-92288723D02*
X199919085Y-91623485D01*
X199858609Y-91502533D01*
X199737657Y-91442057D01*
X199556228Y-91442057D01*
X199435276Y-91502533D01*
X199374800Y-91563009D01*
X200523847Y-92288723D02*
X200523847Y-91442057D01*
X200523847Y-91563009D02*
X200584323Y-91502533D01*
X200705276Y-91442057D01*
X200886704Y-91442057D01*
X201007657Y-91502533D01*
X201068133Y-91623485D01*
X201068133Y-92288723D01*
X201068133Y-91623485D02*
X201128609Y-91502533D01*
X201249561Y-91442057D01*
X201430990Y-91442057D01*
X201551942Y-91502533D01*
X201612419Y-91623485D01*
X201612419Y-92288723D01*
X202217180Y-92288723D02*
X202217180Y-91442057D01*
X202217180Y-91018723D02*
X202156704Y-91079200D01*
X202217180Y-91139676D01*
X202277657Y-91079200D01*
X202217180Y-91018723D01*
X202217180Y-91139676D01*
X203366228Y-92288723D02*
X203366228Y-91018723D01*
X203366228Y-92228247D02*
X203245276Y-92288723D01*
X203003371Y-92288723D01*
X202882419Y-92228247D01*
X202821942Y-92167771D01*
X202761466Y-92046819D01*
X202761466Y-91683961D01*
X202821942Y-91563009D01*
X202882419Y-91502533D01*
X203003371Y-91442057D01*
X203245276Y-91442057D01*
X203366228Y-91502533D01*
X203789561Y-91442057D02*
X204273371Y-91442057D01*
X203970990Y-91018723D02*
X203970990Y-92107295D01*
X204031466Y-92228247D01*
X204152419Y-92288723D01*
X204273371Y-92288723D01*
X205664323Y-91804914D02*
X206631942Y-91804914D01*
X208627657Y-91623485D02*
X208204323Y-91623485D01*
X208204323Y-92288723D02*
X208204323Y-91018723D01*
X208809085Y-91018723D01*
X209776704Y-92228247D02*
X209655752Y-92288723D01*
X209413847Y-92288723D01*
X209292895Y-92228247D01*
X209232419Y-92107295D01*
X209232419Y-91623485D01*
X209292895Y-91502533D01*
X209413847Y-91442057D01*
X209655752Y-91442057D01*
X209776704Y-91502533D01*
X209837180Y-91623485D01*
X209837180Y-91744438D01*
X209232419Y-91865390D01*
X210381466Y-92288723D02*
X210381466Y-91018723D01*
X210381466Y-91502533D02*
X210502419Y-91442057D01*
X210744323Y-91442057D01*
X210865276Y-91502533D01*
X210925752Y-91563009D01*
X210986228Y-91683961D01*
X210986228Y-92046819D01*
X210925752Y-92167771D01*
X210865276Y-92228247D01*
X210744323Y-92288723D01*
X210502419Y-92288723D01*
X210381466Y-92228247D01*
X212437657Y-91139676D02*
X212498133Y-91079200D01*
X212619085Y-91018723D01*
X212921466Y-91018723D01*
X213042419Y-91079200D01*
X213102895Y-91139676D01*
X213163371Y-91260628D01*
X213163371Y-91381580D01*
X213102895Y-91563009D01*
X212377180Y-92288723D01*
X213163371Y-92288723D01*
X213949561Y-91018723D02*
X214070514Y-91018723D01*
X214191466Y-91079200D01*
X214251942Y-91139676D01*
X214312419Y-91260628D01*
X214372895Y-91502533D01*
X214372895Y-91804914D01*
X214312419Y-92046819D01*
X214251942Y-92167771D01*
X214191466Y-92228247D01*
X214070514Y-92288723D01*
X213949561Y-92288723D01*
X213828609Y-92228247D01*
X213768133Y-92167771D01*
X213707657Y-92046819D01*
X213647180Y-91804914D01*
X213647180Y-91502533D01*
X213707657Y-91260628D01*
X213768133Y-91139676D01*
X213828609Y-91079200D01*
X213949561Y-91018723D01*
X214856704Y-91139676D02*
X214917180Y-91079200D01*
X215038133Y-91018723D01*
X215340514Y-91018723D01*
X215461466Y-91079200D01*
X215521942Y-91139676D01*
X215582419Y-91260628D01*
X215582419Y-91381580D01*
X215521942Y-91563009D01*
X214796228Y-92288723D01*
X215582419Y-92288723D01*
X216670990Y-91442057D02*
X216670990Y-92288723D01*
X216368609Y-90958247D02*
X216066228Y-91865390D01*
X216852419Y-91865390D01*
X129905800Y-92512485D02*
X130679895Y-92802771D01*
X129905800Y-93093057D01*
X131163704Y-92512485D02*
X131937800Y-92802771D01*
X131163704Y-93093057D01*
X132421609Y-92512485D02*
X133195704Y-92802771D01*
X132421609Y-93093057D01*
X133679514Y-92512485D02*
X134453609Y-92802771D01*
X133679514Y-93093057D01*
X134937419Y-92512485D02*
X135711514Y-92802771D01*
X134937419Y-93093057D01*
X136195323Y-92512485D02*
X136969419Y-92802771D01*
X136195323Y-93093057D01*
X137453228Y-92512485D02*
X138227323Y-92802771D01*
X137453228Y-93093057D01*
X138711133Y-92512485D02*
X139485228Y-92802771D01*
X138711133Y-93093057D01*
X139969038Y-92512485D02*
X140743133Y-92802771D01*
X139969038Y-93093057D01*
X141226942Y-92512485D02*
X142001038Y-92802771D01*
X141226942Y-93093057D01*
X142484847Y-92512485D02*
X143258942Y-92802771D01*
X142484847Y-93093057D01*
X143742752Y-92512485D02*
X144516847Y-92802771D01*
X143742752Y-93093057D01*
X145000657Y-92512485D02*
X145774752Y-92802771D01*
X145000657Y-93093057D01*
X146258561Y-92512485D02*
X147032657Y-92802771D01*
X146258561Y-93093057D01*
X147516466Y-92512485D02*
X148290561Y-92802771D01*
X147516466Y-93093057D01*
X148774371Y-92512485D02*
X149548466Y-92802771D01*
X148774371Y-93093057D01*
X150032276Y-92512485D02*
X150806371Y-92802771D01*
X150032276Y-93093057D01*
X151290180Y-92512485D02*
X152064276Y-92802771D01*
X151290180Y-93093057D01*
X152548085Y-92512485D02*
X153322180Y-92802771D01*
X152548085Y-93093057D01*
X153805990Y-92512485D02*
X154580085Y-92802771D01*
X153805990Y-93093057D01*
X155063895Y-92512485D02*
X155837990Y-92802771D01*
X155063895Y-93093057D01*
X156321800Y-92512485D02*
X157095895Y-92802771D01*
X156321800Y-93093057D01*
X157579704Y-92512485D02*
X158353800Y-92802771D01*
X157579704Y-93093057D01*
D11*
X92223085Y-90416985D02*
X92585942Y-90416985D01*
X92767371Y-90507700D01*
X92948799Y-90689128D01*
X93039514Y-91051985D01*
X93039514Y-91686985D01*
X92948799Y-92049842D01*
X92767371Y-92231271D01*
X92585942Y-92321985D01*
X92223085Y-92321985D01*
X92041657Y-92231271D01*
X91860228Y-92049842D01*
X91769514Y-91686985D01*
X91769514Y-91051985D01*
X91860228Y-90689128D01*
X92041657Y-90507700D01*
X92223085Y-90416985D01*
X93855942Y-91051985D02*
X93855942Y-92956985D01*
X93855942Y-91142700D02*
X94037371Y-91051985D01*
X94400228Y-91051985D01*
X94581657Y-91142700D01*
X94672371Y-91233414D01*
X94763085Y-91414842D01*
X94763085Y-91959128D01*
X94672371Y-92140557D01*
X94581657Y-92231271D01*
X94400228Y-92321985D01*
X94037371Y-92321985D01*
X93855942Y-92231271D01*
X95307371Y-91051985D02*
X96033085Y-91051985D01*
X95579514Y-90416985D02*
X95579514Y-92049842D01*
X95670228Y-92231271D01*
X95851657Y-92321985D01*
X96033085Y-92321985D01*
X96668085Y-92321985D02*
X96668085Y-91051985D01*
X96668085Y-90416985D02*
X96577371Y-90507700D01*
X96668085Y-90598414D01*
X96758799Y-90507700D01*
X96668085Y-90416985D01*
X96668085Y-90598414D01*
X98391657Y-92231271D02*
X98210228Y-92321985D01*
X97847371Y-92321985D01*
X97665942Y-92231271D01*
X97575228Y-92140557D01*
X97484514Y-91959128D01*
X97484514Y-91414842D01*
X97575228Y-91233414D01*
X97665942Y-91142700D01*
X97847371Y-91051985D01*
X98210228Y-91051985D01*
X98391657Y-91142700D01*
X100024514Y-92321985D02*
X100024514Y-91324128D01*
X99933799Y-91142700D01*
X99752371Y-91051985D01*
X99389514Y-91051985D01*
X99208085Y-91142700D01*
X100024514Y-92231271D02*
X99843085Y-92321985D01*
X99389514Y-92321985D01*
X99208085Y-92231271D01*
X99117371Y-92049842D01*
X99117371Y-91868414D01*
X99208085Y-91686985D01*
X99389514Y-91596271D01*
X99843085Y-91596271D01*
X100024514Y-91505557D01*
X101203799Y-92321985D02*
X101022371Y-92231271D01*
X100931657Y-92049842D01*
X100931657Y-90416985D01*
X103290228Y-92231271D02*
X103562371Y-92321985D01*
X104015942Y-92321985D01*
X104197371Y-92231271D01*
X104288085Y-92140557D01*
X104378799Y-91959128D01*
X104378799Y-91777700D01*
X104288085Y-91596271D01*
X104197371Y-91505557D01*
X104015942Y-91414842D01*
X103653085Y-91324128D01*
X103471657Y-91233414D01*
X103380942Y-91142700D01*
X103290228Y-90961271D01*
X103290228Y-90779842D01*
X103380942Y-90598414D01*
X103471657Y-90507700D01*
X103653085Y-90416985D01*
X104106657Y-90416985D01*
X104378799Y-90507700D01*
X105920942Y-92231271D02*
X105739514Y-92321985D01*
X105376657Y-92321985D01*
X105195228Y-92231271D01*
X105104514Y-92049842D01*
X105104514Y-91324128D01*
X105195228Y-91142700D01*
X105376657Y-91051985D01*
X105739514Y-91051985D01*
X105920942Y-91142700D01*
X106011657Y-91324128D01*
X106011657Y-91505557D01*
X105104514Y-91686985D01*
X106828085Y-91051985D02*
X106828085Y-92321985D01*
X106828085Y-91233414D02*
X106918799Y-91142700D01*
X107100228Y-91051985D01*
X107372371Y-91051985D01*
X107553799Y-91142700D01*
X107644514Y-91324128D01*
X107644514Y-92321985D01*
X108460942Y-92231271D02*
X108642371Y-92321985D01*
X109005228Y-92321985D01*
X109186657Y-92231271D01*
X109277371Y-92049842D01*
X109277371Y-91959128D01*
X109186657Y-91777700D01*
X109005228Y-91686985D01*
X108733085Y-91686985D01*
X108551657Y-91596271D01*
X108460942Y-91414842D01*
X108460942Y-91324128D01*
X108551657Y-91142700D01*
X108733085Y-91051985D01*
X109005228Y-91051985D01*
X109186657Y-91142700D01*
X110365942Y-92321985D02*
X110184514Y-92231271D01*
X110093800Y-92140557D01*
X110003085Y-91959128D01*
X110003085Y-91414842D01*
X110093800Y-91233414D01*
X110184514Y-91142700D01*
X110365942Y-91051985D01*
X110638085Y-91051985D01*
X110819514Y-91142700D01*
X110910228Y-91233414D01*
X111000942Y-91414842D01*
X111000942Y-91959128D01*
X110910228Y-92140557D01*
X110819514Y-92231271D01*
X110638085Y-92321985D01*
X110365942Y-92321985D01*
X111817371Y-92321985D02*
X111817371Y-91051985D01*
X111817371Y-91414842D02*
X111908085Y-91233414D01*
X111998800Y-91142700D01*
X112180228Y-91051985D01*
X112361657Y-91051985D01*
X114357371Y-91777700D02*
X115264514Y-91777700D01*
X114175942Y-92321985D02*
X114810942Y-90416985D01*
X115445942Y-92321985D01*
X116080942Y-92321985D02*
X116080942Y-91051985D01*
X116080942Y-91414842D02*
X116171657Y-91233414D01*
X116262371Y-91142700D01*
X116443799Y-91051985D01*
X116625228Y-91051985D01*
X117260228Y-92321985D02*
X117260228Y-91051985D01*
X117260228Y-91414842D02*
X117350942Y-91233414D01*
X117441657Y-91142700D01*
X117623085Y-91051985D01*
X117804514Y-91051985D01*
X119255942Y-92321985D02*
X119255942Y-91324128D01*
X119165228Y-91142700D01*
X118983799Y-91051985D01*
X118620942Y-91051985D01*
X118439514Y-91142700D01*
X119255942Y-92231271D02*
X119074514Y-92321985D01*
X118620942Y-92321985D01*
X118439514Y-92231271D01*
X118348799Y-92049842D01*
X118348799Y-91868414D01*
X118439514Y-91686985D01*
X118620942Y-91596271D01*
X119074514Y-91596271D01*
X119255942Y-91505557D01*
X119981657Y-91051985D02*
X120435228Y-92321985D01*
X120888799Y-91051985D02*
X120435228Y-92321985D01*
X120253799Y-92775557D01*
X120163085Y-92866271D01*
X119981657Y-92956985D01*
D10*
X122817990Y-93136438D02*
X122963133Y-93184819D01*
X123205038Y-93184819D01*
X123301800Y-93136438D01*
X123350180Y-93088057D01*
X123398561Y-92991295D01*
X123398561Y-92894533D01*
X123350180Y-92797771D01*
X123301800Y-92749390D01*
X123205038Y-92701009D01*
X123011514Y-92652628D01*
X122914752Y-92604247D01*
X122866371Y-92555866D01*
X122817990Y-92459104D01*
X122817990Y-92362342D01*
X122866371Y-92265580D01*
X122914752Y-92217200D01*
X123011514Y-92168819D01*
X123253419Y-92168819D01*
X123398561Y-92217200D01*
X124221038Y-93136438D02*
X124124276Y-93184819D01*
X123930752Y-93184819D01*
X123833990Y-93136438D01*
X123785609Y-93039676D01*
X123785609Y-92652628D01*
X123833990Y-92555866D01*
X123930752Y-92507485D01*
X124124276Y-92507485D01*
X124221038Y-92555866D01*
X124269419Y-92652628D01*
X124269419Y-92749390D01*
X123785609Y-92846152D01*
X124704847Y-92507485D02*
X124704847Y-93184819D01*
X124704847Y-92604247D02*
X124753228Y-92555866D01*
X124849990Y-92507485D01*
X124995133Y-92507485D01*
X125091895Y-92555866D01*
X125140276Y-92652628D01*
X125140276Y-93184819D01*
X125575704Y-93136438D02*
X125672466Y-93184819D01*
X125865990Y-93184819D01*
X125962752Y-93136438D01*
X126011133Y-93039676D01*
X126011133Y-92991295D01*
X125962752Y-92894533D01*
X125865990Y-92846152D01*
X125720847Y-92846152D01*
X125624085Y-92797771D01*
X125575704Y-92701009D01*
X125575704Y-92652628D01*
X125624085Y-92555866D01*
X125720847Y-92507485D01*
X125865990Y-92507485D01*
X125962752Y-92555866D01*
X126833609Y-93136438D02*
X126736847Y-93184819D01*
X126543323Y-93184819D01*
X126446561Y-93136438D01*
X126398180Y-93039676D01*
X126398180Y-92652628D01*
X126446561Y-92555866D01*
X126543323Y-92507485D01*
X126736847Y-92507485D01*
X126833609Y-92555866D01*
X126881990Y-92652628D01*
X126881990Y-92749390D01*
X126398180Y-92846152D01*
X127849609Y-93184819D02*
X127269038Y-93184819D01*
X127559323Y-93184819D02*
X127559323Y-92168819D01*
X127462561Y-92313961D01*
X127365800Y-92410723D01*
X127269038Y-92459104D01*
D12*
X80675238Y-90363523D02*
X80675238Y-89093523D01*
X81159047Y-89093523D01*
X81280000Y-89154000D01*
X81340476Y-89214476D01*
X81400952Y-89335428D01*
X81400952Y-89516857D01*
X81340476Y-89637809D01*
X81280000Y-89698285D01*
X81159047Y-89758761D01*
X80675238Y-89758761D01*
X82126666Y-90363523D02*
X82005714Y-90303047D01*
X81945238Y-90242571D01*
X81884761Y-90121619D01*
X81884761Y-89758761D01*
X81945238Y-89637809D01*
X82005714Y-89577333D01*
X82126666Y-89516857D01*
X82308095Y-89516857D01*
X82429047Y-89577333D01*
X82489523Y-89637809D01*
X82550000Y-89758761D01*
X82550000Y-90121619D01*
X82489523Y-90242571D01*
X82429047Y-90303047D01*
X82308095Y-90363523D01*
X82126666Y-90363523D01*
X82973333Y-89516857D02*
X83215238Y-90363523D01*
X83457142Y-89758761D01*
X83699047Y-90363523D01*
X83940952Y-89516857D01*
X84908571Y-90303047D02*
X84787619Y-90363523D01*
X84545714Y-90363523D01*
X84424761Y-90303047D01*
X84364285Y-90182095D01*
X84364285Y-89698285D01*
X84424761Y-89577333D01*
X84545714Y-89516857D01*
X84787619Y-89516857D01*
X84908571Y-89577333D01*
X84969047Y-89698285D01*
X84969047Y-89819238D01*
X84364285Y-89940190D01*
X85513333Y-90363523D02*
X85513333Y-89516857D01*
X85513333Y-89758761D02*
X85573809Y-89637809D01*
X85634285Y-89577333D01*
X85755238Y-89516857D01*
X85876190Y-89516857D01*
D10*
X160942180Y-93136438D02*
X161087323Y-93184819D01*
X161329228Y-93184819D01*
X161425990Y-93136438D01*
X161474371Y-93088057D01*
X161522752Y-92991295D01*
X161522752Y-92894533D01*
X161474371Y-92797771D01*
X161425990Y-92749390D01*
X161329228Y-92701009D01*
X161135704Y-92652628D01*
X161038942Y-92604247D01*
X160990561Y-92555866D01*
X160942180Y-92459104D01*
X160942180Y-92362342D01*
X160990561Y-92265580D01*
X161038942Y-92217200D01*
X161135704Y-92168819D01*
X161377609Y-92168819D01*
X161522752Y-92217200D01*
X162345228Y-93136438D02*
X162248466Y-93184819D01*
X162054942Y-93184819D01*
X161958180Y-93136438D01*
X161909800Y-93039676D01*
X161909800Y-92652628D01*
X161958180Y-92555866D01*
X162054942Y-92507485D01*
X162248466Y-92507485D01*
X162345228Y-92555866D01*
X162393609Y-92652628D01*
X162393609Y-92749390D01*
X161909800Y-92846152D01*
X162829038Y-92507485D02*
X162829038Y-93184819D01*
X162829038Y-92604247D02*
X162877419Y-92555866D01*
X162974180Y-92507485D01*
X163119323Y-92507485D01*
X163216085Y-92555866D01*
X163264466Y-92652628D01*
X163264466Y-93184819D01*
X163699895Y-93136438D02*
X163796657Y-93184819D01*
X163990180Y-93184819D01*
X164086942Y-93136438D01*
X164135323Y-93039676D01*
X164135323Y-92991295D01*
X164086942Y-92894533D01*
X163990180Y-92846152D01*
X163845038Y-92846152D01*
X163748276Y-92797771D01*
X163699895Y-92701009D01*
X163699895Y-92652628D01*
X163748276Y-92555866D01*
X163845038Y-92507485D01*
X163990180Y-92507485D01*
X164086942Y-92555866D01*
X164957800Y-93136438D02*
X164861038Y-93184819D01*
X164667514Y-93184819D01*
X164570752Y-93136438D01*
X164522371Y-93039676D01*
X164522371Y-92652628D01*
X164570752Y-92555866D01*
X164667514Y-92507485D01*
X164861038Y-92507485D01*
X164957800Y-92555866D01*
X165006180Y-92652628D01*
X165006180Y-92749390D01*
X164522371Y-92846152D01*
X165973800Y-93184819D02*
X165393228Y-93184819D01*
X165683514Y-93184819D02*
X165683514Y-92168819D01*
X165586752Y-92313961D01*
X165489990Y-92410723D01*
X165393228Y-92459104D01*
X166360847Y-92265580D02*
X166409228Y-92217200D01*
X166505990Y-92168819D01*
X166747895Y-92168819D01*
X166844657Y-92217200D01*
X166893038Y-92265580D01*
X166941419Y-92362342D01*
X166941419Y-92459104D01*
X166893038Y-92604247D01*
X166312466Y-93184819D01*
X166941419Y-93184819D01*
D13*
%TO.C,R20*%
X206214530Y-99071223D02*
X205881197Y-98595033D01*
X205643102Y-99071223D02*
X205643102Y-98071223D01*
X206024054Y-98071223D01*
X206119292Y-98118843D01*
X206166911Y-98166462D01*
X206214530Y-98261700D01*
X206214530Y-98404557D01*
X206166911Y-98499795D01*
X206119292Y-98547414D01*
X206024054Y-98595033D01*
X205643102Y-98595033D01*
X206595483Y-98166462D02*
X206643102Y-98118843D01*
X206738340Y-98071223D01*
X206976435Y-98071223D01*
X207071673Y-98118843D01*
X207119292Y-98166462D01*
X207166911Y-98261700D01*
X207166911Y-98356938D01*
X207119292Y-98499795D01*
X206547864Y-99071223D01*
X207166911Y-99071223D01*
X207785959Y-98071223D02*
X207881197Y-98071223D01*
X207976435Y-98118843D01*
X208024054Y-98166462D01*
X208071673Y-98261700D01*
X208119292Y-98452176D01*
X208119292Y-98690271D01*
X208071673Y-98880747D01*
X208024054Y-98975985D01*
X207976435Y-99023604D01*
X207881197Y-99071223D01*
X207785959Y-99071223D01*
X207690721Y-99023604D01*
X207643102Y-98975985D01*
X207595483Y-98880747D01*
X207547864Y-98690271D01*
X207547864Y-98452176D01*
X207595483Y-98261700D01*
X207643102Y-98166462D01*
X207690721Y-98118843D01*
X207785959Y-98071223D01*
%TO.C,R8*%
X121357133Y-99071223D02*
X121023800Y-98595033D01*
X120785704Y-99071223D02*
X120785704Y-98071223D01*
X121166657Y-98071223D01*
X121261895Y-98118843D01*
X121309514Y-98166462D01*
X121357133Y-98261700D01*
X121357133Y-98404557D01*
X121309514Y-98499795D01*
X121261895Y-98547414D01*
X121166657Y-98595033D01*
X120785704Y-98595033D01*
X121928561Y-98499795D02*
X121833323Y-98452176D01*
X121785704Y-98404557D01*
X121738085Y-98309319D01*
X121738085Y-98261700D01*
X121785704Y-98166462D01*
X121833323Y-98118843D01*
X121928561Y-98071223D01*
X122119038Y-98071223D01*
X122214276Y-98118843D01*
X122261895Y-98166462D01*
X122309514Y-98261700D01*
X122309514Y-98309319D01*
X122261895Y-98404557D01*
X122214276Y-98452176D01*
X122119038Y-98499795D01*
X121928561Y-98499795D01*
X121833323Y-98547414D01*
X121785704Y-98595033D01*
X121738085Y-98690271D01*
X121738085Y-98880747D01*
X121785704Y-98975985D01*
X121833323Y-99023604D01*
X121928561Y-99071223D01*
X122119038Y-99071223D01*
X122214276Y-99023604D01*
X122261895Y-98975985D01*
X122309514Y-98880747D01*
X122309514Y-98690271D01*
X122261895Y-98595033D01*
X122214276Y-98547414D01*
X122119038Y-98499795D01*
%TO.C,R9*%
X135581133Y-101747580D02*
X135247800Y-101271390D01*
X135009704Y-101747580D02*
X135009704Y-100747580D01*
X135390657Y-100747580D01*
X135485895Y-100795200D01*
X135533514Y-100842819D01*
X135581133Y-100938057D01*
X135581133Y-101080914D01*
X135533514Y-101176152D01*
X135485895Y-101223771D01*
X135390657Y-101271390D01*
X135009704Y-101271390D01*
X136057323Y-101747580D02*
X136247800Y-101747580D01*
X136343038Y-101699961D01*
X136390657Y-101652342D01*
X136485895Y-101509485D01*
X136533514Y-101319009D01*
X136533514Y-100938057D01*
X136485895Y-100842819D01*
X136438276Y-100795200D01*
X136343038Y-100747580D01*
X136152561Y-100747580D01*
X136057323Y-100795200D01*
X136009704Y-100842819D01*
X135962085Y-100938057D01*
X135962085Y-101176152D01*
X136009704Y-101271390D01*
X136057323Y-101319009D01*
X136152561Y-101366628D01*
X136343038Y-101366628D01*
X136438276Y-101319009D01*
X136485895Y-101271390D01*
X136533514Y-101176152D01*
%TO.C,R22*%
X217146942Y-97495580D02*
X216813609Y-97019390D01*
X216575514Y-97495580D02*
X216575514Y-96495580D01*
X216956466Y-96495580D01*
X217051704Y-96543200D01*
X217099323Y-96590819D01*
X217146942Y-96686057D01*
X217146942Y-96828914D01*
X217099323Y-96924152D01*
X217051704Y-96971771D01*
X216956466Y-97019390D01*
X216575514Y-97019390D01*
X217527895Y-96590819D02*
X217575514Y-96543200D01*
X217670752Y-96495580D01*
X217908847Y-96495580D01*
X218004085Y-96543200D01*
X218051704Y-96590819D01*
X218099323Y-96686057D01*
X218099323Y-96781295D01*
X218051704Y-96924152D01*
X217480276Y-97495580D01*
X218099323Y-97495580D01*
X218480276Y-96590819D02*
X218527895Y-96543200D01*
X218623133Y-96495580D01*
X218861228Y-96495580D01*
X218956466Y-96543200D01*
X219004085Y-96590819D01*
X219051704Y-96686057D01*
X219051704Y-96781295D01*
X219004085Y-96924152D01*
X218432657Y-97495580D01*
X219051704Y-97495580D01*
%TO.C,R6*%
X107387133Y-99071223D02*
X107053800Y-98595033D01*
X106815704Y-99071223D02*
X106815704Y-98071223D01*
X107196657Y-98071223D01*
X107291895Y-98118843D01*
X107339514Y-98166462D01*
X107387133Y-98261700D01*
X107387133Y-98404557D01*
X107339514Y-98499795D01*
X107291895Y-98547414D01*
X107196657Y-98595033D01*
X106815704Y-98595033D01*
X108244276Y-98071223D02*
X108053800Y-98071223D01*
X107958561Y-98118843D01*
X107910942Y-98166462D01*
X107815704Y-98309319D01*
X107768085Y-98499795D01*
X107768085Y-98880747D01*
X107815704Y-98975985D01*
X107863323Y-99023604D01*
X107958561Y-99071223D01*
X108149038Y-99071223D01*
X108244276Y-99023604D01*
X108291895Y-98975985D01*
X108339514Y-98880747D01*
X108339514Y-98642652D01*
X108291895Y-98547414D01*
X108244276Y-98499795D01*
X108149038Y-98452176D01*
X107958561Y-98452176D01*
X107863323Y-98499795D01*
X107815704Y-98547414D01*
X107768085Y-98642652D01*
%TO.C,J3*%
X66834466Y-98229580D02*
X66834466Y-98943866D01*
X66786847Y-99086723D01*
X66691609Y-99181961D01*
X66548752Y-99229580D01*
X66453514Y-99229580D01*
X67215419Y-98229580D02*
X67834466Y-98229580D01*
X67501133Y-98610533D01*
X67643990Y-98610533D01*
X67739228Y-98658152D01*
X67786847Y-98705771D01*
X67834466Y-98801009D01*
X67834466Y-99039104D01*
X67786847Y-99134342D01*
X67739228Y-99181961D01*
X67643990Y-99229580D01*
X67358276Y-99229580D01*
X67263038Y-99181961D01*
X67215419Y-99134342D01*
%TO.C,R14*%
X163846061Y-99071223D02*
X163512728Y-98595033D01*
X163274633Y-99071223D02*
X163274633Y-98071223D01*
X163655585Y-98071223D01*
X163750823Y-98118843D01*
X163798442Y-98166462D01*
X163846061Y-98261700D01*
X163846061Y-98404557D01*
X163798442Y-98499795D01*
X163750823Y-98547414D01*
X163655585Y-98595033D01*
X163274633Y-98595033D01*
X164798442Y-99071223D02*
X164227014Y-99071223D01*
X164512728Y-99071223D02*
X164512728Y-98071223D01*
X164417490Y-98214081D01*
X164322252Y-98309319D01*
X164227014Y-98356938D01*
X165655585Y-98404557D02*
X165655585Y-99071223D01*
X165417490Y-98023604D02*
X165179395Y-98737890D01*
X165798442Y-98737890D01*
%TO.C,R17*%
X192126532Y-101747580D02*
X191793199Y-101271390D01*
X191555104Y-101747580D02*
X191555104Y-100747580D01*
X191936056Y-100747580D01*
X192031294Y-100795200D01*
X192078913Y-100842819D01*
X192126532Y-100938057D01*
X192126532Y-101080914D01*
X192078913Y-101176152D01*
X192031294Y-101223771D01*
X191936056Y-101271390D01*
X191555104Y-101271390D01*
X193078913Y-101747580D02*
X192507485Y-101747580D01*
X192793199Y-101747580D02*
X192793199Y-100747580D01*
X192697961Y-100890438D01*
X192602723Y-100985676D01*
X192507485Y-101033295D01*
X193412247Y-100747580D02*
X194078913Y-100747580D01*
X193650342Y-101747580D01*
%TO.C,R12*%
X149723238Y-99071223D02*
X149389905Y-98595033D01*
X149151810Y-99071223D02*
X149151810Y-98071223D01*
X149532762Y-98071223D01*
X149628000Y-98118843D01*
X149675619Y-98166462D01*
X149723238Y-98261700D01*
X149723238Y-98404557D01*
X149675619Y-98499795D01*
X149628000Y-98547414D01*
X149532762Y-98595033D01*
X149151810Y-98595033D01*
X150675619Y-99071223D02*
X150104191Y-99071223D01*
X150389905Y-99071223D02*
X150389905Y-98071223D01*
X150294667Y-98214081D01*
X150199429Y-98309319D01*
X150104191Y-98356938D01*
X151056572Y-98166462D02*
X151104191Y-98118843D01*
X151199429Y-98071223D01*
X151437524Y-98071223D01*
X151532762Y-98118843D01*
X151580381Y-98166462D01*
X151628000Y-98261700D01*
X151628000Y-98356938D01*
X151580381Y-98499795D01*
X151008953Y-99071223D01*
X151628000Y-99071223D01*
%TO.C,C2*%
X77288133Y-95881342D02*
X77240514Y-95928961D01*
X77097657Y-95976580D01*
X77002419Y-95976580D01*
X76859561Y-95928961D01*
X76764323Y-95833723D01*
X76716704Y-95738485D01*
X76669085Y-95548009D01*
X76669085Y-95405152D01*
X76716704Y-95214676D01*
X76764323Y-95119438D01*
X76859561Y-95024200D01*
X77002419Y-94976580D01*
X77097657Y-94976580D01*
X77240514Y-95024200D01*
X77288133Y-95071819D01*
X77669085Y-95071819D02*
X77716704Y-95024200D01*
X77811942Y-94976580D01*
X78050038Y-94976580D01*
X78145276Y-95024200D01*
X78192895Y-95071819D01*
X78240514Y-95167057D01*
X78240514Y-95262295D01*
X78192895Y-95405152D01*
X77621466Y-95976580D01*
X78240514Y-95976580D01*
%TO.C,D2*%
X82431704Y-92420580D02*
X82431704Y-91420580D01*
X82669800Y-91420580D01*
X82812657Y-91468200D01*
X82907895Y-91563438D01*
X82955514Y-91658676D01*
X83003133Y-91849152D01*
X83003133Y-91992009D01*
X82955514Y-92182485D01*
X82907895Y-92277723D01*
X82812657Y-92372961D01*
X82669800Y-92420580D01*
X82431704Y-92420580D01*
X83384085Y-91515819D02*
X83431704Y-91468200D01*
X83526942Y-91420580D01*
X83765038Y-91420580D01*
X83860276Y-91468200D01*
X83907895Y-91515819D01*
X83955514Y-91611057D01*
X83955514Y-91706295D01*
X83907895Y-91849152D01*
X83336466Y-92420580D01*
X83955514Y-92420580D01*
%TO.C,R25*%
X86082942Y-92547580D02*
X85749609Y-92071390D01*
X85511514Y-92547580D02*
X85511514Y-91547580D01*
X85892466Y-91547580D01*
X85987704Y-91595200D01*
X86035323Y-91642819D01*
X86082942Y-91738057D01*
X86082942Y-91880914D01*
X86035323Y-91976152D01*
X85987704Y-92023771D01*
X85892466Y-92071390D01*
X85511514Y-92071390D01*
X86463895Y-91642819D02*
X86511514Y-91595200D01*
X86606752Y-91547580D01*
X86844847Y-91547580D01*
X86940085Y-91595200D01*
X86987704Y-91642819D01*
X87035323Y-91738057D01*
X87035323Y-91833295D01*
X86987704Y-91976152D01*
X86416276Y-92547580D01*
X87035323Y-92547580D01*
X87940085Y-91547580D02*
X87463895Y-91547580D01*
X87416276Y-92023771D01*
X87463895Y-91976152D01*
X87559133Y-91928533D01*
X87797228Y-91928533D01*
X87892466Y-91976152D01*
X87940085Y-92023771D01*
X87987704Y-92119009D01*
X87987704Y-92357104D01*
X87940085Y-92452342D01*
X87892466Y-92499961D01*
X87797228Y-92547580D01*
X87559133Y-92547580D01*
X87463895Y-92499961D01*
X87416276Y-92452342D01*
%TO.C,R15*%
X178001327Y-101747580D02*
X177667994Y-101271390D01*
X177429899Y-101747580D02*
X177429899Y-100747580D01*
X177810851Y-100747580D01*
X177906089Y-100795200D01*
X177953708Y-100842819D01*
X178001327Y-100938057D01*
X178001327Y-101080914D01*
X177953708Y-101176152D01*
X177906089Y-101223771D01*
X177810851Y-101271390D01*
X177429899Y-101271390D01*
X178953708Y-101747580D02*
X178382280Y-101747580D01*
X178667994Y-101747580D02*
X178667994Y-100747580D01*
X178572756Y-100890438D01*
X178477518Y-100985676D01*
X178382280Y-101033295D01*
X179858470Y-100747580D02*
X179382280Y-100747580D01*
X179334661Y-101223771D01*
X179382280Y-101176152D01*
X179477518Y-101128533D01*
X179715613Y-101128533D01*
X179810851Y-101176152D01*
X179858470Y-101223771D01*
X179906089Y-101319009D01*
X179906089Y-101557104D01*
X179858470Y-101652342D01*
X179810851Y-101699961D01*
X179715613Y-101747580D01*
X179477518Y-101747580D01*
X179382280Y-101699961D01*
X179334661Y-101652342D01*
%TO.C,R5*%
X107407666Y-101747580D02*
X107074333Y-101271390D01*
X106836237Y-101747580D02*
X106836237Y-100747580D01*
X107217190Y-100747580D01*
X107312428Y-100795200D01*
X107360047Y-100842819D01*
X107407666Y-100938057D01*
X107407666Y-101080914D01*
X107360047Y-101176152D01*
X107312428Y-101223771D01*
X107217190Y-101271390D01*
X106836237Y-101271390D01*
X108312428Y-100747580D02*
X107836237Y-100747580D01*
X107788618Y-101223771D01*
X107836237Y-101176152D01*
X107931475Y-101128533D01*
X108169571Y-101128533D01*
X108264809Y-101176152D01*
X108312428Y-101223771D01*
X108360047Y-101319009D01*
X108360047Y-101557104D01*
X108312428Y-101652342D01*
X108264809Y-101699961D01*
X108169571Y-101747580D01*
X107931475Y-101747580D01*
X107836237Y-101699961D01*
X107788618Y-101652342D01*
%TO.C,R24*%
X220956942Y-97495580D02*
X220623609Y-97019390D01*
X220385514Y-97495580D02*
X220385514Y-96495580D01*
X220766466Y-96495580D01*
X220861704Y-96543200D01*
X220909323Y-96590819D01*
X220956942Y-96686057D01*
X220956942Y-96828914D01*
X220909323Y-96924152D01*
X220861704Y-96971771D01*
X220766466Y-97019390D01*
X220385514Y-97019390D01*
X221337895Y-96590819D02*
X221385514Y-96543200D01*
X221480752Y-96495580D01*
X221718847Y-96495580D01*
X221814085Y-96543200D01*
X221861704Y-96590819D01*
X221909323Y-96686057D01*
X221909323Y-96781295D01*
X221861704Y-96924152D01*
X221290276Y-97495580D01*
X221909323Y-97495580D01*
X222766466Y-96828914D02*
X222766466Y-97495580D01*
X222528371Y-96447961D02*
X222290276Y-97162247D01*
X222909323Y-97162247D01*
%TO.C,U13*%
X82114180Y-101080295D02*
X82923704Y-101080295D01*
X83018942Y-101032676D01*
X83066561Y-100985057D01*
X83114180Y-100889819D01*
X83114180Y-100699342D01*
X83066561Y-100604104D01*
X83018942Y-100556485D01*
X82923704Y-100508866D01*
X82114180Y-100508866D01*
X83114180Y-99508866D02*
X83114180Y-100080295D01*
X83114180Y-99794580D02*
X82114180Y-99794580D01*
X82257038Y-99889819D01*
X82352276Y-99985057D01*
X82399895Y-100080295D01*
X82114180Y-99175533D02*
X82114180Y-98556485D01*
X82495133Y-98889819D01*
X82495133Y-98746961D01*
X82542752Y-98651723D01*
X82590371Y-98604104D01*
X82685609Y-98556485D01*
X82923704Y-98556485D01*
X83018942Y-98604104D01*
X83066561Y-98651723D01*
X83114180Y-98746961D01*
X83114180Y-99032676D01*
X83066561Y-99127914D01*
X83018942Y-99175533D01*
%TO.C,J2*%
X231172466Y-98229580D02*
X231172466Y-98943866D01*
X231124847Y-99086723D01*
X231029609Y-99181961D01*
X230886752Y-99229580D01*
X230791514Y-99229580D01*
X231601038Y-98324819D02*
X231648657Y-98277200D01*
X231743895Y-98229580D01*
X231981990Y-98229580D01*
X232077228Y-98277200D01*
X232124847Y-98324819D01*
X232172466Y-98420057D01*
X232172466Y-98515295D01*
X232124847Y-98658152D01*
X231553419Y-99229580D01*
X232172466Y-99229580D01*
%TO.C,R21*%
X217146942Y-103591580D02*
X216813609Y-103115390D01*
X216575514Y-103591580D02*
X216575514Y-102591580D01*
X216956466Y-102591580D01*
X217051704Y-102639200D01*
X217099323Y-102686819D01*
X217146942Y-102782057D01*
X217146942Y-102924914D01*
X217099323Y-103020152D01*
X217051704Y-103067771D01*
X216956466Y-103115390D01*
X216575514Y-103115390D01*
X217527895Y-102686819D02*
X217575514Y-102639200D01*
X217670752Y-102591580D01*
X217908847Y-102591580D01*
X218004085Y-102639200D01*
X218051704Y-102686819D01*
X218099323Y-102782057D01*
X218099323Y-102877295D01*
X218051704Y-103020152D01*
X217480276Y-103591580D01*
X218099323Y-103591580D01*
X219051704Y-103591580D02*
X218480276Y-103591580D01*
X218765990Y-103591580D02*
X218765990Y-102591580D01*
X218670752Y-102734438D01*
X218575514Y-102829676D01*
X218480276Y-102877295D01*
%TO.C,JP1*%
X78780466Y-90912580D02*
X78780466Y-91626866D01*
X78732847Y-91769723D01*
X78637609Y-91864961D01*
X78494752Y-91912580D01*
X78399514Y-91912580D01*
X79256657Y-91912580D02*
X79256657Y-90912580D01*
X79637609Y-90912580D01*
X79732847Y-90960200D01*
X79780466Y-91007819D01*
X79828085Y-91103057D01*
X79828085Y-91245914D01*
X79780466Y-91341152D01*
X79732847Y-91388771D01*
X79637609Y-91436390D01*
X79256657Y-91436390D01*
X80780466Y-91912580D02*
X80209038Y-91912580D01*
X80494752Y-91912580D02*
X80494752Y-90912580D01*
X80399514Y-91055438D01*
X80304276Y-91150676D01*
X80209038Y-91198295D01*
%TO.C,R16*%
X177968884Y-99071223D02*
X177635551Y-98595033D01*
X177397456Y-99071223D02*
X177397456Y-98071223D01*
X177778408Y-98071223D01*
X177873646Y-98118843D01*
X177921265Y-98166462D01*
X177968884Y-98261700D01*
X177968884Y-98404557D01*
X177921265Y-98499795D01*
X177873646Y-98547414D01*
X177778408Y-98595033D01*
X177397456Y-98595033D01*
X178921265Y-99071223D02*
X178349837Y-99071223D01*
X178635551Y-99071223D02*
X178635551Y-98071223D01*
X178540313Y-98214081D01*
X178445075Y-98309319D01*
X178349837Y-98356938D01*
X179778408Y-98071223D02*
X179587932Y-98071223D01*
X179492694Y-98118843D01*
X179445075Y-98166462D01*
X179349837Y-98309319D01*
X179302218Y-98499795D01*
X179302218Y-98880747D01*
X179349837Y-98975985D01*
X179397456Y-99023604D01*
X179492694Y-99071223D01*
X179683170Y-99071223D01*
X179778408Y-99023604D01*
X179826027Y-98975985D01*
X179873646Y-98880747D01*
X179873646Y-98642652D01*
X179826027Y-98547414D01*
X179778408Y-98499795D01*
X179683170Y-98452176D01*
X179492694Y-98452176D01*
X179397456Y-98499795D01*
X179349837Y-98547414D01*
X179302218Y-98642652D01*
%TO.C,R2*%
X75705276Y-97749580D02*
X75371943Y-97273390D01*
X75133847Y-97749580D02*
X75133847Y-96749580D01*
X75514800Y-96749580D01*
X75610038Y-96797200D01*
X75657657Y-96844819D01*
X75705276Y-96940057D01*
X75705276Y-97082914D01*
X75657657Y-97178152D01*
X75610038Y-97225771D01*
X75514800Y-97273390D01*
X75133847Y-97273390D01*
X76086228Y-96844819D02*
X76133847Y-96797200D01*
X76229085Y-96749580D01*
X76467181Y-96749580D01*
X76562419Y-96797200D01*
X76610038Y-96844819D01*
X76657657Y-96940057D01*
X76657657Y-97035295D01*
X76610038Y-97178152D01*
X76038609Y-97749580D01*
X76657657Y-97749580D01*
%TO.C,R11*%
X149750917Y-101747580D02*
X149417584Y-101271390D01*
X149179489Y-101747580D02*
X149179489Y-100747580D01*
X149560441Y-100747580D01*
X149655679Y-100795200D01*
X149703298Y-100842819D01*
X149750917Y-100938057D01*
X149750917Y-101080914D01*
X149703298Y-101176152D01*
X149655679Y-101223771D01*
X149560441Y-101271390D01*
X149179489Y-101271390D01*
X150703298Y-101747580D02*
X150131870Y-101747580D01*
X150417584Y-101747580D02*
X150417584Y-100747580D01*
X150322346Y-100890438D01*
X150227108Y-100985676D01*
X150131870Y-101033295D01*
X151655679Y-101747580D02*
X151084251Y-101747580D01*
X151369965Y-101747580D02*
X151369965Y-100747580D01*
X151274727Y-100890438D01*
X151179489Y-100985676D01*
X151084251Y-101033295D01*
%TO.C,R19*%
X206251737Y-101747580D02*
X205918404Y-101271390D01*
X205680309Y-101747580D02*
X205680309Y-100747580D01*
X206061261Y-100747580D01*
X206156499Y-100795200D01*
X206204118Y-100842819D01*
X206251737Y-100938057D01*
X206251737Y-101080914D01*
X206204118Y-101176152D01*
X206156499Y-101223771D01*
X206061261Y-101271390D01*
X205680309Y-101271390D01*
X207204118Y-101747580D02*
X206632690Y-101747580D01*
X206918404Y-101747580D02*
X206918404Y-100747580D01*
X206823166Y-100890438D01*
X206727928Y-100985676D01*
X206632690Y-101033295D01*
X207680309Y-101747580D02*
X207870785Y-101747580D01*
X207966023Y-101699961D01*
X208013642Y-101652342D01*
X208108880Y-101509485D01*
X208156499Y-101319009D01*
X208156499Y-100938057D01*
X208108880Y-100842819D01*
X208061261Y-100795200D01*
X207966023Y-100747580D01*
X207775547Y-100747580D01*
X207680309Y-100795200D01*
X207632690Y-100842819D01*
X207585071Y-100938057D01*
X207585071Y-101176152D01*
X207632690Y-101271390D01*
X207680309Y-101319009D01*
X207775547Y-101366628D01*
X207966023Y-101366628D01*
X208061261Y-101319009D01*
X208108880Y-101271390D01*
X208156499Y-101176152D01*
%TO.C,R3*%
X93181284Y-101747580D02*
X92847951Y-101271390D01*
X92609855Y-101747580D02*
X92609855Y-100747580D01*
X92990808Y-100747580D01*
X93086046Y-100795200D01*
X93133665Y-100842819D01*
X93181284Y-100938057D01*
X93181284Y-101080914D01*
X93133665Y-101176152D01*
X93086046Y-101223771D01*
X92990808Y-101271390D01*
X92609855Y-101271390D01*
X93514617Y-100747580D02*
X94133665Y-100747580D01*
X93800331Y-101128533D01*
X93943189Y-101128533D01*
X94038427Y-101176152D01*
X94086046Y-101223771D01*
X94133665Y-101319009D01*
X94133665Y-101557104D01*
X94086046Y-101652342D01*
X94038427Y-101699961D01*
X93943189Y-101747580D01*
X93657474Y-101747580D01*
X93562236Y-101699961D01*
X93514617Y-101652342D01*
%TO.C,R10*%
X135612942Y-99071223D02*
X135279609Y-98595033D01*
X135041514Y-99071223D02*
X135041514Y-98071223D01*
X135422466Y-98071223D01*
X135517704Y-98118843D01*
X135565323Y-98166462D01*
X135612942Y-98261700D01*
X135612942Y-98404557D01*
X135565323Y-98499795D01*
X135517704Y-98547414D01*
X135422466Y-98595033D01*
X135041514Y-98595033D01*
X136565323Y-99071223D02*
X135993895Y-99071223D01*
X136279609Y-99071223D02*
X136279609Y-98071223D01*
X136184371Y-98214081D01*
X136089133Y-98309319D01*
X135993895Y-98356938D01*
X137184371Y-98071223D02*
X137279609Y-98071223D01*
X137374847Y-98118843D01*
X137422466Y-98166462D01*
X137470085Y-98261700D01*
X137517704Y-98452176D01*
X137517704Y-98690271D01*
X137470085Y-98880747D01*
X137422466Y-98975985D01*
X137374847Y-99023604D01*
X137279609Y-99071223D01*
X137184371Y-99071223D01*
X137089133Y-99023604D01*
X137041514Y-98975985D01*
X136993895Y-98880747D01*
X136946276Y-98690271D01*
X136946276Y-98452176D01*
X136993895Y-98261700D01*
X137041514Y-98166462D01*
X137089133Y-98118843D01*
X137184371Y-98071223D01*
%TO.C,R13*%
X163876122Y-101747580D02*
X163542789Y-101271390D01*
X163304694Y-101747580D02*
X163304694Y-100747580D01*
X163685646Y-100747580D01*
X163780884Y-100795200D01*
X163828503Y-100842819D01*
X163876122Y-100938057D01*
X163876122Y-101080914D01*
X163828503Y-101176152D01*
X163780884Y-101223771D01*
X163685646Y-101271390D01*
X163304694Y-101271390D01*
X164828503Y-101747580D02*
X164257075Y-101747580D01*
X164542789Y-101747580D02*
X164542789Y-100747580D01*
X164447551Y-100890438D01*
X164352313Y-100985676D01*
X164257075Y-101033295D01*
X165161837Y-100747580D02*
X165780884Y-100747580D01*
X165447551Y-101128533D01*
X165590408Y-101128533D01*
X165685646Y-101176152D01*
X165733265Y-101223771D01*
X165780884Y-101319009D01*
X165780884Y-101557104D01*
X165733265Y-101652342D01*
X165685646Y-101699961D01*
X165590408Y-101747580D01*
X165304694Y-101747580D01*
X165209456Y-101699961D01*
X165161837Y-101652342D01*
%TO.C,R23*%
X220956942Y-103591580D02*
X220623609Y-103115390D01*
X220385514Y-103591580D02*
X220385514Y-102591580D01*
X220766466Y-102591580D01*
X220861704Y-102639200D01*
X220909323Y-102686819D01*
X220956942Y-102782057D01*
X220956942Y-102924914D01*
X220909323Y-103020152D01*
X220861704Y-103067771D01*
X220766466Y-103115390D01*
X220385514Y-103115390D01*
X221337895Y-102686819D02*
X221385514Y-102639200D01*
X221480752Y-102591580D01*
X221718847Y-102591580D01*
X221814085Y-102639200D01*
X221861704Y-102686819D01*
X221909323Y-102782057D01*
X221909323Y-102877295D01*
X221861704Y-103020152D01*
X221290276Y-103591580D01*
X221909323Y-103591580D01*
X222242657Y-102591580D02*
X222861704Y-102591580D01*
X222528371Y-102972533D01*
X222671228Y-102972533D01*
X222766466Y-103020152D01*
X222814085Y-103067771D01*
X222861704Y-103163009D01*
X222861704Y-103401104D01*
X222814085Y-103496342D01*
X222766466Y-103543961D01*
X222671228Y-103591580D01*
X222385514Y-103591580D01*
X222290276Y-103543961D01*
X222242657Y-103496342D01*
%TO.C,R4*%
X93163133Y-99071223D02*
X92829800Y-98595033D01*
X92591704Y-99071223D02*
X92591704Y-98071223D01*
X92972657Y-98071223D01*
X93067895Y-98118843D01*
X93115514Y-98166462D01*
X93163133Y-98261700D01*
X93163133Y-98404557D01*
X93115514Y-98499795D01*
X93067895Y-98547414D01*
X92972657Y-98595033D01*
X92591704Y-98595033D01*
X94020276Y-98404557D02*
X94020276Y-99071223D01*
X93782180Y-98023604D02*
X93544085Y-98737890D01*
X94163133Y-98737890D01*
%TO.C,C1*%
X79930977Y-105133571D02*
X79883358Y-105181190D01*
X79740501Y-105228809D01*
X79645263Y-105228809D01*
X79502405Y-105181190D01*
X79407167Y-105085952D01*
X79359548Y-104990714D01*
X79311929Y-104800238D01*
X79311929Y-104657381D01*
X79359548Y-104466905D01*
X79407167Y-104371667D01*
X79502405Y-104276429D01*
X79645263Y-104228809D01*
X79740501Y-104228809D01*
X79883358Y-104276429D01*
X79930977Y-104324048D01*
X80883358Y-105228809D02*
X80311929Y-105228809D01*
X80597644Y-105228809D02*
X80597644Y-104228809D01*
X80502405Y-104371667D01*
X80407167Y-104466905D01*
X80311929Y-104514524D01*
%TO.C,D1*%
X74557704Y-105628580D02*
X74557704Y-104628580D01*
X74795800Y-104628580D01*
X74938657Y-104676200D01*
X75033895Y-104771438D01*
X75081514Y-104866676D01*
X75129133Y-105057152D01*
X75129133Y-105200009D01*
X75081514Y-105390485D01*
X75033895Y-105485723D01*
X74938657Y-105580961D01*
X74795800Y-105628580D01*
X74557704Y-105628580D01*
X76081514Y-105628580D02*
X75510085Y-105628580D01*
X75795800Y-105628580D02*
X75795800Y-104628580D01*
X75700561Y-104771438D01*
X75605323Y-104866676D01*
X75510085Y-104914295D01*
%TO.C,R18*%
X192091707Y-99071223D02*
X191758374Y-98595033D01*
X191520279Y-99071223D02*
X191520279Y-98071223D01*
X191901231Y-98071223D01*
X191996469Y-98118843D01*
X192044088Y-98166462D01*
X192091707Y-98261700D01*
X192091707Y-98404557D01*
X192044088Y-98499795D01*
X191996469Y-98547414D01*
X191901231Y-98595033D01*
X191520279Y-98595033D01*
X193044088Y-99071223D02*
X192472660Y-99071223D01*
X192758374Y-99071223D02*
X192758374Y-98071223D01*
X192663136Y-98214081D01*
X192567898Y-98309319D01*
X192472660Y-98356938D01*
X193615517Y-98499795D02*
X193520279Y-98452176D01*
X193472660Y-98404557D01*
X193425041Y-98309319D01*
X193425041Y-98261700D01*
X193472660Y-98166462D01*
X193520279Y-98118843D01*
X193615517Y-98071223D01*
X193805993Y-98071223D01*
X193901231Y-98118843D01*
X193948850Y-98166462D01*
X193996469Y-98261700D01*
X193996469Y-98309319D01*
X193948850Y-98404557D01*
X193901231Y-98452176D01*
X193805993Y-98499795D01*
X193615517Y-98499795D01*
X193520279Y-98547414D01*
X193472660Y-98595033D01*
X193425041Y-98690271D01*
X193425041Y-98880747D01*
X193472660Y-98975985D01*
X193520279Y-99023604D01*
X193615517Y-99071223D01*
X193805993Y-99071223D01*
X193901231Y-99023604D01*
X193948850Y-98975985D01*
X193996469Y-98880747D01*
X193996469Y-98690271D01*
X193948850Y-98595033D01*
X193901231Y-98547414D01*
X193805993Y-98499795D01*
%TO.C,R1*%
X75969400Y-102981656D02*
X75636067Y-102505466D01*
X75397971Y-102981656D02*
X75397971Y-101981656D01*
X75778924Y-101981656D01*
X75874162Y-102029276D01*
X75921781Y-102076895D01*
X75969400Y-102172133D01*
X75969400Y-102314990D01*
X75921781Y-102410228D01*
X75874162Y-102457847D01*
X75778924Y-102505466D01*
X75397971Y-102505466D01*
X76921781Y-102981656D02*
X76350352Y-102981656D01*
X76636067Y-102981656D02*
X76636067Y-101981656D01*
X76540828Y-102124514D01*
X76445590Y-102219752D01*
X76350352Y-102267371D01*
%TO.C,R7*%
X121380048Y-101747580D02*
X121046715Y-101271390D01*
X120808619Y-101747580D02*
X120808619Y-100747580D01*
X121189572Y-100747580D01*
X121284810Y-100795200D01*
X121332429Y-100842819D01*
X121380048Y-100938057D01*
X121380048Y-101080914D01*
X121332429Y-101176152D01*
X121284810Y-101223771D01*
X121189572Y-101271390D01*
X120808619Y-101271390D01*
X121713381Y-100747580D02*
X122380048Y-100747580D01*
X121951476Y-101747580D01*
%TO.C,U5*%
X127513566Y-95114875D02*
X127513566Y-95924399D01*
X127561185Y-96019637D01*
X127608804Y-96067256D01*
X127704042Y-96114875D01*
X127894518Y-96114875D01*
X127989756Y-96067256D01*
X128037375Y-96019637D01*
X128084994Y-95924399D01*
X128084994Y-95114875D01*
X129037375Y-95114875D02*
X128561185Y-95114875D01*
X128513566Y-95591066D01*
X128561185Y-95543447D01*
X128656423Y-95495828D01*
X128894518Y-95495828D01*
X128989756Y-95543447D01*
X129037375Y-95591066D01*
X129084994Y-95686304D01*
X129084994Y-95924399D01*
X129037375Y-96019637D01*
X128989756Y-96067256D01*
X128894518Y-96114875D01*
X128656423Y-96114875D01*
X128561185Y-96067256D01*
X128513566Y-96019637D01*
%TO.C,U12*%
X225716375Y-95114875D02*
X225716375Y-95924399D01*
X225763994Y-96019637D01*
X225811613Y-96067256D01*
X225906851Y-96114875D01*
X226097328Y-96114875D01*
X226192566Y-96067256D01*
X226240185Y-96019637D01*
X226287804Y-95924399D01*
X226287804Y-95114875D01*
X227287804Y-96114875D02*
X226716375Y-96114875D01*
X227002090Y-96114875D02*
X227002090Y-95114875D01*
X226906851Y-95257733D01*
X226811613Y-95352971D01*
X226716375Y-95400590D01*
X227668756Y-95210114D02*
X227716375Y-95162495D01*
X227811613Y-95114875D01*
X228049709Y-95114875D01*
X228144947Y-95162495D01*
X228192566Y-95210114D01*
X228240185Y-95305352D01*
X228240185Y-95400590D01*
X228192566Y-95543447D01*
X227621137Y-96114875D01*
X228240185Y-96114875D01*
%TO.C,U2*%
X85222566Y-95114875D02*
X85222566Y-95924399D01*
X85270185Y-96019637D01*
X85317804Y-96067256D01*
X85413042Y-96114875D01*
X85603518Y-96114875D01*
X85698756Y-96067256D01*
X85746375Y-96019637D01*
X85793994Y-95924399D01*
X85793994Y-95114875D01*
X86222566Y-95210114D02*
X86270185Y-95162495D01*
X86365423Y-95114875D01*
X86603518Y-95114875D01*
X86698756Y-95162495D01*
X86746375Y-95210114D01*
X86793994Y-95305352D01*
X86793994Y-95400590D01*
X86746375Y-95543447D01*
X86174947Y-96114875D01*
X86793994Y-96114875D01*
%TO.C,U3*%
X99319566Y-95114875D02*
X99319566Y-95924399D01*
X99367185Y-96019637D01*
X99414804Y-96067256D01*
X99510042Y-96114875D01*
X99700518Y-96114875D01*
X99795756Y-96067256D01*
X99843375Y-96019637D01*
X99890994Y-95924399D01*
X99890994Y-95114875D01*
X100271947Y-95114875D02*
X100890994Y-95114875D01*
X100557661Y-95495828D01*
X100700518Y-95495828D01*
X100795756Y-95543447D01*
X100843375Y-95591066D01*
X100890994Y-95686304D01*
X100890994Y-95924399D01*
X100843375Y-96019637D01*
X100795756Y-96067256D01*
X100700518Y-96114875D01*
X100414804Y-96114875D01*
X100319566Y-96067256D01*
X100271947Y-96019637D01*
%TO.C,U10*%
X197522375Y-95114875D02*
X197522375Y-95924399D01*
X197569994Y-96019637D01*
X197617613Y-96067256D01*
X197712851Y-96114875D01*
X197903328Y-96114875D01*
X197998566Y-96067256D01*
X198046185Y-96019637D01*
X198093804Y-95924399D01*
X198093804Y-95114875D01*
X199093804Y-96114875D02*
X198522375Y-96114875D01*
X198808090Y-96114875D02*
X198808090Y-95114875D01*
X198712851Y-95257733D01*
X198617613Y-95352971D01*
X198522375Y-95400590D01*
X199712851Y-95114875D02*
X199808090Y-95114875D01*
X199903328Y-95162495D01*
X199950947Y-95210114D01*
X199998566Y-95305352D01*
X200046185Y-95495828D01*
X200046185Y-95733923D01*
X199998566Y-95924399D01*
X199950947Y-96019637D01*
X199903328Y-96067256D01*
X199808090Y-96114875D01*
X199712851Y-96114875D01*
X199617613Y-96067256D01*
X199569994Y-96019637D01*
X199522375Y-95924399D01*
X199474756Y-95733923D01*
X199474756Y-95495828D01*
X199522375Y-95305352D01*
X199569994Y-95210114D01*
X199617613Y-95162495D01*
X199712851Y-95114875D01*
%TO.C,U8*%
X169804566Y-95114875D02*
X169804566Y-95924399D01*
X169852185Y-96019637D01*
X169899804Y-96067256D01*
X169995042Y-96114875D01*
X170185518Y-96114875D01*
X170280756Y-96067256D01*
X170328375Y-96019637D01*
X170375994Y-95924399D01*
X170375994Y-95114875D01*
X170995042Y-95543447D02*
X170899804Y-95495828D01*
X170852185Y-95448209D01*
X170804566Y-95352971D01*
X170804566Y-95305352D01*
X170852185Y-95210114D01*
X170899804Y-95162495D01*
X170995042Y-95114875D01*
X171185518Y-95114875D01*
X171280756Y-95162495D01*
X171328375Y-95210114D01*
X171375994Y-95305352D01*
X171375994Y-95352971D01*
X171328375Y-95448209D01*
X171280756Y-95495828D01*
X171185518Y-95543447D01*
X170995042Y-95543447D01*
X170899804Y-95591066D01*
X170852185Y-95638685D01*
X170804566Y-95733923D01*
X170804566Y-95924399D01*
X170852185Y-96019637D01*
X170899804Y-96067256D01*
X170995042Y-96114875D01*
X171185518Y-96114875D01*
X171280756Y-96067256D01*
X171328375Y-96019637D01*
X171375994Y-95924399D01*
X171375994Y-95733923D01*
X171328375Y-95638685D01*
X171280756Y-95591066D01*
X171185518Y-95543447D01*
%TO.C,U11*%
X211619375Y-95114875D02*
X211619375Y-95924399D01*
X211666994Y-96019637D01*
X211714613Y-96067256D01*
X211809851Y-96114875D01*
X212000328Y-96114875D01*
X212095566Y-96067256D01*
X212143185Y-96019637D01*
X212190804Y-95924399D01*
X212190804Y-95114875D01*
X213190804Y-96114875D02*
X212619375Y-96114875D01*
X212905090Y-96114875D02*
X212905090Y-95114875D01*
X212809851Y-95257733D01*
X212714613Y-95352971D01*
X212619375Y-95400590D01*
X214143185Y-96114875D02*
X213571756Y-96114875D01*
X213857471Y-96114875D02*
X213857471Y-95114875D01*
X213762232Y-95257733D01*
X213666994Y-95352971D01*
X213571756Y-95400590D01*
%TO.C,U1*%
X71125566Y-95114875D02*
X71125566Y-95924399D01*
X71173185Y-96019637D01*
X71220804Y-96067256D01*
X71316042Y-96114875D01*
X71506518Y-96114875D01*
X71601756Y-96067256D01*
X71649375Y-96019637D01*
X71696994Y-95924399D01*
X71696994Y-95114875D01*
X72696994Y-96114875D02*
X72125566Y-96114875D01*
X72411280Y-96114875D02*
X72411280Y-95114875D01*
X72316042Y-95257733D01*
X72220804Y-95352971D01*
X72125566Y-95400590D01*
%TO.C,U6*%
X141610566Y-95114875D02*
X141610566Y-95924399D01*
X141658185Y-96019637D01*
X141705804Y-96067256D01*
X141801042Y-96114875D01*
X141991518Y-96114875D01*
X142086756Y-96067256D01*
X142134375Y-96019637D01*
X142181994Y-95924399D01*
X142181994Y-95114875D01*
X143086756Y-95114875D02*
X142896280Y-95114875D01*
X142801042Y-95162495D01*
X142753423Y-95210114D01*
X142658185Y-95352971D01*
X142610566Y-95543447D01*
X142610566Y-95924399D01*
X142658185Y-96019637D01*
X142705804Y-96067256D01*
X142801042Y-96114875D01*
X142991518Y-96114875D01*
X143086756Y-96067256D01*
X143134375Y-96019637D01*
X143181994Y-95924399D01*
X143181994Y-95686304D01*
X143134375Y-95591066D01*
X143086756Y-95543447D01*
X142991518Y-95495828D01*
X142801042Y-95495828D01*
X142705804Y-95543447D01*
X142658185Y-95591066D01*
X142610566Y-95686304D01*
%TO.C,U9*%
X183901566Y-95114875D02*
X183901566Y-95924399D01*
X183949185Y-96019637D01*
X183996804Y-96067256D01*
X184092042Y-96114875D01*
X184282518Y-96114875D01*
X184377756Y-96067256D01*
X184425375Y-96019637D01*
X184472994Y-95924399D01*
X184472994Y-95114875D01*
X184996804Y-96114875D02*
X185187280Y-96114875D01*
X185282518Y-96067256D01*
X185330137Y-96019637D01*
X185425375Y-95876780D01*
X185472994Y-95686304D01*
X185472994Y-95305352D01*
X185425375Y-95210114D01*
X185377756Y-95162495D01*
X185282518Y-95114875D01*
X185092042Y-95114875D01*
X184996804Y-95162495D01*
X184949185Y-95210114D01*
X184901566Y-95305352D01*
X184901566Y-95543447D01*
X184949185Y-95638685D01*
X184996804Y-95686304D01*
X185092042Y-95733923D01*
X185282518Y-95733923D01*
X185377756Y-95686304D01*
X185425375Y-95638685D01*
X185472994Y-95543447D01*
%TO.C,U7*%
X155707566Y-95114875D02*
X155707566Y-95924399D01*
X155755185Y-96019637D01*
X155802804Y-96067256D01*
X155898042Y-96114875D01*
X156088518Y-96114875D01*
X156183756Y-96067256D01*
X156231375Y-96019637D01*
X156278994Y-95924399D01*
X156278994Y-95114875D01*
X156659947Y-95114875D02*
X157326613Y-95114875D01*
X156898042Y-96114875D01*
%TO.C,U4*%
X113416566Y-95114875D02*
X113416566Y-95924399D01*
X113464185Y-96019637D01*
X113511804Y-96067256D01*
X113607042Y-96114875D01*
X113797518Y-96114875D01*
X113892756Y-96067256D01*
X113940375Y-96019637D01*
X113987994Y-95924399D01*
X113987994Y-95114875D01*
X114892756Y-95448209D02*
X114892756Y-96114875D01*
X114654661Y-95067256D02*
X114416566Y-95781542D01*
X115035613Y-95781542D01*
D14*
%TO.C,R20*%
X203365806Y-98074019D02*
X203840322Y-98074019D01*
X203365806Y-99119019D02*
X203840322Y-99119019D01*
%TO.C,R8*%
X118628868Y-98074019D02*
X119103384Y-98074019D01*
X118628868Y-99119019D02*
X119103384Y-99119019D01*
%TO.C,R9*%
X132751095Y-100691624D02*
X133225611Y-100691624D01*
X132751095Y-101736624D02*
X133225611Y-101736624D01*
%TO.C,R22*%
X217488629Y-98074019D02*
X217963145Y-98074019D01*
X217488629Y-99119019D02*
X217963145Y-99119019D01*
%TO.C,R6*%
X104506045Y-99119019D02*
X104980561Y-99119019D01*
X104506045Y-98074019D02*
X104980561Y-98074019D01*
%TO.C,J3*%
X65837800Y-102377200D02*
X68497800Y-102377200D01*
X65837800Y-99777200D02*
X67167800Y-99777200D01*
X68497800Y-102377200D02*
X68497800Y-104977200D01*
X65837800Y-102377200D02*
X65837800Y-104977200D01*
X65837800Y-104977200D02*
X68497800Y-104977200D01*
X65837800Y-101107200D02*
X65837800Y-99777200D01*
%TO.C,R14*%
X160997337Y-98074019D02*
X161471853Y-98074019D01*
X160997337Y-99119019D02*
X161471853Y-99119019D01*
%TO.C,R17*%
X189251915Y-101736624D02*
X189726431Y-101736624D01*
X189251915Y-100691624D02*
X189726431Y-100691624D01*
%TO.C,R12*%
X146874514Y-98074019D02*
X147349030Y-98074019D01*
X146874514Y-99119019D02*
X147349030Y-99119019D01*
%TO.C,C2*%
X79742800Y-96680780D02*
X79742800Y-96399620D01*
X78722800Y-96680780D02*
X78722800Y-96399620D01*
%TO.C,D2*%
X82369800Y-94227200D02*
X84654800Y-94227200D01*
X84654800Y-92757200D02*
X82369800Y-92757200D01*
X84654800Y-94227200D02*
X84654800Y-92757200D01*
%TO.C,R25*%
X86963058Y-92969700D02*
X86488542Y-92969700D01*
X86963058Y-94014700D02*
X86488542Y-94014700D01*
%TO.C,R15*%
X175126710Y-100691624D02*
X175601226Y-100691624D01*
X175126710Y-101736624D02*
X175601226Y-101736624D01*
%TO.C,R5*%
X104500685Y-101736624D02*
X104975201Y-101736624D01*
X104500685Y-100691624D02*
X104975201Y-100691624D01*
%TO.C,R24*%
X221837058Y-98044700D02*
X221362542Y-98044700D01*
X221837058Y-99089700D02*
X221362542Y-99089700D01*
%TO.C,U13*%
X78561800Y-100096200D02*
X78561800Y-99296200D01*
X81681800Y-100096200D02*
X81681800Y-99296200D01*
X81681800Y-100096200D02*
X81681800Y-100896200D01*
X78561800Y-100096200D02*
X78561800Y-101896200D01*
%TO.C,J2*%
X230175800Y-102377200D02*
X230175800Y-104977200D01*
X230175800Y-101107200D02*
X230175800Y-99777200D01*
X232835800Y-102377200D02*
X232835800Y-104977200D01*
X230175800Y-102377200D02*
X232835800Y-102377200D01*
X230175800Y-104977200D02*
X232835800Y-104977200D01*
X230175800Y-99777200D02*
X231505800Y-99777200D01*
%TO.C,R21*%
X217502325Y-101736624D02*
X217976841Y-101736624D01*
X217502325Y-100691624D02*
X217976841Y-100691624D01*
%TO.C,JP1*%
X80313800Y-94492200D02*
X78913800Y-94492200D01*
X78213800Y-93792200D02*
X78213800Y-93192200D01*
X81013800Y-93192200D02*
X81013800Y-93792200D01*
X78913800Y-92492200D02*
X80313800Y-92492200D01*
X81013800Y-93192200D02*
G75*
G03*
X80313800Y-92492200I-699999J1D01*
G01*
X78213800Y-93792200D02*
G75*
G03*
X78913800Y-94492200I700000J0D01*
G01*
X78913800Y-92492200D02*
G75*
G03*
X78213800Y-93192200I0J-700000D01*
G01*
X80313800Y-94492200D02*
G75*
G03*
X81013800Y-93792200I1J699999D01*
G01*
%TO.C,R16*%
X175120160Y-98074019D02*
X175594676Y-98074019D01*
X175120160Y-99119019D02*
X175594676Y-99119019D01*
%TO.C,R2*%
X75820542Y-98074019D02*
X76295058Y-98074019D01*
X75820542Y-99119019D02*
X76295058Y-99119019D01*
%TO.C,R11*%
X146876300Y-100691624D02*
X147350816Y-100691624D01*
X146876300Y-101736624D02*
X147350816Y-101736624D01*
%TO.C,R19*%
X203377120Y-101736624D02*
X203851636Y-101736624D01*
X203377120Y-100691624D02*
X203851636Y-100691624D01*
%TO.C,R3*%
X90375480Y-100691624D02*
X90849996Y-100691624D01*
X90375480Y-101736624D02*
X90849996Y-101736624D01*
%TO.C,R10*%
X132751691Y-98074019D02*
X133226207Y-98074019D01*
X132751691Y-99119019D02*
X133226207Y-99119019D01*
%TO.C,R13*%
X161001505Y-101736624D02*
X161476021Y-101736624D01*
X161001505Y-100691624D02*
X161476021Y-100691624D01*
%TO.C,J1*%
X131683800Y-91774200D02*
X131683800Y-89114200D01*
X159683800Y-91774200D02*
X159683800Y-89114200D01*
X129083800Y-91774200D02*
X129083800Y-90444200D01*
X131683800Y-91774200D02*
X159683800Y-91774200D01*
X130413800Y-91774200D02*
X129083800Y-91774200D01*
X131683800Y-89114200D02*
X159683800Y-89114200D01*
%TO.C,R23*%
X221900058Y-102137700D02*
X221425542Y-102137700D01*
X221900058Y-101092700D02*
X221425542Y-101092700D01*
%TO.C,R4*%
X90383222Y-99119019D02*
X90857738Y-99119019D01*
X90383222Y-98074019D02*
X90857738Y-98074019D01*
%TO.C,C1*%
X79829966Y-102761200D02*
X80111126Y-102761200D01*
X79829966Y-103781200D02*
X80111126Y-103781200D01*
%TO.C,D1*%
X74243800Y-104906200D02*
X70343800Y-104906200D01*
X74243800Y-104906200D02*
X74243800Y-102906200D01*
X74243800Y-102906200D02*
X70343800Y-102906200D01*
%TO.C,R18*%
X189242983Y-99119019D02*
X189717499Y-99119019D01*
X189242983Y-98074019D02*
X189717499Y-98074019D01*
%TO.C,R1*%
X75820542Y-100335700D02*
X76295058Y-100335700D01*
X75820542Y-101380700D02*
X76295058Y-101380700D01*
%TO.C,R7*%
X118625890Y-100691624D02*
X119100406Y-100691624D01*
X118625890Y-101736624D02*
X119100406Y-101736624D01*
%TD*%
%LPC*%
D15*
%TO.C,R20*%
X202778064Y-98596519D03*
X204428064Y-98596519D03*
%TD*%
%TO.C,R8*%
X118041126Y-98596519D03*
X119691126Y-98596519D03*
%TD*%
%TO.C,R9*%
X132163353Y-101214124D03*
X133813353Y-101214124D03*
%TD*%
%TO.C,R22*%
X216900887Y-98596519D03*
X218550887Y-98596519D03*
%TD*%
%TO.C,R6*%
X103918303Y-98596519D03*
X105568303Y-98596519D03*
%TD*%
D16*
%TO.C,J3*%
X67167800Y-101107200D03*
D17*
X67167800Y-103647200D03*
%TD*%
D15*
%TO.C,R14*%
X160409595Y-98596519D03*
X162059595Y-98596519D03*
%TD*%
D18*
%TO.C,MP1*%
X228092000Y-91948000D03*
%TD*%
D15*
%TO.C,R17*%
X188664173Y-101214124D03*
X190314173Y-101214124D03*
%TD*%
%TO.C,R12*%
X146286772Y-98596519D03*
X147936772Y-98596519D03*
%TD*%
D19*
%TO.C,C2*%
X79232800Y-97315200D03*
X79232800Y-95765200D03*
%TD*%
D20*
%TO.C,D2*%
X83957300Y-93492200D03*
X82382300Y-93492200D03*
%TD*%
D21*
%TO.C,R25*%
X87550800Y-93492200D03*
X85900800Y-93492200D03*
%TD*%
D15*
%TO.C,R15*%
X174538968Y-101214124D03*
X176188968Y-101214124D03*
%TD*%
%TO.C,R5*%
X103912943Y-101214124D03*
X105562943Y-101214124D03*
%TD*%
D21*
%TO.C,R24*%
X222424800Y-98567200D03*
X220774800Y-98567200D03*
%TD*%
D22*
%TO.C,U13*%
X79171800Y-101233700D03*
X80121800Y-101233700D03*
X81071800Y-101233700D03*
X81071800Y-98958700D03*
X79171800Y-98958700D03*
%TD*%
D16*
%TO.C,J2*%
X231505800Y-101107200D03*
D17*
X231505800Y-103647200D03*
%TD*%
D15*
%TO.C,R21*%
X216914583Y-101214124D03*
X218564583Y-101214124D03*
%TD*%
D23*
%TO.C,JP1*%
X80263800Y-93492200D03*
D24*
X78963800Y-93492200D03*
%TD*%
D15*
%TO.C,R16*%
X174532418Y-98596519D03*
X176182418Y-98596519D03*
%TD*%
%TO.C,R2*%
X75232800Y-98596519D03*
X76882800Y-98596519D03*
%TD*%
%TO.C,R11*%
X146288558Y-101214124D03*
X147938558Y-101214124D03*
%TD*%
%TO.C,R19*%
X202789378Y-101214124D03*
X204439378Y-101214124D03*
%TD*%
%TO.C,R3*%
X89787738Y-101214124D03*
X91437738Y-101214124D03*
%TD*%
%TO.C,R10*%
X132163949Y-98596519D03*
X133813949Y-98596519D03*
%TD*%
%TO.C,R13*%
X160413763Y-101214124D03*
X162063763Y-101214124D03*
%TD*%
D18*
%TO.C,MP2*%
X70723800Y-91714200D03*
%TD*%
D25*
%TO.C,J1*%
X130413800Y-90444200D03*
D17*
X132953800Y-90444200D03*
X135493800Y-90444200D03*
X138033800Y-90444200D03*
X140573800Y-90444200D03*
X143113800Y-90444200D03*
X145653800Y-90444200D03*
X148193800Y-90444200D03*
X150733800Y-90444200D03*
X153273800Y-90444200D03*
X155813800Y-90444200D03*
X158353800Y-90444200D03*
%TD*%
D21*
%TO.C,R23*%
X222487800Y-101615200D03*
X220837800Y-101615200D03*
%TD*%
D15*
%TO.C,R4*%
X89795480Y-98596519D03*
X91445480Y-98596519D03*
%TD*%
D26*
%TO.C,C1*%
X79195546Y-103271200D03*
X80745546Y-103271200D03*
%TD*%
D27*
%TO.C,D1*%
X73643800Y-103906200D03*
X70343800Y-103906200D03*
%TD*%
D15*
%TO.C,R18*%
X188655241Y-98596519D03*
X190305241Y-98596519D03*
%TD*%
%TO.C,R1*%
X75232800Y-100858200D03*
X76882800Y-100858200D03*
%TD*%
%TO.C,R7*%
X118038148Y-101214124D03*
X119688148Y-101214124D03*
%TD*%
D28*
%TO.C,U5*%
X129355951Y-98623495D03*
X129355951Y-101123495D03*
X127222351Y-101123495D03*
X127222351Y-98623495D03*
%TD*%
%TO.C,U12*%
X228034951Y-98623495D03*
X228034951Y-101123495D03*
X225901351Y-101123495D03*
X225901351Y-98623495D03*
%TD*%
%TO.C,U2*%
X87064951Y-98623495D03*
X87064951Y-101123495D03*
X84931351Y-101123495D03*
X84931351Y-98623495D03*
%TD*%
%TO.C,U3*%
X101161951Y-98623495D03*
X101161951Y-101123495D03*
X99028351Y-101123495D03*
X99028351Y-98623495D03*
%TD*%
%TO.C,U10*%
X199840951Y-98623495D03*
X199840951Y-101123495D03*
X197707351Y-101123495D03*
X197707351Y-98623495D03*
%TD*%
%TO.C,U8*%
X171646951Y-98623495D03*
X171646951Y-101123495D03*
X169513351Y-101123495D03*
X169513351Y-98623495D03*
%TD*%
%TO.C,U11*%
X213937951Y-98623495D03*
X213937951Y-101123495D03*
X211804351Y-101123495D03*
X211804351Y-98623495D03*
%TD*%
%TO.C,U1*%
X72967951Y-98623495D03*
X72967951Y-101123495D03*
X70834351Y-101123495D03*
X70834351Y-98623495D03*
%TD*%
%TO.C,U6*%
X143452951Y-98623495D03*
X143452951Y-101123495D03*
X141319351Y-101123495D03*
X141319351Y-98623495D03*
%TD*%
%TO.C,U9*%
X185743951Y-98623495D03*
X185743951Y-101123495D03*
X183610351Y-101123495D03*
X183610351Y-98623495D03*
%TD*%
%TO.C,U7*%
X157549951Y-98623495D03*
X157549951Y-101123495D03*
X155416351Y-101123495D03*
X155416351Y-98623495D03*
%TD*%
%TO.C,U4*%
X115258951Y-98623495D03*
X115258951Y-101123495D03*
X113125351Y-101123495D03*
X113125351Y-98623495D03*
%TD*%
M02*
