M48
; DRILL file {KiCad (6.0.7-1)-1} date Tuesday, February 27, 2024 at 08:03:13 PM
; FORMAT={-:-/ absolute / inch / decimal}
; #@! TF.CreationDate,2024-02-27T20:03:13-05:00
; #@! TF.GenerationSoftware,Kicad,Pcbnew,(6.0.7-1)-1
; #@! TF.FileFunction,Plated,1,2,PTH
FMAT,2
INCH
; #@! TA.AperFunction,Plated,PTH,ViaDrill
T1C0.0157
; #@! TA.AperFunction,Plated,PTH,ComponentDrill
T2C0.0276
; #@! TA.AperFunction,Plated,PTH,ComponentDrill
T3C0.0394
; #@! TA.AperFunction,Plated,PTH,ComponentDrill
T4C0.1299
%
G90
G05
T1
X3.1844Y-3.7806
X3.2244Y-4.0308
X3.2244Y-4.0908
X3.5344Y-3.7208
X3.765Y-3.88
X3.765Y-3.99
X4.0Y-3.555
X4.0Y-3.665
X4.33Y-3.88
X4.33Y-3.99
X4.455Y-3.55
X4.455Y-3.66
X4.88Y-3.88
X4.88Y-3.99
X5.455Y-3.88
X5.455Y-3.99
X6.025Y-3.89
X6.025Y-4.0
X6.58Y-3.885
X6.58Y-3.995
X6.7Y-3.54
X6.7Y-3.65
X7.135Y-3.88
X7.135Y-3.99
X7.695Y-3.88
X7.695Y-3.99
X7.73Y-3.53
X7.73Y-3.64
X8.245Y-3.88
X8.245Y-3.99
X8.65Y-3.545
X8.65Y-3.655
T2
X2.7888Y-3.8828
X2.7888Y-3.9812
X2.8728Y-3.8828
X2.8728Y-3.9812
X3.3438Y-3.8828
X3.3438Y-3.9812
X3.4278Y-3.8828
X3.4278Y-3.9812
X3.8988Y-3.8828
X3.8988Y-3.9812
X3.9828Y-3.8828
X3.9828Y-3.9812
X4.4538Y-3.8828
X4.4538Y-3.9812
X4.5378Y-3.8828
X4.5378Y-3.9812
X5.0088Y-3.8828
X5.0088Y-3.9812
X5.0928Y-3.8828
X5.0928Y-3.9812
X5.5638Y-3.8828
X5.5638Y-3.9812
X5.6478Y-3.8828
X5.6478Y-3.9812
X6.1188Y-3.8828
X6.1188Y-3.9812
X6.2028Y-3.8828
X6.2028Y-3.9812
X6.6738Y-3.8828
X6.6738Y-3.9812
X6.7578Y-3.8828
X6.7578Y-3.9812
X7.2288Y-3.8828
X7.2288Y-3.9812
X7.3128Y-3.8828
X7.3128Y-3.9812
X7.7838Y-3.8828
X7.7838Y-3.9812
X7.8678Y-3.8828
X7.8678Y-3.9812
X8.3388Y-3.8828
X8.3388Y-3.9812
X8.4228Y-3.8828
X8.4228Y-3.9812
X8.8938Y-3.8828
X8.8938Y-3.9812
X8.9778Y-3.8828
X8.9778Y-3.9812
T3
X2.6444Y-3.9806
X2.6444Y-4.0806
X5.1344Y-3.5608
X5.2344Y-3.5608
X5.3344Y-3.5608
X5.4344Y-3.5608
X5.5344Y-3.5608
X5.6344Y-3.5608
X5.7344Y-3.5608
X5.8344Y-3.5608
X5.9344Y-3.5608
X6.0344Y-3.5608
X6.1344Y-3.5608
X6.2344Y-3.5608
X9.1144Y-3.9806
X9.1144Y-4.0806
T4
G00X2.7194Y-3.6108
M15
G01X2.8494Y-3.6108
M16
G05
G00X8.915Y-3.62
M15
G01X9.045Y-3.62
M16
G05
T0
M30
