%TF.GenerationSoftware,KiCad,Pcbnew,(6.0.7-1)-1*%
%TF.CreationDate,2024-02-27T20:03:13-05:00*%
%TF.ProjectId,EMHarpsichord_KeyboardCapture,454d4861-7270-4736-9963-686f72645f4b,rev?*%
%TF.SameCoordinates,Original*%
%TF.FileFunction,Paste,Top*%
%TF.FilePolarity,Positive*%
%FSLAX46Y46*%
G04 Gerber Fmt 4.6, Leading zero omitted, Abs format (unit mm)*
G04 Created by KiCad (PCBNEW (6.0.7-1)-1) date 2024-02-27 20:03:13*
%MOMM*%
%LPD*%
G01*
G04 APERTURE LIST*
G04 Aperture macros list*
%AMRoundRect*
0 Rectangle with rounded corners*
0 $1 Rounding radius*
0 $2 $3 $4 $5 $6 $7 $8 $9 X,Y pos of 4 corners*
0 Add a 4 corners polygon primitive as box body*
4,1,4,$2,$3,$4,$5,$6,$7,$8,$9,$2,$3,0*
0 Add four circle primitives for the rounded corners*
1,1,$1+$1,$2,$3*
1,1,$1+$1,$4,$5*
1,1,$1+$1,$6,$7*
1,1,$1+$1,$8,$9*
0 Add four rect primitives between the rounded corners*
20,1,$1+$1,$2,$3,$4,$5,0*
20,1,$1+$1,$4,$5,$6,$7,0*
20,1,$1+$1,$6,$7,$8,$9,0*
20,1,$1+$1,$8,$9,$2,$3,0*%
G04 Aperture macros list end*
%ADD10RoundRect,0.200000X-0.200000X-0.275000X0.200000X-0.275000X0.200000X0.275000X-0.200000X0.275000X0*%
%ADD11RoundRect,0.225000X0.250000X-0.225000X0.250000X0.225000X-0.250000X0.225000X-0.250000X-0.225000X0*%
%ADD12RoundRect,0.218750X0.218750X0.256250X-0.218750X0.256250X-0.218750X-0.256250X0.218750X-0.256250X0*%
%ADD13RoundRect,0.200000X0.200000X0.275000X-0.200000X0.275000X-0.200000X-0.275000X0.200000X-0.275000X0*%
%ADD14RoundRect,0.150000X0.150000X-0.512500X0.150000X0.512500X-0.150000X0.512500X-0.150000X-0.512500X0*%
%ADD15RoundRect,0.225000X-0.225000X-0.250000X0.225000X-0.250000X0.225000X0.250000X-0.225000X0.250000X0*%
%ADD16R,0.900000X1.200000*%
G04 APERTURE END LIST*
D10*
%TO.C,R20*%
X202778064Y-98596519D03*
X204428064Y-98596519D03*
%TD*%
%TO.C,R8*%
X118041126Y-98596519D03*
X119691126Y-98596519D03*
%TD*%
%TO.C,R9*%
X132163353Y-101214124D03*
X133813353Y-101214124D03*
%TD*%
%TO.C,R22*%
X216900887Y-98596519D03*
X218550887Y-98596519D03*
%TD*%
%TO.C,R6*%
X103918303Y-98596519D03*
X105568303Y-98596519D03*
%TD*%
%TO.C,R14*%
X160409595Y-98596519D03*
X162059595Y-98596519D03*
%TD*%
%TO.C,R17*%
X188664173Y-101214124D03*
X190314173Y-101214124D03*
%TD*%
%TO.C,R12*%
X146286772Y-98596519D03*
X147936772Y-98596519D03*
%TD*%
D11*
%TO.C,C2*%
X79232800Y-97315200D03*
X79232800Y-95765200D03*
%TD*%
D12*
%TO.C,D2*%
X83957300Y-93492200D03*
X82382300Y-93492200D03*
%TD*%
D13*
%TO.C,R25*%
X87550800Y-93492200D03*
X85900800Y-93492200D03*
%TD*%
D10*
%TO.C,R15*%
X174538968Y-101214124D03*
X176188968Y-101214124D03*
%TD*%
%TO.C,R5*%
X103912943Y-101214124D03*
X105562943Y-101214124D03*
%TD*%
D13*
%TO.C,R24*%
X222424800Y-98567200D03*
X220774800Y-98567200D03*
%TD*%
D14*
%TO.C,U13*%
X79171800Y-101233700D03*
X80121800Y-101233700D03*
X81071800Y-101233700D03*
X81071800Y-98958700D03*
X79171800Y-98958700D03*
%TD*%
D10*
%TO.C,R21*%
X216914583Y-101214124D03*
X218564583Y-101214124D03*
%TD*%
%TO.C,R16*%
X174532418Y-98596519D03*
X176182418Y-98596519D03*
%TD*%
%TO.C,R2*%
X75232800Y-98596519D03*
X76882800Y-98596519D03*
%TD*%
%TO.C,R11*%
X146288558Y-101214124D03*
X147938558Y-101214124D03*
%TD*%
%TO.C,R19*%
X202789378Y-101214124D03*
X204439378Y-101214124D03*
%TD*%
%TO.C,R3*%
X89787738Y-101214124D03*
X91437738Y-101214124D03*
%TD*%
%TO.C,R10*%
X132163949Y-98596519D03*
X133813949Y-98596519D03*
%TD*%
%TO.C,R13*%
X160413763Y-101214124D03*
X162063763Y-101214124D03*
%TD*%
D13*
%TO.C,R23*%
X222487800Y-101615200D03*
X220837800Y-101615200D03*
%TD*%
D10*
%TO.C,R4*%
X89795480Y-98596519D03*
X91445480Y-98596519D03*
%TD*%
D15*
%TO.C,C1*%
X79195546Y-103271200D03*
X80745546Y-103271200D03*
%TD*%
D16*
%TO.C,D1*%
X73643800Y-103906200D03*
X70343800Y-103906200D03*
%TD*%
D10*
%TO.C,R18*%
X188655241Y-98596519D03*
X190305241Y-98596519D03*
%TD*%
%TO.C,R1*%
X75232800Y-100858200D03*
X76882800Y-100858200D03*
%TD*%
%TO.C,R7*%
X118038148Y-101214124D03*
X119688148Y-101214124D03*
%TD*%
M02*
