%TF.GenerationSoftware,KiCad,Pcbnew,(6.0.7-1)-1*%
%TF.CreationDate,2024-02-27T20:03:13-05:00*%
%TF.ProjectId,EMHarpsichord_KeyboardCapture,454d4861-7270-4736-9963-686f72645f4b,rev?*%
%TF.SameCoordinates,Original*%
%TF.FileFunction,Copper,L2,Bot*%
%TF.FilePolarity,Positive*%
%FSLAX46Y46*%
G04 Gerber Fmt 4.6, Leading zero omitted, Abs format (unit mm)*
G04 Created by KiCad (PCBNEW (6.0.7-1)-1) date 2024-02-27 20:03:13*
%MOMM*%
%LPD*%
G01*
G04 APERTURE LIST*
%TA.AperFunction,ComponentPad*%
%ADD10R,1.700000X1.700000*%
%TD*%
%TA.AperFunction,ComponentPad*%
%ADD11O,1.700000X1.700000*%
%TD*%
%TA.AperFunction,ComponentPad*%
%ADD12O,8.600000X5.300000*%
%TD*%
%TA.AperFunction,ComponentPad*%
%ADD13C,1.700000*%
%TD*%
%TA.AperFunction,ComponentPad*%
%ADD14C,1.400000*%
%TD*%
%TA.AperFunction,ViaPad*%
%ADD15C,0.800000*%
%TD*%
G04 APERTURE END LIST*
D10*
%TO.P,J3,1,Pin_1*%
%TO.N,GND*%
X67167800Y-101107200D03*
D11*
%TO.P,J3,2,Pin_2*%
%TO.N,VIN*%
X67167800Y-103647200D03*
%TD*%
D12*
%TO.P,MP1,1*%
%TO.N,GND*%
X228092000Y-91948000D03*
%TD*%
D10*
%TO.P,J2,1,Pin_1*%
%TO.N,GND*%
X231505800Y-101107200D03*
D11*
%TO.P,J2,2,Pin_2*%
%TO.N,VIN*%
X231505800Y-103647200D03*
%TD*%
D12*
%TO.P,MP2,1*%
%TO.N,GND*%
X70723800Y-91714200D03*
%TD*%
D13*
%TO.P,J1,1,Pin_1*%
%TO.N,sense1*%
X130413800Y-90444200D03*
D11*
%TO.P,J1,2,Pin_2*%
%TO.N,sense2*%
X132953800Y-90444200D03*
%TO.P,J1,3,Pin_3*%
%TO.N,sense3*%
X135493800Y-90444200D03*
%TO.P,J1,4,Pin_4*%
%TO.N,sense4*%
X138033800Y-90444200D03*
%TO.P,J1,5,Pin_5*%
%TO.N,sense5*%
X140573800Y-90444200D03*
%TO.P,J1,6,Pin_6*%
%TO.N,sense6*%
X143113800Y-90444200D03*
%TO.P,J1,7,Pin_7*%
%TO.N,sense7*%
X145653800Y-90444200D03*
%TO.P,J1,8,Pin_8*%
%TO.N,sense8*%
X148193800Y-90444200D03*
%TO.P,J1,9,Pin_9*%
%TO.N,sense9*%
X150733800Y-90444200D03*
%TO.P,J1,10,Pin_10*%
%TO.N,sense10*%
X153273800Y-90444200D03*
%TO.P,J1,11,Pin_11*%
%TO.N,sense11*%
X155813800Y-90444200D03*
%TO.P,J1,12,Pin_12*%
%TO.N,sense12*%
X158353800Y-90444200D03*
%TD*%
D14*
%TO.P,U5,1,A*%
%TO.N,sense5*%
X129355951Y-98623495D03*
%TO.P,U5,2,K*%
%TO.N,GND*%
X129355951Y-101123495D03*
%TO.P,U5,3,C*%
%TO.N,Net-(R9-Pad1)*%
X127222351Y-101123495D03*
%TO.P,U5,4,E*%
%TO.N,GND*%
X127222351Y-98623495D03*
%TD*%
%TO.P,U12,1,A*%
%TO.N,sense12*%
X228034951Y-98623495D03*
%TO.P,U12,2,K*%
%TO.N,GND*%
X228034951Y-101123495D03*
%TO.P,U12,3,C*%
%TO.N,Net-(R23-Pad1)*%
X225901351Y-101123495D03*
%TO.P,U12,4,E*%
%TO.N,GND*%
X225901351Y-98623495D03*
%TD*%
%TO.P,U2,1,A*%
%TO.N,sense2*%
X87064951Y-98623495D03*
%TO.P,U2,2,K*%
%TO.N,GND*%
X87064951Y-101123495D03*
%TO.P,U2,3,C*%
%TO.N,Net-(R3-Pad1)*%
X84931351Y-101123495D03*
%TO.P,U2,4,E*%
%TO.N,GND*%
X84931351Y-98623495D03*
%TD*%
%TO.P,U3,1,A*%
%TO.N,sense3*%
X101161951Y-98623495D03*
%TO.P,U3,2,K*%
%TO.N,GND*%
X101161951Y-101123495D03*
%TO.P,U3,3,C*%
%TO.N,Net-(R5-Pad1)*%
X99028351Y-101123495D03*
%TO.P,U3,4,E*%
%TO.N,GND*%
X99028351Y-98623495D03*
%TD*%
%TO.P,U10,1,A*%
%TO.N,sense10*%
X199840951Y-98623495D03*
%TO.P,U10,2,K*%
%TO.N,GND*%
X199840951Y-101123495D03*
%TO.P,U10,3,C*%
%TO.N,Net-(R19-Pad1)*%
X197707351Y-101123495D03*
%TO.P,U10,4,E*%
%TO.N,GND*%
X197707351Y-98623495D03*
%TD*%
%TO.P,U8,1,A*%
%TO.N,sense8*%
X171646951Y-98623495D03*
%TO.P,U8,2,K*%
%TO.N,GND*%
X171646951Y-101123495D03*
%TO.P,U8,3,C*%
%TO.N,Net-(R15-Pad1)*%
X169513351Y-101123495D03*
%TO.P,U8,4,E*%
%TO.N,GND*%
X169513351Y-98623495D03*
%TD*%
%TO.P,U11,1,A*%
%TO.N,sense11*%
X213937951Y-98623495D03*
%TO.P,U11,2,K*%
%TO.N,GND*%
X213937951Y-101123495D03*
%TO.P,U11,3,C*%
%TO.N,Net-(R21-Pad1)*%
X211804351Y-101123495D03*
%TO.P,U11,4,E*%
%TO.N,GND*%
X211804351Y-98623495D03*
%TD*%
%TO.P,U1,1,A*%
%TO.N,sense1*%
X72967951Y-98623495D03*
%TO.P,U1,2,K*%
%TO.N,GND*%
X72967951Y-101123495D03*
%TO.P,U1,3,C*%
%TO.N,Net-(R1-Pad1)*%
X70834351Y-101123495D03*
%TO.P,U1,4,E*%
%TO.N,GND*%
X70834351Y-98623495D03*
%TD*%
%TO.P,U6,1,A*%
%TO.N,sense6*%
X143452951Y-98623495D03*
%TO.P,U6,2,K*%
%TO.N,GND*%
X143452951Y-101123495D03*
%TO.P,U6,3,C*%
%TO.N,Net-(R11-Pad1)*%
X141319351Y-101123495D03*
%TO.P,U6,4,E*%
%TO.N,GND*%
X141319351Y-98623495D03*
%TD*%
%TO.P,U9,1,A*%
%TO.N,sense9*%
X185743951Y-98623495D03*
%TO.P,U9,2,K*%
%TO.N,GND*%
X185743951Y-101123495D03*
%TO.P,U9,3,C*%
%TO.N,Net-(R17-Pad1)*%
X183610351Y-101123495D03*
%TO.P,U9,4,E*%
%TO.N,GND*%
X183610351Y-98623495D03*
%TD*%
%TO.P,U7,1,A*%
%TO.N,sense7*%
X157549951Y-98623495D03*
%TO.P,U7,2,K*%
%TO.N,GND*%
X157549951Y-101123495D03*
%TO.P,U7,3,C*%
%TO.N,Net-(R13-Pad1)*%
X155416351Y-101123495D03*
%TO.P,U7,4,E*%
%TO.N,GND*%
X155416351Y-98623495D03*
%TD*%
%TO.P,U4,1,A*%
%TO.N,sense4*%
X115258951Y-98623495D03*
%TO.P,U4,2,K*%
%TO.N,GND*%
X115258951Y-101123495D03*
%TO.P,U4,3,C*%
%TO.N,Net-(R7-Pad1)*%
X113125351Y-101123495D03*
%TO.P,U4,4,E*%
%TO.N,GND*%
X113125351Y-98623495D03*
%TD*%
D15*
%TO.N,GND*%
X109982000Y-98552000D03*
X123952000Y-98552000D03*
X209423000Y-98552000D03*
X123952000Y-101346000D03*
X170180000Y-89916000D03*
X195453000Y-98552000D03*
X95631000Y-98552000D03*
X181229000Y-101346000D03*
X196342000Y-89662000D03*
X209423000Y-101346000D03*
X181229000Y-98552000D03*
X170180000Y-92710000D03*
X81899800Y-103906200D03*
X113157000Y-92964000D03*
X219710000Y-90043000D03*
X196342000Y-92456000D03*
X101600000Y-90297000D03*
X138557000Y-98552000D03*
X167132000Y-101473000D03*
X153035000Y-101600000D03*
X80883800Y-96027200D03*
X138557000Y-101346000D03*
X101600000Y-93091000D03*
X113157000Y-90170000D03*
X109982000Y-101346000D03*
X81899800Y-102382200D03*
X153035000Y-98806000D03*
X89773800Y-94508200D03*
X195453000Y-101346000D03*
X95631000Y-101346000D03*
X219710000Y-92837000D03*
X167132000Y-98679000D03*
%TD*%
%TA.AperFunction,Conductor*%
%TO.N,GND*%
G36*
X225599594Y-88686702D02*
G01*
X225646087Y-88740358D01*
X225656191Y-88810632D01*
X225626697Y-88875212D01*
X225566203Y-88913819D01*
X225405183Y-88959991D01*
X225398555Y-88962299D01*
X225078568Y-89094187D01*
X225072248Y-89097216D01*
X224768958Y-89263951D01*
X224763001Y-89267674D01*
X224480210Y-89467160D01*
X224474684Y-89471539D01*
X224215896Y-89701304D01*
X224210898Y-89706268D01*
X223979330Y-89963449D01*
X223974924Y-89968929D01*
X223773463Y-90250326D01*
X223769690Y-90256273D01*
X223600855Y-90558368D01*
X223597773Y-90564686D01*
X223463658Y-90883733D01*
X223461302Y-90890348D01*
X223363584Y-91222366D01*
X223361984Y-91229188D01*
X223301884Y-91570031D01*
X223301053Y-91577003D01*
X223294830Y-91675917D01*
X223298305Y-91691257D01*
X223309246Y-91694000D01*
X228220000Y-91694000D01*
X228288121Y-91714002D01*
X228334614Y-91767658D01*
X228346000Y-91820000D01*
X228346000Y-95087885D01*
X228350475Y-95103124D01*
X228351865Y-95104329D01*
X228359548Y-95106000D01*
X229829250Y-95106000D01*
X229832742Y-95105903D01*
X230091065Y-95091460D01*
X230098039Y-95090678D01*
X230439284Y-95032961D01*
X230446139Y-95031403D01*
X230778817Y-94936009D01*
X230785445Y-94933701D01*
X231105432Y-94801813D01*
X231111752Y-94798784D01*
X231415042Y-94632049D01*
X231420999Y-94628326D01*
X231703790Y-94428840D01*
X231709316Y-94424461D01*
X231968104Y-94194696D01*
X231973102Y-94189732D01*
X232204670Y-93932551D01*
X232209076Y-93927071D01*
X232410537Y-93645674D01*
X232414310Y-93639727D01*
X232539312Y-93416063D01*
X232590005Y-93366357D01*
X232659525Y-93351949D01*
X232725798Y-93377412D01*
X232767783Y-93434664D01*
X232775300Y-93477533D01*
X232775300Y-99690583D01*
X232755298Y-99758704D01*
X232701642Y-99805197D01*
X232631368Y-99815301D01*
X232602739Y-99805756D01*
X232602262Y-99807028D01*
X232473406Y-99758722D01*
X232458151Y-99755095D01*
X232407286Y-99749569D01*
X232400472Y-99749200D01*
X231777915Y-99749200D01*
X231762676Y-99753675D01*
X231761471Y-99755065D01*
X231759800Y-99762748D01*
X231759800Y-101235200D01*
X231739798Y-101303321D01*
X231686142Y-101349814D01*
X231633800Y-101361200D01*
X230165916Y-101361200D01*
X230150677Y-101365675D01*
X230149472Y-101367065D01*
X230147801Y-101374748D01*
X230147801Y-102001869D01*
X230148171Y-102008690D01*
X230153695Y-102059552D01*
X230157321Y-102074804D01*
X230202476Y-102195254D01*
X230211014Y-102210849D01*
X230287515Y-102312924D01*
X230300076Y-102325485D01*
X230402151Y-102401986D01*
X230417746Y-102410524D01*
X230526627Y-102451342D01*
X230583391Y-102493984D01*
X230608091Y-102560545D01*
X230592883Y-102629894D01*
X230573491Y-102656375D01*
X230452651Y-102782827D01*
X230446429Y-102789338D01*
X230443515Y-102793610D01*
X230443514Y-102793611D01*
X230358356Y-102918449D01*
X230320543Y-102973880D01*
X230226488Y-103176505D01*
X230166789Y-103391770D01*
X230143051Y-103613895D01*
X230143348Y-103619048D01*
X230143348Y-103619051D01*
X230148811Y-103713790D01*
X230155910Y-103836915D01*
X230157047Y-103841961D01*
X230157048Y-103841967D01*
X230176919Y-103930139D01*
X230205022Y-104054839D01*
X230289066Y-104261816D01*
X230405787Y-104452288D01*
X230552050Y-104621138D01*
X230723926Y-104763832D01*
X230916800Y-104876538D01*
X231125492Y-104956230D01*
X231130560Y-104957261D01*
X231130563Y-104957262D01*
X231237817Y-104979083D01*
X231344397Y-105000767D01*
X231349572Y-105000957D01*
X231349574Y-105000957D01*
X231562473Y-105008764D01*
X231562477Y-105008764D01*
X231567637Y-105008953D01*
X231572757Y-105008297D01*
X231572759Y-105008297D01*
X231784088Y-104981225D01*
X231784089Y-104981225D01*
X231789216Y-104980568D01*
X231794166Y-104979083D01*
X231998229Y-104917861D01*
X231998234Y-104917859D01*
X232003184Y-104916374D01*
X232203794Y-104818096D01*
X232385660Y-104688373D01*
X232543896Y-104530689D01*
X232546912Y-104526491D01*
X232546916Y-104526487D01*
X232546975Y-104526405D01*
X232547007Y-104526380D01*
X232550265Y-104522552D01*
X232551055Y-104523224D01*
X232602968Y-104482755D01*
X232673671Y-104476306D01*
X232736636Y-104509107D01*
X232771873Y-104570742D01*
X232775300Y-104599927D01*
X232775300Y-105811700D01*
X232755298Y-105879821D01*
X232701642Y-105926314D01*
X232649300Y-105937700D01*
X66024300Y-105937700D01*
X65956179Y-105917698D01*
X65909686Y-105864042D01*
X65898300Y-105811700D01*
X65898300Y-104594528D01*
X65918302Y-104526407D01*
X65971958Y-104479914D01*
X66042232Y-104469810D01*
X66106812Y-104499304D01*
X66119537Y-104512030D01*
X66210665Y-104617231D01*
X66210669Y-104617235D01*
X66214050Y-104621138D01*
X66385926Y-104763832D01*
X66578800Y-104876538D01*
X66787492Y-104956230D01*
X66792560Y-104957261D01*
X66792563Y-104957262D01*
X66899817Y-104979083D01*
X67006397Y-105000767D01*
X67011572Y-105000957D01*
X67011574Y-105000957D01*
X67224473Y-105008764D01*
X67224477Y-105008764D01*
X67229637Y-105008953D01*
X67234757Y-105008297D01*
X67234759Y-105008297D01*
X67446088Y-104981225D01*
X67446089Y-104981225D01*
X67451216Y-104980568D01*
X67456166Y-104979083D01*
X67660229Y-104917861D01*
X67660234Y-104917859D01*
X67665184Y-104916374D01*
X67865794Y-104818096D01*
X68047660Y-104688373D01*
X68205896Y-104530689D01*
X68208916Y-104526487D01*
X68333235Y-104353477D01*
X68336253Y-104349277D01*
X68435230Y-104149011D01*
X68500170Y-103935269D01*
X68529329Y-103713790D01*
X68530956Y-103647200D01*
X68512652Y-103424561D01*
X68458231Y-103207902D01*
X68369154Y-103003040D01*
X68247814Y-102815477D01*
X68244340Y-102811659D01*
X68244333Y-102811650D01*
X68100235Y-102653288D01*
X68069183Y-102589442D01*
X68077579Y-102518944D01*
X68122756Y-102464176D01*
X68149200Y-102450507D01*
X68255852Y-102410525D01*
X68271449Y-102401986D01*
X68373524Y-102325485D01*
X68386085Y-102312924D01*
X68462586Y-102210849D01*
X68471124Y-102195254D01*
X68516278Y-102074806D01*
X68519905Y-102059551D01*
X68525431Y-102008686D01*
X68525800Y-102001872D01*
X68525800Y-101379315D01*
X68521325Y-101364076D01*
X68519935Y-101362871D01*
X68512252Y-101361200D01*
X67039800Y-101361200D01*
X66971679Y-101341198D01*
X66925186Y-101287542D01*
X66913800Y-101235200D01*
X66913800Y-101123495D01*
X69621235Y-101123495D01*
X69639665Y-101334150D01*
X69641089Y-101339463D01*
X69641089Y-101339465D01*
X69648485Y-101367065D01*
X69694395Y-101538405D01*
X69783762Y-101730053D01*
X69905050Y-101903271D01*
X70054575Y-102052796D01*
X70227793Y-102174084D01*
X70232771Y-102176405D01*
X70232774Y-102176407D01*
X70413443Y-102260654D01*
X70419441Y-102263451D01*
X70424749Y-102264873D01*
X70424751Y-102264874D01*
X70618381Y-102316757D01*
X70618383Y-102316757D01*
X70623696Y-102318181D01*
X70834351Y-102336611D01*
X71045006Y-102318181D01*
X71050319Y-102316757D01*
X71050321Y-102316757D01*
X71243951Y-102264874D01*
X71243953Y-102264873D01*
X71249261Y-102263451D01*
X71255259Y-102260654D01*
X71435928Y-102176407D01*
X71435931Y-102176405D01*
X71440909Y-102174084D01*
X71492791Y-102137756D01*
X72318245Y-102137756D01*
X72327541Y-102149771D01*
X72357140Y-102170496D01*
X72366628Y-102175974D01*
X72548228Y-102260654D01*
X72558522Y-102264402D01*
X72752073Y-102316264D01*
X72762860Y-102318166D01*
X72962476Y-102335630D01*
X72973426Y-102335630D01*
X73173042Y-102318166D01*
X73183829Y-102316264D01*
X73377380Y-102264402D01*
X73387674Y-102260654D01*
X73569274Y-102175974D01*
X73578762Y-102170496D01*
X73609199Y-102149184D01*
X73617574Y-102138707D01*
X73610505Y-102125259D01*
X72980763Y-101495517D01*
X72966819Y-101487903D01*
X72964986Y-101488034D01*
X72958371Y-101492285D01*
X72324675Y-102125981D01*
X72318245Y-102137756D01*
X71492791Y-102137756D01*
X71614127Y-102052796D01*
X71763652Y-101903271D01*
X71818036Y-101825602D01*
X71873492Y-101781275D01*
X71934220Y-101772544D01*
X71950604Y-101774240D01*
X71966187Y-101766049D01*
X72595929Y-101136307D01*
X72602307Y-101124627D01*
X73332359Y-101124627D01*
X73332490Y-101126460D01*
X73336741Y-101133075D01*
X73970437Y-101766771D01*
X73982212Y-101773201D01*
X73994227Y-101763905D01*
X74014952Y-101734306D01*
X74020430Y-101724818D01*
X74105110Y-101543218D01*
X74108858Y-101532924D01*
X74160720Y-101339373D01*
X74162622Y-101328586D01*
X74180086Y-101128970D01*
X74180086Y-101123495D01*
X83718235Y-101123495D01*
X83736665Y-101334150D01*
X83738089Y-101339463D01*
X83738089Y-101339465D01*
X83745485Y-101367065D01*
X83791395Y-101538405D01*
X83880762Y-101730053D01*
X84002050Y-101903271D01*
X84151575Y-102052796D01*
X84324793Y-102174084D01*
X84329771Y-102176405D01*
X84329774Y-102176407D01*
X84510443Y-102260654D01*
X84516441Y-102263451D01*
X84521749Y-102264873D01*
X84521751Y-102264874D01*
X84715381Y-102316757D01*
X84715383Y-102316757D01*
X84720696Y-102318181D01*
X84931351Y-102336611D01*
X85142006Y-102318181D01*
X85147319Y-102316757D01*
X85147321Y-102316757D01*
X85340951Y-102264874D01*
X85340953Y-102264873D01*
X85346261Y-102263451D01*
X85352259Y-102260654D01*
X85532928Y-102176407D01*
X85532931Y-102176405D01*
X85537909Y-102174084D01*
X85589791Y-102137756D01*
X86415245Y-102137756D01*
X86424541Y-102149771D01*
X86454140Y-102170496D01*
X86463628Y-102175974D01*
X86645228Y-102260654D01*
X86655522Y-102264402D01*
X86849073Y-102316264D01*
X86859860Y-102318166D01*
X87059476Y-102335630D01*
X87070426Y-102335630D01*
X87270042Y-102318166D01*
X87280829Y-102316264D01*
X87474380Y-102264402D01*
X87484674Y-102260654D01*
X87666274Y-102175974D01*
X87675762Y-102170496D01*
X87706199Y-102149184D01*
X87714574Y-102138707D01*
X87707505Y-102125259D01*
X87077763Y-101495517D01*
X87063819Y-101487903D01*
X87061986Y-101488034D01*
X87055371Y-101492285D01*
X86421675Y-102125981D01*
X86415245Y-102137756D01*
X85589791Y-102137756D01*
X85711127Y-102052796D01*
X85860652Y-101903271D01*
X85915036Y-101825602D01*
X85970492Y-101781275D01*
X86031220Y-101772544D01*
X86047604Y-101774240D01*
X86063187Y-101766049D01*
X86692929Y-101136307D01*
X86699307Y-101124627D01*
X87429359Y-101124627D01*
X87429490Y-101126460D01*
X87433741Y-101133075D01*
X88067437Y-101766771D01*
X88079212Y-101773201D01*
X88091227Y-101763905D01*
X88111952Y-101734306D01*
X88117430Y-101724818D01*
X88202110Y-101543218D01*
X88205858Y-101532924D01*
X88257720Y-101339373D01*
X88259622Y-101328586D01*
X88277086Y-101128970D01*
X88277086Y-101123495D01*
X97815235Y-101123495D01*
X97833665Y-101334150D01*
X97835089Y-101339463D01*
X97835089Y-101339465D01*
X97842485Y-101367065D01*
X97888395Y-101538405D01*
X97977762Y-101730053D01*
X98099050Y-101903271D01*
X98248575Y-102052796D01*
X98421793Y-102174084D01*
X98426771Y-102176405D01*
X98426774Y-102176407D01*
X98607443Y-102260654D01*
X98613441Y-102263451D01*
X98618749Y-102264873D01*
X98618751Y-102264874D01*
X98812381Y-102316757D01*
X98812383Y-102316757D01*
X98817696Y-102318181D01*
X99028351Y-102336611D01*
X99239006Y-102318181D01*
X99244319Y-102316757D01*
X99244321Y-102316757D01*
X99437951Y-102264874D01*
X99437953Y-102264873D01*
X99443261Y-102263451D01*
X99449259Y-102260654D01*
X99629928Y-102176407D01*
X99629931Y-102176405D01*
X99634909Y-102174084D01*
X99686791Y-102137756D01*
X100512245Y-102137756D01*
X100521541Y-102149771D01*
X100551140Y-102170496D01*
X100560628Y-102175974D01*
X100742228Y-102260654D01*
X100752522Y-102264402D01*
X100946073Y-102316264D01*
X100956860Y-102318166D01*
X101156476Y-102335630D01*
X101167426Y-102335630D01*
X101367042Y-102318166D01*
X101377829Y-102316264D01*
X101571380Y-102264402D01*
X101581674Y-102260654D01*
X101763274Y-102175974D01*
X101772762Y-102170496D01*
X101803199Y-102149184D01*
X101811574Y-102138707D01*
X101804505Y-102125259D01*
X101174763Y-101495517D01*
X101160819Y-101487903D01*
X101158986Y-101488034D01*
X101152371Y-101492285D01*
X100518675Y-102125981D01*
X100512245Y-102137756D01*
X99686791Y-102137756D01*
X99808127Y-102052796D01*
X99957652Y-101903271D01*
X100012036Y-101825602D01*
X100067492Y-101781275D01*
X100128220Y-101772544D01*
X100144604Y-101774240D01*
X100160187Y-101766049D01*
X100789929Y-101136307D01*
X100796307Y-101124627D01*
X101526359Y-101124627D01*
X101526490Y-101126460D01*
X101530741Y-101133075D01*
X102164437Y-101766771D01*
X102176212Y-101773201D01*
X102188227Y-101763905D01*
X102208952Y-101734306D01*
X102214430Y-101724818D01*
X102299110Y-101543218D01*
X102302858Y-101532924D01*
X102354720Y-101339373D01*
X102356622Y-101328586D01*
X102374086Y-101128970D01*
X102374086Y-101123495D01*
X111912235Y-101123495D01*
X111930665Y-101334150D01*
X111932089Y-101339463D01*
X111932089Y-101339465D01*
X111939485Y-101367065D01*
X111985395Y-101538405D01*
X112074762Y-101730053D01*
X112196050Y-101903271D01*
X112345575Y-102052796D01*
X112518793Y-102174084D01*
X112523771Y-102176405D01*
X112523774Y-102176407D01*
X112704443Y-102260654D01*
X112710441Y-102263451D01*
X112715749Y-102264873D01*
X112715751Y-102264874D01*
X112909381Y-102316757D01*
X112909383Y-102316757D01*
X112914696Y-102318181D01*
X113125351Y-102336611D01*
X113336006Y-102318181D01*
X113341319Y-102316757D01*
X113341321Y-102316757D01*
X113534951Y-102264874D01*
X113534953Y-102264873D01*
X113540261Y-102263451D01*
X113546259Y-102260654D01*
X113726928Y-102176407D01*
X113726931Y-102176405D01*
X113731909Y-102174084D01*
X113783791Y-102137756D01*
X114609245Y-102137756D01*
X114618541Y-102149771D01*
X114648140Y-102170496D01*
X114657628Y-102175974D01*
X114839228Y-102260654D01*
X114849522Y-102264402D01*
X115043073Y-102316264D01*
X115053860Y-102318166D01*
X115253476Y-102335630D01*
X115264426Y-102335630D01*
X115464042Y-102318166D01*
X115474829Y-102316264D01*
X115668380Y-102264402D01*
X115678674Y-102260654D01*
X115860274Y-102175974D01*
X115869762Y-102170496D01*
X115900199Y-102149184D01*
X115908574Y-102138707D01*
X115901505Y-102125259D01*
X115271763Y-101495517D01*
X115257819Y-101487903D01*
X115255986Y-101488034D01*
X115249371Y-101492285D01*
X114615675Y-102125981D01*
X114609245Y-102137756D01*
X113783791Y-102137756D01*
X113905127Y-102052796D01*
X114054652Y-101903271D01*
X114109036Y-101825602D01*
X114164492Y-101781275D01*
X114225220Y-101772544D01*
X114241604Y-101774240D01*
X114257187Y-101766049D01*
X114886929Y-101136307D01*
X114893307Y-101124627D01*
X115623359Y-101124627D01*
X115623490Y-101126460D01*
X115627741Y-101133075D01*
X116261437Y-101766771D01*
X116273212Y-101773201D01*
X116285227Y-101763905D01*
X116305952Y-101734306D01*
X116311430Y-101724818D01*
X116396110Y-101543218D01*
X116399858Y-101532924D01*
X116451720Y-101339373D01*
X116453622Y-101328586D01*
X116471086Y-101128970D01*
X116471086Y-101123495D01*
X126009235Y-101123495D01*
X126027665Y-101334150D01*
X126029089Y-101339463D01*
X126029089Y-101339465D01*
X126036485Y-101367065D01*
X126082395Y-101538405D01*
X126171762Y-101730053D01*
X126293050Y-101903271D01*
X126442575Y-102052796D01*
X126615793Y-102174084D01*
X126620771Y-102176405D01*
X126620774Y-102176407D01*
X126801443Y-102260654D01*
X126807441Y-102263451D01*
X126812749Y-102264873D01*
X126812751Y-102264874D01*
X127006381Y-102316757D01*
X127006383Y-102316757D01*
X127011696Y-102318181D01*
X127222351Y-102336611D01*
X127433006Y-102318181D01*
X127438319Y-102316757D01*
X127438321Y-102316757D01*
X127631951Y-102264874D01*
X127631953Y-102264873D01*
X127637261Y-102263451D01*
X127643259Y-102260654D01*
X127823928Y-102176407D01*
X127823931Y-102176405D01*
X127828909Y-102174084D01*
X127880791Y-102137756D01*
X128706245Y-102137756D01*
X128715541Y-102149771D01*
X128745140Y-102170496D01*
X128754628Y-102175974D01*
X128936228Y-102260654D01*
X128946522Y-102264402D01*
X129140073Y-102316264D01*
X129150860Y-102318166D01*
X129350476Y-102335630D01*
X129361426Y-102335630D01*
X129561042Y-102318166D01*
X129571829Y-102316264D01*
X129765380Y-102264402D01*
X129775674Y-102260654D01*
X129957274Y-102175974D01*
X129966762Y-102170496D01*
X129997199Y-102149184D01*
X130005574Y-102138707D01*
X129998505Y-102125259D01*
X129368763Y-101495517D01*
X129354819Y-101487903D01*
X129352986Y-101488034D01*
X129346371Y-101492285D01*
X128712675Y-102125981D01*
X128706245Y-102137756D01*
X127880791Y-102137756D01*
X128002127Y-102052796D01*
X128151652Y-101903271D01*
X128206036Y-101825602D01*
X128261492Y-101781275D01*
X128322220Y-101772544D01*
X128338604Y-101774240D01*
X128354187Y-101766049D01*
X128983929Y-101136307D01*
X128990307Y-101124627D01*
X129720359Y-101124627D01*
X129720490Y-101126460D01*
X129724741Y-101133075D01*
X130358437Y-101766771D01*
X130370212Y-101773201D01*
X130382227Y-101763905D01*
X130402952Y-101734306D01*
X130408430Y-101724818D01*
X130493110Y-101543218D01*
X130496858Y-101532924D01*
X130548720Y-101339373D01*
X130550622Y-101328586D01*
X130568086Y-101128970D01*
X130568086Y-101123495D01*
X140106235Y-101123495D01*
X140124665Y-101334150D01*
X140126089Y-101339463D01*
X140126089Y-101339465D01*
X140133485Y-101367065D01*
X140179395Y-101538405D01*
X140268762Y-101730053D01*
X140390050Y-101903271D01*
X140539575Y-102052796D01*
X140712793Y-102174084D01*
X140717771Y-102176405D01*
X140717774Y-102176407D01*
X140898443Y-102260654D01*
X140904441Y-102263451D01*
X140909749Y-102264873D01*
X140909751Y-102264874D01*
X141103381Y-102316757D01*
X141103383Y-102316757D01*
X141108696Y-102318181D01*
X141319351Y-102336611D01*
X141530006Y-102318181D01*
X141535319Y-102316757D01*
X141535321Y-102316757D01*
X141728951Y-102264874D01*
X141728953Y-102264873D01*
X141734261Y-102263451D01*
X141740259Y-102260654D01*
X141920928Y-102176407D01*
X141920931Y-102176405D01*
X141925909Y-102174084D01*
X141977791Y-102137756D01*
X142803245Y-102137756D01*
X142812541Y-102149771D01*
X142842140Y-102170496D01*
X142851628Y-102175974D01*
X143033228Y-102260654D01*
X143043522Y-102264402D01*
X143237073Y-102316264D01*
X143247860Y-102318166D01*
X143447476Y-102335630D01*
X143458426Y-102335630D01*
X143658042Y-102318166D01*
X143668829Y-102316264D01*
X143862380Y-102264402D01*
X143872674Y-102260654D01*
X144054274Y-102175974D01*
X144063762Y-102170496D01*
X144094199Y-102149184D01*
X144102574Y-102138707D01*
X144095505Y-102125259D01*
X143465763Y-101495517D01*
X143451819Y-101487903D01*
X143449986Y-101488034D01*
X143443371Y-101492285D01*
X142809675Y-102125981D01*
X142803245Y-102137756D01*
X141977791Y-102137756D01*
X142099127Y-102052796D01*
X142248652Y-101903271D01*
X142303036Y-101825602D01*
X142358492Y-101781275D01*
X142419220Y-101772544D01*
X142435604Y-101774240D01*
X142451187Y-101766049D01*
X143080929Y-101136307D01*
X143087307Y-101124627D01*
X143817359Y-101124627D01*
X143817490Y-101126460D01*
X143821741Y-101133075D01*
X144455437Y-101766771D01*
X144467212Y-101773201D01*
X144479227Y-101763905D01*
X144499952Y-101734306D01*
X144505430Y-101724818D01*
X144590110Y-101543218D01*
X144593858Y-101532924D01*
X144645720Y-101339373D01*
X144647622Y-101328586D01*
X144665086Y-101128970D01*
X144665086Y-101123495D01*
X154203235Y-101123495D01*
X154221665Y-101334150D01*
X154223089Y-101339463D01*
X154223089Y-101339465D01*
X154230485Y-101367065D01*
X154276395Y-101538405D01*
X154365762Y-101730053D01*
X154487050Y-101903271D01*
X154636575Y-102052796D01*
X154809793Y-102174084D01*
X154814771Y-102176405D01*
X154814774Y-102176407D01*
X154995443Y-102260654D01*
X155001441Y-102263451D01*
X155006749Y-102264873D01*
X155006751Y-102264874D01*
X155200381Y-102316757D01*
X155200383Y-102316757D01*
X155205696Y-102318181D01*
X155416351Y-102336611D01*
X155627006Y-102318181D01*
X155632319Y-102316757D01*
X155632321Y-102316757D01*
X155825951Y-102264874D01*
X155825953Y-102264873D01*
X155831261Y-102263451D01*
X155837259Y-102260654D01*
X156017928Y-102176407D01*
X156017931Y-102176405D01*
X156022909Y-102174084D01*
X156074791Y-102137756D01*
X156900245Y-102137756D01*
X156909541Y-102149771D01*
X156939140Y-102170496D01*
X156948628Y-102175974D01*
X157130228Y-102260654D01*
X157140522Y-102264402D01*
X157334073Y-102316264D01*
X157344860Y-102318166D01*
X157544476Y-102335630D01*
X157555426Y-102335630D01*
X157755042Y-102318166D01*
X157765829Y-102316264D01*
X157959380Y-102264402D01*
X157969674Y-102260654D01*
X158151274Y-102175974D01*
X158160762Y-102170496D01*
X158191199Y-102149184D01*
X158199574Y-102138707D01*
X158192505Y-102125259D01*
X157562763Y-101495517D01*
X157548819Y-101487903D01*
X157546986Y-101488034D01*
X157540371Y-101492285D01*
X156906675Y-102125981D01*
X156900245Y-102137756D01*
X156074791Y-102137756D01*
X156196127Y-102052796D01*
X156345652Y-101903271D01*
X156400036Y-101825602D01*
X156455492Y-101781275D01*
X156516220Y-101772544D01*
X156532604Y-101774240D01*
X156548187Y-101766049D01*
X157177929Y-101136307D01*
X157184307Y-101124627D01*
X157914359Y-101124627D01*
X157914490Y-101126460D01*
X157918741Y-101133075D01*
X158552437Y-101766771D01*
X158564212Y-101773201D01*
X158576227Y-101763905D01*
X158596952Y-101734306D01*
X158602430Y-101724818D01*
X158687110Y-101543218D01*
X158690858Y-101532924D01*
X158742720Y-101339373D01*
X158744622Y-101328586D01*
X158762086Y-101128970D01*
X158762086Y-101123495D01*
X168300235Y-101123495D01*
X168318665Y-101334150D01*
X168320089Y-101339463D01*
X168320089Y-101339465D01*
X168327485Y-101367065D01*
X168373395Y-101538405D01*
X168462762Y-101730053D01*
X168584050Y-101903271D01*
X168733575Y-102052796D01*
X168906793Y-102174084D01*
X168911771Y-102176405D01*
X168911774Y-102176407D01*
X169092443Y-102260654D01*
X169098441Y-102263451D01*
X169103749Y-102264873D01*
X169103751Y-102264874D01*
X169297381Y-102316757D01*
X169297383Y-102316757D01*
X169302696Y-102318181D01*
X169513351Y-102336611D01*
X169724006Y-102318181D01*
X169729319Y-102316757D01*
X169729321Y-102316757D01*
X169922951Y-102264874D01*
X169922953Y-102264873D01*
X169928261Y-102263451D01*
X169934259Y-102260654D01*
X170114928Y-102176407D01*
X170114931Y-102176405D01*
X170119909Y-102174084D01*
X170171791Y-102137756D01*
X170997245Y-102137756D01*
X171006541Y-102149771D01*
X171036140Y-102170496D01*
X171045628Y-102175974D01*
X171227228Y-102260654D01*
X171237522Y-102264402D01*
X171431073Y-102316264D01*
X171441860Y-102318166D01*
X171641476Y-102335630D01*
X171652426Y-102335630D01*
X171852042Y-102318166D01*
X171862829Y-102316264D01*
X172056380Y-102264402D01*
X172066674Y-102260654D01*
X172248274Y-102175974D01*
X172257762Y-102170496D01*
X172288199Y-102149184D01*
X172296574Y-102138707D01*
X172289505Y-102125259D01*
X171659763Y-101495517D01*
X171645819Y-101487903D01*
X171643986Y-101488034D01*
X171637371Y-101492285D01*
X171003675Y-102125981D01*
X170997245Y-102137756D01*
X170171791Y-102137756D01*
X170293127Y-102052796D01*
X170442652Y-101903271D01*
X170497036Y-101825602D01*
X170552492Y-101781275D01*
X170613220Y-101772544D01*
X170629604Y-101774240D01*
X170645187Y-101766049D01*
X171274929Y-101136307D01*
X171281307Y-101124627D01*
X172011359Y-101124627D01*
X172011490Y-101126460D01*
X172015741Y-101133075D01*
X172649437Y-101766771D01*
X172661212Y-101773201D01*
X172673227Y-101763905D01*
X172693952Y-101734306D01*
X172699430Y-101724818D01*
X172784110Y-101543218D01*
X172787858Y-101532924D01*
X172839720Y-101339373D01*
X172841622Y-101328586D01*
X172859086Y-101128970D01*
X172859086Y-101123495D01*
X182397235Y-101123495D01*
X182415665Y-101334150D01*
X182417089Y-101339463D01*
X182417089Y-101339465D01*
X182424485Y-101367065D01*
X182470395Y-101538405D01*
X182559762Y-101730053D01*
X182681050Y-101903271D01*
X182830575Y-102052796D01*
X183003793Y-102174084D01*
X183008771Y-102176405D01*
X183008774Y-102176407D01*
X183189443Y-102260654D01*
X183195441Y-102263451D01*
X183200749Y-102264873D01*
X183200751Y-102264874D01*
X183394381Y-102316757D01*
X183394383Y-102316757D01*
X183399696Y-102318181D01*
X183610351Y-102336611D01*
X183821006Y-102318181D01*
X183826319Y-102316757D01*
X183826321Y-102316757D01*
X184019951Y-102264874D01*
X184019953Y-102264873D01*
X184025261Y-102263451D01*
X184031259Y-102260654D01*
X184211928Y-102176407D01*
X184211931Y-102176405D01*
X184216909Y-102174084D01*
X184268791Y-102137756D01*
X185094245Y-102137756D01*
X185103541Y-102149771D01*
X185133140Y-102170496D01*
X185142628Y-102175974D01*
X185324228Y-102260654D01*
X185334522Y-102264402D01*
X185528073Y-102316264D01*
X185538860Y-102318166D01*
X185738476Y-102335630D01*
X185749426Y-102335630D01*
X185949042Y-102318166D01*
X185959829Y-102316264D01*
X186153380Y-102264402D01*
X186163674Y-102260654D01*
X186345274Y-102175974D01*
X186354762Y-102170496D01*
X186385199Y-102149184D01*
X186393574Y-102138707D01*
X186386505Y-102125259D01*
X185756763Y-101495517D01*
X185742819Y-101487903D01*
X185740986Y-101488034D01*
X185734371Y-101492285D01*
X185100675Y-102125981D01*
X185094245Y-102137756D01*
X184268791Y-102137756D01*
X184390127Y-102052796D01*
X184539652Y-101903271D01*
X184594036Y-101825602D01*
X184649492Y-101781275D01*
X184710220Y-101772544D01*
X184726604Y-101774240D01*
X184742187Y-101766049D01*
X185371929Y-101136307D01*
X185378307Y-101124627D01*
X186108359Y-101124627D01*
X186108490Y-101126460D01*
X186112741Y-101133075D01*
X186746437Y-101766771D01*
X186758212Y-101773201D01*
X186770227Y-101763905D01*
X186790952Y-101734306D01*
X186796430Y-101724818D01*
X186881110Y-101543218D01*
X186884858Y-101532924D01*
X186936720Y-101339373D01*
X186938622Y-101328586D01*
X186956086Y-101128970D01*
X186956086Y-101123495D01*
X196494235Y-101123495D01*
X196512665Y-101334150D01*
X196514089Y-101339463D01*
X196514089Y-101339465D01*
X196521485Y-101367065D01*
X196567395Y-101538405D01*
X196656762Y-101730053D01*
X196778050Y-101903271D01*
X196927575Y-102052796D01*
X197100793Y-102174084D01*
X197105771Y-102176405D01*
X197105774Y-102176407D01*
X197286443Y-102260654D01*
X197292441Y-102263451D01*
X197297749Y-102264873D01*
X197297751Y-102264874D01*
X197491381Y-102316757D01*
X197491383Y-102316757D01*
X197496696Y-102318181D01*
X197707351Y-102336611D01*
X197918006Y-102318181D01*
X197923319Y-102316757D01*
X197923321Y-102316757D01*
X198116951Y-102264874D01*
X198116953Y-102264873D01*
X198122261Y-102263451D01*
X198128259Y-102260654D01*
X198308928Y-102176407D01*
X198308931Y-102176405D01*
X198313909Y-102174084D01*
X198365791Y-102137756D01*
X199191245Y-102137756D01*
X199200541Y-102149771D01*
X199230140Y-102170496D01*
X199239628Y-102175974D01*
X199421228Y-102260654D01*
X199431522Y-102264402D01*
X199625073Y-102316264D01*
X199635860Y-102318166D01*
X199835476Y-102335630D01*
X199846426Y-102335630D01*
X200046042Y-102318166D01*
X200056829Y-102316264D01*
X200250380Y-102264402D01*
X200260674Y-102260654D01*
X200442274Y-102175974D01*
X200451762Y-102170496D01*
X200482199Y-102149184D01*
X200490574Y-102138707D01*
X200483505Y-102125259D01*
X199853763Y-101495517D01*
X199839819Y-101487903D01*
X199837986Y-101488034D01*
X199831371Y-101492285D01*
X199197675Y-102125981D01*
X199191245Y-102137756D01*
X198365791Y-102137756D01*
X198487127Y-102052796D01*
X198636652Y-101903271D01*
X198691036Y-101825602D01*
X198746492Y-101781275D01*
X198807220Y-101772544D01*
X198823604Y-101774240D01*
X198839187Y-101766049D01*
X199468929Y-101136307D01*
X199475307Y-101124627D01*
X200205359Y-101124627D01*
X200205490Y-101126460D01*
X200209741Y-101133075D01*
X200843437Y-101766771D01*
X200855212Y-101773201D01*
X200867227Y-101763905D01*
X200887952Y-101734306D01*
X200893430Y-101724818D01*
X200978110Y-101543218D01*
X200981858Y-101532924D01*
X201033720Y-101339373D01*
X201035622Y-101328586D01*
X201053086Y-101128970D01*
X201053086Y-101123495D01*
X210591235Y-101123495D01*
X210609665Y-101334150D01*
X210611089Y-101339463D01*
X210611089Y-101339465D01*
X210618485Y-101367065D01*
X210664395Y-101538405D01*
X210753762Y-101730053D01*
X210875050Y-101903271D01*
X211024575Y-102052796D01*
X211197793Y-102174084D01*
X211202771Y-102176405D01*
X211202774Y-102176407D01*
X211383443Y-102260654D01*
X211389441Y-102263451D01*
X211394749Y-102264873D01*
X211394751Y-102264874D01*
X211588381Y-102316757D01*
X211588383Y-102316757D01*
X211593696Y-102318181D01*
X211804351Y-102336611D01*
X212015006Y-102318181D01*
X212020319Y-102316757D01*
X212020321Y-102316757D01*
X212213951Y-102264874D01*
X212213953Y-102264873D01*
X212219261Y-102263451D01*
X212225259Y-102260654D01*
X212405928Y-102176407D01*
X212405931Y-102176405D01*
X212410909Y-102174084D01*
X212462791Y-102137756D01*
X213288245Y-102137756D01*
X213297541Y-102149771D01*
X213327140Y-102170496D01*
X213336628Y-102175974D01*
X213518228Y-102260654D01*
X213528522Y-102264402D01*
X213722073Y-102316264D01*
X213732860Y-102318166D01*
X213932476Y-102335630D01*
X213943426Y-102335630D01*
X214143042Y-102318166D01*
X214153829Y-102316264D01*
X214347380Y-102264402D01*
X214357674Y-102260654D01*
X214539274Y-102175974D01*
X214548762Y-102170496D01*
X214579199Y-102149184D01*
X214587574Y-102138707D01*
X214580505Y-102125259D01*
X213950763Y-101495517D01*
X213936819Y-101487903D01*
X213934986Y-101488034D01*
X213928371Y-101492285D01*
X213294675Y-102125981D01*
X213288245Y-102137756D01*
X212462791Y-102137756D01*
X212584127Y-102052796D01*
X212733652Y-101903271D01*
X212788036Y-101825602D01*
X212843492Y-101781275D01*
X212904220Y-101772544D01*
X212920604Y-101774240D01*
X212936187Y-101766049D01*
X213565929Y-101136307D01*
X213572307Y-101124627D01*
X214302359Y-101124627D01*
X214302490Y-101126460D01*
X214306741Y-101133075D01*
X214940437Y-101766771D01*
X214952212Y-101773201D01*
X214964227Y-101763905D01*
X214984952Y-101734306D01*
X214990430Y-101724818D01*
X215075110Y-101543218D01*
X215078858Y-101532924D01*
X215130720Y-101339373D01*
X215132622Y-101328586D01*
X215150086Y-101128970D01*
X215150086Y-101123495D01*
X224688235Y-101123495D01*
X224706665Y-101334150D01*
X224708089Y-101339463D01*
X224708089Y-101339465D01*
X224715485Y-101367065D01*
X224761395Y-101538405D01*
X224850762Y-101730053D01*
X224972050Y-101903271D01*
X225121575Y-102052796D01*
X225294793Y-102174084D01*
X225299771Y-102176405D01*
X225299774Y-102176407D01*
X225480443Y-102260654D01*
X225486441Y-102263451D01*
X225491749Y-102264873D01*
X225491751Y-102264874D01*
X225685381Y-102316757D01*
X225685383Y-102316757D01*
X225690696Y-102318181D01*
X225901351Y-102336611D01*
X226112006Y-102318181D01*
X226117319Y-102316757D01*
X226117321Y-102316757D01*
X226310951Y-102264874D01*
X226310953Y-102264873D01*
X226316261Y-102263451D01*
X226322259Y-102260654D01*
X226502928Y-102176407D01*
X226502931Y-102176405D01*
X226507909Y-102174084D01*
X226559791Y-102137756D01*
X227385245Y-102137756D01*
X227394541Y-102149771D01*
X227424140Y-102170496D01*
X227433628Y-102175974D01*
X227615228Y-102260654D01*
X227625522Y-102264402D01*
X227819073Y-102316264D01*
X227829860Y-102318166D01*
X228029476Y-102335630D01*
X228040426Y-102335630D01*
X228240042Y-102318166D01*
X228250829Y-102316264D01*
X228444380Y-102264402D01*
X228454674Y-102260654D01*
X228636274Y-102175974D01*
X228645762Y-102170496D01*
X228676199Y-102149184D01*
X228684574Y-102138707D01*
X228677505Y-102125259D01*
X228047763Y-101495517D01*
X228033819Y-101487903D01*
X228031986Y-101488034D01*
X228025371Y-101492285D01*
X227391675Y-102125981D01*
X227385245Y-102137756D01*
X226559791Y-102137756D01*
X226681127Y-102052796D01*
X226830652Y-101903271D01*
X226885036Y-101825602D01*
X226940492Y-101781275D01*
X227001220Y-101772544D01*
X227017604Y-101774240D01*
X227033187Y-101766049D01*
X227662929Y-101136307D01*
X227669307Y-101124627D01*
X228399359Y-101124627D01*
X228399490Y-101126460D01*
X228403741Y-101133075D01*
X229037437Y-101766771D01*
X229049212Y-101773201D01*
X229061227Y-101763905D01*
X229081952Y-101734306D01*
X229087430Y-101724818D01*
X229172110Y-101543218D01*
X229175858Y-101532924D01*
X229227720Y-101339373D01*
X229229622Y-101328586D01*
X229247086Y-101128970D01*
X229247086Y-101118020D01*
X229229622Y-100918404D01*
X229227720Y-100907617D01*
X229208285Y-100835085D01*
X230147800Y-100835085D01*
X230152275Y-100850324D01*
X230153665Y-100851529D01*
X230161348Y-100853200D01*
X231233685Y-100853200D01*
X231248924Y-100848725D01*
X231250129Y-100847335D01*
X231251800Y-100839652D01*
X231251800Y-99767316D01*
X231247325Y-99752077D01*
X231245935Y-99750872D01*
X231238252Y-99749201D01*
X230611131Y-99749201D01*
X230604310Y-99749571D01*
X230553448Y-99755095D01*
X230538196Y-99758721D01*
X230417746Y-99803876D01*
X230402151Y-99812414D01*
X230300076Y-99888915D01*
X230287515Y-99901476D01*
X230211014Y-100003551D01*
X230202476Y-100019146D01*
X230157322Y-100139594D01*
X230153695Y-100154849D01*
X230148169Y-100205714D01*
X230147800Y-100212528D01*
X230147800Y-100835085D01*
X229208285Y-100835085D01*
X229175858Y-100714066D01*
X229172110Y-100703772D01*
X229087430Y-100522172D01*
X229081952Y-100512684D01*
X229060640Y-100482247D01*
X229050163Y-100473872D01*
X229036715Y-100480941D01*
X228406973Y-101110683D01*
X228399359Y-101124627D01*
X227669307Y-101124627D01*
X227670543Y-101122363D01*
X227670412Y-101120530D01*
X227666161Y-101113915D01*
X227032465Y-100480219D01*
X227018521Y-100472605D01*
X226996792Y-100474159D01*
X226927417Y-100459068D01*
X226884592Y-100420753D01*
X226830652Y-100343719D01*
X226681127Y-100194194D01*
X226507909Y-100072906D01*
X226502931Y-100070585D01*
X226502928Y-100070583D01*
X226392620Y-100019146D01*
X226324569Y-99987413D01*
X226271285Y-99940497D01*
X226251824Y-99872220D01*
X226272366Y-99804260D01*
X226324571Y-99759024D01*
X226502674Y-99675974D01*
X226512162Y-99670496D01*
X226542599Y-99649184D01*
X226550974Y-99638707D01*
X226543905Y-99625259D01*
X225914163Y-98995517D01*
X225900219Y-98987903D01*
X225898386Y-98988034D01*
X225891771Y-98992285D01*
X225258075Y-99625981D01*
X225251645Y-99637756D01*
X225260941Y-99649771D01*
X225290540Y-99670496D01*
X225300028Y-99675974D01*
X225478131Y-99759024D01*
X225531417Y-99805941D01*
X225550878Y-99874218D01*
X225530336Y-99942178D01*
X225478133Y-99987413D01*
X225410082Y-100019146D01*
X225299774Y-100070583D01*
X225299771Y-100070585D01*
X225294793Y-100072906D01*
X225121575Y-100194194D01*
X224972050Y-100343719D01*
X224850762Y-100516937D01*
X224761395Y-100708585D01*
X224759973Y-100713893D01*
X224759972Y-100713895D01*
X224708089Y-100907525D01*
X224706665Y-100912840D01*
X224688235Y-101123495D01*
X215150086Y-101123495D01*
X215150086Y-101118020D01*
X215132622Y-100918404D01*
X215130720Y-100907617D01*
X215078858Y-100714066D01*
X215075110Y-100703772D01*
X214990430Y-100522172D01*
X214984952Y-100512684D01*
X214963640Y-100482247D01*
X214953163Y-100473872D01*
X214939715Y-100480941D01*
X214309973Y-101110683D01*
X214302359Y-101124627D01*
X213572307Y-101124627D01*
X213573543Y-101122363D01*
X213573412Y-101120530D01*
X213569161Y-101113915D01*
X212935465Y-100480219D01*
X212921521Y-100472605D01*
X212899792Y-100474159D01*
X212830417Y-100459068D01*
X212787592Y-100420753D01*
X212733652Y-100343719D01*
X212584127Y-100194194D01*
X212410909Y-100072906D01*
X212405931Y-100070585D01*
X212405928Y-100070583D01*
X212295620Y-100019146D01*
X212227569Y-99987413D01*
X212174285Y-99940497D01*
X212154824Y-99872220D01*
X212175366Y-99804260D01*
X212227571Y-99759024D01*
X212405674Y-99675974D01*
X212415162Y-99670496D01*
X212445599Y-99649184D01*
X212453974Y-99638707D01*
X212446905Y-99625259D01*
X211817163Y-98995517D01*
X211803219Y-98987903D01*
X211801386Y-98988034D01*
X211794771Y-98992285D01*
X211161075Y-99625981D01*
X211154645Y-99637756D01*
X211163941Y-99649771D01*
X211193540Y-99670496D01*
X211203028Y-99675974D01*
X211381131Y-99759024D01*
X211434417Y-99805941D01*
X211453878Y-99874218D01*
X211433336Y-99942178D01*
X211381133Y-99987413D01*
X211313082Y-100019146D01*
X211202774Y-100070583D01*
X211202771Y-100070585D01*
X211197793Y-100072906D01*
X211024575Y-100194194D01*
X210875050Y-100343719D01*
X210753762Y-100516937D01*
X210664395Y-100708585D01*
X210662973Y-100713893D01*
X210662972Y-100713895D01*
X210611089Y-100907525D01*
X210609665Y-100912840D01*
X210591235Y-101123495D01*
X201053086Y-101123495D01*
X201053086Y-101118020D01*
X201035622Y-100918404D01*
X201033720Y-100907617D01*
X200981858Y-100714066D01*
X200978110Y-100703772D01*
X200893430Y-100522172D01*
X200887952Y-100512684D01*
X200866640Y-100482247D01*
X200856163Y-100473872D01*
X200842715Y-100480941D01*
X200212973Y-101110683D01*
X200205359Y-101124627D01*
X199475307Y-101124627D01*
X199476543Y-101122363D01*
X199476412Y-101120530D01*
X199472161Y-101113915D01*
X198838465Y-100480219D01*
X198824521Y-100472605D01*
X198802792Y-100474159D01*
X198733417Y-100459068D01*
X198690592Y-100420753D01*
X198636652Y-100343719D01*
X198487127Y-100194194D01*
X198313909Y-100072906D01*
X198308931Y-100070585D01*
X198308928Y-100070583D01*
X198198620Y-100019146D01*
X198130569Y-99987413D01*
X198077285Y-99940497D01*
X198057824Y-99872220D01*
X198078366Y-99804260D01*
X198130571Y-99759024D01*
X198308674Y-99675974D01*
X198318162Y-99670496D01*
X198348599Y-99649184D01*
X198356974Y-99638707D01*
X198349905Y-99625259D01*
X197720163Y-98995517D01*
X197706219Y-98987903D01*
X197704386Y-98988034D01*
X197697771Y-98992285D01*
X197064075Y-99625981D01*
X197057645Y-99637756D01*
X197066941Y-99649771D01*
X197096540Y-99670496D01*
X197106028Y-99675974D01*
X197284131Y-99759024D01*
X197337417Y-99805941D01*
X197356878Y-99874218D01*
X197336336Y-99942178D01*
X197284133Y-99987413D01*
X197216082Y-100019146D01*
X197105774Y-100070583D01*
X197105771Y-100070585D01*
X197100793Y-100072906D01*
X196927575Y-100194194D01*
X196778050Y-100343719D01*
X196656762Y-100516937D01*
X196567395Y-100708585D01*
X196565973Y-100713893D01*
X196565972Y-100713895D01*
X196514089Y-100907525D01*
X196512665Y-100912840D01*
X196494235Y-101123495D01*
X186956086Y-101123495D01*
X186956086Y-101118020D01*
X186938622Y-100918404D01*
X186936720Y-100907617D01*
X186884858Y-100714066D01*
X186881110Y-100703772D01*
X186796430Y-100522172D01*
X186790952Y-100512684D01*
X186769640Y-100482247D01*
X186759163Y-100473872D01*
X186745715Y-100480941D01*
X186115973Y-101110683D01*
X186108359Y-101124627D01*
X185378307Y-101124627D01*
X185379543Y-101122363D01*
X185379412Y-101120530D01*
X185375161Y-101113915D01*
X184741465Y-100480219D01*
X184727521Y-100472605D01*
X184705792Y-100474159D01*
X184636417Y-100459068D01*
X184593592Y-100420753D01*
X184539652Y-100343719D01*
X184390127Y-100194194D01*
X184216909Y-100072906D01*
X184211931Y-100070585D01*
X184211928Y-100070583D01*
X184101620Y-100019146D01*
X184033569Y-99987413D01*
X183980285Y-99940497D01*
X183960824Y-99872220D01*
X183981366Y-99804260D01*
X184033571Y-99759024D01*
X184211674Y-99675974D01*
X184221162Y-99670496D01*
X184251599Y-99649184D01*
X184259974Y-99638707D01*
X184252905Y-99625259D01*
X183623163Y-98995517D01*
X183609219Y-98987903D01*
X183607386Y-98988034D01*
X183600771Y-98992285D01*
X182967075Y-99625981D01*
X182960645Y-99637756D01*
X182969941Y-99649771D01*
X182999540Y-99670496D01*
X183009028Y-99675974D01*
X183187131Y-99759024D01*
X183240417Y-99805941D01*
X183259878Y-99874218D01*
X183239336Y-99942178D01*
X183187133Y-99987413D01*
X183119082Y-100019146D01*
X183008774Y-100070583D01*
X183008771Y-100070585D01*
X183003793Y-100072906D01*
X182830575Y-100194194D01*
X182681050Y-100343719D01*
X182559762Y-100516937D01*
X182470395Y-100708585D01*
X182468973Y-100713893D01*
X182468972Y-100713895D01*
X182417089Y-100907525D01*
X182415665Y-100912840D01*
X182397235Y-101123495D01*
X172859086Y-101123495D01*
X172859086Y-101118020D01*
X172841622Y-100918404D01*
X172839720Y-100907617D01*
X172787858Y-100714066D01*
X172784110Y-100703772D01*
X172699430Y-100522172D01*
X172693952Y-100512684D01*
X172672640Y-100482247D01*
X172662163Y-100473872D01*
X172648715Y-100480941D01*
X172018973Y-101110683D01*
X172011359Y-101124627D01*
X171281307Y-101124627D01*
X171282543Y-101122363D01*
X171282412Y-101120530D01*
X171278161Y-101113915D01*
X170644465Y-100480219D01*
X170630521Y-100472605D01*
X170608792Y-100474159D01*
X170539417Y-100459068D01*
X170496592Y-100420753D01*
X170442652Y-100343719D01*
X170293127Y-100194194D01*
X170119909Y-100072906D01*
X170114931Y-100070585D01*
X170114928Y-100070583D01*
X170004620Y-100019146D01*
X169936569Y-99987413D01*
X169883285Y-99940497D01*
X169863824Y-99872220D01*
X169884366Y-99804260D01*
X169936571Y-99759024D01*
X170114674Y-99675974D01*
X170124162Y-99670496D01*
X170154599Y-99649184D01*
X170162974Y-99638707D01*
X170155905Y-99625259D01*
X169526163Y-98995517D01*
X169512219Y-98987903D01*
X169510386Y-98988034D01*
X169503771Y-98992285D01*
X168870075Y-99625981D01*
X168863645Y-99637756D01*
X168872941Y-99649771D01*
X168902540Y-99670496D01*
X168912028Y-99675974D01*
X169090131Y-99759024D01*
X169143417Y-99805941D01*
X169162878Y-99874218D01*
X169142336Y-99942178D01*
X169090133Y-99987413D01*
X169022082Y-100019146D01*
X168911774Y-100070583D01*
X168911771Y-100070585D01*
X168906793Y-100072906D01*
X168733575Y-100194194D01*
X168584050Y-100343719D01*
X168462762Y-100516937D01*
X168373395Y-100708585D01*
X168371973Y-100713893D01*
X168371972Y-100713895D01*
X168320089Y-100907525D01*
X168318665Y-100912840D01*
X168300235Y-101123495D01*
X158762086Y-101123495D01*
X158762086Y-101118020D01*
X158744622Y-100918404D01*
X158742720Y-100907617D01*
X158690858Y-100714066D01*
X158687110Y-100703772D01*
X158602430Y-100522172D01*
X158596952Y-100512684D01*
X158575640Y-100482247D01*
X158565163Y-100473872D01*
X158551715Y-100480941D01*
X157921973Y-101110683D01*
X157914359Y-101124627D01*
X157184307Y-101124627D01*
X157185543Y-101122363D01*
X157185412Y-101120530D01*
X157181161Y-101113915D01*
X156547465Y-100480219D01*
X156533521Y-100472605D01*
X156511792Y-100474159D01*
X156442417Y-100459068D01*
X156399592Y-100420753D01*
X156345652Y-100343719D01*
X156196127Y-100194194D01*
X156022909Y-100072906D01*
X156017931Y-100070585D01*
X156017928Y-100070583D01*
X155907620Y-100019146D01*
X155839569Y-99987413D01*
X155786285Y-99940497D01*
X155766824Y-99872220D01*
X155787366Y-99804260D01*
X155839571Y-99759024D01*
X156017674Y-99675974D01*
X156027162Y-99670496D01*
X156057599Y-99649184D01*
X156065974Y-99638707D01*
X156058905Y-99625259D01*
X155429163Y-98995517D01*
X155415219Y-98987903D01*
X155413386Y-98988034D01*
X155406771Y-98992285D01*
X154773075Y-99625981D01*
X154766645Y-99637756D01*
X154775941Y-99649771D01*
X154805540Y-99670496D01*
X154815028Y-99675974D01*
X154993131Y-99759024D01*
X155046417Y-99805941D01*
X155065878Y-99874218D01*
X155045336Y-99942178D01*
X154993133Y-99987413D01*
X154925082Y-100019146D01*
X154814774Y-100070583D01*
X154814771Y-100070585D01*
X154809793Y-100072906D01*
X154636575Y-100194194D01*
X154487050Y-100343719D01*
X154365762Y-100516937D01*
X154276395Y-100708585D01*
X154274973Y-100713893D01*
X154274972Y-100713895D01*
X154223089Y-100907525D01*
X154221665Y-100912840D01*
X154203235Y-101123495D01*
X144665086Y-101123495D01*
X144665086Y-101118020D01*
X144647622Y-100918404D01*
X144645720Y-100907617D01*
X144593858Y-100714066D01*
X144590110Y-100703772D01*
X144505430Y-100522172D01*
X144499952Y-100512684D01*
X144478640Y-100482247D01*
X144468163Y-100473872D01*
X144454715Y-100480941D01*
X143824973Y-101110683D01*
X143817359Y-101124627D01*
X143087307Y-101124627D01*
X143088543Y-101122363D01*
X143088412Y-101120530D01*
X143084161Y-101113915D01*
X142450465Y-100480219D01*
X142436521Y-100472605D01*
X142414792Y-100474159D01*
X142345417Y-100459068D01*
X142302592Y-100420753D01*
X142248652Y-100343719D01*
X142099127Y-100194194D01*
X141925909Y-100072906D01*
X141920931Y-100070585D01*
X141920928Y-100070583D01*
X141810620Y-100019146D01*
X141742569Y-99987413D01*
X141689285Y-99940497D01*
X141669824Y-99872220D01*
X141690366Y-99804260D01*
X141742571Y-99759024D01*
X141920674Y-99675974D01*
X141930162Y-99670496D01*
X141960599Y-99649184D01*
X141968974Y-99638707D01*
X141961905Y-99625259D01*
X141332163Y-98995517D01*
X141318219Y-98987903D01*
X141316386Y-98988034D01*
X141309771Y-98992285D01*
X140676075Y-99625981D01*
X140669645Y-99637756D01*
X140678941Y-99649771D01*
X140708540Y-99670496D01*
X140718028Y-99675974D01*
X140896131Y-99759024D01*
X140949417Y-99805941D01*
X140968878Y-99874218D01*
X140948336Y-99942178D01*
X140896133Y-99987413D01*
X140828082Y-100019146D01*
X140717774Y-100070583D01*
X140717771Y-100070585D01*
X140712793Y-100072906D01*
X140539575Y-100194194D01*
X140390050Y-100343719D01*
X140268762Y-100516937D01*
X140179395Y-100708585D01*
X140177973Y-100713893D01*
X140177972Y-100713895D01*
X140126089Y-100907525D01*
X140124665Y-100912840D01*
X140106235Y-101123495D01*
X130568086Y-101123495D01*
X130568086Y-101118020D01*
X130550622Y-100918404D01*
X130548720Y-100907617D01*
X130496858Y-100714066D01*
X130493110Y-100703772D01*
X130408430Y-100522172D01*
X130402952Y-100512684D01*
X130381640Y-100482247D01*
X130371163Y-100473872D01*
X130357715Y-100480941D01*
X129727973Y-101110683D01*
X129720359Y-101124627D01*
X128990307Y-101124627D01*
X128991543Y-101122363D01*
X128991412Y-101120530D01*
X128987161Y-101113915D01*
X128353465Y-100480219D01*
X128339521Y-100472605D01*
X128317792Y-100474159D01*
X128248417Y-100459068D01*
X128205592Y-100420753D01*
X128151652Y-100343719D01*
X128002127Y-100194194D01*
X127828909Y-100072906D01*
X127823931Y-100070585D01*
X127823928Y-100070583D01*
X127713620Y-100019146D01*
X127645569Y-99987413D01*
X127592285Y-99940497D01*
X127572824Y-99872220D01*
X127593366Y-99804260D01*
X127645571Y-99759024D01*
X127823674Y-99675974D01*
X127833162Y-99670496D01*
X127863599Y-99649184D01*
X127871974Y-99638707D01*
X127864905Y-99625259D01*
X127235163Y-98995517D01*
X127221219Y-98987903D01*
X127219386Y-98988034D01*
X127212771Y-98992285D01*
X126579075Y-99625981D01*
X126572645Y-99637756D01*
X126581941Y-99649771D01*
X126611540Y-99670496D01*
X126621028Y-99675974D01*
X126799131Y-99759024D01*
X126852417Y-99805941D01*
X126871878Y-99874218D01*
X126851336Y-99942178D01*
X126799133Y-99987413D01*
X126731082Y-100019146D01*
X126620774Y-100070583D01*
X126620771Y-100070585D01*
X126615793Y-100072906D01*
X126442575Y-100194194D01*
X126293050Y-100343719D01*
X126171762Y-100516937D01*
X126082395Y-100708585D01*
X126080973Y-100713893D01*
X126080972Y-100713895D01*
X126029089Y-100907525D01*
X126027665Y-100912840D01*
X126009235Y-101123495D01*
X116471086Y-101123495D01*
X116471086Y-101118020D01*
X116453622Y-100918404D01*
X116451720Y-100907617D01*
X116399858Y-100714066D01*
X116396110Y-100703772D01*
X116311430Y-100522172D01*
X116305952Y-100512684D01*
X116284640Y-100482247D01*
X116274163Y-100473872D01*
X116260715Y-100480941D01*
X115630973Y-101110683D01*
X115623359Y-101124627D01*
X114893307Y-101124627D01*
X114894543Y-101122363D01*
X114894412Y-101120530D01*
X114890161Y-101113915D01*
X114256465Y-100480219D01*
X114242521Y-100472605D01*
X114220792Y-100474159D01*
X114151417Y-100459068D01*
X114108592Y-100420753D01*
X114054652Y-100343719D01*
X113905127Y-100194194D01*
X113731909Y-100072906D01*
X113726931Y-100070585D01*
X113726928Y-100070583D01*
X113616620Y-100019146D01*
X113548569Y-99987413D01*
X113495285Y-99940497D01*
X113475824Y-99872220D01*
X113496366Y-99804260D01*
X113548571Y-99759024D01*
X113726674Y-99675974D01*
X113736162Y-99670496D01*
X113766599Y-99649184D01*
X113774974Y-99638707D01*
X113767905Y-99625259D01*
X113138163Y-98995517D01*
X113124219Y-98987903D01*
X113122386Y-98988034D01*
X113115771Y-98992285D01*
X112482075Y-99625981D01*
X112475645Y-99637756D01*
X112484941Y-99649771D01*
X112514540Y-99670496D01*
X112524028Y-99675974D01*
X112702131Y-99759024D01*
X112755417Y-99805941D01*
X112774878Y-99874218D01*
X112754336Y-99942178D01*
X112702133Y-99987413D01*
X112634082Y-100019146D01*
X112523774Y-100070583D01*
X112523771Y-100070585D01*
X112518793Y-100072906D01*
X112345575Y-100194194D01*
X112196050Y-100343719D01*
X112074762Y-100516937D01*
X111985395Y-100708585D01*
X111983973Y-100713893D01*
X111983972Y-100713895D01*
X111932089Y-100907525D01*
X111930665Y-100912840D01*
X111912235Y-101123495D01*
X102374086Y-101123495D01*
X102374086Y-101118020D01*
X102356622Y-100918404D01*
X102354720Y-100907617D01*
X102302858Y-100714066D01*
X102299110Y-100703772D01*
X102214430Y-100522172D01*
X102208952Y-100512684D01*
X102187640Y-100482247D01*
X102177163Y-100473872D01*
X102163715Y-100480941D01*
X101533973Y-101110683D01*
X101526359Y-101124627D01*
X100796307Y-101124627D01*
X100797543Y-101122363D01*
X100797412Y-101120530D01*
X100793161Y-101113915D01*
X100159465Y-100480219D01*
X100145521Y-100472605D01*
X100123792Y-100474159D01*
X100054417Y-100459068D01*
X100011592Y-100420753D01*
X99957652Y-100343719D01*
X99808127Y-100194194D01*
X99634909Y-100072906D01*
X99629931Y-100070585D01*
X99629928Y-100070583D01*
X99519620Y-100019146D01*
X99451569Y-99987413D01*
X99398285Y-99940497D01*
X99378824Y-99872220D01*
X99399366Y-99804260D01*
X99451571Y-99759024D01*
X99629674Y-99675974D01*
X99639162Y-99670496D01*
X99669599Y-99649184D01*
X99677974Y-99638707D01*
X99670905Y-99625259D01*
X99041163Y-98995517D01*
X99027219Y-98987903D01*
X99025386Y-98988034D01*
X99018771Y-98992285D01*
X98385075Y-99625981D01*
X98378645Y-99637756D01*
X98387941Y-99649771D01*
X98417540Y-99670496D01*
X98427028Y-99675974D01*
X98605131Y-99759024D01*
X98658417Y-99805941D01*
X98677878Y-99874218D01*
X98657336Y-99942178D01*
X98605133Y-99987413D01*
X98537082Y-100019146D01*
X98426774Y-100070583D01*
X98426771Y-100070585D01*
X98421793Y-100072906D01*
X98248575Y-100194194D01*
X98099050Y-100343719D01*
X97977762Y-100516937D01*
X97888395Y-100708585D01*
X97886973Y-100713893D01*
X97886972Y-100713895D01*
X97835089Y-100907525D01*
X97833665Y-100912840D01*
X97815235Y-101123495D01*
X88277086Y-101123495D01*
X88277086Y-101118020D01*
X88259622Y-100918404D01*
X88257720Y-100907617D01*
X88205858Y-100714066D01*
X88202110Y-100703772D01*
X88117430Y-100522172D01*
X88111952Y-100512684D01*
X88090640Y-100482247D01*
X88080163Y-100473872D01*
X88066715Y-100480941D01*
X87436973Y-101110683D01*
X87429359Y-101124627D01*
X86699307Y-101124627D01*
X86700543Y-101122363D01*
X86700412Y-101120530D01*
X86696161Y-101113915D01*
X86062465Y-100480219D01*
X86048521Y-100472605D01*
X86026792Y-100474159D01*
X85957417Y-100459068D01*
X85914592Y-100420753D01*
X85860652Y-100343719D01*
X85711127Y-100194194D01*
X85537909Y-100072906D01*
X85532931Y-100070585D01*
X85532928Y-100070583D01*
X85422620Y-100019146D01*
X85354569Y-99987413D01*
X85301285Y-99940497D01*
X85281824Y-99872220D01*
X85302366Y-99804260D01*
X85354571Y-99759024D01*
X85532674Y-99675974D01*
X85542162Y-99670496D01*
X85572599Y-99649184D01*
X85580974Y-99638707D01*
X85573905Y-99625259D01*
X84944163Y-98995517D01*
X84930219Y-98987903D01*
X84928386Y-98988034D01*
X84921771Y-98992285D01*
X84288075Y-99625981D01*
X84281645Y-99637756D01*
X84290941Y-99649771D01*
X84320540Y-99670496D01*
X84330028Y-99675974D01*
X84508131Y-99759024D01*
X84561417Y-99805941D01*
X84580878Y-99874218D01*
X84560336Y-99942178D01*
X84508133Y-99987413D01*
X84440082Y-100019146D01*
X84329774Y-100070583D01*
X84329771Y-100070585D01*
X84324793Y-100072906D01*
X84151575Y-100194194D01*
X84002050Y-100343719D01*
X83880762Y-100516937D01*
X83791395Y-100708585D01*
X83789973Y-100713893D01*
X83789972Y-100713895D01*
X83738089Y-100907525D01*
X83736665Y-100912840D01*
X83718235Y-101123495D01*
X74180086Y-101123495D01*
X74180086Y-101118020D01*
X74162622Y-100918404D01*
X74160720Y-100907617D01*
X74108858Y-100714066D01*
X74105110Y-100703772D01*
X74020430Y-100522172D01*
X74014952Y-100512684D01*
X73993640Y-100482247D01*
X73983163Y-100473872D01*
X73969715Y-100480941D01*
X73339973Y-101110683D01*
X73332359Y-101124627D01*
X72602307Y-101124627D01*
X72603543Y-101122363D01*
X72603412Y-101120530D01*
X72599161Y-101113915D01*
X71965465Y-100480219D01*
X71951521Y-100472605D01*
X71929792Y-100474159D01*
X71860417Y-100459068D01*
X71817592Y-100420753D01*
X71763652Y-100343719D01*
X71614127Y-100194194D01*
X71440909Y-100072906D01*
X71435931Y-100070585D01*
X71435928Y-100070583D01*
X71325620Y-100019146D01*
X71257569Y-99987413D01*
X71204285Y-99940497D01*
X71184824Y-99872220D01*
X71205366Y-99804260D01*
X71257571Y-99759024D01*
X71435674Y-99675974D01*
X71445162Y-99670496D01*
X71475599Y-99649184D01*
X71483974Y-99638707D01*
X71476905Y-99625259D01*
X70847163Y-98995517D01*
X70833219Y-98987903D01*
X70831386Y-98988034D01*
X70824771Y-98992285D01*
X70191075Y-99625981D01*
X70184645Y-99637756D01*
X70193941Y-99649771D01*
X70223540Y-99670496D01*
X70233028Y-99675974D01*
X70411131Y-99759024D01*
X70464417Y-99805941D01*
X70483878Y-99874218D01*
X70463336Y-99942178D01*
X70411133Y-99987413D01*
X70343082Y-100019146D01*
X70232774Y-100070583D01*
X70232771Y-100070585D01*
X70227793Y-100072906D01*
X70054575Y-100194194D01*
X69905050Y-100343719D01*
X69783762Y-100516937D01*
X69694395Y-100708585D01*
X69692973Y-100713893D01*
X69692972Y-100713895D01*
X69641089Y-100907525D01*
X69639665Y-100912840D01*
X69621235Y-101123495D01*
X66913800Y-101123495D01*
X66913800Y-100835085D01*
X67421800Y-100835085D01*
X67426275Y-100850324D01*
X67427665Y-100851529D01*
X67435348Y-100853200D01*
X68507684Y-100853200D01*
X68522923Y-100848725D01*
X68524128Y-100847335D01*
X68525799Y-100839652D01*
X68525799Y-100212531D01*
X68525429Y-100205710D01*
X68519905Y-100154848D01*
X68516279Y-100139596D01*
X68471124Y-100019146D01*
X68462586Y-100003551D01*
X68386085Y-99901476D01*
X68373524Y-99888915D01*
X68271449Y-99812414D01*
X68255854Y-99803876D01*
X68135406Y-99758722D01*
X68120151Y-99755095D01*
X68069286Y-99749569D01*
X68062472Y-99749200D01*
X67439915Y-99749200D01*
X67424676Y-99753675D01*
X67423471Y-99755065D01*
X67421800Y-99762748D01*
X67421800Y-100835085D01*
X66913800Y-100835085D01*
X66913800Y-99767316D01*
X66909325Y-99752077D01*
X66907935Y-99750872D01*
X66900252Y-99749201D01*
X66273131Y-99749201D01*
X66266310Y-99749571D01*
X66215448Y-99755095D01*
X66200196Y-99758721D01*
X66071338Y-99807028D01*
X66070307Y-99804277D01*
X66015439Y-99816271D01*
X65948894Y-99791528D01*
X65906289Y-99734736D01*
X65898300Y-99690583D01*
X65898300Y-98628970D01*
X69622216Y-98628970D01*
X69639680Y-98828586D01*
X69641582Y-98839373D01*
X69693444Y-99032924D01*
X69697192Y-99043218D01*
X69781872Y-99224818D01*
X69787350Y-99234306D01*
X69808662Y-99264743D01*
X69819139Y-99273118D01*
X69832587Y-99266049D01*
X70462329Y-98636307D01*
X70468707Y-98624627D01*
X71198759Y-98624627D01*
X71198890Y-98626460D01*
X71203141Y-98633075D01*
X71836837Y-99266771D01*
X71850781Y-99274385D01*
X71872510Y-99272831D01*
X71941885Y-99287922D01*
X71984710Y-99326237D01*
X72038650Y-99403271D01*
X72188175Y-99552796D01*
X72361393Y-99674084D01*
X72366371Y-99676405D01*
X72366374Y-99676407D01*
X72396775Y-99690583D01*
X72544733Y-99759577D01*
X72598017Y-99806493D01*
X72617478Y-99874770D01*
X72596936Y-99942730D01*
X72544731Y-99987966D01*
X72366628Y-100071016D01*
X72357140Y-100076494D01*
X72326703Y-100097806D01*
X72318328Y-100108283D01*
X72325397Y-100121731D01*
X72955139Y-100751473D01*
X72969083Y-100759087D01*
X72970916Y-100758956D01*
X72977531Y-100754705D01*
X73611227Y-100121009D01*
X73617657Y-100109234D01*
X73608361Y-100097219D01*
X73578762Y-100076494D01*
X73569274Y-100071016D01*
X73391171Y-99987966D01*
X73337885Y-99941049D01*
X73318424Y-99872772D01*
X73338966Y-99804812D01*
X73391169Y-99759577D01*
X73539127Y-99690583D01*
X73569528Y-99676407D01*
X73569531Y-99676405D01*
X73574509Y-99674084D01*
X73747727Y-99552796D01*
X73897252Y-99403271D01*
X74018540Y-99230053D01*
X74107907Y-99038405D01*
X74162637Y-98834150D01*
X74180588Y-98628970D01*
X83719216Y-98628970D01*
X83736680Y-98828586D01*
X83738582Y-98839373D01*
X83790444Y-99032924D01*
X83794192Y-99043218D01*
X83878872Y-99224818D01*
X83884350Y-99234306D01*
X83905662Y-99264743D01*
X83916139Y-99273118D01*
X83929587Y-99266049D01*
X84559329Y-98636307D01*
X84565707Y-98624627D01*
X85295759Y-98624627D01*
X85295890Y-98626460D01*
X85300141Y-98633075D01*
X85933837Y-99266771D01*
X85947781Y-99274385D01*
X85969510Y-99272831D01*
X86038885Y-99287922D01*
X86081710Y-99326237D01*
X86135650Y-99403271D01*
X86285175Y-99552796D01*
X86458393Y-99674084D01*
X86463371Y-99676405D01*
X86463374Y-99676407D01*
X86493775Y-99690583D01*
X86641733Y-99759577D01*
X86695017Y-99806493D01*
X86714478Y-99874770D01*
X86693936Y-99942730D01*
X86641731Y-99987966D01*
X86463628Y-100071016D01*
X86454140Y-100076494D01*
X86423703Y-100097806D01*
X86415328Y-100108283D01*
X86422397Y-100121731D01*
X87052139Y-100751473D01*
X87066083Y-100759087D01*
X87067916Y-100758956D01*
X87074531Y-100754705D01*
X87708227Y-100121009D01*
X87714657Y-100109234D01*
X87705361Y-100097219D01*
X87675762Y-100076494D01*
X87666274Y-100071016D01*
X87488171Y-99987966D01*
X87434885Y-99941049D01*
X87415424Y-99872772D01*
X87435966Y-99804812D01*
X87488169Y-99759577D01*
X87636127Y-99690583D01*
X87666528Y-99676407D01*
X87666531Y-99676405D01*
X87671509Y-99674084D01*
X87844727Y-99552796D01*
X87994252Y-99403271D01*
X88115540Y-99230053D01*
X88204907Y-99038405D01*
X88259637Y-98834150D01*
X88277588Y-98628970D01*
X97816216Y-98628970D01*
X97833680Y-98828586D01*
X97835582Y-98839373D01*
X97887444Y-99032924D01*
X97891192Y-99043218D01*
X97975872Y-99224818D01*
X97981350Y-99234306D01*
X98002662Y-99264743D01*
X98013139Y-99273118D01*
X98026587Y-99266049D01*
X98656329Y-98636307D01*
X98662707Y-98624627D01*
X99392759Y-98624627D01*
X99392890Y-98626460D01*
X99397141Y-98633075D01*
X100030837Y-99266771D01*
X100044781Y-99274385D01*
X100066510Y-99272831D01*
X100135885Y-99287922D01*
X100178710Y-99326237D01*
X100232650Y-99403271D01*
X100382175Y-99552796D01*
X100555393Y-99674084D01*
X100560371Y-99676405D01*
X100560374Y-99676407D01*
X100590775Y-99690583D01*
X100738733Y-99759577D01*
X100792017Y-99806493D01*
X100811478Y-99874770D01*
X100790936Y-99942730D01*
X100738731Y-99987966D01*
X100560628Y-100071016D01*
X100551140Y-100076494D01*
X100520703Y-100097806D01*
X100512328Y-100108283D01*
X100519397Y-100121731D01*
X101149139Y-100751473D01*
X101163083Y-100759087D01*
X101164916Y-100758956D01*
X101171531Y-100754705D01*
X101805227Y-100121009D01*
X101811657Y-100109234D01*
X101802361Y-100097219D01*
X101772762Y-100076494D01*
X101763274Y-100071016D01*
X101585171Y-99987966D01*
X101531885Y-99941049D01*
X101512424Y-99872772D01*
X101532966Y-99804812D01*
X101585169Y-99759577D01*
X101733127Y-99690583D01*
X101763528Y-99676407D01*
X101763531Y-99676405D01*
X101768509Y-99674084D01*
X101941727Y-99552796D01*
X102091252Y-99403271D01*
X102212540Y-99230053D01*
X102301907Y-99038405D01*
X102356637Y-98834150D01*
X102374588Y-98628970D01*
X111913216Y-98628970D01*
X111930680Y-98828586D01*
X111932582Y-98839373D01*
X111984444Y-99032924D01*
X111988192Y-99043218D01*
X112072872Y-99224818D01*
X112078350Y-99234306D01*
X112099662Y-99264743D01*
X112110139Y-99273118D01*
X112123587Y-99266049D01*
X112753329Y-98636307D01*
X112759707Y-98624627D01*
X113489759Y-98624627D01*
X113489890Y-98626460D01*
X113494141Y-98633075D01*
X114127837Y-99266771D01*
X114141781Y-99274385D01*
X114163510Y-99272831D01*
X114232885Y-99287922D01*
X114275710Y-99326237D01*
X114329650Y-99403271D01*
X114479175Y-99552796D01*
X114652393Y-99674084D01*
X114657371Y-99676405D01*
X114657374Y-99676407D01*
X114687775Y-99690583D01*
X114835733Y-99759577D01*
X114889017Y-99806493D01*
X114908478Y-99874770D01*
X114887936Y-99942730D01*
X114835731Y-99987966D01*
X114657628Y-100071016D01*
X114648140Y-100076494D01*
X114617703Y-100097806D01*
X114609328Y-100108283D01*
X114616397Y-100121731D01*
X115246139Y-100751473D01*
X115260083Y-100759087D01*
X115261916Y-100758956D01*
X115268531Y-100754705D01*
X115902227Y-100121009D01*
X115908657Y-100109234D01*
X115899361Y-100097219D01*
X115869762Y-100076494D01*
X115860274Y-100071016D01*
X115682171Y-99987966D01*
X115628885Y-99941049D01*
X115609424Y-99872772D01*
X115629966Y-99804812D01*
X115682169Y-99759577D01*
X115830127Y-99690583D01*
X115860528Y-99676407D01*
X115860531Y-99676405D01*
X115865509Y-99674084D01*
X116038727Y-99552796D01*
X116188252Y-99403271D01*
X116309540Y-99230053D01*
X116398907Y-99038405D01*
X116453637Y-98834150D01*
X116471588Y-98628970D01*
X126010216Y-98628970D01*
X126027680Y-98828586D01*
X126029582Y-98839373D01*
X126081444Y-99032924D01*
X126085192Y-99043218D01*
X126169872Y-99224818D01*
X126175350Y-99234306D01*
X126196662Y-99264743D01*
X126207139Y-99273118D01*
X126220587Y-99266049D01*
X126850329Y-98636307D01*
X126856707Y-98624627D01*
X127586759Y-98624627D01*
X127586890Y-98626460D01*
X127591141Y-98633075D01*
X128224837Y-99266771D01*
X128238781Y-99274385D01*
X128260510Y-99272831D01*
X128329885Y-99287922D01*
X128372710Y-99326237D01*
X128426650Y-99403271D01*
X128576175Y-99552796D01*
X128749393Y-99674084D01*
X128754371Y-99676405D01*
X128754374Y-99676407D01*
X128784775Y-99690583D01*
X128932733Y-99759577D01*
X128986017Y-99806493D01*
X129005478Y-99874770D01*
X128984936Y-99942730D01*
X128932731Y-99987966D01*
X128754628Y-100071016D01*
X128745140Y-100076494D01*
X128714703Y-100097806D01*
X128706328Y-100108283D01*
X128713397Y-100121731D01*
X129343139Y-100751473D01*
X129357083Y-100759087D01*
X129358916Y-100758956D01*
X129365531Y-100754705D01*
X129999227Y-100121009D01*
X130005657Y-100109234D01*
X129996361Y-100097219D01*
X129966762Y-100076494D01*
X129957274Y-100071016D01*
X129779171Y-99987966D01*
X129725885Y-99941049D01*
X129706424Y-99872772D01*
X129726966Y-99804812D01*
X129779169Y-99759577D01*
X129927127Y-99690583D01*
X129957528Y-99676407D01*
X129957531Y-99676405D01*
X129962509Y-99674084D01*
X130135727Y-99552796D01*
X130285252Y-99403271D01*
X130406540Y-99230053D01*
X130495907Y-99038405D01*
X130550637Y-98834150D01*
X130568588Y-98628970D01*
X140107216Y-98628970D01*
X140124680Y-98828586D01*
X140126582Y-98839373D01*
X140178444Y-99032924D01*
X140182192Y-99043218D01*
X140266872Y-99224818D01*
X140272350Y-99234306D01*
X140293662Y-99264743D01*
X140304139Y-99273118D01*
X140317587Y-99266049D01*
X140947329Y-98636307D01*
X140953707Y-98624627D01*
X141683759Y-98624627D01*
X141683890Y-98626460D01*
X141688141Y-98633075D01*
X142321837Y-99266771D01*
X142335781Y-99274385D01*
X142357510Y-99272831D01*
X142426885Y-99287922D01*
X142469710Y-99326237D01*
X142523650Y-99403271D01*
X142673175Y-99552796D01*
X142846393Y-99674084D01*
X142851371Y-99676405D01*
X142851374Y-99676407D01*
X142881775Y-99690583D01*
X143029733Y-99759577D01*
X143083017Y-99806493D01*
X143102478Y-99874770D01*
X143081936Y-99942730D01*
X143029731Y-99987966D01*
X142851628Y-100071016D01*
X142842140Y-100076494D01*
X142811703Y-100097806D01*
X142803328Y-100108283D01*
X142810397Y-100121731D01*
X143440139Y-100751473D01*
X143454083Y-100759087D01*
X143455916Y-100758956D01*
X143462531Y-100754705D01*
X144096227Y-100121009D01*
X144102657Y-100109234D01*
X144093361Y-100097219D01*
X144063762Y-100076494D01*
X144054274Y-100071016D01*
X143876171Y-99987966D01*
X143822885Y-99941049D01*
X143803424Y-99872772D01*
X143823966Y-99804812D01*
X143876169Y-99759577D01*
X144024127Y-99690583D01*
X144054528Y-99676407D01*
X144054531Y-99676405D01*
X144059509Y-99674084D01*
X144232727Y-99552796D01*
X144382252Y-99403271D01*
X144503540Y-99230053D01*
X144592907Y-99038405D01*
X144647637Y-98834150D01*
X144665588Y-98628970D01*
X154204216Y-98628970D01*
X154221680Y-98828586D01*
X154223582Y-98839373D01*
X154275444Y-99032924D01*
X154279192Y-99043218D01*
X154363872Y-99224818D01*
X154369350Y-99234306D01*
X154390662Y-99264743D01*
X154401139Y-99273118D01*
X154414587Y-99266049D01*
X155044329Y-98636307D01*
X155050707Y-98624627D01*
X155780759Y-98624627D01*
X155780890Y-98626460D01*
X155785141Y-98633075D01*
X156418837Y-99266771D01*
X156432781Y-99274385D01*
X156454510Y-99272831D01*
X156523885Y-99287922D01*
X156566710Y-99326237D01*
X156620650Y-99403271D01*
X156770175Y-99552796D01*
X156943393Y-99674084D01*
X156948371Y-99676405D01*
X156948374Y-99676407D01*
X156978775Y-99690583D01*
X157126733Y-99759577D01*
X157180017Y-99806493D01*
X157199478Y-99874770D01*
X157178936Y-99942730D01*
X157126731Y-99987966D01*
X156948628Y-100071016D01*
X156939140Y-100076494D01*
X156908703Y-100097806D01*
X156900328Y-100108283D01*
X156907397Y-100121731D01*
X157537139Y-100751473D01*
X157551083Y-100759087D01*
X157552916Y-100758956D01*
X157559531Y-100754705D01*
X158193227Y-100121009D01*
X158199657Y-100109234D01*
X158190361Y-100097219D01*
X158160762Y-100076494D01*
X158151274Y-100071016D01*
X157973171Y-99987966D01*
X157919885Y-99941049D01*
X157900424Y-99872772D01*
X157920966Y-99804812D01*
X157973169Y-99759577D01*
X158121127Y-99690583D01*
X158151528Y-99676407D01*
X158151531Y-99676405D01*
X158156509Y-99674084D01*
X158329727Y-99552796D01*
X158479252Y-99403271D01*
X158600540Y-99230053D01*
X158689907Y-99038405D01*
X158744637Y-98834150D01*
X158762588Y-98628970D01*
X168301216Y-98628970D01*
X168318680Y-98828586D01*
X168320582Y-98839373D01*
X168372444Y-99032924D01*
X168376192Y-99043218D01*
X168460872Y-99224818D01*
X168466350Y-99234306D01*
X168487662Y-99264743D01*
X168498139Y-99273118D01*
X168511587Y-99266049D01*
X169141329Y-98636307D01*
X169147707Y-98624627D01*
X169877759Y-98624627D01*
X169877890Y-98626460D01*
X169882141Y-98633075D01*
X170515837Y-99266771D01*
X170529781Y-99274385D01*
X170551510Y-99272831D01*
X170620885Y-99287922D01*
X170663710Y-99326237D01*
X170717650Y-99403271D01*
X170867175Y-99552796D01*
X171040393Y-99674084D01*
X171045371Y-99676405D01*
X171045374Y-99676407D01*
X171075775Y-99690583D01*
X171223733Y-99759577D01*
X171277017Y-99806493D01*
X171296478Y-99874770D01*
X171275936Y-99942730D01*
X171223731Y-99987966D01*
X171045628Y-100071016D01*
X171036140Y-100076494D01*
X171005703Y-100097806D01*
X170997328Y-100108283D01*
X171004397Y-100121731D01*
X171634139Y-100751473D01*
X171648083Y-100759087D01*
X171649916Y-100758956D01*
X171656531Y-100754705D01*
X172290227Y-100121009D01*
X172296657Y-100109234D01*
X172287361Y-100097219D01*
X172257762Y-100076494D01*
X172248274Y-100071016D01*
X172070171Y-99987966D01*
X172016885Y-99941049D01*
X171997424Y-99872772D01*
X172017966Y-99804812D01*
X172070169Y-99759577D01*
X172218127Y-99690583D01*
X172248528Y-99676407D01*
X172248531Y-99676405D01*
X172253509Y-99674084D01*
X172426727Y-99552796D01*
X172576252Y-99403271D01*
X172697540Y-99230053D01*
X172786907Y-99038405D01*
X172841637Y-98834150D01*
X172859588Y-98628970D01*
X182398216Y-98628970D01*
X182415680Y-98828586D01*
X182417582Y-98839373D01*
X182469444Y-99032924D01*
X182473192Y-99043218D01*
X182557872Y-99224818D01*
X182563350Y-99234306D01*
X182584662Y-99264743D01*
X182595139Y-99273118D01*
X182608587Y-99266049D01*
X183238329Y-98636307D01*
X183244707Y-98624627D01*
X183974759Y-98624627D01*
X183974890Y-98626460D01*
X183979141Y-98633075D01*
X184612837Y-99266771D01*
X184626781Y-99274385D01*
X184648510Y-99272831D01*
X184717885Y-99287922D01*
X184760710Y-99326237D01*
X184814650Y-99403271D01*
X184964175Y-99552796D01*
X185137393Y-99674084D01*
X185142371Y-99676405D01*
X185142374Y-99676407D01*
X185172775Y-99690583D01*
X185320733Y-99759577D01*
X185374017Y-99806493D01*
X185393478Y-99874770D01*
X185372936Y-99942730D01*
X185320731Y-99987966D01*
X185142628Y-100071016D01*
X185133140Y-100076494D01*
X185102703Y-100097806D01*
X185094328Y-100108283D01*
X185101397Y-100121731D01*
X185731139Y-100751473D01*
X185745083Y-100759087D01*
X185746916Y-100758956D01*
X185753531Y-100754705D01*
X186387227Y-100121009D01*
X186393657Y-100109234D01*
X186384361Y-100097219D01*
X186354762Y-100076494D01*
X186345274Y-100071016D01*
X186167171Y-99987966D01*
X186113885Y-99941049D01*
X186094424Y-99872772D01*
X186114966Y-99804812D01*
X186167169Y-99759577D01*
X186315127Y-99690583D01*
X186345528Y-99676407D01*
X186345531Y-99676405D01*
X186350509Y-99674084D01*
X186523727Y-99552796D01*
X186673252Y-99403271D01*
X186794540Y-99230053D01*
X186883907Y-99038405D01*
X186938637Y-98834150D01*
X186956588Y-98628970D01*
X196495216Y-98628970D01*
X196512680Y-98828586D01*
X196514582Y-98839373D01*
X196566444Y-99032924D01*
X196570192Y-99043218D01*
X196654872Y-99224818D01*
X196660350Y-99234306D01*
X196681662Y-99264743D01*
X196692139Y-99273118D01*
X196705587Y-99266049D01*
X197335329Y-98636307D01*
X197341707Y-98624627D01*
X198071759Y-98624627D01*
X198071890Y-98626460D01*
X198076141Y-98633075D01*
X198709837Y-99266771D01*
X198723781Y-99274385D01*
X198745510Y-99272831D01*
X198814885Y-99287922D01*
X198857710Y-99326237D01*
X198911650Y-99403271D01*
X199061175Y-99552796D01*
X199234393Y-99674084D01*
X199239371Y-99676405D01*
X199239374Y-99676407D01*
X199269775Y-99690583D01*
X199417733Y-99759577D01*
X199471017Y-99806493D01*
X199490478Y-99874770D01*
X199469936Y-99942730D01*
X199417731Y-99987966D01*
X199239628Y-100071016D01*
X199230140Y-100076494D01*
X199199703Y-100097806D01*
X199191328Y-100108283D01*
X199198397Y-100121731D01*
X199828139Y-100751473D01*
X199842083Y-100759087D01*
X199843916Y-100758956D01*
X199850531Y-100754705D01*
X200484227Y-100121009D01*
X200490657Y-100109234D01*
X200481361Y-100097219D01*
X200451762Y-100076494D01*
X200442274Y-100071016D01*
X200264171Y-99987966D01*
X200210885Y-99941049D01*
X200191424Y-99872772D01*
X200211966Y-99804812D01*
X200264169Y-99759577D01*
X200412127Y-99690583D01*
X200442528Y-99676407D01*
X200442531Y-99676405D01*
X200447509Y-99674084D01*
X200620727Y-99552796D01*
X200770252Y-99403271D01*
X200891540Y-99230053D01*
X200980907Y-99038405D01*
X201035637Y-98834150D01*
X201053588Y-98628970D01*
X210592216Y-98628970D01*
X210609680Y-98828586D01*
X210611582Y-98839373D01*
X210663444Y-99032924D01*
X210667192Y-99043218D01*
X210751872Y-99224818D01*
X210757350Y-99234306D01*
X210778662Y-99264743D01*
X210789139Y-99273118D01*
X210802587Y-99266049D01*
X211432329Y-98636307D01*
X211438707Y-98624627D01*
X212168759Y-98624627D01*
X212168890Y-98626460D01*
X212173141Y-98633075D01*
X212806837Y-99266771D01*
X212820781Y-99274385D01*
X212842510Y-99272831D01*
X212911885Y-99287922D01*
X212954710Y-99326237D01*
X213008650Y-99403271D01*
X213158175Y-99552796D01*
X213331393Y-99674084D01*
X213336371Y-99676405D01*
X213336374Y-99676407D01*
X213366775Y-99690583D01*
X213514733Y-99759577D01*
X213568017Y-99806493D01*
X213587478Y-99874770D01*
X213566936Y-99942730D01*
X213514731Y-99987966D01*
X213336628Y-100071016D01*
X213327140Y-100076494D01*
X213296703Y-100097806D01*
X213288328Y-100108283D01*
X213295397Y-100121731D01*
X213925139Y-100751473D01*
X213939083Y-100759087D01*
X213940916Y-100758956D01*
X213947531Y-100754705D01*
X214581227Y-100121009D01*
X214587657Y-100109234D01*
X214578361Y-100097219D01*
X214548762Y-100076494D01*
X214539274Y-100071016D01*
X214361171Y-99987966D01*
X214307885Y-99941049D01*
X214288424Y-99872772D01*
X214308966Y-99804812D01*
X214361169Y-99759577D01*
X214509127Y-99690583D01*
X214539528Y-99676407D01*
X214539531Y-99676405D01*
X214544509Y-99674084D01*
X214717727Y-99552796D01*
X214867252Y-99403271D01*
X214988540Y-99230053D01*
X215077907Y-99038405D01*
X215132637Y-98834150D01*
X215150588Y-98628970D01*
X224689216Y-98628970D01*
X224706680Y-98828586D01*
X224708582Y-98839373D01*
X224760444Y-99032924D01*
X224764192Y-99043218D01*
X224848872Y-99224818D01*
X224854350Y-99234306D01*
X224875662Y-99264743D01*
X224886139Y-99273118D01*
X224899587Y-99266049D01*
X225529329Y-98636307D01*
X225535707Y-98624627D01*
X226265759Y-98624627D01*
X226265890Y-98626460D01*
X226270141Y-98633075D01*
X226903837Y-99266771D01*
X226917781Y-99274385D01*
X226939510Y-99272831D01*
X227008885Y-99287922D01*
X227051710Y-99326237D01*
X227105650Y-99403271D01*
X227255175Y-99552796D01*
X227428393Y-99674084D01*
X227433371Y-99676405D01*
X227433374Y-99676407D01*
X227463775Y-99690583D01*
X227611733Y-99759577D01*
X227665017Y-99806493D01*
X227684478Y-99874770D01*
X227663936Y-99942730D01*
X227611731Y-99987966D01*
X227433628Y-100071016D01*
X227424140Y-100076494D01*
X227393703Y-100097806D01*
X227385328Y-100108283D01*
X227392397Y-100121731D01*
X228022139Y-100751473D01*
X228036083Y-100759087D01*
X228037916Y-100758956D01*
X228044531Y-100754705D01*
X228678227Y-100121009D01*
X228684657Y-100109234D01*
X228675361Y-100097219D01*
X228645762Y-100076494D01*
X228636274Y-100071016D01*
X228458171Y-99987966D01*
X228404885Y-99941049D01*
X228385424Y-99872772D01*
X228405966Y-99804812D01*
X228458169Y-99759577D01*
X228606127Y-99690583D01*
X228636528Y-99676407D01*
X228636531Y-99676405D01*
X228641509Y-99674084D01*
X228814727Y-99552796D01*
X228964252Y-99403271D01*
X229085540Y-99230053D01*
X229174907Y-99038405D01*
X229229637Y-98834150D01*
X229248067Y-98623495D01*
X229229637Y-98412840D01*
X229174907Y-98208585D01*
X229085540Y-98016937D01*
X228964252Y-97843719D01*
X228814727Y-97694194D01*
X228641509Y-97572906D01*
X228636531Y-97570585D01*
X228636528Y-97570583D01*
X228454843Y-97485862D01*
X228454842Y-97485861D01*
X228449861Y-97483539D01*
X228444553Y-97482117D01*
X228444551Y-97482116D01*
X228250921Y-97430233D01*
X228250919Y-97430233D01*
X228245606Y-97428809D01*
X228034951Y-97410379D01*
X227824296Y-97428809D01*
X227818983Y-97430233D01*
X227818981Y-97430233D01*
X227625351Y-97482116D01*
X227625349Y-97482117D01*
X227620041Y-97483539D01*
X227615060Y-97485861D01*
X227615059Y-97485862D01*
X227433374Y-97570583D01*
X227433371Y-97570585D01*
X227428393Y-97572906D01*
X227255175Y-97694194D01*
X227105650Y-97843719D01*
X227102491Y-97848231D01*
X227051267Y-97921387D01*
X226995810Y-97965715D01*
X226935082Y-97974446D01*
X226918698Y-97972750D01*
X226903115Y-97980941D01*
X226273373Y-98610683D01*
X226265759Y-98624627D01*
X225535707Y-98624627D01*
X225536943Y-98622363D01*
X225536812Y-98620530D01*
X225532561Y-98613915D01*
X224898865Y-97980219D01*
X224887090Y-97973789D01*
X224875075Y-97983085D01*
X224854350Y-98012684D01*
X224848872Y-98022172D01*
X224764192Y-98203772D01*
X224760444Y-98214066D01*
X224708582Y-98407617D01*
X224706680Y-98418404D01*
X224689216Y-98618020D01*
X224689216Y-98628970D01*
X215150588Y-98628970D01*
X215151067Y-98623495D01*
X215132637Y-98412840D01*
X215077907Y-98208585D01*
X214988540Y-98016937D01*
X214867252Y-97843719D01*
X214717727Y-97694194D01*
X214595033Y-97608283D01*
X225251728Y-97608283D01*
X225258797Y-97621731D01*
X225888539Y-98251473D01*
X225902483Y-98259087D01*
X225904316Y-98258956D01*
X225910931Y-98254705D01*
X226544627Y-97621009D01*
X226551057Y-97609234D01*
X226541761Y-97597219D01*
X226512162Y-97576494D01*
X226502674Y-97571016D01*
X226321074Y-97486336D01*
X226310780Y-97482588D01*
X226117229Y-97430726D01*
X226106442Y-97428824D01*
X225906826Y-97411360D01*
X225895876Y-97411360D01*
X225696260Y-97428824D01*
X225685473Y-97430726D01*
X225491922Y-97482588D01*
X225481628Y-97486336D01*
X225300028Y-97571016D01*
X225290540Y-97576494D01*
X225260103Y-97597806D01*
X225251728Y-97608283D01*
X214595033Y-97608283D01*
X214544509Y-97572906D01*
X214539531Y-97570585D01*
X214539528Y-97570583D01*
X214357843Y-97485862D01*
X214357842Y-97485861D01*
X214352861Y-97483539D01*
X214347553Y-97482117D01*
X214347551Y-97482116D01*
X214153921Y-97430233D01*
X214153919Y-97430233D01*
X214148606Y-97428809D01*
X213937951Y-97410379D01*
X213727296Y-97428809D01*
X213721983Y-97430233D01*
X213721981Y-97430233D01*
X213528351Y-97482116D01*
X213528349Y-97482117D01*
X213523041Y-97483539D01*
X213518060Y-97485861D01*
X213518059Y-97485862D01*
X213336374Y-97570583D01*
X213336371Y-97570585D01*
X213331393Y-97572906D01*
X213158175Y-97694194D01*
X213008650Y-97843719D01*
X213005491Y-97848231D01*
X212954267Y-97921387D01*
X212898810Y-97965715D01*
X212838082Y-97974446D01*
X212821698Y-97972750D01*
X212806115Y-97980941D01*
X212176373Y-98610683D01*
X212168759Y-98624627D01*
X211438707Y-98624627D01*
X211439943Y-98622363D01*
X211439812Y-98620530D01*
X211435561Y-98613915D01*
X210801865Y-97980219D01*
X210790090Y-97973789D01*
X210778075Y-97983085D01*
X210757350Y-98012684D01*
X210751872Y-98022172D01*
X210667192Y-98203772D01*
X210663444Y-98214066D01*
X210611582Y-98407617D01*
X210609680Y-98418404D01*
X210592216Y-98618020D01*
X210592216Y-98628970D01*
X201053588Y-98628970D01*
X201054067Y-98623495D01*
X201035637Y-98412840D01*
X200980907Y-98208585D01*
X200891540Y-98016937D01*
X200770252Y-97843719D01*
X200620727Y-97694194D01*
X200498033Y-97608283D01*
X211154728Y-97608283D01*
X211161797Y-97621731D01*
X211791539Y-98251473D01*
X211805483Y-98259087D01*
X211807316Y-98258956D01*
X211813931Y-98254705D01*
X212447627Y-97621009D01*
X212454057Y-97609234D01*
X212444761Y-97597219D01*
X212415162Y-97576494D01*
X212405674Y-97571016D01*
X212224074Y-97486336D01*
X212213780Y-97482588D01*
X212020229Y-97430726D01*
X212009442Y-97428824D01*
X211809826Y-97411360D01*
X211798876Y-97411360D01*
X211599260Y-97428824D01*
X211588473Y-97430726D01*
X211394922Y-97482588D01*
X211384628Y-97486336D01*
X211203028Y-97571016D01*
X211193540Y-97576494D01*
X211163103Y-97597806D01*
X211154728Y-97608283D01*
X200498033Y-97608283D01*
X200447509Y-97572906D01*
X200442531Y-97570585D01*
X200442528Y-97570583D01*
X200260843Y-97485862D01*
X200260842Y-97485861D01*
X200255861Y-97483539D01*
X200250553Y-97482117D01*
X200250551Y-97482116D01*
X200056921Y-97430233D01*
X200056919Y-97430233D01*
X200051606Y-97428809D01*
X199840951Y-97410379D01*
X199630296Y-97428809D01*
X199624983Y-97430233D01*
X199624981Y-97430233D01*
X199431351Y-97482116D01*
X199431349Y-97482117D01*
X199426041Y-97483539D01*
X199421060Y-97485861D01*
X199421059Y-97485862D01*
X199239374Y-97570583D01*
X199239371Y-97570585D01*
X199234393Y-97572906D01*
X199061175Y-97694194D01*
X198911650Y-97843719D01*
X198908491Y-97848231D01*
X198857267Y-97921387D01*
X198801810Y-97965715D01*
X198741082Y-97974446D01*
X198724698Y-97972750D01*
X198709115Y-97980941D01*
X198079373Y-98610683D01*
X198071759Y-98624627D01*
X197341707Y-98624627D01*
X197342943Y-98622363D01*
X197342812Y-98620530D01*
X197338561Y-98613915D01*
X196704865Y-97980219D01*
X196693090Y-97973789D01*
X196681075Y-97983085D01*
X196660350Y-98012684D01*
X196654872Y-98022172D01*
X196570192Y-98203772D01*
X196566444Y-98214066D01*
X196514582Y-98407617D01*
X196512680Y-98418404D01*
X196495216Y-98618020D01*
X196495216Y-98628970D01*
X186956588Y-98628970D01*
X186957067Y-98623495D01*
X186938637Y-98412840D01*
X186883907Y-98208585D01*
X186794540Y-98016937D01*
X186673252Y-97843719D01*
X186523727Y-97694194D01*
X186401033Y-97608283D01*
X197057728Y-97608283D01*
X197064797Y-97621731D01*
X197694539Y-98251473D01*
X197708483Y-98259087D01*
X197710316Y-98258956D01*
X197716931Y-98254705D01*
X198350627Y-97621009D01*
X198357057Y-97609234D01*
X198347761Y-97597219D01*
X198318162Y-97576494D01*
X198308674Y-97571016D01*
X198127074Y-97486336D01*
X198116780Y-97482588D01*
X197923229Y-97430726D01*
X197912442Y-97428824D01*
X197712826Y-97411360D01*
X197701876Y-97411360D01*
X197502260Y-97428824D01*
X197491473Y-97430726D01*
X197297922Y-97482588D01*
X197287628Y-97486336D01*
X197106028Y-97571016D01*
X197096540Y-97576494D01*
X197066103Y-97597806D01*
X197057728Y-97608283D01*
X186401033Y-97608283D01*
X186350509Y-97572906D01*
X186345531Y-97570585D01*
X186345528Y-97570583D01*
X186163843Y-97485862D01*
X186163842Y-97485861D01*
X186158861Y-97483539D01*
X186153553Y-97482117D01*
X186153551Y-97482116D01*
X185959921Y-97430233D01*
X185959919Y-97430233D01*
X185954606Y-97428809D01*
X185743951Y-97410379D01*
X185533296Y-97428809D01*
X185527983Y-97430233D01*
X185527981Y-97430233D01*
X185334351Y-97482116D01*
X185334349Y-97482117D01*
X185329041Y-97483539D01*
X185324060Y-97485861D01*
X185324059Y-97485862D01*
X185142374Y-97570583D01*
X185142371Y-97570585D01*
X185137393Y-97572906D01*
X184964175Y-97694194D01*
X184814650Y-97843719D01*
X184811491Y-97848231D01*
X184760267Y-97921387D01*
X184704810Y-97965715D01*
X184644082Y-97974446D01*
X184627698Y-97972750D01*
X184612115Y-97980941D01*
X183982373Y-98610683D01*
X183974759Y-98624627D01*
X183244707Y-98624627D01*
X183245943Y-98622363D01*
X183245812Y-98620530D01*
X183241561Y-98613915D01*
X182607865Y-97980219D01*
X182596090Y-97973789D01*
X182584075Y-97983085D01*
X182563350Y-98012684D01*
X182557872Y-98022172D01*
X182473192Y-98203772D01*
X182469444Y-98214066D01*
X182417582Y-98407617D01*
X182415680Y-98418404D01*
X182398216Y-98618020D01*
X182398216Y-98628970D01*
X172859588Y-98628970D01*
X172860067Y-98623495D01*
X172841637Y-98412840D01*
X172786907Y-98208585D01*
X172697540Y-98016937D01*
X172576252Y-97843719D01*
X172426727Y-97694194D01*
X172304033Y-97608283D01*
X182960728Y-97608283D01*
X182967797Y-97621731D01*
X183597539Y-98251473D01*
X183611483Y-98259087D01*
X183613316Y-98258956D01*
X183619931Y-98254705D01*
X184253627Y-97621009D01*
X184260057Y-97609234D01*
X184250761Y-97597219D01*
X184221162Y-97576494D01*
X184211674Y-97571016D01*
X184030074Y-97486336D01*
X184019780Y-97482588D01*
X183826229Y-97430726D01*
X183815442Y-97428824D01*
X183615826Y-97411360D01*
X183604876Y-97411360D01*
X183405260Y-97428824D01*
X183394473Y-97430726D01*
X183200922Y-97482588D01*
X183190628Y-97486336D01*
X183009028Y-97571016D01*
X182999540Y-97576494D01*
X182969103Y-97597806D01*
X182960728Y-97608283D01*
X172304033Y-97608283D01*
X172253509Y-97572906D01*
X172248531Y-97570585D01*
X172248528Y-97570583D01*
X172066843Y-97485862D01*
X172066842Y-97485861D01*
X172061861Y-97483539D01*
X172056553Y-97482117D01*
X172056551Y-97482116D01*
X171862921Y-97430233D01*
X171862919Y-97430233D01*
X171857606Y-97428809D01*
X171646951Y-97410379D01*
X171436296Y-97428809D01*
X171430983Y-97430233D01*
X171430981Y-97430233D01*
X171237351Y-97482116D01*
X171237349Y-97482117D01*
X171232041Y-97483539D01*
X171227060Y-97485861D01*
X171227059Y-97485862D01*
X171045374Y-97570583D01*
X171045371Y-97570585D01*
X171040393Y-97572906D01*
X170867175Y-97694194D01*
X170717650Y-97843719D01*
X170714491Y-97848231D01*
X170663267Y-97921387D01*
X170607810Y-97965715D01*
X170547082Y-97974446D01*
X170530698Y-97972750D01*
X170515115Y-97980941D01*
X169885373Y-98610683D01*
X169877759Y-98624627D01*
X169147707Y-98624627D01*
X169148943Y-98622363D01*
X169148812Y-98620530D01*
X169144561Y-98613915D01*
X168510865Y-97980219D01*
X168499090Y-97973789D01*
X168487075Y-97983085D01*
X168466350Y-98012684D01*
X168460872Y-98022172D01*
X168376192Y-98203772D01*
X168372444Y-98214066D01*
X168320582Y-98407617D01*
X168318680Y-98418404D01*
X168301216Y-98618020D01*
X168301216Y-98628970D01*
X158762588Y-98628970D01*
X158763067Y-98623495D01*
X158744637Y-98412840D01*
X158689907Y-98208585D01*
X158600540Y-98016937D01*
X158479252Y-97843719D01*
X158329727Y-97694194D01*
X158207033Y-97608283D01*
X168863728Y-97608283D01*
X168870797Y-97621731D01*
X169500539Y-98251473D01*
X169514483Y-98259087D01*
X169516316Y-98258956D01*
X169522931Y-98254705D01*
X170156627Y-97621009D01*
X170163057Y-97609234D01*
X170153761Y-97597219D01*
X170124162Y-97576494D01*
X170114674Y-97571016D01*
X169933074Y-97486336D01*
X169922780Y-97482588D01*
X169729229Y-97430726D01*
X169718442Y-97428824D01*
X169518826Y-97411360D01*
X169507876Y-97411360D01*
X169308260Y-97428824D01*
X169297473Y-97430726D01*
X169103922Y-97482588D01*
X169093628Y-97486336D01*
X168912028Y-97571016D01*
X168902540Y-97576494D01*
X168872103Y-97597806D01*
X168863728Y-97608283D01*
X158207033Y-97608283D01*
X158156509Y-97572906D01*
X158151531Y-97570585D01*
X158151528Y-97570583D01*
X157969843Y-97485862D01*
X157969842Y-97485861D01*
X157964861Y-97483539D01*
X157959553Y-97482117D01*
X157959551Y-97482116D01*
X157765921Y-97430233D01*
X157765919Y-97430233D01*
X157760606Y-97428809D01*
X157549951Y-97410379D01*
X157339296Y-97428809D01*
X157333983Y-97430233D01*
X157333981Y-97430233D01*
X157140351Y-97482116D01*
X157140349Y-97482117D01*
X157135041Y-97483539D01*
X157130060Y-97485861D01*
X157130059Y-97485862D01*
X156948374Y-97570583D01*
X156948371Y-97570585D01*
X156943393Y-97572906D01*
X156770175Y-97694194D01*
X156620650Y-97843719D01*
X156617491Y-97848231D01*
X156566267Y-97921387D01*
X156510810Y-97965715D01*
X156450082Y-97974446D01*
X156433698Y-97972750D01*
X156418115Y-97980941D01*
X155788373Y-98610683D01*
X155780759Y-98624627D01*
X155050707Y-98624627D01*
X155051943Y-98622363D01*
X155051812Y-98620530D01*
X155047561Y-98613915D01*
X154413865Y-97980219D01*
X154402090Y-97973789D01*
X154390075Y-97983085D01*
X154369350Y-98012684D01*
X154363872Y-98022172D01*
X154279192Y-98203772D01*
X154275444Y-98214066D01*
X154223582Y-98407617D01*
X154221680Y-98418404D01*
X154204216Y-98618020D01*
X154204216Y-98628970D01*
X144665588Y-98628970D01*
X144666067Y-98623495D01*
X144647637Y-98412840D01*
X144592907Y-98208585D01*
X144503540Y-98016937D01*
X144382252Y-97843719D01*
X144232727Y-97694194D01*
X144110033Y-97608283D01*
X154766728Y-97608283D01*
X154773797Y-97621731D01*
X155403539Y-98251473D01*
X155417483Y-98259087D01*
X155419316Y-98258956D01*
X155425931Y-98254705D01*
X156059627Y-97621009D01*
X156066057Y-97609234D01*
X156056761Y-97597219D01*
X156027162Y-97576494D01*
X156017674Y-97571016D01*
X155836074Y-97486336D01*
X155825780Y-97482588D01*
X155632229Y-97430726D01*
X155621442Y-97428824D01*
X155421826Y-97411360D01*
X155410876Y-97411360D01*
X155211260Y-97428824D01*
X155200473Y-97430726D01*
X155006922Y-97482588D01*
X154996628Y-97486336D01*
X154815028Y-97571016D01*
X154805540Y-97576494D01*
X154775103Y-97597806D01*
X154766728Y-97608283D01*
X144110033Y-97608283D01*
X144059509Y-97572906D01*
X144054531Y-97570585D01*
X144054528Y-97570583D01*
X143872843Y-97485862D01*
X143872842Y-97485861D01*
X143867861Y-97483539D01*
X143862553Y-97482117D01*
X143862551Y-97482116D01*
X143668921Y-97430233D01*
X143668919Y-97430233D01*
X143663606Y-97428809D01*
X143452951Y-97410379D01*
X143242296Y-97428809D01*
X143236983Y-97430233D01*
X143236981Y-97430233D01*
X143043351Y-97482116D01*
X143043349Y-97482117D01*
X143038041Y-97483539D01*
X143033060Y-97485861D01*
X143033059Y-97485862D01*
X142851374Y-97570583D01*
X142851371Y-97570585D01*
X142846393Y-97572906D01*
X142673175Y-97694194D01*
X142523650Y-97843719D01*
X142520491Y-97848231D01*
X142469267Y-97921387D01*
X142413810Y-97965715D01*
X142353082Y-97974446D01*
X142336698Y-97972750D01*
X142321115Y-97980941D01*
X141691373Y-98610683D01*
X141683759Y-98624627D01*
X140953707Y-98624627D01*
X140954943Y-98622363D01*
X140954812Y-98620530D01*
X140950561Y-98613915D01*
X140316865Y-97980219D01*
X140305090Y-97973789D01*
X140293075Y-97983085D01*
X140272350Y-98012684D01*
X140266872Y-98022172D01*
X140182192Y-98203772D01*
X140178444Y-98214066D01*
X140126582Y-98407617D01*
X140124680Y-98418404D01*
X140107216Y-98618020D01*
X140107216Y-98628970D01*
X130568588Y-98628970D01*
X130569067Y-98623495D01*
X130550637Y-98412840D01*
X130495907Y-98208585D01*
X130406540Y-98016937D01*
X130285252Y-97843719D01*
X130135727Y-97694194D01*
X130013033Y-97608283D01*
X140669728Y-97608283D01*
X140676797Y-97621731D01*
X141306539Y-98251473D01*
X141320483Y-98259087D01*
X141322316Y-98258956D01*
X141328931Y-98254705D01*
X141962627Y-97621009D01*
X141969057Y-97609234D01*
X141959761Y-97597219D01*
X141930162Y-97576494D01*
X141920674Y-97571016D01*
X141739074Y-97486336D01*
X141728780Y-97482588D01*
X141535229Y-97430726D01*
X141524442Y-97428824D01*
X141324826Y-97411360D01*
X141313876Y-97411360D01*
X141114260Y-97428824D01*
X141103473Y-97430726D01*
X140909922Y-97482588D01*
X140899628Y-97486336D01*
X140718028Y-97571016D01*
X140708540Y-97576494D01*
X140678103Y-97597806D01*
X140669728Y-97608283D01*
X130013033Y-97608283D01*
X129962509Y-97572906D01*
X129957531Y-97570585D01*
X129957528Y-97570583D01*
X129775843Y-97485862D01*
X129775842Y-97485861D01*
X129770861Y-97483539D01*
X129765553Y-97482117D01*
X129765551Y-97482116D01*
X129571921Y-97430233D01*
X129571919Y-97430233D01*
X129566606Y-97428809D01*
X129355951Y-97410379D01*
X129145296Y-97428809D01*
X129139983Y-97430233D01*
X129139981Y-97430233D01*
X128946351Y-97482116D01*
X128946349Y-97482117D01*
X128941041Y-97483539D01*
X128936060Y-97485861D01*
X128936059Y-97485862D01*
X128754374Y-97570583D01*
X128754371Y-97570585D01*
X128749393Y-97572906D01*
X128576175Y-97694194D01*
X128426650Y-97843719D01*
X128423491Y-97848231D01*
X128372267Y-97921387D01*
X128316810Y-97965715D01*
X128256082Y-97974446D01*
X128239698Y-97972750D01*
X128224115Y-97980941D01*
X127594373Y-98610683D01*
X127586759Y-98624627D01*
X126856707Y-98624627D01*
X126857943Y-98622363D01*
X126857812Y-98620530D01*
X126853561Y-98613915D01*
X126219865Y-97980219D01*
X126208090Y-97973789D01*
X126196075Y-97983085D01*
X126175350Y-98012684D01*
X126169872Y-98022172D01*
X126085192Y-98203772D01*
X126081444Y-98214066D01*
X126029582Y-98407617D01*
X126027680Y-98418404D01*
X126010216Y-98618020D01*
X126010216Y-98628970D01*
X116471588Y-98628970D01*
X116472067Y-98623495D01*
X116453637Y-98412840D01*
X116398907Y-98208585D01*
X116309540Y-98016937D01*
X116188252Y-97843719D01*
X116038727Y-97694194D01*
X115916033Y-97608283D01*
X126572728Y-97608283D01*
X126579797Y-97621731D01*
X127209539Y-98251473D01*
X127223483Y-98259087D01*
X127225316Y-98258956D01*
X127231931Y-98254705D01*
X127865627Y-97621009D01*
X127872057Y-97609234D01*
X127862761Y-97597219D01*
X127833162Y-97576494D01*
X127823674Y-97571016D01*
X127642074Y-97486336D01*
X127631780Y-97482588D01*
X127438229Y-97430726D01*
X127427442Y-97428824D01*
X127227826Y-97411360D01*
X127216876Y-97411360D01*
X127017260Y-97428824D01*
X127006473Y-97430726D01*
X126812922Y-97482588D01*
X126802628Y-97486336D01*
X126621028Y-97571016D01*
X126611540Y-97576494D01*
X126581103Y-97597806D01*
X126572728Y-97608283D01*
X115916033Y-97608283D01*
X115865509Y-97572906D01*
X115860531Y-97570585D01*
X115860528Y-97570583D01*
X115678843Y-97485862D01*
X115678842Y-97485861D01*
X115673861Y-97483539D01*
X115668553Y-97482117D01*
X115668551Y-97482116D01*
X115474921Y-97430233D01*
X115474919Y-97430233D01*
X115469606Y-97428809D01*
X115258951Y-97410379D01*
X115048296Y-97428809D01*
X115042983Y-97430233D01*
X115042981Y-97430233D01*
X114849351Y-97482116D01*
X114849349Y-97482117D01*
X114844041Y-97483539D01*
X114839060Y-97485861D01*
X114839059Y-97485862D01*
X114657374Y-97570583D01*
X114657371Y-97570585D01*
X114652393Y-97572906D01*
X114479175Y-97694194D01*
X114329650Y-97843719D01*
X114326491Y-97848231D01*
X114275267Y-97921387D01*
X114219810Y-97965715D01*
X114159082Y-97974446D01*
X114142698Y-97972750D01*
X114127115Y-97980941D01*
X113497373Y-98610683D01*
X113489759Y-98624627D01*
X112759707Y-98624627D01*
X112760943Y-98622363D01*
X112760812Y-98620530D01*
X112756561Y-98613915D01*
X112122865Y-97980219D01*
X112111090Y-97973789D01*
X112099075Y-97983085D01*
X112078350Y-98012684D01*
X112072872Y-98022172D01*
X111988192Y-98203772D01*
X111984444Y-98214066D01*
X111932582Y-98407617D01*
X111930680Y-98418404D01*
X111913216Y-98618020D01*
X111913216Y-98628970D01*
X102374588Y-98628970D01*
X102375067Y-98623495D01*
X102356637Y-98412840D01*
X102301907Y-98208585D01*
X102212540Y-98016937D01*
X102091252Y-97843719D01*
X101941727Y-97694194D01*
X101819033Y-97608283D01*
X112475728Y-97608283D01*
X112482797Y-97621731D01*
X113112539Y-98251473D01*
X113126483Y-98259087D01*
X113128316Y-98258956D01*
X113134931Y-98254705D01*
X113768627Y-97621009D01*
X113775057Y-97609234D01*
X113765761Y-97597219D01*
X113736162Y-97576494D01*
X113726674Y-97571016D01*
X113545074Y-97486336D01*
X113534780Y-97482588D01*
X113341229Y-97430726D01*
X113330442Y-97428824D01*
X113130826Y-97411360D01*
X113119876Y-97411360D01*
X112920260Y-97428824D01*
X112909473Y-97430726D01*
X112715922Y-97482588D01*
X112705628Y-97486336D01*
X112524028Y-97571016D01*
X112514540Y-97576494D01*
X112484103Y-97597806D01*
X112475728Y-97608283D01*
X101819033Y-97608283D01*
X101768509Y-97572906D01*
X101763531Y-97570585D01*
X101763528Y-97570583D01*
X101581843Y-97485862D01*
X101581842Y-97485861D01*
X101576861Y-97483539D01*
X101571553Y-97482117D01*
X101571551Y-97482116D01*
X101377921Y-97430233D01*
X101377919Y-97430233D01*
X101372606Y-97428809D01*
X101161951Y-97410379D01*
X100951296Y-97428809D01*
X100945983Y-97430233D01*
X100945981Y-97430233D01*
X100752351Y-97482116D01*
X100752349Y-97482117D01*
X100747041Y-97483539D01*
X100742060Y-97485861D01*
X100742059Y-97485862D01*
X100560374Y-97570583D01*
X100560371Y-97570585D01*
X100555393Y-97572906D01*
X100382175Y-97694194D01*
X100232650Y-97843719D01*
X100229491Y-97848231D01*
X100178267Y-97921387D01*
X100122810Y-97965715D01*
X100062082Y-97974446D01*
X100045698Y-97972750D01*
X100030115Y-97980941D01*
X99400373Y-98610683D01*
X99392759Y-98624627D01*
X98662707Y-98624627D01*
X98663943Y-98622363D01*
X98663812Y-98620530D01*
X98659561Y-98613915D01*
X98025865Y-97980219D01*
X98014090Y-97973789D01*
X98002075Y-97983085D01*
X97981350Y-98012684D01*
X97975872Y-98022172D01*
X97891192Y-98203772D01*
X97887444Y-98214066D01*
X97835582Y-98407617D01*
X97833680Y-98418404D01*
X97816216Y-98618020D01*
X97816216Y-98628970D01*
X88277588Y-98628970D01*
X88278067Y-98623495D01*
X88259637Y-98412840D01*
X88204907Y-98208585D01*
X88115540Y-98016937D01*
X87994252Y-97843719D01*
X87844727Y-97694194D01*
X87722033Y-97608283D01*
X98378728Y-97608283D01*
X98385797Y-97621731D01*
X99015539Y-98251473D01*
X99029483Y-98259087D01*
X99031316Y-98258956D01*
X99037931Y-98254705D01*
X99671627Y-97621009D01*
X99678057Y-97609234D01*
X99668761Y-97597219D01*
X99639162Y-97576494D01*
X99629674Y-97571016D01*
X99448074Y-97486336D01*
X99437780Y-97482588D01*
X99244229Y-97430726D01*
X99233442Y-97428824D01*
X99033826Y-97411360D01*
X99022876Y-97411360D01*
X98823260Y-97428824D01*
X98812473Y-97430726D01*
X98618922Y-97482588D01*
X98608628Y-97486336D01*
X98427028Y-97571016D01*
X98417540Y-97576494D01*
X98387103Y-97597806D01*
X98378728Y-97608283D01*
X87722033Y-97608283D01*
X87671509Y-97572906D01*
X87666531Y-97570585D01*
X87666528Y-97570583D01*
X87484843Y-97485862D01*
X87484842Y-97485861D01*
X87479861Y-97483539D01*
X87474553Y-97482117D01*
X87474551Y-97482116D01*
X87280921Y-97430233D01*
X87280919Y-97430233D01*
X87275606Y-97428809D01*
X87064951Y-97410379D01*
X86854296Y-97428809D01*
X86848983Y-97430233D01*
X86848981Y-97430233D01*
X86655351Y-97482116D01*
X86655349Y-97482117D01*
X86650041Y-97483539D01*
X86645060Y-97485861D01*
X86645059Y-97485862D01*
X86463374Y-97570583D01*
X86463371Y-97570585D01*
X86458393Y-97572906D01*
X86285175Y-97694194D01*
X86135650Y-97843719D01*
X86132491Y-97848231D01*
X86081267Y-97921387D01*
X86025810Y-97965715D01*
X85965082Y-97974446D01*
X85948698Y-97972750D01*
X85933115Y-97980941D01*
X85303373Y-98610683D01*
X85295759Y-98624627D01*
X84565707Y-98624627D01*
X84566943Y-98622363D01*
X84566812Y-98620530D01*
X84562561Y-98613915D01*
X83928865Y-97980219D01*
X83917090Y-97973789D01*
X83905075Y-97983085D01*
X83884350Y-98012684D01*
X83878872Y-98022172D01*
X83794192Y-98203772D01*
X83790444Y-98214066D01*
X83738582Y-98407617D01*
X83736680Y-98418404D01*
X83719216Y-98618020D01*
X83719216Y-98628970D01*
X74180588Y-98628970D01*
X74181067Y-98623495D01*
X74162637Y-98412840D01*
X74107907Y-98208585D01*
X74018540Y-98016937D01*
X73897252Y-97843719D01*
X73747727Y-97694194D01*
X73625033Y-97608283D01*
X84281728Y-97608283D01*
X84288797Y-97621731D01*
X84918539Y-98251473D01*
X84932483Y-98259087D01*
X84934316Y-98258956D01*
X84940931Y-98254705D01*
X85574627Y-97621009D01*
X85581057Y-97609234D01*
X85571761Y-97597219D01*
X85542162Y-97576494D01*
X85532674Y-97571016D01*
X85351074Y-97486336D01*
X85340780Y-97482588D01*
X85147229Y-97430726D01*
X85136442Y-97428824D01*
X84936826Y-97411360D01*
X84925876Y-97411360D01*
X84726260Y-97428824D01*
X84715473Y-97430726D01*
X84521922Y-97482588D01*
X84511628Y-97486336D01*
X84330028Y-97571016D01*
X84320540Y-97576494D01*
X84290103Y-97597806D01*
X84281728Y-97608283D01*
X73625033Y-97608283D01*
X73574509Y-97572906D01*
X73569531Y-97570585D01*
X73569528Y-97570583D01*
X73387843Y-97485862D01*
X73387842Y-97485861D01*
X73382861Y-97483539D01*
X73377553Y-97482117D01*
X73377551Y-97482116D01*
X73183921Y-97430233D01*
X73183919Y-97430233D01*
X73178606Y-97428809D01*
X72967951Y-97410379D01*
X72757296Y-97428809D01*
X72751983Y-97430233D01*
X72751981Y-97430233D01*
X72558351Y-97482116D01*
X72558349Y-97482117D01*
X72553041Y-97483539D01*
X72548060Y-97485861D01*
X72548059Y-97485862D01*
X72366374Y-97570583D01*
X72366371Y-97570585D01*
X72361393Y-97572906D01*
X72188175Y-97694194D01*
X72038650Y-97843719D01*
X72035491Y-97848231D01*
X71984267Y-97921387D01*
X71928810Y-97965715D01*
X71868082Y-97974446D01*
X71851698Y-97972750D01*
X71836115Y-97980941D01*
X71206373Y-98610683D01*
X71198759Y-98624627D01*
X70468707Y-98624627D01*
X70469943Y-98622363D01*
X70469812Y-98620530D01*
X70465561Y-98613915D01*
X69831865Y-97980219D01*
X69820090Y-97973789D01*
X69808075Y-97983085D01*
X69787350Y-98012684D01*
X69781872Y-98022172D01*
X69697192Y-98203772D01*
X69693444Y-98214066D01*
X69641582Y-98407617D01*
X69639680Y-98418404D01*
X69622216Y-98618020D01*
X69622216Y-98628970D01*
X65898300Y-98628970D01*
X65898300Y-97608283D01*
X70184728Y-97608283D01*
X70191797Y-97621731D01*
X70821539Y-98251473D01*
X70835483Y-98259087D01*
X70837316Y-98258956D01*
X70843931Y-98254705D01*
X71477627Y-97621009D01*
X71484057Y-97609234D01*
X71474761Y-97597219D01*
X71445162Y-97576494D01*
X71435674Y-97571016D01*
X71254074Y-97486336D01*
X71243780Y-97482588D01*
X71050229Y-97430726D01*
X71039442Y-97428824D01*
X70839826Y-97411360D01*
X70828876Y-97411360D01*
X70629260Y-97428824D01*
X70618473Y-97430726D01*
X70424922Y-97482588D01*
X70414628Y-97486336D01*
X70233028Y-97571016D01*
X70223540Y-97576494D01*
X70193103Y-97597806D01*
X70184728Y-97608283D01*
X65898300Y-97608283D01*
X65898300Y-92933071D01*
X65918302Y-92864950D01*
X65971958Y-92818457D01*
X66042232Y-92808353D01*
X66106812Y-92837847D01*
X66141125Y-92885870D01*
X66210538Y-93057673D01*
X66213523Y-93064017D01*
X66378134Y-93368458D01*
X66381818Y-93374447D01*
X66579336Y-93658637D01*
X66583657Y-93664168D01*
X66811621Y-93924569D01*
X66816541Y-93929593D01*
X67072105Y-94162956D01*
X67077554Y-94167400D01*
X67357536Y-94370818D01*
X67363458Y-94374635D01*
X67664364Y-94545573D01*
X67670669Y-94548703D01*
X67988766Y-94685040D01*
X67995367Y-94687442D01*
X68326685Y-94787473D01*
X68333506Y-94789123D01*
X68673908Y-94851599D01*
X68680891Y-94852481D01*
X68960693Y-94872047D01*
X68965078Y-94872200D01*
X70451685Y-94872200D01*
X70466924Y-94867725D01*
X70468129Y-94866335D01*
X70469800Y-94858652D01*
X70469800Y-94854085D01*
X70977800Y-94854085D01*
X70982275Y-94869324D01*
X70983665Y-94870529D01*
X70991348Y-94872200D01*
X72461050Y-94872200D01*
X72464542Y-94872103D01*
X72722865Y-94857660D01*
X72729839Y-94856878D01*
X73071084Y-94799161D01*
X73077939Y-94797603D01*
X73410617Y-94702209D01*
X73417245Y-94699901D01*
X73737232Y-94568013D01*
X73743552Y-94564984D01*
X74046842Y-94398249D01*
X74052799Y-94394526D01*
X74335590Y-94195040D01*
X74341116Y-94190661D01*
X74599904Y-93960896D01*
X74604902Y-93955932D01*
X74836470Y-93698751D01*
X74840876Y-93693271D01*
X75042337Y-93411874D01*
X75046110Y-93405927D01*
X75214945Y-93103832D01*
X75218027Y-93097514D01*
X75352142Y-92778467D01*
X75354498Y-92771852D01*
X75452216Y-92439834D01*
X75453816Y-92433012D01*
X75491890Y-92217086D01*
X223293342Y-92217086D01*
X223296180Y-92275115D01*
X223296913Y-92282091D01*
X223352246Y-92623728D01*
X223353756Y-92630596D01*
X223446823Y-92963924D01*
X223449090Y-92970584D01*
X223578738Y-93291473D01*
X223581723Y-93297817D01*
X223746334Y-93602258D01*
X223750018Y-93608247D01*
X223947536Y-93892437D01*
X223951857Y-93897968D01*
X224179821Y-94158369D01*
X224184741Y-94163393D01*
X224440305Y-94396756D01*
X224445754Y-94401200D01*
X224725736Y-94604618D01*
X224731658Y-94608435D01*
X225032564Y-94779373D01*
X225038869Y-94782503D01*
X225356966Y-94918840D01*
X225363567Y-94921242D01*
X225694885Y-95021273D01*
X225701706Y-95022923D01*
X226042108Y-95085399D01*
X226049091Y-95086281D01*
X226328893Y-95105847D01*
X226333278Y-95106000D01*
X227819885Y-95106000D01*
X227835124Y-95101525D01*
X227836329Y-95100135D01*
X227838000Y-95092452D01*
X227838000Y-92220115D01*
X227833525Y-92204876D01*
X227832135Y-92203671D01*
X227824452Y-92202000D01*
X223310719Y-92202000D01*
X223295480Y-92206475D01*
X223295351Y-92206623D01*
X223293342Y-92217086D01*
X75491890Y-92217086D01*
X75513916Y-92092169D01*
X75514747Y-92085197D01*
X75520970Y-91986283D01*
X75517495Y-91970943D01*
X75506554Y-91968200D01*
X70995915Y-91968200D01*
X70980676Y-91972675D01*
X70979471Y-91974065D01*
X70977800Y-91981748D01*
X70977800Y-94854085D01*
X70469800Y-94854085D01*
X70469800Y-91586200D01*
X70489802Y-91518079D01*
X70543458Y-91471586D01*
X70595800Y-91460200D01*
X75505081Y-91460200D01*
X75520320Y-91455725D01*
X75520449Y-91455577D01*
X75522458Y-91445114D01*
X75519620Y-91387085D01*
X75518887Y-91380109D01*
X75463554Y-91038472D01*
X75462044Y-91031604D01*
X75368977Y-90698276D01*
X75366710Y-90691616D01*
X75253291Y-90410895D01*
X129051051Y-90410895D01*
X129051348Y-90416048D01*
X129051348Y-90416051D01*
X129062075Y-90602086D01*
X129063910Y-90633915D01*
X129065047Y-90638961D01*
X129065048Y-90638967D01*
X129084919Y-90727139D01*
X129113022Y-90851839D01*
X129197066Y-91058816D01*
X129247819Y-91141638D01*
X129311091Y-91244888D01*
X129313787Y-91249288D01*
X129460050Y-91418138D01*
X129631926Y-91560832D01*
X129824800Y-91673538D01*
X130033492Y-91753230D01*
X130038560Y-91754261D01*
X130038563Y-91754262D01*
X130104407Y-91767658D01*
X130252397Y-91797767D01*
X130257572Y-91797957D01*
X130257574Y-91797957D01*
X130470473Y-91805764D01*
X130470477Y-91805764D01*
X130475637Y-91805953D01*
X130480757Y-91805297D01*
X130480759Y-91805297D01*
X130692088Y-91778225D01*
X130692089Y-91778225D01*
X130697216Y-91777568D01*
X130702166Y-91776083D01*
X130906229Y-91714861D01*
X130906234Y-91714859D01*
X130911184Y-91713374D01*
X131111794Y-91615096D01*
X131293660Y-91485373D01*
X131451896Y-91327689D01*
X131511394Y-91244889D01*
X131582253Y-91146277D01*
X131583576Y-91147228D01*
X131630445Y-91104057D01*
X131700380Y-91091825D01*
X131765826Y-91119344D01*
X131793675Y-91151194D01*
X131853787Y-91249288D01*
X132000050Y-91418138D01*
X132171926Y-91560832D01*
X132364800Y-91673538D01*
X132573492Y-91753230D01*
X132578560Y-91754261D01*
X132578563Y-91754262D01*
X132644407Y-91767658D01*
X132792397Y-91797767D01*
X132797572Y-91797957D01*
X132797574Y-91797957D01*
X133010473Y-91805764D01*
X133010477Y-91805764D01*
X133015637Y-91805953D01*
X133020757Y-91805297D01*
X133020759Y-91805297D01*
X133232088Y-91778225D01*
X133232089Y-91778225D01*
X133237216Y-91777568D01*
X133242166Y-91776083D01*
X133446229Y-91714861D01*
X133446234Y-91714859D01*
X133451184Y-91713374D01*
X133651794Y-91615096D01*
X133833660Y-91485373D01*
X133991896Y-91327689D01*
X134051394Y-91244889D01*
X134122253Y-91146277D01*
X134123576Y-91147228D01*
X134170445Y-91104057D01*
X134240380Y-91091825D01*
X134305826Y-91119344D01*
X134333675Y-91151194D01*
X134393787Y-91249288D01*
X134540050Y-91418138D01*
X134711926Y-91560832D01*
X134904800Y-91673538D01*
X135113492Y-91753230D01*
X135118560Y-91754261D01*
X135118563Y-91754262D01*
X135184407Y-91767658D01*
X135332397Y-91797767D01*
X135337572Y-91797957D01*
X135337574Y-91797957D01*
X135550473Y-91805764D01*
X135550477Y-91805764D01*
X135555637Y-91805953D01*
X135560757Y-91805297D01*
X135560759Y-91805297D01*
X135772088Y-91778225D01*
X135772089Y-91778225D01*
X135777216Y-91777568D01*
X135782166Y-91776083D01*
X135986229Y-91714861D01*
X135986234Y-91714859D01*
X135991184Y-91713374D01*
X136191794Y-91615096D01*
X136373660Y-91485373D01*
X136531896Y-91327689D01*
X136591394Y-91244889D01*
X136662253Y-91146277D01*
X136663576Y-91147228D01*
X136710445Y-91104057D01*
X136780380Y-91091825D01*
X136845826Y-91119344D01*
X136873675Y-91151194D01*
X136933787Y-91249288D01*
X137080050Y-91418138D01*
X137251926Y-91560832D01*
X137444800Y-91673538D01*
X137653492Y-91753230D01*
X137658560Y-91754261D01*
X137658563Y-91754262D01*
X137724407Y-91767658D01*
X137872397Y-91797767D01*
X137877572Y-91797957D01*
X137877574Y-91797957D01*
X138090473Y-91805764D01*
X138090477Y-91805764D01*
X138095637Y-91805953D01*
X138100757Y-91805297D01*
X138100759Y-91805297D01*
X138312088Y-91778225D01*
X138312089Y-91778225D01*
X138317216Y-91777568D01*
X138322166Y-91776083D01*
X138526229Y-91714861D01*
X138526234Y-91714859D01*
X138531184Y-91713374D01*
X138731794Y-91615096D01*
X138913660Y-91485373D01*
X139071896Y-91327689D01*
X139131394Y-91244889D01*
X139202253Y-91146277D01*
X139203576Y-91147228D01*
X139250445Y-91104057D01*
X139320380Y-91091825D01*
X139385826Y-91119344D01*
X139413675Y-91151194D01*
X139473787Y-91249288D01*
X139620050Y-91418138D01*
X139791926Y-91560832D01*
X139984800Y-91673538D01*
X140193492Y-91753230D01*
X140198560Y-91754261D01*
X140198563Y-91754262D01*
X140264407Y-91767658D01*
X140412397Y-91797767D01*
X140417572Y-91797957D01*
X140417574Y-91797957D01*
X140630473Y-91805764D01*
X140630477Y-91805764D01*
X140635637Y-91805953D01*
X140640757Y-91805297D01*
X140640759Y-91805297D01*
X140852088Y-91778225D01*
X140852089Y-91778225D01*
X140857216Y-91777568D01*
X140862166Y-91776083D01*
X141066229Y-91714861D01*
X141066234Y-91714859D01*
X141071184Y-91713374D01*
X141271794Y-91615096D01*
X141453660Y-91485373D01*
X141611896Y-91327689D01*
X141671394Y-91244889D01*
X141742253Y-91146277D01*
X141743576Y-91147228D01*
X141790445Y-91104057D01*
X141860380Y-91091825D01*
X141925826Y-91119344D01*
X141953675Y-91151194D01*
X142013787Y-91249288D01*
X142160050Y-91418138D01*
X142331926Y-91560832D01*
X142524800Y-91673538D01*
X142733492Y-91753230D01*
X142738560Y-91754261D01*
X142738563Y-91754262D01*
X142804407Y-91767658D01*
X142952397Y-91797767D01*
X142957572Y-91797957D01*
X142957574Y-91797957D01*
X143170473Y-91805764D01*
X143170477Y-91805764D01*
X143175637Y-91805953D01*
X143180757Y-91805297D01*
X143180759Y-91805297D01*
X143392088Y-91778225D01*
X143392089Y-91778225D01*
X143397216Y-91777568D01*
X143402166Y-91776083D01*
X143606229Y-91714861D01*
X143606234Y-91714859D01*
X143611184Y-91713374D01*
X143811794Y-91615096D01*
X143993660Y-91485373D01*
X144151896Y-91327689D01*
X144211394Y-91244889D01*
X144282253Y-91146277D01*
X144283576Y-91147228D01*
X144330445Y-91104057D01*
X144400380Y-91091825D01*
X144465826Y-91119344D01*
X144493675Y-91151194D01*
X144553787Y-91249288D01*
X144700050Y-91418138D01*
X144871926Y-91560832D01*
X145064800Y-91673538D01*
X145273492Y-91753230D01*
X145278560Y-91754261D01*
X145278563Y-91754262D01*
X145344407Y-91767658D01*
X145492397Y-91797767D01*
X145497572Y-91797957D01*
X145497574Y-91797957D01*
X145710473Y-91805764D01*
X145710477Y-91805764D01*
X145715637Y-91805953D01*
X145720757Y-91805297D01*
X145720759Y-91805297D01*
X145932088Y-91778225D01*
X145932089Y-91778225D01*
X145937216Y-91777568D01*
X145942166Y-91776083D01*
X146146229Y-91714861D01*
X146146234Y-91714859D01*
X146151184Y-91713374D01*
X146351794Y-91615096D01*
X146533660Y-91485373D01*
X146691896Y-91327689D01*
X146751394Y-91244889D01*
X146822253Y-91146277D01*
X146823576Y-91147228D01*
X146870445Y-91104057D01*
X146940380Y-91091825D01*
X147005826Y-91119344D01*
X147033675Y-91151194D01*
X147093787Y-91249288D01*
X147240050Y-91418138D01*
X147411926Y-91560832D01*
X147604800Y-91673538D01*
X147813492Y-91753230D01*
X147818560Y-91754261D01*
X147818563Y-91754262D01*
X147884407Y-91767658D01*
X148032397Y-91797767D01*
X148037572Y-91797957D01*
X148037574Y-91797957D01*
X148250473Y-91805764D01*
X148250477Y-91805764D01*
X148255637Y-91805953D01*
X148260757Y-91805297D01*
X148260759Y-91805297D01*
X148472088Y-91778225D01*
X148472089Y-91778225D01*
X148477216Y-91777568D01*
X148482166Y-91776083D01*
X148686229Y-91714861D01*
X148686234Y-91714859D01*
X148691184Y-91713374D01*
X148891794Y-91615096D01*
X149073660Y-91485373D01*
X149231896Y-91327689D01*
X149291394Y-91244889D01*
X149362253Y-91146277D01*
X149363576Y-91147228D01*
X149410445Y-91104057D01*
X149480380Y-91091825D01*
X149545826Y-91119344D01*
X149573675Y-91151194D01*
X149633787Y-91249288D01*
X149780050Y-91418138D01*
X149951926Y-91560832D01*
X150144800Y-91673538D01*
X150353492Y-91753230D01*
X150358560Y-91754261D01*
X150358563Y-91754262D01*
X150424407Y-91767658D01*
X150572397Y-91797767D01*
X150577572Y-91797957D01*
X150577574Y-91797957D01*
X150790473Y-91805764D01*
X150790477Y-91805764D01*
X150795637Y-91805953D01*
X150800757Y-91805297D01*
X150800759Y-91805297D01*
X151012088Y-91778225D01*
X151012089Y-91778225D01*
X151017216Y-91777568D01*
X151022166Y-91776083D01*
X151226229Y-91714861D01*
X151226234Y-91714859D01*
X151231184Y-91713374D01*
X151431794Y-91615096D01*
X151613660Y-91485373D01*
X151771896Y-91327689D01*
X151831394Y-91244889D01*
X151902253Y-91146277D01*
X151903576Y-91147228D01*
X151950445Y-91104057D01*
X152020380Y-91091825D01*
X152085826Y-91119344D01*
X152113675Y-91151194D01*
X152173787Y-91249288D01*
X152320050Y-91418138D01*
X152491926Y-91560832D01*
X152684800Y-91673538D01*
X152893492Y-91753230D01*
X152898560Y-91754261D01*
X152898563Y-91754262D01*
X152964407Y-91767658D01*
X153112397Y-91797767D01*
X153117572Y-91797957D01*
X153117574Y-91797957D01*
X153330473Y-91805764D01*
X153330477Y-91805764D01*
X153335637Y-91805953D01*
X153340757Y-91805297D01*
X153340759Y-91805297D01*
X153552088Y-91778225D01*
X153552089Y-91778225D01*
X153557216Y-91777568D01*
X153562166Y-91776083D01*
X153766229Y-91714861D01*
X153766234Y-91714859D01*
X153771184Y-91713374D01*
X153971794Y-91615096D01*
X154153660Y-91485373D01*
X154311896Y-91327689D01*
X154371394Y-91244889D01*
X154442253Y-91146277D01*
X154443576Y-91147228D01*
X154490445Y-91104057D01*
X154560380Y-91091825D01*
X154625826Y-91119344D01*
X154653675Y-91151194D01*
X154713787Y-91249288D01*
X154860050Y-91418138D01*
X155031926Y-91560832D01*
X155224800Y-91673538D01*
X155433492Y-91753230D01*
X155438560Y-91754261D01*
X155438563Y-91754262D01*
X155504407Y-91767658D01*
X155652397Y-91797767D01*
X155657572Y-91797957D01*
X155657574Y-91797957D01*
X155870473Y-91805764D01*
X155870477Y-91805764D01*
X155875637Y-91805953D01*
X155880757Y-91805297D01*
X155880759Y-91805297D01*
X156092088Y-91778225D01*
X156092089Y-91778225D01*
X156097216Y-91777568D01*
X156102166Y-91776083D01*
X156306229Y-91714861D01*
X156306234Y-91714859D01*
X156311184Y-91713374D01*
X156511794Y-91615096D01*
X156693660Y-91485373D01*
X156851896Y-91327689D01*
X156911394Y-91244889D01*
X156982253Y-91146277D01*
X156983576Y-91147228D01*
X157030445Y-91104057D01*
X157100380Y-91091825D01*
X157165826Y-91119344D01*
X157193675Y-91151194D01*
X157253787Y-91249288D01*
X157400050Y-91418138D01*
X157571926Y-91560832D01*
X157764800Y-91673538D01*
X157973492Y-91753230D01*
X157978560Y-91754261D01*
X157978563Y-91754262D01*
X158044407Y-91767658D01*
X158192397Y-91797767D01*
X158197572Y-91797957D01*
X158197574Y-91797957D01*
X158410473Y-91805764D01*
X158410477Y-91805764D01*
X158415637Y-91805953D01*
X158420757Y-91805297D01*
X158420759Y-91805297D01*
X158632088Y-91778225D01*
X158632089Y-91778225D01*
X158637216Y-91777568D01*
X158642166Y-91776083D01*
X158846229Y-91714861D01*
X158846234Y-91714859D01*
X158851184Y-91713374D01*
X159051794Y-91615096D01*
X159233660Y-91485373D01*
X159391896Y-91327689D01*
X159451394Y-91244889D01*
X159519235Y-91150477D01*
X159522253Y-91146277D01*
X159543120Y-91104057D01*
X159618936Y-90950653D01*
X159618937Y-90950651D01*
X159621230Y-90946011D01*
X159686170Y-90732269D01*
X159715329Y-90510790D01*
X159716956Y-90444200D01*
X159698652Y-90221561D01*
X159644231Y-90004902D01*
X159555154Y-89800040D01*
X159433814Y-89612477D01*
X159283470Y-89447251D01*
X159279419Y-89444052D01*
X159279415Y-89444048D01*
X159112214Y-89312000D01*
X159112210Y-89311998D01*
X159108159Y-89308798D01*
X158912589Y-89200838D01*
X158907720Y-89199114D01*
X158907716Y-89199112D01*
X158706887Y-89127995D01*
X158706883Y-89127994D01*
X158702012Y-89126269D01*
X158696919Y-89125362D01*
X158696916Y-89125361D01*
X158487173Y-89088000D01*
X158487167Y-89087999D01*
X158482084Y-89087094D01*
X158408252Y-89086192D01*
X158263881Y-89084428D01*
X158263879Y-89084428D01*
X158258711Y-89084365D01*
X158037891Y-89118155D01*
X157825556Y-89187557D01*
X157795243Y-89203337D01*
X157684474Y-89261000D01*
X157627407Y-89290707D01*
X157623274Y-89293810D01*
X157623271Y-89293812D01*
X157599047Y-89312000D01*
X157448765Y-89424835D01*
X157294429Y-89586338D01*
X157187001Y-89743821D01*
X157132093Y-89788821D01*
X157061568Y-89796992D01*
X156997821Y-89765738D01*
X156977124Y-89741254D01*
X156896622Y-89616817D01*
X156896620Y-89616814D01*
X156893814Y-89612477D01*
X156743470Y-89447251D01*
X156739419Y-89444052D01*
X156739415Y-89444048D01*
X156572214Y-89312000D01*
X156572210Y-89311998D01*
X156568159Y-89308798D01*
X156372589Y-89200838D01*
X156367720Y-89199114D01*
X156367716Y-89199112D01*
X156166887Y-89127995D01*
X156166883Y-89127994D01*
X156162012Y-89126269D01*
X156156919Y-89125362D01*
X156156916Y-89125361D01*
X155947173Y-89088000D01*
X155947167Y-89087999D01*
X155942084Y-89087094D01*
X155868252Y-89086192D01*
X155723881Y-89084428D01*
X155723879Y-89084428D01*
X155718711Y-89084365D01*
X155497891Y-89118155D01*
X155285556Y-89187557D01*
X155255243Y-89203337D01*
X155144474Y-89261000D01*
X155087407Y-89290707D01*
X155083274Y-89293810D01*
X155083271Y-89293812D01*
X155059047Y-89312000D01*
X154908765Y-89424835D01*
X154754429Y-89586338D01*
X154647001Y-89743821D01*
X154592093Y-89788821D01*
X154521568Y-89796992D01*
X154457821Y-89765738D01*
X154437124Y-89741254D01*
X154356622Y-89616817D01*
X154356620Y-89616814D01*
X154353814Y-89612477D01*
X154203470Y-89447251D01*
X154199419Y-89444052D01*
X154199415Y-89444048D01*
X154032214Y-89312000D01*
X154032210Y-89311998D01*
X154028159Y-89308798D01*
X153832589Y-89200838D01*
X153827720Y-89199114D01*
X153827716Y-89199112D01*
X153626887Y-89127995D01*
X153626883Y-89127994D01*
X153622012Y-89126269D01*
X153616919Y-89125362D01*
X153616916Y-89125361D01*
X153407173Y-89088000D01*
X153407167Y-89087999D01*
X153402084Y-89087094D01*
X153328252Y-89086192D01*
X153183881Y-89084428D01*
X153183879Y-89084428D01*
X153178711Y-89084365D01*
X152957891Y-89118155D01*
X152745556Y-89187557D01*
X152715243Y-89203337D01*
X152604474Y-89261000D01*
X152547407Y-89290707D01*
X152543274Y-89293810D01*
X152543271Y-89293812D01*
X152519047Y-89312000D01*
X152368765Y-89424835D01*
X152214429Y-89586338D01*
X152107001Y-89743821D01*
X152052093Y-89788821D01*
X151981568Y-89796992D01*
X151917821Y-89765738D01*
X151897124Y-89741254D01*
X151816622Y-89616817D01*
X151816620Y-89616814D01*
X151813814Y-89612477D01*
X151663470Y-89447251D01*
X151659419Y-89444052D01*
X151659415Y-89444048D01*
X151492214Y-89312000D01*
X151492210Y-89311998D01*
X151488159Y-89308798D01*
X151292589Y-89200838D01*
X151287720Y-89199114D01*
X151287716Y-89199112D01*
X151086887Y-89127995D01*
X151086883Y-89127994D01*
X151082012Y-89126269D01*
X151076919Y-89125362D01*
X151076916Y-89125361D01*
X150867173Y-89088000D01*
X150867167Y-89087999D01*
X150862084Y-89087094D01*
X150788252Y-89086192D01*
X150643881Y-89084428D01*
X150643879Y-89084428D01*
X150638711Y-89084365D01*
X150417891Y-89118155D01*
X150205556Y-89187557D01*
X150175243Y-89203337D01*
X150064474Y-89261000D01*
X150007407Y-89290707D01*
X150003274Y-89293810D01*
X150003271Y-89293812D01*
X149979047Y-89312000D01*
X149828765Y-89424835D01*
X149674429Y-89586338D01*
X149567001Y-89743821D01*
X149512093Y-89788821D01*
X149441568Y-89796992D01*
X149377821Y-89765738D01*
X149357124Y-89741254D01*
X149276622Y-89616817D01*
X149276620Y-89616814D01*
X149273814Y-89612477D01*
X149123470Y-89447251D01*
X149119419Y-89444052D01*
X149119415Y-89444048D01*
X148952214Y-89312000D01*
X148952210Y-89311998D01*
X148948159Y-89308798D01*
X148752589Y-89200838D01*
X148747720Y-89199114D01*
X148747716Y-89199112D01*
X148546887Y-89127995D01*
X148546883Y-89127994D01*
X148542012Y-89126269D01*
X148536919Y-89125362D01*
X148536916Y-89125361D01*
X148327173Y-89088000D01*
X148327167Y-89087999D01*
X148322084Y-89087094D01*
X148248252Y-89086192D01*
X148103881Y-89084428D01*
X148103879Y-89084428D01*
X148098711Y-89084365D01*
X147877891Y-89118155D01*
X147665556Y-89187557D01*
X147635243Y-89203337D01*
X147524474Y-89261000D01*
X147467407Y-89290707D01*
X147463274Y-89293810D01*
X147463271Y-89293812D01*
X147439047Y-89312000D01*
X147288765Y-89424835D01*
X147134429Y-89586338D01*
X147027001Y-89743821D01*
X146972093Y-89788821D01*
X146901568Y-89796992D01*
X146837821Y-89765738D01*
X146817124Y-89741254D01*
X146736622Y-89616817D01*
X146736620Y-89616814D01*
X146733814Y-89612477D01*
X146583470Y-89447251D01*
X146579419Y-89444052D01*
X146579415Y-89444048D01*
X146412214Y-89312000D01*
X146412210Y-89311998D01*
X146408159Y-89308798D01*
X146212589Y-89200838D01*
X146207720Y-89199114D01*
X146207716Y-89199112D01*
X146006887Y-89127995D01*
X146006883Y-89127994D01*
X146002012Y-89126269D01*
X145996919Y-89125362D01*
X145996916Y-89125361D01*
X145787173Y-89088000D01*
X145787167Y-89087999D01*
X145782084Y-89087094D01*
X145708252Y-89086192D01*
X145563881Y-89084428D01*
X145563879Y-89084428D01*
X145558711Y-89084365D01*
X145337891Y-89118155D01*
X145125556Y-89187557D01*
X145095243Y-89203337D01*
X144984474Y-89261000D01*
X144927407Y-89290707D01*
X144923274Y-89293810D01*
X144923271Y-89293812D01*
X144899047Y-89312000D01*
X144748765Y-89424835D01*
X144594429Y-89586338D01*
X144487001Y-89743821D01*
X144432093Y-89788821D01*
X144361568Y-89796992D01*
X144297821Y-89765738D01*
X144277124Y-89741254D01*
X144196622Y-89616817D01*
X144196620Y-89616814D01*
X144193814Y-89612477D01*
X144043470Y-89447251D01*
X144039419Y-89444052D01*
X144039415Y-89444048D01*
X143872214Y-89312000D01*
X143872210Y-89311998D01*
X143868159Y-89308798D01*
X143672589Y-89200838D01*
X143667720Y-89199114D01*
X143667716Y-89199112D01*
X143466887Y-89127995D01*
X143466883Y-89127994D01*
X143462012Y-89126269D01*
X143456919Y-89125362D01*
X143456916Y-89125361D01*
X143247173Y-89088000D01*
X143247167Y-89087999D01*
X143242084Y-89087094D01*
X143168252Y-89086192D01*
X143023881Y-89084428D01*
X143023879Y-89084428D01*
X143018711Y-89084365D01*
X142797891Y-89118155D01*
X142585556Y-89187557D01*
X142555243Y-89203337D01*
X142444474Y-89261000D01*
X142387407Y-89290707D01*
X142383274Y-89293810D01*
X142383271Y-89293812D01*
X142359047Y-89312000D01*
X142208765Y-89424835D01*
X142054429Y-89586338D01*
X141947001Y-89743821D01*
X141892093Y-89788821D01*
X141821568Y-89796992D01*
X141757821Y-89765738D01*
X141737124Y-89741254D01*
X141656622Y-89616817D01*
X141656620Y-89616814D01*
X141653814Y-89612477D01*
X141503470Y-89447251D01*
X141499419Y-89444052D01*
X141499415Y-89444048D01*
X141332214Y-89312000D01*
X141332210Y-89311998D01*
X141328159Y-89308798D01*
X141132589Y-89200838D01*
X141127720Y-89199114D01*
X141127716Y-89199112D01*
X140926887Y-89127995D01*
X140926883Y-89127994D01*
X140922012Y-89126269D01*
X140916919Y-89125362D01*
X140916916Y-89125361D01*
X140707173Y-89088000D01*
X140707167Y-89087999D01*
X140702084Y-89087094D01*
X140628252Y-89086192D01*
X140483881Y-89084428D01*
X140483879Y-89084428D01*
X140478711Y-89084365D01*
X140257891Y-89118155D01*
X140045556Y-89187557D01*
X140015243Y-89203337D01*
X139904474Y-89261000D01*
X139847407Y-89290707D01*
X139843274Y-89293810D01*
X139843271Y-89293812D01*
X139819047Y-89312000D01*
X139668765Y-89424835D01*
X139514429Y-89586338D01*
X139407001Y-89743821D01*
X139352093Y-89788821D01*
X139281568Y-89796992D01*
X139217821Y-89765738D01*
X139197124Y-89741254D01*
X139116622Y-89616817D01*
X139116620Y-89616814D01*
X139113814Y-89612477D01*
X138963470Y-89447251D01*
X138959419Y-89444052D01*
X138959415Y-89444048D01*
X138792214Y-89312000D01*
X138792210Y-89311998D01*
X138788159Y-89308798D01*
X138592589Y-89200838D01*
X138587720Y-89199114D01*
X138587716Y-89199112D01*
X138386887Y-89127995D01*
X138386883Y-89127994D01*
X138382012Y-89126269D01*
X138376919Y-89125362D01*
X138376916Y-89125361D01*
X138167173Y-89088000D01*
X138167167Y-89087999D01*
X138162084Y-89087094D01*
X138088252Y-89086192D01*
X137943881Y-89084428D01*
X137943879Y-89084428D01*
X137938711Y-89084365D01*
X137717891Y-89118155D01*
X137505556Y-89187557D01*
X137475243Y-89203337D01*
X137364474Y-89261000D01*
X137307407Y-89290707D01*
X137303274Y-89293810D01*
X137303271Y-89293812D01*
X137279047Y-89312000D01*
X137128765Y-89424835D01*
X136974429Y-89586338D01*
X136867001Y-89743821D01*
X136812093Y-89788821D01*
X136741568Y-89796992D01*
X136677821Y-89765738D01*
X136657124Y-89741254D01*
X136576622Y-89616817D01*
X136576620Y-89616814D01*
X136573814Y-89612477D01*
X136423470Y-89447251D01*
X136419419Y-89444052D01*
X136419415Y-89444048D01*
X136252214Y-89312000D01*
X136252210Y-89311998D01*
X136248159Y-89308798D01*
X136052589Y-89200838D01*
X136047720Y-89199114D01*
X136047716Y-89199112D01*
X135846887Y-89127995D01*
X135846883Y-89127994D01*
X135842012Y-89126269D01*
X135836919Y-89125362D01*
X135836916Y-89125361D01*
X135627173Y-89088000D01*
X135627167Y-89087999D01*
X135622084Y-89087094D01*
X135548252Y-89086192D01*
X135403881Y-89084428D01*
X135403879Y-89084428D01*
X135398711Y-89084365D01*
X135177891Y-89118155D01*
X134965556Y-89187557D01*
X134935243Y-89203337D01*
X134824474Y-89261000D01*
X134767407Y-89290707D01*
X134763274Y-89293810D01*
X134763271Y-89293812D01*
X134739047Y-89312000D01*
X134588765Y-89424835D01*
X134434429Y-89586338D01*
X134327001Y-89743821D01*
X134272093Y-89788821D01*
X134201568Y-89796992D01*
X134137821Y-89765738D01*
X134117124Y-89741254D01*
X134036622Y-89616817D01*
X134036620Y-89616814D01*
X134033814Y-89612477D01*
X133883470Y-89447251D01*
X133879419Y-89444052D01*
X133879415Y-89444048D01*
X133712214Y-89312000D01*
X133712210Y-89311998D01*
X133708159Y-89308798D01*
X133512589Y-89200838D01*
X133507720Y-89199114D01*
X133507716Y-89199112D01*
X133306887Y-89127995D01*
X133306883Y-89127994D01*
X133302012Y-89126269D01*
X133296919Y-89125362D01*
X133296916Y-89125361D01*
X133087173Y-89088000D01*
X133087167Y-89087999D01*
X133082084Y-89087094D01*
X133008252Y-89086192D01*
X132863881Y-89084428D01*
X132863879Y-89084428D01*
X132858711Y-89084365D01*
X132637891Y-89118155D01*
X132425556Y-89187557D01*
X132395243Y-89203337D01*
X132284474Y-89261000D01*
X132227407Y-89290707D01*
X132223274Y-89293810D01*
X132223271Y-89293812D01*
X132199047Y-89312000D01*
X132048765Y-89424835D01*
X131894429Y-89586338D01*
X131787001Y-89743821D01*
X131732093Y-89788821D01*
X131661568Y-89796992D01*
X131597821Y-89765738D01*
X131577124Y-89741254D01*
X131496622Y-89616817D01*
X131496620Y-89616814D01*
X131493814Y-89612477D01*
X131343470Y-89447251D01*
X131339419Y-89444052D01*
X131339415Y-89444048D01*
X131172214Y-89312000D01*
X131172210Y-89311998D01*
X131168159Y-89308798D01*
X130972589Y-89200838D01*
X130967720Y-89199114D01*
X130967716Y-89199112D01*
X130766887Y-89127995D01*
X130766883Y-89127994D01*
X130762012Y-89126269D01*
X130756919Y-89125362D01*
X130756916Y-89125361D01*
X130547173Y-89088000D01*
X130547167Y-89087999D01*
X130542084Y-89087094D01*
X130468252Y-89086192D01*
X130323881Y-89084428D01*
X130323879Y-89084428D01*
X130318711Y-89084365D01*
X130097891Y-89118155D01*
X129885556Y-89187557D01*
X129855243Y-89203337D01*
X129744474Y-89261000D01*
X129687407Y-89290707D01*
X129683274Y-89293810D01*
X129683271Y-89293812D01*
X129659047Y-89312000D01*
X129508765Y-89424835D01*
X129354429Y-89586338D01*
X129228543Y-89770880D01*
X129134488Y-89973505D01*
X129074789Y-90188770D01*
X129051051Y-90410895D01*
X75253291Y-90410895D01*
X75237062Y-90370727D01*
X75234077Y-90364383D01*
X75069466Y-90059942D01*
X75065782Y-90053953D01*
X74868264Y-89769763D01*
X74863943Y-89764232D01*
X74635979Y-89503831D01*
X74631059Y-89498807D01*
X74375495Y-89265444D01*
X74370046Y-89261000D01*
X74090064Y-89057582D01*
X74084142Y-89053765D01*
X73817438Y-88902256D01*
X73768088Y-88851217D01*
X73754165Y-88781599D01*
X73780091Y-88715505D01*
X73837634Y-88673920D01*
X73879675Y-88666700D01*
X225531473Y-88666700D01*
X225599594Y-88686702D01*
G37*
%TD.AperFunction*%
%TD*%
M02*
