%TF.GenerationSoftware,KiCad,Pcbnew,(6.0.7-1)-1*%
%TF.CreationDate,2024-04-18T04:23:32-04:00*%
%TF.ProjectId,EM_Harpsichord_Sensor_Daughterboard,454d5f48-6172-4707-9369-63686f72645f,rev?*%
%TF.SameCoordinates,Original*%
%TF.FileFunction,Legend,Top*%
%TF.FilePolarity,Positive*%
%FSLAX46Y46*%
G04 Gerber Fmt 4.6, Leading zero omitted, Abs format (unit mm)*
G04 Created by KiCad (PCBNEW (6.0.7-1)-1) date 2024-04-18 04:23:32*
%MOMM*%
%LPD*%
G01*
G04 APERTURE LIST*
G04 Aperture macros list*
%AMRoundRect*
0 Rectangle with rounded corners*
0 $1 Rounding radius*
0 $2 $3 $4 $5 $6 $7 $8 $9 X,Y pos of 4 corners*
0 Add a 4 corners polygon primitive as box body*
4,1,4,$2,$3,$4,$5,$6,$7,$8,$9,$2,$3,0*
0 Add four circle primitives for the rounded corners*
1,1,$1+$1,$2,$3*
1,1,$1+$1,$4,$5*
1,1,$1+$1,$6,$7*
1,1,$1+$1,$8,$9*
0 Add four rect primitives between the rounded corners*
20,1,$1+$1,$2,$3,$4,$5,0*
20,1,$1+$1,$4,$5,$6,$7,0*
20,1,$1+$1,$6,$7,$8,$9,0*
20,1,$1+$1,$8,$9,$2,$3,0*%
G04 Aperture macros list end*
%ADD10C,0.150000*%
%ADD11C,0.120000*%
%ADD12C,2.000000*%
%ADD13RoundRect,0.250000X0.600000X0.725000X-0.600000X0.725000X-0.600000X-0.725000X0.600000X-0.725000X0*%
%ADD14O,1.700000X1.950000*%
%ADD15O,6.300000X12.000000*%
%ADD16RoundRect,0.200000X-0.275000X0.200000X-0.275000X-0.200000X0.275000X-0.200000X0.275000X0.200000X0*%
%ADD17C,1.600000*%
%ADD18RoundRect,0.249700X0.500300X-0.300300X0.500300X0.300300X-0.500300X0.300300X-0.500300X-0.300300X0*%
%ADD19O,1.500000X1.100000*%
G04 APERTURE END LIST*
D10*
%TO.C,J1*%
X101666666Y-81452380D02*
X101666666Y-82166666D01*
X101619047Y-82309523D01*
X101523809Y-82404761D01*
X101380952Y-82452380D01*
X101285714Y-82452380D01*
X102666666Y-82452380D02*
X102095238Y-82452380D01*
X102380952Y-82452380D02*
X102380952Y-81452380D01*
X102285714Y-81595238D01*
X102190476Y-81690476D01*
X102095238Y-81738095D01*
%TO.C,TP2*%
X100738095Y-92950380D02*
X101309523Y-92950380D01*
X101023809Y-93950380D02*
X101023809Y-92950380D01*
X101642857Y-93950380D02*
X101642857Y-92950380D01*
X102023809Y-92950380D01*
X102119047Y-92998000D01*
X102166666Y-93045619D01*
X102214285Y-93140857D01*
X102214285Y-93283714D01*
X102166666Y-93378952D01*
X102119047Y-93426571D01*
X102023809Y-93474190D01*
X101642857Y-93474190D01*
X102595238Y-93045619D02*
X102642857Y-92998000D01*
X102738095Y-92950380D01*
X102976190Y-92950380D01*
X103071428Y-92998000D01*
X103119047Y-93045619D01*
X103166666Y-93140857D01*
X103166666Y-93236095D01*
X103119047Y-93378952D01*
X102547619Y-93950380D01*
X103166666Y-93950380D01*
%TO.C,R2*%
X100083333Y-99027380D02*
X99750000Y-98551190D01*
X99511904Y-99027380D02*
X99511904Y-98027380D01*
X99892857Y-98027380D01*
X99988095Y-98075000D01*
X100035714Y-98122619D01*
X100083333Y-98217857D01*
X100083333Y-98360714D01*
X100035714Y-98455952D01*
X99988095Y-98503571D01*
X99892857Y-98551190D01*
X99511904Y-98551190D01*
X100464285Y-98122619D02*
X100511904Y-98075000D01*
X100607142Y-98027380D01*
X100845238Y-98027380D01*
X100940476Y-98075000D01*
X100988095Y-98122619D01*
X101035714Y-98217857D01*
X101035714Y-98313095D01*
X100988095Y-98455952D01*
X100416666Y-99027380D01*
X101035714Y-99027380D01*
%TO.C,R4*%
X105583333Y-99027380D02*
X105250000Y-98551190D01*
X105011904Y-99027380D02*
X105011904Y-98027380D01*
X105392857Y-98027380D01*
X105488095Y-98075000D01*
X105535714Y-98122619D01*
X105583333Y-98217857D01*
X105583333Y-98360714D01*
X105535714Y-98455952D01*
X105488095Y-98503571D01*
X105392857Y-98551190D01*
X105011904Y-98551190D01*
X106440476Y-98360714D02*
X106440476Y-99027380D01*
X106202380Y-97979761D02*
X105964285Y-98694047D01*
X106583333Y-98694047D01*
%TO.C,R1*%
X97374500Y-99102940D02*
X97041167Y-98626750D01*
X96803071Y-99102940D02*
X96803071Y-98102940D01*
X97184024Y-98102940D01*
X97279262Y-98150560D01*
X97326881Y-98198179D01*
X97374500Y-98293417D01*
X97374500Y-98436274D01*
X97326881Y-98531512D01*
X97279262Y-98579131D01*
X97184024Y-98626750D01*
X96803071Y-98626750D01*
X98326881Y-99102940D02*
X97755452Y-99102940D01*
X98041167Y-99102940D02*
X98041167Y-98102940D01*
X97945928Y-98245798D01*
X97850690Y-98341036D01*
X97755452Y-98388655D01*
%TO.C,U1*%
X98738095Y-111702380D02*
X98738095Y-110702380D01*
X99071428Y-110702380D02*
X99642857Y-110702380D01*
X99357142Y-111702380D02*
X99357142Y-110702380D01*
X100547619Y-111702380D02*
X100214285Y-111226190D01*
X99976190Y-111702380D02*
X99976190Y-110702380D01*
X100357142Y-110702380D01*
X100452380Y-110750000D01*
X100500000Y-110797619D01*
X100547619Y-110892857D01*
X100547619Y-111035714D01*
X100500000Y-111130952D01*
X100452380Y-111178571D01*
X100357142Y-111226190D01*
X99976190Y-111226190D01*
X100928571Y-110797619D02*
X100976190Y-110750000D01*
X101071428Y-110702380D01*
X101309523Y-110702380D01*
X101404761Y-110750000D01*
X101452380Y-110797619D01*
X101500000Y-110892857D01*
X101500000Y-110988095D01*
X101452380Y-111130952D01*
X100880952Y-111702380D01*
X101500000Y-111702380D01*
X102119047Y-110702380D02*
X102214285Y-110702380D01*
X102309523Y-110750000D01*
X102357142Y-110797619D01*
X102404761Y-110892857D01*
X102452380Y-111083333D01*
X102452380Y-111321428D01*
X102404761Y-111511904D01*
X102357142Y-111607142D01*
X102309523Y-111654761D01*
X102214285Y-111702380D01*
X102119047Y-111702380D01*
X102023809Y-111654761D01*
X101976190Y-111607142D01*
X101928571Y-111511904D01*
X101880952Y-111321428D01*
X101880952Y-111083333D01*
X101928571Y-110892857D01*
X101976190Y-110797619D01*
X102023809Y-110750000D01*
X102119047Y-110702380D01*
X103309523Y-111035714D02*
X103309523Y-111702380D01*
X103071428Y-110654761D02*
X102833333Y-111369047D01*
X103452380Y-111369047D01*
X104023809Y-110702380D02*
X104119047Y-110702380D01*
X104214285Y-110750000D01*
X104261904Y-110797619D01*
X104309523Y-110892857D01*
X104357142Y-111083333D01*
X104357142Y-111321428D01*
X104309523Y-111511904D01*
X104261904Y-111607142D01*
X104214285Y-111654761D01*
X104119047Y-111702380D01*
X104023809Y-111702380D01*
X103928571Y-111654761D01*
X103880952Y-111607142D01*
X103833333Y-111511904D01*
X103785714Y-111321428D01*
X103785714Y-111083333D01*
X103833333Y-110892857D01*
X103880952Y-110797619D01*
X103928571Y-110750000D01*
X104023809Y-110702380D01*
X104690476Y-110702380D02*
X105309523Y-110702380D01*
X104976190Y-111083333D01*
X105119047Y-111083333D01*
X105214285Y-111130952D01*
X105261904Y-111178571D01*
X105309523Y-111273809D01*
X105309523Y-111511904D01*
X105261904Y-111607142D01*
X105214285Y-111654761D01*
X105119047Y-111702380D01*
X104833333Y-111702380D01*
X104738095Y-111654761D01*
X104690476Y-111607142D01*
%TO.C,R3*%
X102833333Y-99027380D02*
X102500000Y-98551190D01*
X102261904Y-99027380D02*
X102261904Y-98027380D01*
X102642857Y-98027380D01*
X102738095Y-98075000D01*
X102785714Y-98122619D01*
X102833333Y-98217857D01*
X102833333Y-98360714D01*
X102785714Y-98455952D01*
X102738095Y-98503571D01*
X102642857Y-98551190D01*
X102261904Y-98551190D01*
X103166666Y-98027380D02*
X103785714Y-98027380D01*
X103452380Y-98408333D01*
X103595238Y-98408333D01*
X103690476Y-98455952D01*
X103738095Y-98503571D01*
X103785714Y-98598809D01*
X103785714Y-98836904D01*
X103738095Y-98932142D01*
X103690476Y-98979761D01*
X103595238Y-99027380D01*
X103309523Y-99027380D01*
X103214285Y-98979761D01*
X103166666Y-98932142D01*
D11*
%TO.C,TP3*%
X98700000Y-108750000D02*
G75*
G03*
X98700000Y-108750000I-1200000J0D01*
G01*
%TO.C,J1*%
X99500000Y-76750000D02*
X99500000Y-71250000D01*
X106810000Y-70640000D02*
X106810000Y-82360000D01*
X102000000Y-76750000D02*
X102000000Y-71250000D01*
X98110000Y-82360000D02*
X98110000Y-77860000D01*
X105390000Y-82360000D02*
X105390000Y-77860000D01*
X101750000Y-70640000D02*
X106810000Y-70640000D01*
X104500000Y-76750000D02*
X104500000Y-71250000D01*
X102000000Y-71250000D02*
X101500000Y-71250000D01*
X96690000Y-82360000D02*
X98110000Y-82360000D01*
X104250000Y-81450000D02*
X104550000Y-82050000D01*
X104550000Y-82050000D02*
X103950000Y-82050000D01*
X99000000Y-76750000D02*
X99500000Y-76750000D01*
X98110000Y-77860000D02*
X101750000Y-77860000D01*
X104500000Y-71250000D02*
X104000000Y-71250000D01*
X96690000Y-70640000D02*
X96690000Y-82360000D01*
X99500000Y-71250000D02*
X99000000Y-71250000D01*
X101500000Y-71250000D02*
X101500000Y-76750000D01*
X99000000Y-71250000D02*
X99000000Y-76750000D01*
X101500000Y-76750000D02*
X102000000Y-76750000D01*
X103950000Y-82050000D02*
X104250000Y-81450000D01*
X106810000Y-82360000D02*
X105390000Y-82360000D01*
X104000000Y-76750000D02*
X104500000Y-76750000D01*
X101750000Y-70640000D02*
X96690000Y-70640000D01*
X104000000Y-71250000D02*
X104000000Y-76750000D01*
X105390000Y-77860000D02*
X101750000Y-77860000D01*
%TO.C,TP2*%
X103200000Y-91500000D02*
G75*
G03*
X103200000Y-91500000I-1200000J0D01*
G01*
%TO.C,R2*%
X100772500Y-100587742D02*
X100772500Y-101062258D01*
X99727500Y-100587742D02*
X99727500Y-101062258D01*
%TO.C,R4*%
X106272500Y-100587742D02*
X106272500Y-101062258D01*
X105227500Y-100587742D02*
X105227500Y-101062258D01*
%TO.C,R1*%
X96977500Y-100587742D02*
X96977500Y-101062258D01*
X98022500Y-100587742D02*
X98022500Y-101062258D01*
%TO.C,U1*%
X100500000Y-105025000D02*
X100500000Y-105525000D01*
X100500000Y-105525000D02*
X101000000Y-105525000D01*
X101000000Y-108525000D02*
X101500000Y-108525000D01*
X102000000Y-109025000D02*
X102000000Y-108025000D01*
X100500000Y-108525000D02*
X101000000Y-108525000D01*
X101500000Y-108025000D02*
X101500000Y-108525000D01*
X101000000Y-106025000D02*
X102500000Y-106025000D01*
X101500000Y-109025000D02*
X102000000Y-108525000D01*
X102500000Y-105525000D02*
X103000000Y-105525000D01*
X100150000Y-110345000D02*
X103730000Y-110345000D01*
X103000000Y-105525000D02*
X103000000Y-105025000D01*
X101000000Y-105525000D02*
X101500000Y-106025000D01*
X101500000Y-108525000D02*
X101500000Y-109025000D01*
X103929346Y-103771072D02*
X99629346Y-103771072D01*
X99820000Y-110015000D02*
X100150000Y-110345000D01*
X102000000Y-108525000D02*
X103000000Y-108525000D01*
X103000000Y-108525000D02*
X103000000Y-109025000D01*
X102500000Y-105525000D02*
X102506226Y-105688944D01*
X100500000Y-109025000D02*
X100500000Y-108525000D01*
X102000000Y-106025000D02*
X102500000Y-105525000D01*
X102000000Y-108525000D02*
X101500000Y-108025000D01*
X102500000Y-105525000D02*
X102346433Y-105479345D01*
%TO.C,TP1*%
X106950000Y-104000000D02*
G75*
G03*
X106950000Y-104000000I-1200000J0D01*
G01*
%TO.C,R3*%
X102477500Y-100587742D02*
X102477500Y-101062258D01*
X103522500Y-100587742D02*
X103522500Y-101062258D01*
%TD*%
%LPC*%
D12*
%TO.C,TP3*%
X97500000Y-108750000D03*
%TD*%
D13*
%TO.C,J1*%
X104250000Y-79950000D03*
D14*
X101750000Y-79950000D03*
X99250000Y-79950000D03*
%TD*%
D15*
%TO.C,TP2*%
X102000000Y-91500000D03*
%TD*%
D16*
%TO.C,R2*%
X100250000Y-101650000D03*
X100250000Y-100000000D03*
%TD*%
%TO.C,R4*%
X105750000Y-100000000D03*
X105750000Y-101650000D03*
%TD*%
%TO.C,R1*%
X97500000Y-101650000D03*
X97500000Y-100000000D03*
%TD*%
D17*
%TO.C,U1*%
X100500000Y-107025000D03*
X103000000Y-107025000D03*
D18*
X103000000Y-109525000D03*
D19*
X100500000Y-109525000D03*
X100500000Y-104525000D03*
X103000000Y-104525000D03*
%TD*%
D12*
%TO.C,TP1*%
X105750000Y-104000000D03*
%TD*%
D16*
%TO.C,R3*%
X103000000Y-101650000D03*
X103000000Y-100000000D03*
%TD*%
M02*
