%TF.GenerationSoftware,KiCad,Pcbnew,(6.0.7-1)-1*%
%TF.CreationDate,2024-04-18T04:23:32-04:00*%
%TF.ProjectId,EM_Harpsichord_Sensor_Daughterboard,454d5f48-6172-4707-9369-63686f72645f,rev?*%
%TF.SameCoordinates,Original*%
%TF.FileFunction,Copper,L1,Top*%
%TF.FilePolarity,Positive*%
%FSLAX46Y46*%
G04 Gerber Fmt 4.6, Leading zero omitted, Abs format (unit mm)*
G04 Created by KiCad (PCBNEW (6.0.7-1)-1) date 2024-04-18 04:23:32*
%MOMM*%
%LPD*%
G01*
G04 APERTURE LIST*
G04 Aperture macros list*
%AMRoundRect*
0 Rectangle with rounded corners*
0 $1 Rounding radius*
0 $2 $3 $4 $5 $6 $7 $8 $9 X,Y pos of 4 corners*
0 Add a 4 corners polygon primitive as box body*
4,1,4,$2,$3,$4,$5,$6,$7,$8,$9,$2,$3,0*
0 Add four circle primitives for the rounded corners*
1,1,$1+$1,$2,$3*
1,1,$1+$1,$4,$5*
1,1,$1+$1,$6,$7*
1,1,$1+$1,$8,$9*
0 Add four rect primitives between the rounded corners*
20,1,$1+$1,$2,$3,$4,$5,0*
20,1,$1+$1,$4,$5,$6,$7,0*
20,1,$1+$1,$6,$7,$8,$9,0*
20,1,$1+$1,$8,$9,$2,$3,0*%
G04 Aperture macros list end*
%TA.AperFunction,ComponentPad*%
%ADD10C,2.000000*%
%TD*%
%TA.AperFunction,ComponentPad*%
%ADD11RoundRect,0.250000X0.600000X0.725000X-0.600000X0.725000X-0.600000X-0.725000X0.600000X-0.725000X0*%
%TD*%
%TA.AperFunction,ComponentPad*%
%ADD12O,1.700000X1.950000*%
%TD*%
%TA.AperFunction,ComponentPad*%
%ADD13O,6.300000X12.000000*%
%TD*%
%TA.AperFunction,SMDPad,CuDef*%
%ADD14RoundRect,0.200000X-0.275000X0.200000X-0.275000X-0.200000X0.275000X-0.200000X0.275000X0.200000X0*%
%TD*%
%TA.AperFunction,WasherPad*%
%ADD15C,1.600000*%
%TD*%
%TA.AperFunction,ComponentPad*%
%ADD16RoundRect,0.249700X0.500300X-0.300300X0.500300X0.300300X-0.500300X0.300300X-0.500300X-0.300300X0*%
%TD*%
%TA.AperFunction,ComponentPad*%
%ADD17O,1.500000X1.100000*%
%TD*%
%TA.AperFunction,ViaPad*%
%ADD18C,0.800000*%
%TD*%
%TA.AperFunction,Conductor*%
%ADD19C,0.600000*%
%TD*%
G04 APERTURE END LIST*
D10*
%TO.P,TP3,1,1*%
%TO.N,Net-(R1-Pad2)*%
X97500000Y-108750000D03*
%TD*%
D11*
%TO.P,J1,1,Pin_1*%
%TO.N,GND*%
X104250000Y-79950000D03*
D12*
%TO.P,J1,2,Pin_2*%
%TO.N,+5V*%
X101750000Y-79950000D03*
%TO.P,J1,3,Pin_3*%
%TO.N,Net-(J1-Pad3)*%
X99250000Y-79950000D03*
%TD*%
D13*
%TO.P,TP2,1,1*%
%TO.N,GND*%
X102000000Y-91500000D03*
%TD*%
D14*
%TO.P,R2,2*%
%TO.N,Net-(R2-Pad2)*%
X100250000Y-101650000D03*
%TO.P,R2,1*%
%TO.N,+5V*%
X100250000Y-100000000D03*
%TD*%
%TO.P,R4,1*%
%TO.N,+5V*%
X105750000Y-100000000D03*
%TO.P,R4,2*%
%TO.N,Net-(J1-Pad3)*%
X105750000Y-101650000D03*
%TD*%
%TO.P,R1,2*%
%TO.N,Net-(R1-Pad2)*%
X97500000Y-101650000D03*
%TO.P,R1,1*%
%TO.N,+5V*%
X97500000Y-100000000D03*
%TD*%
D15*
%TO.P,U1,*%
%TO.N,*%
X100500000Y-107025000D03*
X103000000Y-107025000D03*
D16*
%TO.P,U1,1,K*%
%TO.N,GND*%
X103000000Y-109525000D03*
D17*
%TO.P,U1,2,A*%
%TO.N,Net-(R1-Pad2)*%
X100500000Y-109525000D03*
%TO.P,U1,3,C*%
%TO.N,Net-(J1-Pad3)*%
X100500000Y-104525000D03*
%TO.P,U1,4,E*%
%TO.N,GND*%
X103000000Y-104525000D03*
%TD*%
D10*
%TO.P,TP1,1,1*%
%TO.N,Net-(J1-Pad3)*%
X105750000Y-104000000D03*
%TD*%
D14*
%TO.P,R3,2*%
%TO.N,Net-(J1-Pad3)*%
X103000000Y-101650000D03*
%TO.P,R3,1*%
%TO.N,Net-(R2-Pad2)*%
X103000000Y-100000000D03*
%TD*%
D18*
%TO.N,GND*%
X99500000Y-84000000D03*
X97250000Y-111000000D03*
X106250000Y-111000000D03*
X106250000Y-106750000D03*
%TD*%
D19*
%TO.N,Net-(R1-Pad2)*%
X97500000Y-108750000D02*
X98250000Y-109500000D01*
X98250000Y-109500000D02*
X100475000Y-109500000D01*
X100475000Y-109500000D02*
X100500000Y-109525000D01*
X97500000Y-108750000D02*
X97500000Y-106525000D01*
%TO.N,GND*%
X103275000Y-104525000D02*
X104500000Y-105750000D01*
X103000000Y-104525000D02*
X103275000Y-104525000D01*
%TO.N,Net-(J1-Pad3)*%
X104500000Y-102750000D02*
X105750000Y-104000000D01*
X102000000Y-102750000D02*
X104500000Y-102750000D01*
X105750000Y-101650000D02*
X105925000Y-101650000D01*
X106000000Y-84500000D02*
X103750000Y-84500000D01*
X105925000Y-101650000D02*
X106750000Y-100825000D01*
X106750000Y-100825000D02*
X106750000Y-85250000D01*
X106750000Y-85250000D02*
X106000000Y-84500000D01*
X103750000Y-84500000D02*
X103750000Y-84450000D01*
X103750000Y-84450000D02*
X99250000Y-79950000D01*
%TO.N,Net-(R1-Pad2)*%
X97500000Y-102750000D02*
X97500000Y-106525000D01*
%TO.N,+5V*%
X101750000Y-79950000D02*
X100050000Y-78250000D01*
X100050000Y-78250000D02*
X98375000Y-78250000D01*
X98375000Y-78250000D02*
X97500000Y-79125000D01*
X97500000Y-79125000D02*
X97500000Y-100000000D01*
X100250000Y-100000000D02*
X101500000Y-98750000D01*
X101500000Y-98750000D02*
X104500000Y-98750000D01*
X104500000Y-98750000D02*
X105750000Y-100000000D01*
%TO.N,Net-(J1-Pad3)*%
X100500000Y-104525000D02*
X100500000Y-104150000D01*
X100500000Y-104150000D02*
X103000000Y-101650000D01*
%TO.N,Net-(R1-Pad2)*%
X97500000Y-101650000D02*
X97500000Y-106525000D01*
%TO.N,+5V*%
X97500000Y-100000000D02*
X100250000Y-100000000D01*
%TO.N,Net-(R2-Pad2)*%
X103000000Y-100000000D02*
X102575000Y-100000000D01*
X102575000Y-100000000D02*
X100925000Y-101650000D01*
X100925000Y-101650000D02*
X100000000Y-101650000D01*
%TO.N,Net-(J1-Pad3)*%
X103000000Y-101650000D02*
X105750000Y-101650000D01*
%TD*%
%TA.AperFunction,Conductor*%
%TO.N,GND*%
G36*
X104397923Y-104719878D02*
G01*
X104451345Y-104767880D01*
X104523235Y-104885193D01*
X104523242Y-104885203D01*
X104525824Y-104889416D01*
X104680031Y-105069969D01*
X104860584Y-105224176D01*
X104864792Y-105226755D01*
X104864798Y-105226759D01*
X105058817Y-105345654D01*
X105063037Y-105348240D01*
X105067607Y-105350133D01*
X105067611Y-105350135D01*
X105277833Y-105437211D01*
X105282406Y-105439105D01*
X105362609Y-105458360D01*
X105508476Y-105493380D01*
X105508482Y-105493381D01*
X105513289Y-105494535D01*
X105750000Y-105513165D01*
X105986711Y-105494535D01*
X105991518Y-105493381D01*
X105991524Y-105493380D01*
X106137391Y-105458360D01*
X106217594Y-105439105D01*
X106222167Y-105437211D01*
X106432389Y-105350135D01*
X106432393Y-105350133D01*
X106436963Y-105348240D01*
X106441183Y-105345654D01*
X106635202Y-105226759D01*
X106635208Y-105226755D01*
X106639416Y-105224176D01*
X106643178Y-105220963D01*
X106643182Y-105220960D01*
X106723010Y-105152781D01*
X106787799Y-105123750D01*
X106857999Y-105134355D01*
X106911322Y-105181230D01*
X106930840Y-105248592D01*
X106930840Y-110700633D01*
X106929340Y-110720018D01*
X106927030Y-110734851D01*
X106927030Y-110734855D01*
X106925649Y-110743724D01*
X106927306Y-110756397D01*
X106927891Y-110783711D01*
X106916738Y-110911195D01*
X106912925Y-110932821D01*
X106912925Y-110932822D01*
X106912924Y-110932825D01*
X106873897Y-111078476D01*
X106866385Y-111099114D01*
X106802661Y-111235772D01*
X106791680Y-111254792D01*
X106705195Y-111378309D01*
X106691078Y-111395134D01*
X106584455Y-111501760D01*
X106567630Y-111515878D01*
X106444116Y-111602366D01*
X106425096Y-111613348D01*
X106288436Y-111677077D01*
X106267798Y-111684589D01*
X106122148Y-111723619D01*
X106100519Y-111727433D01*
X106038445Y-111732866D01*
X105980097Y-111737972D01*
X105963451Y-111737412D01*
X105963446Y-111737800D01*
X105954477Y-111737691D01*
X105945602Y-111736309D01*
X105917382Y-111740000D01*
X105914048Y-111740436D01*
X105897707Y-111741500D01*
X97549367Y-111741500D01*
X97529982Y-111740000D01*
X97515149Y-111737690D01*
X97515145Y-111737690D01*
X97506276Y-111736309D01*
X97493603Y-111737966D01*
X97466293Y-111738551D01*
X97338806Y-111727397D01*
X97317183Y-111723585D01*
X97171533Y-111684558D01*
X97150896Y-111677046D01*
X97014240Y-111613322D01*
X96995220Y-111602340D01*
X96871703Y-111515853D01*
X96854878Y-111501735D01*
X96748265Y-111395122D01*
X96734147Y-111378297D01*
X96647660Y-111254780D01*
X96636678Y-111235760D01*
X96572954Y-111099104D01*
X96565443Y-111078466D01*
X96526417Y-110932822D01*
X96522602Y-110911191D01*
X96512349Y-110793993D01*
X96512374Y-110771758D01*
X96512770Y-110767344D01*
X96513576Y-110762552D01*
X96513729Y-110750000D01*
X96509773Y-110722376D01*
X96508500Y-110704514D01*
X96508500Y-110136609D01*
X96528502Y-110068488D01*
X96582158Y-110021995D01*
X96652432Y-110011891D01*
X96700336Y-110029176D01*
X96813037Y-110098240D01*
X96817607Y-110100133D01*
X96817611Y-110100135D01*
X97027833Y-110187211D01*
X97032406Y-110189105D01*
X97112609Y-110208360D01*
X97258476Y-110243380D01*
X97258482Y-110243381D01*
X97263289Y-110244535D01*
X97500000Y-110263165D01*
X97736711Y-110244535D01*
X97741518Y-110243381D01*
X97741524Y-110243380D01*
X97817247Y-110225200D01*
X97889756Y-110229318D01*
X97928973Y-110243592D01*
X97940716Y-110248553D01*
X97973403Y-110264354D01*
X97973408Y-110264356D01*
X97979749Y-110267421D01*
X97986607Y-110269004D01*
X97986609Y-110269005D01*
X98012426Y-110274965D01*
X98027169Y-110279332D01*
X98058685Y-110290803D01*
X98065675Y-110291686D01*
X98065683Y-110291688D01*
X98101701Y-110296238D01*
X98114253Y-110298474D01*
X98149614Y-110306638D01*
X98149617Y-110306638D01*
X98156485Y-110308224D01*
X98163531Y-110308249D01*
X98163534Y-110308249D01*
X98197056Y-110308366D01*
X98197938Y-110308395D01*
X98198769Y-110308500D01*
X98235419Y-110308500D01*
X98235859Y-110308501D01*
X98334343Y-110308845D01*
X98334348Y-110308845D01*
X98337870Y-110308857D01*
X98339070Y-110308589D01*
X98340707Y-110308500D01*
X99541074Y-110308500D01*
X99609195Y-110328502D01*
X99622065Y-110337979D01*
X99694365Y-110398646D01*
X99694371Y-110398650D01*
X99699089Y-110402609D01*
X99704481Y-110405573D01*
X99704485Y-110405576D01*
X99875598Y-110499646D01*
X99880995Y-110502613D01*
X100078861Y-110565379D01*
X100084978Y-110566065D01*
X100084982Y-110566066D01*
X100161598Y-110574659D01*
X100240413Y-110583500D01*
X100752237Y-110583500D01*
X100755293Y-110583200D01*
X100755300Y-110583200D01*
X100900466Y-110568966D01*
X100900469Y-110568965D01*
X100906592Y-110568365D01*
X101071971Y-110518435D01*
X101099407Y-110510152D01*
X101099410Y-110510151D01*
X101105315Y-110508368D01*
X101112635Y-110504476D01*
X101283153Y-110413809D01*
X101283155Y-110413808D01*
X101288599Y-110410913D01*
X101389645Y-110328502D01*
X101444689Y-110283610D01*
X101444692Y-110283607D01*
X101449464Y-110279715D01*
X101453394Y-110274965D01*
X101577858Y-110124515D01*
X101577860Y-110124512D01*
X101581783Y-110119770D01*
X101584225Y-110115254D01*
X101638628Y-110070191D01*
X101709109Y-110061652D01*
X101773018Y-110092573D01*
X101801516Y-110136242D01*
X101803458Y-110135332D01*
X101812729Y-110155124D01*
X101898004Y-110292928D01*
X101907031Y-110304317D01*
X102021717Y-110418802D01*
X102033128Y-110427814D01*
X102171070Y-110512842D01*
X102184251Y-110518989D01*
X102338471Y-110570142D01*
X102351847Y-110573009D01*
X102446158Y-110582672D01*
X102452574Y-110583000D01*
X102727885Y-110583000D01*
X102743124Y-110578525D01*
X102744329Y-110577135D01*
X102746000Y-110569452D01*
X102746000Y-110564884D01*
X103254000Y-110564884D01*
X103258475Y-110580123D01*
X103259865Y-110581328D01*
X103267548Y-110582999D01*
X103547375Y-110582999D01*
X103553894Y-110582662D01*
X103649444Y-110572748D01*
X103662838Y-110569856D01*
X103816964Y-110518435D01*
X103830124Y-110512271D01*
X103967928Y-110426996D01*
X103979317Y-110417969D01*
X104093802Y-110303283D01*
X104102814Y-110291872D01*
X104187842Y-110153930D01*
X104193989Y-110140749D01*
X104245142Y-109986529D01*
X104248009Y-109973153D01*
X104257672Y-109878842D01*
X104258000Y-109872426D01*
X104258000Y-109797115D01*
X104253525Y-109781876D01*
X104252135Y-109780671D01*
X104244452Y-109779000D01*
X103272115Y-109779000D01*
X103256876Y-109783475D01*
X103255671Y-109784865D01*
X103254000Y-109792548D01*
X103254000Y-110564884D01*
X102746000Y-110564884D01*
X102746000Y-109397000D01*
X102766002Y-109328879D01*
X102819658Y-109282386D01*
X102872000Y-109271000D01*
X104239884Y-109271000D01*
X104255123Y-109266525D01*
X104256328Y-109265135D01*
X104257999Y-109257452D01*
X104257999Y-109177625D01*
X104257662Y-109171106D01*
X104247748Y-109075556D01*
X104244856Y-109062162D01*
X104193435Y-108908036D01*
X104187271Y-108894876D01*
X104101996Y-108757072D01*
X104092969Y-108745683D01*
X103978283Y-108631198D01*
X103966872Y-108622186D01*
X103828930Y-108537158D01*
X103815749Y-108531011D01*
X103661529Y-108479858D01*
X103648153Y-108476991D01*
X103556589Y-108467609D01*
X103490862Y-108440768D01*
X103450080Y-108382652D01*
X103447192Y-108311715D01*
X103483114Y-108250476D01*
X103516182Y-108228070D01*
X103651762Y-108164849D01*
X103651767Y-108164846D01*
X103656749Y-108162523D01*
X103792297Y-108067611D01*
X103839789Y-108034357D01*
X103839792Y-108034355D01*
X103844300Y-108031198D01*
X104006198Y-107869300D01*
X104137523Y-107681749D01*
X104139846Y-107676767D01*
X104139849Y-107676762D01*
X104231961Y-107479225D01*
X104231961Y-107479224D01*
X104234284Y-107474243D01*
X104293543Y-107253087D01*
X104313498Y-107025000D01*
X104293543Y-106796913D01*
X104234284Y-106575757D01*
X104140683Y-106375027D01*
X104139849Y-106373238D01*
X104139846Y-106373233D01*
X104137523Y-106368251D01*
X104006198Y-106180700D01*
X103844300Y-106018802D01*
X103839792Y-106015645D01*
X103839789Y-106015643D01*
X103761611Y-105960902D01*
X103656749Y-105887477D01*
X103651767Y-105885154D01*
X103651762Y-105885151D01*
X103454229Y-105793041D01*
X103449243Y-105790716D01*
X103449046Y-105790663D01*
X103393194Y-105749541D01*
X103367855Y-105683220D01*
X103382395Y-105613728D01*
X103432197Y-105563129D01*
X103457041Y-105552611D01*
X103599223Y-105509683D01*
X103610565Y-105505008D01*
X103782879Y-105413388D01*
X103793095Y-105406601D01*
X103944335Y-105283253D01*
X103953039Y-105274609D01*
X104077438Y-105124237D01*
X104084297Y-105114069D01*
X104177119Y-104942395D01*
X104181872Y-104931088D01*
X104223548Y-104796456D01*
X104262799Y-104737296D01*
X104327804Y-104708749D01*
X104397923Y-104719878D01*
G37*
%TD.AperFunction*%
%TA.AperFunction,Conductor*%
G36*
X98509712Y-81217512D02*
G01*
X98531542Y-81233754D01*
X98536293Y-81236170D01*
X98536297Y-81236172D01*
X98598704Y-81267901D01*
X98737051Y-81338240D01*
X98742145Y-81339822D01*
X98742148Y-81339823D01*
X98897841Y-81388167D01*
X98957227Y-81406607D01*
X98962516Y-81407308D01*
X99180489Y-81436198D01*
X99180494Y-81436198D01*
X99185774Y-81436898D01*
X99191103Y-81436698D01*
X99191105Y-81436698D01*
X99289605Y-81433000D01*
X99416158Y-81428249D01*
X99479857Y-81414884D01*
X99488856Y-81412996D01*
X99559632Y-81418584D01*
X99603824Y-81447216D01*
X103019586Y-84862978D01*
X103037343Y-84885300D01*
X103059687Y-84921059D01*
X103078821Y-84989425D01*
X103057955Y-85057286D01*
X103003714Y-85103094D01*
X102933317Y-85112305D01*
X102920220Y-85109532D01*
X102764774Y-85067881D01*
X102758324Y-85066510D01*
X102386138Y-85007560D01*
X102379600Y-85006874D01*
X102272090Y-85001239D01*
X102256639Y-85004910D01*
X102256584Y-85004967D01*
X102254000Y-85015508D01*
X102254000Y-91227885D01*
X102258475Y-91243124D01*
X102259865Y-91244329D01*
X102267548Y-91246000D01*
X105639885Y-91246000D01*
X105655124Y-91241525D01*
X105656329Y-91240135D01*
X105658000Y-91232452D01*
X105658000Y-88555877D01*
X105657912Y-88552541D01*
X105643126Y-88270400D01*
X105642440Y-88263862D01*
X105583490Y-87891676D01*
X105582119Y-87885226D01*
X105484594Y-87521257D01*
X105482553Y-87514975D01*
X105347519Y-87163201D01*
X105344837Y-87157176D01*
X105173765Y-86821429D01*
X105170469Y-86815720D01*
X104965245Y-86499703D01*
X104961363Y-86494359D01*
X104724239Y-86201536D01*
X104719810Y-86196617D01*
X104453383Y-85930190D01*
X104448464Y-85925761D01*
X104155641Y-85688637D01*
X104150297Y-85684755D01*
X103927659Y-85540172D01*
X103881423Y-85486296D01*
X103871653Y-85415975D01*
X103901453Y-85351535D01*
X103961362Y-85313436D01*
X103996284Y-85308500D01*
X105612918Y-85308500D01*
X105681039Y-85328502D01*
X105702013Y-85345405D01*
X105904595Y-85547987D01*
X105938621Y-85610299D01*
X105941500Y-85637082D01*
X105941500Y-98743918D01*
X105921498Y-98812039D01*
X105867842Y-98858532D01*
X105797568Y-98868636D01*
X105732988Y-98839142D01*
X105726405Y-98833013D01*
X105078234Y-98184842D01*
X105077306Y-98183905D01*
X105019157Y-98124525D01*
X105019156Y-98124524D01*
X105014229Y-98119493D01*
X104977779Y-98096002D01*
X104967454Y-98088583D01*
X104933557Y-98061524D01*
X104903362Y-98046927D01*
X104889945Y-98039398D01*
X104861762Y-98021235D01*
X104855145Y-98018827D01*
X104855140Y-98018824D01*
X104821027Y-98006408D01*
X104809284Y-98001447D01*
X104776597Y-97985646D01*
X104776592Y-97985644D01*
X104770251Y-97982579D01*
X104763393Y-97980996D01*
X104763391Y-97980995D01*
X104737574Y-97975035D01*
X104722831Y-97970668D01*
X104691315Y-97959197D01*
X104684325Y-97958314D01*
X104684317Y-97958312D01*
X104648299Y-97953762D01*
X104635747Y-97951526D01*
X104600386Y-97943362D01*
X104600383Y-97943362D01*
X104593515Y-97941776D01*
X104586469Y-97941751D01*
X104586466Y-97941751D01*
X104552944Y-97941634D01*
X104552062Y-97941605D01*
X104551231Y-97941500D01*
X104514581Y-97941500D01*
X104514141Y-97941499D01*
X104415657Y-97941155D01*
X104415652Y-97941155D01*
X104412130Y-97941143D01*
X104410930Y-97941411D01*
X104409293Y-97941500D01*
X103531042Y-97941500D01*
X103462921Y-97921498D01*
X103416428Y-97867842D01*
X103406324Y-97797568D01*
X103435818Y-97732988D01*
X103483957Y-97699223D01*
X103483794Y-97698857D01*
X103485669Y-97698022D01*
X103485886Y-97697870D01*
X103486794Y-97697521D01*
X103492824Y-97694837D01*
X103828571Y-97523765D01*
X103834280Y-97520469D01*
X104150297Y-97315245D01*
X104155641Y-97311363D01*
X104448464Y-97074239D01*
X104453383Y-97069810D01*
X104719810Y-96803383D01*
X104724239Y-96798464D01*
X104961363Y-96505641D01*
X104965245Y-96500297D01*
X105170469Y-96184280D01*
X105173765Y-96178571D01*
X105344837Y-95842824D01*
X105347519Y-95836799D01*
X105482553Y-95485025D01*
X105484594Y-95478743D01*
X105582119Y-95114774D01*
X105583490Y-95108324D01*
X105642440Y-94736138D01*
X105643126Y-94729600D01*
X105657912Y-94447459D01*
X105658000Y-94444123D01*
X105658000Y-91772115D01*
X105653525Y-91756876D01*
X105652135Y-91755671D01*
X105644452Y-91754000D01*
X101872000Y-91754000D01*
X101803879Y-91733998D01*
X101757386Y-91680342D01*
X101746000Y-91628000D01*
X101746000Y-85018406D01*
X101741525Y-85003167D01*
X101741467Y-85003117D01*
X101730802Y-85001088D01*
X101620400Y-85006874D01*
X101613862Y-85007560D01*
X101241676Y-85066510D01*
X101235226Y-85067881D01*
X100871257Y-85165406D01*
X100864975Y-85167447D01*
X100513201Y-85302481D01*
X100507176Y-85305163D01*
X100171429Y-85476235D01*
X100165720Y-85479531D01*
X99849703Y-85684755D01*
X99844359Y-85688637D01*
X99551536Y-85925761D01*
X99546617Y-85930190D01*
X99280190Y-86196617D01*
X99275761Y-86201536D01*
X99038637Y-86494359D01*
X99034755Y-86499703D01*
X98829531Y-86815720D01*
X98826235Y-86821429D01*
X98655163Y-87157176D01*
X98652481Y-87163201D01*
X98552131Y-87424621D01*
X98509045Y-87481049D01*
X98442292Y-87505226D01*
X98373065Y-87489475D01*
X98323343Y-87438797D01*
X98308500Y-87379467D01*
X98308500Y-81318602D01*
X98328502Y-81250481D01*
X98382158Y-81203988D01*
X98452432Y-81193884D01*
X98509712Y-81217512D01*
G37*
%TD.AperFunction*%
%TA.AperFunction,Conductor*%
G36*
X106872961Y-70778502D02*
G01*
X106919454Y-70832158D01*
X106930840Y-70884500D01*
X106930840Y-83983258D01*
X106910838Y-84051379D01*
X106857182Y-84097872D01*
X106786908Y-84107976D01*
X106722328Y-84078482D01*
X106715745Y-84072353D01*
X106578236Y-83934844D01*
X106577308Y-83933907D01*
X106519157Y-83874525D01*
X106519156Y-83874524D01*
X106514229Y-83869493D01*
X106477779Y-83846002D01*
X106467454Y-83838583D01*
X106433557Y-83811524D01*
X106403362Y-83796927D01*
X106389945Y-83789398D01*
X106361762Y-83771235D01*
X106355145Y-83768827D01*
X106355140Y-83768824D01*
X106321027Y-83756408D01*
X106309284Y-83751447D01*
X106276597Y-83735646D01*
X106276592Y-83735644D01*
X106270251Y-83732579D01*
X106263393Y-83730996D01*
X106263391Y-83730995D01*
X106237574Y-83725035D01*
X106222831Y-83720668D01*
X106191315Y-83709197D01*
X106184325Y-83708314D01*
X106184317Y-83708312D01*
X106148299Y-83703762D01*
X106135747Y-83701526D01*
X106100386Y-83693362D01*
X106100383Y-83693362D01*
X106093515Y-83691776D01*
X106086469Y-83691751D01*
X106086466Y-83691751D01*
X106052944Y-83691634D01*
X106052062Y-83691605D01*
X106051231Y-83691500D01*
X106014581Y-83691500D01*
X106014141Y-83691499D01*
X105915657Y-83691155D01*
X105915652Y-83691155D01*
X105912130Y-83691143D01*
X105910930Y-83691411D01*
X105909293Y-83691500D01*
X104187082Y-83691500D01*
X104118961Y-83671498D01*
X104097987Y-83654595D01*
X102043969Y-81600577D01*
X102009943Y-81538265D01*
X102015008Y-81467450D01*
X102057555Y-81410614D01*
X102107190Y-81388167D01*
X102136572Y-81382002D01*
X102141791Y-81380907D01*
X102146750Y-81378949D01*
X102146752Y-81378948D01*
X102351256Y-81298185D01*
X102351258Y-81298184D01*
X102356221Y-81296224D01*
X102455184Y-81236172D01*
X102548757Y-81179390D01*
X102548756Y-81179390D01*
X102553317Y-81176623D01*
X102727445Y-81025523D01*
X102757006Y-80989471D01*
X102815666Y-80949476D01*
X102886636Y-80947545D01*
X102947384Y-80984290D01*
X102961584Y-81003059D01*
X103048063Y-81142807D01*
X103057099Y-81154208D01*
X103171829Y-81268739D01*
X103183240Y-81277751D01*
X103321243Y-81362816D01*
X103334424Y-81368963D01*
X103488710Y-81420138D01*
X103502086Y-81423005D01*
X103596438Y-81432672D01*
X103602854Y-81433000D01*
X103977885Y-81433000D01*
X103993124Y-81428525D01*
X103994329Y-81427135D01*
X103996000Y-81419452D01*
X103996000Y-81414884D01*
X104504000Y-81414884D01*
X104508475Y-81430123D01*
X104509865Y-81431328D01*
X104517548Y-81432999D01*
X104897095Y-81432999D01*
X104903614Y-81432662D01*
X104999206Y-81422743D01*
X105012600Y-81419851D01*
X105166784Y-81368412D01*
X105179962Y-81362239D01*
X105317807Y-81276937D01*
X105329208Y-81267901D01*
X105443739Y-81153171D01*
X105452751Y-81141760D01*
X105537816Y-81003757D01*
X105543963Y-80990576D01*
X105595138Y-80836290D01*
X105598005Y-80822914D01*
X105607672Y-80728562D01*
X105608000Y-80722146D01*
X105608000Y-80222115D01*
X105603525Y-80206876D01*
X105602135Y-80205671D01*
X105594452Y-80204000D01*
X104522115Y-80204000D01*
X104506876Y-80208475D01*
X104505671Y-80209865D01*
X104504000Y-80217548D01*
X104504000Y-81414884D01*
X103996000Y-81414884D01*
X103996000Y-79677885D01*
X104504000Y-79677885D01*
X104508475Y-79693124D01*
X104509865Y-79694329D01*
X104517548Y-79696000D01*
X105589884Y-79696000D01*
X105605123Y-79691525D01*
X105606328Y-79690135D01*
X105607999Y-79682452D01*
X105607999Y-79177905D01*
X105607662Y-79171386D01*
X105597743Y-79075794D01*
X105594851Y-79062400D01*
X105543412Y-78908216D01*
X105537239Y-78895038D01*
X105451937Y-78757193D01*
X105442901Y-78745792D01*
X105328171Y-78631261D01*
X105316760Y-78622249D01*
X105178757Y-78537184D01*
X105165576Y-78531037D01*
X105011290Y-78479862D01*
X104997914Y-78476995D01*
X104903562Y-78467328D01*
X104897145Y-78467000D01*
X104522115Y-78467000D01*
X104506876Y-78471475D01*
X104505671Y-78472865D01*
X104504000Y-78480548D01*
X104504000Y-79677885D01*
X103996000Y-79677885D01*
X103996000Y-78485116D01*
X103991525Y-78469877D01*
X103990135Y-78468672D01*
X103982452Y-78467001D01*
X103602905Y-78467001D01*
X103596386Y-78467338D01*
X103500794Y-78477257D01*
X103487400Y-78480149D01*
X103333216Y-78531588D01*
X103320038Y-78537761D01*
X103182193Y-78623063D01*
X103170792Y-78632099D01*
X103056261Y-78746829D01*
X103047247Y-78758243D01*
X102961277Y-78897713D01*
X102908505Y-78945207D01*
X102838434Y-78956631D01*
X102773310Y-78928357D01*
X102762847Y-78918570D01*
X102742951Y-78897713D01*
X102653424Y-78803865D01*
X102468458Y-78666246D01*
X102463707Y-78663830D01*
X102463703Y-78663828D01*
X102349654Y-78605843D01*
X102262949Y-78561760D01*
X102257855Y-78560178D01*
X102257852Y-78560177D01*
X102047871Y-78494976D01*
X102042773Y-78493393D01*
X101994568Y-78487004D01*
X101819511Y-78463802D01*
X101819506Y-78463802D01*
X101814226Y-78463102D01*
X101808897Y-78463302D01*
X101808895Y-78463302D01*
X101722988Y-78466527D01*
X101583842Y-78471751D01*
X101541915Y-78480548D01*
X101511144Y-78487004D01*
X101440368Y-78481416D01*
X101396176Y-78452784D01*
X100628234Y-77684842D01*
X100627306Y-77683905D01*
X100569157Y-77624525D01*
X100569156Y-77624524D01*
X100564229Y-77619493D01*
X100527779Y-77596002D01*
X100517454Y-77588583D01*
X100483557Y-77561524D01*
X100453362Y-77546927D01*
X100439945Y-77539398D01*
X100411762Y-77521235D01*
X100405145Y-77518827D01*
X100405140Y-77518824D01*
X100371027Y-77506408D01*
X100359284Y-77501447D01*
X100326597Y-77485646D01*
X100326592Y-77485644D01*
X100320251Y-77482579D01*
X100313393Y-77480996D01*
X100313391Y-77480995D01*
X100287574Y-77475035D01*
X100272831Y-77470668D01*
X100241315Y-77459197D01*
X100234325Y-77458314D01*
X100234317Y-77458312D01*
X100198299Y-77453762D01*
X100185747Y-77451526D01*
X100150386Y-77443362D01*
X100150383Y-77443362D01*
X100143515Y-77441776D01*
X100136469Y-77441751D01*
X100136466Y-77441751D01*
X100102944Y-77441634D01*
X100102062Y-77441605D01*
X100101231Y-77441500D01*
X100064581Y-77441500D01*
X100064141Y-77441499D01*
X99965657Y-77441155D01*
X99965652Y-77441155D01*
X99962130Y-77441143D01*
X99960930Y-77441411D01*
X99959293Y-77441500D01*
X98384214Y-77441500D01*
X98382894Y-77441493D01*
X98381819Y-77441482D01*
X98292779Y-77440549D01*
X98250403Y-77449711D01*
X98237837Y-77451769D01*
X98194745Y-77456603D01*
X98188094Y-77458919D01*
X98188090Y-77458920D01*
X98163070Y-77467633D01*
X98148257Y-77471796D01*
X98115490Y-77478881D01*
X98076187Y-77497208D01*
X98064411Y-77501990D01*
X98023448Y-77516255D01*
X98017473Y-77519989D01*
X98017470Y-77519990D01*
X97995005Y-77534027D01*
X97981488Y-77541366D01*
X97957486Y-77552559D01*
X97951098Y-77555538D01*
X97945533Y-77559855D01*
X97945531Y-77559856D01*
X97916847Y-77582106D01*
X97906388Y-77589402D01*
X97875596Y-77608642D01*
X97875593Y-77608644D01*
X97869624Y-77612374D01*
X97864629Y-77617334D01*
X97864628Y-77617335D01*
X97840821Y-77640976D01*
X97840196Y-77641561D01*
X97839530Y-77642078D01*
X97813540Y-77668068D01*
X97740918Y-77740185D01*
X97740260Y-77741222D01*
X97739157Y-77742451D01*
X96934842Y-78546766D01*
X96933905Y-78547694D01*
X96869493Y-78610771D01*
X96846002Y-78647221D01*
X96838583Y-78657546D01*
X96811524Y-78691443D01*
X96808459Y-78697784D01*
X96808458Y-78697785D01*
X96796928Y-78721637D01*
X96789399Y-78735054D01*
X96771235Y-78763238D01*
X96768827Y-78769855D01*
X96768824Y-78769860D01*
X96756408Y-78803973D01*
X96751445Y-78815721D01*
X96747938Y-78822975D01*
X96700280Y-78875598D01*
X96631737Y-78894102D01*
X96564072Y-78872611D01*
X96518766Y-78817949D01*
X96508500Y-78768132D01*
X96508500Y-70884500D01*
X96528502Y-70816379D01*
X96582158Y-70769886D01*
X96634500Y-70758500D01*
X106804840Y-70758500D01*
X106872961Y-70778502D01*
G37*
%TD.AperFunction*%
%TD*%
M02*
