%TF.GenerationSoftware,KiCad,Pcbnew,(6.0.7-1)-1*%
%TF.CreationDate,2024-02-27T19:57:38-05:00*%
%TF.ProjectId,EMHarpsichord_KeyboardCapture_SnyderphonicsAlt,454d4861-7270-4736-9963-686f72645f4b,rev?*%
%TF.SameCoordinates,Original*%
%TF.FileFunction,Legend,Top*%
%TF.FilePolarity,Positive*%
%FSLAX46Y46*%
G04 Gerber Fmt 4.6, Leading zero omitted, Abs format (unit mm)*
G04 Created by KiCad (PCBNEW (6.0.7-1)-1) date 2024-02-27 19:57:38*
%MOMM*%
%LPD*%
G01*
G04 APERTURE LIST*
G04 Aperture macros list*
%AMRoundRect*
0 Rectangle with rounded corners*
0 $1 Rounding radius*
0 $2 $3 $4 $5 $6 $7 $8 $9 X,Y pos of 4 corners*
0 Add a 4 corners polygon primitive as box body*
4,1,4,$2,$3,$4,$5,$6,$7,$8,$9,$2,$3,0*
0 Add four circle primitives for the rounded corners*
1,1,$1+$1,$2,$3*
1,1,$1+$1,$4,$5*
1,1,$1+$1,$6,$7*
1,1,$1+$1,$8,$9*
0 Add four rect primitives between the rounded corners*
20,1,$1+$1,$2,$3,$4,$5,0*
20,1,$1+$1,$4,$5,$6,$7,0*
20,1,$1+$1,$6,$7,$8,$9,0*
20,1,$1+$1,$8,$9,$2,$3,0*%
%AMFreePoly0*
4,1,37,0.012350,0.794884,0.074210,0.794507,0.088231,0.792412,0.224052,0.751793,0.236921,0.745846,0.355883,0.668739,0.366566,0.659420,0.459104,0.552023,0.466742,0.540080,0.525419,0.411028,0.529398,0.397421,0.549495,0.257088,0.550000,0.250000,0.550000,-0.250000,0.549996,-0.250610,0.549847,-0.262826,0.549158,-0.270511,0.525638,-0.410312,0.521328,-0.423818,0.459516,-0.551397,
0.451589,-0.563150,0.356454,-0.668254,0.345546,-0.677309,0.224736,-0.751486,0.211726,-0.757116,0.074953,-0.794405,0.060885,-0.796158,0.011462,-0.795252,0.000000,-0.800000,-0.500000,-0.800000,-0.535355,-0.785355,-0.550000,-0.750000,-0.550000,0.750000,-0.535355,0.785355,-0.500000,0.800000,0.000000,0.800000,0.012350,0.794884,0.012350,0.794884,$1*%
%AMFreePoly1*
4,1,37,0.535355,0.785355,0.550000,0.750000,0.550000,-0.750000,0.535355,-0.785355,0.500000,-0.800000,0.000000,-0.800000,-0.012524,-0.794812,-0.080857,-0.793560,-0.094851,-0.791293,-0.230166,-0.749018,-0.242962,-0.742915,-0.360972,-0.664360,-0.371540,-0.654911,-0.462760,-0.546392,-0.470252,-0.534356,-0.527347,-0.404597,-0.531159,-0.390943,-0.548742,-0.256483,-0.547388,-0.256306,-0.550000,-0.250000,
-0.550000,0.250000,-0.549522,0.251153,-0.549368,0.263802,-0.527557,0.403879,-0.523412,0.417435,-0.463164,0.545760,-0.455381,0.557609,-0.361537,0.663867,-0.350741,0.673055,-0.230846,0.748703,-0.217905,0.754492,-0.081598,0.793449,-0.067552,0.795373,-0.011991,0.795033,0.000000,0.800000,0.500000,0.800000,0.535355,0.785355,0.535355,0.785355,$1*%
G04 Aperture macros list end*
%ADD10C,0.177800*%
%ADD11C,0.254000*%
%ADD12C,0.190500*%
%ADD13C,0.150000*%
%ADD14C,0.120000*%
%ADD15RoundRect,0.250000X-0.200000X-0.275000X0.200000X-0.275000X0.200000X0.275000X-0.200000X0.275000X0*%
%ADD16RoundRect,0.050000X-0.850000X-0.850000X0.850000X-0.850000X0.850000X0.850000X-0.850000X0.850000X0*%
%ADD17O,1.800000X1.800000*%
%ADD18O,8.700000X5.400000*%
%ADD19RoundRect,0.275000X0.250000X-0.225000X0.250000X0.225000X-0.250000X0.225000X-0.250000X-0.225000X0*%
%ADD20RoundRect,0.268750X0.218750X0.256250X-0.218750X0.256250X-0.218750X-0.256250X0.218750X-0.256250X0*%
%ADD21RoundRect,0.250000X0.200000X0.275000X-0.200000X0.275000X-0.200000X-0.275000X0.200000X-0.275000X0*%
%ADD22RoundRect,0.200000X0.150000X-0.512500X0.150000X0.512500X-0.150000X0.512500X-0.150000X-0.512500X0*%
%ADD23FreePoly0,180.000000*%
%ADD24FreePoly1,180.000000*%
%ADD25C,1.800000*%
%ADD26RoundRect,0.275000X-0.225000X-0.250000X0.225000X-0.250000X0.225000X0.250000X-0.225000X0.250000X0*%
%ADD27RoundRect,0.050000X0.450000X0.600000X-0.450000X0.600000X-0.450000X-0.600000X0.450000X-0.600000X0*%
%ADD28C,1.500000*%
G04 APERTURE END LIST*
D10*
X100287182Y10796559D02*
X100710515Y10796559D01*
X100891944Y10131321D02*
X100287182Y10131321D01*
X100287182Y11401321D01*
X100891944Y11401321D01*
X101436229Y10131321D02*
X101436229Y11401321D01*
X101859563Y10494178D01*
X102282896Y11401321D01*
X102282896Y10131321D01*
X103855277Y10131321D02*
X103855277Y11401321D01*
X103855277Y10796559D02*
X104580991Y10796559D01*
X104580991Y10131321D02*
X104580991Y11401321D01*
X105730039Y10131321D02*
X105730039Y10796559D01*
X105669563Y10917511D01*
X105548610Y10977987D01*
X105306706Y10977987D01*
X105185753Y10917511D01*
X105730039Y10191797D02*
X105609087Y10131321D01*
X105306706Y10131321D01*
X105185753Y10191797D01*
X105125277Y10312749D01*
X105125277Y10433702D01*
X105185753Y10554654D01*
X105306706Y10615130D01*
X105609087Y10615130D01*
X105730039Y10675606D01*
X106334801Y10131321D02*
X106334801Y10977987D01*
X106334801Y10736083D02*
X106395277Y10857035D01*
X106455753Y10917511D01*
X106576706Y10977987D01*
X106697658Y10977987D01*
X107120991Y10977987D02*
X107120991Y9707987D01*
X107120991Y10917511D02*
X107241944Y10977987D01*
X107483849Y10977987D01*
X107604801Y10917511D01*
X107665277Y10857035D01*
X107725753Y10736083D01*
X107725753Y10373225D01*
X107665277Y10252273D01*
X107604801Y10191797D01*
X107483849Y10131321D01*
X107241944Y10131321D01*
X107120991Y10191797D01*
X108209563Y10191797D02*
X108330515Y10131321D01*
X108572420Y10131321D01*
X108693372Y10191797D01*
X108753849Y10312749D01*
X108753849Y10373225D01*
X108693372Y10494178D01*
X108572420Y10554654D01*
X108390991Y10554654D01*
X108270039Y10615130D01*
X108209563Y10736083D01*
X108209563Y10796559D01*
X108270039Y10917511D01*
X108390991Y10977987D01*
X108572420Y10977987D01*
X108693372Y10917511D01*
X109298134Y10131321D02*
X109298134Y10977987D01*
X109298134Y11401321D02*
X109237658Y11340845D01*
X109298134Y11280368D01*
X109358610Y11340845D01*
X109298134Y11401321D01*
X109298134Y11280368D01*
X110447182Y10191797D02*
X110326229Y10131321D01*
X110084325Y10131321D01*
X109963372Y10191797D01*
X109902896Y10252273D01*
X109842420Y10373225D01*
X109842420Y10736083D01*
X109902896Y10857035D01*
X109963372Y10917511D01*
X110084325Y10977987D01*
X110326229Y10977987D01*
X110447182Y10917511D01*
X110991468Y10131321D02*
X110991468Y11401321D01*
X111535753Y10131321D02*
X111535753Y10796559D01*
X111475277Y10917511D01*
X111354325Y10977987D01*
X111172896Y10977987D01*
X111051944Y10917511D01*
X110991468Y10857035D01*
X112321944Y10131321D02*
X112200991Y10191797D01*
X112140515Y10252273D01*
X112080039Y10373225D01*
X112080039Y10736083D01*
X112140515Y10857035D01*
X112200991Y10917511D01*
X112321944Y10977987D01*
X112503372Y10977987D01*
X112624325Y10917511D01*
X112684801Y10857035D01*
X112745277Y10736083D01*
X112745277Y10373225D01*
X112684801Y10252273D01*
X112624325Y10191797D01*
X112503372Y10131321D01*
X112321944Y10131321D01*
X113289563Y10131321D02*
X113289563Y10977987D01*
X113289563Y10736083D02*
X113350039Y10857035D01*
X113410515Y10917511D01*
X113531468Y10977987D01*
X113652420Y10977987D01*
X114620039Y10131321D02*
X114620039Y11401321D01*
X114620039Y10191797D02*
X114499087Y10131321D01*
X114257182Y10131321D01*
X114136229Y10191797D01*
X114075753Y10252273D01*
X114015277Y10373225D01*
X114015277Y10736083D01*
X114075753Y10857035D01*
X114136229Y10917511D01*
X114257182Y10977987D01*
X114499087Y10977987D01*
X114620039Y10917511D01*
X116192420Y10615130D02*
X117160039Y10615130D01*
X118671944Y10494178D02*
X119276706Y10494178D01*
X118550991Y10131321D02*
X118974325Y11401321D01*
X119397658Y10131321D01*
X119820991Y10252273D02*
X119881468Y10191797D01*
X119820991Y10131321D01*
X119760515Y10191797D01*
X119820991Y10252273D01*
X119820991Y10131321D01*
X122058610Y11340845D02*
X121937658Y11401321D01*
X121756229Y11401321D01*
X121574801Y11340845D01*
X121453849Y11219892D01*
X121393372Y11098940D01*
X121332896Y10857035D01*
X121332896Y10675606D01*
X121393372Y10433702D01*
X121453849Y10312749D01*
X121574801Y10191797D01*
X121756229Y10131321D01*
X121877182Y10131321D01*
X122058610Y10191797D01*
X122119087Y10252273D01*
X122119087Y10675606D01*
X121877182Y10675606D01*
X122663372Y10252273D02*
X122723849Y10191797D01*
X122663372Y10131321D01*
X122602896Y10191797D01*
X122663372Y10252273D01*
X122663372Y10131321D01*
X124175277Y10191797D02*
X124356706Y10131321D01*
X124659087Y10131321D01*
X124780039Y10191797D01*
X124840515Y10252273D01*
X124900991Y10373225D01*
X124900991Y10494178D01*
X124840515Y10615130D01*
X124780039Y10675606D01*
X124659087Y10736083D01*
X124417182Y10796559D01*
X124296229Y10857035D01*
X124235753Y10917511D01*
X124175277Y11038464D01*
X124175277Y11159416D01*
X124235753Y11280368D01*
X124296229Y11340845D01*
X124417182Y11401321D01*
X124719563Y11401321D01*
X124900991Y11340845D01*
X125989563Y10191797D02*
X125868610Y10131321D01*
X125626706Y10131321D01*
X125505753Y10191797D01*
X125445277Y10252273D01*
X125384801Y10373225D01*
X125384801Y10736083D01*
X125445277Y10857035D01*
X125505753Y10917511D01*
X125626706Y10977987D01*
X125868610Y10977987D01*
X125989563Y10917511D01*
X126533849Y10131321D02*
X126533849Y11401321D01*
X127078134Y10131321D02*
X127078134Y10796559D01*
X127017658Y10917511D01*
X126896706Y10977987D01*
X126715277Y10977987D01*
X126594325Y10917511D01*
X126533849Y10857035D01*
X127682896Y10131321D02*
X127682896Y10977987D01*
X127682896Y10857035D02*
X127743372Y10917511D01*
X127864325Y10977987D01*
X128045753Y10977987D01*
X128166706Y10917511D01*
X128227182Y10796559D01*
X128227182Y10131321D01*
X128227182Y10796559D02*
X128287658Y10917511D01*
X128408610Y10977987D01*
X128590039Y10977987D01*
X128710991Y10917511D01*
X128771468Y10796559D01*
X128771468Y10131321D01*
X129376229Y10131321D02*
X129376229Y10977987D01*
X129376229Y11401321D02*
X129315753Y11340845D01*
X129376229Y11280368D01*
X129436706Y11340845D01*
X129376229Y11401321D01*
X129376229Y11280368D01*
X130525277Y10131321D02*
X130525277Y11401321D01*
X130525277Y10191797D02*
X130404325Y10131321D01*
X130162420Y10131321D01*
X130041468Y10191797D01*
X129980991Y10252273D01*
X129920515Y10373225D01*
X129920515Y10736083D01*
X129980991Y10857035D01*
X130041468Y10917511D01*
X130162420Y10977987D01*
X130404325Y10977987D01*
X130525277Y10917511D01*
X130948610Y10977987D02*
X131432420Y10977987D01*
X131130039Y11401321D02*
X131130039Y10312749D01*
X131190515Y10191797D01*
X131311468Y10131321D01*
X131432420Y10131321D01*
X132823372Y10615130D02*
X133790991Y10615130D01*
X135786706Y10796559D02*
X135363372Y10796559D01*
X135363372Y10131321D02*
X135363372Y11401321D01*
X135968134Y11401321D01*
X136935753Y10191797D02*
X136814801Y10131321D01*
X136572896Y10131321D01*
X136451944Y10191797D01*
X136391468Y10312749D01*
X136391468Y10796559D01*
X136451944Y10917511D01*
X136572896Y10977987D01*
X136814801Y10977987D01*
X136935753Y10917511D01*
X136996229Y10796559D01*
X136996229Y10675606D01*
X136391468Y10554654D01*
X137540515Y10131321D02*
X137540515Y11401321D01*
X137540515Y10917511D02*
X137661468Y10977987D01*
X137903372Y10977987D01*
X138024325Y10917511D01*
X138084801Y10857035D01*
X138145277Y10736083D01*
X138145277Y10373225D01*
X138084801Y10252273D01*
X138024325Y10191797D01*
X137903372Y10131321D01*
X137661468Y10131321D01*
X137540515Y10191797D01*
X139596706Y11280368D02*
X139657182Y11340845D01*
X139778134Y11401321D01*
X140080515Y11401321D01*
X140201468Y11340845D01*
X140261944Y11280368D01*
X140322420Y11159416D01*
X140322420Y11038464D01*
X140261944Y10857035D01*
X139536229Y10131321D01*
X140322420Y10131321D01*
X141108610Y11401321D02*
X141229563Y11401321D01*
X141350515Y11340845D01*
X141410991Y11280368D01*
X141471468Y11159416D01*
X141531944Y10917511D01*
X141531944Y10615130D01*
X141471468Y10373225D01*
X141410991Y10252273D01*
X141350515Y10191797D01*
X141229563Y10131321D01*
X141108610Y10131321D01*
X140987658Y10191797D01*
X140927182Y10252273D01*
X140866706Y10373225D01*
X140806229Y10615130D01*
X140806229Y10917511D01*
X140866706Y11159416D01*
X140927182Y11280368D01*
X140987658Y11340845D01*
X141108610Y11401321D01*
X142015753Y11280368D02*
X142076229Y11340845D01*
X142197182Y11401321D01*
X142499563Y11401321D01*
X142620515Y11340845D01*
X142680991Y11280368D01*
X142741468Y11159416D01*
X142741468Y11038464D01*
X142680991Y10857035D01*
X141955277Y10131321D01*
X142741468Y10131321D01*
X143830039Y10977987D02*
X143830039Y10131321D01*
X143527658Y11461797D02*
X143225277Y10554654D01*
X144011468Y10554654D01*
X103613372Y8147097D02*
X103794801Y8086621D01*
X104097182Y8086621D01*
X104218134Y8147097D01*
X104278610Y8207573D01*
X104339087Y8328525D01*
X104339087Y8449478D01*
X104278610Y8570430D01*
X104218134Y8630906D01*
X104097182Y8691383D01*
X103855277Y8751859D01*
X103734325Y8812335D01*
X103673849Y8872811D01*
X103613372Y8993764D01*
X103613372Y9114716D01*
X103673849Y9235668D01*
X103734325Y9296145D01*
X103855277Y9356621D01*
X104157658Y9356621D01*
X104339087Y9296145D01*
X104883372Y8933287D02*
X104883372Y8086621D01*
X104883372Y8812335D02*
X104943849Y8872811D01*
X105064801Y8933287D01*
X105246229Y8933287D01*
X105367182Y8872811D01*
X105427658Y8751859D01*
X105427658Y8086621D01*
X105911468Y8933287D02*
X106213849Y8086621D01*
X106516229Y8933287D02*
X106213849Y8086621D01*
X106092896Y7784240D01*
X106032420Y7723764D01*
X105911468Y7663287D01*
X107544325Y8086621D02*
X107544325Y9356621D01*
X107544325Y8147097D02*
X107423372Y8086621D01*
X107181468Y8086621D01*
X107060515Y8147097D01*
X107000039Y8207573D01*
X106939563Y8328525D01*
X106939563Y8691383D01*
X107000039Y8812335D01*
X107060515Y8872811D01*
X107181468Y8933287D01*
X107423372Y8933287D01*
X107544325Y8872811D01*
X108632896Y8147097D02*
X108511944Y8086621D01*
X108270039Y8086621D01*
X108149087Y8147097D01*
X108088610Y8268049D01*
X108088610Y8751859D01*
X108149087Y8872811D01*
X108270039Y8933287D01*
X108511944Y8933287D01*
X108632896Y8872811D01*
X108693372Y8751859D01*
X108693372Y8630906D01*
X108088610Y8509954D01*
X109237658Y8086621D02*
X109237658Y8933287D01*
X109237658Y8691383D02*
X109298134Y8812335D01*
X109358610Y8872811D01*
X109479563Y8933287D01*
X109600515Y8933287D01*
X110023849Y8933287D02*
X110023849Y7663287D01*
X110023849Y8872811D02*
X110144801Y8933287D01*
X110386706Y8933287D01*
X110507658Y8872811D01*
X110568134Y8812335D01*
X110628610Y8691383D01*
X110628610Y8328525D01*
X110568134Y8207573D01*
X110507658Y8147097D01*
X110386706Y8086621D01*
X110144801Y8086621D01*
X110023849Y8147097D01*
X111172896Y8086621D02*
X111172896Y9356621D01*
X111717182Y8086621D02*
X111717182Y8751859D01*
X111656706Y8872811D01*
X111535753Y8933287D01*
X111354325Y8933287D01*
X111233372Y8872811D01*
X111172896Y8812335D01*
X112503372Y8086621D02*
X112382420Y8147097D01*
X112321944Y8207573D01*
X112261468Y8328525D01*
X112261468Y8691383D01*
X112321944Y8812335D01*
X112382420Y8872811D01*
X112503372Y8933287D01*
X112684801Y8933287D01*
X112805753Y8872811D01*
X112866229Y8812335D01*
X112926706Y8691383D01*
X112926706Y8328525D01*
X112866229Y8207573D01*
X112805753Y8147097D01*
X112684801Y8086621D01*
X112503372Y8086621D01*
X113470991Y8933287D02*
X113470991Y8086621D01*
X113470991Y8812335D02*
X113531468Y8872811D01*
X113652420Y8933287D01*
X113833849Y8933287D01*
X113954801Y8872811D01*
X114015277Y8751859D01*
X114015277Y8086621D01*
X114620039Y8086621D02*
X114620039Y8933287D01*
X114620039Y9356621D02*
X114559563Y9296145D01*
X114620039Y9235668D01*
X114680515Y9296145D01*
X114620039Y9356621D01*
X114620039Y9235668D01*
X115769087Y8147097D02*
X115648134Y8086621D01*
X115406229Y8086621D01*
X115285277Y8147097D01*
X115224801Y8207573D01*
X115164325Y8328525D01*
X115164325Y8691383D01*
X115224801Y8812335D01*
X115285277Y8872811D01*
X115406229Y8933287D01*
X115648134Y8933287D01*
X115769087Y8872811D01*
X116252896Y8147097D02*
X116373849Y8086621D01*
X116615753Y8086621D01*
X116736706Y8147097D01*
X116797182Y8268049D01*
X116797182Y8328525D01*
X116736706Y8449478D01*
X116615753Y8509954D01*
X116434325Y8509954D01*
X116313372Y8570430D01*
X116252896Y8691383D01*
X116252896Y8751859D01*
X116313372Y8872811D01*
X116434325Y8933287D01*
X116615753Y8933287D01*
X116736706Y8872811D01*
X118127658Y9356621D02*
X118550991Y8086621D01*
X118974325Y9356621D01*
X119941944Y8086621D02*
X119941944Y8751859D01*
X119881468Y8872811D01*
X119760515Y8933287D01*
X119518610Y8933287D01*
X119397658Y8872811D01*
X119941944Y8147097D02*
X119820991Y8086621D01*
X119518610Y8086621D01*
X119397658Y8147097D01*
X119337182Y8268049D01*
X119337182Y8389002D01*
X119397658Y8509954D01*
X119518610Y8570430D01*
X119820991Y8570430D01*
X119941944Y8630906D01*
X120546706Y8086621D02*
X120546706Y8933287D01*
X120546706Y8691383D02*
X120607182Y8812335D01*
X120667658Y8872811D01*
X120788610Y8933287D01*
X120909563Y8933287D01*
X121332896Y8086621D02*
X121332896Y8933287D01*
X121332896Y9356621D02*
X121272420Y9296145D01*
X121332896Y9235668D01*
X121393372Y9296145D01*
X121332896Y9356621D01*
X121332896Y9235668D01*
X122481944Y8086621D02*
X122481944Y8751859D01*
X122421468Y8872811D01*
X122300515Y8933287D01*
X122058610Y8933287D01*
X121937658Y8872811D01*
X122481944Y8147097D02*
X122360991Y8086621D01*
X122058610Y8086621D01*
X121937658Y8147097D01*
X121877182Y8268049D01*
X121877182Y8389002D01*
X121937658Y8509954D01*
X122058610Y8570430D01*
X122360991Y8570430D01*
X122481944Y8630906D01*
X123086706Y8933287D02*
X123086706Y8086621D01*
X123086706Y8812335D02*
X123147182Y8872811D01*
X123268134Y8933287D01*
X123449563Y8933287D01*
X123570515Y8872811D01*
X123630991Y8751859D01*
X123630991Y8086621D01*
X124054325Y8933287D02*
X124538134Y8933287D01*
X124235753Y9356621D02*
X124235753Y8268049D01*
X124296229Y8147097D01*
X124417182Y8086621D01*
X124538134Y8086621D01*
X126291944Y7602811D02*
X126231468Y7663287D01*
X126110515Y7844716D01*
X126050039Y7965668D01*
X125989563Y8147097D01*
X125929087Y8449478D01*
X125929087Y8691383D01*
X125989563Y8993764D01*
X126050039Y9175192D01*
X126110515Y9296145D01*
X126231468Y9477573D01*
X126291944Y9538049D01*
X127017658Y9356621D02*
X127138610Y9356621D01*
X127259563Y9296145D01*
X127320039Y9235668D01*
X127380515Y9114716D01*
X127440991Y8872811D01*
X127440991Y8570430D01*
X127380515Y8328525D01*
X127320039Y8207573D01*
X127259563Y8147097D01*
X127138610Y8086621D01*
X127017658Y8086621D01*
X126896706Y8147097D01*
X126836229Y8207573D01*
X126775753Y8328525D01*
X126715277Y8570430D01*
X126715277Y8872811D01*
X126775753Y9114716D01*
X126836229Y9235668D01*
X126896706Y9296145D01*
X127017658Y9356621D01*
X127985277Y8207573D02*
X128045753Y8147097D01*
X127985277Y8086621D01*
X127924801Y8147097D01*
X127985277Y8207573D01*
X127985277Y8086621D01*
X129194801Y9356621D02*
X128590039Y9356621D01*
X128529563Y8751859D01*
X128590039Y8812335D01*
X128710991Y8872811D01*
X129013372Y8872811D01*
X129134325Y8812335D01*
X129194801Y8751859D01*
X129255277Y8630906D01*
X129255277Y8328525D01*
X129194801Y8207573D01*
X129134325Y8147097D01*
X129013372Y8086621D01*
X128710991Y8086621D01*
X128590039Y8147097D01*
X128529563Y8207573D01*
X130343849Y8933287D02*
X130343849Y8086621D01*
X130041468Y9417097D02*
X129739087Y8509954D01*
X130525277Y8509954D01*
X130948610Y9356621D02*
X130948610Y9114716D01*
X131432420Y9356621D02*
X131432420Y9114716D01*
X132883849Y8147097D02*
X133004801Y8086621D01*
X133246706Y8086621D01*
X133367658Y8147097D01*
X133428134Y8268049D01*
X133428134Y8328525D01*
X133367658Y8449478D01*
X133246706Y8509954D01*
X133065277Y8509954D01*
X132944325Y8570430D01*
X132883849Y8691383D01*
X132883849Y8751859D01*
X132944325Y8872811D01*
X133065277Y8933287D01*
X133246706Y8933287D01*
X133367658Y8872811D01*
X133972420Y8933287D02*
X133972420Y7663287D01*
X133972420Y8872811D02*
X134093372Y8933287D01*
X134335277Y8933287D01*
X134456229Y8872811D01*
X134516706Y8812335D01*
X134577182Y8691383D01*
X134577182Y8328525D01*
X134516706Y8207573D01*
X134456229Y8147097D01*
X134335277Y8086621D01*
X134093372Y8086621D01*
X133972420Y8147097D01*
X135665753Y8086621D02*
X135665753Y8751859D01*
X135605277Y8872811D01*
X135484325Y8933287D01*
X135242420Y8933287D01*
X135121468Y8872811D01*
X135665753Y8147097D02*
X135544801Y8086621D01*
X135242420Y8086621D01*
X135121468Y8147097D01*
X135060991Y8268049D01*
X135060991Y8389002D01*
X135121468Y8509954D01*
X135242420Y8570430D01*
X135544801Y8570430D01*
X135665753Y8630906D01*
X136814801Y8147097D02*
X136693849Y8086621D01*
X136451944Y8086621D01*
X136330991Y8147097D01*
X136270515Y8207573D01*
X136210039Y8328525D01*
X136210039Y8691383D01*
X136270515Y8812335D01*
X136330991Y8872811D01*
X136451944Y8933287D01*
X136693849Y8933287D01*
X136814801Y8872811D01*
X137359087Y8086621D02*
X137359087Y8933287D01*
X137359087Y9356621D02*
X137298610Y9296145D01*
X137359087Y9235668D01*
X137419563Y9296145D01*
X137359087Y9356621D01*
X137359087Y9235668D01*
X137963849Y8933287D02*
X137963849Y8086621D01*
X137963849Y8812335D02*
X138024325Y8872811D01*
X138145277Y8933287D01*
X138326706Y8933287D01*
X138447658Y8872811D01*
X138508134Y8751859D01*
X138508134Y8086621D01*
X139657182Y8933287D02*
X139657182Y7905192D01*
X139596706Y7784240D01*
X139536229Y7723764D01*
X139415277Y7663287D01*
X139233849Y7663287D01*
X139112896Y7723764D01*
X139657182Y8147097D02*
X139536229Y8086621D01*
X139294325Y8086621D01*
X139173372Y8147097D01*
X139112896Y8207573D01*
X139052420Y8328525D01*
X139052420Y8691383D01*
X139112896Y8812335D01*
X139173372Y8872811D01*
X139294325Y8933287D01*
X139536229Y8933287D01*
X139657182Y8872811D01*
X140140991Y7602811D02*
X140201468Y7663287D01*
X140322420Y7844716D01*
X140382896Y7965668D01*
X140443372Y8147097D01*
X140503849Y8449478D01*
X140503849Y8691383D01*
X140443372Y8993764D01*
X140382896Y9175192D01*
X140322420Y9296145D01*
X140201468Y9477573D01*
X140140991Y9538049D01*
X56937849Y8611009D02*
X57711944Y8320723D01*
X56937849Y8030437D01*
X58195753Y8611009D02*
X58969849Y8320723D01*
X58195753Y8030437D01*
X59453658Y8611009D02*
X60227753Y8320723D01*
X59453658Y8030437D01*
X60711563Y8611009D02*
X61485658Y8320723D01*
X60711563Y8030437D01*
X61969468Y8611009D02*
X62743563Y8320723D01*
X61969468Y8030437D01*
X63227372Y8611009D02*
X64001468Y8320723D01*
X63227372Y8030437D01*
X64485277Y8611009D02*
X65259372Y8320723D01*
X64485277Y8030437D01*
X65743182Y8611009D02*
X66517277Y8320723D01*
X65743182Y8030437D01*
X67001087Y8611009D02*
X67775182Y8320723D01*
X67001087Y8030437D01*
X68258991Y8611009D02*
X69033087Y8320723D01*
X68258991Y8030437D01*
X69516896Y8611009D02*
X70290991Y8320723D01*
X69516896Y8030437D01*
X70774801Y8611009D02*
X71548896Y8320723D01*
X70774801Y8030437D01*
X72032706Y8611009D02*
X72806801Y8320723D01*
X72032706Y8030437D01*
X73290610Y8611009D02*
X74064706Y8320723D01*
X73290610Y8030437D01*
X74548515Y8611009D02*
X75322610Y8320723D01*
X74548515Y8030437D01*
X75806420Y8611009D02*
X76580515Y8320723D01*
X75806420Y8030437D01*
X77064325Y8611009D02*
X77838420Y8320723D01*
X77064325Y8030437D01*
X78322229Y8611009D02*
X79096325Y8320723D01*
X78322229Y8030437D01*
X79580134Y8611009D02*
X80354229Y8320723D01*
X79580134Y8030437D01*
X80838039Y8611009D02*
X81612134Y8320723D01*
X80838039Y8030437D01*
X82095944Y8611009D02*
X82870039Y8320723D01*
X82095944Y8030437D01*
X83353849Y8611009D02*
X84127944Y8320723D01*
X83353849Y8030437D01*
X84611753Y8611009D02*
X85385849Y8320723D01*
X84611753Y8030437D01*
D11*
X19255134Y10706509D02*
X19617991Y10706509D01*
X19799420Y10615795D01*
X19980849Y10434366D01*
X20071563Y10071509D01*
X20071563Y9436509D01*
X19980849Y9073652D01*
X19799420Y8892223D01*
X19617991Y8801509D01*
X19255134Y8801509D01*
X19073706Y8892223D01*
X18892277Y9073652D01*
X18801563Y9436509D01*
X18801563Y10071509D01*
X18892277Y10434366D01*
X19073706Y10615795D01*
X19255134Y10706509D01*
X20887991Y10071509D02*
X20887991Y8166509D01*
X20887991Y9980795D02*
X21069420Y10071509D01*
X21432277Y10071509D01*
X21613706Y9980795D01*
X21704420Y9890080D01*
X21795134Y9708652D01*
X21795134Y9164366D01*
X21704420Y8982937D01*
X21613706Y8892223D01*
X21432277Y8801509D01*
X21069420Y8801509D01*
X20887991Y8892223D01*
X22339420Y10071509D02*
X23065134Y10071509D01*
X22611563Y10706509D02*
X22611563Y9073652D01*
X22702277Y8892223D01*
X22883706Y8801509D01*
X23065134Y8801509D01*
X23700134Y8801509D02*
X23700134Y10071509D01*
X23700134Y10706509D02*
X23609420Y10615795D01*
X23700134Y10525080D01*
X23790849Y10615795D01*
X23700134Y10706509D01*
X23700134Y10525080D01*
X25423706Y8892223D02*
X25242277Y8801509D01*
X24879420Y8801509D01*
X24697991Y8892223D01*
X24607277Y8982937D01*
X24516563Y9164366D01*
X24516563Y9708652D01*
X24607277Y9890080D01*
X24697991Y9980795D01*
X24879420Y10071509D01*
X25242277Y10071509D01*
X25423706Y9980795D01*
X27056563Y8801509D02*
X27056563Y9799366D01*
X26965849Y9980795D01*
X26784420Y10071509D01*
X26421563Y10071509D01*
X26240134Y9980795D01*
X27056563Y8892223D02*
X26875134Y8801509D01*
X26421563Y8801509D01*
X26240134Y8892223D01*
X26149420Y9073652D01*
X26149420Y9255080D01*
X26240134Y9436509D01*
X26421563Y9527223D01*
X26875134Y9527223D01*
X27056563Y9617937D01*
X28235849Y8801509D02*
X28054420Y8892223D01*
X27963706Y9073652D01*
X27963706Y10706509D01*
X30322277Y8892223D02*
X30594420Y8801509D01*
X31047991Y8801509D01*
X31229420Y8892223D01*
X31320134Y8982937D01*
X31410848Y9164366D01*
X31410848Y9345795D01*
X31320134Y9527223D01*
X31229420Y9617937D01*
X31047991Y9708652D01*
X30685134Y9799366D01*
X30503706Y9890080D01*
X30412991Y9980795D01*
X30322277Y10162223D01*
X30322277Y10343652D01*
X30412991Y10525080D01*
X30503706Y10615795D01*
X30685134Y10706509D01*
X31138706Y10706509D01*
X31410848Y10615795D01*
X32952991Y8892223D02*
X32771563Y8801509D01*
X32408706Y8801509D01*
X32227277Y8892223D01*
X32136563Y9073652D01*
X32136563Y9799366D01*
X32227277Y9980795D01*
X32408706Y10071509D01*
X32771563Y10071509D01*
X32952991Y9980795D01*
X33043706Y9799366D01*
X33043706Y9617937D01*
X32136563Y9436509D01*
X33860134Y10071509D02*
X33860134Y8801509D01*
X33860134Y9890080D02*
X33950849Y9980795D01*
X34132277Y10071509D01*
X34404420Y10071509D01*
X34585849Y9980795D01*
X34676563Y9799366D01*
X34676563Y8801509D01*
X35492991Y8892223D02*
X35674420Y8801509D01*
X36037277Y8801509D01*
X36218706Y8892223D01*
X36309420Y9073652D01*
X36309420Y9164366D01*
X36218706Y9345795D01*
X36037277Y9436509D01*
X35765134Y9436509D01*
X35583706Y9527223D01*
X35492991Y9708652D01*
X35492991Y9799366D01*
X35583706Y9980795D01*
X35765134Y10071509D01*
X36037277Y10071509D01*
X36218706Y9980795D01*
X37397991Y8801509D02*
X37216563Y8892223D01*
X37125849Y8982937D01*
X37035134Y9164366D01*
X37035134Y9708652D01*
X37125849Y9890080D01*
X37216563Y9980795D01*
X37397991Y10071509D01*
X37670134Y10071509D01*
X37851563Y9980795D01*
X37942277Y9890080D01*
X38032991Y9708652D01*
X38032991Y9164366D01*
X37942277Y8982937D01*
X37851563Y8892223D01*
X37670134Y8801509D01*
X37397991Y8801509D01*
X38849420Y8801509D02*
X38849420Y10071509D01*
X38849420Y9708652D02*
X38940134Y9890080D01*
X39030849Y9980795D01*
X39212277Y10071509D01*
X39393706Y10071509D01*
X41389420Y9345795D02*
X42296563Y9345795D01*
X41207991Y8801509D02*
X41842991Y10706509D01*
X42477991Y8801509D01*
X43112991Y8801509D02*
X43112991Y10071509D01*
X43112991Y9708652D02*
X43203706Y9890080D01*
X43294420Y9980795D01*
X43475849Y10071509D01*
X43657277Y10071509D01*
X44292277Y8801509D02*
X44292277Y10071509D01*
X44292277Y9708652D02*
X44382991Y9890080D01*
X44473706Y9980795D01*
X44655134Y10071509D01*
X44836563Y10071509D01*
X46287991Y8801509D02*
X46287991Y9799366D01*
X46197277Y9980795D01*
X46015848Y10071509D01*
X45652991Y10071509D01*
X45471563Y9980795D01*
X46287991Y8892223D02*
X46106563Y8801509D01*
X45652991Y8801509D01*
X45471563Y8892223D01*
X45380848Y9073652D01*
X45380848Y9255080D01*
X45471563Y9436509D01*
X45652991Y9527223D01*
X46106563Y9527223D01*
X46287991Y9617937D01*
X47013706Y10071509D02*
X47467277Y8801509D01*
X47920848Y10071509D02*
X47467277Y8801509D01*
X47285848Y8347937D01*
X47195134Y8257223D01*
X47013706Y8166509D01*
D10*
X49850039Y7987056D02*
X49995182Y7938675D01*
X50237087Y7938675D01*
X50333849Y7987056D01*
X50382229Y8035437D01*
X50430610Y8132199D01*
X50430610Y8228961D01*
X50382229Y8325723D01*
X50333849Y8374104D01*
X50237087Y8422485D01*
X50043563Y8470866D01*
X49946801Y8519247D01*
X49898420Y8567628D01*
X49850039Y8664390D01*
X49850039Y8761152D01*
X49898420Y8857914D01*
X49946801Y8906295D01*
X50043563Y8954675D01*
X50285468Y8954675D01*
X50430610Y8906295D01*
X51253087Y7987056D02*
X51156325Y7938675D01*
X50962801Y7938675D01*
X50866039Y7987056D01*
X50817658Y8083818D01*
X50817658Y8470866D01*
X50866039Y8567628D01*
X50962801Y8616009D01*
X51156325Y8616009D01*
X51253087Y8567628D01*
X51301468Y8470866D01*
X51301468Y8374104D01*
X50817658Y8277342D01*
X51736896Y8616009D02*
X51736896Y7938675D01*
X51736896Y8519247D02*
X51785277Y8567628D01*
X51882039Y8616009D01*
X52027182Y8616009D01*
X52123944Y8567628D01*
X52172325Y8470866D01*
X52172325Y7938675D01*
X52607753Y7987056D02*
X52704515Y7938675D01*
X52898039Y7938675D01*
X52994801Y7987056D01*
X53043182Y8083818D01*
X53043182Y8132199D01*
X52994801Y8228961D01*
X52898039Y8277342D01*
X52752896Y8277342D01*
X52656134Y8325723D01*
X52607753Y8422485D01*
X52607753Y8470866D01*
X52656134Y8567628D01*
X52752896Y8616009D01*
X52898039Y8616009D01*
X52994801Y8567628D01*
X53865658Y7987056D02*
X53768896Y7938675D01*
X53575372Y7938675D01*
X53478610Y7987056D01*
X53430229Y8083818D01*
X53430229Y8470866D01*
X53478610Y8567628D01*
X53575372Y8616009D01*
X53768896Y8616009D01*
X53865658Y8567628D01*
X53914039Y8470866D01*
X53914039Y8374104D01*
X53430229Y8277342D01*
X54881658Y7938675D02*
X54301087Y7938675D01*
X54591372Y7938675D02*
X54591372Y8954675D01*
X54494610Y8809533D01*
X54397849Y8712771D01*
X54301087Y8664390D01*
D12*
X7707287Y10759971D02*
X7707287Y12029971D01*
X8191096Y12029971D01*
X8312049Y11969495D01*
X8372525Y11909018D01*
X8433001Y11788066D01*
X8433001Y11606637D01*
X8372525Y11485685D01*
X8312049Y11425209D01*
X8191096Y11364733D01*
X7707287Y11364733D01*
X9158715Y10759971D02*
X9037763Y10820447D01*
X8977287Y10880923D01*
X8916810Y11001875D01*
X8916810Y11364733D01*
X8977287Y11485685D01*
X9037763Y11546161D01*
X9158715Y11606637D01*
X9340144Y11606637D01*
X9461096Y11546161D01*
X9521572Y11485685D01*
X9582049Y11364733D01*
X9582049Y11001875D01*
X9521572Y10880923D01*
X9461096Y10820447D01*
X9340144Y10759971D01*
X9158715Y10759971D01*
X10005382Y11606637D02*
X10247287Y10759971D01*
X10489191Y11364733D01*
X10731096Y10759971D01*
X10973001Y11606637D01*
X11940620Y10820447D02*
X11819668Y10759971D01*
X11577763Y10759971D01*
X11456810Y10820447D01*
X11396334Y10941399D01*
X11396334Y11425209D01*
X11456810Y11546161D01*
X11577763Y11606637D01*
X11819668Y11606637D01*
X11940620Y11546161D01*
X12001096Y11425209D01*
X12001096Y11304256D01*
X11396334Y11183304D01*
X12545382Y10759971D02*
X12545382Y11606637D01*
X12545382Y11364733D02*
X12605858Y11485685D01*
X12666334Y11546161D01*
X12787287Y11606637D01*
X12908239Y11606637D01*
D10*
X87974229Y7987056D02*
X88119372Y7938675D01*
X88361277Y7938675D01*
X88458039Y7987056D01*
X88506420Y8035437D01*
X88554801Y8132199D01*
X88554801Y8228961D01*
X88506420Y8325723D01*
X88458039Y8374104D01*
X88361277Y8422485D01*
X88167753Y8470866D01*
X88070991Y8519247D01*
X88022610Y8567628D01*
X87974229Y8664390D01*
X87974229Y8761152D01*
X88022610Y8857914D01*
X88070991Y8906295D01*
X88167753Y8954675D01*
X88409658Y8954675D01*
X88554801Y8906295D01*
X89377277Y7987056D02*
X89280515Y7938675D01*
X89086991Y7938675D01*
X88990229Y7987056D01*
X88941849Y8083818D01*
X88941849Y8470866D01*
X88990229Y8567628D01*
X89086991Y8616009D01*
X89280515Y8616009D01*
X89377277Y8567628D01*
X89425658Y8470866D01*
X89425658Y8374104D01*
X88941849Y8277342D01*
X89861087Y8616009D02*
X89861087Y7938675D01*
X89861087Y8519247D02*
X89909468Y8567628D01*
X90006229Y8616009D01*
X90151372Y8616009D01*
X90248134Y8567628D01*
X90296515Y8470866D01*
X90296515Y7938675D01*
X90731944Y7987056D02*
X90828706Y7938675D01*
X91022229Y7938675D01*
X91118991Y7987056D01*
X91167372Y8083818D01*
X91167372Y8132199D01*
X91118991Y8228961D01*
X91022229Y8277342D01*
X90877087Y8277342D01*
X90780325Y8325723D01*
X90731944Y8422485D01*
X90731944Y8470866D01*
X90780325Y8567628D01*
X90877087Y8616009D01*
X91022229Y8616009D01*
X91118991Y8567628D01*
X91989849Y7987056D02*
X91893087Y7938675D01*
X91699563Y7938675D01*
X91602801Y7987056D01*
X91554420Y8083818D01*
X91554420Y8470866D01*
X91602801Y8567628D01*
X91699563Y8616009D01*
X91893087Y8616009D01*
X91989849Y8567628D01*
X92038229Y8470866D01*
X92038229Y8374104D01*
X91554420Y8277342D01*
X93005849Y7938675D02*
X92425277Y7938675D01*
X92715563Y7938675D02*
X92715563Y8954675D01*
X92618801Y8809533D01*
X92522039Y8712771D01*
X92425277Y8664390D01*
X93392896Y8857914D02*
X93441277Y8906295D01*
X93538039Y8954675D01*
X93779944Y8954675D01*
X93876706Y8906295D01*
X93925087Y8857914D01*
X93973468Y8761152D01*
X93973468Y8664390D01*
X93925087Y8519247D01*
X93344515Y7938675D01*
X93973468Y7938675D01*
D13*
%TO.C,R20*%
X129951635Y2076380D02*
X129618302Y2552570D01*
X129380207Y2076380D02*
X129380207Y3076380D01*
X129761159Y3076380D01*
X129856397Y3028761D01*
X129904016Y2981141D01*
X129951635Y2885903D01*
X129951635Y2743046D01*
X129904016Y2647808D01*
X129856397Y2600189D01*
X129761159Y2552570D01*
X129380207Y2552570D01*
X130332588Y2981141D02*
X130380207Y3028761D01*
X130475445Y3076380D01*
X130713540Y3076380D01*
X130808778Y3028761D01*
X130856397Y2981141D01*
X130904016Y2885903D01*
X130904016Y2790665D01*
X130856397Y2647808D01*
X130284969Y2076380D01*
X130904016Y2076380D01*
X131523064Y3076380D02*
X131618302Y3076380D01*
X131713540Y3028761D01*
X131761159Y2981141D01*
X131808778Y2885903D01*
X131856397Y2695427D01*
X131856397Y2457332D01*
X131808778Y2266856D01*
X131761159Y2171618D01*
X131713540Y2123999D01*
X131618302Y2076380D01*
X131523064Y2076380D01*
X131427826Y2123999D01*
X131380207Y2171618D01*
X131332588Y2266856D01*
X131284969Y2457332D01*
X131284969Y2695427D01*
X131332588Y2885903D01*
X131380207Y2981141D01*
X131427826Y3028761D01*
X131523064Y3076380D01*
%TO.C,R8*%
X47272208Y2076380D02*
X46938875Y2552570D01*
X46700779Y2076380D02*
X46700779Y3076380D01*
X47081732Y3076380D01*
X47176970Y3028761D01*
X47224589Y2981141D01*
X47272208Y2885903D01*
X47272208Y2743046D01*
X47224589Y2647808D01*
X47176970Y2600189D01*
X47081732Y2552570D01*
X46700779Y2552570D01*
X47843636Y2647808D02*
X47748398Y2695427D01*
X47700779Y2743046D01*
X47653160Y2838284D01*
X47653160Y2885903D01*
X47700779Y2981141D01*
X47748398Y3028761D01*
X47843636Y3076380D01*
X48034113Y3076380D01*
X48129351Y3028761D01*
X48176970Y2981141D01*
X48224589Y2885903D01*
X48224589Y2838284D01*
X48176970Y2743046D01*
X48129351Y2695427D01*
X48034113Y2647808D01*
X47843636Y2647808D01*
X47748398Y2600189D01*
X47700779Y2552570D01*
X47653160Y2457332D01*
X47653160Y2266856D01*
X47700779Y2171618D01*
X47748398Y2123999D01*
X47843636Y2076380D01*
X48034113Y2076380D01*
X48129351Y2123999D01*
X48176970Y2171618D01*
X48224589Y2266856D01*
X48224589Y2457332D01*
X48176970Y2552570D01*
X48129351Y2600189D01*
X48034113Y2647808D01*
%TO.C,R9*%
X61164011Y-268161D02*
X60830678Y208028D01*
X60592582Y-268161D02*
X60592582Y731838D01*
X60973535Y731838D01*
X61068773Y684219D01*
X61116392Y636599D01*
X61164011Y541361D01*
X61164011Y398504D01*
X61116392Y303266D01*
X61068773Y255647D01*
X60973535Y208028D01*
X60592582Y208028D01*
X61640201Y-268161D02*
X61830678Y-268161D01*
X61925916Y-220542D01*
X61973535Y-172923D01*
X62068773Y-30066D01*
X62116392Y160409D01*
X62116392Y541361D01*
X62068773Y636599D01*
X62021154Y684219D01*
X61925916Y731838D01*
X61735439Y731838D01*
X61640201Y684219D01*
X61592582Y636599D01*
X61544963Y541361D01*
X61544963Y303266D01*
X61592582Y208028D01*
X61640201Y160409D01*
X61735439Y112790D01*
X61925916Y112790D01*
X62021154Y160409D01*
X62068773Y208028D01*
X62116392Y303266D01*
%TO.C,R22*%
X140521055Y3652023D02*
X140187722Y4128213D01*
X139949627Y3652023D02*
X139949627Y4652023D01*
X140330579Y4652023D01*
X140425817Y4604404D01*
X140473436Y4556784D01*
X140521055Y4461546D01*
X140521055Y4318689D01*
X140473436Y4223451D01*
X140425817Y4175832D01*
X140330579Y4128213D01*
X139949627Y4128213D01*
X140902008Y4556784D02*
X140949627Y4604404D01*
X141044865Y4652023D01*
X141282960Y4652023D01*
X141378198Y4604404D01*
X141425817Y4556784D01*
X141473436Y4461546D01*
X141473436Y4366308D01*
X141425817Y4223451D01*
X140854389Y3652023D01*
X141473436Y3652023D01*
X141854389Y4556784D02*
X141902008Y4604404D01*
X141997246Y4652023D01*
X142235341Y4652023D01*
X142330579Y4604404D01*
X142378198Y4556784D01*
X142425817Y4461546D01*
X142425817Y4366308D01*
X142378198Y4223451D01*
X141806770Y3652023D01*
X142425817Y3652023D01*
%TO.C,R6*%
X33665203Y2076380D02*
X33331870Y2552570D01*
X33093774Y2076380D02*
X33093774Y3076380D01*
X33474727Y3076380D01*
X33569965Y3028761D01*
X33617584Y2981141D01*
X33665203Y2885903D01*
X33665203Y2743046D01*
X33617584Y2647808D01*
X33569965Y2600189D01*
X33474727Y2552570D01*
X33093774Y2552570D01*
X34522346Y3076380D02*
X34331870Y3076380D01*
X34236631Y3028761D01*
X34189012Y2981141D01*
X34093774Y2838284D01*
X34046155Y2647808D01*
X34046155Y2266856D01*
X34093774Y2171618D01*
X34141393Y2123999D01*
X34236631Y2076380D01*
X34427108Y2076380D01*
X34522346Y2123999D01*
X34569965Y2171618D01*
X34617584Y2266856D01*
X34617584Y2504951D01*
X34569965Y2600189D01*
X34522346Y2647808D01*
X34427108Y2695427D01*
X34236631Y2695427D01*
X34141393Y2647808D01*
X34093774Y2600189D01*
X34046155Y2504951D01*
%TO.C,J3*%
X-6133484Y2380914D02*
X-6133484Y1666628D01*
X-6181103Y1523771D01*
X-6276341Y1428533D01*
X-6419198Y1380914D01*
X-6514436Y1380914D01*
X-5752531Y2380914D02*
X-5133484Y2380914D01*
X-5466817Y1999961D01*
X-5323960Y1999961D01*
X-5228722Y1952342D01*
X-5181103Y1904723D01*
X-5133484Y1809485D01*
X-5133484Y1571390D01*
X-5181103Y1476152D01*
X-5228722Y1428533D01*
X-5323960Y1380914D01*
X-5609674Y1380914D01*
X-5704912Y1428533D01*
X-5752531Y1476152D01*
%TO.C,R14*%
X88672151Y2076380D02*
X88338818Y2552570D01*
X88100723Y2076380D02*
X88100723Y3076380D01*
X88481675Y3076380D01*
X88576913Y3028761D01*
X88624532Y2981141D01*
X88672151Y2885903D01*
X88672151Y2743046D01*
X88624532Y2647808D01*
X88576913Y2600189D01*
X88481675Y2552570D01*
X88100723Y2552570D01*
X89624532Y2076380D02*
X89053104Y2076380D01*
X89338818Y2076380D02*
X89338818Y3076380D01*
X89243580Y2933522D01*
X89148342Y2838284D01*
X89053104Y2790665D01*
X90481675Y2743046D02*
X90481675Y2076380D01*
X90243580Y3123999D02*
X90005485Y2409713D01*
X90624532Y2409713D01*
%TO.C,R17*%
X116236898Y-268161D02*
X115903565Y208028D01*
X115665470Y-268161D02*
X115665470Y731838D01*
X116046422Y731838D01*
X116141660Y684219D01*
X116189279Y636599D01*
X116236898Y541361D01*
X116236898Y398504D01*
X116189279Y303266D01*
X116141660Y255647D01*
X116046422Y208028D01*
X115665470Y208028D01*
X117189279Y-268161D02*
X116617851Y-268161D01*
X116903565Y-268161D02*
X116903565Y731838D01*
X116808327Y588980D01*
X116713089Y493742D01*
X116617851Y446123D01*
X117522613Y731838D02*
X118189279Y731838D01*
X117760708Y-268161D01*
%TO.C,R12*%
X74912323Y2076380D02*
X74578990Y2552570D01*
X74340895Y2076380D02*
X74340895Y3076380D01*
X74721847Y3076380D01*
X74817085Y3028761D01*
X74864704Y2981141D01*
X74912323Y2885903D01*
X74912323Y2743046D01*
X74864704Y2647808D01*
X74817085Y2600189D01*
X74721847Y2552570D01*
X74340895Y2552570D01*
X75864704Y2076380D02*
X75293276Y2076380D01*
X75578990Y2076380D02*
X75578990Y3076380D01*
X75483752Y2933522D01*
X75388514Y2838284D01*
X75293276Y2790665D01*
X76245657Y2981141D02*
X76293276Y3028761D01*
X76388514Y3076380D01*
X76626609Y3076380D01*
X76721847Y3028761D01*
X76769466Y2981141D01*
X76817085Y2885903D01*
X76817085Y2790665D01*
X76769466Y2647808D01*
X76198038Y2076380D01*
X76817085Y2076380D01*
%TO.C,C2*%
X4320182Y5242152D02*
X4272563Y5194533D01*
X4129706Y5146914D01*
X4034468Y5146914D01*
X3891610Y5194533D01*
X3796372Y5289771D01*
X3748753Y5385009D01*
X3701134Y5575485D01*
X3701134Y5718342D01*
X3748753Y5908818D01*
X3796372Y6004056D01*
X3891610Y6099295D01*
X4034468Y6146914D01*
X4129706Y6146914D01*
X4272563Y6099295D01*
X4320182Y6051675D01*
X4701134Y6051675D02*
X4748753Y6099295D01*
X4843991Y6146914D01*
X5082087Y6146914D01*
X5177325Y6099295D01*
X5224944Y6051675D01*
X5272563Y5956437D01*
X5272563Y5861199D01*
X5224944Y5718342D01*
X4653515Y5146914D01*
X5272563Y5146914D01*
%TO.C,D2*%
X9463753Y8702914D02*
X9463753Y9702914D01*
X9701849Y9702914D01*
X9844706Y9655295D01*
X9939944Y9560056D01*
X9987563Y9464818D01*
X10035182Y9274342D01*
X10035182Y9131485D01*
X9987563Y8941009D01*
X9939944Y8845771D01*
X9844706Y8750533D01*
X9701849Y8702914D01*
X9463753Y8702914D01*
X10416134Y9607675D02*
X10463753Y9655295D01*
X10558991Y9702914D01*
X10797087Y9702914D01*
X10892325Y9655295D01*
X10939944Y9607675D01*
X10987563Y9512437D01*
X10987563Y9417199D01*
X10939944Y9274342D01*
X10368515Y8702914D01*
X10987563Y8702914D01*
%TO.C,R25*%
X13114991Y8575914D02*
X12781658Y9052104D01*
X12543563Y8575914D02*
X12543563Y9575914D01*
X12924515Y9575914D01*
X13019753Y9528295D01*
X13067372Y9480675D01*
X13114991Y9385437D01*
X13114991Y9242580D01*
X13067372Y9147342D01*
X13019753Y9099723D01*
X12924515Y9052104D01*
X12543563Y9052104D01*
X13495944Y9480675D02*
X13543563Y9528295D01*
X13638801Y9575914D01*
X13876896Y9575914D01*
X13972134Y9528295D01*
X14019753Y9480675D01*
X14067372Y9385437D01*
X14067372Y9290199D01*
X14019753Y9147342D01*
X13448325Y8575914D01*
X14067372Y8575914D01*
X14972134Y9575914D02*
X14495944Y9575914D01*
X14448325Y9099723D01*
X14495944Y9147342D01*
X14591182Y9194961D01*
X14829277Y9194961D01*
X14924515Y9147342D01*
X14972134Y9099723D01*
X15019753Y9004485D01*
X15019753Y8766390D01*
X14972134Y8671152D01*
X14924515Y8623533D01*
X14829277Y8575914D01*
X14591182Y8575914D01*
X14495944Y8623533D01*
X14448325Y8671152D01*
%TO.C,R15*%
X102479821Y-268161D02*
X102146488Y208028D01*
X101908393Y-268161D02*
X101908393Y731838D01*
X102289345Y731838D01*
X102384583Y684219D01*
X102432202Y636599D01*
X102479821Y541361D01*
X102479821Y398504D01*
X102432202Y303266D01*
X102384583Y255647D01*
X102289345Y208028D01*
X101908393Y208028D01*
X103432202Y-268161D02*
X102860774Y-268161D01*
X103146488Y-268161D02*
X103146488Y731838D01*
X103051250Y588980D01*
X102956012Y493742D01*
X102860774Y446123D01*
X104336964Y731838D02*
X103860774Y731838D01*
X103813155Y255647D01*
X103860774Y303266D01*
X103956012Y350885D01*
X104194107Y350885D01*
X104289345Y303266D01*
X104336964Y255647D01*
X104384583Y160409D01*
X104384583Y-77685D01*
X104336964Y-172923D01*
X104289345Y-220542D01*
X104194107Y-268161D01*
X103956012Y-268161D01*
X103860774Y-220542D01*
X103813155Y-172923D01*
%TO.C,R5*%
X33726800Y-268161D02*
X33393467Y208028D01*
X33155371Y-268161D02*
X33155371Y731838D01*
X33536324Y731838D01*
X33631562Y684219D01*
X33679181Y636599D01*
X33726800Y541361D01*
X33726800Y398504D01*
X33679181Y303266D01*
X33631562Y255647D01*
X33536324Y208028D01*
X33155371Y208028D01*
X34631562Y731838D02*
X34155371Y731838D01*
X34107752Y255647D01*
X34155371Y303266D01*
X34250609Y350885D01*
X34488705Y350885D01*
X34583943Y303266D01*
X34631562Y255647D01*
X34679181Y160409D01*
X34679181Y-77685D01*
X34631562Y-172923D01*
X34583943Y-220542D01*
X34488705Y-268161D01*
X34250609Y-268161D01*
X34155371Y-220542D01*
X34107752Y-172923D01*
%TO.C,R24*%
X144657142Y3645121D02*
X144323809Y4121311D01*
X144085714Y3645121D02*
X144085714Y4645121D01*
X144466666Y4645121D01*
X144561904Y4597502D01*
X144609523Y4549882D01*
X144657142Y4454644D01*
X144657142Y4311787D01*
X144609523Y4216549D01*
X144561904Y4168930D01*
X144466666Y4121311D01*
X144085714Y4121311D01*
X145038095Y4549882D02*
X145085714Y4597502D01*
X145180952Y4645121D01*
X145419047Y4645121D01*
X145514285Y4597502D01*
X145561904Y4549882D01*
X145609523Y4454644D01*
X145609523Y4359406D01*
X145561904Y4216549D01*
X144990476Y3645121D01*
X145609523Y3645121D01*
X146466666Y4311787D02*
X146466666Y3645121D01*
X146228571Y4692740D02*
X145990476Y3978454D01*
X146609523Y3978454D01*
%TO.C,U13*%
X9146229Y43199D02*
X9955753Y43199D01*
X10050991Y90818D01*
X10098610Y138437D01*
X10146229Y233675D01*
X10146229Y424152D01*
X10098610Y519390D01*
X10050991Y567009D01*
X9955753Y614628D01*
X9146229Y614628D01*
X10146229Y1614628D02*
X10146229Y1043199D01*
X10146229Y1328914D02*
X9146229Y1328914D01*
X9289087Y1233675D01*
X9384325Y1138437D01*
X9431944Y1043199D01*
X9146229Y1947961D02*
X9146229Y2567009D01*
X9527182Y2233675D01*
X9527182Y2376533D01*
X9574801Y2471771D01*
X9622420Y2519390D01*
X9717658Y2567009D01*
X9955753Y2567009D01*
X10050991Y2519390D01*
X10098610Y2471771D01*
X10146229Y2376533D01*
X10146229Y2090818D01*
X10098610Y1995580D01*
X10050991Y1947961D01*
%TO.C,J2*%
X154166666Y2380914D02*
X154166666Y1666628D01*
X154119047Y1523771D01*
X154023809Y1428533D01*
X153880952Y1380914D01*
X153785714Y1380914D01*
X154595238Y2285675D02*
X154642857Y2333295D01*
X154738095Y2380914D01*
X154976190Y2380914D01*
X155071428Y2333295D01*
X155119047Y2285675D01*
X155166666Y2190437D01*
X155166666Y2095199D01*
X155119047Y1952342D01*
X154547619Y1380914D01*
X155166666Y1380914D01*
%TO.C,R21*%
X140521055Y-2112161D02*
X140187722Y-1635971D01*
X139949627Y-2112161D02*
X139949627Y-1112161D01*
X140330579Y-1112161D01*
X140425817Y-1159781D01*
X140473436Y-1207400D01*
X140521055Y-1302638D01*
X140521055Y-1445495D01*
X140473436Y-1540733D01*
X140425817Y-1588352D01*
X140330579Y-1635971D01*
X139949627Y-1635971D01*
X140902008Y-1207400D02*
X140949627Y-1159781D01*
X141044865Y-1112161D01*
X141282960Y-1112161D01*
X141378198Y-1159781D01*
X141425817Y-1207400D01*
X141473436Y-1302638D01*
X141473436Y-1397876D01*
X141425817Y-1540733D01*
X140854389Y-2112161D01*
X141473436Y-2112161D01*
X142425817Y-2112161D02*
X141854389Y-2112161D01*
X142140103Y-2112161D02*
X142140103Y-1112161D01*
X142044865Y-1255019D01*
X141949627Y-1350257D01*
X141854389Y-1397876D01*
%TO.C,JP1*%
X5812515Y10210914D02*
X5812515Y9496628D01*
X5764896Y9353771D01*
X5669658Y9258533D01*
X5526801Y9210914D01*
X5431563Y9210914D01*
X6288706Y9210914D02*
X6288706Y10210914D01*
X6669658Y10210914D01*
X6764896Y10163295D01*
X6812515Y10115675D01*
X6860134Y10020437D01*
X6860134Y9877580D01*
X6812515Y9782342D01*
X6764896Y9734723D01*
X6669658Y9687104D01*
X6288706Y9687104D01*
X7812515Y9210914D02*
X7241087Y9210914D01*
X7526801Y9210914D02*
X7526801Y10210914D01*
X7431563Y10068056D01*
X7336325Y9972818D01*
X7241087Y9925199D01*
%TO.C,R16*%
X102431979Y2076380D02*
X102098646Y2552570D01*
X101860551Y2076380D02*
X101860551Y3076380D01*
X102241503Y3076380D01*
X102336741Y3028761D01*
X102384360Y2981141D01*
X102431979Y2885903D01*
X102431979Y2743046D01*
X102384360Y2647808D01*
X102336741Y2600189D01*
X102241503Y2552570D01*
X101860551Y2552570D01*
X103384360Y2076380D02*
X102812932Y2076380D01*
X103098646Y2076380D02*
X103098646Y3076380D01*
X103003408Y2933522D01*
X102908170Y2838284D01*
X102812932Y2790665D01*
X104241503Y3076380D02*
X104051027Y3076380D01*
X103955789Y3028761D01*
X103908170Y2981141D01*
X103812932Y2838284D01*
X103765313Y2647808D01*
X103765313Y2266856D01*
X103812932Y2171618D01*
X103860551Y2123999D01*
X103955789Y2076380D01*
X104146265Y2076380D01*
X104241503Y2123999D01*
X104289122Y2171618D01*
X104336741Y2266856D01*
X104336741Y2504951D01*
X104289122Y2600189D01*
X104241503Y2647808D01*
X104146265Y2695427D01*
X103955789Y2695427D01*
X103860551Y2647808D01*
X103812932Y2600189D01*
X103765313Y2504951D01*
%TO.C,R2*%
X2737325Y3373914D02*
X2403992Y3850104D01*
X2165896Y3373914D02*
X2165896Y4373914D01*
X2546849Y4373914D01*
X2642087Y4326295D01*
X2689706Y4278675D01*
X2737325Y4183437D01*
X2737325Y4040580D01*
X2689706Y3945342D01*
X2642087Y3897723D01*
X2546849Y3850104D01*
X2165896Y3850104D01*
X3118277Y4278675D02*
X3165896Y4326295D01*
X3261134Y4373914D01*
X3499230Y4373914D01*
X3594468Y4326295D01*
X3642087Y4278675D01*
X3689706Y4183437D01*
X3689706Y4088199D01*
X3642087Y3945342D01*
X3070658Y3373914D01*
X3689706Y3373914D01*
%TO.C,R11*%
X74965667Y-268161D02*
X74632334Y208028D01*
X74394239Y-268161D02*
X74394239Y731838D01*
X74775191Y731838D01*
X74870429Y684219D01*
X74918048Y636599D01*
X74965667Y541361D01*
X74965667Y398504D01*
X74918048Y303266D01*
X74870429Y255647D01*
X74775191Y208028D01*
X74394239Y208028D01*
X75918048Y-268161D02*
X75346620Y-268161D01*
X75632334Y-268161D02*
X75632334Y731838D01*
X75537096Y588980D01*
X75441858Y493742D01*
X75346620Y446123D01*
X76870429Y-268161D02*
X76299001Y-268161D01*
X76584715Y-268161D02*
X76584715Y731838D01*
X76489477Y588980D01*
X76394239Y493742D01*
X76299001Y446123D01*
%TO.C,R19*%
X129993975Y-268161D02*
X129660642Y208028D01*
X129422547Y-268161D02*
X129422547Y731838D01*
X129803499Y731838D01*
X129898737Y684219D01*
X129946356Y636599D01*
X129993975Y541361D01*
X129993975Y398504D01*
X129946356Y303266D01*
X129898737Y255647D01*
X129803499Y208028D01*
X129422547Y208028D01*
X130946356Y-268161D02*
X130374928Y-268161D01*
X130660642Y-268161D02*
X130660642Y731838D01*
X130565404Y588980D01*
X130470166Y493742D01*
X130374928Y446123D01*
X131422547Y-268161D02*
X131613023Y-268161D01*
X131708261Y-220542D01*
X131755880Y-172923D01*
X131851118Y-30066D01*
X131898737Y160409D01*
X131898737Y541361D01*
X131851118Y636599D01*
X131803499Y684219D01*
X131708261Y731838D01*
X131517785Y731838D01*
X131422547Y684219D01*
X131374928Y636599D01*
X131327309Y541361D01*
X131327309Y303266D01*
X131374928Y208028D01*
X131422547Y160409D01*
X131517785Y112790D01*
X131708261Y112790D01*
X131803499Y160409D01*
X131851118Y208028D01*
X131898737Y303266D01*
%TO.C,R3*%
X19868546Y-268161D02*
X19535213Y208028D01*
X19297117Y-268161D02*
X19297117Y731838D01*
X19678070Y731838D01*
X19773308Y684219D01*
X19820927Y636599D01*
X19868546Y541361D01*
X19868546Y398504D01*
X19820927Y303266D01*
X19773308Y255647D01*
X19678070Y208028D01*
X19297117Y208028D01*
X20201879Y731838D02*
X20820927Y731838D01*
X20487593Y350885D01*
X20630451Y350885D01*
X20725689Y303266D01*
X20773308Y255647D01*
X20820927Y160409D01*
X20820927Y-77685D01*
X20773308Y-172923D01*
X20725689Y-220542D01*
X20630451Y-268161D01*
X20344736Y-268161D01*
X20249498Y-220542D01*
X20201879Y-172923D01*
%TO.C,R10*%
X61165022Y2076380D02*
X60831689Y2552570D01*
X60593594Y2076380D02*
X60593594Y3076380D01*
X60974546Y3076380D01*
X61069784Y3028761D01*
X61117403Y2981141D01*
X61165022Y2885903D01*
X61165022Y2743046D01*
X61117403Y2647808D01*
X61069784Y2600189D01*
X60974546Y2552570D01*
X60593594Y2552570D01*
X62117403Y2076380D02*
X61545975Y2076380D01*
X61831689Y2076380D02*
X61831689Y3076380D01*
X61736451Y2933522D01*
X61641213Y2838284D01*
X61545975Y2790665D01*
X62736451Y3076380D02*
X62831689Y3076380D01*
X62926927Y3028761D01*
X62974546Y2981141D01*
X63022165Y2885903D01*
X63069784Y2695427D01*
X63069784Y2457332D01*
X63022165Y2266856D01*
X62974546Y2171618D01*
X62926927Y2123999D01*
X62831689Y2076380D01*
X62736451Y2076380D01*
X62641213Y2123999D01*
X62593594Y2171618D01*
X62545975Y2266856D01*
X62498356Y2457332D01*
X62498356Y2695427D01*
X62545975Y2885903D01*
X62593594Y2981141D01*
X62641213Y3028761D01*
X62736451Y3076380D01*
%TO.C,R13*%
X88722744Y-268161D02*
X88389411Y208028D01*
X88151316Y-268161D02*
X88151316Y731838D01*
X88532268Y731838D01*
X88627506Y684219D01*
X88675125Y636599D01*
X88722744Y541361D01*
X88722744Y398504D01*
X88675125Y303266D01*
X88627506Y255647D01*
X88532268Y208028D01*
X88151316Y208028D01*
X89675125Y-268161D02*
X89103697Y-268161D01*
X89389411Y-268161D02*
X89389411Y731838D01*
X89294173Y588980D01*
X89198935Y493742D01*
X89103697Y446123D01*
X90008459Y731838D02*
X90627506Y731838D01*
X90294173Y350885D01*
X90437030Y350885D01*
X90532268Y303266D01*
X90579887Y255647D01*
X90627506Y160409D01*
X90627506Y-77685D01*
X90579887Y-172923D01*
X90532268Y-220542D01*
X90437030Y-268161D01*
X90151316Y-268161D01*
X90056078Y-220542D01*
X90008459Y-172923D01*
%TO.C,R23*%
X144657142Y-2076380D02*
X144323809Y-1600190D01*
X144085714Y-2076380D02*
X144085714Y-1076380D01*
X144466666Y-1076380D01*
X144561904Y-1124000D01*
X144609523Y-1171619D01*
X144657142Y-1266857D01*
X144657142Y-1409714D01*
X144609523Y-1504952D01*
X144561904Y-1552571D01*
X144466666Y-1600190D01*
X144085714Y-1600190D01*
X145038095Y-1171619D02*
X145085714Y-1124000D01*
X145180952Y-1076380D01*
X145419047Y-1076380D01*
X145514285Y-1124000D01*
X145561904Y-1171619D01*
X145609523Y-1266857D01*
X145609523Y-1362095D01*
X145561904Y-1504952D01*
X144990476Y-2076380D01*
X145609523Y-2076380D01*
X145942857Y-1076380D02*
X146561904Y-1076380D01*
X146228571Y-1457333D01*
X146371428Y-1457333D01*
X146466666Y-1504952D01*
X146514285Y-1552571D01*
X146561904Y-1647809D01*
X146561904Y-1885904D01*
X146514285Y-1981142D01*
X146466666Y-2028761D01*
X146371428Y-2076380D01*
X146085714Y-2076380D01*
X145990476Y-2028761D01*
X145942857Y-1981142D01*
%TO.C,R4*%
X19804198Y2076380D02*
X19470865Y2552570D01*
X19232769Y2076380D02*
X19232769Y3076380D01*
X19613722Y3076380D01*
X19708960Y3028761D01*
X19756579Y2981141D01*
X19804198Y2885903D01*
X19804198Y2743046D01*
X19756579Y2647808D01*
X19708960Y2600189D01*
X19613722Y2552570D01*
X19232769Y2552570D01*
X20661341Y2743046D02*
X20661341Y2076380D01*
X20423245Y3123999D02*
X20185150Y2409713D01*
X20804198Y2409713D01*
%TO.C,C1*%
X6963026Y-4010076D02*
X6915407Y-4057695D01*
X6772550Y-4105314D01*
X6677312Y-4105314D01*
X6534454Y-4057695D01*
X6439216Y-3962457D01*
X6391597Y-3867219D01*
X6343978Y-3676743D01*
X6343978Y-3533886D01*
X6391597Y-3343410D01*
X6439216Y-3248172D01*
X6534454Y-3152934D01*
X6677312Y-3105314D01*
X6772550Y-3105314D01*
X6915407Y-3152934D01*
X6963026Y-3200553D01*
X7915407Y-4105314D02*
X7343978Y-4105314D01*
X7629693Y-4105314D02*
X7629693Y-3105314D01*
X7534454Y-3248172D01*
X7439216Y-3343410D01*
X7343978Y-3391029D01*
%TO.C,D1*%
X1589753Y-4505085D02*
X1589753Y-3505085D01*
X1827849Y-3505085D01*
X1970706Y-3552705D01*
X2065944Y-3647943D01*
X2113563Y-3743181D01*
X2161182Y-3933657D01*
X2161182Y-4076514D01*
X2113563Y-4266990D01*
X2065944Y-4362228D01*
X1970706Y-4457466D01*
X1827849Y-4505085D01*
X1589753Y-4505085D01*
X3113563Y-4505085D02*
X2542134Y-4505085D01*
X2827849Y-4505085D02*
X2827849Y-3505085D01*
X2732610Y-3647943D01*
X2637372Y-3743181D01*
X2542134Y-3790800D01*
%TO.C,R18*%
X116191807Y2076380D02*
X115858474Y2552570D01*
X115620379Y2076380D02*
X115620379Y3076380D01*
X116001331Y3076380D01*
X116096569Y3028761D01*
X116144188Y2981141D01*
X116191807Y2885903D01*
X116191807Y2743046D01*
X116144188Y2647808D01*
X116096569Y2600189D01*
X116001331Y2552570D01*
X115620379Y2552570D01*
X117144188Y2076380D02*
X116572760Y2076380D01*
X116858474Y2076380D02*
X116858474Y3076380D01*
X116763236Y2933522D01*
X116667998Y2838284D01*
X116572760Y2790665D01*
X117715617Y2647808D02*
X117620379Y2695427D01*
X117572760Y2743046D01*
X117525141Y2838284D01*
X117525141Y2885903D01*
X117572760Y2981141D01*
X117620379Y3028761D01*
X117715617Y3076380D01*
X117906093Y3076380D01*
X118001331Y3028761D01*
X118048950Y2981141D01*
X118096569Y2885903D01*
X118096569Y2838284D01*
X118048950Y2743046D01*
X118001331Y2695427D01*
X117906093Y2647808D01*
X117715617Y2647808D01*
X117620379Y2600189D01*
X117572760Y2552570D01*
X117525141Y2457332D01*
X117525141Y2266856D01*
X117572760Y2171618D01*
X117620379Y2123999D01*
X117715617Y2076380D01*
X117906093Y2076380D01*
X118001331Y2123999D01*
X118048950Y2171618D01*
X118096569Y2266856D01*
X118096569Y2457332D01*
X118048950Y2552570D01*
X118001331Y2600189D01*
X117906093Y2647808D01*
%TO.C,R1*%
X3001449Y-1858161D02*
X2668116Y-1381971D01*
X2430020Y-1858161D02*
X2430020Y-858161D01*
X2810973Y-858161D01*
X2906211Y-905781D01*
X2953830Y-953400D01*
X3001449Y-1048638D01*
X3001449Y-1191495D01*
X2953830Y-1286733D01*
X2906211Y-1334352D01*
X2810973Y-1381971D01*
X2430020Y-1381971D01*
X3953830Y-1858161D02*
X3382401Y-1858161D01*
X3668116Y-1858161D02*
X3668116Y-858161D01*
X3572877Y-1001019D01*
X3477639Y-1096257D01*
X3382401Y-1143876D01*
%TO.C,R7*%
X47331054Y-268161D02*
X46997721Y208028D01*
X46759625Y-268161D02*
X46759625Y731838D01*
X47140578Y731838D01*
X47235816Y684219D01*
X47283435Y636599D01*
X47331054Y541361D01*
X47331054Y398504D01*
X47283435Y303266D01*
X47235816Y255647D01*
X47140578Y208028D01*
X46759625Y208028D01*
X47664387Y731838D02*
X48331054Y731838D01*
X47902482Y-268161D01*
%TO.C,U5*%
X53021615Y6008619D02*
X53021615Y5199095D01*
X53069234Y5103857D01*
X53116853Y5056238D01*
X53212091Y5008619D01*
X53402567Y5008619D01*
X53497805Y5056238D01*
X53545424Y5103857D01*
X53593043Y5199095D01*
X53593043Y6008619D01*
X54545424Y6008619D02*
X54069234Y6008619D01*
X54021615Y5532428D01*
X54069234Y5580047D01*
X54164472Y5627666D01*
X54402567Y5627666D01*
X54497805Y5580047D01*
X54545424Y5532428D01*
X54593043Y5437190D01*
X54593043Y5199095D01*
X54545424Y5103857D01*
X54497805Y5056238D01*
X54402567Y5008619D01*
X54164472Y5008619D01*
X54069234Y5056238D01*
X54021615Y5103857D01*
%TO.C,U12*%
X148557424Y6008619D02*
X148557424Y5199095D01*
X148605043Y5103857D01*
X148652662Y5056238D01*
X148747900Y5008619D01*
X148938377Y5008619D01*
X149033615Y5056238D01*
X149081234Y5103857D01*
X149128853Y5199095D01*
X149128853Y6008619D01*
X150128853Y5008619D02*
X149557424Y5008619D01*
X149843139Y5008619D02*
X149843139Y6008619D01*
X149747900Y5865761D01*
X149652662Y5770523D01*
X149557424Y5722904D01*
X150509805Y5913380D02*
X150557424Y5961000D01*
X150652662Y6008619D01*
X150890758Y6008619D01*
X150985996Y5961000D01*
X151033615Y5913380D01*
X151081234Y5818142D01*
X151081234Y5722904D01*
X151033615Y5580047D01*
X150462186Y5008619D01*
X151081234Y5008619D01*
%TO.C,U2*%
X11873615Y6008619D02*
X11873615Y5199095D01*
X11921234Y5103857D01*
X11968853Y5056238D01*
X12064091Y5008619D01*
X12254567Y5008619D01*
X12349805Y5056238D01*
X12397424Y5103857D01*
X12445043Y5199095D01*
X12445043Y6008619D01*
X12873615Y5913380D02*
X12921234Y5961000D01*
X13016472Y6008619D01*
X13254567Y6008619D01*
X13349805Y5961000D01*
X13397424Y5913380D01*
X13445043Y5818142D01*
X13445043Y5722904D01*
X13397424Y5580047D01*
X12825996Y5008619D01*
X13445043Y5008619D01*
%TO.C,U3*%
X25589615Y6008619D02*
X25589615Y5199095D01*
X25637234Y5103857D01*
X25684853Y5056238D01*
X25780091Y5008619D01*
X25970567Y5008619D01*
X26065805Y5056238D01*
X26113424Y5103857D01*
X26161043Y5199095D01*
X26161043Y6008619D01*
X26541996Y6008619D02*
X27161043Y6008619D01*
X26827710Y5627666D01*
X26970567Y5627666D01*
X27065805Y5580047D01*
X27113424Y5532428D01*
X27161043Y5437190D01*
X27161043Y5199095D01*
X27113424Y5103857D01*
X27065805Y5056238D01*
X26970567Y5008619D01*
X26684853Y5008619D01*
X26589615Y5056238D01*
X26541996Y5103857D01*
%TO.C,U10*%
X121125424Y6008619D02*
X121125424Y5199095D01*
X121173043Y5103857D01*
X121220662Y5056238D01*
X121315900Y5008619D01*
X121506377Y5008619D01*
X121601615Y5056238D01*
X121649234Y5103857D01*
X121696853Y5199095D01*
X121696853Y6008619D01*
X122696853Y5008619D02*
X122125424Y5008619D01*
X122411139Y5008619D02*
X122411139Y6008619D01*
X122315900Y5865761D01*
X122220662Y5770523D01*
X122125424Y5722904D01*
X123315900Y6008619D02*
X123411139Y6008619D01*
X123506377Y5961000D01*
X123553996Y5913380D01*
X123601615Y5818142D01*
X123649234Y5627666D01*
X123649234Y5389571D01*
X123601615Y5199095D01*
X123553996Y5103857D01*
X123506377Y5056238D01*
X123411139Y5008619D01*
X123315900Y5008619D01*
X123220662Y5056238D01*
X123173043Y5103857D01*
X123125424Y5199095D01*
X123077805Y5389571D01*
X123077805Y5627666D01*
X123125424Y5818142D01*
X123173043Y5913380D01*
X123220662Y5961000D01*
X123315900Y6008619D01*
%TO.C,U8*%
X94169615Y6008619D02*
X94169615Y5199095D01*
X94217234Y5103857D01*
X94264853Y5056238D01*
X94360091Y5008619D01*
X94550567Y5008619D01*
X94645805Y5056238D01*
X94693424Y5103857D01*
X94741043Y5199095D01*
X94741043Y6008619D01*
X95360091Y5580047D02*
X95264853Y5627666D01*
X95217234Y5675285D01*
X95169615Y5770523D01*
X95169615Y5818142D01*
X95217234Y5913380D01*
X95264853Y5961000D01*
X95360091Y6008619D01*
X95550567Y6008619D01*
X95645805Y5961000D01*
X95693424Y5913380D01*
X95741043Y5818142D01*
X95741043Y5770523D01*
X95693424Y5675285D01*
X95645805Y5627666D01*
X95550567Y5580047D01*
X95360091Y5580047D01*
X95264853Y5532428D01*
X95217234Y5484809D01*
X95169615Y5389571D01*
X95169615Y5199095D01*
X95217234Y5103857D01*
X95264853Y5056238D01*
X95360091Y5008619D01*
X95550567Y5008619D01*
X95645805Y5056238D01*
X95693424Y5103857D01*
X95741043Y5199095D01*
X95741043Y5389571D01*
X95693424Y5484809D01*
X95645805Y5532428D01*
X95550567Y5580047D01*
%TO.C,U11*%
X134841424Y6008619D02*
X134841424Y5199095D01*
X134889043Y5103857D01*
X134936662Y5056238D01*
X135031900Y5008619D01*
X135222377Y5008619D01*
X135317615Y5056238D01*
X135365234Y5103857D01*
X135412853Y5199095D01*
X135412853Y6008619D01*
X136412853Y5008619D02*
X135841424Y5008619D01*
X136127139Y5008619D02*
X136127139Y6008619D01*
X136031900Y5865761D01*
X135936662Y5770523D01*
X135841424Y5722904D01*
X137365234Y5008619D02*
X136793805Y5008619D01*
X137079520Y5008619D02*
X137079520Y6008619D01*
X136984281Y5865761D01*
X136889043Y5770523D01*
X136793805Y5722904D01*
%TO.C,U1*%
X-1842384Y6008619D02*
X-1842384Y5199095D01*
X-1794765Y5103857D01*
X-1747146Y5056238D01*
X-1651908Y5008619D01*
X-1461432Y5008619D01*
X-1366194Y5056238D01*
X-1318575Y5103857D01*
X-1270956Y5199095D01*
X-1270956Y6008619D01*
X-270956Y5008619D02*
X-842384Y5008619D01*
X-556670Y5008619D02*
X-556670Y6008619D01*
X-651908Y5865761D01*
X-747146Y5770523D01*
X-842384Y5722904D01*
%TO.C,U6*%
X66737615Y6008619D02*
X66737615Y5199095D01*
X66785234Y5103857D01*
X66832853Y5056238D01*
X66928091Y5008619D01*
X67118567Y5008619D01*
X67213805Y5056238D01*
X67261424Y5103857D01*
X67309043Y5199095D01*
X67309043Y6008619D01*
X68213805Y6008619D02*
X68023329Y6008619D01*
X67928091Y5961000D01*
X67880472Y5913380D01*
X67785234Y5770523D01*
X67737615Y5580047D01*
X67737615Y5199095D01*
X67785234Y5103857D01*
X67832853Y5056238D01*
X67928091Y5008619D01*
X68118567Y5008619D01*
X68213805Y5056238D01*
X68261424Y5103857D01*
X68309043Y5199095D01*
X68309043Y5437190D01*
X68261424Y5532428D01*
X68213805Y5580047D01*
X68118567Y5627666D01*
X67928091Y5627666D01*
X67832853Y5580047D01*
X67785234Y5532428D01*
X67737615Y5437190D01*
%TO.C,U9*%
X107885615Y6008619D02*
X107885615Y5199095D01*
X107933234Y5103857D01*
X107980853Y5056238D01*
X108076091Y5008619D01*
X108266567Y5008619D01*
X108361805Y5056238D01*
X108409424Y5103857D01*
X108457043Y5199095D01*
X108457043Y6008619D01*
X108980853Y5008619D02*
X109171329Y5008619D01*
X109266567Y5056238D01*
X109314186Y5103857D01*
X109409424Y5246714D01*
X109457043Y5437190D01*
X109457043Y5818142D01*
X109409424Y5913380D01*
X109361805Y5961000D01*
X109266567Y6008619D01*
X109076091Y6008619D01*
X108980853Y5961000D01*
X108933234Y5913380D01*
X108885615Y5818142D01*
X108885615Y5580047D01*
X108933234Y5484809D01*
X108980853Y5437190D01*
X109076091Y5389571D01*
X109266567Y5389571D01*
X109361805Y5437190D01*
X109409424Y5484809D01*
X109457043Y5580047D01*
%TO.C,U7*%
X80453615Y6008619D02*
X80453615Y5199095D01*
X80501234Y5103857D01*
X80548853Y5056238D01*
X80644091Y5008619D01*
X80834567Y5008619D01*
X80929805Y5056238D01*
X80977424Y5103857D01*
X81025043Y5199095D01*
X81025043Y6008619D01*
X81405996Y6008619D02*
X82072662Y6008619D01*
X81644091Y5008619D01*
%TO.C,U4*%
X39305615Y6008619D02*
X39305615Y5199095D01*
X39353234Y5103857D01*
X39400853Y5056238D01*
X39496091Y5008619D01*
X39686567Y5008619D01*
X39781805Y5056238D01*
X39829424Y5103857D01*
X39877043Y5199095D01*
X39877043Y6008619D01*
X40781805Y5675285D02*
X40781805Y5008619D01*
X40543710Y6056238D02*
X40305615Y5341952D01*
X40924662Y5341952D01*
D14*
%TO.C,R20*%
X127102911Y3073585D02*
X127577427Y3073585D01*
X127102911Y2028585D02*
X127577427Y2028585D01*
%TO.C,R8*%
X44543943Y3073585D02*
X45018459Y3073585D01*
X44543943Y2028585D02*
X45018459Y2028585D01*
%TO.C,R9*%
X58333973Y787795D02*
X58808489Y787795D01*
X58333973Y-257205D02*
X58808489Y-257205D01*
%TO.C,R22*%
X140862742Y3073585D02*
X141337258Y3073585D01*
X140862742Y2028585D02*
X141337258Y2028585D01*
%TO.C,R6*%
X30784115Y2028585D02*
X31258631Y2028585D01*
X30784115Y3073585D02*
X31258631Y3073585D01*
%TO.C,J3*%
X-7130151Y-1766705D02*
X-4470151Y-1766705D01*
X-7130151Y833295D02*
X-5800151Y833295D01*
X-4470151Y-1766705D02*
X-4470151Y-4366705D01*
X-7130151Y-1766705D02*
X-7130151Y-4366705D01*
X-7130151Y-4366705D02*
X-4470151Y-4366705D01*
X-7130151Y-496705D02*
X-7130151Y833295D01*
%TO.C,R14*%
X85823427Y2028585D02*
X86297943Y2028585D01*
X85823427Y3073585D02*
X86297943Y3073585D01*
%TO.C,R17*%
X113362281Y787795D02*
X113836797Y787795D01*
X113362281Y-257205D02*
X113836797Y-257205D01*
%TO.C,R12*%
X72063599Y3073585D02*
X72538115Y3073585D01*
X72063599Y2028585D02*
X72538115Y2028585D01*
%TO.C,C2*%
X5754849Y4442715D02*
X5754849Y4723875D01*
X6774849Y4442715D02*
X6774849Y4723875D01*
%TO.C,D2*%
X11686849Y6896295D02*
X11686849Y8366295D01*
X11686849Y8366295D02*
X9401849Y8366295D01*
X9401849Y6896295D02*
X11686849Y6896295D01*
%TO.C,R25*%
X13995107Y7108795D02*
X13520591Y7108795D01*
X13995107Y8153795D02*
X13520591Y8153795D01*
%TO.C,R15*%
X99605204Y-257205D02*
X100079720Y-257205D01*
X99605204Y787795D02*
X100079720Y787795D01*
%TO.C,R5*%
X30819819Y787795D02*
X31294335Y787795D01*
X30819819Y-257205D02*
X31294335Y-257205D01*
%TO.C,R24*%
X145537258Y2051002D02*
X145062742Y2051002D01*
X145537258Y3096002D02*
X145062742Y3096002D01*
%TO.C,U13*%
X5593849Y1027295D02*
X5593849Y-772705D01*
X8713849Y1027295D02*
X8713849Y227295D01*
X8713849Y1027295D02*
X8713849Y1827295D01*
X5593849Y1027295D02*
X5593849Y1827295D01*
%TO.C,J2*%
X153170000Y-1766705D02*
X153170000Y-4366705D01*
X153170000Y-496705D02*
X153170000Y833295D01*
X155830000Y-1766705D02*
X155830000Y-4366705D01*
X153170000Y-1766705D02*
X155830000Y-1766705D01*
X153170000Y-4366705D02*
X155830000Y-4366705D01*
X153170000Y833295D02*
X154500000Y833295D01*
%TO.C,R21*%
X140876438Y-257205D02*
X141350954Y-257205D01*
X140876438Y787795D02*
X141350954Y787795D01*
%TO.C,JP1*%
X7345849Y6631295D02*
G75*
G03*
X8045849Y7331295I1J699999D01*
G01*
X5945849Y8631295D02*
G75*
G03*
X5245849Y7931295I0J-700000D01*
G01*
X5245849Y7331295D02*
G75*
G03*
X5945849Y6631295I700000J0D01*
G01*
X8045849Y7931295D02*
G75*
G03*
X7345849Y8631295I-699999J1D01*
G01*
X5945849Y8631295D02*
X7345849Y8631295D01*
X8045849Y7931295D02*
X8045849Y7331295D01*
X5245849Y7331295D02*
X5245849Y7931295D01*
X7345849Y6631295D02*
X5945849Y6631295D01*
%TO.C,R16*%
X99583255Y3073585D02*
X100057771Y3073585D01*
X99583255Y2028585D02*
X100057771Y2028585D01*
%TO.C,R2*%
X2852591Y2004476D02*
X3327107Y2004476D01*
X2852591Y3049476D02*
X3327107Y3049476D01*
%TO.C,R11*%
X72091050Y-257205D02*
X72565566Y-257205D01*
X72091050Y787795D02*
X72565566Y787795D01*
%TO.C,R19*%
X127119358Y787795D02*
X127593874Y787795D01*
X127119358Y-257205D02*
X127593874Y-257205D01*
%TO.C,R3*%
X17062742Y-257205D02*
X17537258Y-257205D01*
X17062742Y787795D02*
X17537258Y787795D01*
%TO.C,R10*%
X58303771Y3073585D02*
X58778287Y3073585D01*
X58303771Y2028585D02*
X58778287Y2028585D01*
%TO.C,R13*%
X85848127Y-257205D02*
X86322643Y-257205D01*
X85848127Y787795D02*
X86322643Y787795D01*
%TO.C,J1*%
X58715849Y12009295D02*
X86715849Y12009295D01*
X57445849Y9349295D02*
X56115849Y9349295D01*
X58715849Y9349295D02*
X86715849Y9349295D01*
X56115849Y9349295D02*
X56115849Y10679295D01*
X86715849Y9349295D02*
X86715849Y12009295D01*
X58715849Y9349295D02*
X58715849Y12009295D01*
%TO.C,R23*%
X145600258Y422500D02*
X145125742Y422500D01*
X145600258Y-622500D02*
X145125742Y-622500D01*
%TO.C,R4*%
X17024287Y2028585D02*
X17498803Y2028585D01*
X17024287Y3073585D02*
X17498803Y3073585D01*
%TO.C,C1*%
X6862015Y-2657705D02*
X7143175Y-2657705D01*
X6862015Y-1637705D02*
X7143175Y-1637705D01*
%TO.C,D1*%
X1275849Y-1782705D02*
X-2624151Y-1782705D01*
X1275849Y-3782705D02*
X1275849Y-1782705D01*
X1275849Y-3782705D02*
X-2624151Y-3782705D01*
%TO.C,R18*%
X113343083Y2028585D02*
X113817599Y2028585D01*
X113343083Y3073585D02*
X113817599Y3073585D01*
%TO.C,R1*%
X2852591Y-257205D02*
X3327107Y-257205D01*
X2852591Y787795D02*
X3327107Y787795D01*
%TO.C,R7*%
X44576896Y-257205D02*
X45051412Y-257205D01*
X44576896Y787795D02*
X45051412Y787795D01*
%TD*%
%LPC*%
D15*
%TO.C,R20*%
X126515169Y2551085D03*
X128165169Y2551085D03*
%TD*%
%TO.C,R8*%
X43956201Y2551085D03*
X45606201Y2551085D03*
%TD*%
%TO.C,R9*%
X57746231Y265295D03*
X59396231Y265295D03*
%TD*%
%TO.C,R22*%
X140275000Y2551085D03*
X141925000Y2551085D03*
%TD*%
%TO.C,R6*%
X30196373Y2551085D03*
X31846373Y2551085D03*
%TD*%
D16*
%TO.C,J3*%
X-5800151Y-496705D03*
D17*
X-5800151Y-3036705D03*
%TD*%
D15*
%TO.C,R14*%
X86885685Y2551085D03*
X85235685Y2551085D03*
%TD*%
D18*
%TO.C,MP1*%
X151000000Y9175495D03*
%TD*%
D15*
%TO.C,R17*%
X114424539Y265295D03*
X112774539Y265295D03*
%TD*%
%TO.C,R12*%
X71475857Y2551085D03*
X73125857Y2551085D03*
%TD*%
D19*
%TO.C,C2*%
X6264849Y5358295D03*
X6264849Y3808295D03*
%TD*%
D20*
%TO.C,D2*%
X9414349Y7631295D03*
X10989349Y7631295D03*
%TD*%
D21*
%TO.C,R25*%
X12932849Y7631295D03*
X14582849Y7631295D03*
%TD*%
D15*
%TO.C,R15*%
X100667462Y265295D03*
X99017462Y265295D03*
%TD*%
%TO.C,R5*%
X31882077Y265295D03*
X30232077Y265295D03*
%TD*%
D21*
%TO.C,R24*%
X144475000Y2573502D03*
X146125000Y2573502D03*
%TD*%
D22*
%TO.C,U13*%
X6203849Y2164795D03*
X8103849Y2164795D03*
X8103849Y-110205D03*
X7153849Y-110205D03*
X6203849Y-110205D03*
%TD*%
D16*
%TO.C,J2*%
X154500000Y-496705D03*
D17*
X154500000Y-3036705D03*
%TD*%
D15*
%TO.C,R21*%
X140288696Y265295D03*
X141938696Y265295D03*
%TD*%
D23*
%TO.C,JP1*%
X5995849Y7631295D03*
D24*
X7295849Y7631295D03*
%TD*%
D15*
%TO.C,R16*%
X98995513Y2551085D03*
X100645513Y2551085D03*
%TD*%
%TO.C,R2*%
X3914849Y2526976D03*
X2264849Y2526976D03*
%TD*%
%TO.C,R11*%
X73153308Y265295D03*
X71503308Y265295D03*
%TD*%
%TO.C,R19*%
X128181616Y265295D03*
X126531616Y265295D03*
%TD*%
%TO.C,R3*%
X18125000Y265295D03*
X16475000Y265295D03*
%TD*%
%TO.C,R10*%
X57716029Y2551085D03*
X59366029Y2551085D03*
%TD*%
%TO.C,R13*%
X85260385Y265295D03*
X86910385Y265295D03*
%TD*%
D18*
%TO.C,MP2*%
X-2244151Y9409295D03*
%TD*%
D17*
%TO.C,J1*%
X85385849Y10679295D03*
X82845849Y10679295D03*
X80305849Y10679295D03*
X77765849Y10679295D03*
X75225849Y10679295D03*
X72685849Y10679295D03*
X70145849Y10679295D03*
X67605849Y10679295D03*
X65065849Y10679295D03*
X62525849Y10679295D03*
X59985849Y10679295D03*
D25*
X57445849Y10679295D03*
%TD*%
D21*
%TO.C,R23*%
X144538000Y-100000D03*
X146188000Y-100000D03*
%TD*%
D15*
%TO.C,R4*%
X16436545Y2551085D03*
X18086545Y2551085D03*
%TD*%
D26*
%TO.C,C1*%
X7777595Y-2147705D03*
X6227595Y-2147705D03*
%TD*%
D27*
%TO.C,D1*%
X-2624151Y-2782705D03*
X675849Y-2782705D03*
%TD*%
D15*
%TO.C,R18*%
X112755341Y2551085D03*
X114405341Y2551085D03*
%TD*%
%TO.C,R1*%
X3914849Y265295D03*
X2264849Y265295D03*
%TD*%
%TO.C,R7*%
X45639154Y265295D03*
X43989154Y265295D03*
%TD*%
D28*
%TO.C,U5*%
X52730400Y2500000D03*
X52730400Y0D03*
X54864000Y0D03*
X54864000Y2500000D03*
%TD*%
%TO.C,U12*%
X148742400Y2500000D03*
X148742400Y0D03*
X150876000Y0D03*
X150876000Y2500000D03*
%TD*%
%TO.C,U2*%
X11582400Y2500000D03*
X11582400Y0D03*
X13716000Y0D03*
X13716000Y2500000D03*
%TD*%
%TO.C,U3*%
X27432000Y2500000D03*
X27432000Y0D03*
X25298400Y0D03*
X25298400Y2500000D03*
%TD*%
%TO.C,U10*%
X123444000Y2500000D03*
X123444000Y0D03*
X121310400Y0D03*
X121310400Y2500000D03*
%TD*%
%TO.C,U8*%
X96012000Y2500000D03*
X96012000Y0D03*
X93878400Y0D03*
X93878400Y2500000D03*
%TD*%
%TO.C,U11*%
X137160000Y2500000D03*
X137160000Y0D03*
X135026400Y0D03*
X135026400Y2500000D03*
%TD*%
%TO.C,U1*%
X0Y2500000D03*
X0Y0D03*
X-2133600Y0D03*
X-2133600Y2500000D03*
%TD*%
%TO.C,U6*%
X68580000Y2500000D03*
X68580000Y0D03*
X66446400Y0D03*
X66446400Y2500000D03*
%TD*%
%TO.C,U9*%
X109728000Y2500000D03*
X109728000Y0D03*
X107594400Y0D03*
X107594400Y2500000D03*
%TD*%
%TO.C,U7*%
X82296000Y2500000D03*
X82296000Y0D03*
X80162400Y0D03*
X80162400Y2500000D03*
%TD*%
%TO.C,U4*%
X41148000Y2500000D03*
X41148000Y0D03*
X39014400Y0D03*
X39014400Y2500000D03*
%TD*%
M02*
