%TF.GenerationSoftware,KiCad,Pcbnew,(6.0.7-1)-1*%
%TF.CreationDate,2024-02-27T19:57:38-05:00*%
%TF.ProjectId,EMHarpsichord_KeyboardCapture_SnyderphonicsAlt,454d4861-7270-4736-9963-686f72645f4b,rev?*%
%TF.SameCoordinates,Original*%
%TF.FileFunction,Soldermask,Top*%
%TF.FilePolarity,Negative*%
%FSLAX46Y46*%
G04 Gerber Fmt 4.6, Leading zero omitted, Abs format (unit mm)*
G04 Created by KiCad (PCBNEW (6.0.7-1)-1) date 2024-02-27 19:57:38*
%MOMM*%
%LPD*%
G01*
G04 APERTURE LIST*
G04 Aperture macros list*
%AMRoundRect*
0 Rectangle with rounded corners*
0 $1 Rounding radius*
0 $2 $3 $4 $5 $6 $7 $8 $9 X,Y pos of 4 corners*
0 Add a 4 corners polygon primitive as box body*
4,1,4,$2,$3,$4,$5,$6,$7,$8,$9,$2,$3,0*
0 Add four circle primitives for the rounded corners*
1,1,$1+$1,$2,$3*
1,1,$1+$1,$4,$5*
1,1,$1+$1,$6,$7*
1,1,$1+$1,$8,$9*
0 Add four rect primitives between the rounded corners*
20,1,$1+$1,$2,$3,$4,$5,0*
20,1,$1+$1,$4,$5,$6,$7,0*
20,1,$1+$1,$6,$7,$8,$9,0*
20,1,$1+$1,$8,$9,$2,$3,0*%
%AMFreePoly0*
4,1,37,0.012350,0.794884,0.074210,0.794507,0.088231,0.792412,0.224052,0.751793,0.236921,0.745846,0.355883,0.668739,0.366566,0.659420,0.459104,0.552023,0.466742,0.540080,0.525419,0.411028,0.529398,0.397421,0.549495,0.257088,0.550000,0.250000,0.550000,-0.250000,0.549996,-0.250610,0.549847,-0.262826,0.549158,-0.270511,0.525638,-0.410312,0.521328,-0.423818,0.459516,-0.551397,
0.451589,-0.563150,0.356454,-0.668254,0.345546,-0.677309,0.224736,-0.751486,0.211726,-0.757116,0.074953,-0.794405,0.060885,-0.796158,0.011462,-0.795252,0.000000,-0.800000,-0.500000,-0.800000,-0.535355,-0.785355,-0.550000,-0.750000,-0.550000,0.750000,-0.535355,0.785355,-0.500000,0.800000,0.000000,0.800000,0.012350,0.794884,0.012350,0.794884,$1*%
%AMFreePoly1*
4,1,37,0.535355,0.785355,0.550000,0.750000,0.550000,-0.750000,0.535355,-0.785355,0.500000,-0.800000,0.000000,-0.800000,-0.012524,-0.794812,-0.080857,-0.793560,-0.094851,-0.791293,-0.230166,-0.749018,-0.242962,-0.742915,-0.360972,-0.664360,-0.371540,-0.654911,-0.462760,-0.546392,-0.470252,-0.534356,-0.527347,-0.404597,-0.531159,-0.390943,-0.548742,-0.256483,-0.547388,-0.256306,-0.550000,-0.250000,
-0.550000,0.250000,-0.549522,0.251153,-0.549368,0.263802,-0.527557,0.403879,-0.523412,0.417435,-0.463164,0.545760,-0.455381,0.557609,-0.361537,0.663867,-0.350741,0.673055,-0.230846,0.748703,-0.217905,0.754492,-0.081598,0.793449,-0.067552,0.795373,-0.011991,0.795033,0.000000,0.800000,0.500000,0.800000,0.535355,0.785355,0.535355,0.785355,$1*%
G04 Aperture macros list end*
%ADD10RoundRect,0.250000X-0.200000X-0.275000X0.200000X-0.275000X0.200000X0.275000X-0.200000X0.275000X0*%
%ADD11RoundRect,0.050000X-0.850000X-0.850000X0.850000X-0.850000X0.850000X0.850000X-0.850000X0.850000X0*%
%ADD12O,1.800000X1.800000*%
%ADD13O,8.700000X5.400000*%
%ADD14RoundRect,0.275000X0.250000X-0.225000X0.250000X0.225000X-0.250000X0.225000X-0.250000X-0.225000X0*%
%ADD15RoundRect,0.268750X0.218750X0.256250X-0.218750X0.256250X-0.218750X-0.256250X0.218750X-0.256250X0*%
%ADD16RoundRect,0.250000X0.200000X0.275000X-0.200000X0.275000X-0.200000X-0.275000X0.200000X-0.275000X0*%
%ADD17RoundRect,0.200000X0.150000X-0.512500X0.150000X0.512500X-0.150000X0.512500X-0.150000X-0.512500X0*%
%ADD18FreePoly0,180.000000*%
%ADD19FreePoly1,180.000000*%
%ADD20C,1.800000*%
%ADD21RoundRect,0.275000X-0.225000X-0.250000X0.225000X-0.250000X0.225000X0.250000X-0.225000X0.250000X0*%
%ADD22RoundRect,0.050000X0.450000X0.600000X-0.450000X0.600000X-0.450000X-0.600000X0.450000X-0.600000X0*%
%ADD23C,1.500000*%
G04 APERTURE END LIST*
D10*
%TO.C,R20*%
X126515169Y2551085D03*
X128165169Y2551085D03*
%TD*%
%TO.C,R8*%
X43956201Y2551085D03*
X45606201Y2551085D03*
%TD*%
%TO.C,R9*%
X57746231Y265295D03*
X59396231Y265295D03*
%TD*%
%TO.C,R22*%
X140275000Y2551085D03*
X141925000Y2551085D03*
%TD*%
%TO.C,R6*%
X30196373Y2551085D03*
X31846373Y2551085D03*
%TD*%
D11*
%TO.C,J3*%
X-5800151Y-496705D03*
D12*
X-5800151Y-3036705D03*
%TD*%
D10*
%TO.C,R14*%
X86885685Y2551085D03*
X85235685Y2551085D03*
%TD*%
D13*
%TO.C,MP1*%
X151000000Y9175495D03*
%TD*%
D10*
%TO.C,R17*%
X114424539Y265295D03*
X112774539Y265295D03*
%TD*%
%TO.C,R12*%
X71475857Y2551085D03*
X73125857Y2551085D03*
%TD*%
D14*
%TO.C,C2*%
X6264849Y5358295D03*
X6264849Y3808295D03*
%TD*%
D15*
%TO.C,D2*%
X9414349Y7631295D03*
X10989349Y7631295D03*
%TD*%
D16*
%TO.C,R25*%
X12932849Y7631295D03*
X14582849Y7631295D03*
%TD*%
D10*
%TO.C,R15*%
X100667462Y265295D03*
X99017462Y265295D03*
%TD*%
%TO.C,R5*%
X31882077Y265295D03*
X30232077Y265295D03*
%TD*%
D16*
%TO.C,R24*%
X144475000Y2573502D03*
X146125000Y2573502D03*
%TD*%
D17*
%TO.C,U13*%
X6203849Y2164795D03*
X8103849Y2164795D03*
X8103849Y-110205D03*
X7153849Y-110205D03*
X6203849Y-110205D03*
%TD*%
D11*
%TO.C,J2*%
X154500000Y-496705D03*
D12*
X154500000Y-3036705D03*
%TD*%
D10*
%TO.C,R21*%
X140288696Y265295D03*
X141938696Y265295D03*
%TD*%
D18*
%TO.C,JP1*%
X5995849Y7631295D03*
D19*
X7295849Y7631295D03*
%TD*%
D10*
%TO.C,R16*%
X98995513Y2551085D03*
X100645513Y2551085D03*
%TD*%
%TO.C,R2*%
X3914849Y2526976D03*
X2264849Y2526976D03*
%TD*%
%TO.C,R11*%
X73153308Y265295D03*
X71503308Y265295D03*
%TD*%
%TO.C,R19*%
X128181616Y265295D03*
X126531616Y265295D03*
%TD*%
%TO.C,R3*%
X18125000Y265295D03*
X16475000Y265295D03*
%TD*%
%TO.C,R10*%
X57716029Y2551085D03*
X59366029Y2551085D03*
%TD*%
%TO.C,R13*%
X85260385Y265295D03*
X86910385Y265295D03*
%TD*%
D13*
%TO.C,MP2*%
X-2244151Y9409295D03*
%TD*%
D12*
%TO.C,J1*%
X85385849Y10679295D03*
X82845849Y10679295D03*
X80305849Y10679295D03*
X77765849Y10679295D03*
X75225849Y10679295D03*
X72685849Y10679295D03*
X70145849Y10679295D03*
X67605849Y10679295D03*
X65065849Y10679295D03*
X62525849Y10679295D03*
X59985849Y10679295D03*
D20*
X57445849Y10679295D03*
%TD*%
D16*
%TO.C,R23*%
X144538000Y-100000D03*
X146188000Y-100000D03*
%TD*%
D10*
%TO.C,R4*%
X16436545Y2551085D03*
X18086545Y2551085D03*
%TD*%
D21*
%TO.C,C1*%
X7777595Y-2147705D03*
X6227595Y-2147705D03*
%TD*%
D22*
%TO.C,D1*%
X-2624151Y-2782705D03*
X675849Y-2782705D03*
%TD*%
D10*
%TO.C,R18*%
X112755341Y2551085D03*
X114405341Y2551085D03*
%TD*%
%TO.C,R1*%
X3914849Y265295D03*
X2264849Y265295D03*
%TD*%
%TO.C,R7*%
X45639154Y265295D03*
X43989154Y265295D03*
%TD*%
D23*
%TO.C,U5*%
X52730400Y2500000D03*
X52730400Y0D03*
X54864000Y0D03*
X54864000Y2500000D03*
%TD*%
%TO.C,U12*%
X148742400Y2500000D03*
X148742400Y0D03*
X150876000Y0D03*
X150876000Y2500000D03*
%TD*%
%TO.C,U2*%
X11582400Y2500000D03*
X11582400Y0D03*
X13716000Y0D03*
X13716000Y2500000D03*
%TD*%
%TO.C,U3*%
X27432000Y2500000D03*
X27432000Y0D03*
X25298400Y0D03*
X25298400Y2500000D03*
%TD*%
%TO.C,U10*%
X123444000Y2500000D03*
X123444000Y0D03*
X121310400Y0D03*
X121310400Y2500000D03*
%TD*%
%TO.C,U8*%
X96012000Y2500000D03*
X96012000Y0D03*
X93878400Y0D03*
X93878400Y2500000D03*
%TD*%
%TO.C,U11*%
X137160000Y2500000D03*
X137160000Y0D03*
X135026400Y0D03*
X135026400Y2500000D03*
%TD*%
%TO.C,U1*%
X0Y2500000D03*
X0Y0D03*
X-2133600Y0D03*
X-2133600Y2500000D03*
%TD*%
%TO.C,U6*%
X68580000Y2500000D03*
X68580000Y0D03*
X66446400Y0D03*
X66446400Y2500000D03*
%TD*%
%TO.C,U9*%
X109728000Y2500000D03*
X109728000Y0D03*
X107594400Y0D03*
X107594400Y2500000D03*
%TD*%
%TO.C,U7*%
X82296000Y2500000D03*
X82296000Y0D03*
X80162400Y0D03*
X80162400Y2500000D03*
%TD*%
%TO.C,U4*%
X41148000Y2500000D03*
X41148000Y0D03*
X39014400Y0D03*
X39014400Y2500000D03*
%TD*%
M02*
