%TF.GenerationSoftware,KiCad,Pcbnew,(6.0.7-1)-1*%
%TF.CreationDate,2024-02-27T19:57:38-05:00*%
%TF.ProjectId,EMHarpsichord_KeyboardCapture_SnyderphonicsAlt,454d4861-7270-4736-9963-686f72645f4b,rev?*%
%TF.SameCoordinates,Original*%
%TF.FileFunction,Copper,L2,Bot*%
%TF.FilePolarity,Positive*%
%FSLAX46Y46*%
G04 Gerber Fmt 4.6, Leading zero omitted, Abs format (unit mm)*
G04 Created by KiCad (PCBNEW (6.0.7-1)-1) date 2024-02-27 19:57:38*
%MOMM*%
%LPD*%
G01*
G04 APERTURE LIST*
%TA.AperFunction,ComponentPad*%
%ADD10R,1.700000X1.700000*%
%TD*%
%TA.AperFunction,ComponentPad*%
%ADD11O,1.700000X1.700000*%
%TD*%
%TA.AperFunction,ComponentPad*%
%ADD12O,8.600000X5.300000*%
%TD*%
%TA.AperFunction,ComponentPad*%
%ADD13C,1.700000*%
%TD*%
%TA.AperFunction,ComponentPad*%
%ADD14C,1.400000*%
%TD*%
%TA.AperFunction,ViaPad*%
%ADD15C,0.800000*%
%TD*%
G04 APERTURE END LIST*
D10*
%TO.P,J3,1,Pin_1*%
%TO.N,GND*%
X-5800151Y-496705D03*
D11*
%TO.P,J3,2,Pin_2*%
%TO.N,VIN*%
X-5800151Y-3036705D03*
%TD*%
D12*
%TO.P,MP1,1*%
%TO.N,GND*%
X151000000Y9175495D03*
%TD*%
D10*
%TO.P,J2,1,Pin_1*%
%TO.N,GND*%
X154500000Y-496705D03*
D11*
%TO.P,J2,2,Pin_2*%
%TO.N,VIN*%
X154500000Y-3036705D03*
%TD*%
D12*
%TO.P,MP2,1*%
%TO.N,GND*%
X-2244151Y9409295D03*
%TD*%
D11*
%TO.P,J1,12,Pin_12*%
%TO.N,sense12*%
X85385849Y10679295D03*
%TO.P,J1,11,Pin_11*%
%TO.N,sense11*%
X82845849Y10679295D03*
%TO.P,J1,10,Pin_10*%
%TO.N,sense10*%
X80305849Y10679295D03*
%TO.P,J1,9,Pin_9*%
%TO.N,sense9*%
X77765849Y10679295D03*
%TO.P,J1,8,Pin_8*%
%TO.N,sense8*%
X75225849Y10679295D03*
%TO.P,J1,7,Pin_7*%
%TO.N,sense7*%
X72685849Y10679295D03*
%TO.P,J1,6,Pin_6*%
%TO.N,sense6*%
X70145849Y10679295D03*
%TO.P,J1,5,Pin_5*%
%TO.N,sense5*%
X67605849Y10679295D03*
%TO.P,J1,4,Pin_4*%
%TO.N,sense4*%
X65065849Y10679295D03*
%TO.P,J1,3,Pin_3*%
%TO.N,sense3*%
X62525849Y10679295D03*
%TO.P,J1,2,Pin_2*%
%TO.N,sense2*%
X59985849Y10679295D03*
D13*
%TO.P,J1,1,Pin_1*%
%TO.N,sense1*%
X57445849Y10679295D03*
%TD*%
D14*
%TO.P,U5,4,E*%
%TO.N,GND*%
X52730400Y2500000D03*
%TO.P,U5,3,C*%
%TO.N,Net-(R9-Pad1)*%
X52730400Y0D03*
%TO.P,U5,2,K*%
%TO.N,GND*%
X54864000Y0D03*
%TO.P,U5,1,A*%
%TO.N,sense5*%
X54864000Y2500000D03*
%TD*%
%TO.P,U12,4,E*%
%TO.N,GND*%
X148742400Y2500000D03*
%TO.P,U12,3,C*%
%TO.N,Net-(R23-Pad1)*%
X148742400Y0D03*
%TO.P,U12,2,K*%
%TO.N,GND*%
X150876000Y0D03*
%TO.P,U12,1,A*%
%TO.N,sense12*%
X150876000Y2500000D03*
%TD*%
%TO.P,U2,4,E*%
%TO.N,GND*%
X11582400Y2500000D03*
%TO.P,U2,3,C*%
%TO.N,Net-(R3-Pad1)*%
X11582400Y0D03*
%TO.P,U2,2,K*%
%TO.N,GND*%
X13716000Y0D03*
%TO.P,U2,1,A*%
%TO.N,sense2*%
X13716000Y2500000D03*
%TD*%
%TO.P,U3,1,A*%
%TO.N,sense3*%
X27432000Y2500000D03*
%TO.P,U3,2,K*%
%TO.N,GND*%
X27432000Y0D03*
%TO.P,U3,3,C*%
%TO.N,Net-(R5-Pad1)*%
X25298400Y0D03*
%TO.P,U3,4,E*%
%TO.N,GND*%
X25298400Y2500000D03*
%TD*%
%TO.P,U10,1,A*%
%TO.N,sense10*%
X123444000Y2500000D03*
%TO.P,U10,2,K*%
%TO.N,GND*%
X123444000Y0D03*
%TO.P,U10,3,C*%
%TO.N,Net-(R19-Pad1)*%
X121310400Y0D03*
%TO.P,U10,4,E*%
%TO.N,GND*%
X121310400Y2500000D03*
%TD*%
%TO.P,U8,1,A*%
%TO.N,sense8*%
X96012000Y2500000D03*
%TO.P,U8,2,K*%
%TO.N,GND*%
X96012000Y0D03*
%TO.P,U8,3,C*%
%TO.N,Net-(R15-Pad1)*%
X93878400Y0D03*
%TO.P,U8,4,E*%
%TO.N,GND*%
X93878400Y2500000D03*
%TD*%
%TO.P,U11,1,A*%
%TO.N,sense11*%
X137160000Y2500000D03*
%TO.P,U11,2,K*%
%TO.N,GND*%
X137160000Y0D03*
%TO.P,U11,3,C*%
%TO.N,Net-(R21-Pad1)*%
X135026400Y0D03*
%TO.P,U11,4,E*%
%TO.N,GND*%
X135026400Y2500000D03*
%TD*%
%TO.P,U1,1,A*%
%TO.N,sense1*%
X0Y2500000D03*
%TO.P,U1,2,K*%
%TO.N,GND*%
X0Y0D03*
%TO.P,U1,3,C*%
%TO.N,Net-(R1-Pad1)*%
X-2133600Y0D03*
%TO.P,U1,4,E*%
%TO.N,GND*%
X-2133600Y2500000D03*
%TD*%
%TO.P,U6,1,A*%
%TO.N,sense6*%
X68580000Y2500000D03*
%TO.P,U6,2,K*%
%TO.N,GND*%
X68580000Y0D03*
%TO.P,U6,3,C*%
%TO.N,Net-(R11-Pad1)*%
X66446400Y0D03*
%TO.P,U6,4,E*%
%TO.N,GND*%
X66446400Y2500000D03*
%TD*%
%TO.P,U9,1,A*%
%TO.N,sense9*%
X109728000Y2500000D03*
%TO.P,U9,2,K*%
%TO.N,GND*%
X109728000Y0D03*
%TO.P,U9,3,C*%
%TO.N,Net-(R17-Pad1)*%
X107594400Y0D03*
%TO.P,U9,4,E*%
%TO.N,GND*%
X107594400Y2500000D03*
%TD*%
%TO.P,U7,1,A*%
%TO.N,sense7*%
X82296000Y2500000D03*
%TO.P,U7,2,K*%
%TO.N,GND*%
X82296000Y0D03*
%TO.P,U7,3,C*%
%TO.N,Net-(R13-Pad1)*%
X80162400Y0D03*
%TO.P,U7,4,E*%
%TO.N,GND*%
X80162400Y2500000D03*
%TD*%
%TO.P,U4,1,A*%
%TO.N,sense4*%
X41148000Y2500000D03*
%TO.P,U4,2,K*%
%TO.N,GND*%
X41148000Y0D03*
%TO.P,U4,3,C*%
%TO.N,Net-(R7-Pad1)*%
X39014400Y0D03*
%TO.P,U4,4,E*%
%TO.N,GND*%
X39014400Y2500000D03*
%TD*%
D15*
%TO.N,GND*%
X90100000Y1400000D03*
X103600000Y1400000D03*
X117400000Y1400000D03*
X132800000Y-194000D03*
X132800000Y2600000D03*
X143200000Y4600000D03*
X37014049Y2571495D03*
X49500000Y2600000D03*
X49500000Y-194000D03*
X97212049Y11207495D03*
X22663049Y2571495D03*
X123755049Y11842495D03*
X97212049Y8413495D03*
X8931849Y-2782705D03*
X40189049Y8159495D03*
X145541913Y10982930D03*
X123882049Y7397495D03*
X28632049Y10826495D03*
X64008000Y2571495D03*
X77997321Y-334636D03*
X7915849Y5096295D03*
X64008000Y-222505D03*
X28632049Y8032495D03*
X40189049Y10953495D03*
X37014049Y-222505D03*
X8931400Y-1663124D03*
X77997321Y2459364D03*
X16805849Y6615295D03*
X22663049Y-222505D03*
X145541913Y7982930D03*
%TD*%
%TA.AperFunction,Conductor*%
%TO.N,GND*%
G36*
X148507594Y12436793D02*
G01*
X148554087Y12383137D01*
X148564191Y12312863D01*
X148534697Y12248283D01*
X148474203Y12209676D01*
X148313183Y12163504D01*
X148306555Y12161196D01*
X147986568Y12029308D01*
X147980248Y12026279D01*
X147676958Y11859544D01*
X147671001Y11855821D01*
X147388210Y11656335D01*
X147382684Y11651956D01*
X147123896Y11422191D01*
X147118898Y11417227D01*
X146887330Y11160046D01*
X146882924Y11154566D01*
X146681463Y10873169D01*
X146677690Y10867222D01*
X146508855Y10565127D01*
X146505773Y10558809D01*
X146371658Y10239762D01*
X146369302Y10233147D01*
X146271584Y9901129D01*
X146269984Y9894307D01*
X146209884Y9553464D01*
X146209053Y9546492D01*
X146202830Y9447578D01*
X146206305Y9432238D01*
X146217246Y9429495D01*
X151128000Y9429495D01*
X151196121Y9409493D01*
X151242614Y9355837D01*
X151254000Y9303495D01*
X151254000Y6035610D01*
X151258475Y6020371D01*
X151259865Y6019166D01*
X151267548Y6017495D01*
X152737250Y6017495D01*
X152740742Y6017592D01*
X152999065Y6032035D01*
X153006039Y6032817D01*
X153347284Y6090534D01*
X153354139Y6092092D01*
X153686817Y6187486D01*
X153693445Y6189794D01*
X154013432Y6321682D01*
X154019752Y6324711D01*
X154323042Y6491446D01*
X154328999Y6495169D01*
X154611790Y6694655D01*
X154617316Y6699034D01*
X154876104Y6928799D01*
X154881102Y6933763D01*
X155112670Y7190944D01*
X155117076Y7196424D01*
X155318537Y7477821D01*
X155322310Y7483768D01*
X155491145Y7785863D01*
X155494227Y7792181D01*
X155565194Y7961004D01*
X155610031Y8016051D01*
X155677511Y8038119D01*
X155746210Y8020201D01*
X155794315Y7967986D01*
X155807349Y7912177D01*
X155807349Y897307D01*
X155787347Y829186D01*
X155733691Y782693D01*
X155663417Y772589D01*
X155611664Y794042D01*
X155611517Y793773D01*
X155609037Y795131D01*
X155605787Y796478D01*
X155603646Y798082D01*
X155588054Y806619D01*
X155467606Y851773D01*
X155452351Y855400D01*
X155401486Y860926D01*
X155394672Y861295D01*
X154772115Y861295D01*
X154756876Y856820D01*
X154755671Y855430D01*
X154754000Y847747D01*
X154754000Y-624705D01*
X154733998Y-692826D01*
X154680342Y-739319D01*
X154628000Y-750705D01*
X153160116Y-750705D01*
X153144877Y-755180D01*
X153143672Y-756570D01*
X153142001Y-764253D01*
X153142001Y-1391374D01*
X153142371Y-1398195D01*
X153147895Y-1449057D01*
X153151521Y-1464309D01*
X153196676Y-1584759D01*
X153205214Y-1600354D01*
X153281715Y-1702429D01*
X153294276Y-1714990D01*
X153396351Y-1791491D01*
X153411946Y-1800029D01*
X153520827Y-1840847D01*
X153577591Y-1883489D01*
X153602291Y-1950050D01*
X153587083Y-2019399D01*
X153567691Y-2045880D01*
X153444200Y-2175106D01*
X153440629Y-2178843D01*
X153437715Y-2183115D01*
X153437714Y-2183116D01*
X153419838Y-2209322D01*
X153314743Y-2363385D01*
X153220688Y-2566010D01*
X153160989Y-2781275D01*
X153137251Y-3003400D01*
X153137548Y-3008553D01*
X153137548Y-3008556D01*
X153143011Y-3103295D01*
X153150110Y-3226420D01*
X153151247Y-3231466D01*
X153151248Y-3231472D01*
X153171119Y-3319644D01*
X153199222Y-3444344D01*
X153283266Y-3651321D01*
X153285965Y-3655725D01*
X153386379Y-3819586D01*
X153399987Y-3841793D01*
X153546250Y-4010643D01*
X153718126Y-4153337D01*
X153911000Y-4266043D01*
X154119692Y-4345735D01*
X154124760Y-4346766D01*
X154124763Y-4346767D01*
X154232017Y-4368588D01*
X154338597Y-4390272D01*
X154343772Y-4390462D01*
X154343774Y-4390462D01*
X154556673Y-4398269D01*
X154556677Y-4398269D01*
X154561837Y-4398458D01*
X154566957Y-4397802D01*
X154566959Y-4397802D01*
X154778288Y-4370730D01*
X154778289Y-4370730D01*
X154783416Y-4370073D01*
X154788366Y-4368588D01*
X154992429Y-4307366D01*
X154992434Y-4307364D01*
X154997384Y-4305879D01*
X155197994Y-4207601D01*
X155379860Y-4077878D01*
X155538096Y-3920194D01*
X155541112Y-3915997D01*
X155541119Y-3915989D01*
X155579027Y-3863234D01*
X155635021Y-3819586D01*
X155705725Y-3813140D01*
X155768689Y-3845943D01*
X155803923Y-3907579D01*
X155807349Y-3936760D01*
X155807349Y-4688205D01*
X155787347Y-4756326D01*
X155733691Y-4802819D01*
X155681349Y-4814205D01*
X-6943651Y-4814205D01*
X-7011772Y-4794203D01*
X-7058265Y-4740547D01*
X-7069651Y-4688205D01*
X-7069651Y-3984033D01*
X-7049649Y-3915912D01*
X-6995993Y-3869419D01*
X-6925719Y-3859315D01*
X-6861139Y-3888809D01*
X-6848414Y-3901535D01*
X-6757286Y-4006736D01*
X-6757282Y-4006740D01*
X-6753901Y-4010643D01*
X-6582025Y-4153337D01*
X-6389151Y-4266043D01*
X-6180459Y-4345735D01*
X-6175391Y-4346766D01*
X-6175388Y-4346767D01*
X-6068134Y-4368588D01*
X-5961554Y-4390272D01*
X-5956379Y-4390462D01*
X-5956377Y-4390462D01*
X-5743478Y-4398269D01*
X-5743474Y-4398269D01*
X-5738314Y-4398458D01*
X-5733194Y-4397802D01*
X-5733192Y-4397802D01*
X-5521863Y-4370730D01*
X-5521862Y-4370730D01*
X-5516735Y-4370073D01*
X-5511785Y-4368588D01*
X-5307722Y-4307366D01*
X-5307717Y-4307364D01*
X-5302767Y-4305879D01*
X-5102157Y-4207601D01*
X-4920291Y-4077878D01*
X-4762055Y-3920194D01*
X-4708700Y-3845943D01*
X-4634716Y-3742982D01*
X-4631698Y-3738782D01*
X-4532721Y-3538516D01*
X-4467781Y-3324774D01*
X-4438622Y-3103295D01*
X-4436995Y-3036705D01*
X-4455299Y-2814066D01*
X-4509720Y-2597407D01*
X-4598797Y-2392545D01*
X-4638245Y-2331567D01*
X-4717329Y-2209322D01*
X-4717331Y-2209319D01*
X-4720137Y-2204982D01*
X-4723611Y-2201164D01*
X-4723618Y-2201155D01*
X-4867716Y-2042793D01*
X-4898768Y-1978947D01*
X-4890372Y-1908449D01*
X-4845195Y-1853681D01*
X-4818751Y-1840012D01*
X-4712099Y-1800030D01*
X-4696502Y-1791491D01*
X-4594427Y-1714990D01*
X-4581866Y-1702429D01*
X-4505365Y-1600354D01*
X-4496827Y-1584759D01*
X-4451673Y-1464311D01*
X-4448046Y-1449056D01*
X-4442520Y-1398191D01*
X-4442151Y-1391377D01*
X-4442151Y-768820D01*
X-4446626Y-753581D01*
X-4448016Y-752376D01*
X-4455699Y-750705D01*
X-5928151Y-750705D01*
X-5996272Y-730703D01*
X-6042765Y-677047D01*
X-6054151Y-624705D01*
X-6054151Y-224590D01*
X-5546151Y-224590D01*
X-5541676Y-239829D01*
X-5540286Y-241034D01*
X-5532603Y-242705D01*
X-4460267Y-242705D01*
X-4445028Y-238230D01*
X-4443823Y-236840D01*
X-4442152Y-229157D01*
X-4442152Y0D01*
X-3346716Y0D01*
X-3328286Y-210655D01*
X-3326862Y-215968D01*
X-3326862Y-215970D01*
X-3323328Y-229157D01*
X-3273556Y-414910D01*
X-3184189Y-606558D01*
X-3062901Y-779776D01*
X-2913376Y-929301D01*
X-2740158Y-1050589D01*
X-2735180Y-1052910D01*
X-2735177Y-1052912D01*
X-2554508Y-1137159D01*
X-2548510Y-1139956D01*
X-2543202Y-1141378D01*
X-2543200Y-1141379D01*
X-2349570Y-1193262D01*
X-2349568Y-1193262D01*
X-2344255Y-1194686D01*
X-2133600Y-1213116D01*
X-1922945Y-1194686D01*
X-1917632Y-1193262D01*
X-1917630Y-1193262D01*
X-1724000Y-1141379D01*
X-1723998Y-1141378D01*
X-1718690Y-1139956D01*
X-1712692Y-1137159D01*
X-1532023Y-1052912D01*
X-1532020Y-1052910D01*
X-1527042Y-1050589D01*
X-1475160Y-1014261D01*
X-649706Y-1014261D01*
X-640410Y-1026276D01*
X-610811Y-1047001D01*
X-601323Y-1052479D01*
X-419723Y-1137159D01*
X-409429Y-1140907D01*
X-215878Y-1192769D01*
X-205091Y-1194671D01*
X-5475Y-1212135D01*
X5475Y-1212135D01*
X205091Y-1194671D01*
X215878Y-1192769D01*
X409429Y-1140907D01*
X419723Y-1137159D01*
X601323Y-1052479D01*
X610811Y-1047001D01*
X641248Y-1025689D01*
X649623Y-1015212D01*
X642554Y-1001764D01*
X12812Y-372022D01*
X-1132Y-364408D01*
X-2965Y-364539D01*
X-9580Y-368790D01*
X-643276Y-1002486D01*
X-649706Y-1014261D01*
X-1475160Y-1014261D01*
X-1353824Y-929301D01*
X-1204299Y-779776D01*
X-1149915Y-702107D01*
X-1094459Y-657780D01*
X-1033731Y-649049D01*
X-1017347Y-650745D01*
X-1001764Y-642554D01*
X-372022Y-12812D01*
X-365644Y-1132D01*
X364408Y-1132D01*
X364539Y-2965D01*
X368790Y-9580D01*
X1002486Y-643276D01*
X1014261Y-649706D01*
X1026276Y-640410D01*
X1047001Y-610811D01*
X1052479Y-601323D01*
X1137159Y-419723D01*
X1140907Y-409429D01*
X1192769Y-215878D01*
X1194671Y-205091D01*
X1212135Y-5475D01*
X1212135Y0D01*
X10369284Y0D01*
X10387714Y-210655D01*
X10389138Y-215968D01*
X10389138Y-215970D01*
X10392672Y-229157D01*
X10442444Y-414910D01*
X10531811Y-606558D01*
X10653099Y-779776D01*
X10802624Y-929301D01*
X10975842Y-1050589D01*
X10980820Y-1052910D01*
X10980823Y-1052912D01*
X11161492Y-1137159D01*
X11167490Y-1139956D01*
X11172798Y-1141378D01*
X11172800Y-1141379D01*
X11366430Y-1193262D01*
X11366432Y-1193262D01*
X11371745Y-1194686D01*
X11582400Y-1213116D01*
X11793055Y-1194686D01*
X11798368Y-1193262D01*
X11798370Y-1193262D01*
X11992000Y-1141379D01*
X11992002Y-1141378D01*
X11997310Y-1139956D01*
X12003308Y-1137159D01*
X12183977Y-1052912D01*
X12183980Y-1052910D01*
X12188958Y-1050589D01*
X12240840Y-1014261D01*
X13066294Y-1014261D01*
X13075590Y-1026276D01*
X13105189Y-1047001D01*
X13114677Y-1052479D01*
X13296277Y-1137159D01*
X13306571Y-1140907D01*
X13500122Y-1192769D01*
X13510909Y-1194671D01*
X13710525Y-1212135D01*
X13721475Y-1212135D01*
X13921091Y-1194671D01*
X13931878Y-1192769D01*
X14125429Y-1140907D01*
X14135723Y-1137159D01*
X14317323Y-1052479D01*
X14326811Y-1047001D01*
X14357248Y-1025689D01*
X14365623Y-1015212D01*
X14358554Y-1001764D01*
X13728812Y-372022D01*
X13714868Y-364408D01*
X13713035Y-364539D01*
X13706420Y-368790D01*
X13072724Y-1002486D01*
X13066294Y-1014261D01*
X12240840Y-1014261D01*
X12362176Y-929301D01*
X12511701Y-779776D01*
X12566085Y-702107D01*
X12621541Y-657780D01*
X12682269Y-649049D01*
X12698653Y-650745D01*
X12714236Y-642554D01*
X13343978Y-12812D01*
X13350356Y-1132D01*
X14080408Y-1132D01*
X14080539Y-2965D01*
X14084790Y-9580D01*
X14718486Y-643276D01*
X14730261Y-649706D01*
X14742276Y-640410D01*
X14763001Y-610811D01*
X14768479Y-601323D01*
X14853159Y-419723D01*
X14856907Y-409429D01*
X14908769Y-215878D01*
X14910671Y-205091D01*
X14928135Y-5475D01*
X14928135Y0D01*
X24085284Y0D01*
X24103714Y-210655D01*
X24105138Y-215968D01*
X24105138Y-215970D01*
X24108672Y-229157D01*
X24158444Y-414910D01*
X24247811Y-606558D01*
X24369099Y-779776D01*
X24518624Y-929301D01*
X24691842Y-1050589D01*
X24696820Y-1052910D01*
X24696823Y-1052912D01*
X24877492Y-1137159D01*
X24883490Y-1139956D01*
X24888798Y-1141378D01*
X24888800Y-1141379D01*
X25082430Y-1193262D01*
X25082432Y-1193262D01*
X25087745Y-1194686D01*
X25298400Y-1213116D01*
X25509055Y-1194686D01*
X25514368Y-1193262D01*
X25514370Y-1193262D01*
X25708000Y-1141379D01*
X25708002Y-1141378D01*
X25713310Y-1139956D01*
X25719308Y-1137159D01*
X25899977Y-1052912D01*
X25899980Y-1052910D01*
X25904958Y-1050589D01*
X25956840Y-1014261D01*
X26782294Y-1014261D01*
X26791590Y-1026276D01*
X26821189Y-1047001D01*
X26830677Y-1052479D01*
X27012277Y-1137159D01*
X27022571Y-1140907D01*
X27216122Y-1192769D01*
X27226909Y-1194671D01*
X27426525Y-1212135D01*
X27437475Y-1212135D01*
X27637091Y-1194671D01*
X27647878Y-1192769D01*
X27841429Y-1140907D01*
X27851723Y-1137159D01*
X28033323Y-1052479D01*
X28042811Y-1047001D01*
X28073248Y-1025689D01*
X28081623Y-1015212D01*
X28074554Y-1001764D01*
X27444812Y-372022D01*
X27430868Y-364408D01*
X27429035Y-364539D01*
X27422420Y-368790D01*
X26788724Y-1002486D01*
X26782294Y-1014261D01*
X25956840Y-1014261D01*
X26078176Y-929301D01*
X26227701Y-779776D01*
X26282085Y-702107D01*
X26337541Y-657780D01*
X26398269Y-649049D01*
X26414653Y-650745D01*
X26430236Y-642554D01*
X27059978Y-12812D01*
X27066356Y-1132D01*
X27796408Y-1132D01*
X27796539Y-2965D01*
X27800790Y-9580D01*
X28434486Y-643276D01*
X28446261Y-649706D01*
X28458276Y-640410D01*
X28479001Y-610811D01*
X28484479Y-601323D01*
X28569159Y-419723D01*
X28572907Y-409429D01*
X28624769Y-215878D01*
X28626671Y-205091D01*
X28644135Y-5475D01*
X28644135Y0D01*
X37801284Y0D01*
X37819714Y-210655D01*
X37821138Y-215968D01*
X37821138Y-215970D01*
X37824672Y-229157D01*
X37874444Y-414910D01*
X37963811Y-606558D01*
X38085099Y-779776D01*
X38234624Y-929301D01*
X38407842Y-1050589D01*
X38412820Y-1052910D01*
X38412823Y-1052912D01*
X38593492Y-1137159D01*
X38599490Y-1139956D01*
X38604798Y-1141378D01*
X38604800Y-1141379D01*
X38798430Y-1193262D01*
X38798432Y-1193262D01*
X38803745Y-1194686D01*
X39014400Y-1213116D01*
X39225055Y-1194686D01*
X39230368Y-1193262D01*
X39230370Y-1193262D01*
X39424000Y-1141379D01*
X39424002Y-1141378D01*
X39429310Y-1139956D01*
X39435308Y-1137159D01*
X39615977Y-1052912D01*
X39615980Y-1052910D01*
X39620958Y-1050589D01*
X39672840Y-1014261D01*
X40498294Y-1014261D01*
X40507590Y-1026276D01*
X40537189Y-1047001D01*
X40546677Y-1052479D01*
X40728277Y-1137159D01*
X40738571Y-1140907D01*
X40932122Y-1192769D01*
X40942909Y-1194671D01*
X41142525Y-1212135D01*
X41153475Y-1212135D01*
X41353091Y-1194671D01*
X41363878Y-1192769D01*
X41557429Y-1140907D01*
X41567723Y-1137159D01*
X41749323Y-1052479D01*
X41758811Y-1047001D01*
X41789248Y-1025689D01*
X41797623Y-1015212D01*
X41790554Y-1001764D01*
X41160812Y-372022D01*
X41146868Y-364408D01*
X41145035Y-364539D01*
X41138420Y-368790D01*
X40504724Y-1002486D01*
X40498294Y-1014261D01*
X39672840Y-1014261D01*
X39794176Y-929301D01*
X39943701Y-779776D01*
X39998085Y-702107D01*
X40053541Y-657780D01*
X40114269Y-649049D01*
X40130653Y-650745D01*
X40146236Y-642554D01*
X40775978Y-12812D01*
X40782356Y-1132D01*
X41512408Y-1132D01*
X41512539Y-2965D01*
X41516790Y-9580D01*
X42150486Y-643276D01*
X42162261Y-649706D01*
X42174276Y-640410D01*
X42195001Y-610811D01*
X42200479Y-601323D01*
X42285159Y-419723D01*
X42288907Y-409429D01*
X42340769Y-215878D01*
X42342671Y-205091D01*
X42360135Y-5475D01*
X42360135Y0D01*
X51517284Y0D01*
X51535714Y-210655D01*
X51537138Y-215968D01*
X51537138Y-215970D01*
X51540672Y-229157D01*
X51590444Y-414910D01*
X51679811Y-606558D01*
X51801099Y-779776D01*
X51950624Y-929301D01*
X52123842Y-1050589D01*
X52128820Y-1052910D01*
X52128823Y-1052912D01*
X52309492Y-1137159D01*
X52315490Y-1139956D01*
X52320798Y-1141378D01*
X52320800Y-1141379D01*
X52514430Y-1193262D01*
X52514432Y-1193262D01*
X52519745Y-1194686D01*
X52730400Y-1213116D01*
X52941055Y-1194686D01*
X52946368Y-1193262D01*
X52946370Y-1193262D01*
X53140000Y-1141379D01*
X53140002Y-1141378D01*
X53145310Y-1139956D01*
X53151308Y-1137159D01*
X53331977Y-1052912D01*
X53331980Y-1052910D01*
X53336958Y-1050589D01*
X53388840Y-1014261D01*
X54214294Y-1014261D01*
X54223590Y-1026276D01*
X54253189Y-1047001D01*
X54262677Y-1052479D01*
X54444277Y-1137159D01*
X54454571Y-1140907D01*
X54648122Y-1192769D01*
X54658909Y-1194671D01*
X54858525Y-1212135D01*
X54869475Y-1212135D01*
X55069091Y-1194671D01*
X55079878Y-1192769D01*
X55273429Y-1140907D01*
X55283723Y-1137159D01*
X55465323Y-1052479D01*
X55474811Y-1047001D01*
X55505248Y-1025689D01*
X55513623Y-1015212D01*
X55506554Y-1001764D01*
X54876812Y-372022D01*
X54862868Y-364408D01*
X54861035Y-364539D01*
X54854420Y-368790D01*
X54220724Y-1002486D01*
X54214294Y-1014261D01*
X53388840Y-1014261D01*
X53510176Y-929301D01*
X53659701Y-779776D01*
X53714085Y-702107D01*
X53769541Y-657780D01*
X53830269Y-649049D01*
X53846653Y-650745D01*
X53862236Y-642554D01*
X54491978Y-12812D01*
X54498356Y-1132D01*
X55228408Y-1132D01*
X55228539Y-2965D01*
X55232790Y-9580D01*
X55866486Y-643276D01*
X55878261Y-649706D01*
X55890276Y-640410D01*
X55911001Y-610811D01*
X55916479Y-601323D01*
X56001159Y-419723D01*
X56004907Y-409429D01*
X56056769Y-215878D01*
X56058671Y-205091D01*
X56076135Y-5475D01*
X56076135Y0D01*
X65233284Y0D01*
X65251714Y-210655D01*
X65253138Y-215968D01*
X65253138Y-215970D01*
X65256672Y-229157D01*
X65306444Y-414910D01*
X65395811Y-606558D01*
X65517099Y-779776D01*
X65666624Y-929301D01*
X65839842Y-1050589D01*
X65844820Y-1052910D01*
X65844823Y-1052912D01*
X66025492Y-1137159D01*
X66031490Y-1139956D01*
X66036798Y-1141378D01*
X66036800Y-1141379D01*
X66230430Y-1193262D01*
X66230432Y-1193262D01*
X66235745Y-1194686D01*
X66446400Y-1213116D01*
X66657055Y-1194686D01*
X66662368Y-1193262D01*
X66662370Y-1193262D01*
X66856000Y-1141379D01*
X66856002Y-1141378D01*
X66861310Y-1139956D01*
X66867308Y-1137159D01*
X67047977Y-1052912D01*
X67047980Y-1052910D01*
X67052958Y-1050589D01*
X67104840Y-1014261D01*
X67930294Y-1014261D01*
X67939590Y-1026276D01*
X67969189Y-1047001D01*
X67978677Y-1052479D01*
X68160277Y-1137159D01*
X68170571Y-1140907D01*
X68364122Y-1192769D01*
X68374909Y-1194671D01*
X68574525Y-1212135D01*
X68585475Y-1212135D01*
X68785091Y-1194671D01*
X68795878Y-1192769D01*
X68989429Y-1140907D01*
X68999723Y-1137159D01*
X69181323Y-1052479D01*
X69190811Y-1047001D01*
X69221248Y-1025689D01*
X69229623Y-1015212D01*
X69222554Y-1001764D01*
X68592812Y-372022D01*
X68578868Y-364408D01*
X68577035Y-364539D01*
X68570420Y-368790D01*
X67936724Y-1002486D01*
X67930294Y-1014261D01*
X67104840Y-1014261D01*
X67226176Y-929301D01*
X67375701Y-779776D01*
X67430085Y-702107D01*
X67485541Y-657780D01*
X67546269Y-649049D01*
X67562653Y-650745D01*
X67578236Y-642554D01*
X68207978Y-12812D01*
X68214356Y-1132D01*
X68944408Y-1132D01*
X68944539Y-2965D01*
X68948790Y-9580D01*
X69582486Y-643276D01*
X69594261Y-649706D01*
X69606276Y-640410D01*
X69627001Y-610811D01*
X69632479Y-601323D01*
X69717159Y-419723D01*
X69720907Y-409429D01*
X69772769Y-215878D01*
X69774671Y-205091D01*
X69792135Y-5475D01*
X69792135Y0D01*
X78949284Y0D01*
X78967714Y-210655D01*
X78969138Y-215968D01*
X78969138Y-215970D01*
X78972672Y-229157D01*
X79022444Y-414910D01*
X79111811Y-606558D01*
X79233099Y-779776D01*
X79382624Y-929301D01*
X79555842Y-1050589D01*
X79560820Y-1052910D01*
X79560823Y-1052912D01*
X79741492Y-1137159D01*
X79747490Y-1139956D01*
X79752798Y-1141378D01*
X79752800Y-1141379D01*
X79946430Y-1193262D01*
X79946432Y-1193262D01*
X79951745Y-1194686D01*
X80162400Y-1213116D01*
X80373055Y-1194686D01*
X80378368Y-1193262D01*
X80378370Y-1193262D01*
X80572000Y-1141379D01*
X80572002Y-1141378D01*
X80577310Y-1139956D01*
X80583308Y-1137159D01*
X80763977Y-1052912D01*
X80763980Y-1052910D01*
X80768958Y-1050589D01*
X80820840Y-1014261D01*
X81646294Y-1014261D01*
X81655590Y-1026276D01*
X81685189Y-1047001D01*
X81694677Y-1052479D01*
X81876277Y-1137159D01*
X81886571Y-1140907D01*
X82080122Y-1192769D01*
X82090909Y-1194671D01*
X82290525Y-1212135D01*
X82301475Y-1212135D01*
X82501091Y-1194671D01*
X82511878Y-1192769D01*
X82705429Y-1140907D01*
X82715723Y-1137159D01*
X82897323Y-1052479D01*
X82906811Y-1047001D01*
X82937248Y-1025689D01*
X82945623Y-1015212D01*
X82938554Y-1001764D01*
X82308812Y-372022D01*
X82294868Y-364408D01*
X82293035Y-364539D01*
X82286420Y-368790D01*
X81652724Y-1002486D01*
X81646294Y-1014261D01*
X80820840Y-1014261D01*
X80942176Y-929301D01*
X81091701Y-779776D01*
X81146085Y-702107D01*
X81201541Y-657780D01*
X81262269Y-649049D01*
X81278653Y-650745D01*
X81294236Y-642554D01*
X81923978Y-12812D01*
X81930356Y-1132D01*
X82660408Y-1132D01*
X82660539Y-2965D01*
X82664790Y-9580D01*
X83298486Y-643276D01*
X83310261Y-649706D01*
X83322276Y-640410D01*
X83343001Y-610811D01*
X83348479Y-601323D01*
X83433159Y-419723D01*
X83436907Y-409429D01*
X83488769Y-215878D01*
X83490671Y-205091D01*
X83508135Y-5475D01*
X83508135Y0D01*
X92665284Y0D01*
X92683714Y-210655D01*
X92685138Y-215968D01*
X92685138Y-215970D01*
X92688672Y-229157D01*
X92738444Y-414910D01*
X92827811Y-606558D01*
X92949099Y-779776D01*
X93098624Y-929301D01*
X93271842Y-1050589D01*
X93276820Y-1052910D01*
X93276823Y-1052912D01*
X93457492Y-1137159D01*
X93463490Y-1139956D01*
X93468798Y-1141378D01*
X93468800Y-1141379D01*
X93662430Y-1193262D01*
X93662432Y-1193262D01*
X93667745Y-1194686D01*
X93878400Y-1213116D01*
X94089055Y-1194686D01*
X94094368Y-1193262D01*
X94094370Y-1193262D01*
X94288000Y-1141379D01*
X94288002Y-1141378D01*
X94293310Y-1139956D01*
X94299308Y-1137159D01*
X94479977Y-1052912D01*
X94479980Y-1052910D01*
X94484958Y-1050589D01*
X94536840Y-1014261D01*
X95362294Y-1014261D01*
X95371590Y-1026276D01*
X95401189Y-1047001D01*
X95410677Y-1052479D01*
X95592277Y-1137159D01*
X95602571Y-1140907D01*
X95796122Y-1192769D01*
X95806909Y-1194671D01*
X96006525Y-1212135D01*
X96017475Y-1212135D01*
X96217091Y-1194671D01*
X96227878Y-1192769D01*
X96421429Y-1140907D01*
X96431723Y-1137159D01*
X96613323Y-1052479D01*
X96622811Y-1047001D01*
X96653248Y-1025689D01*
X96661623Y-1015212D01*
X96654554Y-1001764D01*
X96024812Y-372022D01*
X96010868Y-364408D01*
X96009035Y-364539D01*
X96002420Y-368790D01*
X95368724Y-1002486D01*
X95362294Y-1014261D01*
X94536840Y-1014261D01*
X94658176Y-929301D01*
X94807701Y-779776D01*
X94862085Y-702107D01*
X94917541Y-657780D01*
X94978269Y-649049D01*
X94994653Y-650745D01*
X95010236Y-642554D01*
X95639978Y-12812D01*
X95646356Y-1132D01*
X96376408Y-1132D01*
X96376539Y-2965D01*
X96380790Y-9580D01*
X97014486Y-643276D01*
X97026261Y-649706D01*
X97038276Y-640410D01*
X97059001Y-610811D01*
X97064479Y-601323D01*
X97149159Y-419723D01*
X97152907Y-409429D01*
X97204769Y-215878D01*
X97206671Y-205091D01*
X97224135Y-5475D01*
X97224135Y0D01*
X106381284Y0D01*
X106399714Y-210655D01*
X106401138Y-215968D01*
X106401138Y-215970D01*
X106404672Y-229157D01*
X106454444Y-414910D01*
X106543811Y-606558D01*
X106665099Y-779776D01*
X106814624Y-929301D01*
X106987842Y-1050589D01*
X106992820Y-1052910D01*
X106992823Y-1052912D01*
X107173492Y-1137159D01*
X107179490Y-1139956D01*
X107184798Y-1141378D01*
X107184800Y-1141379D01*
X107378430Y-1193262D01*
X107378432Y-1193262D01*
X107383745Y-1194686D01*
X107594400Y-1213116D01*
X107805055Y-1194686D01*
X107810368Y-1193262D01*
X107810370Y-1193262D01*
X108004000Y-1141379D01*
X108004002Y-1141378D01*
X108009310Y-1139956D01*
X108015308Y-1137159D01*
X108195977Y-1052912D01*
X108195980Y-1052910D01*
X108200958Y-1050589D01*
X108252840Y-1014261D01*
X109078294Y-1014261D01*
X109087590Y-1026276D01*
X109117189Y-1047001D01*
X109126677Y-1052479D01*
X109308277Y-1137159D01*
X109318571Y-1140907D01*
X109512122Y-1192769D01*
X109522909Y-1194671D01*
X109722525Y-1212135D01*
X109733475Y-1212135D01*
X109933091Y-1194671D01*
X109943878Y-1192769D01*
X110137429Y-1140907D01*
X110147723Y-1137159D01*
X110329323Y-1052479D01*
X110338811Y-1047001D01*
X110369248Y-1025689D01*
X110377623Y-1015212D01*
X110370554Y-1001764D01*
X109740812Y-372022D01*
X109726868Y-364408D01*
X109725035Y-364539D01*
X109718420Y-368790D01*
X109084724Y-1002486D01*
X109078294Y-1014261D01*
X108252840Y-1014261D01*
X108374176Y-929301D01*
X108523701Y-779776D01*
X108578085Y-702107D01*
X108633541Y-657780D01*
X108694269Y-649049D01*
X108710653Y-650745D01*
X108726236Y-642554D01*
X109355978Y-12812D01*
X109362356Y-1132D01*
X110092408Y-1132D01*
X110092539Y-2965D01*
X110096790Y-9580D01*
X110730486Y-643276D01*
X110742261Y-649706D01*
X110754276Y-640410D01*
X110775001Y-610811D01*
X110780479Y-601323D01*
X110865159Y-419723D01*
X110868907Y-409429D01*
X110920769Y-215878D01*
X110922671Y-205091D01*
X110940135Y-5475D01*
X110940135Y0D01*
X120097284Y0D01*
X120115714Y-210655D01*
X120117138Y-215968D01*
X120117138Y-215970D01*
X120120672Y-229157D01*
X120170444Y-414910D01*
X120259811Y-606558D01*
X120381099Y-779776D01*
X120530624Y-929301D01*
X120703842Y-1050589D01*
X120708820Y-1052910D01*
X120708823Y-1052912D01*
X120889492Y-1137159D01*
X120895490Y-1139956D01*
X120900798Y-1141378D01*
X120900800Y-1141379D01*
X121094430Y-1193262D01*
X121094432Y-1193262D01*
X121099745Y-1194686D01*
X121310400Y-1213116D01*
X121521055Y-1194686D01*
X121526368Y-1193262D01*
X121526370Y-1193262D01*
X121720000Y-1141379D01*
X121720002Y-1141378D01*
X121725310Y-1139956D01*
X121731308Y-1137159D01*
X121911977Y-1052912D01*
X121911980Y-1052910D01*
X121916958Y-1050589D01*
X121968840Y-1014261D01*
X122794294Y-1014261D01*
X122803590Y-1026276D01*
X122833189Y-1047001D01*
X122842677Y-1052479D01*
X123024277Y-1137159D01*
X123034571Y-1140907D01*
X123228122Y-1192769D01*
X123238909Y-1194671D01*
X123438525Y-1212135D01*
X123449475Y-1212135D01*
X123649091Y-1194671D01*
X123659878Y-1192769D01*
X123853429Y-1140907D01*
X123863723Y-1137159D01*
X124045323Y-1052479D01*
X124054811Y-1047001D01*
X124085248Y-1025689D01*
X124093623Y-1015212D01*
X124086554Y-1001764D01*
X123456812Y-372022D01*
X123442868Y-364408D01*
X123441035Y-364539D01*
X123434420Y-368790D01*
X122800724Y-1002486D01*
X122794294Y-1014261D01*
X121968840Y-1014261D01*
X122090176Y-929301D01*
X122239701Y-779776D01*
X122294085Y-702107D01*
X122349541Y-657780D01*
X122410269Y-649049D01*
X122426653Y-650745D01*
X122442236Y-642554D01*
X123071978Y-12812D01*
X123078356Y-1132D01*
X123808408Y-1132D01*
X123808539Y-2965D01*
X123812790Y-9580D01*
X124446486Y-643276D01*
X124458261Y-649706D01*
X124470276Y-640410D01*
X124491001Y-610811D01*
X124496479Y-601323D01*
X124581159Y-419723D01*
X124584907Y-409429D01*
X124636769Y-215878D01*
X124638671Y-205091D01*
X124656135Y-5475D01*
X124656135Y0D01*
X133813284Y0D01*
X133831714Y-210655D01*
X133833138Y-215968D01*
X133833138Y-215970D01*
X133836672Y-229157D01*
X133886444Y-414910D01*
X133975811Y-606558D01*
X134097099Y-779776D01*
X134246624Y-929301D01*
X134419842Y-1050589D01*
X134424820Y-1052910D01*
X134424823Y-1052912D01*
X134605492Y-1137159D01*
X134611490Y-1139956D01*
X134616798Y-1141378D01*
X134616800Y-1141379D01*
X134810430Y-1193262D01*
X134810432Y-1193262D01*
X134815745Y-1194686D01*
X135026400Y-1213116D01*
X135237055Y-1194686D01*
X135242368Y-1193262D01*
X135242370Y-1193262D01*
X135436000Y-1141379D01*
X135436002Y-1141378D01*
X135441310Y-1139956D01*
X135447308Y-1137159D01*
X135627977Y-1052912D01*
X135627980Y-1052910D01*
X135632958Y-1050589D01*
X135684840Y-1014261D01*
X136510294Y-1014261D01*
X136519590Y-1026276D01*
X136549189Y-1047001D01*
X136558677Y-1052479D01*
X136740277Y-1137159D01*
X136750571Y-1140907D01*
X136944122Y-1192769D01*
X136954909Y-1194671D01*
X137154525Y-1212135D01*
X137165475Y-1212135D01*
X137365091Y-1194671D01*
X137375878Y-1192769D01*
X137569429Y-1140907D01*
X137579723Y-1137159D01*
X137761323Y-1052479D01*
X137770811Y-1047001D01*
X137801248Y-1025689D01*
X137809623Y-1015212D01*
X137802554Y-1001764D01*
X137172812Y-372022D01*
X137158868Y-364408D01*
X137157035Y-364539D01*
X137150420Y-368790D01*
X136516724Y-1002486D01*
X136510294Y-1014261D01*
X135684840Y-1014261D01*
X135806176Y-929301D01*
X135955701Y-779776D01*
X136010085Y-702107D01*
X136065541Y-657780D01*
X136126269Y-649049D01*
X136142653Y-650745D01*
X136158236Y-642554D01*
X136787978Y-12812D01*
X136794356Y-1132D01*
X137524408Y-1132D01*
X137524539Y-2965D01*
X137528790Y-9580D01*
X138162486Y-643276D01*
X138174261Y-649706D01*
X138186276Y-640410D01*
X138207001Y-610811D01*
X138212479Y-601323D01*
X138297159Y-419723D01*
X138300907Y-409429D01*
X138352769Y-215878D01*
X138354671Y-205091D01*
X138372135Y-5475D01*
X138372135Y0D01*
X147529284Y0D01*
X147547714Y-210655D01*
X147549138Y-215968D01*
X147549138Y-215970D01*
X147552672Y-229157D01*
X147602444Y-414910D01*
X147691811Y-606558D01*
X147813099Y-779776D01*
X147962624Y-929301D01*
X148135842Y-1050589D01*
X148140820Y-1052910D01*
X148140823Y-1052912D01*
X148321492Y-1137159D01*
X148327490Y-1139956D01*
X148332798Y-1141378D01*
X148332800Y-1141379D01*
X148526430Y-1193262D01*
X148526432Y-1193262D01*
X148531745Y-1194686D01*
X148742400Y-1213116D01*
X148953055Y-1194686D01*
X148958368Y-1193262D01*
X148958370Y-1193262D01*
X149152000Y-1141379D01*
X149152002Y-1141378D01*
X149157310Y-1139956D01*
X149163308Y-1137159D01*
X149343977Y-1052912D01*
X149343980Y-1052910D01*
X149348958Y-1050589D01*
X149400840Y-1014261D01*
X150226294Y-1014261D01*
X150235590Y-1026276D01*
X150265189Y-1047001D01*
X150274677Y-1052479D01*
X150456277Y-1137159D01*
X150466571Y-1140907D01*
X150660122Y-1192769D01*
X150670909Y-1194671D01*
X150870525Y-1212135D01*
X150881475Y-1212135D01*
X151081091Y-1194671D01*
X151091878Y-1192769D01*
X151285429Y-1140907D01*
X151295723Y-1137159D01*
X151477323Y-1052479D01*
X151486811Y-1047001D01*
X151517248Y-1025689D01*
X151525623Y-1015212D01*
X151518554Y-1001764D01*
X150888812Y-372022D01*
X150874868Y-364408D01*
X150873035Y-364539D01*
X150866420Y-368790D01*
X150232724Y-1002486D01*
X150226294Y-1014261D01*
X149400840Y-1014261D01*
X149522176Y-929301D01*
X149671701Y-779776D01*
X149726085Y-702107D01*
X149781541Y-657780D01*
X149842269Y-649049D01*
X149858653Y-650745D01*
X149874236Y-642554D01*
X150503978Y-12812D01*
X150510356Y-1132D01*
X151240408Y-1132D01*
X151240539Y-2965D01*
X151244790Y-9580D01*
X151878486Y-643276D01*
X151890261Y-649706D01*
X151902276Y-640410D01*
X151923001Y-610811D01*
X151928479Y-601323D01*
X152013159Y-419723D01*
X152016907Y-409429D01*
X152066435Y-224590D01*
X153142000Y-224590D01*
X153146475Y-239829D01*
X153147865Y-241034D01*
X153155548Y-242705D01*
X154227885Y-242705D01*
X154243124Y-238230D01*
X154244329Y-236840D01*
X154246000Y-229157D01*
X154246000Y843179D01*
X154241525Y858418D01*
X154240135Y859623D01*
X154232452Y861294D01*
X153605331Y861294D01*
X153598510Y860924D01*
X153547648Y855400D01*
X153532396Y851774D01*
X153411946Y806619D01*
X153396351Y798081D01*
X153294276Y721580D01*
X153281715Y709019D01*
X153205214Y606944D01*
X153196676Y591349D01*
X153151522Y470901D01*
X153147895Y455646D01*
X153142369Y404781D01*
X153142000Y397967D01*
X153142000Y-224590D01*
X152066435Y-224590D01*
X152068769Y-215878D01*
X152070671Y-205091D01*
X152088135Y-5475D01*
X152088135Y5475D01*
X152070671Y205091D01*
X152068769Y215878D01*
X152016907Y409429D01*
X152013159Y419723D01*
X151928479Y601323D01*
X151923001Y610811D01*
X151901689Y641248D01*
X151891212Y649623D01*
X151877764Y642554D01*
X151248022Y12812D01*
X151240408Y-1132D01*
X150510356Y-1132D01*
X150511592Y1132D01*
X150511461Y2965D01*
X150507210Y9580D01*
X149873514Y643276D01*
X149859570Y650890D01*
X149837841Y649336D01*
X149768466Y664427D01*
X149725641Y702742D01*
X149671701Y779776D01*
X149522176Y929301D01*
X149348958Y1050589D01*
X149343980Y1052910D01*
X149343977Y1052912D01*
X149269565Y1087611D01*
X149165618Y1136082D01*
X149112334Y1182998D01*
X149092873Y1251275D01*
X149113415Y1319235D01*
X149165620Y1364471D01*
X149343723Y1447521D01*
X149353211Y1452999D01*
X149383648Y1474311D01*
X149392023Y1484788D01*
X149384954Y1498236D01*
X148755212Y2127978D01*
X148741268Y2135592D01*
X148739435Y2135461D01*
X148732820Y2131210D01*
X148099124Y1497514D01*
X148092694Y1485739D01*
X148101990Y1473724D01*
X148131589Y1452999D01*
X148141077Y1447521D01*
X148319180Y1364471D01*
X148372466Y1317554D01*
X148391927Y1249277D01*
X148371385Y1181317D01*
X148319182Y1136082D01*
X148215235Y1087611D01*
X148140823Y1052912D01*
X148140820Y1052910D01*
X148135842Y1050589D01*
X147962624Y929301D01*
X147813099Y779776D01*
X147691811Y606558D01*
X147689490Y601580D01*
X147689488Y601577D01*
X147604767Y419892D01*
X147602444Y414910D01*
X147547714Y210655D01*
X147529284Y0D01*
X138372135Y0D01*
X138372135Y5475D01*
X138354671Y205091D01*
X138352769Y215878D01*
X138300907Y409429D01*
X138297159Y419723D01*
X138212479Y601323D01*
X138207001Y610811D01*
X138185689Y641248D01*
X138175212Y649623D01*
X138161764Y642554D01*
X137532022Y12812D01*
X137524408Y-1132D01*
X136794356Y-1132D01*
X136795592Y1132D01*
X136795461Y2965D01*
X136791210Y9580D01*
X136157514Y643276D01*
X136143570Y650890D01*
X136121841Y649336D01*
X136052466Y664427D01*
X136009641Y702742D01*
X135955701Y779776D01*
X135806176Y929301D01*
X135632958Y1050589D01*
X135627980Y1052910D01*
X135627977Y1052912D01*
X135553565Y1087611D01*
X135449618Y1136082D01*
X135396334Y1182998D01*
X135376873Y1251275D01*
X135397415Y1319235D01*
X135449620Y1364471D01*
X135627723Y1447521D01*
X135637211Y1452999D01*
X135667648Y1474311D01*
X135676023Y1484788D01*
X135668954Y1498236D01*
X135039212Y2127978D01*
X135025268Y2135592D01*
X135023435Y2135461D01*
X135016820Y2131210D01*
X134383124Y1497514D01*
X134376694Y1485739D01*
X134385990Y1473724D01*
X134415589Y1452999D01*
X134425077Y1447521D01*
X134603180Y1364471D01*
X134656466Y1317554D01*
X134675927Y1249277D01*
X134655385Y1181317D01*
X134603182Y1136082D01*
X134499235Y1087611D01*
X134424823Y1052912D01*
X134424820Y1052910D01*
X134419842Y1050589D01*
X134246624Y929301D01*
X134097099Y779776D01*
X133975811Y606558D01*
X133973490Y601580D01*
X133973488Y601577D01*
X133888767Y419892D01*
X133886444Y414910D01*
X133831714Y210655D01*
X133813284Y0D01*
X124656135Y0D01*
X124656135Y5475D01*
X124638671Y205091D01*
X124636769Y215878D01*
X124584907Y409429D01*
X124581159Y419723D01*
X124496479Y601323D01*
X124491001Y610811D01*
X124469689Y641248D01*
X124459212Y649623D01*
X124445764Y642554D01*
X123816022Y12812D01*
X123808408Y-1132D01*
X123078356Y-1132D01*
X123079592Y1132D01*
X123079461Y2965D01*
X123075210Y9580D01*
X122441514Y643276D01*
X122427570Y650890D01*
X122405841Y649336D01*
X122336466Y664427D01*
X122293641Y702742D01*
X122239701Y779776D01*
X122090176Y929301D01*
X121916958Y1050589D01*
X121911980Y1052910D01*
X121911977Y1052912D01*
X121837565Y1087611D01*
X121733618Y1136082D01*
X121680334Y1182998D01*
X121660873Y1251275D01*
X121681415Y1319235D01*
X121733620Y1364471D01*
X121911723Y1447521D01*
X121921211Y1452999D01*
X121951648Y1474311D01*
X121960023Y1484788D01*
X121952954Y1498236D01*
X121323212Y2127978D01*
X121309268Y2135592D01*
X121307435Y2135461D01*
X121300820Y2131210D01*
X120667124Y1497514D01*
X120660694Y1485739D01*
X120669990Y1473724D01*
X120699589Y1452999D01*
X120709077Y1447521D01*
X120887180Y1364471D01*
X120940466Y1317554D01*
X120959927Y1249277D01*
X120939385Y1181317D01*
X120887182Y1136082D01*
X120783235Y1087611D01*
X120708823Y1052912D01*
X120708820Y1052910D01*
X120703842Y1050589D01*
X120530624Y929301D01*
X120381099Y779776D01*
X120259811Y606558D01*
X120257490Y601580D01*
X120257488Y601577D01*
X120172767Y419892D01*
X120170444Y414910D01*
X120115714Y210655D01*
X120097284Y0D01*
X110940135Y0D01*
X110940135Y5475D01*
X110922671Y205091D01*
X110920769Y215878D01*
X110868907Y409429D01*
X110865159Y419723D01*
X110780479Y601323D01*
X110775001Y610811D01*
X110753689Y641248D01*
X110743212Y649623D01*
X110729764Y642554D01*
X110100022Y12812D01*
X110092408Y-1132D01*
X109362356Y-1132D01*
X109363592Y1132D01*
X109363461Y2965D01*
X109359210Y9580D01*
X108725514Y643276D01*
X108711570Y650890D01*
X108689841Y649336D01*
X108620466Y664427D01*
X108577641Y702742D01*
X108523701Y779776D01*
X108374176Y929301D01*
X108200958Y1050589D01*
X108195980Y1052910D01*
X108195977Y1052912D01*
X108121565Y1087611D01*
X108017618Y1136082D01*
X107964334Y1182998D01*
X107944873Y1251275D01*
X107965415Y1319235D01*
X108017620Y1364471D01*
X108195723Y1447521D01*
X108205211Y1452999D01*
X108235648Y1474311D01*
X108244023Y1484788D01*
X108236954Y1498236D01*
X107607212Y2127978D01*
X107593268Y2135592D01*
X107591435Y2135461D01*
X107584820Y2131210D01*
X106951124Y1497514D01*
X106944694Y1485739D01*
X106953990Y1473724D01*
X106983589Y1452999D01*
X106993077Y1447521D01*
X107171180Y1364471D01*
X107224466Y1317554D01*
X107243927Y1249277D01*
X107223385Y1181317D01*
X107171182Y1136082D01*
X107067235Y1087611D01*
X106992823Y1052912D01*
X106992820Y1052910D01*
X106987842Y1050589D01*
X106814624Y929301D01*
X106665099Y779776D01*
X106543811Y606558D01*
X106541490Y601580D01*
X106541488Y601577D01*
X106456767Y419892D01*
X106454444Y414910D01*
X106399714Y210655D01*
X106381284Y0D01*
X97224135Y0D01*
X97224135Y5475D01*
X97206671Y205091D01*
X97204769Y215878D01*
X97152907Y409429D01*
X97149159Y419723D01*
X97064479Y601323D01*
X97059001Y610811D01*
X97037689Y641248D01*
X97027212Y649623D01*
X97013764Y642554D01*
X96384022Y12812D01*
X96376408Y-1132D01*
X95646356Y-1132D01*
X95647592Y1132D01*
X95647461Y2965D01*
X95643210Y9580D01*
X95009514Y643276D01*
X94995570Y650890D01*
X94973841Y649336D01*
X94904466Y664427D01*
X94861641Y702742D01*
X94807701Y779776D01*
X94658176Y929301D01*
X94484958Y1050589D01*
X94479980Y1052910D01*
X94479977Y1052912D01*
X94405565Y1087611D01*
X94301618Y1136082D01*
X94248334Y1182998D01*
X94228873Y1251275D01*
X94249415Y1319235D01*
X94301620Y1364471D01*
X94479723Y1447521D01*
X94489211Y1452999D01*
X94519648Y1474311D01*
X94528023Y1484788D01*
X94520954Y1498236D01*
X93891212Y2127978D01*
X93877268Y2135592D01*
X93875435Y2135461D01*
X93868820Y2131210D01*
X93235124Y1497514D01*
X93228694Y1485739D01*
X93237990Y1473724D01*
X93267589Y1452999D01*
X93277077Y1447521D01*
X93455180Y1364471D01*
X93508466Y1317554D01*
X93527927Y1249277D01*
X93507385Y1181317D01*
X93455182Y1136082D01*
X93351235Y1087611D01*
X93276823Y1052912D01*
X93276820Y1052910D01*
X93271842Y1050589D01*
X93098624Y929301D01*
X92949099Y779776D01*
X92827811Y606558D01*
X92825490Y601580D01*
X92825488Y601577D01*
X92740767Y419892D01*
X92738444Y414910D01*
X92683714Y210655D01*
X92665284Y0D01*
X83508135Y0D01*
X83508135Y5475D01*
X83490671Y205091D01*
X83488769Y215878D01*
X83436907Y409429D01*
X83433159Y419723D01*
X83348479Y601323D01*
X83343001Y610811D01*
X83321689Y641248D01*
X83311212Y649623D01*
X83297764Y642554D01*
X82668022Y12812D01*
X82660408Y-1132D01*
X81930356Y-1132D01*
X81931592Y1132D01*
X81931461Y2965D01*
X81927210Y9580D01*
X81293514Y643276D01*
X81279570Y650890D01*
X81257841Y649336D01*
X81188466Y664427D01*
X81145641Y702742D01*
X81091701Y779776D01*
X80942176Y929301D01*
X80768958Y1050589D01*
X80763980Y1052910D01*
X80763977Y1052912D01*
X80689565Y1087611D01*
X80585618Y1136082D01*
X80532334Y1182998D01*
X80512873Y1251275D01*
X80533415Y1319235D01*
X80585620Y1364471D01*
X80763723Y1447521D01*
X80773211Y1452999D01*
X80803648Y1474311D01*
X80812023Y1484788D01*
X80804954Y1498236D01*
X80175212Y2127978D01*
X80161268Y2135592D01*
X80159435Y2135461D01*
X80152820Y2131210D01*
X79519124Y1497514D01*
X79512694Y1485739D01*
X79521990Y1473724D01*
X79551589Y1452999D01*
X79561077Y1447521D01*
X79739180Y1364471D01*
X79792466Y1317554D01*
X79811927Y1249277D01*
X79791385Y1181317D01*
X79739182Y1136082D01*
X79635235Y1087611D01*
X79560823Y1052912D01*
X79560820Y1052910D01*
X79555842Y1050589D01*
X79382624Y929301D01*
X79233099Y779776D01*
X79111811Y606558D01*
X79109490Y601580D01*
X79109488Y601577D01*
X79024767Y419892D01*
X79022444Y414910D01*
X78967714Y210655D01*
X78949284Y0D01*
X69792135Y0D01*
X69792135Y5475D01*
X69774671Y205091D01*
X69772769Y215878D01*
X69720907Y409429D01*
X69717159Y419723D01*
X69632479Y601323D01*
X69627001Y610811D01*
X69605689Y641248D01*
X69595212Y649623D01*
X69581764Y642554D01*
X68952022Y12812D01*
X68944408Y-1132D01*
X68214356Y-1132D01*
X68215592Y1132D01*
X68215461Y2965D01*
X68211210Y9580D01*
X67577514Y643276D01*
X67563570Y650890D01*
X67541841Y649336D01*
X67472466Y664427D01*
X67429641Y702742D01*
X67375701Y779776D01*
X67226176Y929301D01*
X67052958Y1050589D01*
X67047980Y1052910D01*
X67047977Y1052912D01*
X66973565Y1087611D01*
X66869618Y1136082D01*
X66816334Y1182998D01*
X66796873Y1251275D01*
X66817415Y1319235D01*
X66869620Y1364471D01*
X67047723Y1447521D01*
X67057211Y1452999D01*
X67087648Y1474311D01*
X67096023Y1484788D01*
X67088954Y1498236D01*
X66459212Y2127978D01*
X66445268Y2135592D01*
X66443435Y2135461D01*
X66436820Y2131210D01*
X65803124Y1497514D01*
X65796694Y1485739D01*
X65805990Y1473724D01*
X65835589Y1452999D01*
X65845077Y1447521D01*
X66023180Y1364471D01*
X66076466Y1317554D01*
X66095927Y1249277D01*
X66075385Y1181317D01*
X66023182Y1136082D01*
X65919235Y1087611D01*
X65844823Y1052912D01*
X65844820Y1052910D01*
X65839842Y1050589D01*
X65666624Y929301D01*
X65517099Y779776D01*
X65395811Y606558D01*
X65393490Y601580D01*
X65393488Y601577D01*
X65308767Y419892D01*
X65306444Y414910D01*
X65251714Y210655D01*
X65233284Y0D01*
X56076135Y0D01*
X56076135Y5475D01*
X56058671Y205091D01*
X56056769Y215878D01*
X56004907Y409429D01*
X56001159Y419723D01*
X55916479Y601323D01*
X55911001Y610811D01*
X55889689Y641248D01*
X55879212Y649623D01*
X55865764Y642554D01*
X55236022Y12812D01*
X55228408Y-1132D01*
X54498356Y-1132D01*
X54499592Y1132D01*
X54499461Y2965D01*
X54495210Y9580D01*
X53861514Y643276D01*
X53847570Y650890D01*
X53825841Y649336D01*
X53756466Y664427D01*
X53713641Y702742D01*
X53659701Y779776D01*
X53510176Y929301D01*
X53336958Y1050589D01*
X53331980Y1052910D01*
X53331977Y1052912D01*
X53257565Y1087611D01*
X53153618Y1136082D01*
X53100334Y1182998D01*
X53080873Y1251275D01*
X53101415Y1319235D01*
X53153620Y1364471D01*
X53331723Y1447521D01*
X53341211Y1452999D01*
X53371648Y1474311D01*
X53380023Y1484788D01*
X53372954Y1498236D01*
X52743212Y2127978D01*
X52729268Y2135592D01*
X52727435Y2135461D01*
X52720820Y2131210D01*
X52087124Y1497514D01*
X52080694Y1485739D01*
X52089990Y1473724D01*
X52119589Y1452999D01*
X52129077Y1447521D01*
X52307180Y1364471D01*
X52360466Y1317554D01*
X52379927Y1249277D01*
X52359385Y1181317D01*
X52307182Y1136082D01*
X52203235Y1087611D01*
X52128823Y1052912D01*
X52128820Y1052910D01*
X52123842Y1050589D01*
X51950624Y929301D01*
X51801099Y779776D01*
X51679811Y606558D01*
X51677490Y601580D01*
X51677488Y601577D01*
X51592767Y419892D01*
X51590444Y414910D01*
X51535714Y210655D01*
X51517284Y0D01*
X42360135Y0D01*
X42360135Y5475D01*
X42342671Y205091D01*
X42340769Y215878D01*
X42288907Y409429D01*
X42285159Y419723D01*
X42200479Y601323D01*
X42195001Y610811D01*
X42173689Y641248D01*
X42163212Y649623D01*
X42149764Y642554D01*
X41520022Y12812D01*
X41512408Y-1132D01*
X40782356Y-1132D01*
X40783592Y1132D01*
X40783461Y2965D01*
X40779210Y9580D01*
X40145514Y643276D01*
X40131570Y650890D01*
X40109841Y649336D01*
X40040466Y664427D01*
X39997641Y702742D01*
X39943701Y779776D01*
X39794176Y929301D01*
X39620958Y1050589D01*
X39615980Y1052910D01*
X39615977Y1052912D01*
X39541565Y1087611D01*
X39437618Y1136082D01*
X39384334Y1182998D01*
X39364873Y1251275D01*
X39385415Y1319235D01*
X39437620Y1364471D01*
X39615723Y1447521D01*
X39625211Y1452999D01*
X39655648Y1474311D01*
X39664023Y1484788D01*
X39656954Y1498236D01*
X39027212Y2127978D01*
X39013268Y2135592D01*
X39011435Y2135461D01*
X39004820Y2131210D01*
X38371124Y1497514D01*
X38364694Y1485739D01*
X38373990Y1473724D01*
X38403589Y1452999D01*
X38413077Y1447521D01*
X38591180Y1364471D01*
X38644466Y1317554D01*
X38663927Y1249277D01*
X38643385Y1181317D01*
X38591182Y1136082D01*
X38487235Y1087611D01*
X38412823Y1052912D01*
X38412820Y1052910D01*
X38407842Y1050589D01*
X38234624Y929301D01*
X38085099Y779776D01*
X37963811Y606558D01*
X37961490Y601580D01*
X37961488Y601577D01*
X37876767Y419892D01*
X37874444Y414910D01*
X37819714Y210655D01*
X37801284Y0D01*
X28644135Y0D01*
X28644135Y5475D01*
X28626671Y205091D01*
X28624769Y215878D01*
X28572907Y409429D01*
X28569159Y419723D01*
X28484479Y601323D01*
X28479001Y610811D01*
X28457689Y641248D01*
X28447212Y649623D01*
X28433764Y642554D01*
X27804022Y12812D01*
X27796408Y-1132D01*
X27066356Y-1132D01*
X27067592Y1132D01*
X27067461Y2965D01*
X27063210Y9580D01*
X26429514Y643276D01*
X26415570Y650890D01*
X26393841Y649336D01*
X26324466Y664427D01*
X26281641Y702742D01*
X26227701Y779776D01*
X26078176Y929301D01*
X25904958Y1050589D01*
X25899980Y1052910D01*
X25899977Y1052912D01*
X25825565Y1087611D01*
X25721618Y1136082D01*
X25668334Y1182998D01*
X25648873Y1251275D01*
X25669415Y1319235D01*
X25721620Y1364471D01*
X25899723Y1447521D01*
X25909211Y1452999D01*
X25939648Y1474311D01*
X25948023Y1484788D01*
X25940954Y1498236D01*
X25311212Y2127978D01*
X25297268Y2135592D01*
X25295435Y2135461D01*
X25288820Y2131210D01*
X24655124Y1497514D01*
X24648694Y1485739D01*
X24657990Y1473724D01*
X24687589Y1452999D01*
X24697077Y1447521D01*
X24875180Y1364471D01*
X24928466Y1317554D01*
X24947927Y1249277D01*
X24927385Y1181317D01*
X24875182Y1136082D01*
X24771235Y1087611D01*
X24696823Y1052912D01*
X24696820Y1052910D01*
X24691842Y1050589D01*
X24518624Y929301D01*
X24369099Y779776D01*
X24247811Y606558D01*
X24245490Y601580D01*
X24245488Y601577D01*
X24160767Y419892D01*
X24158444Y414910D01*
X24103714Y210655D01*
X24085284Y0D01*
X14928135Y0D01*
X14928135Y5475D01*
X14910671Y205091D01*
X14908769Y215878D01*
X14856907Y409429D01*
X14853159Y419723D01*
X14768479Y601323D01*
X14763001Y610811D01*
X14741689Y641248D01*
X14731212Y649623D01*
X14717764Y642554D01*
X14088022Y12812D01*
X14080408Y-1132D01*
X13350356Y-1132D01*
X13351592Y1132D01*
X13351461Y2965D01*
X13347210Y9580D01*
X12713514Y643276D01*
X12699570Y650890D01*
X12677841Y649336D01*
X12608466Y664427D01*
X12565641Y702742D01*
X12511701Y779776D01*
X12362176Y929301D01*
X12188958Y1050589D01*
X12183980Y1052910D01*
X12183977Y1052912D01*
X12109565Y1087611D01*
X12005618Y1136082D01*
X11952334Y1182998D01*
X11932873Y1251275D01*
X11953415Y1319235D01*
X12005620Y1364471D01*
X12183723Y1447521D01*
X12193211Y1452999D01*
X12223648Y1474311D01*
X12232023Y1484788D01*
X12224954Y1498236D01*
X11595212Y2127978D01*
X11581268Y2135592D01*
X11579435Y2135461D01*
X11572820Y2131210D01*
X10939124Y1497514D01*
X10932694Y1485739D01*
X10941990Y1473724D01*
X10971589Y1452999D01*
X10981077Y1447521D01*
X11159180Y1364471D01*
X11212466Y1317554D01*
X11231927Y1249277D01*
X11211385Y1181317D01*
X11159182Y1136082D01*
X11055235Y1087611D01*
X10980823Y1052912D01*
X10980820Y1052910D01*
X10975842Y1050589D01*
X10802624Y929301D01*
X10653099Y779776D01*
X10531811Y606558D01*
X10529490Y601580D01*
X10529488Y601577D01*
X10444767Y419892D01*
X10442444Y414910D01*
X10387714Y210655D01*
X10369284Y0D01*
X1212135Y0D01*
X1212135Y5475D01*
X1194671Y205091D01*
X1192769Y215878D01*
X1140907Y409429D01*
X1137159Y419723D01*
X1052479Y601323D01*
X1047001Y610811D01*
X1025689Y641248D01*
X1015212Y649623D01*
X1001764Y642554D01*
X372022Y12812D01*
X364408Y-1132D01*
X-365644Y-1132D01*
X-364408Y1132D01*
X-364539Y2965D01*
X-368790Y9580D01*
X-1002486Y643276D01*
X-1016430Y650890D01*
X-1038159Y649336D01*
X-1107534Y664427D01*
X-1150359Y702742D01*
X-1204299Y779776D01*
X-1353824Y929301D01*
X-1527042Y1050589D01*
X-1532020Y1052910D01*
X-1532023Y1052912D01*
X-1606435Y1087611D01*
X-1710382Y1136082D01*
X-1763666Y1182998D01*
X-1783127Y1251275D01*
X-1762585Y1319235D01*
X-1710380Y1364471D01*
X-1532277Y1447521D01*
X-1522789Y1452999D01*
X-1492352Y1474311D01*
X-1483977Y1484788D01*
X-1491046Y1498236D01*
X-2120788Y2127978D01*
X-2134732Y2135592D01*
X-2136565Y2135461D01*
X-2143180Y2131210D01*
X-2776876Y1497514D01*
X-2783306Y1485739D01*
X-2774010Y1473724D01*
X-2744411Y1452999D01*
X-2734923Y1447521D01*
X-2556820Y1364471D01*
X-2503534Y1317554D01*
X-2484073Y1249277D01*
X-2504615Y1181317D01*
X-2556818Y1136082D01*
X-2660765Y1087611D01*
X-2735177Y1052912D01*
X-2735180Y1052910D01*
X-2740158Y1050589D01*
X-2913376Y929301D01*
X-3062901Y779776D01*
X-3184189Y606558D01*
X-3186510Y601580D01*
X-3186512Y601577D01*
X-3271233Y419892D01*
X-3273556Y414910D01*
X-3328286Y210655D01*
X-3346716Y0D01*
X-4442152Y0D01*
X-4442152Y397964D01*
X-4442522Y404785D01*
X-4448046Y455647D01*
X-4451672Y470899D01*
X-4496827Y591349D01*
X-4505365Y606944D01*
X-4581866Y709019D01*
X-4594427Y721580D01*
X-4696502Y798081D01*
X-4712097Y806619D01*
X-4832545Y851773D01*
X-4847800Y855400D01*
X-4898665Y860926D01*
X-4905479Y861295D01*
X-5528036Y861295D01*
X-5543275Y856820D01*
X-5544480Y855430D01*
X-5546151Y847747D01*
X-5546151Y-224590D01*
X-6054151Y-224590D01*
X-6054151Y843179D01*
X-6058626Y858418D01*
X-6060016Y859623D01*
X-6067699Y861294D01*
X-6694820Y861294D01*
X-6701641Y860924D01*
X-6752503Y855400D01*
X-6767755Y851774D01*
X-6896613Y803467D01*
X-6897644Y806218D01*
X-6952512Y794224D01*
X-7019057Y818967D01*
X-7061662Y875759D01*
X-7069651Y919912D01*
X-7069651Y2494525D01*
X-3345735Y2494525D01*
X-3328271Y2294909D01*
X-3326369Y2284122D01*
X-3274507Y2090571D01*
X-3270759Y2080277D01*
X-3186079Y1898677D01*
X-3180601Y1889189D01*
X-3159289Y1858752D01*
X-3148812Y1850377D01*
X-3135364Y1857446D01*
X-2505622Y2487188D01*
X-2499244Y2498868D01*
X-1769192Y2498868D01*
X-1769061Y2497035D01*
X-1764810Y2490420D01*
X-1131114Y1856724D01*
X-1117170Y1849110D01*
X-1095441Y1850664D01*
X-1026066Y1835573D01*
X-983241Y1797258D01*
X-929301Y1720224D01*
X-779776Y1570699D01*
X-606558Y1449411D01*
X-601580Y1447090D01*
X-601577Y1447088D01*
X-527165Y1412389D01*
X-423218Y1363918D01*
X-369934Y1317002D01*
X-350473Y1248725D01*
X-371015Y1180765D01*
X-423220Y1135529D01*
X-601323Y1052479D01*
X-610811Y1047001D01*
X-641248Y1025689D01*
X-649623Y1015212D01*
X-642554Y1001764D01*
X-12812Y372022D01*
X1132Y364408D01*
X2965Y364539D01*
X9580Y368790D01*
X643276Y1002486D01*
X649706Y1014261D01*
X640410Y1026276D01*
X610811Y1047001D01*
X601323Y1052479D01*
X423220Y1135529D01*
X369934Y1182446D01*
X350473Y1250723D01*
X371015Y1318683D01*
X423218Y1363918D01*
X527165Y1412389D01*
X601577Y1447088D01*
X601580Y1447090D01*
X606558Y1449411D01*
X779776Y1570699D01*
X929301Y1720224D01*
X1050589Y1893442D01*
X1139956Y2085090D01*
X1194686Y2289345D01*
X1212637Y2494525D01*
X10370265Y2494525D01*
X10387729Y2294909D01*
X10389631Y2284122D01*
X10441493Y2090571D01*
X10445241Y2080277D01*
X10529921Y1898677D01*
X10535399Y1889189D01*
X10556711Y1858752D01*
X10567188Y1850377D01*
X10580636Y1857446D01*
X11210378Y2487188D01*
X11216756Y2498868D01*
X11946808Y2498868D01*
X11946939Y2497035D01*
X11951190Y2490420D01*
X12584886Y1856724D01*
X12598830Y1849110D01*
X12620559Y1850664D01*
X12689934Y1835573D01*
X12732759Y1797258D01*
X12786699Y1720224D01*
X12936224Y1570699D01*
X13109442Y1449411D01*
X13114420Y1447090D01*
X13114423Y1447088D01*
X13188835Y1412389D01*
X13292782Y1363918D01*
X13346066Y1317002D01*
X13365527Y1248725D01*
X13344985Y1180765D01*
X13292780Y1135529D01*
X13114677Y1052479D01*
X13105189Y1047001D01*
X13074752Y1025689D01*
X13066377Y1015212D01*
X13073446Y1001764D01*
X13703188Y372022D01*
X13717132Y364408D01*
X13718965Y364539D01*
X13725580Y368790D01*
X14359276Y1002486D01*
X14365706Y1014261D01*
X14356410Y1026276D01*
X14326811Y1047001D01*
X14317323Y1052479D01*
X14139220Y1135529D01*
X14085934Y1182446D01*
X14066473Y1250723D01*
X14087015Y1318683D01*
X14139218Y1363918D01*
X14243165Y1412389D01*
X14317577Y1447088D01*
X14317580Y1447090D01*
X14322558Y1449411D01*
X14495776Y1570699D01*
X14645301Y1720224D01*
X14766589Y1893442D01*
X14855956Y2085090D01*
X14910686Y2289345D01*
X14928637Y2494525D01*
X24086265Y2494525D01*
X24103729Y2294909D01*
X24105631Y2284122D01*
X24157493Y2090571D01*
X24161241Y2080277D01*
X24245921Y1898677D01*
X24251399Y1889189D01*
X24272711Y1858752D01*
X24283188Y1850377D01*
X24296636Y1857446D01*
X24926378Y2487188D01*
X24932756Y2498868D01*
X25662808Y2498868D01*
X25662939Y2497035D01*
X25667190Y2490420D01*
X26300886Y1856724D01*
X26314830Y1849110D01*
X26336559Y1850664D01*
X26405934Y1835573D01*
X26448759Y1797258D01*
X26502699Y1720224D01*
X26652224Y1570699D01*
X26825442Y1449411D01*
X26830420Y1447090D01*
X26830423Y1447088D01*
X26904835Y1412389D01*
X27008782Y1363918D01*
X27062066Y1317002D01*
X27081527Y1248725D01*
X27060985Y1180765D01*
X27008780Y1135529D01*
X26830677Y1052479D01*
X26821189Y1047001D01*
X26790752Y1025689D01*
X26782377Y1015212D01*
X26789446Y1001764D01*
X27419188Y372022D01*
X27433132Y364408D01*
X27434965Y364539D01*
X27441580Y368790D01*
X28075276Y1002486D01*
X28081706Y1014261D01*
X28072410Y1026276D01*
X28042811Y1047001D01*
X28033323Y1052479D01*
X27855220Y1135529D01*
X27801934Y1182446D01*
X27782473Y1250723D01*
X27803015Y1318683D01*
X27855218Y1363918D01*
X27959165Y1412389D01*
X28033577Y1447088D01*
X28033580Y1447090D01*
X28038558Y1449411D01*
X28211776Y1570699D01*
X28361301Y1720224D01*
X28482589Y1893442D01*
X28571956Y2085090D01*
X28626686Y2289345D01*
X28644637Y2494525D01*
X37802265Y2494525D01*
X37819729Y2294909D01*
X37821631Y2284122D01*
X37873493Y2090571D01*
X37877241Y2080277D01*
X37961921Y1898677D01*
X37967399Y1889189D01*
X37988711Y1858752D01*
X37999188Y1850377D01*
X38012636Y1857446D01*
X38642378Y2487188D01*
X38648756Y2498868D01*
X39378808Y2498868D01*
X39378939Y2497035D01*
X39383190Y2490420D01*
X40016886Y1856724D01*
X40030830Y1849110D01*
X40052559Y1850664D01*
X40121934Y1835573D01*
X40164759Y1797258D01*
X40218699Y1720224D01*
X40368224Y1570699D01*
X40541442Y1449411D01*
X40546420Y1447090D01*
X40546423Y1447088D01*
X40620835Y1412389D01*
X40724782Y1363918D01*
X40778066Y1317002D01*
X40797527Y1248725D01*
X40776985Y1180765D01*
X40724780Y1135529D01*
X40546677Y1052479D01*
X40537189Y1047001D01*
X40506752Y1025689D01*
X40498377Y1015212D01*
X40505446Y1001764D01*
X41135188Y372022D01*
X41149132Y364408D01*
X41150965Y364539D01*
X41157580Y368790D01*
X41791276Y1002486D01*
X41797706Y1014261D01*
X41788410Y1026276D01*
X41758811Y1047001D01*
X41749323Y1052479D01*
X41571220Y1135529D01*
X41517934Y1182446D01*
X41498473Y1250723D01*
X41519015Y1318683D01*
X41571218Y1363918D01*
X41675165Y1412389D01*
X41749577Y1447088D01*
X41749580Y1447090D01*
X41754558Y1449411D01*
X41927776Y1570699D01*
X42077301Y1720224D01*
X42198589Y1893442D01*
X42287956Y2085090D01*
X42342686Y2289345D01*
X42360637Y2494525D01*
X51518265Y2494525D01*
X51535729Y2294909D01*
X51537631Y2284122D01*
X51589493Y2090571D01*
X51593241Y2080277D01*
X51677921Y1898677D01*
X51683399Y1889189D01*
X51704711Y1858752D01*
X51715188Y1850377D01*
X51728636Y1857446D01*
X52358378Y2487188D01*
X52364756Y2498868D01*
X53094808Y2498868D01*
X53094939Y2497035D01*
X53099190Y2490420D01*
X53732886Y1856724D01*
X53746830Y1849110D01*
X53768559Y1850664D01*
X53837934Y1835573D01*
X53880759Y1797258D01*
X53934699Y1720224D01*
X54084224Y1570699D01*
X54257442Y1449411D01*
X54262420Y1447090D01*
X54262423Y1447088D01*
X54336835Y1412389D01*
X54440782Y1363918D01*
X54494066Y1317002D01*
X54513527Y1248725D01*
X54492985Y1180765D01*
X54440780Y1135529D01*
X54262677Y1052479D01*
X54253189Y1047001D01*
X54222752Y1025689D01*
X54214377Y1015212D01*
X54221446Y1001764D01*
X54851188Y372022D01*
X54865132Y364408D01*
X54866965Y364539D01*
X54873580Y368790D01*
X55507276Y1002486D01*
X55513706Y1014261D01*
X55504410Y1026276D01*
X55474811Y1047001D01*
X55465323Y1052479D01*
X55287220Y1135529D01*
X55233934Y1182446D01*
X55214473Y1250723D01*
X55235015Y1318683D01*
X55287218Y1363918D01*
X55391165Y1412389D01*
X55465577Y1447088D01*
X55465580Y1447090D01*
X55470558Y1449411D01*
X55643776Y1570699D01*
X55793301Y1720224D01*
X55914589Y1893442D01*
X56003956Y2085090D01*
X56058686Y2289345D01*
X56076637Y2494525D01*
X65234265Y2494525D01*
X65251729Y2294909D01*
X65253631Y2284122D01*
X65305493Y2090571D01*
X65309241Y2080277D01*
X65393921Y1898677D01*
X65399399Y1889189D01*
X65420711Y1858752D01*
X65431188Y1850377D01*
X65444636Y1857446D01*
X66074378Y2487188D01*
X66080756Y2498868D01*
X66810808Y2498868D01*
X66810939Y2497035D01*
X66815190Y2490420D01*
X67448886Y1856724D01*
X67462830Y1849110D01*
X67484559Y1850664D01*
X67553934Y1835573D01*
X67596759Y1797258D01*
X67650699Y1720224D01*
X67800224Y1570699D01*
X67973442Y1449411D01*
X67978420Y1447090D01*
X67978423Y1447088D01*
X68052835Y1412389D01*
X68156782Y1363918D01*
X68210066Y1317002D01*
X68229527Y1248725D01*
X68208985Y1180765D01*
X68156780Y1135529D01*
X67978677Y1052479D01*
X67969189Y1047001D01*
X67938752Y1025689D01*
X67930377Y1015212D01*
X67937446Y1001764D01*
X68567188Y372022D01*
X68581132Y364408D01*
X68582965Y364539D01*
X68589580Y368790D01*
X69223276Y1002486D01*
X69229706Y1014261D01*
X69220410Y1026276D01*
X69190811Y1047001D01*
X69181323Y1052479D01*
X69003220Y1135529D01*
X68949934Y1182446D01*
X68930473Y1250723D01*
X68951015Y1318683D01*
X69003218Y1363918D01*
X69107165Y1412389D01*
X69181577Y1447088D01*
X69181580Y1447090D01*
X69186558Y1449411D01*
X69359776Y1570699D01*
X69509301Y1720224D01*
X69630589Y1893442D01*
X69719956Y2085090D01*
X69774686Y2289345D01*
X69792637Y2494525D01*
X78950265Y2494525D01*
X78967729Y2294909D01*
X78969631Y2284122D01*
X79021493Y2090571D01*
X79025241Y2080277D01*
X79109921Y1898677D01*
X79115399Y1889189D01*
X79136711Y1858752D01*
X79147188Y1850377D01*
X79160636Y1857446D01*
X79790378Y2487188D01*
X79796756Y2498868D01*
X80526808Y2498868D01*
X80526939Y2497035D01*
X80531190Y2490420D01*
X81164886Y1856724D01*
X81178830Y1849110D01*
X81200559Y1850664D01*
X81269934Y1835573D01*
X81312759Y1797258D01*
X81366699Y1720224D01*
X81516224Y1570699D01*
X81689442Y1449411D01*
X81694420Y1447090D01*
X81694423Y1447088D01*
X81768835Y1412389D01*
X81872782Y1363918D01*
X81926066Y1317002D01*
X81945527Y1248725D01*
X81924985Y1180765D01*
X81872780Y1135529D01*
X81694677Y1052479D01*
X81685189Y1047001D01*
X81654752Y1025689D01*
X81646377Y1015212D01*
X81653446Y1001764D01*
X82283188Y372022D01*
X82297132Y364408D01*
X82298965Y364539D01*
X82305580Y368790D01*
X82939276Y1002486D01*
X82945706Y1014261D01*
X82936410Y1026276D01*
X82906811Y1047001D01*
X82897323Y1052479D01*
X82719220Y1135529D01*
X82665934Y1182446D01*
X82646473Y1250723D01*
X82667015Y1318683D01*
X82719218Y1363918D01*
X82823165Y1412389D01*
X82897577Y1447088D01*
X82897580Y1447090D01*
X82902558Y1449411D01*
X83075776Y1570699D01*
X83225301Y1720224D01*
X83346589Y1893442D01*
X83435956Y2085090D01*
X83490686Y2289345D01*
X83508637Y2494525D01*
X92666265Y2494525D01*
X92683729Y2294909D01*
X92685631Y2284122D01*
X92737493Y2090571D01*
X92741241Y2080277D01*
X92825921Y1898677D01*
X92831399Y1889189D01*
X92852711Y1858752D01*
X92863188Y1850377D01*
X92876636Y1857446D01*
X93506378Y2487188D01*
X93512756Y2498868D01*
X94242808Y2498868D01*
X94242939Y2497035D01*
X94247190Y2490420D01*
X94880886Y1856724D01*
X94894830Y1849110D01*
X94916559Y1850664D01*
X94985934Y1835573D01*
X95028759Y1797258D01*
X95082699Y1720224D01*
X95232224Y1570699D01*
X95405442Y1449411D01*
X95410420Y1447090D01*
X95410423Y1447088D01*
X95484835Y1412389D01*
X95588782Y1363918D01*
X95642066Y1317002D01*
X95661527Y1248725D01*
X95640985Y1180765D01*
X95588780Y1135529D01*
X95410677Y1052479D01*
X95401189Y1047001D01*
X95370752Y1025689D01*
X95362377Y1015212D01*
X95369446Y1001764D01*
X95999188Y372022D01*
X96013132Y364408D01*
X96014965Y364539D01*
X96021580Y368790D01*
X96655276Y1002486D01*
X96661706Y1014261D01*
X96652410Y1026276D01*
X96622811Y1047001D01*
X96613323Y1052479D01*
X96435220Y1135529D01*
X96381934Y1182446D01*
X96362473Y1250723D01*
X96383015Y1318683D01*
X96435218Y1363918D01*
X96539165Y1412389D01*
X96613577Y1447088D01*
X96613580Y1447090D01*
X96618558Y1449411D01*
X96791776Y1570699D01*
X96941301Y1720224D01*
X97062589Y1893442D01*
X97151956Y2085090D01*
X97206686Y2289345D01*
X97224637Y2494525D01*
X106382265Y2494525D01*
X106399729Y2294909D01*
X106401631Y2284122D01*
X106453493Y2090571D01*
X106457241Y2080277D01*
X106541921Y1898677D01*
X106547399Y1889189D01*
X106568711Y1858752D01*
X106579188Y1850377D01*
X106592636Y1857446D01*
X107222378Y2487188D01*
X107228756Y2498868D01*
X107958808Y2498868D01*
X107958939Y2497035D01*
X107963190Y2490420D01*
X108596886Y1856724D01*
X108610830Y1849110D01*
X108632559Y1850664D01*
X108701934Y1835573D01*
X108744759Y1797258D01*
X108798699Y1720224D01*
X108948224Y1570699D01*
X109121442Y1449411D01*
X109126420Y1447090D01*
X109126423Y1447088D01*
X109200835Y1412389D01*
X109304782Y1363918D01*
X109358066Y1317002D01*
X109377527Y1248725D01*
X109356985Y1180765D01*
X109304780Y1135529D01*
X109126677Y1052479D01*
X109117189Y1047001D01*
X109086752Y1025689D01*
X109078377Y1015212D01*
X109085446Y1001764D01*
X109715188Y372022D01*
X109729132Y364408D01*
X109730965Y364539D01*
X109737580Y368790D01*
X110371276Y1002486D01*
X110377706Y1014261D01*
X110368410Y1026276D01*
X110338811Y1047001D01*
X110329323Y1052479D01*
X110151220Y1135529D01*
X110097934Y1182446D01*
X110078473Y1250723D01*
X110099015Y1318683D01*
X110151218Y1363918D01*
X110255165Y1412389D01*
X110329577Y1447088D01*
X110329580Y1447090D01*
X110334558Y1449411D01*
X110507776Y1570699D01*
X110657301Y1720224D01*
X110778589Y1893442D01*
X110867956Y2085090D01*
X110922686Y2289345D01*
X110940637Y2494525D01*
X120098265Y2494525D01*
X120115729Y2294909D01*
X120117631Y2284122D01*
X120169493Y2090571D01*
X120173241Y2080277D01*
X120257921Y1898677D01*
X120263399Y1889189D01*
X120284711Y1858752D01*
X120295188Y1850377D01*
X120308636Y1857446D01*
X120938378Y2487188D01*
X120944756Y2498868D01*
X121674808Y2498868D01*
X121674939Y2497035D01*
X121679190Y2490420D01*
X122312886Y1856724D01*
X122326830Y1849110D01*
X122348559Y1850664D01*
X122417934Y1835573D01*
X122460759Y1797258D01*
X122514699Y1720224D01*
X122664224Y1570699D01*
X122837442Y1449411D01*
X122842420Y1447090D01*
X122842423Y1447088D01*
X122916835Y1412389D01*
X123020782Y1363918D01*
X123074066Y1317002D01*
X123093527Y1248725D01*
X123072985Y1180765D01*
X123020780Y1135529D01*
X122842677Y1052479D01*
X122833189Y1047001D01*
X122802752Y1025689D01*
X122794377Y1015212D01*
X122801446Y1001764D01*
X123431188Y372022D01*
X123445132Y364408D01*
X123446965Y364539D01*
X123453580Y368790D01*
X124087276Y1002486D01*
X124093706Y1014261D01*
X124084410Y1026276D01*
X124054811Y1047001D01*
X124045323Y1052479D01*
X123867220Y1135529D01*
X123813934Y1182446D01*
X123794473Y1250723D01*
X123815015Y1318683D01*
X123867218Y1363918D01*
X123971165Y1412389D01*
X124045577Y1447088D01*
X124045580Y1447090D01*
X124050558Y1449411D01*
X124223776Y1570699D01*
X124373301Y1720224D01*
X124494589Y1893442D01*
X124583956Y2085090D01*
X124638686Y2289345D01*
X124656637Y2494525D01*
X133814265Y2494525D01*
X133831729Y2294909D01*
X133833631Y2284122D01*
X133885493Y2090571D01*
X133889241Y2080277D01*
X133973921Y1898677D01*
X133979399Y1889189D01*
X134000711Y1858752D01*
X134011188Y1850377D01*
X134024636Y1857446D01*
X134654378Y2487188D01*
X134660756Y2498868D01*
X135390808Y2498868D01*
X135390939Y2497035D01*
X135395190Y2490420D01*
X136028886Y1856724D01*
X136042830Y1849110D01*
X136064559Y1850664D01*
X136133934Y1835573D01*
X136176759Y1797258D01*
X136230699Y1720224D01*
X136380224Y1570699D01*
X136553442Y1449411D01*
X136558420Y1447090D01*
X136558423Y1447088D01*
X136632835Y1412389D01*
X136736782Y1363918D01*
X136790066Y1317002D01*
X136809527Y1248725D01*
X136788985Y1180765D01*
X136736780Y1135529D01*
X136558677Y1052479D01*
X136549189Y1047001D01*
X136518752Y1025689D01*
X136510377Y1015212D01*
X136517446Y1001764D01*
X137147188Y372022D01*
X137161132Y364408D01*
X137162965Y364539D01*
X137169580Y368790D01*
X137803276Y1002486D01*
X137809706Y1014261D01*
X137800410Y1026276D01*
X137770811Y1047001D01*
X137761323Y1052479D01*
X137583220Y1135529D01*
X137529934Y1182446D01*
X137510473Y1250723D01*
X137531015Y1318683D01*
X137583218Y1363918D01*
X137687165Y1412389D01*
X137761577Y1447088D01*
X137761580Y1447090D01*
X137766558Y1449411D01*
X137939776Y1570699D01*
X138089301Y1720224D01*
X138210589Y1893442D01*
X138299956Y2085090D01*
X138354686Y2289345D01*
X138372637Y2494525D01*
X147530265Y2494525D01*
X147547729Y2294909D01*
X147549631Y2284122D01*
X147601493Y2090571D01*
X147605241Y2080277D01*
X147689921Y1898677D01*
X147695399Y1889189D01*
X147716711Y1858752D01*
X147727188Y1850377D01*
X147740636Y1857446D01*
X148370378Y2487188D01*
X148376756Y2498868D01*
X149106808Y2498868D01*
X149106939Y2497035D01*
X149111190Y2490420D01*
X149744886Y1856724D01*
X149758830Y1849110D01*
X149780559Y1850664D01*
X149849934Y1835573D01*
X149892759Y1797258D01*
X149946699Y1720224D01*
X150096224Y1570699D01*
X150269442Y1449411D01*
X150274420Y1447090D01*
X150274423Y1447088D01*
X150348835Y1412389D01*
X150452782Y1363918D01*
X150506066Y1317002D01*
X150525527Y1248725D01*
X150504985Y1180765D01*
X150452780Y1135529D01*
X150274677Y1052479D01*
X150265189Y1047001D01*
X150234752Y1025689D01*
X150226377Y1015212D01*
X150233446Y1001764D01*
X150863188Y372022D01*
X150877132Y364408D01*
X150878965Y364539D01*
X150885580Y368790D01*
X151519276Y1002486D01*
X151525706Y1014261D01*
X151516410Y1026276D01*
X151486811Y1047001D01*
X151477323Y1052479D01*
X151299220Y1135529D01*
X151245934Y1182446D01*
X151226473Y1250723D01*
X151247015Y1318683D01*
X151299218Y1363918D01*
X151403165Y1412389D01*
X151477577Y1447088D01*
X151477580Y1447090D01*
X151482558Y1449411D01*
X151655776Y1570699D01*
X151805301Y1720224D01*
X151926589Y1893442D01*
X152015956Y2085090D01*
X152070686Y2289345D01*
X152089116Y2500000D01*
X152070686Y2710655D01*
X152015956Y2914910D01*
X151926589Y3106558D01*
X151805301Y3279776D01*
X151655776Y3429301D01*
X151482558Y3550589D01*
X151477580Y3552910D01*
X151477577Y3552912D01*
X151295892Y3637633D01*
X151295891Y3637634D01*
X151290910Y3639956D01*
X151285602Y3641378D01*
X151285600Y3641379D01*
X151091970Y3693262D01*
X151091968Y3693262D01*
X151086655Y3694686D01*
X150876000Y3713116D01*
X150665345Y3694686D01*
X150660032Y3693262D01*
X150660030Y3693262D01*
X150466400Y3641379D01*
X150466398Y3641378D01*
X150461090Y3639956D01*
X150456109Y3637634D01*
X150456108Y3637633D01*
X150274423Y3552912D01*
X150274420Y3552910D01*
X150269442Y3550589D01*
X150096224Y3429301D01*
X149946699Y3279776D01*
X149943540Y3275264D01*
X149892316Y3202108D01*
X149836859Y3157780D01*
X149776131Y3149049D01*
X149759747Y3150745D01*
X149744164Y3142554D01*
X149114422Y2512812D01*
X149106808Y2498868D01*
X148376756Y2498868D01*
X148377992Y2501132D01*
X148377861Y2502965D01*
X148373610Y2509580D01*
X147739914Y3143276D01*
X147728139Y3149706D01*
X147716124Y3140410D01*
X147695399Y3110811D01*
X147689921Y3101323D01*
X147605241Y2919723D01*
X147601493Y2909429D01*
X147549631Y2715878D01*
X147547729Y2705091D01*
X147530265Y2505475D01*
X147530265Y2494525D01*
X138372637Y2494525D01*
X138373116Y2500000D01*
X138354686Y2710655D01*
X138299956Y2914910D01*
X138210589Y3106558D01*
X138089301Y3279776D01*
X137939776Y3429301D01*
X137817082Y3515212D01*
X148092777Y3515212D01*
X148099846Y3501764D01*
X148729588Y2872022D01*
X148743532Y2864408D01*
X148745365Y2864539D01*
X148751980Y2868790D01*
X149385676Y3502486D01*
X149392106Y3514261D01*
X149382810Y3526276D01*
X149353211Y3547001D01*
X149343723Y3552479D01*
X149162123Y3637159D01*
X149151829Y3640907D01*
X148958278Y3692769D01*
X148947491Y3694671D01*
X148747875Y3712135D01*
X148736925Y3712135D01*
X148537309Y3694671D01*
X148526522Y3692769D01*
X148332971Y3640907D01*
X148322677Y3637159D01*
X148141077Y3552479D01*
X148131589Y3547001D01*
X148101152Y3525689D01*
X148092777Y3515212D01*
X137817082Y3515212D01*
X137766558Y3550589D01*
X137761580Y3552910D01*
X137761577Y3552912D01*
X137579892Y3637633D01*
X137579891Y3637634D01*
X137574910Y3639956D01*
X137569602Y3641378D01*
X137569600Y3641379D01*
X137375970Y3693262D01*
X137375968Y3693262D01*
X137370655Y3694686D01*
X137160000Y3713116D01*
X136949345Y3694686D01*
X136944032Y3693262D01*
X136944030Y3693262D01*
X136750400Y3641379D01*
X136750398Y3641378D01*
X136745090Y3639956D01*
X136740109Y3637634D01*
X136740108Y3637633D01*
X136558423Y3552912D01*
X136558420Y3552910D01*
X136553442Y3550589D01*
X136380224Y3429301D01*
X136230699Y3279776D01*
X136227540Y3275264D01*
X136176316Y3202108D01*
X136120859Y3157780D01*
X136060131Y3149049D01*
X136043747Y3150745D01*
X136028164Y3142554D01*
X135398422Y2512812D01*
X135390808Y2498868D01*
X134660756Y2498868D01*
X134661992Y2501132D01*
X134661861Y2502965D01*
X134657610Y2509580D01*
X134023914Y3143276D01*
X134012139Y3149706D01*
X134000124Y3140410D01*
X133979399Y3110811D01*
X133973921Y3101323D01*
X133889241Y2919723D01*
X133885493Y2909429D01*
X133833631Y2715878D01*
X133831729Y2705091D01*
X133814265Y2505475D01*
X133814265Y2494525D01*
X124656637Y2494525D01*
X124657116Y2500000D01*
X124638686Y2710655D01*
X124583956Y2914910D01*
X124494589Y3106558D01*
X124373301Y3279776D01*
X124223776Y3429301D01*
X124101082Y3515212D01*
X134376777Y3515212D01*
X134383846Y3501764D01*
X135013588Y2872022D01*
X135027532Y2864408D01*
X135029365Y2864539D01*
X135035980Y2868790D01*
X135669676Y3502486D01*
X135676106Y3514261D01*
X135666810Y3526276D01*
X135637211Y3547001D01*
X135627723Y3552479D01*
X135446123Y3637159D01*
X135435829Y3640907D01*
X135242278Y3692769D01*
X135231491Y3694671D01*
X135031875Y3712135D01*
X135020925Y3712135D01*
X134821309Y3694671D01*
X134810522Y3692769D01*
X134616971Y3640907D01*
X134606677Y3637159D01*
X134425077Y3552479D01*
X134415589Y3547001D01*
X134385152Y3525689D01*
X134376777Y3515212D01*
X124101082Y3515212D01*
X124050558Y3550589D01*
X124045580Y3552910D01*
X124045577Y3552912D01*
X123863892Y3637633D01*
X123863891Y3637634D01*
X123858910Y3639956D01*
X123853602Y3641378D01*
X123853600Y3641379D01*
X123659970Y3693262D01*
X123659968Y3693262D01*
X123654655Y3694686D01*
X123444000Y3713116D01*
X123233345Y3694686D01*
X123228032Y3693262D01*
X123228030Y3693262D01*
X123034400Y3641379D01*
X123034398Y3641378D01*
X123029090Y3639956D01*
X123024109Y3637634D01*
X123024108Y3637633D01*
X122842423Y3552912D01*
X122842420Y3552910D01*
X122837442Y3550589D01*
X122664224Y3429301D01*
X122514699Y3279776D01*
X122511540Y3275264D01*
X122460316Y3202108D01*
X122404859Y3157780D01*
X122344131Y3149049D01*
X122327747Y3150745D01*
X122312164Y3142554D01*
X121682422Y2512812D01*
X121674808Y2498868D01*
X120944756Y2498868D01*
X120945992Y2501132D01*
X120945861Y2502965D01*
X120941610Y2509580D01*
X120307914Y3143276D01*
X120296139Y3149706D01*
X120284124Y3140410D01*
X120263399Y3110811D01*
X120257921Y3101323D01*
X120173241Y2919723D01*
X120169493Y2909429D01*
X120117631Y2715878D01*
X120115729Y2705091D01*
X120098265Y2505475D01*
X120098265Y2494525D01*
X110940637Y2494525D01*
X110941116Y2500000D01*
X110922686Y2710655D01*
X110867956Y2914910D01*
X110778589Y3106558D01*
X110657301Y3279776D01*
X110507776Y3429301D01*
X110385082Y3515212D01*
X120660777Y3515212D01*
X120667846Y3501764D01*
X121297588Y2872022D01*
X121311532Y2864408D01*
X121313365Y2864539D01*
X121319980Y2868790D01*
X121953676Y3502486D01*
X121960106Y3514261D01*
X121950810Y3526276D01*
X121921211Y3547001D01*
X121911723Y3552479D01*
X121730123Y3637159D01*
X121719829Y3640907D01*
X121526278Y3692769D01*
X121515491Y3694671D01*
X121315875Y3712135D01*
X121304925Y3712135D01*
X121105309Y3694671D01*
X121094522Y3692769D01*
X120900971Y3640907D01*
X120890677Y3637159D01*
X120709077Y3552479D01*
X120699589Y3547001D01*
X120669152Y3525689D01*
X120660777Y3515212D01*
X110385082Y3515212D01*
X110334558Y3550589D01*
X110329580Y3552910D01*
X110329577Y3552912D01*
X110147892Y3637633D01*
X110147891Y3637634D01*
X110142910Y3639956D01*
X110137602Y3641378D01*
X110137600Y3641379D01*
X109943970Y3693262D01*
X109943968Y3693262D01*
X109938655Y3694686D01*
X109728000Y3713116D01*
X109517345Y3694686D01*
X109512032Y3693262D01*
X109512030Y3693262D01*
X109318400Y3641379D01*
X109318398Y3641378D01*
X109313090Y3639956D01*
X109308109Y3637634D01*
X109308108Y3637633D01*
X109126423Y3552912D01*
X109126420Y3552910D01*
X109121442Y3550589D01*
X108948224Y3429301D01*
X108798699Y3279776D01*
X108795540Y3275264D01*
X108744316Y3202108D01*
X108688859Y3157780D01*
X108628131Y3149049D01*
X108611747Y3150745D01*
X108596164Y3142554D01*
X107966422Y2512812D01*
X107958808Y2498868D01*
X107228756Y2498868D01*
X107229992Y2501132D01*
X107229861Y2502965D01*
X107225610Y2509580D01*
X106591914Y3143276D01*
X106580139Y3149706D01*
X106568124Y3140410D01*
X106547399Y3110811D01*
X106541921Y3101323D01*
X106457241Y2919723D01*
X106453493Y2909429D01*
X106401631Y2715878D01*
X106399729Y2705091D01*
X106382265Y2505475D01*
X106382265Y2494525D01*
X97224637Y2494525D01*
X97225116Y2500000D01*
X97206686Y2710655D01*
X97151956Y2914910D01*
X97062589Y3106558D01*
X96941301Y3279776D01*
X96791776Y3429301D01*
X96669082Y3515212D01*
X106944777Y3515212D01*
X106951846Y3501764D01*
X107581588Y2872022D01*
X107595532Y2864408D01*
X107597365Y2864539D01*
X107603980Y2868790D01*
X108237676Y3502486D01*
X108244106Y3514261D01*
X108234810Y3526276D01*
X108205211Y3547001D01*
X108195723Y3552479D01*
X108014123Y3637159D01*
X108003829Y3640907D01*
X107810278Y3692769D01*
X107799491Y3694671D01*
X107599875Y3712135D01*
X107588925Y3712135D01*
X107389309Y3694671D01*
X107378522Y3692769D01*
X107184971Y3640907D01*
X107174677Y3637159D01*
X106993077Y3552479D01*
X106983589Y3547001D01*
X106953152Y3525689D01*
X106944777Y3515212D01*
X96669082Y3515212D01*
X96618558Y3550589D01*
X96613580Y3552910D01*
X96613577Y3552912D01*
X96431892Y3637633D01*
X96431891Y3637634D01*
X96426910Y3639956D01*
X96421602Y3641378D01*
X96421600Y3641379D01*
X96227970Y3693262D01*
X96227968Y3693262D01*
X96222655Y3694686D01*
X96012000Y3713116D01*
X95801345Y3694686D01*
X95796032Y3693262D01*
X95796030Y3693262D01*
X95602400Y3641379D01*
X95602398Y3641378D01*
X95597090Y3639956D01*
X95592109Y3637634D01*
X95592108Y3637633D01*
X95410423Y3552912D01*
X95410420Y3552910D01*
X95405442Y3550589D01*
X95232224Y3429301D01*
X95082699Y3279776D01*
X95079540Y3275264D01*
X95028316Y3202108D01*
X94972859Y3157780D01*
X94912131Y3149049D01*
X94895747Y3150745D01*
X94880164Y3142554D01*
X94250422Y2512812D01*
X94242808Y2498868D01*
X93512756Y2498868D01*
X93513992Y2501132D01*
X93513861Y2502965D01*
X93509610Y2509580D01*
X92875914Y3143276D01*
X92864139Y3149706D01*
X92852124Y3140410D01*
X92831399Y3110811D01*
X92825921Y3101323D01*
X92741241Y2919723D01*
X92737493Y2909429D01*
X92685631Y2715878D01*
X92683729Y2705091D01*
X92666265Y2505475D01*
X92666265Y2494525D01*
X83508637Y2494525D01*
X83509116Y2500000D01*
X83490686Y2710655D01*
X83435956Y2914910D01*
X83346589Y3106558D01*
X83225301Y3279776D01*
X83075776Y3429301D01*
X82953082Y3515212D01*
X93228777Y3515212D01*
X93235846Y3501764D01*
X93865588Y2872022D01*
X93879532Y2864408D01*
X93881365Y2864539D01*
X93887980Y2868790D01*
X94521676Y3502486D01*
X94528106Y3514261D01*
X94518810Y3526276D01*
X94489211Y3547001D01*
X94479723Y3552479D01*
X94298123Y3637159D01*
X94287829Y3640907D01*
X94094278Y3692769D01*
X94083491Y3694671D01*
X93883875Y3712135D01*
X93872925Y3712135D01*
X93673309Y3694671D01*
X93662522Y3692769D01*
X93468971Y3640907D01*
X93458677Y3637159D01*
X93277077Y3552479D01*
X93267589Y3547001D01*
X93237152Y3525689D01*
X93228777Y3515212D01*
X82953082Y3515212D01*
X82902558Y3550589D01*
X82897580Y3552910D01*
X82897577Y3552912D01*
X82715892Y3637633D01*
X82715891Y3637634D01*
X82710910Y3639956D01*
X82705602Y3641378D01*
X82705600Y3641379D01*
X82511970Y3693262D01*
X82511968Y3693262D01*
X82506655Y3694686D01*
X82296000Y3713116D01*
X82085345Y3694686D01*
X82080032Y3693262D01*
X82080030Y3693262D01*
X81886400Y3641379D01*
X81886398Y3641378D01*
X81881090Y3639956D01*
X81876109Y3637634D01*
X81876108Y3637633D01*
X81694423Y3552912D01*
X81694420Y3552910D01*
X81689442Y3550589D01*
X81516224Y3429301D01*
X81366699Y3279776D01*
X81363540Y3275264D01*
X81312316Y3202108D01*
X81256859Y3157780D01*
X81196131Y3149049D01*
X81179747Y3150745D01*
X81164164Y3142554D01*
X80534422Y2512812D01*
X80526808Y2498868D01*
X79796756Y2498868D01*
X79797992Y2501132D01*
X79797861Y2502965D01*
X79793610Y2509580D01*
X79159914Y3143276D01*
X79148139Y3149706D01*
X79136124Y3140410D01*
X79115399Y3110811D01*
X79109921Y3101323D01*
X79025241Y2919723D01*
X79021493Y2909429D01*
X78969631Y2715878D01*
X78967729Y2705091D01*
X78950265Y2505475D01*
X78950265Y2494525D01*
X69792637Y2494525D01*
X69793116Y2500000D01*
X69774686Y2710655D01*
X69719956Y2914910D01*
X69630589Y3106558D01*
X69509301Y3279776D01*
X69359776Y3429301D01*
X69237082Y3515212D01*
X79512777Y3515212D01*
X79519846Y3501764D01*
X80149588Y2872022D01*
X80163532Y2864408D01*
X80165365Y2864539D01*
X80171980Y2868790D01*
X80805676Y3502486D01*
X80812106Y3514261D01*
X80802810Y3526276D01*
X80773211Y3547001D01*
X80763723Y3552479D01*
X80582123Y3637159D01*
X80571829Y3640907D01*
X80378278Y3692769D01*
X80367491Y3694671D01*
X80167875Y3712135D01*
X80156925Y3712135D01*
X79957309Y3694671D01*
X79946522Y3692769D01*
X79752971Y3640907D01*
X79742677Y3637159D01*
X79561077Y3552479D01*
X79551589Y3547001D01*
X79521152Y3525689D01*
X79512777Y3515212D01*
X69237082Y3515212D01*
X69186558Y3550589D01*
X69181580Y3552910D01*
X69181577Y3552912D01*
X68999892Y3637633D01*
X68999891Y3637634D01*
X68994910Y3639956D01*
X68989602Y3641378D01*
X68989600Y3641379D01*
X68795970Y3693262D01*
X68795968Y3693262D01*
X68790655Y3694686D01*
X68580000Y3713116D01*
X68369345Y3694686D01*
X68364032Y3693262D01*
X68364030Y3693262D01*
X68170400Y3641379D01*
X68170398Y3641378D01*
X68165090Y3639956D01*
X68160109Y3637634D01*
X68160108Y3637633D01*
X67978423Y3552912D01*
X67978420Y3552910D01*
X67973442Y3550589D01*
X67800224Y3429301D01*
X67650699Y3279776D01*
X67647540Y3275264D01*
X67596316Y3202108D01*
X67540859Y3157780D01*
X67480131Y3149049D01*
X67463747Y3150745D01*
X67448164Y3142554D01*
X66818422Y2512812D01*
X66810808Y2498868D01*
X66080756Y2498868D01*
X66081992Y2501132D01*
X66081861Y2502965D01*
X66077610Y2509580D01*
X65443914Y3143276D01*
X65432139Y3149706D01*
X65420124Y3140410D01*
X65399399Y3110811D01*
X65393921Y3101323D01*
X65309241Y2919723D01*
X65305493Y2909429D01*
X65253631Y2715878D01*
X65251729Y2705091D01*
X65234265Y2505475D01*
X65234265Y2494525D01*
X56076637Y2494525D01*
X56077116Y2500000D01*
X56058686Y2710655D01*
X56003956Y2914910D01*
X55914589Y3106558D01*
X55793301Y3279776D01*
X55643776Y3429301D01*
X55521082Y3515212D01*
X65796777Y3515212D01*
X65803846Y3501764D01*
X66433588Y2872022D01*
X66447532Y2864408D01*
X66449365Y2864539D01*
X66455980Y2868790D01*
X67089676Y3502486D01*
X67096106Y3514261D01*
X67086810Y3526276D01*
X67057211Y3547001D01*
X67047723Y3552479D01*
X66866123Y3637159D01*
X66855829Y3640907D01*
X66662278Y3692769D01*
X66651491Y3694671D01*
X66451875Y3712135D01*
X66440925Y3712135D01*
X66241309Y3694671D01*
X66230522Y3692769D01*
X66036971Y3640907D01*
X66026677Y3637159D01*
X65845077Y3552479D01*
X65835589Y3547001D01*
X65805152Y3525689D01*
X65796777Y3515212D01*
X55521082Y3515212D01*
X55470558Y3550589D01*
X55465580Y3552910D01*
X55465577Y3552912D01*
X55283892Y3637633D01*
X55283891Y3637634D01*
X55278910Y3639956D01*
X55273602Y3641378D01*
X55273600Y3641379D01*
X55079970Y3693262D01*
X55079968Y3693262D01*
X55074655Y3694686D01*
X54864000Y3713116D01*
X54653345Y3694686D01*
X54648032Y3693262D01*
X54648030Y3693262D01*
X54454400Y3641379D01*
X54454398Y3641378D01*
X54449090Y3639956D01*
X54444109Y3637634D01*
X54444108Y3637633D01*
X54262423Y3552912D01*
X54262420Y3552910D01*
X54257442Y3550589D01*
X54084224Y3429301D01*
X53934699Y3279776D01*
X53931540Y3275264D01*
X53880316Y3202108D01*
X53824859Y3157780D01*
X53764131Y3149049D01*
X53747747Y3150745D01*
X53732164Y3142554D01*
X53102422Y2512812D01*
X53094808Y2498868D01*
X52364756Y2498868D01*
X52365992Y2501132D01*
X52365861Y2502965D01*
X52361610Y2509580D01*
X51727914Y3143276D01*
X51716139Y3149706D01*
X51704124Y3140410D01*
X51683399Y3110811D01*
X51677921Y3101323D01*
X51593241Y2919723D01*
X51589493Y2909429D01*
X51537631Y2715878D01*
X51535729Y2705091D01*
X51518265Y2505475D01*
X51518265Y2494525D01*
X42360637Y2494525D01*
X42361116Y2500000D01*
X42342686Y2710655D01*
X42287956Y2914910D01*
X42198589Y3106558D01*
X42077301Y3279776D01*
X41927776Y3429301D01*
X41805082Y3515212D01*
X52080777Y3515212D01*
X52087846Y3501764D01*
X52717588Y2872022D01*
X52731532Y2864408D01*
X52733365Y2864539D01*
X52739980Y2868790D01*
X53373676Y3502486D01*
X53380106Y3514261D01*
X53370810Y3526276D01*
X53341211Y3547001D01*
X53331723Y3552479D01*
X53150123Y3637159D01*
X53139829Y3640907D01*
X52946278Y3692769D01*
X52935491Y3694671D01*
X52735875Y3712135D01*
X52724925Y3712135D01*
X52525309Y3694671D01*
X52514522Y3692769D01*
X52320971Y3640907D01*
X52310677Y3637159D01*
X52129077Y3552479D01*
X52119589Y3547001D01*
X52089152Y3525689D01*
X52080777Y3515212D01*
X41805082Y3515212D01*
X41754558Y3550589D01*
X41749580Y3552910D01*
X41749577Y3552912D01*
X41567892Y3637633D01*
X41567891Y3637634D01*
X41562910Y3639956D01*
X41557602Y3641378D01*
X41557600Y3641379D01*
X41363970Y3693262D01*
X41363968Y3693262D01*
X41358655Y3694686D01*
X41148000Y3713116D01*
X40937345Y3694686D01*
X40932032Y3693262D01*
X40932030Y3693262D01*
X40738400Y3641379D01*
X40738398Y3641378D01*
X40733090Y3639956D01*
X40728109Y3637634D01*
X40728108Y3637633D01*
X40546423Y3552912D01*
X40546420Y3552910D01*
X40541442Y3550589D01*
X40368224Y3429301D01*
X40218699Y3279776D01*
X40215540Y3275264D01*
X40164316Y3202108D01*
X40108859Y3157780D01*
X40048131Y3149049D01*
X40031747Y3150745D01*
X40016164Y3142554D01*
X39386422Y2512812D01*
X39378808Y2498868D01*
X38648756Y2498868D01*
X38649992Y2501132D01*
X38649861Y2502965D01*
X38645610Y2509580D01*
X38011914Y3143276D01*
X38000139Y3149706D01*
X37988124Y3140410D01*
X37967399Y3110811D01*
X37961921Y3101323D01*
X37877241Y2919723D01*
X37873493Y2909429D01*
X37821631Y2715878D01*
X37819729Y2705091D01*
X37802265Y2505475D01*
X37802265Y2494525D01*
X28644637Y2494525D01*
X28645116Y2500000D01*
X28626686Y2710655D01*
X28571956Y2914910D01*
X28482589Y3106558D01*
X28361301Y3279776D01*
X28211776Y3429301D01*
X28089082Y3515212D01*
X38364777Y3515212D01*
X38371846Y3501764D01*
X39001588Y2872022D01*
X39015532Y2864408D01*
X39017365Y2864539D01*
X39023980Y2868790D01*
X39657676Y3502486D01*
X39664106Y3514261D01*
X39654810Y3526276D01*
X39625211Y3547001D01*
X39615723Y3552479D01*
X39434123Y3637159D01*
X39423829Y3640907D01*
X39230278Y3692769D01*
X39219491Y3694671D01*
X39019875Y3712135D01*
X39008925Y3712135D01*
X38809309Y3694671D01*
X38798522Y3692769D01*
X38604971Y3640907D01*
X38594677Y3637159D01*
X38413077Y3552479D01*
X38403589Y3547001D01*
X38373152Y3525689D01*
X38364777Y3515212D01*
X28089082Y3515212D01*
X28038558Y3550589D01*
X28033580Y3552910D01*
X28033577Y3552912D01*
X27851892Y3637633D01*
X27851891Y3637634D01*
X27846910Y3639956D01*
X27841602Y3641378D01*
X27841600Y3641379D01*
X27647970Y3693262D01*
X27647968Y3693262D01*
X27642655Y3694686D01*
X27432000Y3713116D01*
X27221345Y3694686D01*
X27216032Y3693262D01*
X27216030Y3693262D01*
X27022400Y3641379D01*
X27022398Y3641378D01*
X27017090Y3639956D01*
X27012109Y3637634D01*
X27012108Y3637633D01*
X26830423Y3552912D01*
X26830420Y3552910D01*
X26825442Y3550589D01*
X26652224Y3429301D01*
X26502699Y3279776D01*
X26499540Y3275264D01*
X26448316Y3202108D01*
X26392859Y3157780D01*
X26332131Y3149049D01*
X26315747Y3150745D01*
X26300164Y3142554D01*
X25670422Y2512812D01*
X25662808Y2498868D01*
X24932756Y2498868D01*
X24933992Y2501132D01*
X24933861Y2502965D01*
X24929610Y2509580D01*
X24295914Y3143276D01*
X24284139Y3149706D01*
X24272124Y3140410D01*
X24251399Y3110811D01*
X24245921Y3101323D01*
X24161241Y2919723D01*
X24157493Y2909429D01*
X24105631Y2715878D01*
X24103729Y2705091D01*
X24086265Y2505475D01*
X24086265Y2494525D01*
X14928637Y2494525D01*
X14929116Y2500000D01*
X14910686Y2710655D01*
X14855956Y2914910D01*
X14766589Y3106558D01*
X14645301Y3279776D01*
X14495776Y3429301D01*
X14373082Y3515212D01*
X24648777Y3515212D01*
X24655846Y3501764D01*
X25285588Y2872022D01*
X25299532Y2864408D01*
X25301365Y2864539D01*
X25307980Y2868790D01*
X25941676Y3502486D01*
X25948106Y3514261D01*
X25938810Y3526276D01*
X25909211Y3547001D01*
X25899723Y3552479D01*
X25718123Y3637159D01*
X25707829Y3640907D01*
X25514278Y3692769D01*
X25503491Y3694671D01*
X25303875Y3712135D01*
X25292925Y3712135D01*
X25093309Y3694671D01*
X25082522Y3692769D01*
X24888971Y3640907D01*
X24878677Y3637159D01*
X24697077Y3552479D01*
X24687589Y3547001D01*
X24657152Y3525689D01*
X24648777Y3515212D01*
X14373082Y3515212D01*
X14322558Y3550589D01*
X14317580Y3552910D01*
X14317577Y3552912D01*
X14135892Y3637633D01*
X14135891Y3637634D01*
X14130910Y3639956D01*
X14125602Y3641378D01*
X14125600Y3641379D01*
X13931970Y3693262D01*
X13931968Y3693262D01*
X13926655Y3694686D01*
X13716000Y3713116D01*
X13505345Y3694686D01*
X13500032Y3693262D01*
X13500030Y3693262D01*
X13306400Y3641379D01*
X13306398Y3641378D01*
X13301090Y3639956D01*
X13296109Y3637634D01*
X13296108Y3637633D01*
X13114423Y3552912D01*
X13114420Y3552910D01*
X13109442Y3550589D01*
X12936224Y3429301D01*
X12786699Y3279776D01*
X12783540Y3275264D01*
X12732316Y3202108D01*
X12676859Y3157780D01*
X12616131Y3149049D01*
X12599747Y3150745D01*
X12584164Y3142554D01*
X11954422Y2512812D01*
X11946808Y2498868D01*
X11216756Y2498868D01*
X11217992Y2501132D01*
X11217861Y2502965D01*
X11213610Y2509580D01*
X10579914Y3143276D01*
X10568139Y3149706D01*
X10556124Y3140410D01*
X10535399Y3110811D01*
X10529921Y3101323D01*
X10445241Y2919723D01*
X10441493Y2909429D01*
X10389631Y2715878D01*
X10387729Y2705091D01*
X10370265Y2505475D01*
X10370265Y2494525D01*
X1212637Y2494525D01*
X1213116Y2500000D01*
X1194686Y2710655D01*
X1139956Y2914910D01*
X1050589Y3106558D01*
X929301Y3279776D01*
X779776Y3429301D01*
X657082Y3515212D01*
X10932777Y3515212D01*
X10939846Y3501764D01*
X11569588Y2872022D01*
X11583532Y2864408D01*
X11585365Y2864539D01*
X11591980Y2868790D01*
X12225676Y3502486D01*
X12232106Y3514261D01*
X12222810Y3526276D01*
X12193211Y3547001D01*
X12183723Y3552479D01*
X12002123Y3637159D01*
X11991829Y3640907D01*
X11798278Y3692769D01*
X11787491Y3694671D01*
X11587875Y3712135D01*
X11576925Y3712135D01*
X11377309Y3694671D01*
X11366522Y3692769D01*
X11172971Y3640907D01*
X11162677Y3637159D01*
X10981077Y3552479D01*
X10971589Y3547001D01*
X10941152Y3525689D01*
X10932777Y3515212D01*
X657082Y3515212D01*
X606558Y3550589D01*
X601580Y3552910D01*
X601577Y3552912D01*
X419892Y3637633D01*
X419891Y3637634D01*
X414910Y3639956D01*
X409602Y3641378D01*
X409600Y3641379D01*
X215970Y3693262D01*
X215968Y3693262D01*
X210655Y3694686D01*
X0Y3713116D01*
X-210655Y3694686D01*
X-215968Y3693262D01*
X-215970Y3693262D01*
X-409600Y3641379D01*
X-409602Y3641378D01*
X-414910Y3639956D01*
X-419891Y3637634D01*
X-419892Y3637633D01*
X-601577Y3552912D01*
X-601580Y3552910D01*
X-606558Y3550589D01*
X-779776Y3429301D01*
X-929301Y3279776D01*
X-932460Y3275264D01*
X-983684Y3202108D01*
X-1039141Y3157780D01*
X-1099869Y3149049D01*
X-1116253Y3150745D01*
X-1131836Y3142554D01*
X-1761578Y2512812D01*
X-1769192Y2498868D01*
X-2499244Y2498868D01*
X-2498008Y2501132D01*
X-2498139Y2502965D01*
X-2502390Y2509580D01*
X-3136086Y3143276D01*
X-3147861Y3149706D01*
X-3159876Y3140410D01*
X-3180601Y3110811D01*
X-3186079Y3101323D01*
X-3270759Y2919723D01*
X-3274507Y2909429D01*
X-3326369Y2715878D01*
X-3328271Y2705091D01*
X-3345735Y2505475D01*
X-3345735Y2494525D01*
X-7069651Y2494525D01*
X-7069651Y3515212D01*
X-2783223Y3515212D01*
X-2776154Y3501764D01*
X-2146412Y2872022D01*
X-2132468Y2864408D01*
X-2130635Y2864539D01*
X-2124020Y2868790D01*
X-1490324Y3502486D01*
X-1483894Y3514261D01*
X-1493190Y3526276D01*
X-1522789Y3547001D01*
X-1532277Y3552479D01*
X-1713877Y3637159D01*
X-1724171Y3640907D01*
X-1917722Y3692769D01*
X-1928509Y3694671D01*
X-2128125Y3712135D01*
X-2139075Y3712135D01*
X-2338691Y3694671D01*
X-2349478Y3692769D01*
X-2543029Y3640907D01*
X-2553323Y3637159D01*
X-2734923Y3552479D01*
X-2744411Y3547001D01*
X-2774848Y3525689D01*
X-2783223Y3515212D01*
X-7069651Y3515212D01*
X-7069651Y8190424D01*
X-7049649Y8258545D01*
X-6995993Y8305038D01*
X-6925719Y8315142D01*
X-6861139Y8285648D01*
X-6826826Y8237625D01*
X-6757413Y8065822D01*
X-6754428Y8059478D01*
X-6589817Y7755037D01*
X-6586133Y7749048D01*
X-6388615Y7464858D01*
X-6384294Y7459327D01*
X-6156330Y7198926D01*
X-6151410Y7193902D01*
X-5895846Y6960539D01*
X-5890397Y6956095D01*
X-5610415Y6752677D01*
X-5604493Y6748860D01*
X-5303587Y6577922D01*
X-5297282Y6574792D01*
X-4979185Y6438455D01*
X-4972584Y6436053D01*
X-4641266Y6336022D01*
X-4634445Y6334372D01*
X-4294043Y6271896D01*
X-4287060Y6271014D01*
X-4007258Y6251448D01*
X-4002873Y6251295D01*
X-2516266Y6251295D01*
X-2501027Y6255770D01*
X-2499822Y6257160D01*
X-2498151Y6264843D01*
X-2498151Y6269410D01*
X-1990151Y6269410D01*
X-1985676Y6254171D01*
X-1984286Y6252966D01*
X-1976603Y6251295D01*
X-506901Y6251295D01*
X-503409Y6251392D01*
X-245086Y6265835D01*
X-238112Y6266617D01*
X103133Y6324334D01*
X109988Y6325892D01*
X442666Y6421286D01*
X449294Y6423594D01*
X769281Y6555482D01*
X775601Y6558511D01*
X1078891Y6725246D01*
X1084848Y6728969D01*
X1367639Y6928455D01*
X1373165Y6932834D01*
X1631953Y7162599D01*
X1636951Y7167563D01*
X1868519Y7424744D01*
X1872925Y7430224D01*
X2074386Y7711621D01*
X2078159Y7717568D01*
X2246994Y8019663D01*
X2250076Y8025981D01*
X2384191Y8345028D01*
X2386547Y8351643D01*
X2484265Y8683661D01*
X2485865Y8690483D01*
X2523939Y8906409D01*
X146201342Y8906409D01*
X146204180Y8848380D01*
X146204913Y8841404D01*
X146260246Y8499767D01*
X146261756Y8492899D01*
X146354823Y8159571D01*
X146357090Y8152911D01*
X146486738Y7832022D01*
X146489723Y7825678D01*
X146654334Y7521237D01*
X146658018Y7515248D01*
X146855536Y7231058D01*
X146859857Y7225527D01*
X147087821Y6965126D01*
X147092741Y6960102D01*
X147348305Y6726739D01*
X147353754Y6722295D01*
X147633736Y6518877D01*
X147639658Y6515060D01*
X147940564Y6344122D01*
X147946869Y6340992D01*
X148264966Y6204655D01*
X148271567Y6202253D01*
X148602885Y6102222D01*
X148609706Y6100572D01*
X148950108Y6038096D01*
X148957091Y6037214D01*
X149236893Y6017648D01*
X149241278Y6017495D01*
X150727885Y6017495D01*
X150743124Y6021970D01*
X150744329Y6023360D01*
X150746000Y6031043D01*
X150746000Y8903380D01*
X150741525Y8918619D01*
X150740135Y8919824D01*
X150732452Y8921495D01*
X146218719Y8921495D01*
X146203480Y8917020D01*
X146203351Y8916872D01*
X146201342Y8906409D01*
X2523939Y8906409D01*
X2545965Y9031326D01*
X2546796Y9038298D01*
X2553019Y9137212D01*
X2549544Y9152552D01*
X2538603Y9155295D01*
X-1972036Y9155295D01*
X-1987275Y9150820D01*
X-1988480Y9149430D01*
X-1990151Y9141747D01*
X-1990151Y6269410D01*
X-2498151Y6269410D01*
X-2498151Y9537295D01*
X-2478149Y9605416D01*
X-2424493Y9651909D01*
X-2372151Y9663295D01*
X2537130Y9663295D01*
X2552369Y9667770D01*
X2552498Y9667918D01*
X2554507Y9678381D01*
X2551669Y9736410D01*
X2550936Y9743386D01*
X2495603Y10085023D01*
X2494093Y10091891D01*
X2401026Y10425219D01*
X2398759Y10431879D01*
X2285340Y10712600D01*
X56083100Y10712600D01*
X56083397Y10707447D01*
X56083397Y10707444D01*
X56093899Y10525312D01*
X56095959Y10489580D01*
X56097096Y10484534D01*
X56097097Y10484528D01*
X56116968Y10396356D01*
X56145071Y10271656D01*
X56229115Y10064679D01*
X56279868Y9981857D01*
X56343140Y9878607D01*
X56345836Y9874207D01*
X56492099Y9705357D01*
X56663975Y9562663D01*
X56856849Y9449957D01*
X57065541Y9370265D01*
X57070609Y9369234D01*
X57070612Y9369233D01*
X57136456Y9355837D01*
X57284446Y9325728D01*
X57289621Y9325538D01*
X57289623Y9325538D01*
X57502522Y9317731D01*
X57502526Y9317731D01*
X57507686Y9317542D01*
X57512806Y9318198D01*
X57512808Y9318198D01*
X57724137Y9345270D01*
X57724138Y9345270D01*
X57729265Y9345927D01*
X57734215Y9347412D01*
X57938278Y9408634D01*
X57938283Y9408636D01*
X57943233Y9410121D01*
X58143843Y9508399D01*
X58325709Y9638122D01*
X58483945Y9795806D01*
X58543443Y9878606D01*
X58614302Y9977218D01*
X58615625Y9976267D01*
X58662494Y10019438D01*
X58732429Y10031670D01*
X58797875Y10004151D01*
X58825724Y9972301D01*
X58885836Y9874207D01*
X59032099Y9705357D01*
X59203975Y9562663D01*
X59396849Y9449957D01*
X59605541Y9370265D01*
X59610609Y9369234D01*
X59610612Y9369233D01*
X59676456Y9355837D01*
X59824446Y9325728D01*
X59829621Y9325538D01*
X59829623Y9325538D01*
X60042522Y9317731D01*
X60042526Y9317731D01*
X60047686Y9317542D01*
X60052806Y9318198D01*
X60052808Y9318198D01*
X60264137Y9345270D01*
X60264138Y9345270D01*
X60269265Y9345927D01*
X60274215Y9347412D01*
X60478278Y9408634D01*
X60478283Y9408636D01*
X60483233Y9410121D01*
X60683843Y9508399D01*
X60865709Y9638122D01*
X61023945Y9795806D01*
X61083443Y9878606D01*
X61154302Y9977218D01*
X61155625Y9976267D01*
X61202494Y10019438D01*
X61272429Y10031670D01*
X61337875Y10004151D01*
X61365724Y9972301D01*
X61425836Y9874207D01*
X61572099Y9705357D01*
X61743975Y9562663D01*
X61936849Y9449957D01*
X62145541Y9370265D01*
X62150609Y9369234D01*
X62150612Y9369233D01*
X62216456Y9355837D01*
X62364446Y9325728D01*
X62369621Y9325538D01*
X62369623Y9325538D01*
X62582522Y9317731D01*
X62582526Y9317731D01*
X62587686Y9317542D01*
X62592806Y9318198D01*
X62592808Y9318198D01*
X62804137Y9345270D01*
X62804138Y9345270D01*
X62809265Y9345927D01*
X62814215Y9347412D01*
X63018278Y9408634D01*
X63018283Y9408636D01*
X63023233Y9410121D01*
X63223843Y9508399D01*
X63405709Y9638122D01*
X63563945Y9795806D01*
X63623443Y9878606D01*
X63694302Y9977218D01*
X63695625Y9976267D01*
X63742494Y10019438D01*
X63812429Y10031670D01*
X63877875Y10004151D01*
X63905724Y9972301D01*
X63965836Y9874207D01*
X64112099Y9705357D01*
X64283975Y9562663D01*
X64476849Y9449957D01*
X64685541Y9370265D01*
X64690609Y9369234D01*
X64690612Y9369233D01*
X64756456Y9355837D01*
X64904446Y9325728D01*
X64909621Y9325538D01*
X64909623Y9325538D01*
X65122522Y9317731D01*
X65122526Y9317731D01*
X65127686Y9317542D01*
X65132806Y9318198D01*
X65132808Y9318198D01*
X65344137Y9345270D01*
X65344138Y9345270D01*
X65349265Y9345927D01*
X65354215Y9347412D01*
X65558278Y9408634D01*
X65558283Y9408636D01*
X65563233Y9410121D01*
X65763843Y9508399D01*
X65945709Y9638122D01*
X66103945Y9795806D01*
X66163443Y9878606D01*
X66234302Y9977218D01*
X66235625Y9976267D01*
X66282494Y10019438D01*
X66352429Y10031670D01*
X66417875Y10004151D01*
X66445724Y9972301D01*
X66505836Y9874207D01*
X66652099Y9705357D01*
X66823975Y9562663D01*
X67016849Y9449957D01*
X67225541Y9370265D01*
X67230609Y9369234D01*
X67230612Y9369233D01*
X67296456Y9355837D01*
X67444446Y9325728D01*
X67449621Y9325538D01*
X67449623Y9325538D01*
X67662522Y9317731D01*
X67662526Y9317731D01*
X67667686Y9317542D01*
X67672806Y9318198D01*
X67672808Y9318198D01*
X67884137Y9345270D01*
X67884138Y9345270D01*
X67889265Y9345927D01*
X67894215Y9347412D01*
X68098278Y9408634D01*
X68098283Y9408636D01*
X68103233Y9410121D01*
X68303843Y9508399D01*
X68485709Y9638122D01*
X68643945Y9795806D01*
X68703443Y9878606D01*
X68774302Y9977218D01*
X68775625Y9976267D01*
X68822494Y10019438D01*
X68892429Y10031670D01*
X68957875Y10004151D01*
X68985724Y9972301D01*
X69045836Y9874207D01*
X69192099Y9705357D01*
X69363975Y9562663D01*
X69556849Y9449957D01*
X69765541Y9370265D01*
X69770609Y9369234D01*
X69770612Y9369233D01*
X69836456Y9355837D01*
X69984446Y9325728D01*
X69989621Y9325538D01*
X69989623Y9325538D01*
X70202522Y9317731D01*
X70202526Y9317731D01*
X70207686Y9317542D01*
X70212806Y9318198D01*
X70212808Y9318198D01*
X70424137Y9345270D01*
X70424138Y9345270D01*
X70429265Y9345927D01*
X70434215Y9347412D01*
X70638278Y9408634D01*
X70638283Y9408636D01*
X70643233Y9410121D01*
X70843843Y9508399D01*
X71025709Y9638122D01*
X71183945Y9795806D01*
X71243443Y9878606D01*
X71314302Y9977218D01*
X71315625Y9976267D01*
X71362494Y10019438D01*
X71432429Y10031670D01*
X71497875Y10004151D01*
X71525724Y9972301D01*
X71585836Y9874207D01*
X71732099Y9705357D01*
X71903975Y9562663D01*
X72096849Y9449957D01*
X72305541Y9370265D01*
X72310609Y9369234D01*
X72310612Y9369233D01*
X72376456Y9355837D01*
X72524446Y9325728D01*
X72529621Y9325538D01*
X72529623Y9325538D01*
X72742522Y9317731D01*
X72742526Y9317731D01*
X72747686Y9317542D01*
X72752806Y9318198D01*
X72752808Y9318198D01*
X72964137Y9345270D01*
X72964138Y9345270D01*
X72969265Y9345927D01*
X72974215Y9347412D01*
X73178278Y9408634D01*
X73178283Y9408636D01*
X73183233Y9410121D01*
X73383843Y9508399D01*
X73565709Y9638122D01*
X73723945Y9795806D01*
X73783443Y9878606D01*
X73854302Y9977218D01*
X73855625Y9976267D01*
X73902494Y10019438D01*
X73972429Y10031670D01*
X74037875Y10004151D01*
X74065724Y9972301D01*
X74125836Y9874207D01*
X74272099Y9705357D01*
X74443975Y9562663D01*
X74636849Y9449957D01*
X74845541Y9370265D01*
X74850609Y9369234D01*
X74850612Y9369233D01*
X74916456Y9355837D01*
X75064446Y9325728D01*
X75069621Y9325538D01*
X75069623Y9325538D01*
X75282522Y9317731D01*
X75282526Y9317731D01*
X75287686Y9317542D01*
X75292806Y9318198D01*
X75292808Y9318198D01*
X75504137Y9345270D01*
X75504138Y9345270D01*
X75509265Y9345927D01*
X75514215Y9347412D01*
X75718278Y9408634D01*
X75718283Y9408636D01*
X75723233Y9410121D01*
X75923843Y9508399D01*
X76105709Y9638122D01*
X76263945Y9795806D01*
X76323443Y9878606D01*
X76394302Y9977218D01*
X76395625Y9976267D01*
X76442494Y10019438D01*
X76512429Y10031670D01*
X76577875Y10004151D01*
X76605724Y9972301D01*
X76665836Y9874207D01*
X76812099Y9705357D01*
X76983975Y9562663D01*
X77176849Y9449957D01*
X77385541Y9370265D01*
X77390609Y9369234D01*
X77390612Y9369233D01*
X77456456Y9355837D01*
X77604446Y9325728D01*
X77609621Y9325538D01*
X77609623Y9325538D01*
X77822522Y9317731D01*
X77822526Y9317731D01*
X77827686Y9317542D01*
X77832806Y9318198D01*
X77832808Y9318198D01*
X78044137Y9345270D01*
X78044138Y9345270D01*
X78049265Y9345927D01*
X78054215Y9347412D01*
X78258278Y9408634D01*
X78258283Y9408636D01*
X78263233Y9410121D01*
X78463843Y9508399D01*
X78645709Y9638122D01*
X78803945Y9795806D01*
X78863443Y9878606D01*
X78934302Y9977218D01*
X78935625Y9976267D01*
X78982494Y10019438D01*
X79052429Y10031670D01*
X79117875Y10004151D01*
X79145724Y9972301D01*
X79205836Y9874207D01*
X79352099Y9705357D01*
X79523975Y9562663D01*
X79716849Y9449957D01*
X79925541Y9370265D01*
X79930609Y9369234D01*
X79930612Y9369233D01*
X79996456Y9355837D01*
X80144446Y9325728D01*
X80149621Y9325538D01*
X80149623Y9325538D01*
X80362522Y9317731D01*
X80362526Y9317731D01*
X80367686Y9317542D01*
X80372806Y9318198D01*
X80372808Y9318198D01*
X80584137Y9345270D01*
X80584138Y9345270D01*
X80589265Y9345927D01*
X80594215Y9347412D01*
X80798278Y9408634D01*
X80798283Y9408636D01*
X80803233Y9410121D01*
X81003843Y9508399D01*
X81185709Y9638122D01*
X81343945Y9795806D01*
X81403443Y9878606D01*
X81474302Y9977218D01*
X81475625Y9976267D01*
X81522494Y10019438D01*
X81592429Y10031670D01*
X81657875Y10004151D01*
X81685724Y9972301D01*
X81745836Y9874207D01*
X81892099Y9705357D01*
X82063975Y9562663D01*
X82256849Y9449957D01*
X82465541Y9370265D01*
X82470609Y9369234D01*
X82470612Y9369233D01*
X82536456Y9355837D01*
X82684446Y9325728D01*
X82689621Y9325538D01*
X82689623Y9325538D01*
X82902522Y9317731D01*
X82902526Y9317731D01*
X82907686Y9317542D01*
X82912806Y9318198D01*
X82912808Y9318198D01*
X83124137Y9345270D01*
X83124138Y9345270D01*
X83129265Y9345927D01*
X83134215Y9347412D01*
X83338278Y9408634D01*
X83338283Y9408636D01*
X83343233Y9410121D01*
X83543843Y9508399D01*
X83725709Y9638122D01*
X83883945Y9795806D01*
X83943443Y9878606D01*
X84014302Y9977218D01*
X84015625Y9976267D01*
X84062494Y10019438D01*
X84132429Y10031670D01*
X84197875Y10004151D01*
X84225724Y9972301D01*
X84285836Y9874207D01*
X84432099Y9705357D01*
X84603975Y9562663D01*
X84796849Y9449957D01*
X85005541Y9370265D01*
X85010609Y9369234D01*
X85010612Y9369233D01*
X85076456Y9355837D01*
X85224446Y9325728D01*
X85229621Y9325538D01*
X85229623Y9325538D01*
X85442522Y9317731D01*
X85442526Y9317731D01*
X85447686Y9317542D01*
X85452806Y9318198D01*
X85452808Y9318198D01*
X85664137Y9345270D01*
X85664138Y9345270D01*
X85669265Y9345927D01*
X85674215Y9347412D01*
X85878278Y9408634D01*
X85878283Y9408636D01*
X85883233Y9410121D01*
X86083843Y9508399D01*
X86265709Y9638122D01*
X86423945Y9795806D01*
X86483443Y9878606D01*
X86551284Y9973018D01*
X86554302Y9977218D01*
X86575169Y10019438D01*
X86650985Y10172842D01*
X86650986Y10172844D01*
X86653279Y10177484D01*
X86718219Y10391226D01*
X86747378Y10612705D01*
X86749005Y10679295D01*
X86730701Y10901934D01*
X86676280Y11118593D01*
X86587203Y11323455D01*
X86465863Y11511018D01*
X86315519Y11676244D01*
X86311468Y11679443D01*
X86311464Y11679447D01*
X86144263Y11811495D01*
X86144259Y11811497D01*
X86140208Y11814697D01*
X85944638Y11922657D01*
X85939769Y11924381D01*
X85939765Y11924383D01*
X85738936Y11995500D01*
X85738932Y11995501D01*
X85734061Y11997226D01*
X85728968Y11998133D01*
X85728965Y11998134D01*
X85519222Y12035495D01*
X85519216Y12035496D01*
X85514133Y12036401D01*
X85440301Y12037303D01*
X85295930Y12039067D01*
X85295928Y12039067D01*
X85290760Y12039130D01*
X85069940Y12005340D01*
X84857605Y11935938D01*
X84827292Y11920158D01*
X84716523Y11862495D01*
X84659456Y11832788D01*
X84655323Y11829685D01*
X84655320Y11829683D01*
X84631096Y11811495D01*
X84480814Y11698660D01*
X84326478Y11537157D01*
X84219050Y11379674D01*
X84164142Y11334674D01*
X84093617Y11326503D01*
X84029870Y11357757D01*
X84009173Y11382241D01*
X83928671Y11506678D01*
X83928669Y11506681D01*
X83925863Y11511018D01*
X83775519Y11676244D01*
X83771468Y11679443D01*
X83771464Y11679447D01*
X83604263Y11811495D01*
X83604259Y11811497D01*
X83600208Y11814697D01*
X83404638Y11922657D01*
X83399769Y11924381D01*
X83399765Y11924383D01*
X83198936Y11995500D01*
X83198932Y11995501D01*
X83194061Y11997226D01*
X83188968Y11998133D01*
X83188965Y11998134D01*
X82979222Y12035495D01*
X82979216Y12035496D01*
X82974133Y12036401D01*
X82900301Y12037303D01*
X82755930Y12039067D01*
X82755928Y12039067D01*
X82750760Y12039130D01*
X82529940Y12005340D01*
X82317605Y11935938D01*
X82287292Y11920158D01*
X82176523Y11862495D01*
X82119456Y11832788D01*
X82115323Y11829685D01*
X82115320Y11829683D01*
X82091096Y11811495D01*
X81940814Y11698660D01*
X81786478Y11537157D01*
X81679050Y11379674D01*
X81624142Y11334674D01*
X81553617Y11326503D01*
X81489870Y11357757D01*
X81469173Y11382241D01*
X81388671Y11506678D01*
X81388669Y11506681D01*
X81385863Y11511018D01*
X81235519Y11676244D01*
X81231468Y11679443D01*
X81231464Y11679447D01*
X81064263Y11811495D01*
X81064259Y11811497D01*
X81060208Y11814697D01*
X80864638Y11922657D01*
X80859769Y11924381D01*
X80859765Y11924383D01*
X80658936Y11995500D01*
X80658932Y11995501D01*
X80654061Y11997226D01*
X80648968Y11998133D01*
X80648965Y11998134D01*
X80439222Y12035495D01*
X80439216Y12035496D01*
X80434133Y12036401D01*
X80360301Y12037303D01*
X80215930Y12039067D01*
X80215928Y12039067D01*
X80210760Y12039130D01*
X79989940Y12005340D01*
X79777605Y11935938D01*
X79747292Y11920158D01*
X79636523Y11862495D01*
X79579456Y11832788D01*
X79575323Y11829685D01*
X79575320Y11829683D01*
X79551096Y11811495D01*
X79400814Y11698660D01*
X79246478Y11537157D01*
X79139050Y11379674D01*
X79084142Y11334674D01*
X79013617Y11326503D01*
X78949870Y11357757D01*
X78929173Y11382241D01*
X78848671Y11506678D01*
X78848669Y11506681D01*
X78845863Y11511018D01*
X78695519Y11676244D01*
X78691468Y11679443D01*
X78691464Y11679447D01*
X78524263Y11811495D01*
X78524259Y11811497D01*
X78520208Y11814697D01*
X78324638Y11922657D01*
X78319769Y11924381D01*
X78319765Y11924383D01*
X78118936Y11995500D01*
X78118932Y11995501D01*
X78114061Y11997226D01*
X78108968Y11998133D01*
X78108965Y11998134D01*
X77899222Y12035495D01*
X77899216Y12035496D01*
X77894133Y12036401D01*
X77820301Y12037303D01*
X77675930Y12039067D01*
X77675928Y12039067D01*
X77670760Y12039130D01*
X77449940Y12005340D01*
X77237605Y11935938D01*
X77207292Y11920158D01*
X77096523Y11862495D01*
X77039456Y11832788D01*
X77035323Y11829685D01*
X77035320Y11829683D01*
X77011096Y11811495D01*
X76860814Y11698660D01*
X76706478Y11537157D01*
X76599050Y11379674D01*
X76544142Y11334674D01*
X76473617Y11326503D01*
X76409870Y11357757D01*
X76389173Y11382241D01*
X76308671Y11506678D01*
X76308669Y11506681D01*
X76305863Y11511018D01*
X76155519Y11676244D01*
X76151468Y11679443D01*
X76151464Y11679447D01*
X75984263Y11811495D01*
X75984259Y11811497D01*
X75980208Y11814697D01*
X75784638Y11922657D01*
X75779769Y11924381D01*
X75779765Y11924383D01*
X75578936Y11995500D01*
X75578932Y11995501D01*
X75574061Y11997226D01*
X75568968Y11998133D01*
X75568965Y11998134D01*
X75359222Y12035495D01*
X75359216Y12035496D01*
X75354133Y12036401D01*
X75280301Y12037303D01*
X75135930Y12039067D01*
X75135928Y12039067D01*
X75130760Y12039130D01*
X74909940Y12005340D01*
X74697605Y11935938D01*
X74667292Y11920158D01*
X74556523Y11862495D01*
X74499456Y11832788D01*
X74495323Y11829685D01*
X74495320Y11829683D01*
X74471096Y11811495D01*
X74320814Y11698660D01*
X74166478Y11537157D01*
X74059050Y11379674D01*
X74004142Y11334674D01*
X73933617Y11326503D01*
X73869870Y11357757D01*
X73849173Y11382241D01*
X73768671Y11506678D01*
X73768669Y11506681D01*
X73765863Y11511018D01*
X73615519Y11676244D01*
X73611468Y11679443D01*
X73611464Y11679447D01*
X73444263Y11811495D01*
X73444259Y11811497D01*
X73440208Y11814697D01*
X73244638Y11922657D01*
X73239769Y11924381D01*
X73239765Y11924383D01*
X73038936Y11995500D01*
X73038932Y11995501D01*
X73034061Y11997226D01*
X73028968Y11998133D01*
X73028965Y11998134D01*
X72819222Y12035495D01*
X72819216Y12035496D01*
X72814133Y12036401D01*
X72740301Y12037303D01*
X72595930Y12039067D01*
X72595928Y12039067D01*
X72590760Y12039130D01*
X72369940Y12005340D01*
X72157605Y11935938D01*
X72127292Y11920158D01*
X72016523Y11862495D01*
X71959456Y11832788D01*
X71955323Y11829685D01*
X71955320Y11829683D01*
X71931096Y11811495D01*
X71780814Y11698660D01*
X71626478Y11537157D01*
X71519050Y11379674D01*
X71464142Y11334674D01*
X71393617Y11326503D01*
X71329870Y11357757D01*
X71309173Y11382241D01*
X71228671Y11506678D01*
X71228669Y11506681D01*
X71225863Y11511018D01*
X71075519Y11676244D01*
X71071468Y11679443D01*
X71071464Y11679447D01*
X70904263Y11811495D01*
X70904259Y11811497D01*
X70900208Y11814697D01*
X70704638Y11922657D01*
X70699769Y11924381D01*
X70699765Y11924383D01*
X70498936Y11995500D01*
X70498932Y11995501D01*
X70494061Y11997226D01*
X70488968Y11998133D01*
X70488965Y11998134D01*
X70279222Y12035495D01*
X70279216Y12035496D01*
X70274133Y12036401D01*
X70200301Y12037303D01*
X70055930Y12039067D01*
X70055928Y12039067D01*
X70050760Y12039130D01*
X69829940Y12005340D01*
X69617605Y11935938D01*
X69587292Y11920158D01*
X69476523Y11862495D01*
X69419456Y11832788D01*
X69415323Y11829685D01*
X69415320Y11829683D01*
X69391096Y11811495D01*
X69240814Y11698660D01*
X69086478Y11537157D01*
X68979050Y11379674D01*
X68924142Y11334674D01*
X68853617Y11326503D01*
X68789870Y11357757D01*
X68769173Y11382241D01*
X68688671Y11506678D01*
X68688669Y11506681D01*
X68685863Y11511018D01*
X68535519Y11676244D01*
X68531468Y11679443D01*
X68531464Y11679447D01*
X68364263Y11811495D01*
X68364259Y11811497D01*
X68360208Y11814697D01*
X68164638Y11922657D01*
X68159769Y11924381D01*
X68159765Y11924383D01*
X67958936Y11995500D01*
X67958932Y11995501D01*
X67954061Y11997226D01*
X67948968Y11998133D01*
X67948965Y11998134D01*
X67739222Y12035495D01*
X67739216Y12035496D01*
X67734133Y12036401D01*
X67660301Y12037303D01*
X67515930Y12039067D01*
X67515928Y12039067D01*
X67510760Y12039130D01*
X67289940Y12005340D01*
X67077605Y11935938D01*
X67047292Y11920158D01*
X66936523Y11862495D01*
X66879456Y11832788D01*
X66875323Y11829685D01*
X66875320Y11829683D01*
X66851096Y11811495D01*
X66700814Y11698660D01*
X66546478Y11537157D01*
X66439050Y11379674D01*
X66384142Y11334674D01*
X66313617Y11326503D01*
X66249870Y11357757D01*
X66229173Y11382241D01*
X66148671Y11506678D01*
X66148669Y11506681D01*
X66145863Y11511018D01*
X65995519Y11676244D01*
X65991468Y11679443D01*
X65991464Y11679447D01*
X65824263Y11811495D01*
X65824259Y11811497D01*
X65820208Y11814697D01*
X65624638Y11922657D01*
X65619769Y11924381D01*
X65619765Y11924383D01*
X65418936Y11995500D01*
X65418932Y11995501D01*
X65414061Y11997226D01*
X65408968Y11998133D01*
X65408965Y11998134D01*
X65199222Y12035495D01*
X65199216Y12035496D01*
X65194133Y12036401D01*
X65120301Y12037303D01*
X64975930Y12039067D01*
X64975928Y12039067D01*
X64970760Y12039130D01*
X64749940Y12005340D01*
X64537605Y11935938D01*
X64507292Y11920158D01*
X64396523Y11862495D01*
X64339456Y11832788D01*
X64335323Y11829685D01*
X64335320Y11829683D01*
X64311096Y11811495D01*
X64160814Y11698660D01*
X64006478Y11537157D01*
X63899050Y11379674D01*
X63844142Y11334674D01*
X63773617Y11326503D01*
X63709870Y11357757D01*
X63689173Y11382241D01*
X63608671Y11506678D01*
X63608669Y11506681D01*
X63605863Y11511018D01*
X63455519Y11676244D01*
X63451468Y11679443D01*
X63451464Y11679447D01*
X63284263Y11811495D01*
X63284259Y11811497D01*
X63280208Y11814697D01*
X63084638Y11922657D01*
X63079769Y11924381D01*
X63079765Y11924383D01*
X62878936Y11995500D01*
X62878932Y11995501D01*
X62874061Y11997226D01*
X62868968Y11998133D01*
X62868965Y11998134D01*
X62659222Y12035495D01*
X62659216Y12035496D01*
X62654133Y12036401D01*
X62580301Y12037303D01*
X62435930Y12039067D01*
X62435928Y12039067D01*
X62430760Y12039130D01*
X62209940Y12005340D01*
X61997605Y11935938D01*
X61967292Y11920158D01*
X61856523Y11862495D01*
X61799456Y11832788D01*
X61795323Y11829685D01*
X61795320Y11829683D01*
X61771096Y11811495D01*
X61620814Y11698660D01*
X61466478Y11537157D01*
X61359050Y11379674D01*
X61304142Y11334674D01*
X61233617Y11326503D01*
X61169870Y11357757D01*
X61149173Y11382241D01*
X61068671Y11506678D01*
X61068669Y11506681D01*
X61065863Y11511018D01*
X60915519Y11676244D01*
X60911468Y11679443D01*
X60911464Y11679447D01*
X60744263Y11811495D01*
X60744259Y11811497D01*
X60740208Y11814697D01*
X60544638Y11922657D01*
X60539769Y11924381D01*
X60539765Y11924383D01*
X60338936Y11995500D01*
X60338932Y11995501D01*
X60334061Y11997226D01*
X60328968Y11998133D01*
X60328965Y11998134D01*
X60119222Y12035495D01*
X60119216Y12035496D01*
X60114133Y12036401D01*
X60040301Y12037303D01*
X59895930Y12039067D01*
X59895928Y12039067D01*
X59890760Y12039130D01*
X59669940Y12005340D01*
X59457605Y11935938D01*
X59427292Y11920158D01*
X59316523Y11862495D01*
X59259456Y11832788D01*
X59255323Y11829685D01*
X59255320Y11829683D01*
X59231096Y11811495D01*
X59080814Y11698660D01*
X58926478Y11537157D01*
X58819050Y11379674D01*
X58764142Y11334674D01*
X58693617Y11326503D01*
X58629870Y11357757D01*
X58609173Y11382241D01*
X58528671Y11506678D01*
X58528669Y11506681D01*
X58525863Y11511018D01*
X58375519Y11676244D01*
X58371468Y11679443D01*
X58371464Y11679447D01*
X58204263Y11811495D01*
X58204259Y11811497D01*
X58200208Y11814697D01*
X58004638Y11922657D01*
X57999769Y11924381D01*
X57999765Y11924383D01*
X57798936Y11995500D01*
X57798932Y11995501D01*
X57794061Y11997226D01*
X57788968Y11998133D01*
X57788965Y11998134D01*
X57579222Y12035495D01*
X57579216Y12035496D01*
X57574133Y12036401D01*
X57500301Y12037303D01*
X57355930Y12039067D01*
X57355928Y12039067D01*
X57350760Y12039130D01*
X57129940Y12005340D01*
X56917605Y11935938D01*
X56887292Y11920158D01*
X56776523Y11862495D01*
X56719456Y11832788D01*
X56715323Y11829685D01*
X56715320Y11829683D01*
X56691096Y11811495D01*
X56540814Y11698660D01*
X56386478Y11537157D01*
X56260592Y11352615D01*
X56166537Y11149990D01*
X56106838Y10934725D01*
X56083100Y10712600D01*
X2285340Y10712600D01*
X2269111Y10752768D01*
X2266126Y10759112D01*
X2101515Y11063553D01*
X2097831Y11069542D01*
X1900313Y11353732D01*
X1895992Y11359263D01*
X1668028Y11619664D01*
X1663108Y11624688D01*
X1407544Y11858051D01*
X1402095Y11862495D01*
X1122113Y12065913D01*
X1116191Y12069730D01*
X849487Y12221239D01*
X800137Y12272278D01*
X786214Y12341896D01*
X812140Y12407990D01*
X869683Y12449575D01*
X911724Y12456795D01*
X148439473Y12456795D01*
X148507594Y12436793D01*
G37*
%TD.AperFunction*%
%TD*%
M02*
