M48
; DRILL file {KiCad (6.0.7-1)-1} date Tuesday, February 27, 2024 at 07:57:38 PM
; FORMAT={-:-/ absolute / inch / decimal}
; #@! TF.CreationDate,2024-02-27T19:57:38-05:00
; #@! TF.GenerationSoftware,Kicad,Pcbnew,(6.0.7-1)-1
; #@! TF.FileFunction,Plated,1,2,PTH
FMAT,2
INCH
; #@! TA.AperFunction,Plated,PTH,ViaDrill
T1C0.0157
; #@! TA.AperFunction,Plated,PTH,ComponentDrill
T2C0.0276
; #@! TA.AperFunction,Plated,PTH,ComponentDrill
T3C0.0394
; #@! TA.AperFunction,Plated,PTH,ComponentDrill
T4C0.1299
%
G90
G05
T1
X0.3116Y0.2006
X0.3516Y-0.0655
X0.3516Y-0.1096
X0.6616Y0.2604
X0.8922Y0.1012
X0.8922Y-0.0088
X1.1272Y0.4262
X1.1272Y0.3162
X1.4572Y0.1012
X1.4572Y-0.0088
X1.5822Y0.4312
X1.5822Y0.3212
X1.9488Y0.1024
X1.9488Y-0.0076
X2.52Y0.1012
X2.52Y-0.0088
X3.0708Y0.0968
X3.0708Y-0.0132
X3.5472Y0.0551
X3.8272Y0.4412
X3.8272Y0.3312
X4.0787Y0.0551
X4.622Y0.0551
X4.8722Y0.4662
X4.8772Y0.2912
X5.2283Y0.1024
X5.2283Y-0.0076
X5.6378Y0.1811
X5.73Y0.4324
X5.73Y0.3143
T2
X-0.084Y0.0984
X-0.084Y0.0
X0.0Y0.0984
X0.0Y0.0
X0.456Y0.0984
X0.456Y0.0
X0.54Y0.0984
X0.54Y0.0
X0.996Y0.0984
X0.996Y0.0
X1.08Y0.0984
X1.08Y0.0
X1.536Y0.0984
X1.536Y0.0
X1.62Y0.0984
X1.62Y0.0
X2.076Y0.0984
X2.076Y0.0
X2.16Y0.0984
X2.16Y0.0
X2.616Y0.0984
X2.616Y0.0
X2.7Y0.0984
X2.7Y0.0
X3.156Y0.0984
X3.156Y0.0
X3.24Y0.0984
X3.24Y0.0
X3.696Y0.0984
X3.696Y0.0
X3.78Y0.0984
X3.78Y0.0
X4.236Y0.0984
X4.236Y0.0
X4.32Y0.0984
X4.32Y0.0
X4.776Y0.0984
X4.776Y0.0
X4.86Y0.0984
X4.86Y0.0
X5.316Y0.0984
X5.316Y0.0
X5.4Y0.0984
X5.4Y0.0
X5.856Y0.0984
X5.856Y0.0
X5.94Y0.0984
X5.94Y0.0
T3
X-0.2284Y-0.0196
X-0.2284Y-0.1196
X2.2616Y0.4204
X2.3616Y0.4204
X2.4616Y0.4204
X2.5616Y0.4204
X2.6616Y0.4204
X2.7616Y0.4204
X2.8616Y0.4204
X2.9616Y0.4204
X3.0616Y0.4204
X3.1616Y0.4204
X3.2616Y0.4204
X3.3616Y0.4204
X6.0827Y-0.0196
X6.0827Y-0.1196
T4
G00X-0.1533Y0.3704
M15
G01X-0.0234Y0.3704
M16
G05
G00X5.8799Y0.3612
M15
G01X6.0098Y0.3612
M16
G05
T0
M30
