%TF.GenerationSoftware,KiCad,Pcbnew,(6.0.7-1)-1*%
%TF.CreationDate,2024-02-27T19:57:38-05:00*%
%TF.ProjectId,EMHarpsichord_KeyboardCapture_SnyderphonicsAlt,454d4861-7270-4736-9963-686f72645f4b,rev?*%
%TF.SameCoordinates,Original*%
%TF.FileFunction,Soldermask,Bot*%
%TF.FilePolarity,Negative*%
%FSLAX46Y46*%
G04 Gerber Fmt 4.6, Leading zero omitted, Abs format (unit mm)*
G04 Created by KiCad (PCBNEW (6.0.7-1)-1) date 2024-02-27 19:57:38*
%MOMM*%
%LPD*%
G01*
G04 APERTURE LIST*
G04 Aperture macros list*
%AMRoundRect*
0 Rectangle with rounded corners*
0 $1 Rounding radius*
0 $2 $3 $4 $5 $6 $7 $8 $9 X,Y pos of 4 corners*
0 Add a 4 corners polygon primitive as box body*
4,1,4,$2,$3,$4,$5,$6,$7,$8,$9,$2,$3,0*
0 Add four circle primitives for the rounded corners*
1,1,$1+$1,$2,$3*
1,1,$1+$1,$4,$5*
1,1,$1+$1,$6,$7*
1,1,$1+$1,$8,$9*
0 Add four rect primitives between the rounded corners*
20,1,$1+$1,$2,$3,$4,$5,0*
20,1,$1+$1,$4,$5,$6,$7,0*
20,1,$1+$1,$6,$7,$8,$9,0*
20,1,$1+$1,$8,$9,$2,$3,0*%
G04 Aperture macros list end*
%ADD10RoundRect,0.050000X-0.850000X-0.850000X0.850000X-0.850000X0.850000X0.850000X-0.850000X0.850000X0*%
%ADD11O,1.800000X1.800000*%
%ADD12O,8.700000X5.400000*%
%ADD13C,1.800000*%
%ADD14C,1.500000*%
G04 APERTURE END LIST*
D10*
%TO.C,J3*%
X-5800151Y-496705D03*
D11*
X-5800151Y-3036705D03*
%TD*%
D12*
%TO.C,MP1*%
X151000000Y9175495D03*
%TD*%
D10*
%TO.C,J2*%
X154500000Y-496705D03*
D11*
X154500000Y-3036705D03*
%TD*%
D12*
%TO.C,MP2*%
X-2244151Y9409295D03*
%TD*%
D11*
%TO.C,J1*%
X85385849Y10679295D03*
X82845849Y10679295D03*
X80305849Y10679295D03*
X77765849Y10679295D03*
X75225849Y10679295D03*
X72685849Y10679295D03*
X70145849Y10679295D03*
X67605849Y10679295D03*
X65065849Y10679295D03*
X62525849Y10679295D03*
X59985849Y10679295D03*
D13*
X57445849Y10679295D03*
%TD*%
D14*
%TO.C,U5*%
X52730400Y2500000D03*
X52730400Y0D03*
X54864000Y0D03*
X54864000Y2500000D03*
%TD*%
%TO.C,U12*%
X148742400Y2500000D03*
X148742400Y0D03*
X150876000Y0D03*
X150876000Y2500000D03*
%TD*%
%TO.C,U2*%
X11582400Y2500000D03*
X11582400Y0D03*
X13716000Y0D03*
X13716000Y2500000D03*
%TD*%
%TO.C,U3*%
X27432000Y2500000D03*
X27432000Y0D03*
X25298400Y0D03*
X25298400Y2500000D03*
%TD*%
%TO.C,U10*%
X123444000Y2500000D03*
X123444000Y0D03*
X121310400Y0D03*
X121310400Y2500000D03*
%TD*%
%TO.C,U8*%
X96012000Y2500000D03*
X96012000Y0D03*
X93878400Y0D03*
X93878400Y2500000D03*
%TD*%
%TO.C,U11*%
X137160000Y2500000D03*
X137160000Y0D03*
X135026400Y0D03*
X135026400Y2500000D03*
%TD*%
%TO.C,U1*%
X0Y2500000D03*
X0Y0D03*
X-2133600Y0D03*
X-2133600Y2500000D03*
%TD*%
%TO.C,U6*%
X68580000Y2500000D03*
X68580000Y0D03*
X66446400Y0D03*
X66446400Y2500000D03*
%TD*%
%TO.C,U9*%
X109728000Y2500000D03*
X109728000Y0D03*
X107594400Y0D03*
X107594400Y2500000D03*
%TD*%
%TO.C,U7*%
X82296000Y2500000D03*
X82296000Y0D03*
X80162400Y0D03*
X80162400Y2500000D03*
%TD*%
%TO.C,U4*%
X41148000Y2500000D03*
X41148000Y0D03*
X39014400Y0D03*
X39014400Y2500000D03*
%TD*%
M02*
